<?xml version="1.0" encoding="UTF-8" standalone="no"?>
<svg xmlns="http://www.w3.org/2000/svg" version="1.2" baseProfile="tiny" viewBox="0.00 0.00 720.00 480.00">
<path stroke="#838383" stroke-width="2.00" fill="none" stroke-linecap="butt" vector-effect="non-scaling-stroke" d="
  M 0.00 125.83
  L 10.28 128.87
  Q 10.79 129.02 10.95 128.50
  C 12.29 123.99 3.75 121.53 0.55 121.14
  Q 0.19 121.09 0.19 121.46
  L 0.19 121.75
  Q 0.19 122.23 0.67 122.30
  Q 5.44 123.02 8.15 125.02
  Q 12.39 128.14 7.14 126.92
  Q 4.91 126.41 0.00 124.96"
/>
<path fill="#cfc3b4" d="
  M 720.00 0.00
  L 720.00 480.00
  L 0.00 480.00
  L 0.00 125.83
  L 10.28 128.87
  Q 10.79 129.02 10.95 128.50
  C 12.29 123.99 3.75 121.53 0.55 121.14
  Q 0.19 121.09 0.19 121.46
  L 0.19 121.75
  Q 0.19 122.23 0.67 122.30
  Q 5.44 123.02 8.15 125.02
  Q 12.39 128.14 7.14 126.92
  Q 4.91 126.41 0.00 124.96
  L 0.00 0.00
  L 720.00 0.00
  Z"
/>
<path fill="#070707" d="
  M 56.41 63.73
  Q 62.17 58.82 60.93 51.35
  Q 60.04 45.98 54.89 44.45
  Q 49.49 42.85 43.95 43.59
  Q 40.56 44.04 39.05 44.10
  C 36.34 44.20 34.79 44.06 32.56 44.89
  Q 32.43 44.94 22.20 48.67
  Q 21.05 49.09 19.55 51.00
  A 0.48 0.47 -54.9 0 1 18.94 51.11
  L 18.66 50.96
  A 0.35 0.34 -59.9 0 1 18.54 50.50
  L 19.58 48.71
  Q 19.81 48.30 19.63 47.86
  C 18.05 44.04 21.67 40.43 25.02 39.25
  Q 25.65 39.03 25.17 38.57
  Q 23.60 37.07 20.99 37.49
  C 17.35 38.07 15.00 40.50 14.71 44.08
  Q 14.62 45.14 14.51 46.92
  A 0.31 0.31 0.0 0 1 14.00 47.14
  Q 11.28 44.81 10.68 44.20
  C 8.11 41.57 4.15 40.42 0.72 41.56
  A 0.42 0.42 0.0 0 1 0.16 41.16
  L 0.16 40.80
  Q 0.16 40.33 0.63 40.25
  Q 5.86 39.37 10.14 42.19
  C 11.20 42.89 12.17 44.61 13.13 45.46
  Q 13.48 45.76 13.50 45.30
  Q 13.75 39.01 18.63 36.90
  Q 22.75 35.13 26.05 37.95
  C 27.62 39.29 29.58 39.75 31.45 40.64
  Q 31.98 40.90 32.17 41.45
  L 32.56 42.57
  Q 32.74 43.11 33.32 43.12
  Q 38.78 43.17 42.57 42.73
  C 49.89 41.90 59.50 41.70 61.77 50.60
  Q 64.01 59.39 56.49 64.81
  Q 56.06 65.12 56.06 65.65
  Q 56.11 75.98 50.94 85.50
  Q 50.57 86.17 47.22 91.83
  Q 46.94 92.31 47.37 92.66
  Q 54.21 98.35 54.87 104.69
  Q 54.94 105.41 54.84 105.91
  A 1.36 1.36 0.0 0 1 52.41 106.45
  Q 49.11 101.97 48.22 100.89
  Q 47.43 99.94 46.37 99.76
  Q 45.84 99.67 46.05 100.16
  Q 48.80 106.57 45.86 112.25
  C 45.23 113.48 44.33 113.62 43.18 113.48
  Q 42.58 113.40 42.66 112.79
  Q 43.46 106.57 41.56 99.81
  Q 41.21 98.55 40.22 99.40
  L 34.34 104.39
  Q 33.33 105.25 34.03 106.37
  Q 34.82 107.63 32.90 109.94
  A 1.59 1.51 -33.4 0 1 30.19 109.45
  Q 29.95 108.56 29.06 108.65
  Q 28.44 108.71 27.73 109.18
  Q 20.06 114.23 13.04 117.26
  Q 7.42 119.69 0.49 119.13
  A 0.27 0.26 2.4 0 1 0.24 118.87
  L 0.24 118.42
  Q 0.24 118.07 0.59 118.09
  Q 10.60 118.53 19.04 113.33
  C 24.27 110.10 27.54 108.41 31.10 105.58
  Q 35.06 102.42 39.36 98.87
  Q 42.45 96.33 45.26 92.32
  C 49.51 86.26 51.42 82.88 53.63 75.92
  Q 55.11 71.30 54.96 66.60
  Q 54.85 63.13 54.34 57.10
  A 1.46 1.45 4.1 0 0 53.22 55.81
  C 49.72 54.99 45.95 55.13 42.41 56.27
  C 36.79 58.08 29.99 59.29 24.63 62.01
  Q 16.30 66.24 10.13 69.87
  Q 5.66 72.50 0.78 73.84
  A 0.42 0.42 0.0 0 1 0.25 73.48
  L 0.22 73.21
  Q 0.17 72.62 0.75 72.51
  Q 5.23 71.67 8.49 69.74
  Q 23.31 60.99 27.09 59.80
  Q 36.35 56.89 42.46 55.15
  Q 49.33 53.20 55.39 55.54
  Q 55.87 55.73 55.78 56.24
  Q 55.19 59.29 55.95 63.57
  Q 56.03 64.05 56.41 63.73
  Z"
/>
<path fill="#cfc3b4" d="
  M 23.79 45.13
  Q 23.70 47.34 21.39 47.87
  Q 20.87 47.98 20.65 47.51
  Q 19.40 44.88 22.10 42.36
  Q 26.85 37.92 31.79 42.67
  A 0.92 0.91 57.5 0 1 31.46 44.19
  L 27.09 45.70
  Q 26.81 45.80 26.56 45.65
  L 24.75 44.61
  A 0.64 0.64 0.0 0 0 23.79 45.13
  Z"
/>
<path fill="#070707" d="
  M 8.95 51.16
  C 10.68 46.12 3.32 46.13 0.56 47.16
  Q 0.23 47.29 0.23 46.94
  L 0.23 46.48
  Q 0.23 46.08 0.62 45.98
  C 4.85 44.83 12.45 45.61 9.46 52.35
  Q 6.98 57.95 0.71 57.75
  Q 0.23 57.73 0.23 57.26
  L 0.23 56.96
  A 0.38 0.38 0.0 0 1 0.68 56.59
  Q 3.50 57.17 5.60 55.44
  A 1.07 1.06 -19.9 0 0 5.99 54.62
  L 5.99 52.13
  Q 5.99 51.56 6.56 51.56
  L 8.39 51.56
  Q 8.81 51.56 8.95 51.16
  Z"
/>
<path fill="#cfc3b4" d="
  M 53.35 106.03
  C 50.98 102.51 48.90 98.97 44.96 98.23
  A 1.36 1.35 -69.7 0 1 44.04 96.22
  L 45.53 93.62
  Q 45.86 93.07 46.38 93.44
  C 49.63 95.74 54.67 101.73 53.87 105.92
  A 0.29 0.29 0.0 0 1 53.35 106.03
  Z"
/>
<path fill="#cfc3b4" d="
  M 42.90 97.60
  Q 48.58 104.67 45.04 111.52
  Q 43.46 114.58 43.94 111.17
  Q 44.68 105.95 42.10 98.78
  Q 41.84 98.08 42.59 97.55
  A 0.24 0.22 52.5 0 1 42.90 97.60
  Z"
/>
<path fill="#cfc3b4" d="
  M 32.28 106.02
  A 0.27 0.27 0.0 0 1 32.65 106.07
  L 32.75 106.19
  A 1.91 1.56 52.3 0 1 32.69 108.66
  L 32.46 108.83
  A 1.91 1.56 52.3 0 1 30.06 108.27
  L 29.96 108.15
  A 0.27 0.27 0.0 0 1 30.01 107.77
  L 32.28 106.02
  Z"
/>
<path fill="#070707" d="
  M 0.00 125.83
  L 0.00 124.96
  Q 4.91 126.41 7.14 126.92
  Q 12.39 128.14 8.15 125.02
  Q 5.44 123.02 0.67 122.30
  Q 0.19 122.23 0.19 121.75
  L 0.19 121.46
  Q 0.19 121.09 0.55 121.14
  C 3.75 121.53 12.29 123.99 10.95 128.50
  Q 10.79 129.02 10.28 128.87
  L 0.00 125.83
  Z"
/>
<path fill="#070707" d="
  M 8.78 137.79
  Q 6.56 132.51 0.69 129.99
  Q 0.39 129.86 0.39 129.54
  L 0.39 129.18
  Q 0.39 128.60 0.92 128.84
  Q 7.17 131.70 9.98 137.49
  A 1.39 1.38 -11.9 0 1 8.68 139.48
  C 5.53 139.36 2.62 136.73 0.43 134.62
  A 0.79 0.74 23.9 0 1 0.20 134.08
  L 0.20 133.40
  A 0.35 0.35 0.0 0 1 0.81 133.17
  Q 3.98 136.83 8.09 138.49
  Q 9.28 138.98 8.78 137.79
  Z"
/>
</svg>
