<?xml version="1.0" encoding="UTF-8" standalone="no"?>
<svg xmlns="http://www.w3.org/2000/svg" version="1.2" baseProfile="tiny" viewBox="0.00 0.00 720.00 480.00">
<path fill="#cfc3b4" d="
  M 720.00 0.00
  L 720.00 480.00
  L 0.00 480.00
  L 0.00 0.00
  L 720.00 0.00
  Z"
/>
<path fill="#040404" d="
  M 20.74 112.24
  A 0.12 0.12 0.0 0 0 20.82 112.05
  L 11.24 99.25
  Q 10.74 98.58 11.55 98.38
  L 11.88 98.30
  Q 12.07 98.25 12.18 98.41
  Q 17.37 106.35 22.45 111.81
  Q 24.65 114.17 30.10 115.87
  Q 34.81 117.33 39.31 119.19
  Q 41.74 120.20 49.40 121.14
  Q 53.22 121.61 54.78 122.80
  C 58.41 125.58 58.98 129.44 60.41 134.58
  A 0.56 0.56 0.0 0 0 61.50 134.50
  C 61.61 133.67 62.09 132.84 61.80 131.80
  C 60.80 128.16 58.82 125.64 56.33 121.77
  A 1.38 1.38 0.0 0 1 57.74 119.66
  C 58.41 119.78 59.19 120.07 59.63 120.39
  Q 65.07 124.44 73.02 126.83
  A 0.71 0.66 -0.2 0 0 73.92 125.99
  L 73.66 125.28
  A 2.52 2.52 0.0 0 0 71.89 123.69
  C 66.76 122.41 64.61 122.10 61.50 119.88
  A 1.49 1.49 0.0 0 1 62.22 117.19
  C 63.26 117.08 64.49 117.04 65.62 117.41
  Q 69.22 118.61 73.05 118.79
  A 0.86 0.78 -5.3 0 0 73.94 117.82
  Q 73.89 117.65 73.87 117.55
  A 1.50 1.50 0.0 0 0 72.40 116.39
  Q 64.04 116.50 60.32 115.44
  Q 57.30 114.58 51.27 111.03
  Q 50.89 110.81 50.46 110.83
  L 41.97 111.22
  Q 41.85 111.22 41.78 111.12
  L 41.44 110.68
  Q 41.10 110.21 41.68 110.19
  Q 53.07 109.64 62.77 107.49
  Q 68.60 106.20 79.55 101.32
  Q 87.22 97.90 94.89 94.22
  Q 97.51 92.96 99.32 90.78
  Q 104.36 84.67 108.77 76.26
  Q 113.35 67.54 112.09 57.44
  A 0.83 0.83 0.0 0 0 111.54 56.75
  C 105.90 54.71 98.62 57.45 91.95 59.44
  C 78.10 63.58 66.56 67.21 53.50 67.97
  Q 47.25 68.33 41.08 66.13
  Q 40.96 66.09 40.96 65.97
  L 40.96 65.64
  Q 40.96 65.35 41.24 65.42
  C 49.18 67.29 54.74 67.14 63.17 65.85
  C 72.63 64.40 82.65 60.90 92.51 58.22
  C 99.08 56.44 108.34 52.83 113.01 56.57
  Q 113.37 56.85 113.37 57.31
  L 113.37 66.49
  Q 113.37 67.44 114.04 66.78
  C 118.28 62.65 122.63 55.06 117.10 50.54
  Q 115.39 49.14 110.73 47.58
  C 107.07 46.35 104.83 45.47 101.69 45.15
  Q 99.90 44.96 92.98 44.48
  Q 92.47 44.44 92.16 44.84
  Q 87.95 50.24 80.95 48.57
  Q 79.99 48.34 79.46 47.35
  C 78.04 44.67 77.29 42.22 79.97 39.99
  Q 82.66 37.75 85.70 37.23
  A 0.37 0.36 66.7 0 0 85.93 36.65
  L 85.73 36.37
  A 1.63 1.63 0.0 0 0 84.37 35.72
  Q 80.57 35.84 77.62 38.71
  C 76.41 39.88 75.86 41.88 74.95 43.59
  A 1.01 1.01 0.0 0 1 73.24 43.70
  Q 71.68 41.53 70.23 39.01
  Q 68.81 36.53 65.53 36.82
  Q 60.63 37.26 59.82 37.34
  C 57.29 37.61 52.55 39.74 51.59 42.70
  C 50.87 44.92 51.78 46.85 52.79 49.07
  Q 52.90 49.32 52.73 49.53
  Q 52.64 49.65 52.48 49.67
  Q 52.32 49.70 52.22 49.56
  C 48.65 44.64 50.24 39.89 55.72 37.53
  Q 59.59 35.87 64.52 35.40
  C 70.05 34.88 71.56 39.12 73.58 42.37
  A 0.42 0.42 0.0 0 0 74.33 42.28
  Q 76.70 35.40 83.63 34.63
  C 85.77 34.39 86.90 35.25 87.96 36.94
  Q 88.23 37.37 88.71 37.57
  Q 91.69 38.82 91.97 42.13
  A 1.28 1.28 0.0 0 0 93.09 43.30
  C 97.00 43.78 101.88 43.71 106.49 45.20
  C 111.56 46.83 117.39 47.91 119.62 52.09
  C 122.81 58.10 118.31 65.27 113.34 68.53
  Q 112.92 68.81 112.75 69.29
  Q 108.06 82.74 98.07 93.60
  Q 97.28 94.46 98.44 94.43
  Q 99.84 94.39 100.40 96.14
  C 101.67 100.05 100.43 104.90 100.62 107.25
  Q 100.75 108.83 101.10 110.07
  A 0.60 0.59 52.1 0 0 102.19 110.21
  Q 105.10 105.15 102.58 96.99
  Q 102.07 95.32 103.71 95.75
  Q 103.85 95.78 103.99 95.80
  Q 105.54 96.01 106.11 97.60
  C 107.69 102.02 108.63 105.82 109.56 106.47
  A 0.51 0.51 0.0 0 0 110.36 106.10
  C 110.83 100.68 105.67 93.37 102.23 89.43
  Q 102.06 89.24 102.27 89.09
  L 102.56 88.87
  Q 102.81 88.68 103.00 88.92
  Q 108.04 95.02 111.08 102.12
  Q 112.02 104.33 111.16 106.75
  A 1.56 1.56 0.0 0 1 108.76 107.47
  C 107.47 106.51 106.68 102.48 105.55 98.73
  Q 105.19 97.56 104.31 96.89
  Q 103.63 96.38 103.85 97.19
  C 105.12 101.95 105.64 106.13 103.19 110.55
  A 1.91 1.90 -42.5 0 1 99.78 110.40
  Q 99.39 109.52 99.49 108.00
  Q 99.83 102.85 99.96 99.76
  Q 100.12 96.12 97.43 94.91
  Q 97.08 94.75 96.96 94.40
  Q 96.86 94.12 96.53 94.09
  Q 96.23 94.07 95.98 94.25
  L 93.31 96.25
  Q 92.95 96.53 92.87 96.97
  Q 92.14 101.26 89.39 105.97
  A 2.47 0.43 88.1 0 0 89.15 107.70
  Q 89.15 108.01 89.28 108.28
  Q 89.66 109.00 90.14 108.34
  Q 94.17 102.77 95.47 95.87
  A 0.52 0.49 -2.1 0 1 95.85 95.48
  L 96.61 95.28
  Q 96.83 95.22 96.78 95.45
  C 95.92 99.32 93.59 107.51 90.16 109.26
  A 1.56 1.55 85.1 0 1 87.97 107.41
  Q 88.84 104.64 90.65 101.15
  Q 91.25 100.00 91.63 97.61
  Q 91.72 97.06 91.16 97.15
  C 89.88 97.36 88.01 98.76 86.91 99.22
  Q 79.28 102.44 76.19 103.92
  Q 66.63 108.46 55.12 109.75
  Q 51.13 110.20 54.71 112.01
  Q 59.09 114.24 62.64 114.92
  C 65.76 115.51 70.11 115.17 73.21 115.46
  Q 75.11 115.64 75.45 117.91
  Q 75.46 117.97 75.26 118.45
  Q 74.50 120.28 72.55 119.93
  L 63.64 118.31
  A 0.82 0.81 -13.3 0 0 62.84 119.60
  L 63.22 120.11
  A 0.68 0.65 78.2 0 0 63.58 120.36
  Q 67.01 121.33 72.35 122.84
  Q 75.27 123.67 75.02 126.20
  A 1.85 1.84 11.3 0 1 72.64 127.78
  Q 64.62 125.29 58.86 121.18
  Q 56.45 119.46 58.00 121.99
  C 60.62 126.26 64.00 130.56 62.27 135.08
  Q 62.08 135.57 61.57 135.67
  Q 60.77 135.84 60.16 135.58
  Q 59.70 135.38 59.56 134.89
  C 57.98 129.27 56.78 122.79 49.88 122.26
  C 46.31 121.99 40.24 120.85 37.81 119.73
  Q 34.83 118.35 30.93 117.29
  Q 26.77 116.16 22.26 113.05
  Q 21.82 112.75 21.31 112.92
  Q 11.15 116.43 0.34 113.05
  A 0.25 0.24 -82.4 0 1 0.17 112.81
  L 0.17 112.08
  Q 0.17 111.73 0.50 111.84
  Q 8.64 114.70 16.69 112.93
  Q 18.37 112.56 20.74 112.24
  Z"
/>
<path fill="#cfc3b4" d="
  M 84.19 44.60
  Q 83.13 44.40 82.84 45.80
  Q 82.65 46.74 82.64 46.93
  Q 82.60 48.69 81.29 47.41
  C 76.73 42.92 80.26 40.45 84.34 38.81
  C 88.11 37.30 90.94 39.31 91.22 43.28
  C 91.40 45.80 87.81 47.16 85.81 47.76
  A 0.43 0.43 0.0 0 1 85.25 47.31
  Q 85.33 46.23 84.90 45.18
  Q 84.71 44.69 84.19 44.60
  Z"
/>
<path fill="#040404" d="
  M 42.10 44.59
  L 46.75 42.77
  A 1.05 1.04 60.8 0 1 47.97 43.12
  L 48.16 43.37
  A 0.11 0.11 0.0 0 1 48.10 43.54
  Q 43.80 44.73 42.03 45.77
  Q 38.83 47.63 33.72 51.93
  Q 33.50 52.12 33.33 51.89
  L 33.16 51.65
  A 0.49 0.49 0.0 0 1 33.26 50.95
  L 40.66 45.41
  A 0.52 0.51 44.1 0 0 40.64 44.58
  C 36.83 41.95 33.92 41.87 28.51 42.36
  Q 20.58 43.07 11.24 44.74
  Q 6.24 45.64 0.78 47.97
  Q 0.44 48.12 0.25 47.79
  Q 0.16 47.63 0.21 47.48
  A 1.49 1.48 -89.5 0 1 1.15 46.55
  C 7.38 44.53 37.74 36.62 41.56 44.38
  Q 41.73 44.74 42.10 44.59
  Z"
/>
<path fill="#040404" d="
  M 67.35 41.02
  A 2.22 2.22 0.0 0 1 69.74 43.06
  L 69.89 45.03
  A 5.70 5.35 -4.4 0 1 64.61 50.80
  L 62.88 50.93
  A 5.70 5.35 -4.4 0 1 56.78 46.04
  L 56.63 44.07
  A 2.22 2.22 0.0 0 1 58.68 41.69
  L 67.35 41.02
  Z"
/>
<path fill="#cfc3b4" d="
  M 67.58 47.13
  C 66.21 46.93 64.87 48.18 64.25 49.23
  A 1.15 1.13 8.3 0 1 63.50 49.78
  C 57.25 51.24 55.09 42.36 62.36 42.23
  C 65.84 42.17 69.23 41.09 68.98 45.99
  Q 68.91 47.32 67.58 47.13
  Z"
/>
</svg>
