<?xml version="1.0" encoding="UTF-8" standalone="no"?>
<svg xmlns="http://www.w3.org/2000/svg" version="1.2" baseProfile="tiny" viewBox="0.00 0.00 720.00 480.00">
<path fill="#cfc3b4" d="
  M 720.00 0.00
  L 720.00 480.00
  L 0.00 480.00
  L 0.00 0.00
  L 720.00 0.00
  Z"
/>
<path fill="#040505" d="
  M 318.41 359.94
  Q 317.33 360.62 318.61 360.67
  C 321.89 360.81 327.53 360.59 331.08 361.64
  Q 334.26 362.59 337.55 363.61
  Q 339.17 364.11 339.19 362.41
  C 339.27 357.02 344.08 351.32 348.16 348.40
  Q 353.09 344.86 360.90 340.26
  Q 361.24 340.06 361.53 340.34
  L 361.78 340.59
  Q 361.87 340.69 361.76 340.76
  Q 357.64 343.23 350.89 347.64
  C 346.05 350.81 339.69 357.22 340.32 363.18
  Q 340.37 363.66 340.71 364.00
  C 343.64 366.98 347.30 367.73 351.29 368.37
  C 357.60 369.38 364.01 368.58 370.33 369.48
  Q 378.54 370.64 386.94 373.74
  C 390.11 374.91 392.43 374.88 395.07 372.93
  A 0.60 0.60 0.0 0 0 394.93 371.89
  L 390.59 370.27
  Q 390.24 370.14 390.51 369.87
  L 390.76 369.61
  Q 390.82 369.55 390.91 369.56
  Q 392.77 369.78 394.65 370.61
  C 397.91 372.05 400.34 371.76 403.06 370.19
  Q 403.52 369.92 403.29 369.45
  C 402.87 368.60 402.50 368.11 401.40 368.18
  C 396.95 368.42 394.23 369.05 390.25 367.09
  Q 380.37 362.22 373.45 358.29
  Q 372.94 358.00 372.36 358.06
  L 358.99 359.44
  Q 356.38 359.71 358.82 358.71
  C 361.04 357.81 363.39 357.98 368.12 357.63
  Q 370.42 357.46 373.46 356.21
  C 376.35 355.04 379.45 354.57 382.36 352.90
  Q 382.67 352.73 382.75 353.06
  Q 382.78 353.19 382.75 353.36
  Q 382.73 353.47 382.60 353.58
  C 380.03 355.77 377.58 355.62 374.92 356.95
  A 0.61 0.61 0.0 0 0 374.92 358.04
  Q 381.98 361.53 389.63 365.65
  C 393.36 367.66 396.72 367.23 400.88 367.12
  Q 403.24 367.06 404.99 366.22
  C 407.81 364.87 410.04 364.10 412.72 366.50
  Q 413.02 366.77 413.43 366.73
  L 415.29 366.54
  Q 415.64 366.50 415.66 366.85
  L 415.69 367.27
  Q 415.70 367.51 415.45 367.54
  L 413.38 367.75
  A 1.07 1.07 0.0 0 0 412.90 369.71
  Q 416.00 371.75 419.44 370.56
  A 0.62 0.57 -18.6 0 0 419.84 369.83
  L 419.20 367.80
  Q 419.05 367.33 419.51 367.50
  L 420.06 367.71
  A 0.49 0.45 87.8 0 1 420.34 367.99
  Q 421.52 371.37 425.53 371.21
  Q 427.31 371.14 427.98 369.46
  Q 428.17 368.97 427.81 368.59
  Q 424.83 365.47 420.26 366.08
  Q 418.44 366.32 417.40 365.92
  A 0.22 0.21 -39.9 0 1 417.44 365.51
  Q 423.97 364.11 428.60 360.84
  C 432.14 358.34 437.54 354.35 440.41 350.64
  Q 443.08 347.20 444.81 343.55
  C 445.89 341.25 445.72 339.43 446.26 336.93
  A 0.92 0.92 0.0 0 0 445.99 336.08
  C 443.33 333.50 437.17 333.87 433.55 334.24
  Q 423.36 335.30 414.88 337.16
  Q 410.95 338.03 400.39 338.08
  C 391.40 338.11 386.77 338.48 380.25 334.63
  A 0.27 0.27 0.0 0 1 380.13 334.30
  L 380.24 334.02
  A 0.40 0.40 0.0 0 1 380.78 333.80
  C 384.82 335.71 386.66 336.92 391.50 337.01
  Q 402.40 337.22 405.22 337.09
  C 414.44 336.67 425.17 333.80 434.00 332.95
  C 436.97 332.67 446.27 332.58 447.12 336.04
  C 447.41 337.20 446.74 338.83 446.76 339.82
  Q 446.80 341.55 448.37 340.65
  Q 450.39 339.48 453.07 337.08
  Q 454.64 335.67 453.83 333.97
  C 450.06 325.99 442.62 320.51 434.46 318.42
  Q 431.59 317.68 422.29 314.86
  A 0.59 0.59 0.0 0 1 421.91 314.07
  C 424.11 308.85 420.62 305.32 415.41 305.36
  C 411.15 305.39 408.15 305.45 405.67 309.63
  Q 405.42 310.05 405.62 310.48
  L 405.92 311.17
  Q 406.22 311.85 405.53 311.73
  Q 405.29 311.69 405.14 311.60
  Q 404.86 311.43 404.75 311.28
  Q 401.52 306.75 397.04 306.36
  Q 388.60 305.63 385.58 313.36
  A 0.26 0.26 0.0 0 1 385.15 313.45
  L 384.92 313.22
  Q 384.85 313.15 384.88 313.06
  C 385.32 311.58 385.40 310.19 386.40 309.14
  Q 390.23 305.10 396.63 305.19
  Q 400.52 305.25 403.98 308.65
  Q 404.65 309.32 405.16 308.52
  C 407.99 304.14 412.08 304.02 416.82 304.49
  C 421.72 304.98 424.14 307.86 423.41 313.08
  Q 423.29 314.01 424.20 314.25
  C 427.09 315.00 430.58 316.49 434.37 317.42
  Q 442.81 319.49 449.37 325.66
  C 451.70 327.84 456.83 334.21 454.26 337.26
  Q 451.23 340.87 447.03 342.10
  Q 446.54 342.25 446.33 342.71
  Q 442.38 351.44 435.39 357.35
  C 433.69 358.78 431.65 359.81 430.09 361.09
  Q 427.98 362.83 430.67 362.33
  Q 434.49 361.64 437.70 362.89
  A 1.45 1.44 77.7 0 1 438.21 363.22
  Q 440.89 366.05 436.40 367.93
  Q 433.01 369.35 429.93 369.07
  Q 429.43 369.03 429.18 369.47
  Q 428.26 371.10 427.78 371.54
  C 426.20 372.97 423.13 372.21 421.37 371.35
  Q 420.92 371.13 420.47 371.34
  Q 416.97 372.96 412.81 370.96
  Q 412.37 370.75 412.12 370.36
  L 411.46 369.34
  Q 411.18 368.90 410.70 369.13
  Q 407.77 370.60 406.52 370.71
  Q 403.84 370.94 402.44 371.62
  Q 401.11 372.27 397.50 372.89
  Q 397.00 372.97 396.61 373.30
  C 393.00 376.32 389.81 376.05 385.25 374.32
  Q 376.00 370.82 367.54 370.28
  C 363.50 370.02 356.45 370.46 351.35 369.40
  C 347.66 368.64 342.94 367.85 339.98 365.03
  A 1.42 1.42 0.0 0 0 337.76 365.38
  C 336.13 368.36 333.57 367.20 331.00 367.44
  A 1.33 1.29 -71.0 0 0 330.17 367.86
  C 326.23 372.14 320.78 368.23 316.54 368.88
  Q 315.56 369.03 316.26 369.72
  L 318.23 371.70
  A 1.19 1.19 0.0 0 1 317.52 373.73
  C 314.70 374.04 311.65 370.99 309.79 369.95
  C 305.55 367.58 301.09 368.67 295.29 368.87
  C 292.99 368.94 284.46 368.08 284.96 364.81
  C 285.13 363.66 286.31 362.66 286.88 361.73
  A 0.91 0.88 -43.0 0 0 286.92 360.88
  C 282.55 351.63 290.99 338.88 297.42 332.67
  C 304.72 325.61 310.70 320.66 320.27 317.27
  Q 324.64 315.72 338.81 311.82
  C 343.77 310.45 348.31 309.92 354.18 308.94
  Q 369.17 306.44 383.76 308.49
  Q 384.77 308.63 385.23 309.43
  Q 385.51 309.90 384.97 309.82
  C 373.02 307.92 364.37 308.76 351.90 310.42
  C 340.98 311.87 331.85 314.68 320.28 318.27
  C 310.37 321.34 301.95 329.29 294.97 336.73
  C 291.79 340.12 289.93 344.17 288.27 348.16
  Q 285.88 353.88 287.43 360.11
  A 0.94 0.94 0.0 0 0 289.02 360.54
  Q 292.30 357.17 295.22 353.01
  C 299.69 346.65 304.81 342.17 311.45 339.12
  C 315.05 337.46 318.45 337.71 322.54 337.05
  Q 322.87 336.99 322.90 337.33
  L 322.94 337.71
  Q 322.96 337.87 322.81 337.90
  Q 319.40 338.65 316.79 338.89
  C 311.10 339.41 305.65 343.39 301.42 347.18
  C 297.05 351.09 294.45 357.09 289.71 361.16
  Q 287.33 363.20 286.63 363.89
  A 1.43 1.43 0.0 0 0 286.95 366.18
  C 291.63 368.70 297.11 367.60 304.07 367.32
  Q 305.84 367.25 308.16 368.07
  C 310.84 369.03 314.06 372.19 316.31 372.53
  Q 316.93 372.63 316.67 371.99
  L 316.37 371.27
  Q 316.10 370.61 315.18 370.15
  Q 313.74 369.44 313.97 368.43
  Q 314.09 367.92 314.61 367.84
  Q 318.16 367.32 319.53 367.65
  C 322.54 368.37 327.11 369.90 329.00 367.54
  Q 329.39 367.06 328.81 366.81
  Q 326.82 365.94 324.59 366.11
  Q 324.13 366.14 324.09 365.69
  L 324.06 365.41
  Q 324.02 365.06 324.37 365.03
  Q 328.90 364.57 333.06 366.50
  A 2.20 2.19 -54.9 0 0 335.54 366.06
  L 336.12 365.48
  Q 336.77 364.84 335.93 364.48
  Q 330.35 362.10 327.49 362.01
  Q 322.85 361.87 314.81 361.87
  Q 312.92 361.87 314.56 360.93
  C 318.00 358.95 322.99 356.10 326.32 353.06
  Q 333.63 346.38 337.55 342.56
  C 339.52 340.63 341.92 336.93 339.72 334.35
  Q 337.72 332.00 334.63 331.60
  Q 323.65 330.19 311.76 334.24
  C 305.90 336.24 301.78 339.41 297.23 343.45
  A 0.21 0.20 46.0 0 1 296.95 343.44
  L 296.67 343.16
  A 0.60 0.60 0.0 0 1 296.69 342.29
  C 301.24 338.18 306.93 334.22 313.38 332.63
  C 320.53 330.88 325.82 329.64 332.94 330.17
  C 341.49 330.80 344.55 337.45 337.87 343.73
  C 331.30 349.91 325.49 355.49 318.41 359.94
  Z"
/>
<path fill="#040505" d="
  M 416.80 311.44
  C 415.07 310.42 411.01 311.78 410.03 311.91
  A 0.39 0.38 26.3 0 1 409.78 311.19
  C 411.45 310.28 416.96 309.08 418.45 311.02
  Q 419.73 312.68 417.78 311.98
  Q 417.62 311.93 416.80 311.44
  Z"
/>
<path fill="#040505" d="
  M 396.60 311.24
  C 397.70 311.39 399.36 312.01 401.22 312.53
  Q 401.90 312.73 401.83 313.37
  A 0.53 0.53 0.0 0 1 401.06 313.79
  Q 398.79 312.64 396.45 312.32
  Q 394.11 312.00 391.62 312.51
  A 0.53 0.53 0.0 0 1 390.99 311.90
  Q 391.09 311.26 391.80 311.26
  C 393.73 311.25 395.50 311.09 396.60 311.24
  Z"
/>
<path fill="#cfc3b4" d="
  M 425.35 365.66
  Q 424.54 365.57 424.28 365.35
  A 0.67 0.66 58.3 0 1 424.55 364.20
  Q 428.12 363.30 431.37 363.31
  C 433.43 363.32 435.41 363.08 437.48 363.92
  A 1.22 1.22 0.0 0 1 437.69 366.07
  Q 434.37 368.27 429.99 367.97
  C 428.04 367.84 426.80 365.84 425.35 365.66
  Z"
/>
<ellipse fill="#cfc3b4" cx="0.00" cy="0.00" transform="translate(407.67,367.82) rotate(-17.8)" rx="3.55" ry="1.40"/>
</svg>
