<?xml version="1.0" encoding="UTF-8" standalone="no"?>
<svg xmlns="http://www.w3.org/2000/svg" version="1.2" baseProfile="tiny" viewBox="0.00 0.00 720.00 480.00">
<path fill="#cfc3b4" d="
  M 720.00 0.00
  L 720.00 480.00
  L 0.00 480.00
  L 0.00 0.00
  L 720.00 0.00
  Z"
/>
<path fill="#040505" d="
  M 318.41 359.93
  Q 317.33 360.62 318.61 360.68
  C 321.53 360.82 327.57 360.57 331.07 361.63
  Q 334.16 362.57 337.53 363.62
  Q 339.16 364.12 339.19 362.41
  C 339.28 356.95 344.18 351.20 348.30 348.29
  Q 353.52 344.61 361.01 340.18
  Q 361.48 339.91 361.67 340.41
  L 361.76 340.66
  Q 361.81 340.81 361.68 340.88
  Q 357.79 343.10 354.04 345.58
  C 347.27 350.06 342.30 353.63 340.29 361.30
  C 338.96 366.40 348.85 367.89 351.78 368.44
  C 355.51 369.15 361.71 369.01 363.70 368.98
  C 371.23 368.86 379.50 371.02 386.67 373.64
  C 389.89 374.83 392.54 375.02 395.11 372.88
  A 0.58 0.58 0.0 0 0 394.94 371.89
  L 390.63 370.29
  Q 390.43 370.21 390.51 370.01
  L 390.64 369.66
  Q 390.68 369.55 390.80 369.56
  C 393.45 369.79 395.96 371.74 398.12 371.59
  Q 401.19 371.38 403.07 370.18
  Q 403.52 369.89 403.28 369.42
  Q 402.99 368.85 402.56 368.43
  Q 402.24 368.12 401.41 368.17
  C 397.35 368.42 393.94 369.04 390.21 367.16
  Q 379.70 361.85 373.57 358.27
  Q 373.07 357.99 372.50 358.05
  L 358.99 359.44
  Q 356.59 359.69 358.82 358.72
  C 361.00 357.78 363.44 358.00 368.31 357.60
  Q 370.40 357.43 373.46 356.21
  C 376.35 355.05 379.46 354.56 382.36 352.90
  Q 382.68 352.72 382.76 353.08
  Q 382.80 353.25 382.77 353.39
  Q 382.74 353.57 382.64 353.66
  Q 380.92 355.24 377.05 356.08
  Q 376.01 356.30 375.12 356.86
  Q 373.99 357.56 375.18 358.16
  Q 381.45 361.29 389.63 365.61
  C 393.60 367.71 397.17 367.25 401.52 367.10
  Q 403.16 367.05 404.37 366.47
  C 407.04 365.20 410.17 363.86 412.57 366.37
  Q 412.97 366.80 413.56 366.74
  L 415.52 366.54
  Q 415.80 366.51 415.69 366.80
  L 415.49 367.34
  A 0.23 0.22 1.9 0 1 415.33 367.48
  L 412.98 367.96
  Q 412.49 368.06 412.55 368.61
  C 412.84 371.41 417.89 371.14 419.53 370.52
  Q 420.01 370.33 419.84 369.81
  L 419.23 368.04
  A 0.40 0.40 0.0 0 1 419.75 367.54
  L 420.27 367.73
  Q 420.37 367.77 420.40 367.86
  Q 421.35 371.16 425.06 371.22
  Q 427.28 371.26 427.98 369.48
  A 0.84 0.84 0.0 0 0 427.83 368.63
  Q 424.88 365.16 418.18 366.24
  A 0.70 0.00 24.3 0 1 417.55 365.96
  L 417.34 365.86
  A 0.29 0.25 49.9 0 1 417.35 365.34
  Q 424.04 364.29 428.87 360.61
  C 433.32 357.22 437.24 354.67 440.32 350.72
  C 442.65 347.75 445.19 344.08 445.72 340.45
  Q 446.09 337.85 446.23 336.88
  Q 446.30 336.36 445.92 336.01
  C 443.39 333.65 437.90 333.86 434.54 334.18
  Q 427.39 334.84 421.98 335.83
  Q 413.21 337.43 409.51 337.65
  Q 397.39 338.38 390.01 337.99
  Q 385.10 337.72 380.35 334.45
  Q 380.18 334.33 380.29 334.16
  L 380.55 333.70
  Q 380.66 333.50 380.85 333.63
  Q 385.50 336.88 391.59 337.07
  Q 396.17 337.21 405.32 337.10
  Q 409.77 337.05 418.78 335.30
  Q 426.98 333.72 433.75 332.97
  C 436.69 332.65 446.24 332.54 447.11 336.02
  C 447.41 337.20 446.74 338.82 446.76 339.84
  Q 446.81 341.67 448.36 340.70
  Q 450.83 339.14 452.93 337.18
  C 454.04 336.15 454.39 335.44 453.79 333.97
  C 450.86 326.79 443.40 321.21 436.21 319.02
  Q 424.42 315.45 422.26 314.83
  A 0.56 0.56 0.0 0 1 421.90 314.08
  Q 424.17 308.74 419.10 305.89
  C 417.72 305.12 413.19 305.28 411.66 305.50
  Q 407.74 306.06 405.68 309.61
  Q 405.40 310.09 405.61 310.49
  L 405.94 311.14
  Q 406.22 311.66 405.60 311.72
  Q 405.06 311.77 404.78 311.35
  Q 401.80 306.93 397.42 306.43
  Q 388.68 305.43 385.59 313.34
  A 0.25 0.24 -68.9 0 1 385.28 313.48
  L 385.00 313.38
  Q 384.87 313.32 384.90 313.18
  C 385.19 311.97 385.40 310.15 386.40 309.12
  Q 390.37 305.05 396.57 305.20
  Q 400.68 305.30 403.77 308.51
  Q 404.57 309.35 405.23 308.39
  Q 408.38 303.84 414.30 304.30
  C 416.46 304.47 418.65 304.40 420.41 305.46
  Q 424.31 307.80 423.36 313.21
  A 0.81 0.80 -75.0 0 0 423.88 314.11
  Q 429.08 315.99 433.54 317.20
  C 441.26 319.29 447.19 322.56 451.87 328.44
  C 453.33 330.27 455.95 334.53 454.65 336.82
  C 453.46 338.90 449.19 341.66 447.30 341.98
  A 1.27 0.86 -71.0 0 0 446.57 342.53
  Q 446.55 342.55 444.08 346.90
  Q 440.73 352.80 435.34 357.44
  C 433.79 358.77 431.35 359.98 429.77 361.36
  Q 428.32 362.61 430.22 362.37
  C 432.63 362.06 438.97 361.56 439.24 364.85
  C 439.52 368.30 431.90 369.26 429.95 369.07
  Q 429.44 369.02 429.18 369.46
  Q 428.25 371.08 427.82 371.47
  C 426.15 373.00 423.23 372.24 421.32 371.33
  Q 420.86 371.11 420.40 371.33
  Q 417.00 372.95 412.84 371.02
  A 1.72 1.65 -3.0 0 1 412.18 370.45
  L 411.46 369.34
  Q 411.17 368.90 410.70 369.13
  Q 407.77 370.59 406.52 370.71
  C 403.13 371.00 401.14 372.31 397.50 372.89
  Q 397.00 372.97 396.62 373.30
  C 392.95 376.43 389.62 375.97 385.00 374.27
  Q 374.94 370.54 367.57 370.31
  Q 358.32 370.02 357.59 370.01
  C 352.07 369.95 343.54 368.40 339.99 365.05
  A 1.45 1.45 0.0 0 0 337.74 365.37
  C 336.06 368.22 333.69 367.40 331.13 367.42
  Q 330.60 367.42 330.24 367.81
  Q 327.65 370.67 323.98 369.76
  Q 319.43 368.64 316.61 368.85
  Q 316.06 368.89 316.29 369.39
  Q 316.88 370.70 317.24 370.97
  Q 320.33 373.25 316.61 373.88
  Q 316.46 373.91 315.47 373.57
  Q 314.93 373.38 314.43 373.03
  C 310.74 370.43 307.64 368.22 303.48 368.47
  C 296.20 368.91 291.94 369.66 286.20 366.93
  A 2.17 2.17 0.0 0 1 285.41 363.66
  L 286.84 361.79
  A 0.87 0.85 51.3 0 0 286.93 360.88
  C 282.49 351.88 290.97 338.92 297.29 332.79
  C 304.78 325.53 311.49 319.90 321.72 316.78
  Q 340.55 311.04 343.43 310.63
  Q 348.06 309.97 354.37 308.94
  Q 369.31 306.48 383.53 308.44
  Q 384.69 308.60 385.21 309.44
  Q 385.51 309.91 384.96 309.82
  C 371.02 307.46 358.83 309.32 344.34 311.58
  Q 339.90 312.28 321.92 317.81
  Q 315.36 319.82 312.28 321.80
  C 305.74 325.99 299.24 331.99 294.14 337.65
  Q 292.12 339.89 290.20 343.87
  C 287.43 349.60 285.82 354.15 287.48 360.19
  A 0.90 0.90 0.0 0 0 289.00 360.58
  C 293.29 356.20 296.86 349.88 301.17 345.96
  Q 305.53 342.01 310.73 339.45
  C 314.74 337.48 318.59 337.70 322.57 337.06
  Q 322.87 337.02 322.90 337.32
  L 322.94 337.70
  Q 322.96 337.86 322.80 337.90
  Q 319.25 338.68 316.79 338.89
  C 311.12 339.36 305.40 343.56 301.31 347.30
  C 296.96 351.27 294.15 357.42 289.65 361.25
  Q 287.46 363.11 286.63 363.91
  A 1.37 1.37 0.0 0 0 286.86 366.06
  Q 289.48 367.68 292.79 367.68
  Q 297.76 367.67 304.03 367.29
  C 306.17 367.16 309.30 368.34 311.66 369.96
  Q 314.46 371.87 316.16 372.69
  Q 316.57 372.89 316.65 372.44
  Q 316.74 371.93 316.47 371.47
  Q 315.84 370.45 315.45 370.28
  Q 313.71 369.53 313.97 368.43
  Q 314.09 367.91 314.61 367.84
  Q 318.25 367.29 319.77 367.69
  C 322.48 368.40 327.18 369.88 329.00 367.53
  Q 329.37 367.06 328.82 366.82
  Q 326.80 365.93 324.57 366.11
  Q 324.14 366.14 324.10 365.71
  L 324.06 365.32
  Q 324.03 365.07 324.27 365.05
  Q 328.73 364.54 332.90 366.43
  A 2.48 2.46 -51.3 0 0 335.42 366.14
  L 335.92 365.76
  Q 337.02 364.92 335.83 364.41
  C 328.69 361.35 324.14 361.86 314.83 361.87
  Q 312.92 361.87 314.58 360.92
  C 317.99 358.95 323.05 356.08 326.32 353.06
  Q 331.91 347.90 337.43 342.69
  Q 339.70 340.55 340.50 337.73
  C 341.44 334.45 337.65 332.09 334.83 331.66
  Q 324.37 330.09 312.11 334.13
  Q 303.87 336.85 297.75 343.15
  A 0.75 0.75 0.0 0 1 296.83 343.28
  L 296.48 343.08
  A 0.31 0.30 -50.5 0 1 296.44 342.58
  Q 303.25 336.65 307.34 334.84
  Q 318.42 329.94 332.58 330.09
  C 339.28 330.16 344.88 335.89 339.29 342.04
  Q 329.37 352.96 318.41 359.93
  Z"
/>
<path fill="#040505" d="
  M 416.80 311.44
  C 415.08 310.42 411.01 311.78 410.03 311.91
  A 0.47 0.36 20.8 0 1 409.59 311.21
  C 411.37 310.35 416.92 309.04 418.45 311.02
  Q 419.74 312.68 417.78 311.98
  Q 417.62 311.93 416.80 311.44
  Z"
/>
<path fill="#040505" d="
  M 396.60 311.24
  Q 398.34 311.47 401.63 312.83
  A 0.48 0.47 -44.9 0 1 401.63 313.71
  Q 401.09 313.93 400.47 313.64
  Q 398.08 312.54 396.45 312.32
  Q 394.82 312.10 392.22 312.52
  Q 391.55 312.64 391.09 312.28
  A 0.48 0.47 60.3 0 1 391.32 311.43
  Q 394.86 311.00 396.60 311.24
  Z"
/>
<path fill="#cfc3b4" d="
  M 423.99 365.16
  A 0.14 0.14 0.0 0 1 423.93 364.94
  C 425.63 362.84 433.89 363.17 435.89 363.47
  Q 440.42 364.15 436.65 366.78
  Q 435.33 367.71 430.68 368.02
  Q 429.17 368.13 427.45 366.89
  Q 425.92 365.79 423.99 365.16
  Z"
/>
<ellipse fill="#cfc3b4" cx="0.00" cy="0.00" transform="translate(407.67,367.82) rotate(-17.8)" rx="3.55" ry="1.40"/>
</svg>
