<?xml version="1.0" encoding="UTF-8" standalone="no"?>
<svg xmlns="http://www.w3.org/2000/svg" version="1.2" baseProfile="tiny" viewBox="0.00 0.00 720.00 480.00">
<path fill="#cfc3b4" d="
  M 720.00 0.00
  L 720.00 480.00
  L 0.00 480.00
  L 0.00 0.00
  L 720.00 0.00
  Z"
/>
<path fill="#040404" d="
  M 318.41 359.92
  Q 317.30 360.62 318.61 360.67
  C 323.17 360.87 327.23 360.56 331.08 361.66
  Q 333.71 362.41 337.46 363.57
  Q 339.36 364.16 339.19 362.43
  C 338.72 357.47 344.70 350.83 348.30 348.30
  Q 353.74 344.46 361.07 340.16
  Q 361.60 339.85 361.67 340.47
  L 361.70 340.76
  Q 361.71 340.88 361.60 340.94
  Q 352.48 346.08 347.23 350.48
  Q 342.04 354.84 340.36 360.89
  C 338.79 366.54 348.66 367.83 351.96 368.46
  C 355.78 369.18 359.03 368.91 363.92 368.96
  C 372.00 369.04 379.30 371.00 387.80 374.04
  Q 391.93 375.51 395.11 372.90
  A 0.59 0.59 0.0 0 0 394.94 371.89
  L 390.71 370.32
  Q 390.43 370.21 390.53 369.93
  L 390.64 369.64
  Q 390.68 369.54 390.80 369.55
  Q 392.72 369.75 394.64 370.60
  C 397.84 372.01 400.45 371.82 403.07 370.16
  Q 403.51 369.88 403.27 369.41
  Q 402.98 368.84 402.55 368.43
  Q 402.25 368.13 401.40 368.17
  C 397.27 368.41 393.95 369.05 390.19 367.15
  Q 379.45 361.70 373.51 358.25
  Q 373.06 357.99 372.53 358.04
  L 358.99 359.44
  Q 356.39 359.71 358.81 358.72
  C 361.03 357.81 363.40 357.98 368.12 357.63
  Q 370.27 357.47 373.46 356.20
  C 376.35 355.06 379.47 354.56 382.36 352.90
  Q 382.68 352.72 382.76 353.08
  Q 382.80 353.25 382.77 353.39
  Q 382.74 353.57 382.64 353.66
  Q 380.93 355.24 377.05 356.08
  Q 376.03 356.30 375.14 356.84
  Q 373.96 357.56 375.20 358.18
  Q 381.97 361.54 389.36 365.49
  C 393.52 367.72 397.12 367.29 401.98 367.07
  C 405.73 366.89 408.79 362.81 412.60 366.37
  Q 413.04 366.79 413.64 366.72
  L 415.39 366.54
  Q 415.68 366.51 415.68 366.81
  L 415.68 367.36
  Q 415.68 367.52 415.51 367.54
  L 413.19 367.78
  Q 412.49 367.85 412.56 368.56
  C 412.79 371.05 416.23 371.00 418.63 370.86
  Q 420.53 370.75 419.46 369.23
  Q 419.45 369.22 419.37 367.88
  Q 419.33 367.16 419.88 367.62
  Q 420.65 368.27 421.10 369.41
  Q 421.28 369.88 421.69 370.17
  Q 424.09 371.81 426.84 370.87
  A 1.63 1.62 -33.1 0 0 427.42 368.14
  Q 424.62 365.54 419.80 366.09
  Q 417.99 366.30 417.39 365.88
  A 0.28 0.28 0.0 0 1 417.50 365.38
  Q 424.10 364.17 428.73 360.72
  C 433.14 357.42 437.34 354.55 440.37 350.68
  Q 443.08 347.22 444.81 343.54
  C 445.89 341.24 445.72 339.43 446.25 336.95
  A 0.96 0.93 29.1 0 0 445.99 336.08
  C 443.43 333.52 437.30 333.88 433.80 334.23
  Q 423.57 335.25 414.89 337.17
  Q 410.97 338.03 400.76 338.07
  C 391.48 338.10 386.84 338.58 380.27 334.57
  Q 380.13 334.49 380.13 334.32
  L 380.13 333.99
  A 0.40 0.40 0.0 0 1 380.75 333.66
  Q 385.26 336.53 389.22 336.85
  C 397.64 337.53 407.77 337.42 417.35 335.61
  C 424.80 334.20 443.47 329.98 447.06 335.78
  Q 447.28 336.14 447.21 336.59
  L 446.72 340.19
  A 0.74 0.73 79.7 0 0 447.80 340.95
  Q 450.22 339.62 452.01 337.98
  C 453.27 336.83 454.56 336.26 453.84 334.16
  C 452.16 329.30 447.65 325.06 443.29 322.19
  Q 440.39 320.29 434.91 318.63
  Q 424.06 315.35 422.29 314.84
  A 0.62 0.61 -70.5 0 1 421.90 314.01
  Q 424.14 308.82 419.23 306.01
  C 417.80 305.19 414.56 305.30 413.24 305.30
  Q 408.31 305.29 405.67 309.58
  Q 405.41 310.01 405.60 310.45
  L 405.92 311.18
  Q 406.22 311.85 405.54 311.73
  Q 405.30 311.69 405.13 311.60
  Q 404.84 311.42 404.74 311.29
  Q 401.44 306.57 396.62 306.32
  Q 388.46 305.89 385.61 313.32
  A 0.29 0.28 28.5 0 1 385.18 313.44
  L 384.91 313.26
  A 0.15 0.14 -63.7 0 1 384.86 313.09
  C 385.34 311.75 385.33 310.23 386.40 309.13
  Q 390.35 305.06 396.58 305.21
  Q 400.67 305.30 403.75 308.50
  Q 404.52 309.30 405.18 308.41
  C 408.51 303.91 413.36 303.51 418.33 304.71
  Q 424.26 306.14 423.41 312.88
  Q 423.27 313.95 424.30 314.29
  Q 431.51 316.72 434.45 317.47
  C 441.66 319.31 447.88 323.22 452.15 328.80
  C 453.48 330.54 456.19 335.02 454.41 337.14
  Q 451.36 340.78 447.00 342.14
  Q 446.52 342.29 446.31 342.75
  Q 442.45 351.30 435.44 357.32
  C 433.79 358.73 431.53 359.86 429.96 361.20
  Q 428.11 362.79 430.50 362.34
  C 432.61 361.94 438.43 361.63 439.18 364.59
  C 440.09 368.18 431.98 369.24 430.11 369.03
  Q 429.33 368.95 429.02 369.67
  C 427.43 373.27 424.07 372.67 421.35 371.34
  Q 420.87 371.11 420.38 371.34
  Q 416.94 372.96 412.84 370.99
  Q 412.40 370.78 412.13 370.37
  L 411.47 369.34
  Q 411.18 368.90 410.70 369.13
  Q 407.70 370.62 406.52 370.71
  Q 403.84 370.92 402.45 371.64
  Q 401.34 372.21 397.54 372.91
  Q 397.05 373.00 396.65 373.29
  Q 391.76 376.89 387.38 375.11
  Q 377.46 371.06 367.82 370.28
  C 362.76 369.86 356.28 370.46 350.39 369.20
  C 346.06 368.28 342.70 367.59 340.00 365.05
  A 1.46 1.46 0.0 0 0 337.75 365.37
  C 335.99 368.34 333.89 367.26 331.07 367.38
  A 1.18 1.15 -69.5 0 0 330.26 367.76
  C 326.30 372.22 320.82 368.20 316.54 368.88
  Q 315.56 369.03 316.26 369.72
  L 318.23 371.70
  A 1.19 1.19 0.0 0 1 317.51 373.73
  C 316.33 373.86 315.20 373.56 314.16 372.85
  C 309.52 369.67 306.91 367.99 301.47 368.52
  C 296.01 369.06 291.55 369.29 287.04 367.44
  C 283.51 366.00 285.46 363.84 286.81 361.89
  Q 287.11 361.47 286.86 361.01
  C 284.19 356.00 286.84 347.58 289.54 342.79
  C 293.69 335.39 300.10 329.80 306.64 324.58
  Q 312.74 319.71 319.63 317.37
  Q 323.49 316.07 338.36 311.93
  C 343.42 310.52 347.78 309.99 353.97 308.96
  Q 368.82 306.47 383.72 308.53
  Q 384.76 308.67 385.23 309.44
  Q 385.52 309.91 384.97 309.83
  C 373.01 307.91 364.71 308.77 351.89 310.41
  C 340.51 311.87 329.31 315.36 318.95 318.71
  Q 314.55 320.13 310.93 322.70
  Q 300.85 329.87 293.99 337.94
  C 289.80 342.88 284.71 353.49 287.61 360.42
  A 0.79 0.79 0.0 0 0 288.91 360.67
  Q 292.29 357.17 295.13 353.16
  C 299.60 346.85 304.31 342.61 310.72 339.45
  C 314.72 337.49 318.59 337.70 322.56 337.07
  Q 322.87 337.02 322.90 337.33
  L 322.94 337.69
  Q 322.96 337.86 322.79 337.90
  Q 319.43 338.64 316.79 338.88
  C 311.08 339.41 305.37 343.52 301.27 347.33
  C 296.90 351.40 293.84 357.85 289.29 361.57
  Q 287.29 363.19 286.46 364.25
  A 1.42 1.42 0.0 0 0 287.08 366.47
  Q 291.12 367.95 295.25 367.71
  C 301.51 367.35 306.09 366.37 311.21 369.71
  Q 315.18 372.30 316.25 372.61
  A 0.41 0.41 0.0 0 0 316.73 372.03
  L 316.25 371.12
  A 2.01 1.95 0.0 0 0 315.35 370.25
  Q 313.74 369.48 313.96 368.44
  Q 314.08 367.92 314.61 367.84
  Q 318.01 367.33 319.32 367.62
  C 322.61 368.37 327.00 369.89 328.97 367.58
  Q 329.33 367.17 328.85 366.90
  Q 327.16 365.94 324.60 366.10
  Q 324.13 366.13 324.09 365.67
  L 324.06 365.41
  Q 324.02 365.05 324.39 365.01
  Q 328.92 364.61 333.04 366.49
  A 2.33 2.32 -55.3 0 0 335.64 366.01
  L 336.15 365.50
  Q 336.83 364.82 335.95 364.44
  C 328.80 361.37 323.58 361.81 315.03 361.86
  Q 312.74 361.88 314.76 360.78
  C 318.98 358.50 323.85 355.46 328.00 351.53
  Q 331.90 347.84 337.07 343.07
  Q 339.62 340.72 340.50 337.74
  C 341.43 334.58 337.78 332.13 335.03 331.70
  Q 324.41 330.05 311.95 334.17
  C 306.03 336.13 301.96 339.27 297.31 343.38
  A 0.29 0.15 -45.0 0 1 297.04 343.47
  L 296.78 343.33
  A 0.64 0.55 37.0 0 1 296.57 342.39
  C 301.07 338.31 306.79 334.28 313.18 332.70
  C 320.64 330.86 326.68 329.41 333.75 330.28
  C 341.32 331.22 344.17 336.98 338.62 342.84
  Q 328.34 353.70 318.41 359.92
  Z"
/>
<path fill="#040404" d="
  M 416.80 311.44
  C 415.05 310.41 410.98 311.80 410.01 311.93
  A 0.45 0.38 23.8 0 1 409.65 311.19
  C 411.52 310.29 416.94 309.07 418.45 311.01
  Q 419.74 312.68 417.77 311.98
  Q 417.62 311.93 416.80 311.44
  Z"
/>
<path fill="#040404" d="
  M 396.60 311.24
  Q 399.28 311.60 401.64 312.85
  A 0.49 0.49 0.0 0 1 401.56 313.75
  Q 401.08 313.90 400.46 313.62
  Q 398.12 312.54 396.45 312.32
  Q 394.79 312.09 392.24 312.50
  Q 391.57 312.61 391.15 312.33
  A 0.49 0.49 0.0 0 1 391.31 311.44
  Q 393.92 310.88 396.60 311.24
  Z"
/>
<path fill="#cfc3b4" d="
  M 424.03 365.22
  A 0.19 0.19 0.0 0 1 423.93 364.93
  Q 424.45 364.17 425.30 364.01
  Q 431.53 362.80 435.88 363.48
  Q 440.39 364.19 436.64 366.80
  Q 435.37 367.68 430.69 368.02
  Q 428.96 368.15 427.50 366.92
  Q 426.30 365.91 424.03 365.22
  Z"
/>
<ellipse fill="#cfc3b4" cx="0.00" cy="0.00" transform="translate(407.67,367.82) rotate(-17.8)" rx="3.55" ry="1.40"/>
</svg>
