<?xml version="1.0" encoding="UTF-8" standalone="no"?>
<svg xmlns="http://www.w3.org/2000/svg" version="1.2" baseProfile="tiny" viewBox="0.00 0.00 720.00 480.00">
<path fill="#cfc3b4" d="
  M 720.00 0.00
  L 720.00 480.00
  L 0.00 480.00
  L 0.00 0.00
  L 720.00 0.00
  Z"
/>
<path fill="#010102" d="
  M 412.41 368.04
  Q 412.44 371.19 409.72 371.47
  Q 403.28 372.13 400.87 372.69
  Q 396.10 373.80 392.87 373.61
  Q 390.05 373.45 385.10 371.38
  Q 381.94 370.06 371.60 365.26
  A 0.90 0.88 -51.2 0 0 370.66 365.37
  C 369.83 366.03 369.03 366.81 367.98 367.02
  Q 363.66 367.91 361.25 367.80
  Q 356.21 367.56 338.75 365.96
  Q 338.04 365.89 331.77 367.72
  C 327.37 369.01 324.03 369.60 319.18 370.30
  Q 318.68 370.37 318.56 370.86
  Q 318.31 371.79 318.36 372.04
  A 1.78 1.44 8.0 0 1 315.93 373.50
  C 311.24 371.69 308.06 369.14 302.78 368.77
  Q 297.94 368.43 288.26 368.04
  Q 285.65 367.93 284.89 365.89
  C 283.99 363.51 287.17 360.79 289.02 359.77
  Q 295.14 356.38 300.24 352.87
  A 0.68 0.68 0.0 0 0 300.36 351.85
  Q 293.91 344.69 294.20 336.22
  C 294.53 326.57 306.08 315.43 313.15 310.91
  Q 315.19 309.61 322.23 305.63
  C 324.66 304.26 327.95 302.95 330.12 302.35
  Q 344.14 298.51 358.11 294.56
  Q 366.76 292.11 380.33 285.54
  Q 381.52 284.96 389.08 280.19
  Q 394.52 276.76 401.09 275.11
  Q 404.03 274.38 411.42 275.00
  Q 411.92 275.04 412.17 274.59
  C 414.05 271.13 415.68 268.57 420.01 268.40
  Q 427.21 268.11 431.04 273.76
  Q 431.52 274.48 432.17 273.90
  C 435.76 270.69 437.86 268.93 443.03 269.19
  C 445.18 269.29 447.04 271.02 449.18 272.35
  C 451.74 273.95 452.59 276.84 450.57 279.27
  A 0.50 0.50 0.0 0 0 450.83 280.08
  C 458.14 281.85 464.47 282.18 473.08 283.02
  Q 476.91 283.40 480.94 286.92
  Q 484.87 290.36 483.07 295.65
  Q 480.72 302.58 473.80 304.80
  C 472.54 305.21 470.04 306.86 469.16 308.79
  C 466.24 315.25 462.17 320.90 456.45 325.19
  Q 449.45 330.43 430.31 344.57
  Q 428.62 345.82 421.52 349.43
  Q 421.02 349.68 421.22 350.20
  Q 422.44 353.37 423.42 359.29
  Q 423.97 362.58 427.62 362.69
  Q 435.99 362.93 439.10 363.12
  A 1.82 1.81 -82.3 0 1 440.77 365.32
  C 440.28 367.56 439.01 367.74 437.82 369.44
  C 436.15 371.83 433.41 371.24 431.05 370.42
  Q 430.54 370.25 430.09 370.53
  Q 427.31 372.27 423.84 371.17
  Q 423.36 371.02 422.90 371.22
  C 419.68 372.58 413.72 373.53 413.25 368.27
  Q 413.23 368.11 413.09 368.02
  L 412.77 367.84
  Q 412.41 367.63 412.41 368.04
  Z"
/>
<path fill="#cfc3b4" d="
  M 312.80 368.10
  Q 312.97 368.70 313.55 369.03
  Q 314.98 369.85 316.51 370.59
  A 0.92 0.91 27.9 0 1 316.91 371.87
  L 316.71 372.22
  A 0.50 0.50 0.0 0 1 316.10 372.44
  Q 312.62 371.13 310.13 369.58
  Q 308.43 368.53 307.07 368.39
  C 305.57 368.23 304.15 367.64 302.69 367.60
  Q 296.19 367.41 290.25 367.10
  Q 287.98 366.98 286.73 366.40
  A 1.78 1.78 0.0 0 1 286.01 363.78
  Q 287.48 361.62 290.15 360.17
  Q 297.26 356.31 300.40 353.83
  Q 306.22 349.22 309.24 347.40
  Q 312.69 345.33 319.71 342.19
  Q 326.95 338.95 334.14 338.61
  Q 334.48 338.59 334.49 338.25
  L 334.51 337.87
  Q 334.53 337.41 334.07 337.46
  Q 327.36 338.23 323.36 339.63
  Q 311.81 343.66 301.57 351.33
  Q 301.20 351.61 300.92 351.24
  C 295.46 344.07 293.11 336.78 297.50 328.80
  Q 301.72 321.12 309.47 314.96
  Q 321.73 305.22 336.93 301.43
  Q 342.28 300.09 359.94 295.21
  Q 366.00 293.54 381.90 285.89
  Q 381.94 285.87 390.02 280.89
  Q 395.40 277.56 401.17 276.21
  Q 404.95 275.32 412.28 276.17
  Q 412.75 276.22 412.95 275.79
  Q 414.44 272.50 414.90 271.89
  C 417.40 268.50 424.19 268.95 427.20 271.41
  Q 428.32 272.31 426.88 272.25
  Q 421.94 272.02 418.31 275.53
  Q 417.05 276.74 417.92 278.11
  A 2.22 2.19 77.6 0 0 419.48 279.12
  Q 425.84 280.03 431.35 277.95
  A 0.85 0.84 -9.4 0 0 431.90 277.19
  L 431.94 276.29
  Q 431.96 275.78 432.22 275.34
  C 432.67 274.57 434.05 273.69 434.62 273.16
  C 436.96 270.99 443.13 268.48 445.71 271.57
  A 0.35 0.35 0.0 0 1 445.57 272.12
  Q 442.51 273.33 439.78 275.28
  Q 438.08 276.50 438.34 278.96
  Q 438.53 280.84 440.04 281.04
  Q 443.57 281.52 444.64 280.91
  C 445.94 280.18 447.49 279.57 449.11 280.27
  C 455.38 282.99 464.54 283.37 471.25 283.83
  C 474.80 284.07 481.18 286.70 482.23 290.62
  C 483.50 295.41 480.12 300.74 475.85 302.77
  Q 473.31 303.98 471.03 305.08
  Q 470.57 305.30 470.56 304.80
  C 470.42 300.27 470.91 296.13 464.48 297.00
  C 458.99 297.74 450.27 299.57 443.45 299.84
  Q 433.14 300.24 419.66 299.64
  C 412.77 299.33 406.76 297.76 401.87 294.58
  Q 399.32 292.92 396.50 288.70
  A 0.24 0.24 0.0 0 0 396.09 288.71
  L 395.75 289.29
  Q 395.65 289.48 395.77 289.66
  Q 398.46 293.56 402.41 295.86
  Q 410.70 300.67 420.27 301.04
  Q 426.74 301.28 443.45 301.04
  C 449.69 300.95 455.47 299.45 462.49 298.21
  Q 465.49 297.69 468.03 298.50
  A 1.96 1.95 6.7 0 1 469.39 300.21
  C 469.54 302.48 469.57 304.35 468.78 306.52
  Q 464.77 317.71 455.16 324.92
  Q 449.21 329.38 442.44 334.24
  C 436.31 338.64 428.78 345.81 420.33 348.49
  C 417.36 349.44 415.52 350.18 412.46 351.93
  Q 409.72 353.49 404.54 354.99
  Q 392.50 358.46 385.25 359.39
  Q 384.68 359.46 384.40 358.96
  Q 382.30 355.13 379.57 352.53
  C 377.88 350.92 375.18 345.85 378.19 344.24
  Q 386.26 339.93 391.60 334.06
  Q 391.75 333.89 391.65 333.69
  L 391.53 333.46
  A 0.40 0.39 52.8 0 0 390.88 333.37
  Q 385.28 339.67 377.04 343.52
  C 373.81 345.03 376.95 351.49 378.87 353.33
  Q 381.52 355.87 384.37 360.46
  C 388.51 367.14 396.50 367.91 403.45 367.88
  A 1.95 1.90 87.2 0 1 405.36 369.66
  Q 405.41 370.31 403.98 370.74
  Q 401.55 371.48 399.31 371.27
  Q 398.79 371.22 398.58 370.74
  Q 397.57 368.52 395.30 368.79
  Q 394.51 368.89 395.16 369.35
  C 395.56 369.63 396.04 369.75 396.36 370.13
  Q 396.94 370.82 396.62 371.56
  Q 396.41 372.04 395.89 372.09
  Q 390.82 372.59 387.73 371.28
  Q 371.51 364.41 368.82 362.70
  Q 360.38 357.32 355.11 348.49
  C 353.32 345.50 355.49 342.87 356.04 340.15
  Q 356.40 338.35 358.40 335.98
  Q 365.81 327.22 371.73 316.73
  A 0.26 0.26 0.0 0 0 371.44 316.35
  L 371.07 316.44
  Q 370.86 316.49 370.75 316.66
  Q 364.27 326.53 360.70 331.45
  Q 358.94 333.87 357.16 335.50
  Q 356.73 335.89 356.50 335.37
  C 355.07 332.24 354.52 329.63 351.43 328.32
  C 343.75 325.06 337.70 325.18 327.08 324.52
  Q 326.88 324.51 326.87 324.71
  L 326.85 325.09
  A 0.30 0.30 0.0 0 0 327.12 325.40
  Q 332.57 325.99 337.00 326.19
  C 341.41 326.39 345.85 327.44 349.75 328.72
  C 352.70 329.68 353.69 331.24 355.02 334.37
  Q 355.75 336.06 355.35 337.76
  C 354.01 343.45 351.83 348.70 346.88 351.65
  Q 344.92 352.82 338.92 354.20
  Q 328.59 356.58 324.90 358.19
  Q 323.44 358.83 322.77 359.21
  Q 321.98 359.66 322.71 360.19
  C 326.36 362.86 334.86 361.84 336.93 364.58
  Q 337.24 364.99 336.76 365.19
  C 334.27 366.23 331.12 365.08 329.19 365.04
  Q 325.00 364.95 320.77 364.85
  Q 320.23 364.84 320.47 365.32
  L 320.66 365.70
  Q 320.77 365.93 321.02 365.93
  Q 326.23 365.98 329.08 366.22
  Q 333.06 366.56 329.17 367.47
  Q 324.20 368.63 318.49 369.30
  Q 316.93 369.48 313.18 367.78
  Q 312.65 367.54 312.80 368.10
  Z"
/>
<path fill="#cfc3b4" d="
  M 448.22 276.53
  Q 447.68 276.66 447.42 277.16
  Q 445.64 280.70 440.88 280.32
  A 1.87 1.87 0.0 0 1 439.22 278.03
  C 439.82 275.45 444.67 273.78 446.34 272.82
  Q 446.76 272.58 447.24 272.67
  Q 450.10 273.24 450.29 275.52
  A 0.60 0.60 0.0 0 1 449.83 276.15
  L 448.22 276.53
  Z"
/>
<path fill="#cfc3b4" d="
  M 429.44 276.42
  A 1.07 1.07 0.0 0 1 428.57 277.66
  L 425.74 278.14
  A 6.54 2.13 -9.8 0 1 418.93 277.16
  L 418.86 276.76
  A 6.54 2.13 -9.8 0 1 424.94 273.55
  L 427.77 273.06
  A 1.07 1.07 0.0 0 1 429.01 273.94
  L 429.44 276.42
  Z"
/>
<path fill="#cfc3b4" d="
  M 338.10 364.48
  C 336.08 361.63 331.40 361.62 325.62 360.40
  Q 322.93 359.83 325.54 358.97
  Q 333.82 356.26 342.67 354.49
  Q 348.32 353.36 352.81 347.53
  Q 353.17 347.05 353.45 347.58
  Q 358.81 357.82 369.50 364.26
  A 0.49 0.49 0.0 0 1 369.48 365.11
  Q 365.69 367.19 361.01 366.84
  Q 355.73 366.44 338.56 364.74
  Q 338.27 364.71 338.10 364.48
  Z"
/>
<path fill="#cfc3b4" d="
  M 420.57 367.60
  L 422.34 369.67
  A 0.42 0.41 56.6 0 1 422.22 370.32
  Q 419.66 371.57 416.52 371.00
  Q 415.57 370.80 415.30 370.26
  L 408.18 355.95
  Q 407.86 355.30 408.51 354.98
  L 418.65 349.94
  Q 420.12 349.20 420.50 350.80
  L 422.89 360.91
  A 3.67 3.66 84.5 0 0 426.31 363.73
  L 438.74 364.24
  A 1.02 1.02 0.0 0 1 439.70 365.48
  Q 439.44 366.63 437.85 367.61
  Q 437.41 367.89 436.96 367.63
  L 435.53 366.80
  Q 435.32 366.68 435.14 366.85
  L 434.73 367.27
  Q 434.50 367.50 434.78 367.66
  L 436.30 368.54
  Q 436.71 368.78 436.48 369.18
  C 435.59 370.75 432.46 369.87 431.21 369.23
  Q 430.77 369.01 430.51 368.59
  Q 429.19 366.48 427.79 366.74
  Q 425.43 367.17 427.89 367.78
  Q 428.46 367.92 429.01 368.56
  A 1.07 1.06 -24.4 0 1 428.35 370.31
  Q 426.11 370.62 424.31 370.19
  Q 423.81 370.07 423.64 369.60
  Q 422.90 367.64 420.91 367.10
  Q 419.92 366.83 420.57 367.60
  Z"
/>
<path fill="#cfc3b4" d="
  M 411.80 366.75
  C 410.54 366.52 409.11 366.21 407.77 366.37
  Q 402.19 367.06 397.04 366.54
  C 393.88 366.22 387.83 364.05 386.08 360.78
  Q 385.78 360.20 386.42 360.10
  Q 393.47 359.03 394.46 358.75
  Q 403.95 356.04 406.73 355.75
  Q 407.26 355.69 407.42 356.20
  Q 409.26 362.16 412.04 366.39
  A 0.24 0.23 79.2 0 1 411.80 366.75
  Z"
/>
<path fill="#cfc3b4" d="
  M 411.05 367.53
  A 0.40 0.40 0.0 0 1 411.47 367.90
  L 411.48 368.01
  A 2.45 2.41 -3.3 0 1 409.17 370.56
  L 408.85 370.58
  A 2.45 2.41 -3.3 0 1 406.27 368.31
  L 406.26 368.20
  A 0.40 0.40 0.0 0 1 406.64 367.78
  L 411.05 367.53
  Z"
/>
</svg>
