<?xml version="1.0" encoding="UTF-8" standalone="no"?>
<svg xmlns="http://www.w3.org/2000/svg" version="1.2" baseProfile="tiny" viewBox="0.00 0.00 720.00 480.00">
<path fill="#cfc3b4" d="
  M 720.00 0.00
  L 720.00 480.00
  L 0.00 480.00
  L 0.00 0.00
  L 720.00 0.00
  Z"
/>
<path stroke="#818181" stroke-width="2.00" fill="none" stroke-linecap="butt" vector-effect="non-scaling-stroke" d="
  M 579.01 190.26
  Q 578.66 189.87 578.38 189.87
  Q 575.48 189.89 572.68 189.50
  Q 572.58 189.48 572.50 189.40
  Q 572.36 189.25 572.42 189.10
  Q 572.53 188.80 572.86 188.80
  C 580.46 188.74 587.62 188.77 594.64 186.68
  Q 608.77 182.50 610.53 181.90
  Q 616.05 180.02 621.29 176.94
  Q 632.66 170.25 635.86 167.38
  Q 641.20 162.59 643.00 161.14
  C 647.84 157.25 650.94 153.58 656.13 148.35
  A 0.79 0.79 0.0 0 0 655.57 147.00
  L 652.61 147.00
  Q 652.31 147.00 652.31 146.70
  L 652.31 146.20
  A 0.36 0.36 0.0 0 1 652.76 145.85
  Q 658.60 147.31 662.51 146.83
  Q 669.12 146.03 680.74 142.48
  C 688.11 140.23 694.49 135.09 700.89 129.80
  Q 701.25 129.50 701.37 129.06
  Q 701.41 128.95 701.54 128.15
  Q 701.63 127.66 702.01 127.35
  C 704.09 125.64 706.28 123.32 703.97 120.82
  C 700.87 117.50 697.19 115.63 692.17 114.55
  Q 677.53 111.42 662.27 109.71
  Q 655.80 108.99 650.25 105.15
  C 646.08 102.27 643.36 99.74 642.35 94.76
  Q 641.99 92.96 642.91 94.55
  C 644.02 96.44 644.61 98.91 646.40 100.68
  C 652.36 106.57 657.74 108.38 666.80 109.31
  Q 677.09 110.37 692.66 113.63
  C 698.49 114.84 701.49 116.87 705.31 120.93
  C 707.42 123.18 704.77 126.06 703.10 128.20
  Q 702.75 128.65 703.12 129.09
  Q 704.05 130.19 706.36 130.30
  Q 712.35 130.59 715.65 126.44
  Q 719.24 121.93 717.53 116.66
  Q 717.07 115.24 713.84 110.45
  Q 711.86 107.51 708.59 105.60
  Q 701.27 101.33 696.51 99.14
  Q 696.05 98.93 695.55 99.00
  Q 690.73 99.68 686.68 96.61
  Q 686.61 96.55 686.64 96.39
  L 686.73 95.85
  Q 686.80 95.48 687.08 95.68
  C 689.11 97.10 693.32 99.49 695.11 96.46
  A 1.40 1.18 4.9 0 1 695.93 95.88
  L 697.65 95.43
  A 0.98 0.96 -32.8 0 0 698.04 93.74
  C 693.98 90.51 689.40 89.23 684.17 89.88
  C 681.31 90.23 679.42 90.77 676.66 89.89
  A 0.72 0.71 26.5 0 0 675.87 90.15
  Q 675.51 90.66 674.82 92.55
  Q 674.45 93.56 673.31 93.42
  Q 672.80 93.36 672.67 92.85
  Q 672.07 90.32 674.38 89.05
  Q 674.84 88.80 674.56 88.36
  C 672.73 85.50 665.70 86.47 662.97 87.22
  A 0.19 0.18 82.8 0 1 662.74 87.04
  L 662.74 86.76
  A 0.51 0.49 80.0 0 1 663.06 86.29
  Q 667.57 84.61 672.54 85.85
  Q 673.81 86.16 672.99 85.17
  Q 672.81 84.97 672.04 84.57
  Q 664.83 80.90 658.02 85.99
  Q 656.61 87.05 654.77 86.99
  C 644.19 86.65 636.52 89.66 626.99 94.71
  Q 620.90 97.95 613.51 104.50
  Q 611.45 106.32 609.30 106.70
  Q 595.91 109.02 585.43 112.72
  Q 575.09 116.36 563.96 124.26
  Q 560.48 126.73 557.10 131.27
  Q 547.06 144.80 542.77 151.72
  C 538.73 158.23 535.14 166.48 530.96 172.89
  Q 529.82 174.63 528.95 175.54
  C 527.13 177.45 525.50 180.11 523.76 182.03
  Q 511.31 195.76 506.07 202.82
  Q 504.74 204.61 495.39 218.81
  Q 493.76 221.27 491.64 222.69
  C 484.07 227.75 475.53 231.86 467.52 235.53
  C 461.51 238.29 456.75 241.44 451.08 244.48
  Q 448.39 245.92 444.90 249.16
  Q 439.35 254.32 436.85 256.10
  Q 435.58 257.00 427.87 261.62
  C 420.98 265.75 414.46 270.84 407.98 275.23
  Q 405.81 276.70 398.46 283.98
  C 394.58 287.82 391.28 290.49 387.46 293.81
  C 383.65 297.14 380.44 301.17 378.13 304.98
  Q 375.47 309.36 379.76 306.62
  Q 380.07 306.42 381.40 305.17
  Q 382.38 304.24 382.90 303.61
  Q 390.07 294.81 396.87 288.41
  Q 397.55 287.77 398.25 287.97
  Q 398.81 288.13 398.38 288.52
  Q 391.90 294.45 384.52 303.69
  C 382.30 306.48 379.96 306.98 378.23 310.17
  Q 376.80 312.82 374.58 317.22
  A 0.81 0.81 0.0 0 0 374.93 318.31
  Q 375.51 318.62 376.12 318.11
  C 378.60 316.04 381.95 311.08 384.05 308.71
  Q 394.19 297.26 396.97 294.46
  Q 399.00 292.40 401.05 290.20
  Q 401.22 290.02 401.44 290.14
  L 401.73 290.29
  Q 401.96 290.41 401.78 290.60
  Q 390.14 303.25 383.11 311.61
  Q 381.63 313.38 381.40 315.28
  Q 381.29 316.14 382.23 316.17
  A 0.93 0.91 -64.0 0 0 382.85 315.95
  C 386.41 312.85 389.01 308.92 392.18 305.79
  C 399.79 298.27 407.52 290.11 416.62 284.38
  Q 418.52 283.19 422.47 279.22
  Q 425.96 275.73 428.13 273.89
  Q 439.66 264.10 452.01 255.36
  C 453.49 254.32 454.61 252.99 456.11 252.10
  Q 471.86 242.76 482.17 238.18
  Q 496.33 231.88 504.42 226.75
  Q 506.22 225.61 512.35 220.89
  Q 516.75 217.50 520.42 215.18
  Q 523.63 213.14 526.99 208.33
  C 529.65 204.53 532.90 200.79 535.25 198.99
  Q 543.48 192.69 551.80 186.43
  Q 551.97 186.30 552.12 186.46
  L 552.31 186.67
  Q 552.42 186.78 552.30 186.89
  L 545.94 192.23
  A 1.39 1.12 -15.4 0 0 545.56 192.76
  Q 544.37 195.96 542.15 198.12
  Q 539.94 200.25 538.18 202.66
  Q 536.52 204.92 531.22 210.73
  Q 529.06 213.10 523.52 220.52
  Q 522.31 222.14 517.81 225.05
  C 508.28 231.24 502.83 237.65 494.65 243.10
  C 489.22 246.73 478.66 254.36 471.21 259.18
  C 461.09 265.73 452.72 272.97 443.57 279.46
  C 437.39 283.84 433.40 287.80 428.49 292.05
  Q 424.41 295.57 422.01 298.93
  C 418.15 304.32 415.22 309.56 411.14 314.58
  Q 408.03 318.39 405.10 321.74
  Q 404.61 322.30 404.61 323.05
  L 404.61 323.50
  A 0.38 0.38 0.0 0 0 405.24 323.79
  Q 413.81 316.51 420.63 308.13
  Q 421.10 307.56 421.60 307.43
  A 0.44 0.44 0.0 0 1 422.10 308.05
  C 419.25 313.92 416.83 317.91 412.79 322.19
  Q 410.17 324.99 409.73 327.78
  Q 409.30 330.57 411.19 328.47
  Q 418.26 320.61 423.72 312.63
  Q 423.91 312.37 424.23 312.37
  L 424.79 312.37
  A 0.21 0.21 0.0 0 1 424.96 312.71
  Q 419.41 319.90 418.38 327.74
  Q 418.07 330.07 420.23 328.74
  A 2.13 1.94 -0.0 0 0 420.80 328.22
  C 422.39 326.02 423.13 323.63 425.30 321.25
  C 427.22 319.12 430.15 315.77 432.26 312.66
  C 444.49 294.62 460.16 277.83 478.04 265.37
  C 483.20 261.77 487.11 256.76 492.85 254.32
  C 496.99 252.56 500.34 249.48 503.92 247.38
  Q 512.11 242.59 520.15 237.83
  Q 520.26 237.76 531.17 231.58
  Q 536.93 228.32 543.44 223.85
  C 548.06 220.68 550.80 217.39 554.62 214.18
  Q 556.95 212.22 562.03 205.99
  Q 567.50 199.27 573.72 193.23
  Q 576.00 191.02 579.01 190.26"
/>
<path fill="#020202" d="
  M 579.01 190.26
  Q 578.66 189.87 578.38 189.87
  Q 575.48 189.89 572.68 189.50
  Q 572.58 189.48 572.50 189.40
  Q 572.36 189.25 572.42 189.10
  Q 572.53 188.80 572.86 188.80
  C 580.46 188.74 587.62 188.77 594.64 186.68
  Q 608.77 182.50 610.53 181.90
  Q 616.05 180.02 621.29 176.94
  Q 632.66 170.25 635.86 167.38
  Q 641.20 162.59 643.00 161.14
  C 647.84 157.25 650.94 153.58 656.13 148.35
  A 0.79 0.79 0.0 0 0 655.57 147.00
  L 652.61 147.00
  Q 652.31 147.00 652.31 146.70
  L 652.31 146.20
  A 0.36 0.36 0.0 0 1 652.76 145.85
  Q 658.60 147.31 662.51 146.83
  Q 669.12 146.03 680.74 142.48
  C 688.11 140.23 694.49 135.09 700.89 129.80
  Q 701.25 129.50 701.37 129.06
  Q 701.41 128.95 701.54 128.15
  Q 701.63 127.66 702.01 127.35
  C 704.09 125.64 706.28 123.32 703.97 120.82
  C 700.87 117.50 697.19 115.63 692.17 114.55
  Q 677.53 111.42 662.27 109.71
  Q 655.80 108.99 650.25 105.15
  C 646.08 102.27 643.36 99.74 642.35 94.76
  Q 641.99 92.96 642.91 94.55
  C 644.02 96.44 644.61 98.91 646.40 100.68
  C 652.36 106.57 657.74 108.38 666.80 109.31
  Q 677.09 110.37 692.66 113.63
  C 698.49 114.84 701.49 116.87 705.31 120.93
  C 707.42 123.18 704.77 126.06 703.10 128.20
  Q 702.75 128.65 703.12 129.09
  Q 704.05 130.19 706.36 130.30
  Q 712.35 130.59 715.65 126.44
  Q 719.24 121.93 717.53 116.66
  Q 717.07 115.24 713.84 110.45
  Q 711.86 107.51 708.59 105.60
  Q 701.27 101.33 696.51 99.14
  Q 696.05 98.93 695.55 99.00
  Q 690.73 99.68 686.68 96.61
  Q 686.61 96.55 686.64 96.39
  L 686.73 95.85
  Q 686.80 95.48 687.08 95.68
  C 689.11 97.10 693.32 99.49 695.11 96.46
  A 1.40 1.18 4.9 0 1 695.93 95.88
  L 697.65 95.43
  A 0.98 0.96 -32.8 0 0 698.04 93.74
  C 693.98 90.51 689.40 89.23 684.17 89.88
  C 681.31 90.23 679.42 90.77 676.66 89.89
  A 0.72 0.71 26.5 0 0 675.87 90.15
  Q 675.51 90.66 674.82 92.55
  Q 674.45 93.56 673.31 93.42
  Q 672.80 93.36 672.67 92.85
  Q 672.07 90.32 674.38 89.05
  Q 674.84 88.80 674.56 88.36
  C 672.73 85.50 665.70 86.47 662.97 87.22
  A 0.19 0.18 82.8 0 1 662.74 87.04
  L 662.74 86.76
  A 0.51 0.49 80.0 0 1 663.06 86.29
  Q 667.57 84.61 672.54 85.85
  Q 673.81 86.16 672.99 85.17
  Q 672.81 84.97 672.04 84.57
  Q 664.83 80.90 658.02 85.99
  Q 656.61 87.05 654.77 86.99
  C 644.19 86.65 636.52 89.66 626.99 94.71
  Q 620.90 97.95 613.51 104.50
  Q 611.45 106.32 609.30 106.70
  Q 595.91 109.02 585.43 112.72
  Q 575.09 116.36 563.96 124.26
  Q 560.48 126.73 557.10 131.27
  Q 547.06 144.80 542.77 151.72
  C 538.73 158.23 535.14 166.48 530.96 172.89
  Q 529.82 174.63 528.95 175.54
  C 527.13 177.45 525.50 180.11 523.76 182.03
  Q 511.31 195.76 506.07 202.82
  Q 504.74 204.61 495.39 218.81
  Q 493.76 221.27 491.64 222.69
  C 484.07 227.75 475.53 231.86 467.52 235.53
  C 461.51 238.29 456.75 241.44 451.08 244.48
  Q 448.39 245.92 444.90 249.16
  Q 439.35 254.32 436.85 256.10
  Q 435.58 257.00 427.87 261.62
  C 420.98 265.75 414.46 270.84 407.98 275.23
  Q 405.81 276.70 398.46 283.98
  C 394.58 287.82 391.28 290.49 387.46 293.81
  C 383.65 297.14 380.44 301.17 378.13 304.98
  Q 375.47 309.36 379.76 306.62
  Q 380.07 306.42 381.40 305.17
  Q 382.38 304.24 382.90 303.61
  Q 390.07 294.81 396.87 288.41
  Q 397.55 287.77 398.25 287.97
  Q 398.81 288.13 398.38 288.52
  Q 391.90 294.45 384.52 303.69
  C 382.30 306.48 379.96 306.98 378.23 310.17
  Q 376.80 312.82 374.58 317.22
  A 0.81 0.81 0.0 0 0 374.93 318.31
  Q 375.51 318.62 376.12 318.11
  C 378.60 316.04 381.95 311.08 384.05 308.71
  Q 394.19 297.26 396.97 294.46
  Q 399.00 292.40 401.05 290.20
  Q 401.22 290.02 401.44 290.14
  L 401.73 290.29
  Q 401.96 290.41 401.78 290.60
  Q 390.14 303.25 383.11 311.61
  Q 381.63 313.38 381.40 315.28
  Q 381.29 316.14 382.23 316.17
  A 0.93 0.91 -64.0 0 0 382.85 315.95
  C 386.41 312.85 389.01 308.92 392.18 305.79
  C 399.79 298.27 407.52 290.11 416.62 284.38
  Q 418.52 283.19 422.47 279.22
  Q 425.96 275.73 428.13 273.89
  Q 439.66 264.10 452.01 255.36
  C 453.49 254.32 454.61 252.99 456.11 252.10
  Q 471.86 242.76 482.17 238.18
  Q 496.33 231.88 504.42 226.75
  Q 506.22 225.61 512.35 220.89
  Q 516.75 217.50 520.42 215.18
  Q 523.63 213.14 526.99 208.33
  C 529.65 204.53 532.90 200.79 535.25 198.99
  Q 543.48 192.69 551.80 186.43
  Q 551.97 186.30 552.12 186.46
  L 552.31 186.67
  Q 552.42 186.78 552.30 186.89
  L 545.94 192.23
  A 1.39 1.12 -15.4 0 0 545.56 192.76
  Q 544.37 195.96 542.15 198.12
  Q 539.94 200.25 538.18 202.66
  Q 536.52 204.92 531.22 210.73
  Q 529.06 213.10 523.52 220.52
  Q 522.31 222.14 517.81 225.05
  C 508.28 231.24 502.83 237.65 494.65 243.10
  C 489.22 246.73 478.66 254.36 471.21 259.18
  C 461.09 265.73 452.72 272.97 443.57 279.46
  C 437.39 283.84 433.40 287.80 428.49 292.05
  Q 424.41 295.57 422.01 298.93
  C 418.15 304.32 415.22 309.56 411.14 314.58
  Q 408.03 318.39 405.10 321.74
  Q 404.61 322.30 404.61 323.05
  L 404.61 323.50
  A 0.38 0.38 0.0 0 0 405.24 323.79
  Q 413.81 316.51 420.63 308.13
  Q 421.10 307.56 421.60 307.43
  A 0.44 0.44 0.0 0 1 422.10 308.05
  C 419.25 313.92 416.83 317.91 412.79 322.19
  Q 410.17 324.99 409.73 327.78
  Q 409.30 330.57 411.19 328.47
  Q 418.26 320.61 423.72 312.63
  Q 423.91 312.37 424.23 312.37
  L 424.79 312.37
  A 0.21 0.21 0.0 0 1 424.96 312.71
  Q 419.41 319.90 418.38 327.74
  Q 418.07 330.07 420.23 328.74
  A 2.13 1.94 -0.0 0 0 420.80 328.22
  C 422.39 326.02 423.13 323.63 425.30 321.25
  C 427.22 319.12 430.15 315.77 432.26 312.66
  C 444.49 294.62 460.16 277.83 478.04 265.37
  C 483.20 261.77 487.11 256.76 492.85 254.32
  C 496.99 252.56 500.34 249.48 503.92 247.38
  Q 512.11 242.59 520.15 237.83
  Q 520.26 237.76 531.17 231.58
  Q 536.93 228.32 543.44 223.85
  C 548.06 220.68 550.80 217.39 554.62 214.18
  Q 556.95 212.22 562.03 205.99
  Q 567.50 199.27 573.72 193.23
  Q 576.00 191.02 579.01 190.26
  C 577.98 191.38 576.59 191.82 575.55 192.83
  Q 567.96 200.17 562.47 207.17
  Q 559.03 211.56 555.66 214.48
  C 553.06 216.73 549.28 220.74 545.72 223.39
  Q 539.49 228.04 532.62 231.89
  Q 522.11 237.78 522.04 237.83
  C 510.79 244.39 504.60 247.65 497.78 252.80
  C 495.79 254.31 494.38 254.79 491.98 255.73
  C 489.29 256.79 486.59 259.51 484.38 261.57
  Q 481.55 264.20 479.10 265.85
  Q 475.15 268.52 473.54 269.79
  Q 450.19 288.19 433.42 312.79
  C 431.02 316.31 427.73 320.31 425.53 322.57
  C 423.56 324.59 423.02 327.38 420.86 329.56
  A 2.33 1.96 -50.4 0 1 418.18 330.05
  C 416.18 328.75 417.74 325.21 418.18 323.57
  Q 418.82 321.18 417.19 323.04
  Q 415.27 325.26 412.54 328.77
  Q 411.40 330.23 409.91 330.44
  A 1.42 1.42 0.0 0 1 408.33 328.74
  C 409.40 323.64 413.97 319.49 416.58 315.82
  Q 417.18 314.97 417.32 314.13
  Q 417.42 313.48 416.99 313.98
  Q 411.69 319.98 405.37 324.96
  Q 404.97 325.27 404.48 325.15
  Q 403.63 324.94 403.24 324.16
  Q 403.01 323.71 403.21 323.24
  C 403.63 322.24 404.03 321.29 404.75 320.45
  Q 412.54 311.37 416.63 305.13
  C 420.52 299.20 422.85 295.31 427.28 291.70
  C 432.09 287.79 435.40 284.13 440.17 280.72
  C 450.91 273.05 460.41 264.85 471.03 257.96
  Q 480.42 251.88 496.64 240.50
  C 503.47 235.72 509.90 229.23 516.10 224.97
  Q 520.39 222.03 521.37 220.88
  Q 527.74 213.40 523.75 218.27
  A 0.01 0.01 0.0 0 0 523.77 218.28
  Q 533.40 206.87 543.41 194.98
  A 0.28 0.28 0.0 0 0 543.06 194.56
  Q 532.74 200.71 526.10 211.33
  Q 525.46 212.36 522.81 214.58
  C 519.82 217.09 515.95 218.70 513.08 221.39
  Q 508.69 225.52 504.53 228.01
  Q 495.16 233.62 486.13 237.44
  Q 480.50 239.82 475.53 242.44
  C 469.69 245.52 463.79 248.19 458.26 252.02
  Q 443.21 262.45 429.25 274.26
  Q 425.77 277.20 423.00 280.01
  Q 418.62 284.46 416.65 285.66
  Q 412.44 288.22 408.62 291.62
  Q 401.79 297.70 396.92 302.72
  C 395.09 304.62 391.49 307.60 389.17 310.72
  C 387.07 313.57 385.40 314.92 382.41 317.86
  A 0.85 0.84 -29.8 0 1 381.00 317.48
  Q 380.80 316.71 380.09 316.24
  Q 379.62 315.93 379.25 316.35
  C 378.01 317.76 376.44 319.53 374.62 319.65
  A 1.33 1.33 0.0 0 1 373.33 317.74
  L 376.84 310.46
  A 0.69 0.68 32.8 0 0 376.66 309.65
  Q 374.71 308.00 376.49 305.26
  Q 381.80 297.06 389.11 290.70
  Q 397.74 283.20 397.78 283.16
  C 401.53 279.66 405.78 275.53 410.33 272.28
  C 417.72 267.00 422.27 263.66 428.89 259.84
  Q 435.07 256.27 436.48 255.23
  Q 439.11 253.29 444.66 247.93
  Q 447.52 245.17 450.28 243.68
  C 456.82 240.14 461.35 237.27 467.43 234.43
  Q 479.16 228.95 487.79 224.04
  C 490.92 222.25 492.88 220.72 494.97 217.57
  C 499.71 210.47 502.76 205.56 507.53 199.57
  Q 511.08 195.12 514.69 190.70
  Q 515.92 189.20 522.28 182.22
  Q 529.97 173.78 535.22 163.65
  Q 540.38 153.70 541.32 152.17
  Q 549.34 139.03 559.10 127.09
  Q 560.25 125.68 565.50 122.05
  Q 576.59 114.39 588.14 110.66
  Q 596.26 108.03 608.99 105.51
  C 610.23 105.26 611.76 104.60 612.63 103.81
  C 623.62 93.86 638.78 85.88 654.03 85.85
  C 656.62 85.85 657.82 84.71 659.51 83.75
  Q 665.07 80.60 671.52 83.11
  Q 674.60 84.30 675.56 87.62
  A 1.27 1.27 0.0 0 0 676.09 88.34
  Q 677.87 89.47 679.01 89.35
  C 685.78 88.62 691.07 88.02 696.66 91.29
  C 699.45 92.92 700.42 95.08 698.13 97.70
  Q 697.60 98.31 698.31 98.70
  Q 702.07 100.73 709.15 104.86
  Q 712.32 106.71 713.98 109.11
  C 717.46 114.12 719.94 116.73 718.59 122.62
  Q 717.27 128.43 711.81 130.50
  Q 706.96 132.34 702.65 130.33
  Q 702.19 130.12 701.80 130.44
  C 693.55 137.09 687.99 141.44 679.61 143.93
  C 672.38 146.08 666.74 147.81 660.01 147.77
  C 657.76 147.75 656.76 148.34 656.01 150.30
  A 0.64 0.63 19.8 0 0 656.41 151.14
  C 663.62 153.46 670.94 160.11 675.63 163.64
  C 681.22 167.85 682.68 175.43 682.90 182.51
  C 682.92 183.41 683.32 184.85 683.81 185.82
  C 685.97 190.10 688.36 193.66 685.55 197.51
  A 2.20 2.20 0.0 0 1 682.20 197.75
  Q 681.48 197.02 681.20 195.66
  Q 680.02 189.92 679.91 189.37
  Q 679.68 188.25 679.00 187.71
  A 0.64 0.63 19.0 0 0 677.97 188.21
  Q 677.98 193.35 674.81 197.36
  C 672.62 200.14 671.02 202.36 667.36 200.77
  A 0.96 0.96 0.0 0 1 667.16 199.12
  C 668.53 198.07 670.33 196.64 671.06 194.85
  Q 673.00 190.10 672.99 186.96
  Q 672.97 183.92 670.98 186.21
  Q 667.98 189.68 663.85 192.37
  Q 662.65 193.16 660.48 192.02
  Q 660.01 191.77 660.04 191.24
  Q 660.16 189.14 661.45 188.65
  C 665.57 187.09 670.69 184.06 668.87 179.09
  C 664.39 166.84 650.40 167.11 639.75 165.93
  Q 639.24 165.87 638.84 166.18
  Q 630.88 172.34 629.25 173.26
  Q 623.92 176.23 618.82 179.59
  Q 616.33 181.22 610.55 183.01
  Q 602.18 185.60 593.73 187.95
  Q 587.49 189.68 581.26 189.90
  Q 580.10 189.94 579.01 190.26
  Z"
/>
<path fill="#cfc3b4" d="
  M 579.01 190.26
  Q 576.00 191.02 573.72 193.23
  Q 567.50 199.27 562.03 205.99
  Q 556.95 212.22 554.62 214.18
  C 550.80 217.39 548.06 220.68 543.44 223.85
  Q 536.93 228.32 531.17 231.58
  Q 520.26 237.76 520.15 237.83
  Q 512.11 242.59 503.92 247.38
  C 500.34 249.48 496.99 252.56 492.85 254.32
  C 487.11 256.76 483.20 261.77 478.04 265.37
  C 460.16 277.83 444.49 294.62 432.26 312.66
  C 430.15 315.77 427.22 319.12 425.30 321.25
  C 423.13 323.63 422.39 326.02 420.80 328.22
  A 2.13 1.94 -0.0 0 1 420.23 328.74
  Q 418.07 330.07 418.38 327.74
  Q 419.41 319.90 424.96 312.71
  A 0.21 0.21 0.0 0 0 424.79 312.37
  L 424.23 312.37
  Q 423.91 312.37 423.72 312.63
  Q 418.26 320.61 411.19 328.47
  Q 409.30 330.57 409.73 327.78
  Q 410.17 324.99 412.79 322.19
  C 416.83 317.91 419.25 313.92 422.10 308.05
  A 0.44 0.44 0.0 0 0 421.60 307.43
  Q 421.10 307.56 420.63 308.13
  Q 413.81 316.51 405.24 323.79
  A 0.38 0.38 0.0 0 1 404.61 323.50
  L 404.61 323.05
  Q 404.61 322.30 405.10 321.74
  Q 408.03 318.39 411.14 314.58
  C 415.22 309.56 418.15 304.32 422.01 298.93
  Q 424.41 295.57 428.49 292.05
  C 433.40 287.80 437.39 283.84 443.57 279.46
  C 452.72 272.97 461.09 265.73 471.21 259.18
  C 478.66 254.36 489.22 246.73 494.65 243.10
  C 502.83 237.65 508.28 231.24 517.81 225.05
  Q 522.31 222.14 523.52 220.52
  Q 529.06 213.10 531.22 210.73
  Q 536.52 204.92 538.18 202.66
  Q 539.94 200.25 542.15 198.12
  Q 544.37 195.96 545.56 192.76
  A 1.39 1.12 -15.4 0 1 545.94 192.23
  L 552.30 186.89
  Q 552.42 186.78 552.31 186.67
  L 552.12 186.46
  Q 551.97 186.30 551.80 186.43
  Q 543.48 192.69 535.25 198.99
  C 532.90 200.79 529.65 204.53 526.99 208.33
  Q 523.63 213.14 520.42 215.18
  Q 516.75 217.50 512.35 220.89
  Q 506.22 225.61 504.42 226.75
  Q 496.33 231.88 482.17 238.18
  Q 471.86 242.76 456.11 252.10
  C 454.61 252.99 453.49 254.32 452.01 255.36
  Q 439.66 264.10 428.13 273.89
  Q 425.96 275.73 422.47 279.22
  Q 418.52 283.19 416.62 284.38
  C 407.52 290.11 399.79 298.27 392.18 305.79
  C 389.01 308.92 386.41 312.85 382.85 315.95
  A 0.93 0.91 -64.0 0 1 382.23 316.17
  Q 381.29 316.14 381.40 315.28
  Q 381.63 313.38 383.11 311.61
  Q 390.14 303.25 401.78 290.60
  Q 401.96 290.41 401.73 290.29
  L 401.44 290.14
  Q 401.22 290.02 401.05 290.20
  Q 399.00 292.40 396.97 294.46
  Q 394.19 297.26 384.05 308.71
  C 381.95 311.08 378.60 316.04 376.12 318.11
  Q 375.51 318.62 374.93 318.31
  A 0.81 0.81 0.0 0 1 374.58 317.22
  Q 376.80 312.82 378.23 310.17
  C 379.96 306.98 382.30 306.48 384.52 303.69
  Q 391.90 294.45 398.38 288.52
  Q 398.81 288.13 398.25 287.97
  Q 397.55 287.77 396.87 288.41
  Q 390.07 294.81 382.90 303.61
  Q 382.38 304.24 381.40 305.17
  Q 380.07 306.42 379.76 306.62
  Q 375.47 309.36 378.13 304.98
  C 380.44 301.17 383.65 297.14 387.46 293.81
  C 391.28 290.49 394.58 287.82 398.46 283.98
  Q 405.81 276.70 407.98 275.23
  C 414.46 270.84 420.98 265.75 427.87 261.62
  Q 435.58 257.00 436.85 256.10
  Q 439.35 254.32 444.90 249.16
  Q 448.39 245.92 451.08 244.48
  C 456.75 241.44 461.51 238.29 467.52 235.53
  C 475.53 231.86 484.07 227.75 491.64 222.69
  Q 493.76 221.27 495.39 218.81
  Q 504.74 204.61 506.07 202.82
  Q 511.31 195.76 523.76 182.03
  C 525.50 180.11 527.13 177.45 528.95 175.54
  Q 529.82 174.63 530.96 172.89
  C 535.14 166.48 538.73 158.23 542.77 151.72
  Q 547.06 144.80 557.10 131.27
  Q 560.48 126.73 563.96 124.26
  Q 575.09 116.36 585.43 112.72
  Q 595.91 109.02 609.30 106.70
  Q 611.45 106.32 613.51 104.50
  Q 620.90 97.95 626.99 94.71
  C 636.52 89.66 644.19 86.65 654.77 86.99
  Q 656.61 87.05 658.02 85.99
  Q 664.83 80.90 672.04 84.57
  Q 672.81 84.97 672.99 85.17
  Q 673.81 86.16 672.54 85.85
  Q 667.57 84.61 663.06 86.29
  A 0.51 0.49 80.0 0 0 662.74 86.76
  L 662.74 87.04
  A 0.19 0.18 82.8 0 0 662.97 87.22
  C 665.70 86.47 672.73 85.50 674.56 88.36
  Q 674.84 88.80 674.38 89.05
  Q 672.07 90.32 672.67 92.85
  Q 672.80 93.36 673.31 93.42
  Q 674.45 93.56 674.82 92.55
  Q 675.51 90.66 675.87 90.15
  A 0.72 0.71 26.5 0 1 676.66 89.89
  C 679.42 90.77 681.31 90.23 684.17 89.88
  C 689.40 89.23 693.98 90.51 698.04 93.74
  A 0.98 0.96 -32.8 0 1 697.65 95.43
  L 695.93 95.88
  A 1.40 1.18 4.9 0 0 695.11 96.46
  C 693.32 99.49 689.11 97.10 687.08 95.68
  Q 686.80 95.48 686.73 95.85
  L 686.64 96.39
  Q 686.61 96.55 686.68 96.61
  Q 690.73 99.68 695.55 99.00
  Q 696.05 98.93 696.51 99.14
  Q 701.27 101.33 708.59 105.60
  Q 711.86 107.51 713.84 110.45
  Q 717.07 115.24 717.53 116.66
  Q 719.24 121.93 715.65 126.44
  Q 712.35 130.59 706.36 130.30
  Q 704.05 130.19 703.12 129.09
  Q 702.75 128.65 703.10 128.20
  C 704.77 126.06 707.42 123.18 705.31 120.93
  C 701.49 116.87 698.49 114.84 692.66 113.63
  Q 677.09 110.37 666.80 109.31
  C 657.74 108.38 652.36 106.57 646.40 100.68
  C 644.61 98.91 644.02 96.44 642.91 94.55
  Q 641.99 92.96 642.35 94.76
  C 643.36 99.74 646.08 102.27 650.25 105.15
  Q 655.80 108.99 662.27 109.71
  Q 677.53 111.42 692.17 114.55
  C 697.19 115.63 700.87 117.50 703.97 120.82
  C 706.28 123.32 704.09 125.64 702.01 127.35
  Q 701.63 127.66 701.54 128.15
  Q 701.41 128.95 701.37 129.06
  Q 701.25 129.50 700.89 129.80
  C 694.49 135.09 688.11 140.23 680.74 142.48
  Q 669.12 146.03 662.51 146.83
  Q 658.60 147.31 652.76 145.85
  A 0.36 0.36 0.0 0 0 652.31 146.20
  L 652.31 146.70
  Q 652.31 147.00 652.61 147.00
  L 655.57 147.00
  A 0.79 0.79 0.0 0 1 656.13 148.35
  C 650.94 153.58 647.84 157.25 643.00 161.14
  Q 641.20 162.59 635.86 167.38
  Q 632.66 170.25 621.29 176.94
  Q 616.05 180.02 610.53 181.90
  Q 608.77 182.50 594.64 186.68
  C 587.62 188.77 580.46 188.74 572.86 188.80
  Q 572.53 188.80 572.42 189.10
  Q 572.36 189.25 572.50 189.40
  Q 572.58 189.48 572.68 189.50
  Q 575.48 189.89 578.38 189.87
  Q 578.66 189.87 579.01 190.26
  Z"
/>
<path fill="#020202" d="
  M 575.06 141.15
  Q 591.63 141.01 607.01 142.19
  Q 607.60 142.24 609.20 142.82
  Q 609.41 142.90 609.47 143.02
  Q 609.52 143.15 609.46 143.29
  Q 609.40 143.41 609.26 143.40
  Q 592.82 141.92 576.39 142.26
  C 573.64 142.31 571.63 141.31 572.09 138.30
  Q 573.07 131.93 578.04 127.28
  Q 582.46 123.13 587.49 118.28
  Q 587.77 118.01 587.88 118.42
  L 588.03 119.05
  Q 588.09 119.27 587.92 119.42
  Q 585.82 121.25 579.79 126.79
  C 576.63 129.69 572.68 134.71 573.11 139.38
  A 1.95 1.94 -2.7 0 0 575.06 141.15
  Z"
/>
<path fill="#020202" d="
  M 605.93 160.38
  Q 605.13 161.38 606.40 161.54
  Q 606.53 161.56 606.76 161.59
  A 2.65 2.62 27.6 0 0 608.87 160.94
  Q 613.09 157.14 615.71 151.48
  A 1.22 1.22 0.0 0 1 617.27 150.87
  C 619.97 151.95 621.24 157.29 621.36 159.80
  Q 621.47 162.36 621.21 166.99
  A 1.26 1.26 0.0 0 0 622.40 168.32
  C 624.94 168.44 626.07 164.03 625.59 162.19
  Q 624.74 158.92 623.04 155.80
  Q 622.09 154.06 623.89 153.41
  L 625.19 152.95
  Q 625.72 152.76 626.20 152.96
  Q 630.55 154.70 634.23 159.33
  Q 635.04 160.35 636.33 160.18
  Q 637.35 160.05 637.46 159.94
  Q 638.92 158.40 638.05 156.92
  Q 636.16 153.68 634.17 152.85
  C 629.82 151.02 626.42 150.01 624.37 147.90
  Q 624.04 147.56 624.01 147.08
  Q 623.38 137.46 614.88 133.95
  Q 609.63 131.78 607.16 131.78
  Q 605.27 131.77 600.50 131.14
  Q 600.24 131.11 600.24 130.84
  L 600.24 130.48
  Q 600.24 130.14 600.57 130.19
  Q 603.12 130.60 605.56 130.65
  C 610.44 130.74 613.75 132.23 618.06 134.58
  C 622.71 137.12 624.07 141.45 625.01 146.30
  C 625.53 148.94 630.44 150.26 632.84 151.15
  C 635.33 152.08 641.10 156.25 638.93 159.58
  C 637.17 162.29 634.96 161.53 633.08 159.59
  C 630.87 157.32 628.53 154.43 625.75 154.06
  A 1.43 1.43 0.0 0 0 624.29 156.13
  C 626.52 160.44 628.32 165.36 623.78 168.98
  A 2.06 2.05 42.5 0 1 621.36 169.08
  Q 620.23 168.32 620.28 166.54
  C 620.46 160.68 621.03 157.15 617.69 152.28
  A 0.77 0.77 0.0 0 0 616.36 152.37
  Q 615.03 155.06 612.00 159.22
  Q 609.38 162.82 605.35 162.95
  Q 604.78 162.97 604.66 162.41
  C 604.16 159.97 607.96 156.38 610.14 153.87
  Q 612.19 151.51 611.92 148.60
  Q 611.89 148.28 612.22 148.28
  L 612.66 148.28
  Q 612.83 148.28 612.85 148.45
  Q 613.18 151.97 610.96 154.46
  Q 608.14 157.63 605.93 160.38
  Z"
/>
<path fill="#cfc3b4" d="
  M 678.59 185.96
  Q 677.02 187.08 677.01 188.01
  Q 676.95 195.72 670.38 200.15
  Q 670.03 200.38 669.08 200.07
  Q 668.52 199.89 668.81 199.38
  Q 669.22 198.66 670.16 197.78
  C 673.13 195.01 674.03 189.33 673.88 185.28
  A 1.12 1.11 85.3 0 0 672.63 184.21
  C 671.79 184.32 670.94 184.61 670.38 185.28
  Q 667.10 189.20 662.94 191.58
  A 1.14 1.14 0.0 0 1 661.53 191.37
  L 661.23 191.05
  A 0.72 0.72 0.0 0 1 661.48 189.89
  C 666.80 187.77 672.46 183.64 669.41 177.57
  Q 666.03 170.85 659.70 168.35
  Q 651.11 164.95 642.50 165.27
  Q 641.61 165.30 641.50 165.23
  Q 640.65 164.73 641.45 163.98
  L 654.28 151.98
  A 1.30 1.20 -38.4 0 1 656.20 152.12
  Q 656.30 152.28 657.02 152.58
  C 663.05 155.09 665.74 157.65 672.66 162.61
  C 680.00 167.87 681.00 173.28 681.90 181.74
  Q 682.29 185.32 683.09 186.87
  C 684.66 189.88 687.01 193.33 685.19 196.38
  A 1.60 1.60 0.0 0 1 682.27 195.95
  Q 681.51 192.98 680.83 188.96
  Q 680.77 188.63 679.29 186.11
  Q 679.02 185.65 678.59 185.96
  Z"
/>
</svg>
