<?xml version="1.0" encoding="UTF-8" standalone="no"?>
<svg xmlns="http://www.w3.org/2000/svg" version="1.2" baseProfile="tiny" viewBox="0.00 0.00 720.00 480.00">
<path stroke="#818181" stroke-width="2.00" fill="none" stroke-linecap="butt" vector-effect="non-scaling-stroke" d="
  M 720.00 132.25
  L 719.64 132.02
  Q 719.23 131.75 718.76 131.91
  C 708.37 135.51 700.18 135.08 688.25 134.92
  Q 680.96 134.82 672.93 133.32
  Q 670.09 132.79 669.40 132.29
  Q 662.96 127.61 655.72 130.69
  Q 652.58 132.03 641.64 136.75
  C 632.14 140.85 621.48 141.28 612.68 145.26
  Q 604.98 148.74 597.66 154.19
  Q 595.62 155.70 593.64 158.13
  Q 580.91 173.72 574.13 181.13
  Q 571.22 184.30 566.37 192.61
  Q 565.58 193.96 561.93 199.00
  Q 559.56 202.29 558.45 205.52
  Q 556.20 212.07 556.15 212.63
  C 555.76 216.75 553.95 221.56 549.25 221.01
  A 1.58 1.58 0.0 0 1 548.17 218.50
  Q 553.55 211.22 556.97 201.77
  Q 557.78 199.54 557.54 198.07
  A 1.89 1.89 0.0 0 0 554.87 196.68
  Q 548.72 199.58 545.87 206.05
  Q 544.28 209.68 543.26 210.86
  C 541.90 212.46 534.07 219.94 532.62 215.27
  A 1.62 1.62 0.0 0 1 532.98 213.70
  Q 535.54 210.94 538.95 208.07
  Q 541.45 205.98 544.38 202.29
  Q 547.11 198.86 551.78 194.17
  A 1.58 1.57 68.1 0 0 552.24 193.08
  Q 552.24 190.58 549.30 191.51
  Q 540.50 194.30 530.13 193.38
  Q 529.28 193.31 529.94 192.77
  Q 531.67 191.33 534.28 191.15
  C 539.86 190.77 544.51 190.94 548.54 189.92
  Q 556.15 187.99 560.65 184.65
  Q 563.49 182.53 570.54 175.68
  Q 574.11 172.21 577.13 167.58
  Q 582.17 159.85 582.73 158.72
  Q 587.30 149.42 592.56 143.34
  Q 597.43 137.70 609.05 128.80
  Q 615.03 124.22 620.49 121.93
  Q 636.21 115.37 646.83 106.31
  Q 656.50 98.05 669.76 84.48
  C 672.56 81.60 675.15 79.86 678.90 76.88
  Q 682.76 73.81 686.32 72.00
  Q 697.93 66.08 710.68 60.72
  C 713.53 59.52 716.16 59.42 719.05 58.91
  A 0.35 0.35 0.0 0 0 719.34 58.58
  L 719.36 58.21
  A 0.24 0.24 0.0 0 0 719.09 57.96
  Q 712.75 58.70 710.81 59.56
  Q 688.83 69.28 682.31 73.04
  Q 680.40 74.14 674.87 78.60
  Q 671.37 81.42 667.98 84.81
  Q 665.84 86.95 653.81 98.72
  Q 647.42 104.97 642.75 108.27
  Q 634.20 114.31 630.37 116.11
  Q 617.15 122.34 612.62 125.10
  Q 604.79 129.86 593.63 140.87
  C 587.47 146.95 585.29 152.07 580.52 160.54
  Q 572.11 175.45 558.52 184.74
  Q 555.15 187.04 549.40 188.74
  C 542.75 190.70 534.37 187.71 528.71 192.15
  A 0.76 0.76 0.0 0 0 528.70 193.34
  Q 530.20 194.58 532.31 194.66
  Q 541.14 195.01 549.51 192.75
  Q 550.49 192.48 550.65 192.67
  Q 551.35 193.48 550.54 194.18
  Q 546.62 197.56 543.66 201.39
  Q 540.54 205.43 539.19 206.52
  C 536.31 208.86 533.44 210.99 531.55 213.83
  Q 531.26 214.27 531.40 214.78
  Q 531.82 216.29 532.81 217.58
  Q 533.13 218.01 533.66 218.01
  C 538.65 218.10 543.98 212.21 546.03 208.26
  Q 548.79 202.93 548.81 202.90
  Q 551.68 199.38 555.06 197.87
  A 1.10 1.10 0.0 0 1 556.57 199.17
  C 554.55 206.42 551.11 212.28 546.80 218.79
  Q 546.51 219.21 546.75 219.67
  C 547.51 221.12 547.91 222.29 550.01 222.25
  C 555.74 222.15 556.66 216.37 557.64 211.90
  C 558.52 207.91 560.15 203.50 562.75 199.69
  C 567.41 192.87 571.28 185.89 576.76 179.67
  Q 582.56 173.07 587.39 167.31
  C 590.77 163.27 593.68 158.76 596.90 156.16
  C 604.47 150.03 613.01 145.16 622.42 143.12
  Q 628.11 141.88 631.73 141.10
  C 639.43 139.44 648.13 135.05 656.16 131.66
  Q 657.98 130.89 659.71 130.80
  Q 660.23 130.78 660.17 131.29
  Q 659.58 136.86 659.30 137.76
  Q 656.66 146.14 652.46 153.97
  C 647.76 162.73 639.38 171.45 629.50 174.21
  C 623.02 176.03 617.73 178.27 611.34 179.21
  Q 600.86 180.77 597.48 181.21
  C 594.11 181.65 592.17 182.64 589.79 185.43
  Q 585.64 190.28 580.13 193.27
  C 577.14 194.90 573.19 195.97 569.93 197.03
  A 1.50 1.45 7.0 0 0 569.16 197.61
  Q 567.54 199.97 569.22 202.00
  A 1.05 1.05 0.0 0 0 570.07 202.38
  C 575.81 202.14 579.27 199.40 584.22 197.01
  A 0.63 0.63 0.0 0 1 585.13 197.59
  Q 585.13 197.82 584.82 198.31
  Q 578.21 208.96 574.47 219.33
  Q 573.69 221.48 575.94 221.92
  Q 576.76 222.08 577.13 221.97
  Q 579.98 221.13 581.11 218.68
  Q 587.51 204.81 587.90 203.88
  Q 590.74 197.09 589.39 204.37
  Q 588.53 209.02 588.98 218.06
  A 3.63 3.27 -83.1 0 0 591.22 221.24
  Q 591.29 221.27 591.53 221.34
  Q 593.44 221.88 593.40 219.89
  Q 593.10 206.40 593.41 202.53
  Q 593.67 199.22 595.57 196.58
  C 597.50 193.91 600.74 189.96 604.11 188.83
  C 608.71 187.28 613.86 187.32 619.02 187.41
  C 621.24 187.46 625.25 185.57 628.09 185.03
  Q 636.22 183.50 647.59 180.86
  C 659.06 178.19 664.81 169.21 672.83 159.68
  C 676.06 155.84 680.23 149.44 683.67 146.16
  Q 686.94 143.05 694.03 139.44
  C 696.68 138.09 697.30 136.47 700.42 136.20
  Q 705.10 135.79 709.76 135.35
  Q 712.77 135.07 720.00 132.63"
/>
<path fill="#cfc3b4" d="
  M 720.00 0.00
  L 720.00 132.25
  L 719.64 132.02
  Q 719.23 131.75 718.76 131.91
  C 708.37 135.51 700.18 135.08 688.25 134.92
  Q 680.96 134.82 672.93 133.32
  Q 670.09 132.79 669.40 132.29
  Q 662.96 127.61 655.72 130.69
  Q 652.58 132.03 641.64 136.75
  C 632.14 140.85 621.48 141.28 612.68 145.26
  Q 604.98 148.74 597.66 154.19
  Q 595.62 155.70 593.64 158.13
  Q 580.91 173.72 574.13 181.13
  Q 571.22 184.30 566.37 192.61
  Q 565.58 193.96 561.93 199.00
  Q 559.56 202.29 558.45 205.52
  Q 556.20 212.07 556.15 212.63
  C 555.76 216.75 553.95 221.56 549.25 221.01
  A 1.58 1.58 0.0 0 1 548.17 218.50
  Q 553.55 211.22 556.97 201.77
  Q 557.78 199.54 557.54 198.07
  A 1.89 1.89 0.0 0 0 554.87 196.68
  Q 548.72 199.58 545.87 206.05
  Q 544.28 209.68 543.26 210.86
  C 541.90 212.46 534.07 219.94 532.62 215.27
  A 1.62 1.62 0.0 0 1 532.98 213.70
  Q 535.54 210.94 538.95 208.07
  Q 541.45 205.98 544.38 202.29
  Q 547.11 198.86 551.78 194.17
  A 1.58 1.57 68.1 0 0 552.24 193.08
  Q 552.24 190.58 549.30 191.51
  Q 540.50 194.30 530.13 193.38
  Q 529.28 193.31 529.94 192.77
  Q 531.67 191.33 534.28 191.15
  C 539.86 190.77 544.51 190.94 548.54 189.92
  Q 556.15 187.99 560.65 184.65
  Q 563.49 182.53 570.54 175.68
  Q 574.11 172.21 577.13 167.58
  Q 582.17 159.85 582.73 158.72
  Q 587.30 149.42 592.56 143.34
  Q 597.43 137.70 609.05 128.80
  Q 615.03 124.22 620.49 121.93
  Q 636.21 115.37 646.83 106.31
  Q 656.50 98.05 669.76 84.48
  C 672.56 81.60 675.15 79.86 678.90 76.88
  Q 682.76 73.81 686.32 72.00
  Q 697.93 66.08 710.68 60.72
  C 713.53 59.52 716.16 59.42 719.05 58.91
  A 0.35 0.35 0.0 0 0 719.34 58.58
  L 719.36 58.21
  A 0.24 0.24 0.0 0 0 719.09 57.96
  Q 712.75 58.70 710.81 59.56
  Q 688.83 69.28 682.31 73.04
  Q 680.40 74.14 674.87 78.60
  Q 671.37 81.42 667.98 84.81
  Q 665.84 86.95 653.81 98.72
  Q 647.42 104.97 642.75 108.27
  Q 634.20 114.31 630.37 116.11
  Q 617.15 122.34 612.62 125.10
  Q 604.79 129.86 593.63 140.87
  C 587.47 146.95 585.29 152.07 580.52 160.54
  Q 572.11 175.45 558.52 184.74
  Q 555.15 187.04 549.40 188.74
  C 542.75 190.70 534.37 187.71 528.71 192.15
  A 0.76 0.76 0.0 0 0 528.70 193.34
  Q 530.20 194.58 532.31 194.66
  Q 541.14 195.01 549.51 192.75
  Q 550.49 192.48 550.65 192.67
  Q 551.35 193.48 550.54 194.18
  Q 546.62 197.56 543.66 201.39
  Q 540.54 205.43 539.19 206.52
  C 536.31 208.86 533.44 210.99 531.55 213.83
  Q 531.26 214.27 531.40 214.78
  Q 531.82 216.29 532.81 217.58
  Q 533.13 218.01 533.66 218.01
  C 538.65 218.10 543.98 212.21 546.03 208.26
  Q 548.79 202.93 548.81 202.90
  Q 551.68 199.38 555.06 197.87
  A 1.10 1.10 0.0 0 1 556.57 199.17
  C 554.55 206.42 551.11 212.28 546.80 218.79
  Q 546.51 219.21 546.75 219.67
  C 547.51 221.12 547.91 222.29 550.01 222.25
  C 555.74 222.15 556.66 216.37 557.64 211.90
  C 558.52 207.91 560.15 203.50 562.75 199.69
  C 567.41 192.87 571.28 185.89 576.76 179.67
  Q 582.56 173.07 587.39 167.31
  C 590.77 163.27 593.68 158.76 596.90 156.16
  C 604.47 150.03 613.01 145.16 622.42 143.12
  Q 628.11 141.88 631.73 141.10
  C 639.43 139.44 648.13 135.05 656.16 131.66
  Q 657.98 130.89 659.71 130.80
  Q 660.23 130.78 660.17 131.29
  Q 659.58 136.86 659.30 137.76
  Q 656.66 146.14 652.46 153.97
  C 647.76 162.73 639.38 171.45 629.50 174.21
  C 623.02 176.03 617.73 178.27 611.34 179.21
  Q 600.86 180.77 597.48 181.21
  C 594.11 181.65 592.17 182.64 589.79 185.43
  Q 585.64 190.28 580.13 193.27
  C 577.14 194.90 573.19 195.97 569.93 197.03
  A 1.50 1.45 7.0 0 0 569.16 197.61
  Q 567.54 199.97 569.22 202.00
  A 1.05 1.05 0.0 0 0 570.07 202.38
  C 575.81 202.14 579.27 199.40 584.22 197.01
  A 0.63 0.63 0.0 0 1 585.13 197.59
  Q 585.13 197.82 584.82 198.31
  Q 578.21 208.96 574.47 219.33
  Q 573.69 221.48 575.94 221.92
  Q 576.76 222.08 577.13 221.97
  Q 579.98 221.13 581.11 218.68
  Q 587.51 204.81 587.90 203.88
  Q 590.74 197.09 589.39 204.37
  Q 588.53 209.02 588.98 218.06
  A 3.63 3.27 -83.1 0 0 591.22 221.24
  Q 591.29 221.27 591.53 221.34
  Q 593.44 221.88 593.40 219.89
  Q 593.10 206.40 593.41 202.53
  Q 593.67 199.22 595.57 196.58
  C 597.50 193.91 600.74 189.96 604.11 188.83
  C 608.71 187.28 613.86 187.32 619.02 187.41
  C 621.24 187.46 625.25 185.57 628.09 185.03
  Q 636.22 183.50 647.59 180.86
  C 659.06 178.19 664.81 169.21 672.83 159.68
  C 676.06 155.84 680.23 149.44 683.67 146.16
  Q 686.94 143.05 694.03 139.44
  C 696.68 138.09 697.30 136.47 700.42 136.20
  Q 705.10 135.79 709.76 135.35
  Q 712.77 135.07 720.00 132.63
  L 720.00 480.00
  L 0.00 480.00
  L 0.00 0.00
  L 720.00 0.00
  Z"
/>
<path fill="#030303" d="
  M 720.00 132.25
  L 720.00 132.63
  Q 712.77 135.07 709.76 135.35
  Q 705.10 135.79 700.42 136.20
  C 697.30 136.47 696.68 138.09 694.03 139.44
  Q 686.94 143.05 683.67 146.16
  C 680.23 149.44 676.06 155.84 672.83 159.68
  C 664.81 169.21 659.06 178.19 647.59 180.86
  Q 636.22 183.50 628.09 185.03
  C 625.25 185.57 621.24 187.46 619.02 187.41
  C 613.86 187.32 608.71 187.28 604.11 188.83
  C 600.74 189.96 597.50 193.91 595.57 196.58
  Q 593.67 199.22 593.41 202.53
  Q 593.10 206.40 593.40 219.89
  Q 593.44 221.88 591.53 221.34
  Q 591.29 221.27 591.22 221.24
  A 3.63 3.27 -83.1 0 1 588.98 218.06
  Q 588.53 209.02 589.39 204.37
  Q 590.74 197.09 587.90 203.88
  Q 587.51 204.81 581.11 218.68
  Q 579.98 221.13 577.13 221.97
  Q 576.76 222.08 575.94 221.92
  Q 573.69 221.48 574.47 219.33
  Q 578.21 208.96 584.82 198.31
  Q 585.13 197.82 585.13 197.59
  A 0.63 0.63 0.0 0 0 584.22 197.01
  C 579.27 199.40 575.81 202.14 570.07 202.38
  A 1.05 1.05 0.0 0 1 569.22 202.00
  Q 567.54 199.97 569.16 197.61
  A 1.50 1.45 7.0 0 1 569.93 197.03
  C 573.19 195.97 577.14 194.90 580.13 193.27
  Q 585.64 190.28 589.79 185.43
  C 592.17 182.64 594.11 181.65 597.48 181.21
  Q 600.86 180.77 611.34 179.21
  C 617.73 178.27 623.02 176.03 629.50 174.21
  C 639.38 171.45 647.76 162.73 652.46 153.97
  Q 656.66 146.14 659.30 137.76
  Q 659.58 136.86 660.17 131.29
  Q 660.23 130.78 659.71 130.80
  Q 657.98 130.89 656.16 131.66
  C 648.13 135.05 639.43 139.44 631.73 141.10
  Q 628.11 141.88 622.42 143.12
  C 613.01 145.16 604.47 150.03 596.90 156.16
  C 593.68 158.76 590.77 163.27 587.39 167.31
  Q 582.56 173.07 576.76 179.67
  C 571.28 185.89 567.41 192.87 562.75 199.69
  C 560.15 203.50 558.52 207.91 557.64 211.90
  C 556.66 216.37 555.74 222.15 550.01 222.25
  C 547.91 222.29 547.51 221.12 546.75 219.67
  Q 546.51 219.21 546.80 218.79
  C 551.11 212.28 554.55 206.42 556.57 199.17
  A 1.10 1.10 0.0 0 0 555.06 197.87
  Q 551.68 199.38 548.81 202.90
  Q 548.79 202.93 546.03 208.26
  C 543.98 212.21 538.65 218.10 533.66 218.01
  Q 533.13 218.01 532.81 217.58
  Q 531.82 216.29 531.40 214.78
  Q 531.26 214.27 531.55 213.83
  C 533.44 210.99 536.31 208.86 539.19 206.52
  Q 540.54 205.43 543.66 201.39
  Q 546.62 197.56 550.54 194.18
  Q 551.35 193.48 550.65 192.67
  Q 550.49 192.48 549.51 192.75
  Q 541.14 195.01 532.31 194.66
  Q 530.20 194.58 528.70 193.34
  A 0.76 0.76 0.0 0 1 528.71 192.15
  C 534.37 187.71 542.75 190.70 549.40 188.74
  Q 555.15 187.04 558.52 184.74
  Q 572.11 175.45 580.52 160.54
  C 585.29 152.07 587.47 146.95 593.63 140.87
  Q 604.79 129.86 612.62 125.10
  Q 617.15 122.34 630.37 116.11
  Q 634.20 114.31 642.75 108.27
  Q 647.42 104.97 653.81 98.72
  Q 665.84 86.95 667.98 84.81
  Q 671.37 81.42 674.87 78.60
  Q 680.40 74.14 682.31 73.04
  Q 688.83 69.28 710.81 59.56
  Q 712.75 58.70 719.09 57.96
  A 0.24 0.24 0.0 0 1 719.36 58.21
  L 719.34 58.58
  A 0.35 0.35 0.0 0 1 719.05 58.91
  C 716.16 59.42 713.53 59.52 710.68 60.72
  Q 697.93 66.08 686.32 72.00
  Q 682.76 73.81 678.90 76.88
  C 675.15 79.86 672.56 81.60 669.76 84.48
  Q 656.50 98.05 646.83 106.31
  Q 636.21 115.37 620.49 121.93
  Q 615.03 124.22 609.05 128.80
  Q 597.43 137.70 592.56 143.34
  Q 587.30 149.42 582.73 158.72
  Q 582.17 159.85 577.13 167.58
  Q 574.11 172.21 570.54 175.68
  Q 563.49 182.53 560.65 184.65
  Q 556.15 187.99 548.54 189.92
  C 544.51 190.94 539.86 190.77 534.28 191.15
  Q 531.67 191.33 529.94 192.77
  Q 529.28 193.31 530.13 193.38
  Q 540.50 194.30 549.30 191.51
  Q 552.24 190.58 552.24 193.08
  A 1.58 1.57 68.1 0 1 551.78 194.17
  Q 547.11 198.86 544.38 202.29
  Q 541.45 205.98 538.95 208.07
  Q 535.54 210.94 532.98 213.70
  A 1.62 1.62 0.0 0 0 532.62 215.27
  C 534.07 219.94 541.90 212.46 543.26 210.86
  Q 544.28 209.68 545.87 206.05
  Q 548.72 199.58 554.87 196.68
  A 1.89 1.89 0.0 0 1 557.54 198.07
  Q 557.78 199.54 556.97 201.77
  Q 553.55 211.22 548.17 218.50
  A 1.58 1.58 0.0 0 0 549.25 221.01
  C 553.95 221.56 555.76 216.75 556.15 212.63
  Q 556.20 212.07 558.45 205.52
  Q 559.56 202.29 561.93 199.00
  Q 565.58 193.96 566.37 192.61
  Q 571.22 184.30 574.13 181.13
  Q 580.91 173.72 593.64 158.13
  Q 595.62 155.70 597.66 154.19
  Q 604.98 148.74 612.68 145.26
  C 621.48 141.28 632.14 140.85 641.64 136.75
  Q 652.58 132.03 655.72 130.69
  Q 662.96 127.61 669.40 132.29
  Q 670.09 132.79 672.93 133.32
  Q 680.96 134.82 688.25 134.92
  C 700.18 135.08 708.37 135.51 718.76 131.91
  Q 719.23 131.75 719.64 132.02
  L 720.00 132.25
  Z"
/>
<path fill="#030303" d="
  M 711.40 76.61
  Q 710.25 78.90 706.87 85.14
  C 704.88 88.83 704.40 95.27 708.23 98.02
  Q 713.76 101.97 719.27 102.34
  Q 719.69 102.37 719.67 102.79
  L 719.65 103.18
  Q 719.63 103.50 719.32 103.47
  C 715.20 103.00 705.48 99.81 704.83 94.91
  Q 704.26 90.62 704.66 87.91
  C 705.17 84.36 709.67 77.88 711.08 75.35
  Q 713.06 71.81 718.80 70.53
  Q 719.16 70.45 719.07 70.88
  Q 719.06 70.90 718.95 71.10
  Q 718.92 71.16 718.85 71.19
  C 715.95 72.24 712.79 73.82 711.40 76.61
  Z"
/>
<path fill="#cfc3b4" d="
  M 585.51 195.19
  Q 581.47 197.02 577.30 199.40
  C 575.53 200.41 572.90 201.29 571.25 201.30
  Q 568.55 201.33 569.34 198.97
  A 1.71 1.71 0.0 0 1 570.62 197.83
  Q 583.97 194.98 591.84 184.34
  Q 592.92 182.89 597.27 182.37
  Q 601.58 181.86 612.50 180.07
  Q 617.94 179.18 622.00 177.41
  C 626.00 175.67 631.25 175.42 635.28 173.11
  C 647.28 166.19 653.19 156.31 658.40 143.45
  Q 660.74 137.68 661.08 132.06
  A 1.75 1.74 -79.4 0 1 663.35 130.50
  C 667.14 131.71 669.83 134.02 673.99 134.73
  Q 683.84 136.42 694.08 136.08
  Q 698.23 135.94 694.55 137.87
  Q 688.42 141.10 683.25 145.24
  Q 681.01 147.04 675.90 154.12
  C 671.91 159.63 666.41 165.50 661.69 171.19
  C 656.42 177.53 649.45 179.56 641.10 181.45
  C 636.76 182.43 629.68 183.33 624.09 184.90
  Q 619.76 186.13 617.15 186.24
  C 611.32 186.49 604.35 186.17 599.62 190.57
  C 595.76 194.18 592.67 197.42 592.44 202.63
  Q 592.23 207.68 592.44 219.77
  Q 592.46 220.87 591.59 220.20
  L 590.73 219.54
  A 2.50 2.50 0.0 0 1 589.75 217.42
  L 590.69 199.24
  Q 590.72 198.67 590.25 198.33
  Q 589.38 197.71 589.03 198.54
  Q 585.23 207.38 580.81 216.79
  Q 579.51 219.55 578.15 220.21
  Q 573.84 222.31 576.01 218.04
  C 577.58 214.96 578.41 211.96 580.25 208.48
  Q 583.88 201.58 585.10 199.61
  C 585.73 198.60 585.95 197.51 586.53 196.20
  Q 587.34 194.37 585.51 195.19
  Z"
/>
</svg>
