<?xml version="1.0" encoding="UTF-8" standalone="no"?>
<svg xmlns="http://www.w3.org/2000/svg" version="1.2" baseProfile="tiny" viewBox="0.00 0.00 720.00 480.00">
<path fill="#cfc3b4" d="
  M 720.00 0.00
  L 720.00 480.00
  L 0.00 480.00
  L 0.00 0.00
  L 720.00 0.00
  Z"
/>
<path fill="#0c0c0c" d="
  M 602.87 163.52
  Q 604.51 162.71 602.68 162.88
  Q 595.33 163.56 590.02 164.15
  C 586.23 164.57 583.25 164.03 581.28 160.61
  C 580.17 158.69 582.12 156.45 584.00 156.66
  Q 590.10 157.35 598.99 158.60
  C 601.65 158.98 609.73 158.18 612.89 156.12
  C 618.45 152.50 622.04 148.54 628.33 142.30
  Q 631.75 138.90 634.55 134.70
  Q 638.94 128.11 641.41 125.66
  Q 650.67 116.46 654.61 113.60
  C 661.15 108.87 666.57 104.35 673.01 100.99
  C 678.70 98.02 686.20 94.03 692.74 92.01
  Q 698.88 90.11 704.01 88.79
  Q 711.17 86.93 719.31 87.40
  Q 719.38 87.41 719.46 87.60
  L 719.68 88.17
  Q 719.81 88.50 719.43 88.47
  Q 710.63 87.97 701.92 90.40
  C 694.29 92.52 688.34 94.28 681.96 97.55
  C 675.18 101.03 670.64 102.93 665.58 106.97
  Q 664.24 108.04 659.55 111.17
  Q 656.99 112.87 653.74 115.66
  Q 643.18 124.72 640.55 127.82
  Q 638.61 130.10 632.49 139.49
  Q 631.79 140.57 626.40 145.49
  Q 622.98 148.60 621.12 150.53
  C 617.22 154.57 612.90 158.42 607.21 159.21
  C 599.47 160.28 590.83 158.93 583.74 158.12
  A 1.34 1.33 77.7 0 0 582.45 160.14
  Q 584.28 163.14 588.62 163.08
  Q 588.81 163.08 602.76 161.80
  Q 605.67 161.53 607.04 162.76
  A 0.98 0.97 60.3 0 0 607.87 162.99
  Q 609.30 162.72 609.91 163.99
  Q 610.43 165.08 609.76 166.80
  Q 606.12 176.26 602.07 181.11
  C 601.03 182.35 600.34 184.07 600.39 185.64
  A 0.91 0.91 0.0 0 0 601.93 186.26
  C 605.39 182.87 605.62 178.15 608.71 174.37
  Q 609.60 173.27 612.45 167.96
  C 615.33 162.61 621.36 157.96 624.83 154.76
  Q 628.42 151.45 631.52 149.15
  Q 643.40 140.34 656.65 131.66
  C 660.54 129.11 666.21 126.18 671.27 124.17
  C 680.30 120.59 688.33 117.33 696.49 116.21
  C 706.40 114.85 711.66 113.74 719.22 113.92
  A 0.66 0.66 0.0 0 1 719.74 114.20
  Q 719.97 114.53 719.86 114.72
  Q 719.63 115.16 719.50 115.16
  Q 699.91 115.23 684.53 119.98
  Q 680.95 121.09 670.06 125.79
  Q 659.54 130.33 651.02 136.53
  Q 644.22 141.48 637.91 145.67
  Q 630.39 150.66 617.70 162.67
  Q 616.71 163.61 615.68 165.17
  C 613.67 168.20 612.12 170.91 609.29 175.22
  C 607.00 178.72 606.93 181.85 604.01 185.76
  Q 602.45 187.84 599.76 187.64
  Q 599.24 187.60 599.25 187.07
  Q 599.34 183.22 599.88 182.41
  Q 602.47 178.56 603.51 177.09
  C 605.86 173.74 607.65 169.47 608.87 166.62
  Q 609.20 165.84 609.13 165.14
  A 0.89 0.88 72.5 0 0 607.81 164.45
  Q 597.51 170.32 587.18 178.15
  Q 584.88 179.89 582.63 179.22
  A 1.61 1.61 0.0 0 1 581.89 176.61
  C 584.94 173.22 590.10 171.15 592.03 169.70
  C 594.76 167.66 598.58 166.78 601.61 164.94
  Q 602.03 164.69 602.28 164.27
  Q 602.69 163.61 602.87 163.52
  Z"
/>
<path fill="#0c0c0c" d="
  M 646.10 177.39
  Q 645.17 178.38 642.97 181.63
  C 640.65 185.07 637.90 187.94 633.55 187.15
  A 0.97 0.97 0.0 0 1 632.79 186.49
  Q 632.22 184.79 632.48 183.36
  Q 632.56 182.87 632.93 182.53
  C 634.76 180.82 637.18 179.63 638.82 178.28
  Q 648.77 170.04 654.51 158.54
  C 654.95 157.66 655.78 156.65 656.91 156.31
  C 662.24 154.67 666.56 154.39 672.58 154.16
  C 675.82 154.03 682.54 151.22 685.51 149.84
  C 690.32 147.59 694.12 147.47 700.23 146.74
  Q 703.47 146.35 706.57 144.08
  Q 710.18 141.45 719.22 131.50
  Q 719.44 131.26 719.60 131.54
  L 719.82 131.92
  Q 719.91 132.08 719.78 132.22
  Q 714.67 137.87 709.31 143.06
  C 703.57 148.63 698.01 147.62 691.59 148.86
  Q 688.81 149.40 684.72 151.31
  C 677.60 154.63 673.48 155.24 665.51 155.70
  C 662.50 155.87 659.87 156.50 657.14 157.36
  A 2.56 2.54 -83.8 0 0 655.67 158.55
  Q 653.03 163.30 651.00 166.59
  C 647.22 172.70 640.71 178.62 634.52 182.48
  Q 633.55 183.09 633.31 184.12
  A 1.70 1.69 -85.8 0 0 635.08 186.18
  C 639.42 185.89 641.72 181.77 644.11 177.98
  C 644.60 177.21 646.04 176.08 646.22 175.58
  Q 647.24 172.83 647.63 175.72
  C 648.14 179.44 648.26 182.24 645.94 186.14
  C 644.25 188.97 643.32 190.76 642.61 193.60
  A 1.03 1.02 -85.5 0 0 643.69 194.87
  Q 645.26 194.74 645.91 193.38
  C 648.25 188.54 649.63 183.17 650.58 178.37
  C 651.08 175.86 652.71 174.04 654.40 172.30
  A 0.54 0.53 -31.4 0 1 655.29 172.51
  C 655.65 173.67 655.84 174.96 655.60 176.20
  Q 654.03 184.17 653.55 188.01
  Q 653.16 191.14 654.69 193.20
  A 1.00 0.99 39.9 0 0 656.38 193.05
  C 657.31 191.17 656.78 185.53 657.18 182.43
  Q 657.99 176.05 658.13 170.44
  Q 658.17 168.86 660.37 163.86
  C 661.38 161.54 662.97 160.99 665.25 160.99
  Q 689.85 161.06 716.10 156.30
  C 716.89 156.16 717.66 155.60 718.37 155.51
  Q 719.54 155.36 718.65 156.14
  Q 717.37 157.27 715.29 157.62
  Q 702.10 159.87 684.27 161.58
  Q 676.07 162.37 664.37 162.05
  C 660.36 161.95 659.39 168.98 659.18 171.93
  Q 658.33 183.58 657.76 191.99
  Q 657.64 193.86 655.95 194.81
  Q 655.51 195.06 655.09 194.79
  Q 652.02 192.82 652.41 189.03
  Q 653.10 182.37 654.58 176.30
  Q 655.34 173.14 652.90 175.28
  Q 652.51 175.61 652.09 177.52
  Q 651.21 181.49 648.86 189.12
  C 647.94 192.08 646.06 196.30 642.78 195.88
  A 1.72 1.72 0.0 0 1 641.34 193.68
  Q 642.88 188.49 645.80 184.31
  Q 647.43 181.98 646.61 177.54
  Q 646.50 176.97 646.10 177.39
  Z"
/>
<path fill="#cfc3b4" d="
  M 604.91 163.58
  Q 605.78 162.66 606.96 163.45
  Q 607.44 163.77 606.99 164.00
  L 602.23 166.43
  Q 601.43 166.84 601.87 166.07
  Q 602.95 164.20 604.25 163.95
  Q 604.64 163.87 604.91 163.58
  Z"
/>
<rect fill="#cfc3b4" x="-10.15" y="-0.83" transform="translate(591.52,172.50) rotate(-32.3)" width="20.30" height="1.66" rx="0.80"/>
</svg>
