<?xml version="1.0" encoding="UTF-8" standalone="no"?>
<svg xmlns="http://www.w3.org/2000/svg" version="1.2" baseProfile="tiny" viewBox="0.00 0.00 720.00 480.00">
<path fill="#cfc3b4" d="
  M 720.00 0.00
  L 720.00 480.00
  L 0.00 480.00
  L 0.00 0.00
  L 720.00 0.00
  Z"
/>
<path fill="#484846" d="
  M 313.05 177.35
  C 313.58 175.00 315.76 166.54 319.51 168.43
  Q 320.13 168.74 320.48 169.81
  C 321.21 172.04 322.28 174.56 320.97 176.23
  Q 318.61 179.20 316.88 183.13
  Q 316.73 183.47 316.45 183.68
  Q 315.92 184.08 315.75 183.91
  A 1.73 1.60 -50.4 0 1 315.63 181.74
  Q 319.32 176.65 319.38 170.74
  A 0.87 0.87 0.0 0 0 318.88 169.94
  Q 318.31 169.67 317.69 170.21
  Q 316.98 170.81 316.66 171.70
  Q 314.28 178.19 312.43 182.46
  Q 311.65 184.28 311.43 182.31
  L 310.56 174.35
  A 2.89 2.87 11.9 0 0 309.13 172.17
  L 308.29 171.68
  Q 306.81 170.83 306.91 172.54
  C 307.07 175.44 308.63 178.31 308.66 181.21
  Q 308.71 186.46 307.88 188.36
  Q 306.13 192.34 304.02 197.04
  C 303.46 198.29 303.84 199.96 305.08 200.96
  Q 310.15 205.01 316.50 211.54
  Q 318.08 213.16 319.68 215.71
  C 321.62 218.80 324.38 222.36 325.73 225.63
  Q 327.24 229.29 327.93 231.84
  C 329.50 237.67 325.50 244.89 321.85 250.36
  C 319.32 254.15 312.19 256.49 307.58 256.61
  Q 303.78 256.72 299.05 256.44
  Q 295.28 256.22 291.09 253.79
  Q 285.78 250.70 282.63 247.29
  Q 281.07 245.59 276.58 240.09
  Q 275.36 238.59 268.51 227.79
  Q 266.08 223.96 264.32 218.72
  Q 262.61 213.65 259.77 208.01
  C 256.37 201.27 254.29 194.10 250.92 187.08
  Q 245.71 176.24 234.35 172.00
  Q 233.45 171.67 231.61 170.00
  Q 224.00 163.09 220.00 154.52
  Q 219.46 153.37 219.22 153.17
  Q 216.93 151.34 217.68 154.12
  Q 218.37 156.69 220.20 160.04
  Q 220.31 160.24 225.42 167.44
  Q 225.84 168.03 226.03 168.49
  A 1.42 1.42 0.0 0 1 223.80 170.12
  L 207.53 156.27
  Q 207.14 155.94 206.73 156.23
  Q 206.58 156.33 206.53 156.52
  Q 206.42 156.88 206.66 157.19
  C 207.83 158.68 208.30 160.45 209.58 161.71
  Q 214.88 166.94 220.11 170.59
  A 1.26 1.26 0.0 0 1 219.90 172.78
  C 217.25 173.94 214.33 171.91 211.24 170.24
  A 4.60 4.58 52.6 0 0 208.02 169.80
  Q 206.93 170.06 206.79 170.18
  Q 205.51 171.36 206.67 172.07
  C 209.05 173.52 212.10 174.80 215.63 174.60
  Q 218.10 174.46 222.36 174.31
  Q 225.66 174.18 228.94 175.32
  Q 234.15 177.13 239.08 180.99
  Q 241.70 183.03 243.04 185.99
  Q 248.10 197.22 251.16 208.65
  C 252.20 212.56 253.48 215.58 254.55 218.85
  C 256.20 223.93 256.40 229.34 258.35 234.35
  Q 261.12 241.48 264.91 249.86
  Q 265.87 251.99 268.45 255.70
  Q 279.59 271.71 284.38 277.08
  C 285.71 278.57 287.39 279.58 288.49 281.58
  Q 291.65 287.36 291.85 288.18
  C 293.51 294.91 295.76 300.09 297.76 306.11
  Q 299.11 310.18 300.31 312.15
  C 301.94 314.85 302.82 317.21 304.88 319.51
  Q 306.95 321.81 309.01 324.99
  C 311.36 328.62 314.23 331.07 317.67 334.82
  C 323.35 341.00 331.60 344.06 339.11 347.33
  A 1.07 1.07 0.0 0 0 340.43 346.93
  L 350.74 331.09
  Q 350.88 330.87 351.11 331.00
  L 351.70 331.35
  Q 351.83 331.42 351.75 331.54
  Q 347.06 338.79 340.44 348.89
  Q 339.02 351.07 338.20 352.90
  C 335.94 358.00 336.24 366.05 343.51 366.23
  Q 350.65 366.40 354.75 366.36
  Q 359.51 366.31 361.26 366.61
  C 364.31 367.11 366.46 366.86 369.87 367.87
  Q 374.17 369.15 379.58 370.36
  Q 383.21 371.18 386.61 373.96
  C 388.02 375.13 388.49 377.03 389.97 378.29
  Q 391.51 379.61 390.88 377.68
  Q 389.83 374.49 388.78 373.66
  Q 384.24 370.08 389.55 372.10
  Q 390.10 372.31 392.19 372.08
  C 394.86 371.79 398.29 373.19 401.90 374.18
  Q 402.40 374.31 402.77 373.97
  Q 403.34 373.45 402.94 372.67
  Q 402.76 372.30 402.29 371.99
  Q 401.61 371.53 402.41 371.33
  L 408.03 369.91
  A 0.55 0.55 0.0 0 0 408.25 368.96
  Q 407.71 368.50 407.00 368.51
  Q 402.63 368.58 398.46 367.53
  Q 394.36 366.49 390.39 366.12
  C 384.70 365.60 379.46 365.66 375.00 364.15
  Q 366.41 361.24 359.92 357.13
  Q 359.49 356.86 358.99 356.91
  L 354.33 357.43
  Q 354.26 357.43 354.22 357.39
  Q 354.05 357.22 354.04 357.21
  A 0.10 0.09 57.4 0 1 354.07 357.06
  C 356.29 356.09 358.48 355.66 360.42 354.28
  C 361.98 353.15 365.06 351.99 365.22 349.66
  Q 365.39 347.05 366.44 349.31
  Q 366.70 349.88 366.32 351.02
  C 365.83 352.48 362.56 354.71 361.31 355.62
  A 0.49 0.48 -48.1 0 0 361.35 356.43
  C 367.29 359.98 374.40 363.26 381.33 363.78
  Q 386.81 364.18 386.90 364.19
  C 390.95 364.66 393.85 364.53 397.26 365.77
  Q 401.55 367.32 405.38 367.10
  C 408.03 366.94 410.57 368.61 413.83 368.62
  A 0.67 0.67 0.0 0 1 414.41 369.63
  L 413.06 371.98
  Q 411.61 374.49 414.25 373.30
  Q 416.34 372.36 418.99 369.17
  A 2.00 1.99 -55.0 0 1 421.52 368.72
  L 428.99 373.03
  A 0.90 0.90 0.0 0 0 430.31 372.03
  Q 429.56 369.07 426.25 368.99
  A 0.19 0.15 12.1 0 1 426.07 368.77
  Q 426.13 368.64 426.22 368.66
  C 427.59 368.99 428.67 368.29 429.68 368.18
  C 432.74 367.88 435.87 368.72 439.10 367.34
  Q 441.26 366.41 438.93 366.09
  C 433.03 365.28 427.02 366.08 420.92 365.71
  C 417.00 365.47 412.51 365.22 410.01 362.01
  Q 409.68 361.58 409.15 361.71
  L 399.33 364.20
  A 0.73 0.71 -35.6 0 1 398.79 364.12
  L 398.28 363.83
  A 0.32 0.32 0.0 0 1 398.35 363.24
  Q 406.35 360.98 406.84 360.81
  Q 414.52 358.13 416.26 356.50
  Q 418.86 354.07 422.10 352.00
  C 423.84 350.89 424.86 349.51 426.70 347.81
  Q 430.75 344.07 425.31 345.01
  Q 419.82 345.95 412.42 346.41
  C 404.66 346.90 395.70 345.59 388.90 345.18
  C 387.19 345.08 385.88 344.42 384.31 344.05
  A 0.46 0.46 0.0 0 1 384.02 343.37
  L 384.26 342.97
  A 0.52 0.51 22.8 0 1 384.86 342.73
  C 386.80 343.34 388.48 343.90 390.37 343.96
  Q 397.36 344.22 401.05 344.72
  Q 407.33 345.58 411.63 345.27
  Q 417.69 344.83 423.36 343.99
  C 430.81 342.89 435.85 341.99 441.06 337.91
  A 1.63 1.62 58.6 0 0 441.53 335.96
  C 440.17 332.97 439.55 330.54 437.34 328.31
  Q 433.20 324.14 429.32 320.78
  C 426.77 318.57 424.08 318.01 420.99 316.44
  C 418.45 315.14 415.61 315.35 413.34 312.61
  C 411.35 310.20 411.89 306.43 410.15 304.21
  C 407.17 300.43 400.65 301.17 397.16 303.16
  Q 396.90 303.30 396.48 303.85
  L 393.78 307.33
  A 1.38 1.30 34.7 0 1 392.01 307.60
  Q 389.64 306.14 387.42 304.48
  C 384.96 302.65 380.82 305.02 377.57 306.28
  C 373.31 307.94 371.42 311.11 371.20 315.31
  A 0.26 0.26 0.0 0 1 370.71 315.41
  L 370.09 314.31
  A 0.31 0.07 57.5 0 1 370.01 314.09
  C 370.71 307.04 376.30 305.51 381.75 303.42
  Q 384.51 302.36 386.36 302.94
  Q 388.60 303.64 391.30 305.78
  A 1.49 1.48 34.2 0 0 393.51 305.36
  L 394.56 303.54
  Q 394.80 303.13 395.20 302.87
  C 399.39 300.12 406.64 298.57 410.49 302.60
  C 413.55 305.80 412.15 312.35 416.80 313.81
  Q 424.51 316.25 427.62 318.07
  Q 431.09 320.11 437.51 326.41
  C 440.19 329.04 442.05 332.87 443.16 335.98
  A 2.53 2.52 62.3 0 1 442.26 338.88
  Q 438.92 341.29 434.84 343.02
  C 433.21 343.71 431.14 343.72 429.81 345.64
  Q 428.15 348.03 427.97 348.21
  Q 420.14 355.96 411.98 360.80
  A 0.75 0.74 46.5 0 0 411.95 362.06
  Q 414.88 364.03 417.96 364.19
  Q 424.76 364.54 435.76 364.28
  Q 438.27 364.23 440.44 364.69
  A 1.45 1.45 0.0 0 1 441.12 367.18
  Q 440.16 368.07 438.83 368.85
  C 437.18 369.82 433.80 369.47 431.73 369.38
  Q 431.02 369.35 431.31 370.00
  Q 432.90 373.52 430.17 374.58
  A 1.41 1.40 49.2 0 1 428.97 374.49
  L 421.40 370.12
  A 1.67 1.66 -57.2 0 0 419.21 370.60
  C 417.54 372.98 415.20 375.51 412.17 374.81
  A 1.47 1.45 -75.5 0 1 411.10 372.97
  L 411.65 371.12
  Q 412.44 368.44 410.40 370.33
  L 409.71 370.97
  Q 409.31 371.34 408.77 371.40
  L 404.99 371.82
  Q 404.32 371.89 404.32 372.57
  Q 404.32 373.42 404.43 373.66
  A 1.54 1.44 -6.7 0 1 402.73 375.67
  C 398.77 375.03 395.45 373.28 391.31 373.30
  A 0.47 0.47 0.0 0 0 390.97 374.10
  Q 392.74 375.93 392.25 379.03
  A 0.80 0.78 -2.9 0 1 391.66 379.67
  Q 389.18 380.29 388.34 378.74
  Q 385.21 372.93 379.03 371.71
  Q 373.48 370.61 370.09 369.42
  Q 366.34 368.10 363.90 368.17
  C 361.31 368.24 358.48 367.56 355.35 367.59
  Q 348.92 367.66 345.40 367.58
  Q 340.99 367.48 339.24 366.15
  C 333.97 362.15 335.19 354.44 338.81 349.60
  A 0.78 0.78 0.0 0 0 338.50 348.42
  Q 332.22 345.69 323.09 340.93
  C 318.50 338.54 314.68 333.03 311.64 330.08
  C 308.19 326.74 306.14 323.07 302.69 318.59
  Q 301.60 317.18 299.00 312.05
  C 296.85 307.80 296.08 303.79 294.17 299.56
  Q 293.65 298.39 292.40 293.96
  Q 290.86 288.45 288.09 283.11
  C 286.76 280.56 284.61 278.78 282.63 276.58
  Q 276.86 270.13 267.60 256.14
  Q 264.89 252.05 264.06 250.36
  Q 260.54 243.17 258.65 239.06
  C 255.58 232.36 254.30 222.37 251.76 215.36
  C 249.65 209.50 247.86 202.14 245.36 195.60
  C 243.33 190.28 242.05 185.24 237.95 182.34
  Q 233.21 179.01 231.89 178.35
  C 226.75 175.79 219.31 175.75 213.21 175.93
  C 209.94 176.03 208.49 174.89 205.11 173.26
  Q 204.64 173.04 204.55 172.52
  Q 203.91 168.61 207.86 168.12
  C 211.11 167.72 213.12 169.41 216.72 171.53
  A 0.42 0.42 0.0 0 0 217.34 171.06
  L 217.23 170.61
  A 1.22 1.19 12.6 0 0 216.82 169.98
  Q 214.47 168.13 210.19 164.53
  C 208.03 162.73 207.05 160.63 205.58 158.48
  Q 205.27 158.03 205.29 157.48
  C 205.33 155.89 204.24 155.62 205.38 153.86
  A 0.76 0.76 0.0 0 1 206.64 153.83
  C 207.81 155.47 209.78 156.18 211.00 157.17
  Q 216.61 161.71 221.60 166.81
  Q 221.92 167.15 222.37 167.03
  L 222.83 166.92
  Q 223.08 166.85 222.93 166.65
  Q 220.95 163.95 218.08 159.40
  C 216.48 156.87 216.01 154.66 216.11 151.86
  Q 216.15 150.62 217.40 150.57
  Q 219.14 150.49 220.16 152.15
  Q 221.79 154.81 222.97 157.19
  C 224.73 160.75 228.16 164.20 230.74 167.17
  Q 232.10 168.73 233.92 169.70
  C 239.34 172.62 242.71 173.72 245.69 177.22
  Q 252.52 185.24 254.62 190.71
  Q 264.68 216.87 269.00 225.19
  Q 275.06 236.85 279.27 241.33
  C 283.13 245.45 285.33 248.85 289.51 251.32
  Q 294.93 254.51 296.26 254.81
  Q 304.89 256.76 314.10 253.85
  C 317.68 252.72 319.64 251.94 321.40 248.89
  C 323.93 244.49 326.26 241.27 326.90 236.02
  C 327.89 227.99 321.09 220.72 317.58 214.68
  Q 316.57 212.93 313.91 210.52
  Q 306.41 203.75 303.18 201.38
  A 1.51 1.50 -78.1 0 1 302.59 200.47
  C 301.89 197.03 303.43 194.47 305.24 190.82
  Q 306.38 188.55 307.12 183.85
  C 307.89 179.03 304.38 174.85 305.71 169.95
  Q 305.85 169.41 306.41 169.51
  Q 312.76 170.73 312.11 177.59
  Q 312.10 177.68 312.20 177.70
  L 312.49 177.74
  Q 312.95 177.81 313.05 177.35
  Z"
/>
<path fill="#484846" d="
  M 344.02 253.73
  Q 367.66 267.61 377.86 292.78
  C 379.05 295.73 379.63 299.07 380.24 302.23
  A 0.18 0.18 0.0 0 1 379.97 302.42
  L 379.51 302.16
  Q 379.20 301.98 379.11 301.64
  C 378.28 298.47 377.74 294.92 376.35 292.03
  Q 370.87 280.62 366.32 274.44
  Q 361.54 267.93 351.03 259.38
  C 348.61 257.42 345.98 256.40 343.61 254.25
  Q 343.29 253.96 342.94 254.22
  Q 342.77 254.35 342.59 254.38
  A 0.56 0.55 -10.1 0 1 341.97 253.95
  Q 341.63 252.38 342.01 250.51
  C 343.79 241.86 346.09 235.48 343.30 228.40
  Q 342.23 225.69 338.44 221.83
  Q 327.46 210.63 325.58 209.15
  Q 322.23 206.50 314.73 202.28
  Q 313.75 201.72 311.80 200.10
  Q 310.62 199.12 310.42 198.05
  C 309.63 193.88 317.49 184.56 320.18 181.41
  Q 321.33 180.07 321.86 176.78
  Q 321.94 176.33 322.40 176.36
  Q 322.51 176.37 322.66 176.41
  A 0.66 0.65 -86.8 0 1 323.14 176.96
  Q 323.34 178.70 322.34 180.11
  C 318.53 185.50 314.52 190.35 312.20 195.75
  C 310.83 198.94 313.94 200.61 316.05 201.73
  C 321.00 204.36 325.51 207.07 329.49 211.38
  C 332.80 214.98 342.68 222.64 345.12 230.16
  Q 346.20 233.50 345.32 238.82
  Q 345.08 240.27 343.15 251.86
  A 1.84 1.82 -70.3 0 0 344.02 253.73
  Z"
/>
<path fill="#484846" d="
  M 407.96 308.43
  Q 403.68 306.64 400.03 309.09
  Q 399.40 309.51 396.68 311.90
  Q 396.61 311.96 396.53 311.90
  L 396.26 311.67
  A 0.49 0.48 -46.9 0 1 396.24 310.96
  C 399.75 307.50 402.37 305.04 407.87 307.06
  Q 408.12 307.15 408.19 307.41
  L 408.36 308.09
  Q 408.50 308.66 407.96 308.43
  Z"
/>
<path fill="#484846" d="
  M 388.72 313.78
  C 386.30 307.59 380.24 308.97 376.94 313.41
  A 0.41 0.41 0.0 0 1 376.22 313.27
  L 376.10 312.78
  A 1.03 1.03 0.0 0 1 376.48 311.70
  C 380.39 308.79 384.24 306.23 388.37 310.66
  Q 389.56 311.94 390.01 313.33
  Q 390.14 313.72 389.74 313.83
  L 389.12 313.98
  Q 388.83 314.06 388.72 313.78
  Z"
/>
</svg>
