<?xml version="1.0" encoding="UTF-8" standalone="no"?>
<svg xmlns="http://www.w3.org/2000/svg" version="1.2" baseProfile="tiny" viewBox="0.00 0.00 720.00 480.00">
<path fill="#cfc3b4" d="
  M 720.00 0.00
  L 720.00 480.00
  L 0.00 480.00
  L 0.00 0.00
  L 720.00 0.00
  Z"
/>
<path fill="#161515" d="
  M 339.55 363.49
  Q 326.87 365.01 319.20 364.01
  Q 306.83 362.40 294.01 352.90
  Q 292.31 351.64 290.47 349.11
  C 289.31 347.53 287.44 345.39 286.47 343.42
  Q 283.94 338.21 282.31 332.30
  C 279.96 323.74 281.36 314.02 284.24 305.72
  C 285.31 302.62 287.64 298.74 290.37 296.06
  Q 295.62 290.88 300.44 287.88
  C 304.86 285.13 308.01 284.85 313.51 283.80
  Q 318.79 282.80 322.52 286.49
  Q 326.22 290.16 325.36 295.66
  A 0.70 0.69 -88.7 0 0 326.12 296.46
  L 337.57 295.18
  A 3.69 3.62 -65.1 0 0 339.29 294.53
  C 342.24 292.45 348.74 287.41 353.18 286.72
  C 357.08 286.11 363.17 287.18 364.94 291.36
  Q 367.45 297.28 365.63 304.30
  Q 365.50 304.78 365.81 305.17
  Q 367.07 306.71 367.54 307.01
  Q 383.54 317.25 401.31 325.41
  Q 401.76 325.62 402.15 325.30
  C 405.93 322.26 408.62 320.64 413.45 320.75
  C 417.01 320.83 418.88 323.22 420.47 326.06
  A 0.94 0.94 0.0 0 0 422.11 326.06
  C 424.75 321.37 430.24 320.24 435.50 320.65
  C 438.23 320.86 441.20 323.58 443.68 325.32
  Q 444.66 326.01 445.91 329.51
  Q 446.09 330.00 446.60 330.12
  C 450.92 331.10 456.84 332.60 461.17 335.79
  C 465.56 339.02 474.40 346.03 474.65 351.70
  Q 474.91 357.46 468.86 359.33
  Q 465.82 360.26 463.05 359.95
  Q 461.90 359.82 460.95 360.48
  Q 451.62 367.00 441.31 369.72
  Q 437.07 370.83 429.84 371.25
  C 421.71 371.72 412.15 372.57 403.02 371.88
  Q 402.25 371.82 397.68 372.70
  Q 397.09 372.82 397.15 373.42
  L 397.29 374.66
  A 0.82 0.82 0.0 0 1 396.53 375.57
  C 392.07 375.87 388.87 374.17 385.40 373.07
  C 379.01 371.04 371.44 370.84 365.09 371.63
  Q 359.79 372.29 356.52 371.91
  C 351.46 371.33 341.52 369.75 340.18 363.93
  Q 340.06 363.43 339.55 363.49
  Z"
/>
<path fill="#cfc3b4" d="
  M 388.80 358.38
  C 384.31 360.33 380.15 362.02 374.81 362.20
  C 371.05 362.33 366.72 362.43 362.91 363.47
  Q 362.62 363.55 362.64 363.86
  Q 362.65 363.99 362.73 364.10
  Q 362.81 364.21 362.95 364.21
  Q 373.16 363.98 382.93 362.11
  Q 383.45 362.01 383.86 362.32
  L 386.95 364.64
  Q 387.36 364.95 386.90 365.27
  Q 386.06 365.86 385.80 366.07
  Q 383.96 367.60 386.23 366.88
  Q 388.94 366.03 393.23 366.59
  A 0.67 0.66 -79.6 0 1 393.79 367.41
  Q 393.70 367.76 393.24 368.20
  A 0.53 0.53 0.0 0 0 393.31 369.03
  Q 393.96 369.47 395.06 369.21
  C 397.48 368.63 402.45 367.49 404.44 368.99
  A 0.95 0.94 -29.6 0 1 403.97 370.68
  L 397.00 371.46
  A 1.18 1.18 0.0 0 0 395.99 372.96
  Q 396.14 373.47 395.94 373.96
  Q 395.73 374.45 395.21 374.51
  C 392.50 374.80 389.32 373.36 387.06 372.44
  Q 384.29 371.32 381.97 371.00
  Q 372.48 369.71 370.29 369.95
  Q 368.29 370.18 362.97 370.62
  C 357.48 371.09 332.97 369.88 344.36 357.61
  Q 347.23 354.52 352.86 351.58
  Q 357.70 349.05 371.37 345.21
  A 0.40 0.39 78.9 0 0 371.65 344.78
  L 371.61 344.39
  A 0.45 0.45 0.0 0 0 371.02 344.01
  Q 359.40 347.61 353.19 350.20
  C 348.08 352.33 341.91 357.16 340.13 362.09
  Q 339.92 362.66 339.36 362.43
  Q 338.96 362.27 338.50 362.39
  Q 334.84 363.32 329.75 363.25
  C 322.67 363.16 317.53 363.33 311.62 361.23
  Q 302.50 357.99 294.83 352.15
  Q 292.47 350.36 290.89 347.73
  C 289.43 345.32 287.71 343.66 286.52 340.93
  Q 282.53 331.82 282.37 326.02
  Q 282.02 313.74 286.26 303.92
  C 286.82 302.62 287.83 300.47 289.07 299.11
  Q 295.42 292.16 303.34 287.31
  Q 305.18 286.18 310.78 285.39
  C 316.02 284.65 319.08 283.93 322.30 287.95
  C 326.19 292.80 323.79 300.46 320.32 304.62
  Q 319.98 305.03 320.44 305.30
  L 320.72 305.46
  Q 320.84 305.52 320.93 305.43
  Q 323.85 302.41 324.87 298.32
  A 0.80 0.79 -86.8 0 1 325.54 297.72
  Q 329.79 297.14 331.05 296.97
  C 343.57 295.25 355.16 298.68 364.96 306.37
  C 369.59 310.01 373.43 311.84 379.63 315.44
  C 386.42 319.39 393.36 322.72 400.32 326.08
  A 0.75 0.75 0.0 0 1 400.73 326.89
  C 400.49 328.28 399.84 328.70 398.46 328.89
  Q 392.85 329.65 388.60 333.52
  A 0.43 0.43 0.0 0 0 388.67 334.21
  L 388.94 334.36
  A 0.43 0.42 -50.4 0 0 389.43 334.31
  C 391.96 332.03 395.29 330.32 398.76 330.27
  C 399.62 330.26 400.10 330.13 400.62 329.39
  C 404.08 324.47 407.89 321.42 414.29 322.21
  C 416.93 322.53 418.19 324.73 419.45 326.96
  A 2.01 2.01 0.0 0 0 422.91 327.03
  C 424.18 324.98 425.80 323.35 428.38 322.56
  Q 436.78 319.99 442.71 326.23
  Q 444.68 328.31 445.12 330.38
  A 1.14 1.13 -1.1 0 0 446.04 331.26
  C 451.96 332.25 457.48 334.12 462.57 338.27
  Q 467.72 342.47 469.13 344.10
  Q 473.20 348.80 473.43 350.72
  Q 473.73 353.30 472.51 355.52
  C 471.06 358.16 466.65 358.72 463.92 359.12
  A 0.47 0.47 0.0 0 1 463.46 358.39
  Q 465.32 355.67 463.40 353.15
  Q 462.40 351.83 459.35 351.27
  Q 429.92 345.81 400.92 357.58
  Q 400.64 357.70 400.48 357.97
  L 400.09 358.65
  Q 399.68 359.35 400.43 359.04
  Q 428.03 347.54 458.46 352.08
  C 460.50 352.38 464.41 354.06 462.56 356.83
  Q 460.56 359.83 458.04 361.32
  Q 446.36 368.23 436.05 369.41
  Q 420.11 371.23 406.84 371.15
  A 0.90 0.90 0.0 0 1 406.01 369.92
  C 406.40 368.96 406.07 368.01 404.95 367.63
  C 401.63 366.49 398.10 367.71 395.12 367.59
  Q 394.51 367.57 394.44 366.96
  L 394.34 366.04
  Q 394.27 365.41 393.63 365.39
  Q 388.51 365.20 385.36 361.78
  Q 384.44 360.78 385.77 360.53
  Q 387.56 360.19 389.13 359.27
  Q 389.29 359.18 389.27 359.00
  L 389.23 358.62
  A 0.31 0.30 -15.6 0 0 388.80 358.38
  Z"
/>
<path fill="#cfc3b4" d="
  M 363.89 303.95
  Q 353.38 296.77 341.04 295.50
  Q 339.81 295.37 340.82 294.68
  C 343.25 293.01 349.73 288.01 353.98 287.72
  Q 358.85 287.40 362.35 289.81
  C 365.82 292.19 365.31 300.11 364.52 303.70
  A 0.41 0.41 0.0 0 1 363.89 303.95
  Z"
/>
<path fill="#161515" d="
  M 308.37 320.80
  C 312.27 318.35 314.84 314.49 317.81 310.57
  Q 318.94 309.07 320.49 309.36
  A 1.38 1.38 0.0 0 1 321.61 310.90
  Q 321.12 314.56 319.35 316.86
  Q 312.21 326.14 306.62 330.63
  Q 301.51 334.74 294.38 336.07
  C 291.92 336.52 287.07 335.89 288.25 332.20
  Q 288.49 331.43 288.71 332.20
  Q 289.37 334.51 290.97 334.82
  Q 294.30 335.46 299.06 333.58
  C 306.67 330.59 309.67 326.16 316.75 318.50
  Q 319.39 315.64 320.64 311.52
  A 0.76 0.76 0.0 0 0 319.67 310.58
  Q 318.79 310.87 318.10 311.87
  Q 314.27 317.46 312.18 319.44
  Q 310.55 320.98 306.19 323.25
  Q 305.76 323.47 305.34 323.23
  L 305.08 323.08
  Q 304.57 322.79 304.93 322.32
  C 309.21 316.75 312.77 309.50 312.02 302.32
  Q 311.89 301.03 310.77 300.39
  L 310.46 300.21
  Q 309.11 299.43 308.98 300.98
  C 308.56 306.08 308.60 310.19 306.32 314.97
  Q 305.88 315.88 303.61 321.35
  A 0.57 0.57 0.0 0 1 302.80 321.62
  L 302.15 321.25
  A 0.36 0.36 0.0 0 1 302.11 320.65
  Q 303.02 319.97 303.16 319.64
  C 305.20 314.78 306.78 311.92 307.24 307.91
  Q 307.80 303.02 307.86 301.43
  C 307.94 298.95 310.28 297.46 311.91 299.89
  C 314.95 304.43 312.43 311.78 310.06 316.09
  Q 308.06 319.71 307.92 320.50
  Q 307.80 321.15 308.37 320.80
  Z"
/>
<path fill="#161515" d="
  M 295.13 304.53
  Q 299.11 312.38 297.99 321.26
  Q 297.94 321.64 297.55 321.85
  L 297.08 322.10
  Q 296.50 322.40 296.62 321.75
  Q 297.51 316.79 296.53 311.51
  Q 296.29 310.22 294.51 306.08
  C 293.80 304.42 293.52 302.85 295.01 301.70
  A 2.52 2.52 0.0 0 1 298.62 302.24
  C 301.24 305.95 301.98 310.15 301.41 315.08
  Q 300.79 320.35 300.28 322.80
  Q 299.94 324.43 299.07 323.03
  Q 298.67 322.38 299.42 321.41
  A 1.41 1.35 -27.7 0 0 299.71 320.54
  C 299.66 317.15 301.02 313.45 300.42 310.05
  Q 299.67 305.82 298.11 303.31
  Q 297.62 302.51 296.35 302.43
  Q 296.32 302.43 295.77 302.68
  Q 294.49 303.27 295.13 304.53
  Z"
/>
<path fill="#161515" d="
  M 411.45 327.01
  C 412.85 326.93 417.28 327.19 418.09 328.94
  A 0.47 0.47 0.0 0 1 417.44 329.55
  Q 414.50 327.96 411.51 328.12
  Q 408.53 328.29 405.78 330.18
  A 0.47 0.47 0.0 0 1 405.07 329.65
  C 405.68 327.82 410.06 327.08 411.45 327.01
  Z"
/>
<path fill="#161515" d="
  M 437.37 328.91
  Q 433.71 327.59 429.21 328.95
  A 0.43 0.43 0.0 0 1 428.66 328.58
  L 428.62 328.24
  Q 428.58 327.87 428.93 327.75
  C 431.97 326.75 436.83 326.51 439.56 328.70
  Q 439.89 328.97 439.84 329.39
  Q 439.81 329.65 439.70 329.78
  A 0.51 0.51 0.0 0 1 439.06 329.88
  L 437.37 328.91
  Z"
/>
</svg>
