<?xml version="1.0" encoding="UTF-8" standalone="no"?>
<svg xmlns="http://www.w3.org/2000/svg" version="1.2" baseProfile="tiny" viewBox="0.00 0.00 720.00 480.00">
<path fill="#cfc3b4" d="
  M 720.00 0.00
  L 720.00 480.00
  L 0.00 480.00
  L 0.00 0.00
  L 720.00 0.00
  Z"
/>
<path fill="#040405" d="
  M 318.43 359.92
  Q 317.35 360.59 318.62 360.67
  Q 321.32 360.83 325.06 360.86
  C 329.63 360.90 333.37 362.36 337.58 363.61
  Q 339.28 364.11 339.24 362.34
  C 339.12 357.55 343.87 351.48 347.72 348.70
  Q 353.25 344.72 361.07 340.16
  Q 361.60 339.85 361.66 340.46
  L 361.69 340.77
  Q 361.71 340.89 361.61 340.95
  Q 352.63 346.01 347.38 350.37
  Q 342.08 354.80 340.36 360.88
  C 338.79 366.42 348.36 367.78 351.62 368.41
  C 357.43 369.54 363.93 368.56 370.06 369.46
  Q 372.72 369.84 376.16 370.48
  C 379.90 371.16 382.67 372.27 387.16 373.80
  C 390.31 374.87 392.49 374.87 395.08 372.93
  A 0.60 0.60 0.0 0 0 394.93 371.89
  L 390.61 370.28
  Q 390.36 370.18 390.49 369.94
  L 390.67 369.63
  Q 390.73 369.54 390.84 369.55
  Q 392.74 369.76 394.64 370.60
  C 397.84 372.01 400.45 371.82 403.07 370.16
  Q 403.51 369.87 403.27 369.41
  Q 402.98 368.84 402.55 368.43
  Q 402.24 368.12 401.40 368.17
  C 397.48 368.41 394.22 369.07 390.32 367.12
  Q 377.42 360.65 373.45 358.32
  A 1.98 1.97 57.2 0 0 372.27 358.06
  L 358.51 359.49
  Q 356.66 359.69 358.34 358.91
  C 360.02 358.13 361.80 357.93 363.92 357.90
  Q 369.59 357.83 373.72 356.16
  C 376.78 354.91 379.65 354.62 382.20 352.94
  Q 382.55 352.70 382.78 353.06
  Q 382.91 353.28 382.72 353.50
  C 380.88 355.57 376.97 355.99 374.94 356.91
  A 0.62 0.62 0.0 0 0 374.92 358.03
  Q 381.05 361.09 389.81 365.69
  Q 391.46 366.55 393.55 367.00
  C 396.10 367.55 399.70 366.97 401.54 367.09
  C 404.96 367.32 408.83 362.64 412.62 366.39
  Q 413.03 366.80 413.61 366.74
  L 415.52 366.54
  A 0.20 0.19 11.9 0 1 415.71 366.83
  L 415.35 367.45
  Q 415.25 367.62 415.05 367.64
  L 413.06 367.85
  Q 412.45 367.91 412.55 368.52
  C 412.97 371.17 416.59 371.09 418.94 370.83
  A 0.98 0.88 -11.4 0 0 419.80 369.67
  L 419.30 368.12
  Q 419.01 367.21 419.77 367.59
  Q 420.33 367.88 420.42 368.14
  Q 421.58 371.35 425.52 371.21
  Q 427.29 371.14 427.98 369.47
  A 0.81 0.81 0.0 0 0 427.83 368.61
  Q 424.86 365.45 420.02 366.09
  Q 418.35 366.31 417.37 365.92
  A 0.24 0.24 0.0 0 1 417.41 365.47
  Q 424.07 364.08 428.32 361.06
  Q 429.31 360.36 434.74 356.17
  C 439.16 352.75 442.51 348.44 444.81 343.55
  C 445.83 341.38 445.79 339.35 446.24 336.91
  Q 446.33 336.41 445.96 336.05
  C 443.14 333.33 436.21 333.90 432.29 334.37
  Q 425.56 335.17 421.82 335.84
  Q 413.38 337.35 411.42 337.53
  Q 407.82 337.86 394.92 338.13
  Q 386.30 338.31 380.26 334.66
  A 0.28 0.28 0.0 0 1 380.14 334.32
  L 380.26 334.00
  A 0.37 0.36 -67.4 0 1 380.75 333.79
  C 384.49 335.52 386.45 336.87 391.25 336.99
  C 401.64 337.25 408.27 337.30 417.23 335.65
  Q 427.81 333.70 430.16 333.30
  C 433.82 332.68 445.61 331.90 447.11 336.03
  C 447.47 337.01 446.73 338.98 446.77 339.98
  Q 446.83 341.88 448.33 340.73
  L 453.39 336.87
  A 2.05 2.05 0.0 0 0 454.01 334.40
  C 451.44 328.75 448.22 325.57 443.23 322.15
  Q 440.60 320.35 434.93 318.63
  Q 423.91 315.30 422.27 314.84
  A 0.55 0.55 0.0 0 1 421.91 314.09
  C 424.11 308.85 420.64 305.33 415.42 305.36
  C 411.15 305.39 408.15 305.44 405.67 309.63
  Q 405.42 310.05 405.62 310.48
  L 405.92 311.17
  Q 406.21 311.85 405.53 311.73
  Q 405.29 311.69 405.14 311.60
  Q 404.86 311.43 404.77 311.30
  Q 401.54 306.76 397.05 306.36
  Q 388.66 305.62 385.62 313.28
  A 0.28 0.28 0.0 0 1 385.27 313.44
  L 384.95 313.32
  Q 384.82 313.27 384.86 313.13
  C 385.30 311.66 385.39 310.19 386.40 309.14
  Q 390.26 305.08 396.64 305.19
  Q 400.57 305.26 403.98 308.69
  A 0.73 0.73 0.0 0 0 405.10 308.57
  C 407.66 304.72 411.09 303.94 415.94 304.41
  C 421.28 304.93 424.03 306.98 423.47 312.94
  Q 423.37 313.96 424.35 314.30
  Q 430.55 316.40 434.28 317.41
  Q 440.49 319.10 443.92 321.40
  C 448.85 324.71 453.16 328.57 454.77 333.82
  C 455.55 336.37 454.31 337.57 452.38 339.11
  Q 448.83 341.94 447.28 342.01
  A 0.91 0.91 0.0 0 0 446.53 342.49
  C 443.54 348.20 440.63 352.81 435.44 357.32
  C 433.84 358.72 431.51 359.88 429.93 361.21
  Q 428.12 362.73 430.45 362.35
  C 432.68 361.98 438.41 361.64 439.20 364.56
  A 2.12 2.12 0.0 0 1 438.27 366.90
  Q 434.22 369.44 430.07 369.07
  Q 429.32 369.00 429.00 369.68
  C 427.36 373.23 424.10 372.73 421.37 371.36
  Q 420.92 371.13 420.46 371.34
  Q 417.06 372.91 413.03 371.06
  Q 412.55 370.84 412.23 370.42
  L 411.40 369.33
  Q 411.10 368.94 410.67 369.16
  Q 407.68 370.70 406.34 370.73
  C 403.42 370.81 401.03 372.46 397.73 372.77
  A 1.62 1.60 -68.0 0 0 396.83 373.16
  C 390.37 378.70 384.73 373.21 377.80 371.91
  Q 369.04 370.25 367.75 370.22
  C 361.19 370.06 356.33 370.43 351.06 369.33
  C 347.34 368.56 342.93 367.80 339.98 365.04
  A 1.43 1.43 0.0 0 0 337.76 365.38
  C 336.05 368.39 333.74 367.17 331.00 367.44
  A 1.33 1.32 -71.1 0 0 330.17 367.85
  C 326.06 372.24 320.54 368.08 316.61 368.85
  Q 315.94 368.98 316.35 369.52
  L 318.20 371.94
  A 1.13 1.13 0.0 0 1 317.41 373.75
  C 316.28 373.86 315.16 373.54 314.16 372.84
  C 310.59 370.33 307.55 368.23 303.48 368.47
  C 296.20 368.91 291.94 369.67 286.20 366.92
  A 2.16 2.16 0.0 0 1 285.41 363.66
  L 286.83 361.80
  Q 287.15 361.38 286.94 360.91
  C 283.53 353.38 288.46 342.81 293.71 336.75
  Q 301.40 327.88 310.56 321.78
  Q 313.71 319.68 319.91 317.39
  Q 324.23 315.80 339.65 311.61
  C 344.28 310.35 348.44 309.90 354.18 308.96
  Q 369.42 306.44 383.75 308.47
  Q 384.76 308.62 385.22 309.42
  Q 385.50 309.91 384.95 309.81
  Q 373.42 307.89 362.51 309.07
  C 355.77 309.80 346.47 310.89 338.65 313.00
  Q 321.41 317.64 318.20 318.95
  C 309.05 322.68 300.53 330.51 294.04 337.79
  C 291.50 340.63 289.51 345.05 288.17 348.41
  Q 285.87 354.22 287.47 360.22
  A 0.90 0.90 0.0 0 0 288.99 360.61
  Q 292.32 357.12 294.92 353.42
  C 299.48 346.95 304.31 342.53 310.97 339.33
  C 314.84 337.47 318.84 337.71 322.55 337.06
  Q 322.87 337.00 322.90 337.32
  L 322.94 337.69
  Q 322.96 337.86 322.79 337.90
  Q 319.40 338.64 316.79 338.88
  C 311.10 339.41 305.42 343.51 301.34 347.28
  C 298.18 350.21 294.59 355.62 292.38 358.45
  C 290.81 360.45 289.32 361.57 286.87 363.59
  Q 285.87 364.41 286.43 365.57
  Q 286.77 366.27 288.08 366.75
  C 296.11 369.71 303.62 364.75 311.21 369.71
  Q 315.19 372.31 316.25 372.61
  A 0.41 0.40 84.1 0 0 316.72 372.03
  L 316.25 371.12
  A 2.01 1.95 0.0 0 0 315.35 370.25
  Q 313.73 369.47 313.96 368.44
  Q 314.08 367.92 314.60 367.84
  C 318.93 367.16 322.12 368.34 325.25 368.80
  Q 327.59 369.14 328.98 367.59
  Q 329.40 367.12 328.83 366.84
  Q 326.94 365.91 324.65 366.13
  A 0.51 0.51 0.0 0 1 324.09 365.67
  L 324.06 365.40
  Q 324.02 365.06 324.36 365.03
  Q 328.70 364.58 332.86 366.41
  A 2.60 2.57 37.9 0 0 335.48 366.10
  L 335.96 365.74
  Q 337.05 364.91 335.78 364.38
  C 328.70 361.37 323.99 361.85 314.83 361.86
  Q 312.93 361.87 314.58 360.92
  C 317.99 358.96 323.05 356.08 326.32 353.06
  Q 331.91 347.90 337.43 342.69
  Q 339.71 340.54 340.50 337.73
  C 341.40 334.54 337.78 332.13 335.00 331.70
  Q 323.73 329.95 310.62 334.66
  C 305.40 336.53 301.56 339.67 297.27 343.41
  A 0.21 0.19 31.9 0 1 297.05 343.45
  L 296.74 343.34
  A 0.56 0.56 0.0 0 1 296.56 342.41
  C 300.99 338.31 306.92 334.21 313.44 332.62
  C 320.75 330.85 326.40 329.51 333.15 330.19
  C 338.16 330.69 343.82 333.97 340.70 339.96
  C 339.39 342.50 337.25 344.20 335.51 345.94
  Q 326.69 354.82 318.43 359.92
  Z"
/>
<path fill="#040405" d="
  M 416.75 311.60
  Q 413.80 310.42 409.94 312.17
  Q 409.77 312.25 409.66 312.10
  L 409.40 311.77
  Q 409.21 311.52 409.49 311.37
  C 411.65 310.25 416.69 309.04 418.52 311.01
  Q 419.96 312.54 417.79 311.99
  Q 417.61 311.94 416.75 311.60
  Z"
/>
<path fill="#040405" d="
  M 396.60 311.24
  C 398.14 311.45 399.67 312.10 401.22 312.53
  Q 401.90 312.72 401.83 313.37
  A 0.53 0.53 0.0 0 1 401.06 313.79
  Q 398.79 312.64 396.45 312.32
  Q 394.11 312.00 391.62 312.51
  A 0.53 0.53 0.0 0 1 390.99 311.90
  Q 391.10 311.25 391.80 311.25
  C 393.41 311.25 395.07 311.03 396.60 311.24
  Z"
/>
<path fill="#cfc3b4" d="
  M 424.04 365.22
  A 0.19 0.19 0.0 0 1 423.94 364.93
  C 425.45 362.81 434.30 363.23 435.89 363.48
  Q 440.41 364.16 436.65 366.78
  Q 435.34 367.70 430.68 368.02
  Q 428.98 368.14 427.51 366.91
  Q 426.32 365.92 424.04 365.22
  Z"
/>
<ellipse fill="#cfc3b4" cx="0.00" cy="0.00" transform="translate(407.67,367.82) rotate(-17.8)" rx="3.55" ry="1.40"/>
</svg>
