<svg id="Layer_1" data-name="Layer 1" xmlns="http://www.w3.org/2000/svg" viewBox="0 0 168.4 162.95"><defs><style>.cls-1{fill:#131313;}</style></defs><title>A</title><g id="A"><path class="cls-1" d="M421.2,187.67h0Z" transform="translate(-305.17 -122)"/><path class="cls-1" d="M422.52,244.37l1.18-.65C423.25,243.6,422.84,243.61,422.52,244.37Z" transform="translate(-305.17 -122)"/><path class="cls-1" d="M443.16,195.71a4.88,4.88,0,0,1-.12-.55c-.14-.68-.32-1.46-.54-2.3-.09.6-.22,1.42-.41,2.54.34.1.71.21,1.07.29Z" transform="translate(-305.17 -122)"/><path class="cls-1" d="M418.28,129.19c0-.17-.09-.34-.13-.51v.51Z" transform="translate(-305.17 -122)"/><path class="cls-1" d="M402.38,256.25c-.22-.85-.45-1.69-.72-2.65l-.66.22c.19,1,.44,2.09.75,3.47a1.8,1.8,0,0,0,.06.22C402.37,257.11,402.58,257,402.38,256.25Z" transform="translate(-305.17 -122)"/><path class="cls-1" d="M403.22,260.19a3.58,3.58,0,0,0-.08-.59,6.2,6.2,0,0,0-.84-.1,19,19,0,0,0,1.08,3.11c-.06-.81-.1-1.62-.15-2.43Z" transform="translate(-305.17 -122)"/><path class="cls-1" d="M406.2,229.4c-.56.16-1.22,0-1.38.8l.76.32C406,230.27,406.47,230.08,406.2,229.4Z" transform="translate(-305.17 -122)"/><path class="cls-1" d="M353.55,262.92h-.66C353,263.49,353.29,263.22,353.55,262.92Z" transform="translate(-305.17 -122)"/><path class="cls-1" d="M371.65,180.27a1.13,1.13,0,0,0-.18-.12l-.31.36a2.49,2.49,0,0,0,.24.19A4.77,4.77,0,0,0,371.65,180.27Z" transform="translate(-305.17 -122)"/><path class="cls-1" d="M376.76,263.33c-.57.16-.85.48-.63,1s.48,1.14.74,1.71a36.56,36.56,0,0,0,1.31-3.62,2.17,2.17,0,0,0-.12.36C378,263.07,377.23,263.21,376.76,263.33Z" transform="translate(-305.17 -122)"/><path class="cls-1" d="M356.19,244.76h0Z" transform="translate(-305.17 -122)"/><path class="cls-1" d="M388.13,241.13l0,.28q.06-.18.12-.39l-.16.11Z" transform="translate(-305.17 -122)"/><path class="cls-1" d="M325,267.93h0c.09.28.18.57.28.85h0c.1-.18.18-.36.27-.54h0s0,0,0-.05l-.49-.25Z" transform="translate(-305.17 -122)"/><path class="cls-1" d="M319.54,258.21l.1.12c.44.26.87.54,1.38.87-.86.11-1.06-.47-1.38-.87a.54.54,0,0,0-.15-.09v-.09a3.94,3.94,0,0,1-.79-1.49,3.33,3.33,0,0,0-.71-1.35c-1.13,2-2.14,4-3.09,5.93l0,0a1.88,1.88,0,0,0-.12.18c-1.44,2.95-2.71,5.79-4,8.44a2,2,0,0,1,.82,2.22c-.26-.66-.41-1-.58-1.38s-.23-.45-.32-.68a64.18,64.18,0,0,1-5.15,9.4c-1.38,2,.61,4.23,3,4.65,2.68.46,5.71-.06,8.87-.24a2.85,2.85,0,0,1,0-.29h.1v.28c.45,0,.92,0,1.38,0l-.34,0a2,2,0,0,0,.09-.22l.33.24h.1v-.45l.23.28c-.05.05-.11.12-.17.17a19.21,19.21,0,0,1,3.61.31,26.22,26.22,0,0,0,5.71,0c-.65-1-1.28-2-1.92-2.93l-1,.4c.43-.66.74-1.17,1.1-1.62a2.7,2.7,0,0,1,.68-.42l.91-.06c-.37.72-.63.08-.91.06,0,.14,0,.32-.09.41a1.11,1.11,0,0,0,.15,1.79c.42.39.84.81,1.32,1.26a1.89,1.89,0,0,0,.14,1.1,34,34,0,0,1,7.35,0l.72.11c-.4-.55-.39-.64-.26-1.4l.33,1.41a36,36,0,0,0,11.8.39,12.24,12.24,0,0,1-.83-.93c-.58-.75-1.08-1.59-1.6-2.39a.48.48,0,0,1,.06-.55c.93,1.26,1.87,2.52,2.79,3.79l.59-.1c3.25-.7,11.15,0,15.44-.19,0,0,.07,0,.09,0a11.11,11.11,0,0,0,1.43-.12c.54-.08,1.1-.15,1.62-.26,0-.17.08-.33.11-.5l.23.07c0,.13-.07.25-.12.39a4.43,4.43,0,0,0,2.2-1.08.12.12,0,0,1,.05-.05,1.15,1.15,0,0,1-.29-1h0a.28.28,0,0,1,0-.09,3.54,3.54,0,0,1-.18-.55,4,4,0,0,0-1-2.53,6.85,6.85,0,0,1-.81-1.75c-.24-.53,0-1.37-1-1.41-.06,0-.13-.14-.15-.22-.14-.54-.24-1.09-.43-1.62s-.48-.91-.63-1.43a9.23,9.23,0,0,1,2.17,3.56,16.34,16.34,0,0,0,1,2.55,1.46,1.46,0,0,0,.38.41,1.9,1.9,0,0,1,.76,1.76c-.05.42-.12.83-.18,1.23,0,0,0,0,0,.06v0c.5.09.52.45.56.79,1.07-.71,3.73-2.08,4.32-8.51a34.51,34.51,0,0,1,1.19-7.31,20.26,20.26,0,0,1-.89-1.89c-.4-1-.08-1.66.93-2.27a4.48,4.48,0,0,0,.76-.75c.12-.13.21-.41.33-.42a1.27,1.27,0,0,0,.76-.3c0-.18.09-.37.13-.57q.24-1,.54-2a1.94,1.94,0,0,0-.58-.78c-.38-.3-.3-1.15-.43-1.77h0v-.11l-.42-.88c.11,0,.22-.06.33-.09,0,.32.06.64.09,1a.9.9,0,0,0,0,.09v0l1.27.4a1.36,1.36,0,0,0-.09,1.58c1.52-4.3,3.87-6.6,4.9-8.15.09-.13.16-.26.24-.38a2.09,2.09,0,0,1-1.43-1c-.48-.79-.86-.8-1.49-.35-.45-1-.84-2-1.34-3-.31-.61-.8-1.13-1.17-1.71a2.88,2.88,0,0,1-.56-1.1,9.31,9.31,0,0,0-1.4-3.28c-.56.13-1,.21-1.49.35a1.29,1.29,0,0,0-.66.44,2.15,2.15,0,0,1-2.5,1v0s0,0,0,0c.25.68.5,1.35.72,2,0,.13-.14.33-.34.78-.33-1.12-.8-1.91-.38-2.82a.14.14,0,0,0,0-.07h0c0-.13-.06-.34,0-.36.53-.3,1.06-.58,1.61-.83a1.19,1.19,0,0,0,.76-1.63l.6.79,1.64-1.16c-.12-.54-.26-1.09-.39-1.66h0s0,0,0,0c-.37-.88-.72-1.77-1.12-2.63a3.18,3.18,0,0,1,.16-2.54c.15.57.23.83.3,1.08h.82l.26.37-.92.51c0,1.09,1.24,2,.5,3.21v0l.81-.14c-.4,1,.54,1.79,0,2.71,0,.06,0,.19.11.25a8,8,0,0,1,1.6,3.45,1.58,1.58,0,0,0,1.7.9c-.67,1.56,1.12,2.44.91,3.83.65.19,1.2.34,1.81.53.07-.2.15-.4.25-.7.21.18.41.36.59.5-.18.47-.32.87-.49,1.31.63,0,1,0,1.18-.22a.33.33,0,0,0,.06-.1,2.43,2.43,0,0,0,0-1.36l.4.67a19.49,19.49,0,0,0,1.87-4.2,2.77,2.77,0,0,0-.4-.87,13.49,13.49,0,0,1-1.92-4.8,9,9,0,0,0-.6-1.67,1.1,1.1,0,0,1,0-1.29c.37-.45.89-.95.94-1.45a3.16,3.16,0,0,0-.53-1.92,10.39,10.39,0,0,1-1.55-4.91c-.08-.71-.53-1.4-.56-2.1-.07-1.61,0-3.23.05-4.85a6.32,6.32,0,0,0-1.32-4.21c-.17-.23-.55-.3-.87-.46,0-.36-.1-.73-.14-1.09-.13-1.24-.29-1.33-1.55-.86-.06,0-.16-.08-.34-.17.6-1,.89-2.1-.21-3.16a3.22,3.22,0,0,0,.19-2.79c-.15-.48-.17-1-.3-1.49a1.31,1.31,0,0,1,.21-1,4.17,4.17,0,0,0,.09-2,1,1,0,0,0-.88-1c.24.68.5,1.36.7,2.06,0,.11-.19.29-.38.55a12.2,12.2,0,0,1-1.48-4.36,35.32,35.32,0,0,0-1-5.32,8.33,8.33,0,0,0-1.4-2.51,3.72,3.72,0,0,1-.71-2.08,3.09,3.09,0,0,0-1.09-2.48,3.93,3.93,0,0,1-1.38-3,2.64,2.64,0,0,0-.75-1.85,3.82,3.82,0,0,1-1.09-2.49,18.06,18.06,0,0,0-1.57-5.41,1.33,1.33,0,0,0-1.87-.88l-.28,0a5.52,5.52,0,0,1-1.42.27c-.37.43-.72.83-1.08,1.2a53.69,53.69,0,0,0-3.63,4.67,10.72,10.72,0,0,1,.71,3c1.21,1.19,1.28,2.87,2,4.44a4.1,4.1,0,0,1-1.28-2.05c-.28-.76-.57-1.52-.86-2.28-.09,0-.23,0-.25-.09-.27-.78-.52-1.57-.77-2.35-1.63,2.31-3,4.4-3,4.4a12.83,12.83,0,0,0-1.44,2.52A109.55,109.55,0,0,1,345.93,205l.11.4.06.07a.34.34,0,0,0,0,.1c.1.12.19.26.29.38l-.21.1a4,4,0,0,0-.08-.48l-.05-.07a.44.44,0,0,0,0-.1l-.22-.21c-1.12,1.86-2.38,3.83-3.82,5.9a74.13,74.13,0,0,0-6.68,12.27c-.66,1.5-1.32,2.78-2,4l1.15,3.3c.13.37.12.74.74.83.29,0,.45.83.68,1.28.32.64.65,1.28,1,1.93a2.39,2.39,0,0,1,.21.62c.11.69.18,1.38.29,2.08a.42.42,0,0,0,.24.29c.61.1.59.62.77,1s.48.84.7,1.27.34.83.53,1.23c.31.66.23,1.61,1.31,1.72.14,0,.25.33.39.51a6.36,6.36,0,0,0,.88,1,3.49,3.49,0,0,1,1.34,2.74h0a1.15,1.15,0,0,0,.06.17c.28.47.53.94.84,1.37a12.35,12.35,0,0,0,.93,1l-.63.74v.09c.25.34.51.67.77,1-.66-.29-.7-.32-.77-1,0,0,0,0,0-.05l0,0s-.12,0-.12,0c-.33-1-.67-2.08-1-3.12a.64.64,0,0,1-.08-.14v0c-.08,0-.19,0-.2-.09-.48-1.66-1.93-2.59-3-3.8-.51-.6-1.13-1.09-1.09-2a1.46,1.46,0,0,0-.36-.71c-.69-1-1.41-1.93-2.09-2.93a1.16,1.16,0,0,1-.13-.62,11.31,11.31,0,0,0-1.51-4.28.79.79,0,0,0-.47-.43c-.45-.05-.41-.38-.51-.69-.4-1.2-.81-2.41-1.23-3.6-2,3.5-3.89,6-5.42,9.6-.3.71-.59,1.37-.88,2a2.54,2.54,0,0,1-.19,1.33c.39-.33.66-.24.83.22.27.76.52,1.53.82,2.29a1.92,1.92,0,0,0,1.2,1.29,1.75,1.75,0,0,1,1,1.58h0v0h.77a2.25,2.25,0,0,0,1.27,2.58l1.17-.77c-.31.63-.48,1-.67,1.35.63,1.49,1.32,3,1.9,4.55.38,1,1.43,1.41,2,2.26.15.23.38.38.53.61q1.2,1.83,2.37,3.69c.15.23.41.47.42.71.15,1.76,1.78,2.45,2.68,3.66.13.18.54.11.29.54-.08.12.08.38.39.61.11-.32.23-.65.36-1l.74.44.89-1.2,2.19,2.12,1-.11c0-1-.57-2.15.55-2.86l1.16,1.6c-.29-1.27-.34-2.24-1-3.07a6.26,6.26,0,0,1-.7-1.55l-.07,0a.15.15,0,0,1,0-.07c-.24-.54-.49-1.08-.73-1.63,0,0,0,0-.06,0s0-.07,0-.1c-.19-.28-.39-.56-.58-.85a2.2,2.2,0,0,0,.31-.15l.27,1,.05.07s0,0,0,.06a1.4,1.4,0,0,1,.73,1.63.05.05,0,0,0,0,0,.19.19,0,0,0,0,.08,9.51,9.51,0,0,1,2.42,3.35l1.83-1c.06-.12.12-.34.17-.32,1.1.12,1.61-.66,2.16-1.39s.22-1.58-.08-2.36a18.22,18.22,0,0,1-.68-2.09,4.68,4.68,0,0,1,1.46,3.66h1c0,1.45,1.36,2.06,2,3.14a7,7,0,0,0,1.74-.56c.57-.36,1-.14,1.16.23.43,1.08,1.86,1.44,1.92,2.79,0,.34.49.65.69,1,.1.18.05.44-.19.78a12.73,12.73,0,0,1-1.2-1.91c-.74-1.77-1.28-2-3-1.12a3.12,3.12,0,0,1-.39.15l-.39-.17c0,.19-.08.38-.11.57l.33-.08c-.19,1.08.64,1.78,1.07,2.61a3,3,0,0,1,.38,2.22c-.36-.86-.6-1.53-.93-2.15s-.8-1.47-1.21-2.19c-.14-.25-.39-.46-.43-.7a3,3,0,0,0-2-2.63c-.83-.31-1.75-.15-1.69.69.08,1.28-.77,1.65-1.61,2.13-.68.39-1.36.78-2.14,1.21l-.65-.53c-.75.26-.22.71-.17,1l-1.53,1.31-1.58-1.63a16.08,16.08,0,0,1-2,1c-.76.24-1,.6-.69,1.29a4.58,4.58,0,0,1,.76,1.81s0,0,.06.05a2.22,2.22,0,0,0,.24-.32,2.28,2.28,0,0,0,.15-.45c.08.59.13,1,.18,1.5h0v0c.14.32.28.64.41,1l.06,0a.54.54,0,0,0,0,.1c.17.16.34.34.5.51l-.29.14-.2-.67-.06-.06s0,0,0-.06c-.44-.17-.44-.56-.41-1v0c-.5,0-.7-.22-.58-.72l0,.05v-.1a5.45,5.45,0,0,1-1.56-2.48c-.11-.28,0-.65.08-1.2-.78-.79-1.78-1.69-2.63-2.7a17.56,17.56,0,0,1-1.3-2.23c-.94-1.53-1.63-3.35-2.92-4.49-1.92-1.69-2.56-3.95-3.59-6a12.61,12.61,0,0,0-.86-1.38,9.32,9.32,0,0,1-1.85-3.69h0v0c-1.31-.67-2.4-.12-3.52.54a17.13,17.13,0,0,1-1.81.74c-.4.18-.77.41-1.11.6.6.93,1.14,1.71,1.64,2.52a1.13,1.13,0,0,1,.06.56l0,0v.07c.89.7.92,1.9,1.64,2.7a3.91,3.91,0,0,1-1.64-2.7l-.05,0v-.08c-.41-.61-.82-1.23-1.25-1.84A1,1,0,0,0,323,249c.16-.23.33-.45.54-.74l-.86-.9c-1.27,2.18-2.57,4.25-4,6.72l-.46.8a5.87,5.87,0,0,1,1.27,3.25l.05.07Zm-11.67,22.66v-.29c.11.14.2.23.29.33a.64.64,0,0,1-.28,0Zm60.68.47c.07,0,.12.1.19.16s-.14.14-.17.13a1.1,1.1,0,0,1-.25-.19C368.4,281.41,368.48,281.33,368.55,281.34Zm9-28.49c-.07.39-.12.74-.19,1.09C377,253.52,376.69,253.05,377.55,252.85Zm5.22-25.62c.39.62.24,1.21-.45,1.78C382.16,228.3,381.73,227.6,382.77,227.23Zm-1.06,9.9.35.05-.25.58-.16,0Zm-.31-15.64c0,.45.07.82.12,1.42C380.85,222.48,380.81,222,381.4,221.49Zm-1.73,1.24.17.08a2.1,2.1,0,0,0-.06.24c-.06,0-.18-.06-.19-.1S379.64,222.8,379.67,222.73Zm-.13,7.12c.82.31.35.82.23,1.28h0c.65,0,.86.38.57,1.07l-.57-1.07h0c-.6-.34-.07-.86-.23-1.28Zm-.87-5.57-.48-1.34C378.89,223.34,378.8,223.75,378.67,224.28Zm-.59.94.29.26-.16.17a1.23,1.23,0,0,1-.22-.24s.06-.12.1-.19Zm-40.57,5.86a.27.27,0,0,1,0-.11s.06,0,.09-.07V231Zm.27-11.91V219l0,.07,0,.07Zm1.81,11.51-.11.19-.24-.23.27-.18.09.22Zm-.72-8.6.25-.07c.05.27.12.54.18.8l-.17.05-.27-.78Zm.5,15.85a1.11,1.11,0,0,1-.22-.4s.16-.12.19-.1a4.87,4.87,0,0,1,.49.35C339.6,237.86,339.42,238,339.37,237.93Zm2.82-1.44a.6.6,0,0,1,0-.19s.06,0,.11,0,.06.09.05.1a.93.93,0,0,1-.15.13Zm.12-11,0-.11h.07Zm.76,1.6v-.46h.11c0,.15,0,.3,0,.46Zm.67,1.57c-.07-.2-.13-.4-.19-.6l.3,0,.1.59-.21.06Zm.79,1.06v-.57h.12c0,.19,0,.38,0,.56h-.14ZM329,243.78c-.11-.36-.23-.74-.42-1.31.53.34,1.28-.05,1.4.84-.34.17-.66.31-1,.46Zm1.13-8.72h-.24v-.58a1.83,1.83,0,0,1,.33,0c0,.18-.05.37-.09.55Zm2.14-3.81c.09.38.17.76.26,1.15l.09.19v0c.32.14.54.29,0,.72v-.72h0c0-.08,0-.15,0-.22l-.51-1.07.26-.08Zm-1.5,2.09-.08-.18a.21.21,0,0,1,0-.11.87.87,0,0,1,.18.11l-.14.19Zm.11-1.18-.15-.16.56-.67.18.1a2.44,2.44,0,0,1-.26.51,1.07,1.07,0,0,1-.32.22Zm1.72,3.32a.07.07,0,0,1,0,0c-.32.79-.33.79-1.11.35-.06-.75-.1-1.44-.17-2.23l.78-.39c0,.24.1.43,0,.48a1,1,0,0,0-.11,1.5l.05,0c0-.1,0-.2.05-.3l.15.12-.2.18a.11.11,0,0,1,0,.07l.53.25h0c.11-.16.18-.33.29-.48a5.4,5.4,0,0,1,.42-.43c.22.33.43.63.83,1.24l-1.54-.32v0Zm1.58,1-.07-.17a.56.56,0,0,1,.23,0s.06.11.09.18a.82.82,0,0,1-.24,0Zm.87,3.36c-.06-.63,0-1,.69-1C335.94,239.4,335.72,239.68,335.06,239.87Zm.85-3.18c-.08-.28-.17-.54-.25-.82l.27-.06c.06.27.13.55.2.82Zm1,2.59-.22-.07c.05-.17.12-.34.18-.52l.17,0C337,238.91,337,239.1,336.92,239.28Zm18.7-34.87c.1.35.2.72.3,1.08l-.31.08c-.07-.37-.14-.74-.2-1.11Zm-.6-1.35a.53.53,0,0,0,0,.11l-.05-.06a.45.45,0,0,0,0-.11s.09,0,.11.07Zm-.84-2.47h0v0c.13.45.27.9.4,1.34-.35-.4-.88-.78-.4-1.34h0Zm-.59-1.45c.09.24.19.46.28.69l.3.76h0c-.88-.17-.91-.24-.58-1.44-.46.26-.58-.09-.64-.4a5.93,5.93,0,0,1-.11-1.47l.75,1.87Zm-3.43,8.27h.09v.43h-.09Zm-2.59,13h.32l-.15.77-.17,0Zm-.06-.7-.16,0c0-.19-.08-.39-.11-.58a.65.65,0,0,0,.19,0c0,.19.06.39.08.58Zm-1-6.73.21.15c-.24.34-.49.68-.72,1a2.39,2.39,0,0,1-.23-.25l.75-.93Zm.43,5.36-1.34-3C346.43,215.9,346.67,216.41,346.91,218.37Zm-.52,30.74.25,0a2,2,0,0,1-.28.25s-.1-.08-.16-.11.11-.14.19-.17Zm-.2-14.36a2.08,2.08,0,0,1,.24,1.53C346.34,235.67,346.27,235.27,346.19,234.75Zm-.17-1.3v.43h-.13v-.44H346Zm.77,21.49c-.36-.73-.72-1.46-1.09-2.17C346.66,253.65,347,254.38,346.79,254.94Zm.18-47.26s0-.09-.07-.14v-.11l-.4-.74a2.62,2.62,0,0,0,.33-.09c0,.28,0,.55.07.83a.3.3,0,0,0,0,.08l0,.17c.15.27.29.54.45.82l-.23.08c-.07-.3-.14-.6-.22-.92Zm.49,48.39-.23-.15.39-.6a1.73,1.73,0,0,0,.28.19Zm.85-9.09c-.05-.26-.11-.53-.17-.78a2.3,2.3,0,0,1-.25-.46c0-.1,0-.22.13-.34l.15.79c.1.24.19.49.29.74l-.14,0Zm1.59,1.32c-.06,0-.12-.09-.17-.14l.18-.18a1.12,1.12,0,0,0,.18.2C350,248.23,350,248.31,349.9,248.3Zm-.06-19.43H350v.44h-.11C349.86,229.16,349.85,229,349.84,228.87Zm1,2.59c-.07-.3-.14-.61-.19-.91l.21-.06c.1.29.21.58.31.86Zm2.24,21-.58-.29.14-.22.54.32-.09.19Zm.18-16.09c0-.08-.07-.15-.1-.23a.49.49,0,0,0,0-.12l-.25-.48a1.06,1.06,0,0,0,.19-.06c0,.18,0,.36.06.54l0,.09a.77.77,0,0,1,.07.26l.63,1.44c.14.45.27.91.43,1.42-.58-.39-.48-.91-.43-1.42C353.1,237.52,353.29,236.87,353.21,236.34Zm.15,18.69a1.29,1.29,0,0,0,.19-.21l.62.66-.18.18c-.21-.21-.41-.43-.63-.64Zm1,4.39-.24,0s.05-.09.08-.1a.88.88,0,0,1,.23,0,.39.39,0,0,0-.06.11Zm1.25-40.59-.26-.14c.12-.52.25-1,.37-1.53l.26.05c-.13.54-.25,1.09-.38,1.62Zm.4,11.85-.23,0c0-.22-.06-.44-.09-.65a1.49,1.49,0,0,0,.18,0c0,.23.08.44.14.66Zm-.11,9.26c.11.87-.53.86-1.13.86Zm0,1.77c.1,0,.15.2.23.3l-1,.65c.13-.87.33-1.11.81-.95Zm2,7.68c-.58-1.52-1.14-3-1.71-4.55a.46.46,0,0,0-.07-.07v-.1l-.24-.8.31,0c0,.28,0,.56-.07.84a.26.26,0,0,0,0,.08l0,.09c.47.42.93.85,1.23,1.14.3,1.31.57,2.45.86,3.7-.19-.15-.35-.19-.38-.29Zm-1.08-16.23c.77.38.84.55.69,2.13Zm.58,5.93-.19.17a3.42,3.42,0,0,1-.13-.34l.2-.08c0,.07.06.15.11.25Zm.35-3.46.34-.06c0,.21.08.43.11.64l-.29.07c-.06-.21-.11-.43-.17-.65ZM359,251.75h-.09a3.15,3.15,0,0,1-.05-.43H359C359,251.46,359,251.61,359,251.75Zm1.11,2.09H360v-.12h.08ZM357,209l0,0,.62.19c-.06.09-.13.17-.18.26-.15-.14-.29-.3-.44-.45l-.08,0s0,0,0,0a.34.34,0,0,0-.12,0c-.46,0-.94-.07-1.23.41-.4-.5-.71-.09-1.05.1a1.49,1.49,0,0,1-1.46.11,1.54,1.54,0,0,0,.08,1.89c.47.83,1.31,1.57,1.09,2.69,0,0,0,0,0,0h0v0c.09,0,.21,0,.23,0a12.22,12.22,0,0,1,.8,2.32c-.45-.75-1.19-1.39-1-2.37h0v-.08a7.32,7.32,0,0,1-1.75-4.16c-.24.19-.42.41-.62.46a1.9,1.9,0,0,1-.74-.08c-.66,1.41-.92,1.54-2.3,1.15l0,0a.11.11,0,0,1,0-.06c-.29-.4-.56-.8-.85-1.19l.3-.18a1.13,1.13,0,0,1,.55,1.38l0,0A10.67,10.67,0,0,0,350,210.3a9.79,9.79,0,0,0,.76-1.52c.26.25.53.48.86.79A5.53,5.53,0,0,1,356,208c.36-.68-.63-1.2,0-2l.67,1.15a3.41,3.41,0,0,1,4.06-.39,7.41,7.41,0,0,0-3.78,2.22Zm7.66,32.31c.24.33.36.51.48.69s0,.42.05.63H365c0-.21.06-.42.08-.63-.54.24-.49-.13-.48-.69Zm.49,15.45a13,13,0,0,1,.23,1.39l.16,1.36c-.72-.4-.47-.91-.51-1.39a6.45,6.45,0,0,0-.44-1.44C364.77,256.67,365.1,256.66,365.12,256.72Zm1.13-28.43c-.31-.39,0-.62.38-1,.16.48.25.78.39,1.25-.39-.09-.67-.07-.78-.2Zm.62,19.33-.06.1a1,1,0,0,1-.09-.17.31.31,0,0,1,0-.1C366.81,247.5,366.83,247.56,366.87,247.62Zm-.43-31.24c-.09-.38-.19-.75-.33-1.32C366.69,215.47,366.89,215.83,366.44,216.38Zm-.23,29.25v.4a2.68,2.68,0,0,0,0-.4c-.82-.2-.14-.89-.58-1.22l.33-.1c.09.44.18.88.28,1.32Zm-.62-31.56-.28-.06c.07-.33.13-.67.19-1a2.45,2.45,0,0,0,.32.09c-.07.32-.15.63-.22,1Zm2.35,53.3c-.18,0-.47,0-.52.1-.44.95-1.92.26-2.23,1.38,0,.34,0,.68,0,1l0,0V270c.22.19.45.38.87.71-.92.07-.85-.35-.87-.71l0,0,0,0,0,0v-.06c-.45-.31-.17-.68,0-1-.13,0-.28,0-.5.07.35-.81.64-1.52,1.65-1.66.84-.12,1.15-.59,1.23-1.41a5.15,5.15,0,0,1,.37-1.55c.32,1-.61,2.22.43,3.24a1.54,1.54,0,0,0-.43-.17Zm1.31,4.69c0-.19,0-.38,0-.57l.22,0c0,.19,0,.38.06.57Zm.17-3.05c-.89-1-.88-1.07.24-1.79C369.58,267.85,369.5,268.41,369.42,269Zm-.18-3.58v-1C369.88,264.8,369.63,265,369.24,265.43Zm1.88,3.78c-.26-1-.46-1.77-.66-2.55l.23-.1c.32.66.67,1.31.93,2C371.66,268.69,371.32,269,371.12,269.21Zm.4-3.6c-.23-.13-.55-.28-.6-.47a8.83,8.83,0,0,1,0-1.49c.77.58,0,1.46.92,1.61a2.44,2.44,0,0,1-.3.36Zm1.66,4.21-.22-.29c.07,0,.15-.12.21-.09s.1.12.15.19l-.14.18Zm1.1,4.85a1.24,1.24,0,0,1-.14-.18l.19-.07c0,.07.08.13.11.19s-.13.09-.17.07Zm-.66-31c.7,1.7,1.38,3.42,2.1,5.12,0,.1.33.09.45.12-.15.56-.27,1-.47,1.82a11.73,11.73,0,0,1-.48-1.38c-.27-1.45-1.13-2.66-1.61-4a10.08,10.08,0,0,1-.26-1.66h.27Zm-.33,23.67c0,.1,0,.19,0,.29-.18.06-.38.11-.58.16,0,0-.05-.15-.08-.23l.63-.22Zm-.77-27.8a.84.84,0,0,1-.2-.08,1.16,1.16,0,0,0,.13-.22.49.49,0,0,1,.11.18.23.23,0,0,1-.05.11Zm2.59-8.2c-.84-1.24-.58-2.46-1.24-3.41l.4-.16,1.27,2.41C375.49,230.35,375.35,230.71,375.11,231.35ZM373.68,227c.1-.34.15-.51.19-.69a1.58,1.58,0,0,1,.15.38C374,226.74,373.89,226.81,373.68,227Zm3.84,4c0,.06-.07.13-.11.18l-.13,0,.13-.18S377.47,231,377.52,231Zm-.74-28,.1.21c-.06,0-.14.07-.21.12l-.12-.29C376.63,203.06,376.73,203,376.78,203Zm-1.13-2.51c.11,0,.18.14.34.26-.2.08-.35.18-.39.15s-.11-.22-.17-.32S375.6,200.5,375.65,200.52Zm-1.13.27c.06,0,.2.05.59.16a3.86,3.86,0,0,1-.51.23c-.06,0-.21-.06-.21-.09S374.44,200.84,374.52,200.79Zm-1.48.75s.09.06.09.08a1.77,1.77,0,0,1,0,.2,1,1,0,0,0-.19-.12A1.14,1.14,0,0,1,373,201.54Zm.33,9.21a49,49,0,0,1,1.65,4.92,39.72,39.72,0,0,0,1.49,3.76,2,2,0,0,1,0,2c-1.16-3.29-2.23-6.33-3.28-9.37a11.87,11.87,0,0,1-.67-3,16.3,16.3,0,0,1,.85,1.79Zm-1.26,14.17c.24.23.5.46.77.69H373c.49-.45,1-.91,1.54-1.45l.62.46c1.42-.52,1.43-1.84,1.66-3.07.71.94.7.94,0,2-.17.25-.21.6-.39.85s-.62.7-1.09,1.2c-.09-.45-.14-.62-.17-.79-.28.29-.54.61-.84.87s-.9.6-1.33,0l0,0,0,0-.85,0C372.06,225.36,372.1,225.1,372.11,224.92Zm-.46,13.75.26.5-.24.11c-.06-.18-.13-.36-.2-.53Zm1.57,20.61a14.32,14.32,0,0,1-1.93.48c-.4.06-.81.62-1.26.05,0-.06-.31,0-.45.1s-.36.29-.57.39c-.48.23-1.12.33-1.43.7s-.2,1-.29,1.45c0,.18-.08.35-.17.69-.51-1-.95-1.79-1.46-2.78a3.29,3.29,0,0,0,2.31-.68,14.43,14.43,0,0,1,2.18-.93,2.66,2.66,0,0,0,.65-.25c1.14-.8,2-.51,2.41.76ZM367.6,228c0-.11,0-.22,0-.33h.06V228Zm.35,6.8.25-.36.14.11-.27.28s-.08,0-.11,0Zm.53-6.88a1.78,1.78,0,0,1,.16-.51c.08-.11.24-.16.38-.25l.18.16c-.16.24-.32.46-.47.7-.08,0-.16-.07-.24-.12Zm.72,6.82c0-.19.05-.38.09-.58a1.77,1.77,0,0,1,.2,0c0,.19-.05.38-.08.57a1.46,1.46,0,0,1-.22,0Zm.6,1s0-.16.11-.38c.1.26.16.4.21.56A1.65,1.65,0,0,1,369.8,235.79Zm.85.46.21.15-.53.72-.22-.17Zm.09-12.54.06.1a1.74,1.74,0,0,1-.1.19s-.08-.07-.07-.09A1.28,1.28,0,0,1,370.74,223.71Zm-.31-2.23a.64.64,0,0,1,0,.1l-.14-.05Zm-.58-10.09H370c0,.16,0,.3,0,.46h-.15Zm.06,11-.38.77.85,1c-.1.28-.21.61-.34.92v0c.46-.1.63.22.75.56s.19.67.28,1c-.71,0-.72,0-1-1.54h0a.08.08,0,0,1,0,0c-.19-.35-.38-.68-.55-1-.36-.69-.76-1.36-1.05-2.07a4.3,4.3,0,0,1-.27-1.68c.91.48.58,1.87,1.74,2.12Zm-1.42-31.81a.18.18,0,0,1,0-.2v.19Zm-.44-1.77.44.75c-.33-.11-.53-.11-.58-.2a1.15,1.15,0,0,1-.06-.5Zm-.34,17.75.53,2a1.8,1.8,0,0,1-.22.06c-.19-.67-.36-1.34-.55-2Zm.1,13.06c-.62-1.07-.77-1.87-.44-2.38A3.39,3.39,0,0,1,367.81,219.65Zm-1.45-35.9-.05.07s-.08,0-.08-.06a.91.91,0,0,1,.08-.13.93.93,0,0,0,.05.1Zm-.38-3,.33.19c-.06.06-.12.16-.15.16A.24.24,0,0,1,366,181C365.92,180.93,366,180.83,366,180.76Zm-2.15,12.58a5.15,5.15,0,0,0,1,1.48c.39.29,1,.27,1.63.55l-1.29.32c.09.91.19,1.84.27,2.77.22.11.56.17.62.32a10.21,10.21,0,0,1,.46,1.87c.24,1.75.44,3.5.59,5.26-.37-1.26-1.22-2.36-1-3.82a7,7,0,0,0-.68-3.63c-.29-1-.55-2-.88-3a3.58,3.58,0,0,0-.53-.78c-.3-.42-.55-.84-.17-1.37Zm-.27,14.34c.1,0,.23.17.21.25s-.15.16-.29.27a1.39,1.39,0,0,1-.14-.38c0-.06.18-.18.22-.16ZM363,191.15c.08.37.15.73.22,1.1l-.31.05c0-.37-.1-.73-.14-1.1A1.06,1.06,0,0,0,363,191.15Zm.27,13.91c-.05.07-.09.17-.16.19s-.15,0-.23-.05.09-.17.15-.19S363.16,205,363.24,205.06ZM361.15,219l0-.11.08,0-.06.09Zm.33,1.39h-.09c0-.11,0-.23,0-.34h.08C361.49,220.17,361.49,220.29,361.48,220.4Zm.22,4.13c-.05-.44-.08-.72-.12-1.09C362.14,223.75,362.28,224,361.7,224.53Zm.45-36.42c0-.2.06-.4.11-.61a1.55,1.55,0,0,0,.22.06c0,.2-.08.39-.12.58l-.21,0Zm1.44,41.59c-.52-1.63-1.39-3.16-1.28-4.93C363,226.36,363.94,227.88,363.59,229.7Zm.05-20.8.23-.09.27.7-.21.08c-.1-.22-.19-.45-.29-.68Zm.45,46-.11,0-.1-.86h.1C364,254.38,364.05,254.67,364.09,254.94Zm-.15,4.13c-.08-.27-.12-.41-.17-.56a3.65,3.65,0,0,1,.34.18S364,258.84,363.94,259.07Zm.4-48.4c0,.34.05.68.08,1h-.22l-.06-1a1,1,0,0,0,.19,0Zm.16,19.11c-.06.05-.11.12-.18.19s-.13-.13-.12-.18.09-.13.13-.19S364.44,229.72,364.5,229.78Zm-.26,11c0-.17,0-.34-.05-.49h.16c0,.16,0,.32,0,.49Zm-.05-10.08c1.08,0,.89.69,1.16,1.09a3.78,3.78,0,0,0-.33.22l-.83-1.3Zm-2.38,42h-.1v-.38h.1Zm.07-2.24.21.08-.37.91c-.07,0-.13-.06-.21-.08l.36-.91Zm-3.76,12.4s-.08-.05-.08-.07a1.66,1.66,0,0,1,0-.22l.18.2a.57.57,0,0,1-.13.1Zm-.14-6.28-.3-.49a1.6,1.6,0,0,0,.19-.11c.1.17.2.32.29.49-.07,0-.12.08-.19.11Zm.86,7.1c-.07-.05-.18-.08-.22-.14s0-.13.06-.2.18.06.23.13,0,.14-.06.22Zm1.7-7.7c.07.1.18.21.17.3s-.14.19-.26.34c-.09-.18-.21-.31-.18-.39s.18-.17.27-.26Zm-.08,4a1.32,1.32,0,0,1,.19.29s-.14.13-.16.12a1.6,1.6,0,0,1-.26-.26c0-.05.12-.08.22-.16Zm-.39-8a1.41,1.41,0,0,1,.14.18l-.15.12s-.07-.07-.06-.1a.84.84,0,0,1,.08-.19Zm0,3.32-1.2-.48C359.22,274.79,359.75,274.31,360,275.27Zm-.28-5.49-.57.4-.13-.15.53-.45c.05.07.12.14.18.21Zm-.71-1.64.18.15a2.64,2.64,0,0,0-.29.21c0-.07-.1-.16-.09-.2s.14-.1.2-.15Zm0,4.77v.23h-1.17V273Zm-.76-1.32h.13c0,.15,0,.29.05.44h-.14a3.29,3.29,0,0,0,0-.45Zm.38-1c-.73.08-1.14,0-1.14-1C358,270.06,358.25,270.28,358.65,270.62Zm-1.32-2.22.31.75a2.25,2.25,0,0,1-.21.12c-.12-.1-.28-.19-.33-.31S357.1,268.62,357.33,268.4Zm-.57,5.25c-.13.32-.25.6-.36.89.61-.05.9.32.88,1.1l-.88-1.1c0-.32-.33-.75.36-.87Zm0-1s.06-.18.09-.18a2.22,2.22,0,0,1,.31.07,3,3,0,0,0-.13.28A2.46,2.46,0,0,1,356.73,272.65Zm-.64-3.37c.06,0,.14.08.22.13l-.34.48c-.09-.22-.18-.34-.17-.45S356,269.3,356.09,269.28Zm.15.8c.27.6.5,1.11.73,1.6-.32.07-.6-.12-.83-.55l-.56.72c.55-.73-.35-1.12-.51-1.77Zm.06,3.05c-.06,0-.11.1-.18.14s-.09,0-.08-.06.06-.14.08-.2ZM355.19,269l.29.26-.25.31c-.09-.09-.24-.18-.25-.27S355.12,269.11,355.19,269Zm-.08,9.5,0,0,.5.93a.08.08,0,0,0,0,0c.81.2.61.94.75,1.49l1.27.77-2.1.54c.23-.49,1.37-.48.83-1.33-.24-.49-.5-1-.75-1.47l-.05,0,0,0s0,0,0,0c-.17-.31-.34-.62-.5-.93v-.06l-.91-1.07c.82.31.84.33.91,1.07Zm-.61-8.1.06,0a.31.31,0,0,0,0,.1l.33.52a1.58,1.58,0,0,0-.23.11c0-.2-.07-.42-.1-.62l0-.06s0-.05,0-.07l-1.28-.89c1,.27,1,.28,1.28.89ZM352,273.17l.05.06v0c.69.14.42.7.5,1.11l0,0a.28.28,0,0,0,0,.11,5.28,5.28,0,0,1,1.25,2.31,4.29,4.29,0,0,1-1.25-2.31.19.19,0,0,1-.06-.07.19.19,0,0,0,0-.08c-.3-.31-.66-.59-.5-1.11h0a.15.15,0,0,0,0-.07l-1.87-2.26a2.68,2.68,0,0,1,1.87,2.26Zm-2.18-3.73c.07.14.17.24.16.33s-.12.17-.17.25l-.31-.26Zm-1.21,6.16.1,0s0,.07,0,.07-.07,0-.1,0Zm.46,3.19a2.46,2.46,0,0,1,.22.25c-.31.19-.62.38-.94.56l-.18-.3c.3-.17.59-.35.89-.51Zm-3.59,1.81.23.08a1.8,1.8,0,0,1-.08.21.76.76,0,0,1-.22-.11S345.44,280.67,345.47,280.6ZM344,274.21H344l.59-.08v.17l-.59-.09h0c.17.45-.13.69-.3,1l-.25-.13.55-.87Zm.65,5-1.2-.84A1.46,1.46,0,0,1,344.61,279.25ZM342.15,276h.07a.94.94,0,0,1,.28-.22c.1-.05.23,0,.37.13l-.65.09,0,0v0l.51,1.54c-.31-.48-1.18-.81-.51-1.54a.07.07,0,0,0,0,0Zm-.72-1.2.39.61-.24.16c-.09-.24-.16-.48-.25-.72ZM336,282.18a5.39,5.39,0,0,1,.08-.56.11.11,0,0,0,0-.07v0c-.16,0-.4,0-.42-.1-.2-.8-.84-1.55-.39-2.42.27.82.54,1.67.81,2.52h.05a.46.46,0,0,1,0,.1l.12.54H336Zm3.52-1.52a.93.93,0,0,1-.09-.22c0-.05.13-.07.19-.1a.9.9,0,0,1,.15.18l-.25.15Zm-5.63-7.55c.16.11.25.18.36.24a1,1,0,0,1-.27.19c-.07,0-.16-.05-.24-.09S333.85,273.25,333.91,273.11Zm-.09,2.11h0a3.26,3.26,0,0,1,.91-.38,11.93,11.93,0,0,1,1.58-.06h0s0,0,0,0h0c.53-.38,1-.86,1.71-.21h0c0-.14-.13-.32-.1-.35.56-.41,1.14-.8,1.75-1.21.4.43.7.77,1,1.09l-.13.17c-.33-.25-.67-.48-1-.74l-1.52,1v0l0,0-1.71.21h0c-.22.67-.78.63-1.33.57-.39,0-.78-.09-1.17-.13h0a5.53,5.53,0,0,0,1.11,2.64,3.33,3.33,0,0,1-1.39-1.56c-.13-.71-.19-1.43-.28-2.14.55.15.55.15.57,1.05Zm-1.47-.65.15.11a.71.71,0,0,0-.15.15.85.85,0,0,1-.08-.17.14.14,0,0,1,.09-.08Zm-13.68-8.64a1,1,0,0,0,.07.12,1.51,1.51,0,0,0-.1.17s-.07-.07-.06-.11A.76.76,0,0,1,318.67,265.93Zm-.09,8.37.16.25a2.89,2.89,0,0,0-.24.25c-.07-.09-.2-.2-.18-.25s.18-.17.27-.25Zm-1.24-10.2.2.07,0,.1-.19-.09s0-.08,0-.08Zm.14,4.21.1.21c-.07,0-.16.06-.19,0a.8.8,0,0,1-.15-.21C317.32,268.33,317.42,268.28,317.48,268.31Zm-1.6-8c0,.07.07.15.09.21l-.11.06c0-.07-.06-.15-.07-.21l.09-.05Zm-.07,9.54.24.12-.15.17a1.24,1.24,0,0,1-.14-.18s0-.08.05-.12Zm0,1.2.25.34-.31-.05C315.77,271.27,315.78,271.18,315.81,271.05Zm-1.41-5.56.08.15,0,.12a.7.7,0,0,1-.09-.17s0-.07.05-.11ZM313.08,270l.19.12-.3.24c0-.07-.08-.14-.07-.2A.29.29,0,0,1,313.08,270Zm2.3,10.9c-.06,0-.09-.14-.13-.22l.14-.14.3.34c-.1,0-.21.06-.3,0Zm1.12,1-.23-.09c.08-.18.15-.37.22-.55l.23.09C316.65,281.55,316.58,281.74,316.5,281.92Zm.67.48c0-.14,0-.29,0-.43h.11v.42h-.14Zm1.22-5.86c-.55-.4-1.46-.39-1.55-1.31h0l-.05-.07a8.2,8.2,0,0,1-.82-.46c-.33-.21-.63-.45-.95-.68,0,0,0,0,0,0v0c-.62-.53-1.29-1.05-1.87-1.63a1.14,1.14,0,0,1-.26-1.52,3.2,3.2,0,0,0,1.47,2c.36.26,1,.51.65,1.17,0,0,0,0,0,0h0c.32-.32.64-.43,1,0l.8,1.12.07,0v0a1.35,1.35,0,0,1,1.57,1.3c.57.64,1.15,1.26,1.72,1.9-.83-.42-1.66-.82-1.74-1.89Zm1.91-1.1c-.08-.05-.21-.07-.22-.12s0-.22.05-.34c.13.06.28.1.27.12A1.33,1.33,0,0,1,320.3,275.44Zm.62,3.91-.39-.35.13-.14c.12.13.25.24.37.36l-.12.13Zm-.29-1.72V277h.16c-.06.21-.1.42-.16.63.64-.24.63.29.74.67Zm1.2,5.33-.14-.18a2.83,2.83,0,0,1,.66-.49c.47-.2.83-.42.64-1l.42,0v-.07c0-.16,0-.34,0-.51h.12c0,.17-.07.34-.09.5v.05l.43.37c-.7.46-1.34.91-2,1.36Zm.41-3-.28,0c0-.24-.06-.49-.08-.74l.24,0Zm0-4.25.19,0,.06.48-.1,0c0-.16-.1-.32-.14-.47Zm.63,3.54a.71.71,0,0,1,.24,0s.07.11.11.17-.16.06-.21,0-.09-.12-.13-.18Zm1.56,2.12-.1.07,0-.2.21,0a.41.41,0,0,1-.07.11Zm2.59,2.09-1.17.68C325.92,283.13,326.5,283.4,327,283.46Zm-1.33-.61c0,.06,0,.12-.07.19l-.52-.22.07-.16Zm3.64-6.25c-.05-.07-.11-.13-.17-.2l.8-.63c.05.08.12.16.17.23l-.81.6Zm.87,2v-.25a1.67,1.67,0,0,1,.38-.06c.05,0,.07.15.11.21l-.48.1Zm0-1.12c.08,0,.17-.07.23,0s.08.13.13.19-.17.11-.19.09A1.46,1.46,0,0,1,330.18,277.45Zm.88-2.69-1.2-.18v-.08h1.23a2.51,2.51,0,0,1,0,.27Zm-.4-1.31.15-.14c.05.07.11.13.16.19l-.24.2C330.71,273.62,330.65,273.53,330.66,273.45Zm.84-1.93v.08l.43.78a.24.24,0,0,1,.08.06l0,0,.21.09c-.06.21-.12.42-.23.74l-.86-.47.87-.38a.25.25,0,0,0,0-.07.71.71,0,0,1-.43-.78s0,0,0-.05a.13.13,0,0,0,0-.09c-.35-.42-.71-.83-1.18-1.36,1,.51,1.05.53,1.18,1.36l.05.05Zm-.32-8.8.27.48-.16.09-.29-.48Zm-.84,6.1c.05,0,.09.13.13.18s-.16.08-.23.06-.09-.13-.14-.19.17-.07.23-.05Zm-.35-8.09c0,.14,0,.27,0,.41h-.12c0-.14,0-.27,0-.41H330Zm-.9,9.44c0,.07.07.13.1.19l-.47.34-.17-.3.55-.23Zm-.84-11.89c.45.06.74.25.67.89l-.67-.89c-.1-.24-.19-.48-.3-.74C328.69,257.58,328.17,258,328.25,258.28Zm-.91-2.48c.66-.14.88.2.7,1-.23-.32-.47-.64-.7-1-.08-.28-.15-.55-.25-.9C327.78,255.13,327.43,255.49,327.34,255.8Zm.72,17.07.07,0,.06.11a8.5,8.5,0,0,1,.9.9c.11.15,0,.45,0,1L328.2,273l-.08-.08,0-.07c-.62-.33-.68-.44-1-1.84.41.76.69,1.31,1,1.84Zm-2.5-4.67h0v0a4.43,4.43,0,0,1,1.5,2l-1.73-.53v-.93l-.06,0v0L324,269l-.59-1.21,1.56.14v0l0,0c-.63-1-1.49-1.83-1.53-3.12l2,3.38s0,0,.06,0ZM322.07,256l.28.11c-.12.14-.23.27-.36.4C322,256.32,322,256.14,322.07,256Zm.07,5.45.06.06a.11.11,0,0,0,0,.06,3.56,3.56,0,0,1,1.29,2.11l.08.05.05.13.55.44-.27.2c-.09-.21-.19-.42-.28-.64a.39.39,0,0,0-.1-.08l0-.1a3.34,3.34,0,0,1-1.29-2.11.07.07,0,0,1-.05,0s0-.05,0-.08c-.39-.43-.79-.85-1.18-1.29l.3-.23a4.43,4.43,0,0,1,.88,1.5Z" transform="translate(-305.17 -122)"/><path class="cls-1" d="M325,245.63c.33-.07.49-.9.72-1.39l-.54.34c0-.07-.05-.12-.07-.19l.61-.15c.78.38,1.33,0,1.86-.63-.34-.86-.7-1.74-1-2.62-.05-.2-.09-.4-.13-.59-1.19,2.56-2.33,4.65-3.47,6.63a3,3,0,0,0,.26.16c.48-.62.85-1.35,1.8-1.55Z" transform="translate(-305.17 -122)"/><path class="cls-1" d="M368.84,172.88c.06-.3.12-.69.19-1.08.11.68.55,1.23.32,2a5,5,0,0,0,.3,2.54,10.42,10.42,0,0,0,1,1.95l.62-.89.18.07c-.19.71-.37,1.43-.61,2.33l.87-.45c.38,1.56.76,3.1,1.19,4.88.15.07.54.28.95.44a1.69,1.69,0,0,1,1.06,1.59,2.21,2.21,0,0,0,.69,2.12,1.64,1.64,0,0,1,.45.79c.58,1.87,1.14,3.76,1.69,5.65.17.56.37,1.12.52,1.7.06.26.14.69,0,.78-.73.54.19.28.2.46a4.57,4.57,0,0,0,.31,1.51c.14-.42.28-.83.48-1.46.31.39.52.64.72.9,1.78-.54,1.36,0,2.13-2.58.72.07.21.66.4.95l1.56-.2.45.62a3.56,3.56,0,0,0,1.48-1.47c.3,1.42.58,2.77.87,4.12a3.92,3.92,0,0,1,.05,2.82c-.12.21.2.59.22.9a14.54,14.54,0,0,1-.05,1.47,0,0,0,0,0,0,0v0h0l.42-.3a2.48,2.48,0,0,1,1,1.83c.23,1.31.75,2.58,1,3.88s.21,1.19.59,1.67c.66-.43,1.31-.89,2-1.29.47-.28.86-.73,1.58-.42.24.1.75-.5,1-.66.53.08,1.06.31,1.42.16.67-.24.94.17,1.31.58,1-.79.88-1.94,1.05-3.22l1,2.75c1.6-.06,3.09-.38,3.8-2.27.05.46.11.93.14,1.26-.71.53-1.36,1-2,1.48-.29.24-.5.57-.91.18a.61.61,0,0,0-.48.07c-.6.41-1.17.85-1.76,1.27.72-.1.74.33.63.85l-.63-.85a3,3,0,0,0-.55-.66c-.42-.25-.9-.42-1.46-.68a4.26,4.26,0,0,1-3.82.7c-.39,1.61-2,.8-2.95,1.66-.23-1.11-.4-2.07-.61-3a5.15,5.15,0,0,0-.42-1.43c-.64-1.13-.83-2.41-1.39-3.56a0,0,0,0,0,0,0v0a6.51,6.51,0,0,1-.68-3.33,7.7,7.7,0,0,0-.41-2.43c-.17-.65-.7-.84-1.44-.71s-1.25.75-2,.32c-.27.8-1.05.26-1.49.55s-1.2.61-1.23,1c-.08.88-.6,1.9.16,2.67.31.33.95.34.73,1l0,0,0,0,.4-.07c-.08.14-.14.27-.22.4l-.18-.33h-.05v0c-.58.43-.16,1-.11,1.46a11.72,11.72,0,0,1,.39,3,8.13,8.13,0,0,0,.11,2.42h.62c.27,1.14.52,2.3.79,3.47l.7-.19c.42,1.86.88,3.72,1.23,5.58.12.64-.28,1.42.66,1.61v2.46c-.12-.21-.25-.41-.37-.61-1,.5-1.08.69-.56,1.44a6.81,6.81,0,0,1,.94,3l1.05.16-1,1a12.38,12.38,0,0,1,1.87,5.48l-1.1.52c.13.81.24,1.52.36,2.3.22-.15.42-.27.78-.49.18,1.24.35,2.37.51,3.51.35-.05.66-.11.94-.17a28.37,28.37,0,0,1,1.26-2.88c2.65-5.3,3.6-2.41,5.64-.19,1.54,1.67,1,4.46,3.87,10.32.86,1.77,1,2.94,1.62,5.83.42-.38,1.27-.52.67-1.34,1.1-.42,1.21-.56,1.14-1.8-.05-1-.13-2.06-.21-3.09,0-.08-.08-.22,0-.24,1-.84.69-2.23,1.41-3.17,0,0,.09,0,.25-.09a14.69,14.69,0,0,1,0,2.48c0,1-.95,1.29-1.18,1.92.28,1.32.51,2.54.82,3.73a2.14,2.14,0,0,1-.31,1.69,2.32,2.32,0,0,0-.31,1.77,41.18,41.18,0,0,1,.48,4.45,11.69,11.69,0,0,0,.21,1.34,2.07,2.07,0,0,1,.07,1.33,5.72,5.72,0,0,0,.06,1.74v.26c.3.91.68,2.17,1.19,4a44.13,44.13,0,0,1,1,4.48c.14.15.17.23.06.33.79,5.17.53,9.09,1.31,9.51.43.22.86.45,1.28.65-.05-.21-.11-.44-.16-.7a1.51,1.51,0,0,1,.69.94,5.68,5.68,0,0,0,2.11.51l.09,0v0h0c1.2,0,2.57.13,4.07.24,2.32-.69,3-1.73,4.22-3v-.06l0,0c-.1-.51-.18-1-.3-1.65.75.79.8,1.13.3,1.65v.06l0,0c.11,1.16.18,2.3-1.19,2.93l.09.23a32.45,32.45,0,0,0,6.61-.41c3.46-.61,10.56-.41,14,0,.51.07,1.07.12,1.66.16,0,0,0-.07,0-.1s.05-.07.08-.1a1.06,1.06,0,0,0,.11.21c1.56.11,3.34.18,5.1.18-.07-.22-.13-.43-.19-.69.48.19.7.37.64.69a44.69,44.69,0,0,0,6.06-.35c4-.58,10.46,0,13.94,0,.19,0,.37,0,.56,0l.11-.21s0-.05,0-.06l0,0v-.79c.28.56.29.58,0,.79v.06a0,0,0,0,1,0,0,1.29,1.29,0,0,1,.05.21c4-.44,7-4.45,5.69-8.1l-.3.65c-.22.46-.69.77-.67,1.41,0,.43-.42.5-.81.36.16.14.33.27.58.46-.25.2-.44.37-.66.56,0-.38.07-.7.08-1l0,0h0c.22-.37.48-.71.68-1.09s.33-1.1,1-1.53a4.73,4.73,0,0,0-.2-.47c-3.79-7.2-5-15.36-7.49-20.13A56.33,56.33,0,0,1,459.79,240a.92.92,0,0,0,0-.09c-.08.27-.17.55-.27.82,0,.54,0,1.1-.06,1.64a2.55,2.55,0,0,1-.37.83l-.27-.1c.24-.79.46-1.58.7-2.37-.09-.68-.1-.81.2-1.13a54,54,0,0,0-2.21-6.29c-.35-.15-.69-.31-1.05-.44-.21-.07-.52-.25-.62-.19-1,.66-1.9.08-2.85.07-.7,0-1.4,0-2.23.06.2-.93-.43-1.63.24-2.4s1.47-.08,2.1-.6c-.07.3-.13.59-.23,1a12.66,12.66,0,0,0,2.46.66c.35,0,.74-.47,1.13-.76-.56-1.35-1.06-2.59-1.42-3.54-.28-.76-.52-1.57-.78-2.46a1.42,1.42,0,0,1-.68.81,2.57,2.57,0,0,1-.72,2.68,17.14,17.14,0,0,1,.34-2.71,8.7,8.7,0,0,1,.79-1.66,33.11,33.11,0,0,0-3-7.58c-2.61-4.64-3.3-8.85-4.4-11.79-.07-.17-.14-.36-.21-.54a3.28,3.28,0,0,1-.35,1,7.68,7.68,0,0,0-.35,2.58c-.05.36-.15.7-.23,1.05l-.38-.07a33.34,33.34,0,0,1,.91-5.42,42.47,42.47,0,0,1-2.32-5.71,1.86,1.86,0,0,1-.54.15c-.09,0-.27-.19-.24-.24a.69.69,0,0,1,.28-.36,3.65,3.65,0,0,1,.47.36c-.1-.34-.18-.68-.27-1-.53.29-1.2-.15-1.74,0-.18.24-.44.17-.77-.21l.7.11c.11-.7.2-1.42.32-2.12s.28-1.48.41-2.21c-1.38-4.86-3.84-11.29-5.84-14.51a34.08,34.08,0,0,1-3.28-7.71v.12a19.74,19.74,0,0,0-.18,6.14c0,.28-.34.6-.59,1a9.51,9.51,0,0,1,.31,1,2.59,2.59,0,0,1,0,1,2.12,2.12,0,0,1-.58-1.74,26.44,26.44,0,0,1,.34-3.83,13.61,13.61,0,0,0-.09-3.42,7.92,7.92,0,0,1,.11-2.33c-.15-.51-.31-1-.47-1.54a2.66,2.66,0,0,1-2.06-1.31,3.42,3.42,0,0,0,1.27-.18.72.72,0,0,0,.26-.26c-.61-2-1.28-4.07-2.11-6.22a1.89,1.89,0,0,0-.81-.05,2.29,2.29,0,0,1-2.13-.62,8.63,8.63,0,0,0-1.4-.68,1.11,1.11,0,0,1,.12-1.75c.14.48.25.89.38,1.34,1.07-.07,1.75.7,2.52,1.43l1-.56c-.34-.85-.7-1.71-1.1-2.58-1.55-3.42-4-8.28-5.25-14.11-.52-2.38-2.26-5.37-3.52-8.68-.37-.6-.64-1.06-.92-1.53l-1.58.94c.42-1.65.81-3.18,1.19-4.69-.34-3.37-.39-6.75-8.51-2.2-1.38.79-4.51,1.66-5.85,2.53a17.89,17.89,0,0,1-5.79,2.48,5,5,0,0,0-2.69,2.15,45.23,45.23,0,0,1-6.06,8.45.75.75,0,0,0,0,.21,9.24,9.24,0,0,1,.29,1.57s-.13.1-.27.21a2.9,2.9,0,0,1-.35-1.6,43.72,43.72,0,0,0-3.65,4.87c-1.71,2.82-4.81,6.5-7.75,10.28a1,1,0,0,0,.25.13c.17.05.24.58.25.89a6.46,6.46,0,0,1-.15,1.55,5.6,5.6,0,0,0-.72-2.08,72.43,72.43,0,0,0-4.31,6.08c0,.26,0,.52.05.76a2.27,2.27,0,0,1-.25.06l-.09-.32-.19.31a81.19,81.19,0,0,1-4.6,6.93c.24,1.19.39,2.36,1.42,3.15Zm14.06,35c.84-.52,1.43-.47,1.78.17Zm2.2,12.77v-.11l.07-.07s.06.07.05.08l-.14.1Zm.49-13.16a1.41,1.41,0,0,1,.29-.25c0,.07.07.15.13.26l-.31.19c0-.07-.12-.18-.11-.21Zm.37,12.88.33.13-.24.57-.29-.14c.07-.19.14-.38.2-.57Zm.21,6.94c-.09-.1-.18-.19-.26-.29l.6-.45.17.14C386.51,226.92,386.35,227.12,386.17,227.32Zm3.63-12.88v-.54H390c0,.17.07.32.1.49Zm.66,1.28a1.48,1.48,0,0,1-.31-.25.52.52,0,0,1,.12-.18,2.17,2.17,0,0,1,.35.15c-.07.11-.1.19-.15.27Zm.91,4.78a4.33,4.33,0,0,1-.65-2.76l.8.58C391.46,219.09,391.41,219.77,391.37,220.5Zm2.4,12.91-.19-.09.19-.12s.09.05.08.06a1,1,0,0,1-.09.17Zm2.56.67c0-.17-.05-.3-.07-.43.07,0,.19.08.2.14s-.06.16-.14.29Zm74.55,37.6.15-.13c0,.09,0,.16.05.24l-.19,0s0-.1,0-.12Zm-.95,8s.09.05.09.08l-.09.2-.17-.16a1.92,1.92,0,0,1,.17-.13Zm-.92,1.07.25.19c-.16.47-.27,1-1.18,1,.39-.49.65-.83.92-1.18Zm-12,.85c-.07,0-.12-.07-.19-.11s.1-.17.12-.16a1.42,1.42,0,0,1,.23.14C457.14,281.51,457.09,281.59,457,281.59Zm1.89-1.52c-.44-.39-.71-.62-1.16-1a6.62,6.62,0,0,1,.72-.19c.14,0,.27,0,.51.07,0,.3,0,.59-.06,1.15Zm6.65-14.72.18.07a4.26,4.26,0,0,1-.15.47l-.27-.1C465.42,265.64,465.49,265.49,465.58,265.35Zm-.59.94.25,0c0,.24,0,.47-.05.7l-.27,0C464.94,266.75,465,266.53,465,266.29Zm-3.13-5.5v.1a.77.77,0,0,0-.19.05.59.59,0,0,0,0-.13Zm-.45,15.45-.11-.15s.06-.1.07-.09a.61.61,0,0,1,.18.09A1,1,0,0,1,461.41,276.24Zm.06-21.6c-.17.82-.29,1.44-.41,2.07A1.32,1.32,0,0,1,461.47,254.64Zm-1.35,22.13-1.29.35C459,276.66,459.45,276.54,460.12,276.77Zm-.91.81c-.08.87-.09.88-1.32.78Zm-.71-9.7a1.79,1.79,0,0,1,.09.21l-.25.09c0-.08-.09-.18-.07-.23a.31.31,0,0,1,.22-.09Zm-.51,3.48c-.07-.07-.11-.14-.17-.2s.1-.06.13-.05l.14.18-.09.07Zm-.2-1.89.26.28a2,2,0,0,1-.24.17.56.56,0,0,1-.19-.27S457.73,269.54,457.79,269.47Zm-.42,11.22-.12,0c.06-.13.1-.27.16-.4l.18.1a4,4,0,0,0-.22.34Zm.21-6.5-.33.95-.19-.06c.08-.32.16-.66.23-1l.29.08Zm-.37-23.29v0l-.43-.67c.54.05.54.05.43.67l0,0h0c0,.09.07.19,0,.24s-.21.35-.32.53a2.59,2.59,0,0,1-.3-.21,3.2,3.2,0,0,1,.34-.53c.05,0,.15,0,.23,0h0Zm-.19,1.83a.83.83,0,0,1-.23-.32.9.9,0,0,1,.08-.42s.23,0,.24,0a.93.93,0,0,1,0,.33,2.33,2.33,0,0,0-.06.35l-.55.43-.08-.15.63-.28Zm-.55,25.61-.15.27c-.07-.06-.2-.14-.19-.16a1.54,1.54,0,0,1,.21-.31l.14.2Zm-1.64-7.89c.95.34.37,1.65,1.46,2l-1.1.64C455.13,272.17,453.7,271.54,454.83,270.45Zm-1.18,2.09c.07.06.08.16.12.24a1.07,1.07,0,0,1-.21.13c0-.11-.09-.23-.12-.34S453.62,272.51,453.65,272.54Zm-.6-44c0,.13,0,.28-.06.41h-.09c0-.13,0-.28,0-.41Zm-26.88-73.28.21,0c0,.2-.08.4-.13.61l-.23-.05Zm-29.45,48.53.16,1C396.05,204.62,396.66,204.17,396.72,203.81Zm1.71-15.75c0-.06-.1-.14-.09-.2s.11-.09.16-.13a1.29,1.29,0,0,1,.17.16l-.24.18Zm.78-35,.61-.42c-.11.43-.19.73-.3,1.13l-.32-.72-.12-.75h.12v.75Zm.27,1.73a2.81,2.81,0,0,1-1.06,3.83C399.7,157.67,398.82,156.06,399.48,154.83Zm-.6,10.11.63,0c0,.1,0,.2,0,.31l-.63-.14A1.52,1.52,0,0,1,398.88,164.94Zm.27,2.94s.09-.11.19-.21c.07.13.12.25.18.35s-.17.08-.22.06a.3.3,0,0,1-.15-.21Zm.24.91.13,0v.35l-.17,0A2,2,0,0,1,399.39,168.79Zm.22,19-.13-.12.3-.28.1.08-.28.32Zm.47-16.4c.08.41.13.69.19,1C399.64,172.21,399.87,171.89,400.08,171.43Zm.77,33.27c0-.19-.06-.29,0-.36.22-.41.5-.48,1,.11C401.39,204.55,401.14,204.62,400.85,204.7Zm1.68-9.9c-.23-.31,0-1,.17-1.48,1.15,2.56,1,5.21.7,7.87h0l0,0v0c-.82-.1-.67-.74-.65-1.26,0-.78.15-1.56.21-2.34A3.75,3.75,0,0,0,402.53,194.8Zm.6,12.47c-.47-.54-.59-1.1,0-1.6Zm-.35-2.33c.73-.71,1.09-1.38.35-2.24-.42-.49,0-1,.28-1.47h0l0,0a.08.08,0,0,1,0,0c.24.73.52,1.45.69,2.2.22.92-.12,1.31-1.31,1.51Zm1.09,32,0,0,.05,0c0-.8-.07-1.62-.1-2.42s0-1.65-.11-2.48,0-1.37,0-2.05c-.05-.89,1-1.11,1.63-1.17a14.29,14.29,0,0,1,3.06.38c1-1-.38-2.49.6-3.67a1.87,1.87,0,0,1,.66,1.81,1.28,1.28,0,0,0,.51,1.64,1.2,1.2,0,0,1,.25.42l.62-.17v3.93h0l0,0h0a.78.78,0,0,1,0,.22c.08.43.63.82-.13,1.26,0-.42.09-.83.13-1.26a.74.74,0,0,1,0-.21v0c-.53-.07-.39-.46-.4-.81,0-1.13-.12-1.3-1.27-1.49a3.61,3.61,0,0,0-1.94-.12,4.9,4.9,0,0,1-1.82-.08c.32.38,0,.45-.27.52-1.11.37-1.06.37-1,1.44.06,1.28.06,2.56,0,3.83,0,.18-.25.35-.43.51V237h-.07c-.2.3-.41.59-.67,1,.18-.43,0-1,.67-1Zm3.65-14.07a.26.26,0,0,1,.11-.2c.05,0,.13,0,.2.07s-.12.2-.2.31c-.06-.08-.12-.14-.12-.19Zm1.22-.28a1.05,1.05,0,0,1,.17,1.56C408.85,223.53,408.8,223.17,408.74,222.58Zm.65-50.69a1.17,1.17,0,0,0-.2-.06,3.55,3.55,0,0,0,.09-.47c.08,0,.23.08.23.1a3.52,3.52,0,0,1-.13.43Zm0,.41c0,.07-.08.16-.13.18s-.15,0-.22-.06.07-.15.14-.18S409.31,172.28,409.39,172.3ZM409,167a6.32,6.32,0,0,1-.36-1.74,10.19,10.19,0,0,0-.38-1.54c-.21-.52-.66-1-.15-1.86.31.93,1.16,1.27.9,2.41-.21.85.27,1.86.45,2.8l.28,1.52c-1.29-.35-.47-1.11-.73-1.59Zm-.62-22.42c-.12,0-.33,0-.36,0-.65-1.43-.21-2.88-.1-4.33.17,1.47-.1,3,.47,4.39.05.17.09.33.15.49a.11.11,0,0,0-.08,0c0-.18,0-.35-.07-.53v0Zm1.27,13.19c-.1,0-.19-.16-.28-.25.09-.08.18-.22.28-.23s.18.13.32.24c-.15.11-.26.25-.33.24Zm-.25-5.92,1.06-.72c.15.3.35.67.56,1.06-.65.7-.87-.1-1.61-.34Zm.42-2a1.89,1.89,0,0,1,.27-.2,2.58,2.58,0,0,0,.12.28,1.57,1.57,0,0,1-.3.12S409.83,149.86,409.85,149.84Zm1.1-14.38a.88.88,0,0,1,.1-.22l.06.11a1.12,1.12,0,0,1-.1.22s-.07-.07-.07-.11Zm-.36,17.76.36,2-.27.06c-.07-.35-.13-.68-.19-1s-.14-.68-.2-1h.3Zm.35,2.77.77,0a2.78,2.78,0,0,1-.07.36c-.25,0-.5-.07-.74-.11l0-.29Zm2.42,53.3c-.74-1.08-.53-2.19-.82-3.15-.24-.77.4-1.81-.79-2.36.65-.4,1.24-.4,1.19.27C412.83,205.75,413.5,207.36,413.36,209.29Zm-.24-30.08V179l.44.08s0,.11,0,.11h-.43Zm-2,48.56h.24l-.06.11H411a.38.38,0,0,1,.05-.11ZM411,179.38l.37-.25c.11.21.2.38.28.56-.11.05-.27.17-.31.15s-.23-.3-.36-.46Zm.51,55.71a4,4,0,0,1,.21,2.69c-.24-.83-.42-1.48-.64-2.22A4.52,4.52,0,0,1,411.48,235.09Zm.36-42.37v-.8C412.43,192.18,412.32,192.43,411.84,192.72Zm.39,1.4v.7l-.24,0c0-.22.05-.45.07-.67h.17Zm-.28,2.43v2.13l-.17-.07v-2.05H412Zm-.09,3.25c.51.62.84,1.23-.14,1.87C411.78,200.94,411.81,200.37,411.86,199.8Zm0-19.22c0-.12,0-.26-.09-.38l.87-.12c0,.1.05.2.07.3l-.85.21Zm.25,9.94-.39,0c-.07-.58-.14-1.16-.24-1.93a1.51,1.51,0,0,1,.62,1.89Zm-4.24,75.74.22-.09a1.2,1.2,0,0,1,.07.26l-.33,0C407.88,266.39,407.87,266.29,407.91,266.26Zm-.1-30.37a1,1,0,0,0,.17,0l.06.43-.14,0C407.87,236.17,407.84,236,407.81,235.89Zm-5.19-9.46c.15.73.26,1.32.37,1.9C402,227.68,402,227.42,402.62,226.43Zm-2.69-11.83v1.15a.63.63,0,0,0-.19,0c-.05-.38-.11-.76-.16-1.13l.36,0Zm1.81,11.91c-.66-.31-.48-.87-.46-1.26a1.29,1.29,0,0,0-1.07-1.58c-.22-1.45-.38-2.86-.68-4.25a2.2,2.2,0,0,1,.34-1.95,7,7,0,0,0,.55-1.35,1,1,0,0,1,.06,1.5,1.88,1.88,0,0,0-.28,1.69c.16,1.3.28,2.59.41,3.89l1.19-.22c-.42,1.23.59,2.35-.06,3.52Zm.31,3.11,1.15.12C402.83,230.19,402.49,230.39,402.05,229.62Zm.91,11c.32,1,1.28,1.91.22,3.25a26,26,0,0,0-.61-2.6,1.28,1.28,0,0,1,.63-1.76c.38-.23.74-.47,1.11-.72l.21.25c-.51.52-1,1-1.56,1.57Zm2.23,26.83s-.21-.22-.19-.25a1,1,0,0,1,.35-.34c.09,0,.24.07.48.16A7.58,7.58,0,0,1,405.19,267.45Zm1.31.48a1.3,1.3,0,0,1-.28-.22s.12-.24.18-.24a.53.53,0,0,1,.29.14,2.47,2.47,0,0,1-.19.33Zm.33,5.95c-.05-.08-.09-.16-.13-.24.17-.12.32-.33.5-.35.59-.09,1.19-.11,1.79-.16h0l1-.4h.06a1.2,1.2,0,0,1,.24-.29c.07,0,.22.05.57.17-.42.06-.62.08-.81.12l0,0,0,0s0,0,0,0l-1.07.38h0l-2.16.75Zm2.7,2.13a3.3,3.3,0,0,1,1,2,5.24,5.24,0,0,0,.42,1.5,2,2,0,0,1-.32,2.11c-.35-1.79-.69-3.57-1.08-5.59Zm1.35,7.11a5.48,5.48,0,0,1,.05-.57h.23c0,.19,0,.38,0,.57Zm.62-25.37s-.09,0-.12,0,0-.06,0-.1l.12-.05Zm0,3.31.08-.18c0,.19,0,.31,0,.44Zm.19-11.84s-.07-.06-.07-.08a.45.45,0,0,1,.1-.14c0,.06.1.1.14.16a.48.48,0,0,1-.18.06Zm.15-10c0-.07,0-.17.07-.25,1,.45,1,.47.23,1.26C412,239.81,411.93,239.52,411.86,239.22Zm.53,28.33a1,1,0,0,1-.06-.27s.09-.08.14-.13a.74.74,0,0,1,0,.25C412.52,267.45,412.44,267.5,412.39,267.55Zm.06-14.15s0-.08,0-.12.06,0,.1-.05l0,.1-.1,0Zm.68,12.22a1.78,1.78,0,0,1,.23-.31s.14,0,.56,0l-.79.32Zm2.46-23.3c-.25.08-.58-.1-.87-.14a1.77,1.77,0,0,0-.6,0c-.89.19-.89.2-1.8-.45.12-.23.23-.69.38-.69.74,0,.93-.27,1-1.09s.73,0,1.26,0l-.56.77.84.39a4.67,4.67,0,0,0,1.9-4.06c0-1.1,0-2.2,0-3.37,1,1,.67,2.18.53,3.31,0,.18-.23.42-.18.5.55.67.07,1.42.22,2.11s0,1.25.64,1.71c.21.14,0,.85,0,1.31-.2,0-.38.06-.47,0a2.58,2.58,0,0,0-2.31-.22Zm-1.79-62.6h1.71Q414.82,180.41,413.8,179.72Zm1.74,35.73.3-.19c0,.08.12.18.1.21s-.15.15-.23.22S415.62,215.55,415.54,215.45Zm1.55,17.23.37-.54.17.1c-.13.2-.24.4-.36.61l-.18-.18Zm1.33-36c-.07-.16-.19-.29-.16-.36s.21-.16.33-.24c0,.11.14.23.13.33S418.55,196.6,418.42,196.71Zm-1.9,67.58a1.8,1.8,0,0,1,0-.2.23.23,0,0,1,.12,0,1.07,1.07,0,0,1,.1.22c-.08,0-.16,0-.21,0Zm1.4-20.66c.06,0,.13,0,.2,0,.12.58.24,1.17.39,1.84h-1.3c.27-.72.49-1.3.72-1.88Zm-.33,5.6v-3c.72.13.58.55.48.85a3.09,3.09,0,0,0,.62,3.13c0,.62-.1,1.16-.09,1.69,0,1.33.09,2.67.21,4a4.29,4.29,0,0,0,.52,1.22l-.9,1.05v0c.17,0,.42,0,.45,0a2.93,2.93,0,0,1-.34,2.57c0,.09-.33.07-.71.13.22-1,.41-1.86.61-2.72h0l0,0a3,3,0,0,1-.4-.95c-.1-1.52-.1-3-.21-4.55,0-.28-.37-.55-.61-.87a5,5,0,0,0,.37-2.58Zm.07,16.14c0-.1.11-.26.18-.39.17-.4.79-.85-.16-1.08.11-.5.22-1,.35-1.61,1.09.41,1.15.57,1,2.53l.68.05c0,.07,0,.18-.07.19-.85.12-.91.77-1,1.42a5.88,5.88,0,0,0,.29,2.82,4.93,4.93,0,0,1,.11,1.16,1.46,1.46,0,0,1-.84-1.54A10.73,10.73,0,0,0,417.66,265.37Zm.74,6.17,0,0,0,0h0a.29.29,0,0,0,.1,0c.09-.07.18-.15.27-.21a.54.54,0,0,1,.06.11l-.34.1-.05,0c.75.46.89,1.19.94,2.21-.9-.68-.68-1.54-.94-2.21Zm1.08,7.83c0-.19-.06-.38-.08-.57l.17,0c.05.19.11.38.17.56l-.25,0Zm-.2-1.2c0-.7-.07-1.17-.1-1.64A1.14,1.14,0,0,1,419.28,278.17Zm1.16-12.85-.12-.12s.06-.08.09-.08a.56.56,0,0,1,.21.06A.79.79,0,0,1,420.44,265.32Zm1.2,0c0-.1-.07-.21-.12-.31l1.67-.46a1.43,1.43,0,0,1,.08.22C422.72,265,422.18,265.18,421.64,265.35Zm2.42.12-.14-.17.57-.55c.05.07.11.12.16.19l-.59.52ZM426,281q-.24-1.38.63-1.65Zm1.15-15.2c-.12,1.07-.25,2.08-.37,3.09h-.29c-.34-1.12,0-2.28-.12-3.4l-1.32-.19c.78-.63,1.24-.87,1.4.11,1.29-.12,1.51-1.17,1.86-2.11a3.73,3.73,0,0,1,.47-1.06C429.12,263.88,428.07,264.86,427.11,265.78Zm.4-27.59a.5.5,0,0,1,.15-.34s.2.08.34.14c-.1.15-.14.29-.23.36S427.51,238.24,427.51,238.19Zm1.22,23.91c-.65-.9-.37-1.42.19-1.87C428.86,260.76,428.8,261.28,428.73,262.1Zm1.19-1.7a1.37,1.37,0,0,1-.24-.18l.35-.51.17.09C430.11,260,430,260.2,429.92,260.4Zm.63-5.74a7.79,7.79,0,0,1-.21,1.19c0,.08-.34.07-.54.09v0a3.06,3.06,0,0,1,0,2.78v-2.8c.08-1.71.17-3.43.24-5.21a6.71,6.71,0,0,1,.5,3.93Zm-.37-7.18c0,.13,0,.26,0,.38.1.58.63,1.17-.12,1.83.05-.67.09-1.25.12-1.83A.71.71,0,0,1,430.18,247.48Zm1.25,23.81a6.25,6.25,0,0,1-.16-.62,2.1,2.1,0,0,1,.35-.11v.72c.15.27.32.55.48.81l-.27.13-.4-.94Zm0-3.93h.18l.05.53-.2,0c0-.18,0-.36,0-.54Zm1.31,5.4c-.13.71-.25,1.36-.39,2.1C431.86,273.5,431.92,273.2,432.75,272.76Zm-.34,4.07,0-.66h.14l-.1.66.44.13-.05.12-.38-.25Zm.29,6.65-.15-.64.24-.06c0,.21.09.44.13.65Zm.13-1.19c.2-.79.36-1.37.5-2C433.2,280.92,433.66,281.69,432.83,282.29Zm-.28-4.46,1,1.4C432.32,279.43,432.86,278.27,432.55,277.83ZM436,250.24A.48.48,0,0,1,436,250c0-.05.12-.09.19-.13s0,.15.07.24l-.2.15Zm2.76-2.91c.06.45.1.83.16,1.22C438.45,248,438.4,247.62,438.8,247.33Zm1.21,4a3.83,3.83,0,0,1-.24-.59l.34-.07a5.29,5.29,0,0,1,.25.54c-.12,0-.34.14-.35.11Zm.28-4.69c.06,0,.15-.07.2,0s.08.13.13.18-.16.07-.22,0S440.32,246.72,440.29,246.67Zm1.72,9-.46.92c-.11-.05-.2-.11-.32-.16.15-.32.28-.62.43-.93l.34.17ZM442,240.6c.05-.2.1-.4.16-.59l.22.06-.17.6a1.66,1.66,0,0,0-.21-.06Zm-1,11.81a1.65,1.65,0,0,1-.29-.39l.39-.24c.09.13.17.27.28.45-.18.09-.35.21-.38.17Zm-.3,27.47h-.21c0-.22.11-.46.17-.68l.13,0c0,.22-.06.46-.08.68Zm1.35,2.86h-.09v0l-1,.09.91-.73c.06.29.1.46.13.64h0l.07,0h2a2,2,0,0,1-2,0ZM443,240.29a2.18,2.18,0,0,1,.09-.23l.16.19c-.06.05-.13.09-.18.14s-.08-.08-.08-.1Zm.29,11.94v-.13a.41.41,0,0,1,.13.08s0,.08,0,.12-.08,0-.08-.05Zm2.8,31.29a5.33,5.33,0,0,1-.75-.3,2,2,0,0,1,.15-.44c.18-.36.38-.7.58-1.06a3.39,3.39,0,0,0,.41,1.7c-.13,0-.27.13-.38.1Zm1.27-5.2h-.09v-.41h.13l0,.4Zm.53-3.9h-.09c0-.11,0-.23,0-.34h.08c0,.11,0,.23,0,.34Zm.55-6.54-.21-.24.42-.19c-.07.15-.14.29-.19.43Zm.28-24.69c0,.05-.15.06-.24.1s0-.16,0-.2a1,1,0,0,1,.22-.13C448.75,243,448.8,243.14,448.76,243.19Zm.95-2.12-.2-.08c.08-.25.17-.49.25-.73a2.07,2.07,0,0,0,.24.17c-.1.21-.19.43-.29.63Zm-3.34-25.42c.07,0,.19.1.54.32a1.71,1.71,0,0,1-.48.15c-.1,0-.19-.12-.29-.2.08-.1.14-.24.23-.28Zm-1.85-5.06c.06.08.13.15.18.23l-.52.39c-.05-.06-.14-.19-.13-.21l.46-.41Zm-1.18,12,.2.13-.38.61-.24-.2.43-.54Zm-.87,1.43h.18v.58h-.21C442.45,224.46,442.46,224.25,442.47,224.07Zm.06,3.46v-.46h.05c0,.15,0,.3,0,.45s-.21.66-.1.87c.47.82.09,1.48-.31,2.44-.23-.8-.38-1.37-.53-1.9.32-.49.63-1,.93-1.42Zm-.45,5.42-.19.14c-.05-.09-.12-.19-.18-.28s.08-.07.09-.05a2.12,2.12,0,0,1,.28.2Zm.24,2.57c.05.88.1,1.66.14,2.45h0c.94-.43.93-.45.65-1.42a1.43,1.43,0,0,1,.06-.76c0-.05.42-.1.48,0a1.11,1.11,0,0,1,.22.65c0,.55-.07.55.6,1.36a11.53,11.53,0,0,1,1.49-.2,1.84,1.84,0,0,1,.83.29,8.51,8.51,0,0,0,1.45.78c.52.13.81-.21.92-.78.23-1.28.53-2.54.82-3.79,0-.15.17-.29.48-.37-.15.93-.32,1.87-.44,2.81s-.23,2-.35,3.17c-1.3-.26-2.68-.29-3.79-1.39-.8,1.16-1.93.45-2.94.5-.13,0-.31-.53-.47-.82l0,0v0c-1-.14-1.08.5-1.06,1.32-.34-.14-.62-.25-1-.42.66-1.14,1.26-2.2,1.92-3.35Zm-2.53-39.84.25.12a.44.44,0,0,1-.15.12s-.11,0-.11,0A1.41,1.41,0,0,1,439.79,195.68Zm-4-.73c-.26.51-.56.59-.92.42,0-.12,0-.26,0-.38Zm-1.18-19.85s.07,0,.06.06a1.77,1.77,0,0,1,0,.21s-.08,0-.08-.05A2.25,2.25,0,0,1,434.66,175.1Zm-1.57,22.46a3.26,3.26,0,0,0,.17-.65c.09-.29.18-.59.26-.87.29.43.21.72-.26.87,0,.35.1.68.14,1h0s0,0,0,0c.33.2.5.46.22,1a.74.74,0,0,1-.22-1h0v0c-.25,0-.55.09-.31-.38Zm.66,13.16-.14.06c-.05-.15-.11-.29-.16-.45l.15-.07Zm-.42-11.44v.43h-.09v-.43Zm1.83,44.6a17.26,17.26,0,0,0,3.3-.25c-.08.37-.15.67-.28,1.29a15.63,15.63,0,0,0,1.63-1.1c.6-.55.54-.83-.26-2.12.36-.39.09-1.3,1.08-1.28.11,1.7-.58,3.35.08,5a5,5,0,0,1-1.48.83c-.42.08-.9-.27-1.35-.38a8,8,0,0,0-1.35-.26,3.16,3.16,0,0,1-1.59-.35,1.28,1.28,0,0,0-1,0c-.27.09-.47.52-.73.53-1.11.06-2.24,0-3.36,0-.06-1.83,1.14-2.15,2.44-2.38.69,1.24,1.9.39,2.86.51Zm-4.51-56.82c.09.11.16.22.25.35l-1,.56c-.06-.08-.11-.17-.17-.26l.9-.64Zm-.6-11.57.27-.13c0,.06.07.15.05.2s-.14.09-.2.13l-.12-.19Zm2,6.35h.25c0,.21,0,.42-.05.63h-.18v-.63Zm.09,1.15c.06,0,.16.13.15.18s-.11.11-.25.22c.06-.19.08-.29.11-.4Zm-.39,3.71c.06.07.11.14.17.2l-.44.38-.13-.14Zm-.86-14.4c0,.07.06.12.08.19l-1.12.42a1.55,1.55,0,0,1-.08-.23l1.12-.37ZM430,159.86c.14.87.3,1.74.44,2.61C429.6,161,429.52,160.64,430,159.86Zm-.9,77.55c-.07.87,1.06.66,1.1,1.56a9.07,9.07,0,0,1-.27,1.92h0l0,0,0,0a0,0,0,0,0,0,0c.59-.21.6-.18.52.57l0,0h0c-.3.25-.44.25-.64-.06l.64.06h0l-.53-.57-.05,0v0c-.59-.15-1.18-.3-1.68-.41-.45-1.35.57-2,.86-3.07Zm-.5-15.53c.08.07.18.12.18.15a.33.33,0,0,1-.13.19c-.06,0-.15,0-.21,0s.11-.19.17-.3Zm-.85,2.45a14.59,14.59,0,0,1-.06,3,1.76,1.76,0,0,0,.59,1.7c-.42,0-.75.09-.83,0-.24-.31-.61-.73-.54-1,.2-.89-.26-1.8.38-2.7.29-.43-.1-1.31-.17-2a7.8,7.8,0,0,1,0-3.5,2.71,2.71,0,0,0-.06-1.35,2.63,2.63,0,0,1,.72-2.73c-.05.35-.09.71-.15,1.05a5.87,5.87,0,0,0-.14.68C427.54,219.77,427.66,222.06,427.73,224.33Zm-.28,8.39c0-1-.55-2.06-.06-3.34C427.94,230.64,428.2,231.66,427.45,232.72ZM427.11,213c-.06-.1-.1-.2-.16-.29s.17-.1.19-.08a.88.88,0,0,1,.14.23l-.17.15Zm.07,1.94c-.05-.3-.09-.56-.14-.88C427.39,214.42,427.44,214.71,427.18,215Zm.2-18.78c.14.74.25,1.13-.48,1.35C427.07,197.09,427.18,196.78,427.38,196.2Zm-.49,4.58c0-.08.16-.12.25-.18a1.24,1.24,0,0,1,.06.37c0,.05-.12.08-.23.15,0-.13-.11-.25-.07-.34Zm.06,8,.61.31-.11.26h-.75c.1-.21.18-.39.25-.55Zm.45,25.06c.17.87.32,1.72.46,2.47-.34.29-.64.54-1,.87A3.32,3.32,0,0,1,427.4,233.87Zm-.25,6.47v1.06C426.52,241,426.5,240.7,427.15,240.34Zm-.21,1.1c.71,1.5-.13,2.8.14,4.21-1.29-.13-2.45-.33-3.61-.34s-2.29.19-3.44.3c-.09-1.28.71-2,1.46-2.84.06.32.11.52.16.81l1.79-.45.27.59c.52-1,.59-1,1.57-.72a3.28,3.28,0,0,0,.94,0c.22-.48.42-.94.71-1.57Zm-5.83-31.91.88-.4C421.88,209.61,421.71,210,421.11,209.53Zm4.68,0-2,.5A1.39,1.39,0,0,1,425.79,209.54Zm-2-36.21-.53.23a1.74,1.74,0,0,1-.1-.19l.51-.29C423.69,173.16,423.72,173.25,423.76,173.33Zm-.27-17.68c-.11,1.41-.2,2.59-.3,3.83l-.92.36s0,.08,0,.1a.73.73,0,0,0,.09.08h0l0,0a8.07,8.07,0,0,1-.21,3.17.11.11,0,0,0,0,.07l0,0a10.81,10.81,0,0,1-.08,5.33c0-.29,0-.58,0-.86a3.89,3.89,0,0,0-.29-2.4,1.91,1.91,0,0,1,.36-2.07v0h0a0,0,0,0,1,0,0,3.45,3.45,0,0,1,.21-3.17v0h0c-.32-.12-.63-.22-.5-.71a5.18,5.18,0,0,0-.23-2.27,12.66,12.66,0,0,1,.12-3.78c.63,1.15-.2,2.46.4,3.77l1.31-1.37Zm-1.81-4.77c.55.21.72.4.48.93-.12.23.13.63.22,1C421.56,152.54,421.33,151.91,421.68,150.88Zm.24-1.34.12,0s0,.09,0,.12-.05,0-.09,0,0-.09,0-.1Zm-.23-3c.2.61.4,1.19.62,1.88C421.34,147.9,421.15,147.28,421.69,146.53Zm.35-.72h-1.42l1-1.09c.19.47.3.76.45,1.09Zm-1.41-4.44,0,.09,0-.07h.06Zm-.81,38.56a.67.67,0,0,1,.29.15l-.24.34c-.11-.14-.2-.22-.21-.32s.11-.18.16-.18Zm-.2,7.24c.12-.86.11-1.84,1.07-2.33,0,0,0,0,0-.06h0a6.58,6.58,0,0,0,.05-3.88,5,5,0,0,1,0-1.44,6.18,6.18,0,0,0,.24-1.08,2.46,2.46,0,0,1,1.3-2.24c0,.2.12.44.06.5-1.24,1.05-1,2.48-1,3.82,0,1.17.33,2.34,0,3.52-.12.39-.07.83-.64.81v0s0,0-.05,0c-.25.71-.34,1.4.41,1.93a.55.55,0,0,1,.12.89h.09l.53-.07v.19l-.52-.12a.18.18,0,0,0-.1,0,0,0,0,0,1,0,0c-.57.3-1,.68-.8,1.41a.57.57,0,0,1,0,.41c-.78,1.2-.53,2.56-.54,4.09a3.05,3.05,0,0,1-.49-2.92c.45-1.2.13-2.33.28-3.48Zm-.5-51.76h.17v.74a2,2,0,0,1-.24,0c0-.25.05-.48.08-.73ZM418,180.16l1-.12a1.14,1.14,0,0,1,0,.26l-1-.14h0l-.33.38a.71.71,0,0,1-.09-.07,4.23,4.23,0,0,0,.42-.32h0Zm-.68-15c0,.14.07.26.1.4s-.07,0-.1.05c-.06-.13-.11-.27-.17-.39a1,1,0,0,0,.18-.06Zm.07,44.12a2.88,2.88,0,0,1,1.06.18c-1.37.92-2.66,1-3.53.16l1.62-.77c-.05.34-.08.63-.13,1.1C416.78,209.68,417,209.38,417.35,209.32Zm-1.15-56.69-.18,0c0-.2-.08-.4-.11-.6l.3,0v.59Zm-3.5-28.55a.6.6,0,0,1,.07.2,2.36,2.36,0,0,1-.16.51C412.66,124.36,412.67,124.23,412.7,124.08ZM410,130a5.29,5.29,0,0,0,1.82-.79c.43-.45.52-1.2,1-1.83.09.8.17,1.61.24,2.34l3.06.56c0,.62-.2,1-.88.87-1-.19-2-.07-2.9-.69a1.41,1.41,0,0,0-2,.36.09.09,0,0,0,0,.05l-.15.14c-.32.61,0,1.28.07,2.05-.67-1-.67-1.5-.07-2.05,0-.06.06-.11.1-.18l0,0-.32-.81Zm-.4,4.59.46,0c.36,1.57-.53,3-.8,4.52-.12-.19-.37-.39-.34-.56C409.16,137.21,409.4,135.89,409.64,134.56Zm-.55,17.25s0,.07,0,.12l-.17-.19.07-.11A.83.83,0,0,1,409.09,151.81ZM407.54,139l1.41.56A1.23,1.23,0,0,1,407.54,139Zm-.05-.87h.8l0,.37-.8-.12A1.13,1.13,0,0,1,407.49,138.13Zm1.31,48.51c.05.05.15.2.26.35.1-.09.27-.15.3-.25a3.76,3.76,0,0,0,.27-1c0-1.56,0-3.12.06-4.68,0-.89-.15-1.89,1-2.21v0l0,0,0,0v0c-.8-1.5-.38-3.09-.42-4.64.12,1.55.82,3,.42,4.64a.08.08,0,0,0,0,.05s0,0,0,0c-.12.61-.57,1-.5,1.84.2,2.34.07,4.72.07,7.2l-7.66,1.2c.12,1.17.25,2.38.38,3.6l-.27.08a2.13,2.13,0,0,1-.29-.47,11.94,11.94,0,0,0-.19-1.22c-.31-1,.08-2.25-1.18-2.9-.23-.12-.26-.64-.28-.71a14.23,14.23,0,0,0,.21-2.23c-.14-2.46-.36-4.9-.52-7.34a3.82,3.82,0,0,1,.21-1.09.52.52,0,0,0,0-.11l0,0c0-.71,0-1.43,0-2.14s0-1.42,1.09-1.65c-.77.6-.58,1.27-.45,1.92s.15,1.42-.59,1.88v.07a.31.31,0,0,1,0,.08c.2,1.18.46,2.36.59,3.56s.21,2.46.27,3.69c.05,1,0,2,0,3l1-.32v.6l2.53-.21c.29.19.67.45.95.62l2.72-1.13Zm-7.16-31.1s.07-.11.11-.18l.07.12c0,.07-.05.15-.07.23s-.1-.12-.1-.18Zm.48-3.62c0-.54,0-.82.06-1.19C403,151.08,402.69,151.4,402.12,151.92Zm1.67,5.41-.71.76C402.92,157.51,403.16,157.26,403.79,157.33Zm1.59-3.5-1.33-.8c.44-.25.76-.45,1.33-.8Zm-.43-3.61h.18v.58h-.23c0-.2,0-.39,0-.59Zm-.56-12c0,.9-.66.53-1,.54Zm-1.17,15.62c.09,0,.19.14.33.25-.14.11-.24.25-.34.25a.34.34,0,0,1-.2-.26.33.33,0,0,1,.23-.24Zm-.1,1.92a.54.54,0,0,1,.33.38c0,.61-.49.5-1,.54C402.41,156,402.57,155.65,403.12,155.75Zm-1.39-25.7c.09.71.71,1.26-.17,1.75C402,131.26,400.5,130.76,401.73,130.05Zm-1.6,8.31a4.61,4.61,0,0,1,1.07,0,2.28,2.28,0,0,1,.82-2.24c.28.21.59.44.76.58v2.63c-.58-.19-1.32-.47-2.07-.65-.23,0-.53.13-.8.22a.06.06,0,0,1,0,0h0c.05.45.13.9-.59,1-.34-.67.13-.84.59-1v0h0c.07-.19.11-.48.22-.52Zm-.77,2.64s-.05.08-.06.08l-.2-.08a1.22,1.22,0,0,1,.12-.19c0,.05.1.11.14.17Zm.36-3.75h.09v.23h-.1v-.23ZM399.3,133c-.14-.89-.23-1.51-.31-2.14C399.65,131.11,399.76,131.59,399.3,133Zm-.36.83a.41.41,0,0,0,.06.1.7.7,0,0,0-.09.17s-.06-.08-.05-.1a.7.7,0,0,1,.09-.17Zm.06,10.78c.07-.56.08-1.12.12-1.68l.37,0c0,.68.06,1.36.12,2.05a1,1,0,0,1-.95,1.22c.12-.58.27-1.11.35-1.63Zm.33,4c-.16-.84-.27-1.41-.42-2.24A2.34,2.34,0,0,1,399.33,148.63Zm-.42.78h0l.77-.26a2.61,2.61,0,0,0,.06.27h-.85c.39.69-.12,1.1-.67,1.49.22-.5.44-1,.67-1.49Zm-.82,6.75c.05.07.14.19.11.22a.44.44,0,0,1-.25.19,1.8,1.8,0,0,1-.18-.21,2.69,2.69,0,0,1,.32-.19Zm-1.49,9c.47-.49,1,.41,1.57-.08,0,.27,0,.56.05.89h-1.7c0-.29.06-.55.09-.81Zm-.2,37.56c0,.07.12.14.12.19s-.08.15-.12.21-.13-.13-.13-.21.08-.13.13-.2Zm-2.28-36.79.66.23a1.17,1.17,0,0,1,0,.2l-.69-.07c0-.12.06-.24.08-.35Zm-13.55,15.94-.26-.8.3-.08.09.84-.13,0Zm-.35-2.05c0-.29.06-.58.08-.87a3.16,3.16,0,0,1,.32,0l-.08.87C380.43,179.84,380.33,179.82,380.22,179.81Zm-.12-2.12c-.57-1.09-.51-1.22.61-1.25a0,0,0,0,1,0,0l.07,0,1-1.35c.2.85.1,1-1,1.35,0,0,0,0,0,.05h0c-.2.4-.4.8-.61,1.25Zm1.7,6.61h0c-.17-.06-.46-.11-.5-.22a11.66,11.66,0,0,1-.24-1.38c.68.83.7.86.73,1.6h0v0c.09.44.18.9.29,1.46-.55-.59-.57-.61-.29-1.46v0Zm.32,2.32-.07.12s-.08,0-.09-.06a.56.56,0,0,1,0-.13l.16.06Zm-.07,1.48c0,.57.07.93.1,1.49C381.38,189,381.78,188.68,382.05,188.1Zm1,6.27c-.26-1.55-1.29-3-.58-5,.33,1.79.61,3.35.88,4.91l-.3.05Zm3.21-31.24h-.16c0-.16,0-.31,0-.46h.14v.47Zm.55,2.21c-.06-.24-.12-.46-.18-.69a.92.92,0,0,1,.23-.09l.12.74-.17,0Zm.66.59c.09.38.19.76.26,1.14s.11.7.17,1.08c-.81-.59-.82-.65-.44-2.22Zm2.35,2.87.08-.05c0,.08,0,.15,0,.23s0,0-.06,0a1,1,0,0,1,0-.23Zm.06,3.47v-1.62l.2,0,.19,1.63-.4,0Zm.79,12.49c.18-.75-.76-1.44.09-2.36.12.89.2,1.63.29,2.36Zm2,12.06c-.19,0-.38,0-.58-.08h0c0-.28-.07-.54-.11-.82h.24c0,.26-.08.53-.13.81h0l.59,0v.13Zm.64-50.41-1.49.39C392.36,146.23,392.58,145.78,393.33,146.41Zm-1.43,48.43-.19,0c-.07-.24-.14-.5-.21-.75l.29,0C391.82,194.36,391.87,194.6,391.9,194.84Zm-.24-48.12,0,.19-.55.21-.06-.28C391.29,146.8,391.46,146.75,391.66,146.72Zm-.21,30.95a3.27,3.27,0,0,1-.35,1.67c-.13-.65-.24-1.29-.36-1.94v-1.69c.71.62,0,1.12,0,1.69.34-.17.69-.2.7.27ZM390.73,162a1.89,1.89,0,0,1,0,.23l-.07,0a.86.86,0,0,1-.07-.21.31.31,0,0,1,.09-.05Zm.09,11.68c.08,0,.23.09.22.11a4.11,4.11,0,0,1-.17.57l-.26-.11c.06-.19.14-.37.21-.56Zm-3.33-26.09v0h.05c.21-.43.53-.31.86-.17h.05c-.47-1.47.39-2.9.14-4.38,0-.19.25-.44.5-.82.32,1.82-.7,3.46.06,5.06l-.69.14v0l0,0-.86.17s0,0,0,0h0a6.82,6.82,0,0,1,.17,3.44l-.59-2.95c-.07-.36.07-.51.42-.49Zm-2.23,10.64.35.17-.23.29a3,3,0,0,1-.22-.28s.09-.18.11-.18ZM383,159.85c.51-.95,1-.25,1.42,0,.95-.36,1.83-.72,2.73-1a1.48,1.48,0,0,0,1.06-1.75c-.23-1.81-.4-3.62-.47-5.43a19,19,0,0,1,1.07,7.16h0l.12.08c.32,0,.71,0,.72.5l.05,0,.7-.58v1.76c-.34-.56-.53-.88-.7-1.18a.08.08,0,0,0-.05.05v-.08l-.72-.5a.38.38,0,0,1-.16-.05v0c-.64-.11-.56.9-1.34.79-.47-.07-1,.42-1.53.66.11.51.24,1,.36,1.59a1.58,1.58,0,0,1-.36-1.59l-4.23.33c.36-.29.54-.94,1.29-.7Zm-2.46.53-1,.27C379.72,159.72,380.22,160.22,380.54,160.38Zm-1.12-2.45c.68.36.49.65,0,1.06ZM378,160.18c0-.56.07-1.12.1-1.79.7.25.41,1.27,1.13,1.5-.32,0-.62-.12-1-.2a9.55,9.55,0,0,0,1,4.64c.16.42.3.84.43,1.27a6.89,6.89,0,0,0,.57,1.8,4.59,4.59,0,0,1,.76,3,15.12,15.12,0,0,0,.14,1.64c0,.21,0,.42.06.64,0-.22-.05-.43-.08-.64-.64-.06-.58-.69-.51-.93a4.2,4.2,0,0,0-.75-3.38,1.39,1.39,0,0,1-.19-.36,34.31,34.31,0,0,1-1.71-5.93,8.65,8.65,0,0,1,.06-1.24ZM371.89,167c.05.39.11.77.16,1.16l-.24,0-.18-1.16.27,0Zm-1.4,3.85a1.48,1.48,0,0,1,.17.33,2.83,2.83,0,0,1-.37.22Zm-.59,3.58.1.18a.86.86,0,0,1-.07.1.84.84,0,0,1-.09-.19s.05-.06.07-.1Z" transform="translate(-305.17 -122)"/><path class="cls-1" d="M365.78,172.36c.45-.72.87-.14,1.34,0a4.32,4.32,0,0,0-.13-2.14c-.54.71-1.09,1.42-1.63,2.09A.69.69,0,0,0,365.78,172.36Z" transform="translate(-305.17 -122)"/></g></svg>