<svg id="Layer_1" data-name="Layer 1" xmlns="http://www.w3.org/2000/svg" viewBox="0 0 222.6 104.32"><defs><style>.cls-1{fill:#131313;}</style></defs><title>K</title><g id="K"><path class="cls-1" d="M239.36,303.06l0,0Z" transform="translate(-58.77 -297)"/><path class="cls-1" d="M224.78,306.62l0,0Z" transform="translate(-58.77 -297)"/><path class="cls-1" d="M149.64,328.94V327.4h1.56c-.2.8,1,1.21.34,2.05l.93-.31-.28-.51a3.55,3.55,0,0,0,.74-.12.45.45,0,0,0,0-.38c-.46-.38-.9-1-1.42-1a32.2,32.2,0,0,0-3.73-.15c0,.36.09.63.13,1H146.8v0C147.61,328.62,148.26,329.71,149.64,328.94Z" transform="translate(-58.77 -297)"/><path class="cls-1" d="M107.08,316.46v0Z" transform="translate(-58.77 -297)"/><path class="cls-1" d="M104,299.82h1.32A1.2,1.2,0,0,0,104,299.82Z" transform="translate(-58.77 -297)"/><path class="cls-1" d="M201.07,347.61c.12-.34.21-.58.3-.8l-.13-.09c-.43.08-.36.4-.17.9Z" transform="translate(-58.77 -297)"/><path class="cls-1" d="M150.33,327.91a1.66,1.66,0,0,0-.12.33.9.9,0,0,0,.07.27,3.12,3.12,0,0,0,.27-.4Z" transform="translate(-58.77 -297)"/><path class="cls-1" d="M197.12,373.47h0Z" transform="translate(-58.77 -297)"/><path class="cls-1" d="M263.55,384.05v0l0,0a2.57,2.57,0,0,0,.62,0,25.6,25.6,0,0,0-2.72-2,2.08,2.08,0,0,0,.15.74,1.8,1.8,0,0,0,1.89,1.27Z" transform="translate(-58.77 -297)"/><path class="cls-1" d="M219.38,358.78l0,0Z" transform="translate(-58.77 -297)"/><path class="cls-1" d="M100.68,399.08l0,0v0Z" transform="translate(-58.77 -297)"/><path class="cls-1" d="M179.49,297.73a.8.8,0,0,1-.41,0,1.17,1.17,0,0,0-.26-.1c-1.94,0-4.6.3-7.16.42a1.59,1.59,0,0,0,0,.66,11.51,11.51,0,0,1,1.26.41c.09,0,.1.29.14.44l1.09-.16c-.12-.23-.23-.47-.35-.71.63.09.77.32.35.71l0,0-1.12.13c-.53-.1-1.07-.2-1.77-.35l-1.16,4.56a4.83,4.83,0,0,0,3.13.52c-.48-.32-1.41-.35-.75-1.32.13-.2-.38-.82-.6-1.26l.44-.24v-.1c-.07-.44-.13-.88-.2-1.32h.28c0,.45-.05.88-.08,1.33a.28.28,0,0,0,0,.09l0,0L174,301c0,.07,0,.13.06.21-.28.13-.74.18-.81.38-.19.54.44.29.58.47a10,10,0,0,1,.82,1.38,1.54,1.54,0,0,0-.45,2c3,.81,6.3.58,9.44,2.37a20.56,20.56,0,0,1-2-.45c-.84-.26-1.66-.56-2.5-.84a1.19,1.19,0,0,0-.41-.08,12.07,12.07,0,0,1-6.06-1.4,5.8,5.8,0,0,0-2.72-.37,6,6,0,0,0-1.88.82c-.4,1.29-.34,1.45.86,2.41,0,1.61-.14,1.81-1.19,2.4a7,7,0,0,1-.17,4.06,1,1,0,0,0,.77,1.24,14.27,14.27,0,0,0,5.78.47c.21,0,.53-.08.66.05a3,3,0,0,0,2.33.52,11,11,0,0,1,2,.29c1.41.21,2.84.29,4.27.43.76.08,1.51.19,2.26.27a57.29,57.29,0,0,1,14.33-3.78c.51,0,1-.11,1.5-.19a1.4,1.4,0,0,0,.09-.17v.16c.64-.1,1.28-.22,1.89-.37L202,313c.05-.11.08-.22.13-.33.53.23,1.26,0,1.67.55a101,101,0,0,0,9.57-3.28c.29-.58-.21-1.44.75-1.78a1.91,1.91,0,0,1-.7,1.77c.94-.33,1.93-.65,2.94-.94l-1.58-.45c0-.13.08-.25.11-.36l1.68.51c0,.09-.07.19-.11.28a36.06,36.06,0,0,1,3.54-.8A65.83,65.83,0,0,0,227,306.3l-.3-.06c0-.1,0-.19.07-.29.28.05.57.09.84.16,2.53-.77,5-1.57,6.68-2.05a3.16,3.16,0,0,0,2.13-2l-.49-.15c0-.09.06-.18.1-.27l.49.12c.54-2-.64-4.48-3.13-4.14-4.35.6-9-.53-11.87,0a44.24,44.24,0,0,1-12.2.49.25.25,0,0,1,0,.08l-2.06.65-1.65-1.06c-1-.09-2-.16-3-.16-3.11,0-9.39-.58-12.46,0-.52.1-1,.17-1.52.22a.56.56,0,0,1-.15.1V298h0c0,.54.07,1.08.1,1.62a2,2,0,0,1,.05.51l0,0a8.28,8.28,0,0,1,1.23.18c1,.29,1.87.64,2.69.92-.57.31-.56.29-1.15.08s-1.33-.38-2-.63a4.08,4.08,0,0,1-.8-.55h0v0h0c0-.18,0-.34,0-.52A2.11,2.11,0,0,0,187,298c-1.69,0-3.44-.12-5.87-.26-.52.06-1.07-.06-1.58,0Zm-8,6c0-.08-.11-.19-.08-.23a1.34,1.34,0,0,1,.29-.23l.11.24-.31.21Zm3.61.78c-.42-.53-.34-.77.44-1.06C175.3,303.92,175.21,304.15,175.06,304.49Zm-.06-6.2H175l-.1-.09c-.12,0-.23-.09-.36-.12l.08-.1.28.23.14,0s0,0,0,0c.76-.29.45.65.9.72C175.05,299.37,175.2,298.63,175,298.29Zm1.06,1.56c.14-.06.3-.11.44-.18l.08.18-.42.21A1,1,0,0,1,176.06,299.85Zm.42,2.09a.35.35,0,0,1,0-.12.2.2,0,0,1,.09,0l.06.11h-.17Zm2.56-2.65a.84.84,0,0,1-.31-.34c0-.05.17-.25.26-.24a2.18,2.18,0,0,1,.67.25C179.22,299.2,179.08,299.33,179,299.29Zm-9.54,11.78a.75.75,0,0,1-.17-.1l.1-.06.17.1S169.52,311.07,169.5,311.07Zm2.54-3.49c-.2-.37-.32-.59-.46-.81l.27-.17a2.07,2.07,0,0,1,.29.39A1.75,1.75,0,0,1,172,307.58Zm1.62,1.52-1-.06,0-.29,1,.2v.16Zm-.34-1.16a.46.46,0,0,1,0-.1,1.27,1.27,0,0,1,.12.1h-.13Zm-.4-.51c-.12-.55.54-1.4-.76-1.46a1.74,1.74,0,0,1,1.93,1Zm1.33.3c0-.08.08-.19.16-.23s.14.07.26.14Zm3.19-.42c.08,0,.16-.09.22-.07s.07.12.1.19a1,1,0,0,1-.21.08l-.12-.2Zm.42,7.59-.11,0,.17-.07A.6.6,0,0,1,177.86,314.9Zm.78-1.07a3.16,3.16,0,0,1-.32,0v-.08l.34,0v.08Zm3-.22c-.09.05-.24,0-.62,0l.77-.49.14.14c-.1.11-.17.27-.29.33ZM232.18,300c0,.07-.09.17-.13.18s-.14-.06-.27-.13l.42,0Zm-2.89-1.07h.36s0,.09,0,.09h-.35v-.08Zm-13.51,3.49c.44-.13.68,0,.73.51Zm5.27.17c-.09,0-.12-.18-.19-.28s.18-.09.25-.07a2.32,2.32,0,0,1,.38.21C221.25,302.51,221.13,302.61,221.05,302.57Zm5.28,1c-.38.6-.58.92-.81,1.26A1.13,1.13,0,0,1,226.33,303.53Zm-.08,2.1-1.45.93a.14.14,0,0,1,0,.06.06.06,0,0,1-.05,0c-.48.12-.49.11-1-.4.75-.85.71.18,1,.4h0l.06,0C225,306,225.17,305.35,226.25,305.63Zm-1.64-1c0-.11,0-.23,0-.35h.1c0,.12,0,.24,0,.36l-.09,0Zm-9.53-5.31.89.24h.18l.09.07,2.61.78h.09l0,0,3.52.94h0c.85.6,1.71,1.19,2.55,1.8,0,.08-.1.14-.14.22-.75-.47-1.51-.93-2.22-1.43-.14-.1-.14-.39-.19-.6h0a3.12,3.12,0,0,1-1.14.2,11.6,11.6,0,0,1-2.1-.66c-.13-.05-.2-.3-.29-.47h0l-.06,0a2.94,2.94,0,0,1-2.61-.78l-.12,0-.13,0h-.94c0-.07,0-.15,0-.24Zm-.71,6.85c.08.28.14.55.22.83l-.32.08-.15-.85.26-.05Zm-8.08-2.45c-.07,0-.16,0-.23,0s.07-.16.14-.19.13,0,.2.06S206.35,303.73,206.29,303.74Zm.44-1.26a1.81,1.81,0,0,1-.23,0c0-.21.06-.44.09-.65a.78.78,0,0,1,.22,0C206.78,302.05,206.76,302.27,206.73,302.48Zm1.45,2.11-.76-.25c0-.07,0-.14.05-.19l.77.17a1.47,1.47,0,0,1-.08.28Zm4.25-6.26a3,3,0,0,0,.24.38h.07l0,0,0,0,.07.07.49.16a1.63,1.63,0,0,0-.17.2c-.11-.11-.22-.24-.34-.35l-.1,0,0-.06a3.88,3.88,0,0,1-.49-.11Zm-3.09,6.5,2,.32,0,.33-2.07-.38C209.3,305,209.32,304.93,209.34,304.83ZM204,303.05c.15.15.31.29.45.44l.11,0a2.69,2.69,0,0,0,.44-.88c0-.26-.2-.55-.33-.81.7,0,.36-.77.77-1a6.64,6.64,0,0,1,1.28-.58c.94-.25,1-.22,1.08-1.08.38.06.53.16.4.63a1.33,1.33,0,0,1-1.08.94l-1.31.35c.19,1-.58,1.69-.73,2.54l-.5-.14,0,0-.09-.09-.6-.25L204,303Zm.23,2.14c0,.13.09.24.12.36l-.68.17s-.08-.15-.11-.21Zm-1.77-2.38h.65V303l-.65,0Zm-6.62,2.07a4.21,4.21,0,0,1,0-.62l.24,0,.15.65a1.8,1.8,0,0,1-.34,0Zm1.26,7.84h-.48v-.16l.48.06s0,.1,0,.1Zm.23-5.25-1.32-.41.08-.26,1.3.49A1.89,1.89,0,0,1,197.34,307.47Zm2.2,5.88-.56-.13a.78.78,0,0,1,0-.21l.57.09a2.17,2.17,0,0,0,0,.25Zm1-1.24s-.17-.12-.15-.14a1.06,1.06,0,0,1,.16-.23l.13.2C200.6,312,200.56,312.06,200.51,312.11Zm1.4-2c0,.19,0,.37.05.56a1.6,1.6,0,0,1-.22-.24c0-.07,0-.16,0-.25Zm-2.14-9,.11.08s-.07.06-.11.06l-.13,0C199.69,301.16,199.72,301.1,199.77,301.08Zm-1.62-.13c.42.16.82.34,1.25.51l2.25.89c-1.69-.17-1.7-.17-2.25-.89-.61.18-1.37-.35-1.79.47l-.4-1.25c.34.1.65.16.94.26Zm-3.22-1,.58.14a.31.31,0,0,0,.13,0,.31.31,0,0,0,.11.09l.81.35-.13.23-.67-.57-.15-.05-.09,0-.6.09,0-.23Zm-.28,6.46.44,0a.71.71,0,0,1,0,.15l-.44,0v-.14Zm-.92-.25a.53.53,0,0,1,.19.09,1.86,1.86,0,0,1-.2.14.31.31,0,0,1-.09-.07c0-.06.05-.15.09-.16Zm-.78-.28a.32.32,0,0,1,0,.07.85.85,0,0,1-.22,0s0-.05-.05-.08A1.81,1.81,0,0,1,193,305.9Zm-6.8,9.92s-.05-.13-.08-.19a.68.68,0,0,1,.26-.07s.06.13.09.21-.18.06-.27,0Zm.25-.93-.54-.39.2-.25.49.46-.15.19Zm.81-1.86-.13-.15.26,0s.06,0,.1.08l-.24.1Zm1.06,3.33-.38-.75.24-.13c.15.22.31.45.47.66C188.48,316.22,188.37,316.28,188.27,316.36Zm2.71-6.61c.07,0,.15.07.32.19h-.47C190.88,309.87,190.92,309.76,191,309.75Zm-2.92-5.63c.59.2,1.18.4,1.77.62,0,.06,0,.14-.07.21l-1.77-.64A1.07,1.07,0,0,0,188.06,304.12Zm.55,5-.06.28-3-.62a2.34,2.34,0,0,0,0-.26l3.13.59Zm-3.88,6.26h.45v.12h-.45Zm-4.29-15.6s.08.06.08.09a.77.77,0,0,1-.06.24c-.05-.07-.13-.11-.15-.18S180.4,299.83,180.44,299.78Zm-.17,2.52v-.55s.15,0,.23-.05c0,.2.05.4.07.6h-.3Zm2.48,1.52h-1a1.51,1.51,0,0,0-.93-1.75c1.59-.25,1.23,1.16,2,1.75Z" transform="translate(-58.77 -297)"/><path class="cls-1" d="M134,344.58c.42.81.78,1.51,1.18,2.2,0,.05.31,0,.46,0-.12-.84-.22-1.6-.35-2.47l-1.28.32Z" transform="translate(-58.77 -297)"/><path class="cls-1" d="M134.92,347.38l.23.54c0-.19,0-.38,0-.58Z" transform="translate(-58.77 -297)"/><path class="cls-1" d="M201.23,348.7l.14.25.19-.13c0-.06-.07-.16-.11-.17s-.15,0-.22,0Z" transform="translate(-58.77 -297)"/><path class="cls-1" d="M136.59,347.76a1.45,1.45,0,0,0,.26-.29l-.59.07.07.18C136.42,347.73,136.53,347.8,136.59,347.76Z" transform="translate(-58.77 -297)"/><path class="cls-1" d="M208.06,298l-1.19-.11,1.12.45a2.62,2.62,0,0,1,.09-.33Z" transform="translate(-58.77 -297)"/><path class="cls-1" d="M188.45,298l0,0v-.09c-.3,0-.61.06-.9.07l.87.07v0Z" transform="translate(-58.77 -297)"/><path class="cls-1" d="M205.76,350.8c-.74.06-1.5,0-2.24,0-.3.44-.54.81-.87,1.27l-.55-.92-1.74,1.27c.33.77.64,1.45.94,2.13,0,.05.09.09.08.11-.48,1.72,1,2.74,1.5,4.1h.05l1.21-.08a2.44,2.44,0,0,1,0,.27l-1.2-.21h-.05v0a2.59,2.59,0,0,0-.17,2.8l0,0a.29.29,0,0,1,.08.07l.3.07-.09.11a1,1,0,0,0-.22-.18.25.25,0,0,1-.11,0c-1.07,1.32-.9,1.78.68,2.23a4.38,4.38,0,0,0,2.46,0c1.1-.28,2.28-.24,3.38-.53,2.24-.59,4.52-.11,6.78-.37.05,0,.12.11.2.2-1.37.72-2.88.31-4.31.55-.84.13-1.74.08-2.59.23s-1.77.48-2.65.72c-.13,0-.31.08-.41,0-.94-.57-1.83.13-2.76.09-.29,0-.6.36-.85.5-.41-.21-.87-.65-1.31-.64-2.2.05-4.4.19-6.6.34a2.76,2.76,0,0,0-1.19.33c-1,.61-2.06,0-3.08.22l-3.32.61c0,.77-.08,1.63-.13,2.69l2.45.21-1.74.66c0,1.44,0,2.81.09,4.17,0,.39.45.75.62,1.15.07.18-.09.43-.13.66l4.74-.33c-1.77.4-3.2,1.06-4.74.33l-.77-.56c-.05,1.21.31,2.25-.22,3.22-.05.12.17.42.32.59a1.33,1.33,0,0,1,0,1.88l.84,1.09c-.25.48-.51.95-.74,1.39.38.71,1.79-.22,1.54,1.27a16.28,16.28,0,0,0,6.33-1.25c1,.93,2,.36,3.05-.06,1-.1,2-.23,3-.3a3.09,3.09,0,0,1,.88.19v0h.06l1.39-1.16-1.55-.39,8-1.4c.64-1-.22-2.63,1.48-3.35a3.6,3.6,0,0,0,2.76.3c1-.15,1.93-.19,2.9-.27h.61v0l-.61,0s0,.12-.05.13c-1.43.19-2.78.81-4.26.7a9.86,9.86,0,0,0-1.73.13c-.4,1.32-.33,2.16.23,2.54l-7.08,1.31c-.09.4-.06.75-.22.94a2.15,2.15,0,0,1-1.81.54l0,0h0c-.07.52-.51.43-.83.41a3.47,3.47,0,0,0-1.89,0c-.28.12-.75-.2-1.14-.32,0,.13.06.37,0,.38-.85.24-1.55.91-2.62.53a5,5,0,0,0-2.15.19c-.92.12-1.82.33-2.75.41-1.55.16-1.88.71-1.19,2.08a2.39,2.39,0,0,1,.22,1.82c-.15.69.11,1.49-.59,2.15l1.14.63c.35.2.69.41.9.52l2.84-.35c.44-.05,1,.16,1.27-.35A.32.32,0,0,1,196,391a38.19,38.19,0,0,1,4.9-.5l-3.39.8c.1.23.13.59.33.79,1,1,1.17,2.36,1.59,3.62l.15.51c.08.25.29.56.2.7a1.78,1.78,0,0,1-.85.86A6.1,6.1,0,0,0,196,399a.66.66,0,0,1-.41.11l-3.11.31a1.84,1.84,0,0,1,.45-.27c1.37-.45,2.74-.86,4.09-1.35a1.62,1.62,0,0,0,.67-.74,9.53,9.53,0,0,0,.47-1.19c-.36-.26-.77-.54-1.24-.86v-1.56l-1.3.1c0-.4-.06-.77-.1-1.36-1.09,0-2.19-.08-3.27,0s-2.23.35-3.48.57c0,0,0,.23-.07.48a3.83,3.83,0,0,0-2.88,0c-1.3.32-2.65.43-4,.62-.14,0-.29-.09-.44-.13v-.28c1.07-.11,2.14-.17,3.2-.35s2.09-.47,3.31-.75c-1.23-.7-.67-2.06-1.41-2.91,1.13-.81,1.05-.42.28-1.44l1.37-1.67c-.8-.38-1.13-1.27-2.05-1.25a1.5,1.5,0,0,0-.43-1.67c.18-.25.36-.51.54-.75-.06-.49-.52-.57-2-.32l1.76-2.16c-.46-.62-1.12-1.17-.26-2,.23-.21,0-.93-.11-1.38a4.86,4.86,0,0,0-.56-1.09l-5.73.64c-.47.05-.89.55-1.41.13h-1.36a.64.64,0,0,1,0-.2l1.33.2c.26-.75.93-.48,1.43-.53a35.23,35.23,0,0,0,3.87-.29,12,12,0,0,0,2.92-1.24c.44-.23.26-.62-.37-1l.7-1.54-1.31-.24a1.44,1.44,0,0,0,.73-1.57,1.12,1.12,0,0,0-1.32-.77l0,0h-.16a13.74,13.74,0,0,1-4,.74c-2.22.1-4.43.46-6.65.72-.69.07-1.39.16-2.08.18-.2,0-.4-.18-.58-.58l5.17-.85c-.13-.53-.23-.93-.38-1.51.32.15.69.19.73.33.49,1.57,1.71,1.45,3,1.34l4.78-.37.12,0a.11.11,0,0,0,.08,0c.83-.68.6-1.79,1-2.64a1.57,1.57,0,0,0-1.93-.79,28.05,28.05,0,0,1-4.93.52,2.6,2.6,0,0,0-2.46,1.26c-.05.1-.19.15-.31.25-.79-1,.67-1.52.3-2.43,1.75.84,6.64.23,8.21-1a1.6,1.6,0,0,0,1.82.56,10.85,10.85,0,0,1,3.17-.14,5.17,5.17,0,0,0,3-.63c.6-.37,1.09-.75,1.87-.31.34.19.91,0,1.37-.05.92-.07,1.85-.17,2.77-.2.61,0,1.13,0,1.06-.87,0-.25.34-.52.56-.84l-.65-.45a7.53,7.53,0,0,0,1.22-3.31l-.87-.58a.41.41,0,0,1,0-.11c.23-.51.47-1,.58-1.26-.61-1.18-1.12-2.14-1.61-3.1-1.59.49-11.81,1.33-12.88,1l2.51-.24a20.56,20.56,0,0,0,2.34-.32,8.58,8.58,0,0,1,2.77-.19A10.78,10.78,0,0,0,198,353c-.06-1.28,1.2-1.41,2-2.13l-1.18-.2a4,4,0,0,0,1.14-2.77.79.79,0,0,1,.13-.49,4,4,0,0,0,.43-1.14c-1-.72-2.05-1.51-3.12-2.39a1.24,1.24,0,0,0-.18-.14l-1.08.08a1.23,1.23,0,0,0,0-.19l.8-.1a4.82,4.82,0,0,0-2.44-.65c.14.15,0,.37,0,.54l0,0h0l.6.23a.53.53,0,0,1,0,.13h-3.19v-.2c.87-.06,1.73-.12,2.6-.16h0v0c-.1-.16-.21-.33-.35-.53H194c-4.88.25-7.39-1.3-10.92-.71-7.17,1.19-10.95.59-14.75.65-4.52.06-6.71,1.05-14.47,0l-1.11-.13a4.4,4.4,0,0,1-.5.3,11.28,11.28,0,0,1-4.73.9c-1.55.07-3.11,0-4.66,0a11.31,11.31,0,0,0-1.63.27,10.4,10.4,0,0,1-1.21.18c-1.38,0-2.78,0-4.49,0,1,.58-.08.95.33,1.48l1.7-.08c.33.26-.34,1,.4,1.16v0h0c.24-.47.26-.49,1.24-1.07l.48,1.15-1.72-.08a0,0,0,0,1,0,0h0c-.16.33-.95.46-.25,1a2.87,2.87,0,0,1-2.64,0c-.18,0-.43-.13-.54,0a5.44,5.44,0,0,1-3.21.62l-4,.17a1.11,1.11,0,0,0-.76.25c-1,1.34-2.43,1.3-3.9,1.2a6.64,6.64,0,0,0,1-.36c.64-.33,1.59-.16,1.88-1.14,0-.17.56-.27.86-.28,2-.13,4.08-.25,6.13-.3a1.55,1.55,0,0,0,1.39-.74.87.87,0,0,0-.16-.83c-1-.86-1-1.19-.37-2.26,0-.07,0-.17,0-.22a26.05,26.05,0,0,1-5.71-.45l-1.1-.08-.7,0a2.53,2.53,0,0,1-.86-.1h-.75c-3.81.06-4.73-5.94-.93-6.41a26.49,26.49,0,0,0,2.88-.54,3.36,3.36,0,0,1-.7-.27c.47.05,1,.06,1.42.1,4.73-1.25,9.44-3.47,14.49-4.23,1-.16,2.23-.39,3.49-.7l-.41-.3c.18-.36.35-.73.57-1.21a1,1,0,0,1,.21,1.43c1.2-.29,2.45-.63,3.68-1a2.51,2.51,0,0,0-2.64-.44c-.65.22-1.51-.19-2.28-.26-2-.18-4.07-.35-6.11-.49-.88-.07-1.76-.1-2.65-.1a4,4,0,0,0-.93.23c-.07-.16-.17-.4-.26-.63,1.33-.74,2.54.09,3.76.05.42,0,.82.1,1.23.13a14.17,14.17,0,0,1,2.07.08,13.47,13.47,0,0,0,4,.06,5.69,5.69,0,0,1-1.86-2.42c.93,0,1,0,1.24,1.38l2.15.08,0,0h0c0-.36,0-.72-.08-1.13l-1-.46,5.93.32c-.11-.46-.16-.72-.25-1.07l1.17-.25-.46-.39c.63-.42,1,.09,1.15.4a2.82,2.82,0,0,0,2.59,1.41,3.47,3.47,0,0,1,1.32.3l-1.43.1a1.32,1.32,0,0,1-1.13,1.13,2.28,2.28,0,0,0-.75.37c1.05-.39,2-.78,2.87-1.17,6.26-2.85,9.53-3.82,14.67-4.41,2.71-.32,7.8-2.53,12.74-4.8l-1.29-.12c-2.82-.29-5.64-.71-8.46-1-1.16-.14-2.33-.2-3.49-.33a12.77,12.77,0,0,1-1.93-.33c-1.55-.38-2-.27-3.12.93-.72-1.25-2.27,0-3.23-1.18l3,.33c-.24-.86-.44-1.59-.68-2.41.42-.34,1-.67.74-1.56-.09-.29.39-.76.62-1.18a3.79,3.79,0,0,1-.33-.22l1-.7-1.54-.76c.3,0,.45-.12.54-.08a.92.92,0,0,0,1.19-.39c0-.56.69-1.05.12-1.73a2,2,0,0,1-.48-1.92c.06-.2-.31-.57-.54-.79a4.91,4.91,0,0,0-.81-.53h-.12l0-.06-.87-.14c.46-.36.49-.37.87.14h.08l.09.05,2.21,0h.37c0-.84.92-.31,1.23-.86-.14-.2-.29-.45-.45-.68l-.06,0v0l-.69,0v-.29h.69v0l0,0,0,0h0c.34-.41.67-.84,1.17-1.46-.19-.44-.45-1.06-.77-1.76l1.3-.19c-.11-.32-.23-.61-.35-.94a14.82,14.82,0,0,1-4.66-.47c-3.47-1.18-8.26-.42-11,0-6.55,1-11.24.19-15.09,0,0,.13-.07.25-.1.39s-.26,0-.41,0h0c.14.21.27.41.39.62l-.25.1c0-.24-.09-.49-.14-.72h0c0-.16,0-.3,0-.45h-.57c-1.88,0-3.95.19-6.27.36l.5.09c0,.11,0,.22-.05.33a1.45,1.45,0,0,1-1.48-.36,56.53,56.53,0,0,1-7.93,0,1.94,1.94,0,0,1-.8-.05c-1-.09-2-.21-3.15-.37a43.41,43.41,0,0,0-10.44,0,31.41,31.41,0,0,1-4.33.31A3.9,3.9,0,0,0,101.7,299c-.69,1-.07,2.31-1.9,4.11-1.56,1.53-1.75,3.41-2.65,4.31-1.23,1.22-1.57,2.8-2.06,3.35A6.86,6.86,0,0,0,94,312.64c-.51.83-1.45.55-2.23,0-1-.72-1.26-2.21-1.69-2.94a12.58,12.58,0,0,1-2-3.43,12.56,12.56,0,0,0-2.2-3.82c-1.25-1.34-.86-2.55-1.44-3.45a4.11,4.11,0,0,0-2.51-1.29,54.31,54.31,0,0,0-5.52,0l-.59,0h0a3.19,3.19,0,0,1,.65.24l1.84.8c-1.32.34-1.54.69-1.32,2.23a2.77,2.77,0,0,1,0,.69c-1.37-.9-1.45-1.33-.54-3.29a23.7,23.7,0,0,1-3.52-.55c-3,0-5.36-.16-7.37-.16a6.47,6.47,0,0,0-6.41,6c.52-.21.75,0,.87.58.19,0,.37,0,.38,0H60s-.51-.11-.89-.23c0,.21,0,.42,0,.64s0,.34,0,.51l.51.21a2.32,2.32,0,0,1-.47.24c.25,5.07-.74,9.53-.1,13.92.34,2.41-.3,7.31,0,9.72,0,.14,0,.3.05.44h2.25v.14H59.31a62.38,62.38,0,0,1-.07,14.36c-.1.72-.15,1.43-.18,2.16a26.89,26.89,0,0,1,4,.77,6.54,6.54,0,0,0,1.65,0,9.27,9.27,0,0,1,1,.14,2.49,2.49,0,0,1-2.43.44,14.38,14.38,0,0,0-4.25-.74c0,3.08.43,6,.19,8.09-.11.9-.19,1.86-.26,2.83a11.41,11.41,0,0,0,2.34.12,11.7,11.7,0,0,1,3.16.54c1.21.27,2.4.61,3.59.91a.88.88,0,0,0,.28.06c1.68,0,3.35.15,5,.09A16.12,16.12,0,0,0,76,359v-.11l-1.44-1.17,1.26-.54c-.11-.53-.23-1.11-.37-1.75.4-1.05.79-2.22,1.24-3.36.29-.73.44-1.65,1.56-1.59h0v-.05l-.82-1.82-2.9-.37c0-.21-.08-.49-.13-.85l-2-.25a.76.76,0,0,0,0-.21l1.73-.3A6,6,0,0,0,74,346c-.06-.21-.26-.46-.19-.63a4.52,4.52,0,0,1,.55-.87c.25.22.68.37.74.64a6.77,6.77,0,0,1,.15,1.64c0,1.07.26,1.27,1.35,1.3a1.61,1.61,0,0,1,1.77,1.88,2.89,2.89,0,0,1-.08.5s0,0,0,.06h0c-1.2,2.67-1.26,5.66-2.24,8.41l.11.09a.35.35,0,0,0-.11,0,3.54,3.54,0,0,0,.19.64c1.19-.26,2.3.58,3.53.05.3-.13.83.4,1.22.35,2.16-.29,4.29.14,6.44.12a44.31,44.31,0,0,0,7.1-.19c.19,0,.41.14.62.2a8.5,8.5,0,0,0,1.84.53,11.51,11.51,0,0,1,3.55.23c.85.31,1.44-.58,2.17-.89l.51-.2c0,.24.05.43.1.74,1.48,0,3-.18,4.56-.11s2.92-.31,4.45,0,3.05-.28,4.61.22a4.5,4.5,0,0,1-.69.15c-1.24.13-2.49.22-3.73.36-.18,0-.34.25-.51.38l-.66.22,0-.26.69.05c-.21-.21-.44-.59-.63-.58-1.27.11-2.54.31-4,.49,0,0-.09-.23-.21-.58-1,.11-2.14.27-3.23.36-1.63.13-3.27.54-4.89-.08a.89.89,0,0,0-.28,0c-3.06.2-6.09-.63-9.18-.2a9.64,9.64,0,0,1-3.28-.32,2.43,2.43,0,0,0-2.47.54,17.74,17.74,0,0,0-4.22-.25,13.49,13.49,0,0,1-3.25-.36c-.31-.05-.67-.21-.92-.11a4,4,0,0,1-2.43-.06,25.34,25.34,0,0,0-3-.17,18.23,18.23,0,0,1-3.23-.47,9.34,9.34,0,0,0-5.21-.3,1.19,1.19,0,0,1-1-.16,2.46,2.46,0,0,0-1.64-.87,60.59,60.59,0,0,0,.3,11.64,49,49,0,0,1,0,14.45,72.67,72.67,0,0,0,0,8.62s0,0,0,.05h0c0,.36,0,.69,0,1,0,3.62,3,6.13,6.55,6.54.68.08,1.51.18,2.51.28a1.92,1.92,0,0,0-.18-.29c-.31-.38-.39-1.05-1-1.34.53-.76.36-1.72,1-2.35.11-.1,0-.56-.1-.73-.58-.67-1.24-1.28-1.83-1.95a7.16,7.16,0,0,1-.62-1l2-.39a5.07,5.07,0,0,0,.12,1.69A8.36,8.36,0,0,0,69,396.36a5,5,0,0,1-.5,2.28.88.88,0,0,0,.19.85,1.7,1.7,0,0,1,.91,1.67,69.06,69.06,0,0,0,13.09-.38,20.61,20.61,0,0,1,5.53-1,2.93,2.93,0,0,1,1.48.26,1.33,1.33,0,0,1-.45.18,11.71,11.71,0,0,0-3.52.55,37.22,37.22,0,0,0,9.2,0c.42-.07.9-.11,1.39-.15.37-.81.57-.83,1.63-.17-.25,0-.5.07-.74.12.47,0,1-.05,1.46-.05-.07-.17-.12-.34-.21-.58l1.21.09a3,3,0,0,1,.06.32l-.5.16c4,0,8.82.25,11.65.25.94,0,1.9.11,3,.22l-.39-.29,1.26-.11q0,.27-.06.48l.61,0c0-.61,0-1,0-1.41,0,0,0-.05,0-.07s0,0,0,0c-.77-.06-.77-.06-1.63-.95l1-1.6c.37.39.81.83,1.37,1.39l-.76,1.16v.09c.14.37.59.7.08,1.41a25.07,25.07,0,0,0,4.68-.09,3.62,3.62,0,0,1,0-.49h-1.63c.11-.21.19-.55.33-.59.88-.19,1.64-.77,2.62-.63a8.87,8.87,0,0,0,1.88-.13,2,2,0,0,1-1.66,1.14c-.65.19-.94.3-1,.64.33-.05.68-.09,1-.16a35.21,35.21,0,0,1,10-.15,6.55,6.55,0,0,0,5.14-1.28,25.65,25.65,0,0,0,2.93-3c-.74.18-1.48.36-2.19.59a5.41,5.41,0,0,1-3.08.42l5.66-1.47c2.15-2.54,4.61-5.71,6-7.4a12.76,12.76,0,0,0,1.44-2.68l-.81.25a1.7,1.7,0,0,1-.09-.24l.88-.29.06.17c1-2.28,2.24-5.08,3.8-5.91,2.31-1.22,3.12.93,5.06,2.38a9.51,9.51,0,0,1,1.19-.08,5.66,5.66,0,0,0,.83,0c.77-.15,1.83-.07,2.22-.54a4.13,4.13,0,0,0,.8-3c0-.19-.24-.36-.32-.55s-.3-.6-.2-.72c.65-.81-.28-1.48-.15-2.22,0-.18-.05-1.27,0-1.38a2.5,2.5,0,0,0,.06-.67c0-.42-.14-.83-.21-1.25l-22.46,3.21-.29.84-.26-.07c.09-.43,0-.78-.51-.72-1,.14-1.91.34-2.86.51-.64.11-1.34.49-1.88-.27,1.72-.28,3.44-.89,5.1-.76,2.47.19,4.68-1.13,7.13-.91.54.06,1.12-.4,1.71-.47,1.51-.21,3-.28,4.52-.48s3-.48,4.51-.71a2.55,2.55,0,0,1,1.1,0,3.55,3.55,0,0,0,2.17-.28,22.17,22.17,0,0,0,2.57-1c-.09-.25-.18-.52-.31-.86.16,0,.28,0,.29.05.2.51.41,1,.6,1.54h2a2,2,0,0,0,0,.23c-.29.06-.58.14-.88.18s-.63,0-1,.05c.08,1.62.16,3.18.24,4.86.33.08.75.16,1.35.31a3.87,3.87,0,0,0-1,.14,1.53,1.53,0,0,0-.42.51c-.35.48,1,.54.28,1.22-.25.23-.08.87-.1,1.26l3.74.19c0,.07,0,.14,0,.19a12.55,12.55,0,0,1-2.27.18,3,3,0,0,0-2.61,1l1.13.08c-.13.75-.27,1.47-.4,2.2h0l0,0,0,0v0a1.64,1.64,0,0,1,.13,1.84h-.31c.06-.61.11-1.23.17-1.84l0,0h0c-.13,0-.26.06-.55.15.12-.61.21-1.11.34-1.83-1.5.15-3,.26-4.45.45l.25.14c1.47.7,3,2.3,4.63,3.89,0,0,0,0,0-.05.16.13.31.25.47.36,0,0,0,.07-.06.09l.94.84,1.21-.31a1,1,0,0,1-.8.65,13.32,13.32,0,0,0,1.67,1.18c3,1.83,5.24,5.65,6.68,8l.33-.12c0,.11.06.23.09.34l-.27,0a6.72,6.72,0,0,0,1.24,1.64c1.23.81,2.61,1.67,4.06,1.41,5.94-1.06,11.43.41,17.73,0,3.35-.21,7.72.26,12.54.35-1.21-3.68-1.18-3.74-.66-4.54a11.35,11.35,0,0,1-2.13.88c-1.4.28-2.84.41-4.26.57-.23,0-.49-.18-1-.38a7.27,7.27,0,0,1,1.08-.37,31.46,31.46,0,0,0,4-.41,37.2,37.2,0,0,0,4.1-1.13,8.53,8.53,0,0,1,3.83-.63c.27,0,.58-.14.89-.14a3.1,3.1,0,0,1-2.09.82,12.67,12.67,0,0,0-1.92.34.87.87,0,0,0-.7,1.15,2.76,2.76,0,0,1,0,1.07c-.12.88.37,1.68.29,2.57a.56.56,0,0,0,.06.21,53.86,53.86,0,0,0,6.52-.36,16.71,16.71,0,0,1,3-.55c0,.08,0,.16.05.25a63.62,63.62,0,0,1,11.71.14,40.36,40.36,0,0,0,4.28.14c0-.05.07-.11.11-.17l-.83-.71,0-.4c0,.13,0,.28,0,.41a1.52,1.52,0,0,0,1-1.62c1.31-.3,1.4,1.05,2.26,1.39-.61.77-1.67-.45-2.07.63,0,.1.05.26.1.46l.75-.36c.06.11.1.21.17.34l2.29-.08c.23-.34.44-.65.55-.79-.14-1.22-.25-2.27-.35-3.25a13.28,13.28,0,0,0-2.1,0c-1,.17-1.94.54-2.92.73-1.34.26-2.7.41-4.06.61,0-.12-.05-.26-.07-.38l2.51-.47c.87-.14,1.75-.23,2.61-.42s1.84-.2,2.34-.71c.67-.7,1.81.2,2.15-.93.21.17.38.29.44.35l2.79-1.75c.18.44.27.69.37.93l.7-.3c.19.3.45.61-.2.86a7.26,7.26,0,0,0-1.14.72l.54.72c-.48.06-.66-.18-.54-.73a5.14,5.14,0,0,1-1,.25,8.8,8.8,0,0,1-1.17-.1c-.08.13-.24.43-.42.77l.77-.08-.89,1,.69-.11v0h.07a7.49,7.49,0,0,0,1.17-.09,1,1,0,0,1,1.14.51l-2.31-.42h-.07c0,.08,0,.2,0,.24a2,2,0,0,0-.36,2.15v0l0,0,1.08.12h1a1.48,1.48,0,0,1,0,.19l-1-.17c-.4.17-.81.44-1.08-.15h0l-.41.61,3.47-.14c-.68-.59-.43-1.07-.5-1.5l.29,0,.29,1.55c2-.06,4.22-.12,6.49-.11l2.1-.55c0,.09.06.19.08.28l-1,.28c2.35,0,4.8.14,7.35.37a84.42,84.42,0,0,0,19,.14c0-.25-.26-.52-.22-.76.53,0,.63.06.67.71l.87-.11a3.38,3.38,0,0,0,2.88-3.88l-.54.25-1,.06a1.94,1.94,0,0,1,0-.24l1,.18.52-.41a3.22,3.22,0,0,0-1.57-2.19l-.27-.15-1,.15c0-.1-.05-.2-.06-.3L279,394c-1-.55-2.1-1.1-3.27-1.7a2,2,0,0,0,0,.85s0,0,.05,0,0,0,0,0l.87.06c-.28.34-.23,1-.86.68-.44-.21-.25-.49,0-.74,0,0,0,0,0-.06a1.14,1.14,0,0,1-.56-1.11c-.93-.47-1.88-1-2.86-1.56l-.62.21a.78.78,0,0,1-.05-.14l.43-.21c-1-.58-2-1.22-3-1.93-.52.12-1,.23-1.54.36l-.06-.32,1.47-.13a29.47,29.47,0,0,1-3.81-3.31c-.18-.19-.38-.38-.59-.57a1.25,1.25,0,0,1-1-.34h-.06c-.05.15-.08.35-.14.36-.52.08-.62.42-.62.85h0a.76.76,0,0,0,0,.11l.31.3-.18.1c-.05-.13-.09-.27-.13-.4a.27.27,0,0,1-.08-.07v0h-.88l.64-.51c-.5-.74-1.22-.56-1.85-.38-1.28.34-2.54.78-3.79,1.22-.28.1-.44.25-.68-.08-.09-.12-.51,0-.75,0-1.1.24-2.21.52-3.63.87a8.33,8.33,0,0,1,4.5-1.39,8.52,8.52,0,0,0,4.26-1.42,1.87,1.87,0,0,0,.6-1.73,28.8,28.8,0,0,0-6.2-3,31,31,0,0,1-8.3-4.61h-.12l0-.05c-2.25-1.62-4.48-3.32-6.75-4.69l-.9.06a3,3,0,0,1-.56-.18c.34-.06.67-.11,1-.15a23,23,0,0,0-3.15-1.56,53.2,53.2,0,0,1-8.57-4.68l-1.2,0a1.65,1.65,0,0,0-.53.13,2.88,2.88,0,0,1-2.22.2,8.31,8.31,0,0,0-3.16-.1.7.7,0,0,0-.68.77v.12h0c-.11.08-.31.16-.3.23.08,1.07-.66,2.07-.22,3.19.18.47.09.5-.6,1,.05-.3.17-.57.1-.66-1.1-1.29.22-2.51-.07-3.83l1.09.12v-.11c0-1,.11-1.17.93-1.15a24,24,0,0,0,4.63-.45,4.3,4.3,0,0,1,1.43,0,44.5,44.5,0,0,1-3.9-2.9,64.41,64.41,0,0,0-13.42-8.26c-.62-.27-1.24-.54-1.84-.83-.62.5-1.33.29-2,.33ZM202.29,355a1.47,1.47,0,0,1-.1-.22l.63-.27a1.63,1.63,0,0,1,.09.19Zm-11.35,13.93.21.05Zm8.9-1.76a.58.58,0,0,1,0,.09l-.2.06a.45.45,0,0,0-.05-.08l.19-.07Zm-1,1.15a.91.91,0,0,0,.17.09c-.05,0-.09.05-.13,0l-.16-.09Zm-4,.6V369h-.91a.89.89,0,0,0,0-.11h.93Zm.39,8.67s0-.1,0-.11a.83.83,0,0,1,.18-.13.53.53,0,0,0,0,.12,1.13,1.13,0,0,1-.18.12Zm2-4.09H197c-.11.13-.2.33-.33.35-.84.11-1.68.17-2.81.29,1.15-.77,2.18-.47,3.14-.64l0,0,.12,0,2.92-.26a5,5,0,0,1-2.92.26Zm3.52,5.07-.23,0v-.11a1.06,1.06,0,0,1,.23,0v.12Zm.16-1.44a.38.38,0,0,0-.07-.08l.2-.14a.67.67,0,0,1,.06.12Zm.09-9.29c0-.09-.06-.18,0-.25s.13-.08.2-.12.05.16,0,.21-.13.11-.2.15Zm.47,5.78c0-.12-.06-.23-.08-.36l1.71-.32c0,.09,0,.18,0,.27Zm1.33,4.41-.28-.1a.65.65,0,0,1,.13-.23c.06,0,.15,0,.22,0S202.79,377.87,202.77,378Zm.24-1.47,2.84-.2C204.62,377.13,204.28,377.39,203,376.52Zm3.5,2.16h-.2l-.5.1a.34.34,0,0,0,0-.1h.52l.19,0,.07-.15h0c0-.08,0-.06,0,0s0,.11-.05.19Zm-.85-5.41c0-.07,0-.13,0-.2l1.41-.31c0,.06,0,.14,0,.21Zm2.19,4.72a1.05,1.05,0,0,1,.05-.19.17.17,0,0,1,.11,0,.84.84,0,0,1,.08.19Zm.05-2.09c.11.56.17.88.23,1.25C207.86,376.92,207.78,376.51,207.9,375.9Zm.83,1.63c0-.54-.22-1,.56-.82C209.14,376.94,209,377.15,208.73,377.53Zm-.89-4.24-.06-.34,2.54-.47c0,.08,0,.15.05.24Zm3.68-1.34h1.71C212.65,372,212.1,372.63,211.52,372Zm2.65-.1a1,1,0,0,0,0-.21l.75,0a.77.77,0,0,0,0,.15ZM191.83,389a1.81,1.81,0,0,1,.2-.33s.17.05.25.08v.21c-.16,0-.3,0-.46,0Zm4.87.54c-.07,0-.09-.13-.13-.21s.17-.08.24-.05.07.13.09.2S196.73,389.55,196.7,389.52Zm-12.86-.88c0,.15.06.28.09.43l-1.21.16-.07-.33,1.19-.27Zm-3.38-21.09a2.27,2.27,0,0,1,.06.25l-.47.07a.79.79,0,0,0,0-.13ZM194,357.94h4.09c-.39.41-.85.24-1.3.22s-.92.14-1.37.15-.95,0-1.43-.06c0-.1,0-.21,0-.31Zm0,1.58-.12.44c0-.07-.12-.15-.12-.21s.11-.11.23-.24Zm-4.13-.23,1.6-.11c0,.09,0,.18,0,.28l-1.62.1v-.26Zm6.4-14.52c.1,0,.21.12.35.21a3.42,3.42,0,0,0-.23.34c-.11-.09-.26-.16-.31-.29s.12-.25.2-.26Zm2.08,5.86c-.39.5-.77.73-1.39.33-.26-.16-.71,0-1.06,0,0-.11,0-.2,0-.31Zm-5.58.08c.14,0,.32.05.47.07v.29l-1,0c.26-.2.37-.35.51-.4Zm-62.29-5.88c0,.18,0,.37,0,.55l1-.26c-.27.77-.74.11-1,.27l-.27-.5.24-.05Zm12.88-15.05.4.49c-.06.06-.13.1-.2.16-.12-.17-.25-.34-.38-.5l.19-.15Zm-8.15-.15v1.12A.71.71,0,0,1,135.24,329.63Zm-.58,1.95c.45.56.24,1-.26,1.46C134.49,332.55,134.57,332.07,134.66,331.58Zm36.65-13.29c.06.11.13.21.23.36l-.36.18a1.47,1.47,0,0,1-.1-.37c0-.06.15-.11.24-.17Zm-5.74,1.61-.16.05s0-.06,0-.1l.19,0Zm-.61.56h.56v.12H165Zm-.29-11.23c.06,0,.13.06.2.09a2.09,2.09,0,0,1-.23.08s-.06,0-.11,0,.09-.13.14-.12Zm-12.4,14.67c-.21-.13-.81.22-.48-.79l.49.79c.18-.31-.4-.94.43-1a7.22,7.22,0,0,1-.43,1Zm.94-4.44c.77-.45,1.41-.09,2,0Zm5.2,6.2c-.06-.18-.12-.36-.17-.55l.25-.08c0,.19.06.39.1.58Zm-.28-1.83c.08-.21.16-.4.22-.6l.2.08a5.22,5.22,0,0,1-.24.54l-.18,0Zm.2-1.57.07-.63C159.1,321.85,158.61,322.11,158.33,322.26Zm-1.66-6.56c.91-.42,1.34-.39,4.48.33C159.42,316.88,158.13,315.92,156.67,315.7Zm.44-8.39.13,0s0,.05.08.08-.08,0-.12,0S157.14,307.35,157.11,307.31Zm4-3.83a1.28,1.28,0,0,0-.09-.14s.08-.06.1,0a.4.4,0,0,1,.17.09A.77.77,0,0,1,161.15,303.48Zm2,5.51h.12V309h-.12Zm-.82-8.93c0,.16.1.3.14.46l-.11,0c0-.15-.1-.3-.14-.45Zm-.28,3.26h1.06v.14h-1.06ZM161.2,301c.09,0,.14.17.22.26a1.25,1.25,0,0,1-.26.13l-.2-.3c.08,0,.19-.12.25-.09Zm-.83,2.24.08.07c-.08.09-.16.17-.23.26l-.14-.21.3-.14Zm-2.2-4.24H156.5C157.29,298.5,157.73,298.91,158.17,299Zm-1.54,1.29s.17.12.16.15a1.52,1.52,0,0,1-.2.29l-.21-.18a3,3,0,0,1,.24-.26Zm1.18,3.79c.5.55,1.47-.16,2,.94l-4.5-1.34c.42-.44.6-.65.93-1,.07,1.14,1.13.89,1.58,1.4Zm-1.6-2.08-2-.81C154.93,301.39,155.93,300.92,156.21,302Zm-5-1.51.56.19.34.07.1,0,.52,0a1,1,0,0,1,0,.17l-.51-.14h-.13l-.3-.11c-.19-.05-.38-.08-.58-.12a.24.24,0,0,1,0-.08Zm-1.89-.61h0l.07,0,.59,0-.12.26-.47-.29h-.09v0c-.9.08-.6-.91-1.11-1.16.75.08.91.24,1.11,1.16Zm-3.07,14c3.11-.07,6.05.79,9.07,1.34a18.77,18.77,0,0,1-2.49,0c-1.51-.2-3-.53-4.49-.8a2.15,2.15,0,0,0-2.18.42c0-.32.06-.58.1-.95Zm-.85,13.53h-.24v-.6c.08,0,.23,0,.23.07a4.69,4.69,0,0,1,0,.53Zm.19-3.75.06.12a1.74,1.74,0,0,1-.11.18s-.06-.08-.05-.11A.87.87,0,0,1,145.57,323.71Zm.1,1.57c-.52.26-.77.13-1-.43a6.46,6.46,0,0,1,.73.1C145.47,325,145.53,325.12,145.67,325.28Zm-.59-10.48v.12l-.62.05v-.2Zm-85.44,6c-.07-.09-.12-.19-.19-.28s.16-.09.22-.08.07.12.11.19ZM87.4,334.29c0,.06.12.1.18.16l-.28.15a2.12,2.12,0,0,1-.12-.2l.21-.11ZM84.13,312c-.7.67-1.34.26-2-.11Zm-.74,11.43-.13,0c-.06-.27-.1-.54-.16-.8l.25,0c0,.28,0,.55,0,.83Zm-1.53,11.11,1.11-.36.26.27c-.17.2-.31.54-.51.58a2.38,2.38,0,0,1-.87-.18,1.53,1.53,0,0,1,0-.3Zm-.35-10.95.23.07-.09.53c-.06,0-.13,0-.2,0l0-.57Zm.2,1.28c-.15.7-.4.41-.66.11h-.11a4.15,4.15,0,0,0-.48.11v-.22l.48.11a.19.19,0,0,0,.1,0l0,0,.66-.11ZM81,323.48c.09.09,0,.29.11.77-.4-.44-.58-.63-.75-.83l.15-.2a1.7,1.7,0,0,1,.5.26Zm-4.71-20.92c-.1.39-.38.41-.85.08Zm-1.11-2.78a1.62,1.62,0,0,1,.25.28s-.1.19-.12.19a2.22,2.22,0,0,1-.38-.19l.25-.27Zm.18,3.82L74.27,305C74.07,303.91,74.38,303.59,75.38,303.6Zm-1,3.91.19.15a.71.71,0,0,1-.23.14s-.09-.12-.14-.18l.19-.11Zm-.15-2,.34,0c.07.5.15,1,.21,1.49-.12,0-.24,0-.36,0-.06-.49-.13-1-.18-1.49Zm.34,3.46c.15.26.29.53.44.78l-.27.21c-.15-.27-.29-.56-.44-.84l.28-.15Zm5.87,3c-.23.05-.6.08-1,.17a2.8,2.8,0,0,1-2.09-.26,19.56,19.56,0,0,0-3.15-.88c-.24.43-.38.72-.65,1.21-.14-.78-.25-1.32-.37-2l7.22,1.76Zm-.39,11.64c-.17.11-.29.24-.39.24s-.26-.17-.25-.25a.45.45,0,0,1,.27-.27C79.78,323.27,79.89,323.42,80.08,323.57Zm-5.48-1.35a1.36,1.36,0,0,1-.46.78c-.7-1.19.28-2.33,0-3.5.49.35,1,.6.57,1.38C74.55,321.24,74.68,321.77,74.6,322.22Zm-4,6.54s.17.11.16.14a1.57,1.57,0,0,1-.19.35l-.25-.33A1.56,1.56,0,0,1,70.55,328.76Zm.06,1.83H68.89c0-.11,0-.23,0-.34l1.7.34Zm-1.45-10.47,0,.16c-.27.06-.53.14-.8.21l-.07-.28Zm-1.85,6.19.93-.09C68,326.75,67.69,326.88,67.31,326.31Zm.56,3.86-.54.32a1.13,1.13,0,0,1-.12-.21c.17-.1.35-.21.53-.3,0,0,.09.13.13.18Zm-.5-9.52.19.13a1.2,1.2,0,0,1-.27.16s-.08-.13-.13-.18l.21-.1Zm-.76-5.6c.13.06.26.11.26.14a.89.89,0,0,1-.11.31c-.07,0-.19-.06-.2-.12A1,1,0,0,1,66.61,315.05Zm-.26,5.32a3,3,0,0,1,.39.05c-.06.1-.1.24-.15.24a1.82,1.82,0,0,1-.36-.08c0-.08.07-.2.11-.21ZM64.44,323l.14.18-.16.12s-.07-.08-.06-.1A.7.7,0,0,1,64.44,323Zm-1-3.39a2.06,2.06,0,0,1,.39.17c-.19.12-.29.23-.37.21s-.14-.16-.21-.25S63.33,319.57,63.39,319.59Zm-.6,3.06c.06.12.13.22.19.32s-.18.13-.21.11a.53.53,0,0,1-.19-.25A1.18,1.18,0,0,1,62.79,322.65Zm-2.77.74a1.23,1.23,0,0,0,0-.19l.82-.12c0,.1,0,.21,0,.31Zm1.61-1.46c0-.1-.06-.21-.09-.31s.17-.08.21-.05a.44.44,0,0,1,.07.21l-.2.15Zm-1.44-2.81.14-.26,1.49.86c-.93.43-1.16-.28-1.64-.6Zm2.18,11.26c.58-1,1.61-.27,2.34-.95C64.36,330.53,64.3,330.55,62.37,330.38ZM65.23,333v-2.72L66,330a.7.7,0,0,1,.29.05c0,.12,0,.27-.13.34-.48.4-.73.84-.36,1.44s.52,1.36,1.54,1.25c.75-.08,1.57-.21,2.19.59C68.1,333.4,66.65,333.19,65.23,333Zm2.4,14.37H71A2.67,2.67,0,0,1,67.63,347.33Zm2.86-13.71.06-.31a2.63,2.63,0,0,1,2.38.77Zm1.8-7.17v-.24H73v.24Zm.79-8.77-.94.22a2.46,2.46,0,0,1,1.39-2.3c.32.85-1,1.28-.42,2.1.08.37.14.73.22,1.09-.08,0-.16,0-.25,0v-1.13h0Zm.24,6.9.2.13c0,.09-.06.16-.08.25s-.17-.09-.2-.16S73.29,324.65,73.32,324.58Zm.55,10-.57-.47a3,3,0,0,1,.23-.27c.17.17.35.36.51.54C74,334.47,73.92,334.53,73.87,334.6Zm.24-9.74c.5-.8,1.76-.21,2.07-1.28a1.89,1.89,0,0,0-.07-1.68c.5,0,.88.77,1.16,2.39.29,0,.59.07.89.15a6.42,6.42,0,0,1,1,.45l-2.29.44a4.86,4.86,0,0,0-1.25-.58,5.46,5.46,0,0,0-1.47.12Zm2.29,3c0,.07-.07.16-.11.24l-.52-.33c.22-.09.34-.18.44-.17S76.36,327.74,76.4,327.84Zm-1.1-2.42.72.78c-.13.26-.35.65-.57,1.05l-1-1.07C74.76,325.91,75,325.67,75.3,325.42Zm.13,7.74c-.08,0-.19.09-.24.06a2.64,2.64,0,0,1-.29-.32c.2,0,.34-.07.39,0S75.38,333.06,75.43,333.16Zm4.08,10.75c-.17,0-.43.16-.45.28-.16,1.28-1,.89-1.77.73,1.18-.79,1.26-1.48.35-2.82.14-.3.29-.6.42-.89s.28-.63.41-.94l.37.07c0,.63.12,1.27.11,1.9s.2,1.05,1,1a3.53,3.53,0,0,1,1.42.31c-.6.1-1.22.19-1.81.33Zm-.8-4.12.06-.76.35,0c-.07.26-.13.51-.2.76l-.22,0Zm2.76,9.55h-.22v-.1h.22Zm1.45-12.17c-1-.81-2.06-.06-3.1-.47.05.49.08.81.11,1.17a11.4,11.4,0,0,0-2.35-1.66,11,11,0,0,0-2.78-.35v-.3a1.73,1.73,0,0,1,.5-.05c.41.06.79.17,1.19.25a11.75,11.75,0,0,0,2.7.46c1.14-.07,2.32.37,3.41-.24a1.61,1.61,0,0,1,.64-.08c-.1.42-.19.78-.32,1.26Zm-.78-12,1.24.4c.11-.76.59-.39.93-.28a2,2,0,0,0,2.4-.54v1.1l-3.34-.29c-.39-.09-.93.43-1.24-.4Zm4.09,7.27c-.06.46-.08.71-.11,1C85.63,333.2,85.67,332.88,86.23,332.4Zm-1.93,1.54c-.07.06-.13.16-.2.17S84,334,83.88,334s.14-.16.2-.16.15.09.22.14Zm2,16-2.49-.36h2.51C86.36,349.73,86.35,349.84,86.34,350Zm.29-17.77a.65.65,0,0,1-.08-.22s.12-.06.19-.08a1,1,0,0,0,.08.23Zm.31,17.9v-.24h.74V350l-.73.06Zm.88-25-.15-.52.21-.08.27.5ZM88.06,313c-.07,0-.17,0-.26-.05.08-.11.15-.21.23-.34.07.08.15.14.15.18A.25.25,0,0,1,88.06,313Zm4.73,5.45.24.08c0,.07,0,.15-.09.23a.72.72,0,0,1-.21-.12s0-.14.07-.2Zm-4.33,32-.18-.13a1.57,1.57,0,0,1,.12-.19l.27.18c-.07.05-.13.14-.2.15Zm.75-15.62v0a3.9,3.9,0,0,1-.35-.95c0-.11.33-.26.64-.49-.13.6-.22,1-.31,1.44v0h0c.15-.07.33-.18.47-.15a10.85,10.85,0,0,0,2.59.25c-.27.13-.56.42-.82.39a21.46,21.46,0,0,1-2.25-.49l0,0ZM90.52,340c0-.11,0-.24.07-.36l.51.19c-.13.17-.2.33-.29.34A.34.34,0,0,1,90.52,340ZM94,350.77a6.75,6.75,0,0,1-3.2-.63l3.22.26v.38Zm-.46-15.58c-.58-.45-.24-.91-.1-1.57l1.07,1.52C94.39,335.55,94,335.54,93.55,335.19Zm1.61-9.33,1.09.42a1.87,1.87,0,0,0-.07.22L95,326.2C95.09,326.09,95.12,326,95.16,325.86Zm-.57,24.89a2.53,2.53,0,0,1,0-.3l2.51-.44c-.15.44-1,.68-2.52.74Zm5.64-36.64c-.79.5-1.25.51-2.38-.15Zm-1.37,6.25v-.18h.6v.14C99.26,320.32,99.06,320.34,98.86,320.36Zm.58,6.2-.2.23c-.12-.05-.17-.1-.24-.13a1.37,1.37,0,0,1,.27-.22S99.38,326.51,99.44,326.56Zm-1.52-.27a2.68,2.68,0,0,1,.47.16c-.33.06-.52.16-.58.11-.25-.17-.18-.29.11-.28Zm2.87,24.28c-1,0-2,0-3-.06v-.32h3c0,.13,0,.38,0,.38ZM59.36,366a2.06,2.06,0,0,1-.11-.48c0-.08.17-.13.26-.2a1.4,1.4,0,0,1,.21.4c0,.05-.18.14-.37.28ZM62,382l.06.09s-.07.05-.09.05l-.07-.14Zm-1.5-18.75.58.08c0,.12-.05.23-.08.35l-.55-.23,0-.19Zm-.53,31c-.07,0-.14-.1-.2-.16,1.82-.55,3-.6,3.69-.16Zm19.35-27.41a1,1,0,0,0,.13.16l-.44.32-.11-.14ZM79,373c.09,0,.21.08.38.15-.16.13-.25.26-.35.28s-.19-.13-.29-.19C78.83,373.16,78.9,373,79,373Zm-5,5c0,.21,0,.41,0,.63l-.26,0c0-.2,0-.39,0-.59C73.79,378.05,73.94,378,74,378Zm-.81,0c.09.55.13.81.19,1.1C73,378.93,72.94,378.57,73.22,378Zm-2.79,3c-.38.32-.68.93-1.55.2Zm-.94,6.43-.12,0-.17-.15s.09-.05.11,0A.69.69,0,0,1,69.49,387.42Zm-1.08-15.3c0,.08,0,.16,0,.24l-.59.05a1.49,1.49,0,0,0,0-.21l.58-.07Zm.18,9.07c0,.08-.06.22-.08.22a3.09,3.09,0,0,1-.53-.09l.06-.21ZM65,368.06a2.23,2.23,0,0,1,.48.26c.05,0,0,.23-.1.69-.28-.44-.39-.62-.51-.78Zm-.77,25.83,0-.1.47-.13.06.28Zm.89-1.93c-.46-.47-.21-.89.18-1.38.12.48.23.88.36,1.34-.22,0-.46.12-.53,0Zm1.26-10.07c-.1.05-.24,0-.58-.05.35-.2.53-.3.7-.41l.15.14c-.09.11-.16.26-.27.31Zm1,10a1.73,1.73,0,0,1-.24-.44c0-.07.12-.19.25-.39.15.22.3.36.29.49S67.45,391.77,67.35,391.88Zm3.2-2.41c-.44.09-.9.13-1.36.19l-2.6.3v-.55A3.06,3.06,0,0,0,69,389c.24-.2.8,0,1.3,0l.76-1c.17.18.38.3.38.43a1,1,0,0,1-.85,1.1Zm.59-2.12c-.92-.44-.63-1.33-1.07-2h2.29c-.41.68-.8,1.34-1.23,2Zm4.14-2.11c-1,.14-.87-.6-1.15-1.23a2.79,2.79,0,0,1,0-1.89c-.78-1-2-.8-3.3-1.05l3.38-1.4c.49,1,.11,2.36,1.64,2.57-.48,1,.48,2.15-.58,3Zm.71.65c0-.13,0-.24-.07-.36l1.73-.28c0,.1,0,.19,0,.29Zm5.53-.41c0-.32.07-.51.09-.71a1.29,1.29,0,0,1-1.55-.12c.63.06,1.09.09,1.55.12.22.05.46.11.68.14s.34-.07.51-.08.15.09.36.24l-1.65.41Zm3.22,1.77c-.14-.05-.24-.21-.35-.32.1-.07.2-.18.29-.18s.21.11.54.3C85,387.15,84.83,387.28,84.74,387.25Zm-.07-1.54s0-.07,0-.09l.71-.11a1.5,1.5,0,0,0,0,.2h-.71Zm-5.88-7.54a3.23,3.23,0,0,1-.06-.33c1-.65,2.19-.22,3.21-.53l1.24-3c-.52-.4-1.07-.73-.4-1.44.16-.17,0-.69-.13-1-.21-.68-.51-1.25,0-2,.31-.47-.07-1.41-.18-2.13a.75.75,0,0,0-.21-.39,11.75,11.75,0,0,0,.48-2.72,1.11,1.11,0,0,1,.42-1.11c.38-.33.2-1.12,1.2-1.22-.25.63-.46,1.17-.66,1.7s-.87,1,.23,1.12c0,.24,0,.57-.13.72a1.54,1.54,0,0,0-.36,2,3.13,3.13,0,0,1-.23,2c-.29,1-.45,1.82.55,2.47.12.07.14.32.14.48,0,.78-.11,1.56-.14,2.35a4.85,4.85,0,0,0,.13.93c.06.34.15.69.26,1.16.65,0,1.39,0,2.11.11s1.45-.28,2.17.39l-9.69.55Zm78.41-.69-2.11.49A2,2,0,0,1,157.2,377.48ZM135.26,392.6l3-.55A3.56,3.56,0,0,1,135.26,392.6Zm3.45-9.29c.74.65.63,1.51.93,2.29l-.73-.38c-.07-.64-.13-1.18-.2-1.9Zm.38,8.82a2,2,0,0,1,.14-.34l.3.11-.44.25Zm.48-3.45c.08-.07.18-.2.27-.2s.15.15.27.3c-.14.06-.25.15-.33.13s-.14-.15-.2-.24Zm.35,3.73c0-.44.28-.66.84-.64C140.38,392.07,140.17,392.24,139.92,392.41Zm.3-2c.05-.32.08-.66.13-1l.22,0c0,.33-.09.66-.13,1a1.81,1.81,0,0,1-.23,0Zm7.53-8.36a1,1,0,0,1-.09.32l-.65-.28a2.58,2.58,0,0,1,.54-.14c.07,0,.2.07.2.11Zm-.26-5.31c0-.14,0-.29,0-.43a1.66,1.66,0,0,1,0,.22.65.65,0,0,1,0,.2c-.13.41-.25.84-.37,1.25l-.33-.12c.24-.38.46-.76.7-1.13Zm-.65,3c.06,0,.08.13.11.2a1.13,1.13,0,0,1-.18.12l-.14-.28c.08,0,.16-.08.21-.05Zm-.73,6.26-1.56.26c0-.11,0-.22,0-.33l1.58-.19a1.72,1.72,0,0,0,0,.24Zm-.92-6.93c-.67,1-1.52.79-2.29.77C143.58,379.67,144.26,379.45,145.19,379.14Zm-2.88.89c0,.11.06.22.08.35l-1,.19a2.86,2.86,0,0,1-.07-.28l1-.25Zm1.49,6.13c0,.09.07.17.12.26l-4.46,1.22c0-.36.09-.83.14-1.33,1.39.95,2.79,0,4.2-.17Zm-7.87-2.79a4.87,4.87,0,0,0,2.32-1.14c.71-.77.79-.77.12-1.6a1.5,1.5,0,0,1-.23-.33,1.87,1.87,0,0,1,0-.24l2.25-.11-1.14.75a7.58,7.58,0,0,1,.06,1.18c0,.21-.25.42-.41.61-.32.41-.66.81-1.06,1.29-.83-.83-1.85.3-2.95-.07l1.06-.35Zm-2,.58c0,.13,0,.25,0,.39l-1-.16V384l1-.05Zm-2.84-31.39.17.24-.75.33a1.45,1.45,0,0,1-.1-.18Zm-1.73.38c-.93.76-1.95.29-2.83.2Zm-4.28-2.43c.42.17.86.34,1.28.49l-.17.39-1.24-.58Zm.47,3.45a1.91,1.91,0,0,1-.24-.17.58.58,0,0,1,.21-.15c.07,0,.16,0,.25,0-.07.09-.15.18-.21.27Zm.15.82c0,.63,0,1-.08,1.34A1.1,1.1,0,0,1,125.73,354.78ZM121,349.92l0,.33-2.52.34c0-.11,0-.22,0-.32l2.52-.35Zm-3.23-22.4v-.2l1.1-.06a2.26,2.26,0,0,0,0,.26Zm2.68-11.41.18-.22c.14.1.3.2.45.32a1.4,1.4,0,0,0-.1.16Zm.4,27s0,.07,0,.07-.09,0-.14,0,0-.09.07-.13.08,0,.12.05Zm.14-15.69.81-.07a2.5,2.5,0,0,0,0,.29H121a1.85,1.85,0,0,0,0-.23Zm.32,8.68h1.31C122.06,336.81,121.67,336.35,121.28,336.13Zm11.44-4.41c-.05-.05-.09-.12-.14-.17l.27-.16c0,.08.08.17.06.22S132.78,331.69,132.72,331.72Zm9.86-12.06-.13,0a.85.85,0,0,0,.06-.17.81.81,0,0,0,.1.09.22.22,0,0,1,0,.1Zm1.19.35c-.05,0-.16,0-.56-.15.46-.05.63-.07.78-.1A1.31,1.31,0,0,1,143.77,320Zm-4.08-17.19c-.53.1-1,.29-1.36-.35Zm-.81-3.58-1.85.92C137.23,299.44,137.85,299.13,138.88,299.24Zm-2.78-.06a2.21,2.21,0,0,1-2.43-.49Zm-12.57-.75,2.84.93a.93.93,0,0,1-.05.24c-.91-.13-1.84-.25-2.9-.41C123.47,298.87,123.5,298.66,123.53,298.43Zm-1.07,4.37c.33.45-.16,1.35.85,1.36.67.21,1.34.44,2,.63a6.25,6.25,0,0,0,3.2.52,1,1,0,0,1,.68,0c1.43.85,3,.77,4.6.92a8.09,8.09,0,0,1,3.51.84,6.31,6.31,0,0,0,2.18.34,4.26,4.26,0,0,1,1.63.52l-4.42-.4c-.31,1.61-.64,3.26-1,5,.31.13.59.25.86.38-.06.13-.11.29-.18.44h0a21,21,0,0,1,7,1.3c-.27,0-.54,0-.79-.07s-.53-.14-.8-.18c-1.42-.21-2.86-.39-4.29-.62a5.56,5.56,0,0,1-1.15-.44h0c-.1.91-.15,1.83-.31,2.74-.07.35-.42.65-.71,1.07.06.8.59,1.12,1.52,1.18a38.33,38.33,0,0,1,4.24.52c-3.64-.31-7.3.37-10.91-.35h-2a2.39,2.39,0,0,0-.08.79,4.57,4.57,0,0,1,0,2.54c-.2.67.3.94.91,1.17a1,1,0,0,0-1.15,1.19c0,.89,0,1.79,0,2.68,0,.66.76,1.11,1.67,1.13,1.16,0,2.32.06,3.47.11a2,2,0,0,1,.66.26c0,.1-.05.21-.06.31-2.37-.21-4.74-.43-7.11-.61a20.86,20.86,0,0,0-2.5,0,2.59,2.59,0,0,1-1.52-.3c0-.11,0-.21,0-.32h2.89c.17-1.25,0-2.34.63-3.37.3-.47,0-1.29,0-2.11l.54-.39-1-.52.9-.3v-2.87c-.4-1-1.92-.57-3-1.38,1.87.15,3.57,0,4.88,1.33.22.23.7.16,1,.28a4.08,4.08,0,0,1,.75.44,10.94,10.94,0,0,1,1.62-.12c1.1,0,2.22.16,3.12-.83a1.3,1.3,0,0,1-.42-1.8,1.35,1.35,0,0,0,.1-.67c0-.51-.1-1-.17-1.69l-3.17-.68c1.41-.29,2.85.63,4.21-.35-.32-.16-.62-.33-1-.54l.78-.91c-.14-.3-.32-.66-.52-1.06a2.31,2.31,0,0,0,.88-2.63l-3.34-.57a3.4,3.4,0,0,1-1.22-.21,8.64,8.64,0,0,0-3.49-.77c-1.33-.19-2.64-.55-4-.84-.39-.09-.54-.33-.34-.71l-1.23.72c.16-.86.27-1.47.39-2.09Zm10.6,20.6-.57-.17a1.14,1.14,0,0,1,.3-.13C132.84,323.1,132.89,323.21,133.06,323.4Zm-8.4,3h.09v.33h-.07C124.68,326.6,124.67,326.49,124.66,326.39Zm1.19-6.41s.08-.09.1-.08a1.39,1.39,0,0,1,.31.18l-.18.22-.23-.31Zm3.42-9.05.46-.08c0,.06,0,.11,0,.17l-.46.05A.68.68,0,0,0,129.27,310.93Zm5.73-2.76c.06-.18.11-.37.17-.54l.23.09a5.44,5.44,0,0,1-.19.52l-.2-.07Zm-14.74-2.54c.81,1.05,2.36,0,3.42,1a18,18,0,0,1-4.88-.88Zm-11.54,21.11s0,.22,0,.35h0l.14,0c.75-.09,1.48-.18,2.23-.24a5.49,5.49,0,0,1,1.49.11,1.63,1.63,0,0,0-.54,1.76c.09.26-.21.65-.36,1.07l1.14.63-1.44.53c-.37-.29-.63-.46-.42-1a12.94,12.94,0,0,0,.36-2.37l-2.48-.45-.18,0,0,0s0,0,0,0v0H106.6a2.28,2.28,0,0,1,2.11-.36Zm-.48,15.46a2.38,2.38,0,0,1,.05.26l-1.73.27c0-.08,0-.16,0-.25l1.71-.28Zm-1-6.92h.92a2.11,2.11,0,0,0,0,.26l-.92.1,0-.37ZM107,302.39l1.14.66Q107,303.44,107,302.39Zm.26,2-.16.16c0-.06-.07-.12,0-.16a.46.46,0,0,1,.18-.11.45.45,0,0,0,0,.11Zm-.49-2.95,0,.11-.11.05s0-.09,0-.11S106.73,301.47,106.78,301.45Zm0,3.72a1.57,1.57,0,0,0,.09.23l-.18.17a1.21,1.21,0,0,1-.09-.31S106.72,305.21,106.78,305.17Zm.28,11.27h0l.06,0,1.36-.08c-.75.39-.77.4-1.36.08h-.08l0,0-.93.28c.59-.65.6-.65.93-.28Zm-.84,10.33-.63.19-.07-.25.62-.2c0,.08.06.17.08.25Zm-4.52,8.62-.74-.21a2.33,2.33,0,0,0,.07-.25l.74.2-.08.25Zm.69,14.7,1.68-.1C103,350.59,103,350.59,102.39,350.09Zm1.62-34.6h-1C103.43,314.92,103.68,315.19,104,315.49Zm-.8-5.93a1.08,1.08,0,0,1,.11-.18c.05.06.11.12.15.18s0,.07-.06.07a1.17,1.17,0,0,1-.2-.06Zm1.51,17.24-2-.1C102.85,326.38,103.53,326.42,104.72,326.8Zm-1.39,3.94-.15.16c-.05-.09-.11-.17-.17-.26s.15-.11.2-.09.09.13.12.18Zm1.19,4.51-.18-.17a.94.94,0,0,1,.28-.1s.08.12.12.19Zm.09-33.65a1.5,1.5,0,0,0-1.21-1.45,6.25,6.25,0,0,1-1.6-1,4.93,4.93,0,0,0,3.14-.73c1.06,1.42,1,1.71-.07,2.22-.35,1,.5,1.31,1.07,1.81-.68.07-1.29,0-1.33-.84Zm7.49,49.1c-2.29-.22-4.64.13-6.76-1a15.48,15.48,0,0,0,3.38.24c.94-.14,1.79.24,2.7.1.42-.07.76,0,.69.61Zm-.6-13.4,0-.13.07.1A.35.35,0,0,0,111.5,337.3Zm.22.41.38.58-.16.12-.43-.56.2-.14Zm0,1.86a.87.87,0,0,0-.18.11c-.14-.21-.27-.44-.41-.65l.32-.13C111.59,339.12,111.69,339.34,111.77,339.57Zm-1.23-4.82c.39-1.07.72-2,1.06-2.89h0s0-.05-.06-.07l-.5-.25a1.71,1.71,0,0,1,.18-.2l.32.45a.18.18,0,0,1,.08,0,.08.08,0,0,1,0,0c.6.35.16.89.22,1.34.17,1.22.11,1.23,1.24,1.74l-2.52-.18Zm2.09,15.57c1.22.09,2.54-.7,3.63.28A10.3,10.3,0,0,1,112.63,350.32Zm2-22.82h-1.33C113.92,327.07,114.31,327.06,114.64,327.5Zm-.86-4h.61v.11h-.61ZM115,306.69l.81.69C115.12,307.7,114.8,307.7,115,306.69Zm.24,36.54a1.06,1.06,0,0,1-.25,0v-.08a1.06,1.06,0,0,1,.25,0Zm1.14-15.69h-.13c0-.06,0-.16.06-.17a.74.74,0,0,1,.25,0,1,1,0,0,1-.17.14ZM115.57,305h-.08v0a2.73,2.73,0,0,1-1.09.19,17.25,17.25,0,0,1-3.75-1.26,2.41,2.41,0,0,1,.84,0,10.83,10.83,0,0,0,3.61.66c.12,0,.25.27.39.44h0l0,0a7.09,7.09,0,0,1,2.67.26,3.4,3.4,0,0,1-2.67-.26Zm1,60.44s0,.08,0,.12l-1.25.3c0-.1,0-.2,0-.31.41-.05.84-.08,1.25-.12Zm-3.22.2c0,.12,0,.23.07.36l-1.91.34a2.61,2.61,0,0,1-.06-.27Zm-3.89.24.6-.07v.06l-.61,0a2.78,2.78,0,0,0-.16.4l-.2-.14.36-.29Zm-1.57.18c.1-.05.25,0,.66,0l-1,.59c.23-.35.27-.51.37-.57Zm-4.42,13.24s0,.12.06.16l-1.43.26c0-.14,0-.28,0-.42Zm-5.52-12.72.09.32-1.56.18a2.93,2.93,0,0,0,0-.29l1.52-.2Zm-1.8,9.57.46,0v.19l-.46,0ZM94.21,400.7h-.82l.06-.3.76.17Zm3.16-16.94-.18-.11.16-.21a1,1,0,0,1,.08.19S97.39,383.71,97.37,383.76Zm.16,7.79h1.14C98.29,391.9,98,392.24,97.53,391.55ZM95.87,380h-.06c-.46.48-.89.42-1.45-.19l1.45.19,0,0,0,0c.09-.09.17-.24.27-.24.65,0,1.31,0,2,0a16,16,0,0,1,1.84-.26C98.66,380.13,97.34,380.69,95.87,380Zm4.84,19.13h-.07l-.69.37c0-.45,0-.46.69-.37l0,0c-.16-.25-.33-.49-.52-.8l1-.53c-.21.63-.32,1-.43,1.33,0,0,0,0,0,0ZM102,390.7l.93.08c0,.13,0,.24,0,.36L102,391c0-.11,0-.21,0-.32Zm1,1.77.81,1.42-.14.15-1-.55C102.7,393.15,102.82,392.84,103,392.47Zm.36,5.6c.06-.5.44-.84,1.12-1Zm.83-1.47c-.16-.37-.3-.67-.5-1.12C104.74,395.63,104.59,396,104.14,396.6Zm1.49-6.08-1.49.34c0-.11,0-.22,0-.34a1.66,1.66,0,0,1,1.55,0s0-.11,0-.12c.51-.27,1-.5,1.51-.79s.89-.64,1.39-.88a3.69,3.69,0,0,1-2.94,1.79Zm-.55,7c.5-.6,1.91-.84,3.56-.59A6.62,6.62,0,0,1,105.08,397.56Zm4.53-9.41h1Q110.27,388.59,109.61,388.15Zm4.36-.33c0-.08,0-.16,0-.24l1-.35,0,.45Zm4.15,6.33a.74.74,0,0,1-.05-.25s.12-.08.19-.11,0,.15,0,.23A.83.83,0,0,1,118.12,394.15Zm.3,5v-.46h.14c0,.16,0,.3,0,.46Zm1.24-5.61h.58v.17h-.58Zm1.06,4.91c-.15,0-.38-.38-.72-.78h1.73C121.22,398,121,398.35,120.72,398.4Zm.24-5.1.65-.26.11.2-.61.36c0-.1-.11-.2-.16-.31Zm-1.34-7.38c-.36.08-.76.29-1.06.2a4.63,4.63,0,0,0-3,.16c-.76.27-1-.37-1.09-1.26,1.21.94,2.49.19,3.74.44a4.85,4.85,0,0,0,2.54-.49,1.75,1.75,0,0,1,1.87.33l-3,.63Zm-2.4-4.05c0-.07.08-.18.14-.2s.14.07.26.15Zm6,3.59c-.06,0-.15-.07-.18-.14s0-.12,0-.19.17.06.2.12,0,.15,0,.23Zm4.49,13.19c-.65,0-1,.76-1.79.5-.56-.18-1.3.24-2,.38l-.13-.28A18.24,18.24,0,0,1,129.4,398C129.16,398.52,129.16,398.58,127.74,398.65Zm-3.45-12.75a5.06,5.06,0,0,1,3.72-.21A7.81,7.81,0,0,1,124.29,385.9ZM130,398.35c0-.08,0-.17,0-.22s.13-.09.2-.13l.12.24-.31.12Zm-1.39-13.05-.12-.32,3.13-.68a3.38,3.38,0,0,0,.08.34C130.64,384.86,129.6,385.07,128.58,385.3Zm.42-9.4c0-.2-.07-.43-.13-.85-1,.23-2,.41-3,.67-3.45.94-6.84,2.09-10.6,2.3,0,1-.06,2,0,2.89,0,.26.44.5.71.69a3.1,3.1,0,0,0,.9.25,7.13,7.13,0,0,1-.71.31c-.33.11-.8.1-1,.33s.16.62.16.94a4.39,4.39,0,0,1-.24,1c-.63-.21-.64-.46-.55-.91,0-.25-.24-.6-.41-1a5.64,5.64,0,0,0,.57-1.57,10.28,10.28,0,0,0-.15-2.41c0-.27-.4-.49-.64-.74-1.07.23-2.13.51-3.2.66a12.35,12.35,0,0,1-3.4.31c-1.12-.14-2,1.05-3.38.26.9-.2,1.57-.38,2.26-.49,1.84-.32,3.67-.63,5.51-.93.27,0,.55-.1.83-.12l6.81-.61a.56.56,0,0,0,.28-.05c1.7-.8,3.6-.87,5.35-1.46a9.52,9.52,0,0,0,1.21-.56c.17-1.27.32-2.38.46-3.56-.23,0-.61-.08-1.32-.2l1.85-.68c.24-1.51-.52-3.12,0-4.67l-1-.94,1-.71a.11.11,0,0,1,0-.05,2.32,2.32,0,0,1-.34-.78,8.31,8.31,0,0,1,.15-1.37,3.06,3.06,0,0,1-1-.32c-1.41-1.24-3-.95-4.63-.65a10.07,10.07,0,0,1-1.58,0c.32-.26.48-.48.65-.5,1.79-.22,3.6-.44,5.41-.58a1.75,1.75,0,0,1,1.29.32,2.35,2.35,0,0,0,1.94.53c.84,0,1.68-.09,2.51-.05-1.26.73-2.7.45-4.21.59a2.91,2.91,0,0,1-.23,2.79v0l0,0c.21.33.55.63.62,1,.33,1.47.55,3,.84,4.45a8.54,8.54,0,0,0,.34,1.05c-.7,1-1.18,1.91-.37,3.07.36.5.4,1.29.83,1.66s1.22,0,1.82-.24c.09,0,.28.16.64.4-1.13.2-1.91.93-3,.42Zm43.19-13.36a4.21,4.21,0,0,0-2.9.44,3.56,3.56,0,0,1-.8.17c0-.09-.05-.18-.07-.28,1.54-1,3.29-.73,5-.59C173,362.38,172.54,362.64,172.19,362.54Zm3.31-4.75c-.07,0-.1-.13-.15-.19l.18-.16c.07.1.14.19.2.29s-.17.08-.24.07Zm4.81,2.54a1.34,1.34,0,0,0,0-.2l.62-.05a1.83,1.83,0,0,1,0,.19l-.63.05Zm6.63-.77v.13l-2.3.34c.69.77.25,1.39,0,2s-.5,1.11.38,1.64c-1-.08-1.31-.35-1.26-1a8.9,8.9,0,0,1,.24-1.09,1.27,1.27,0,0,0-.9-1.64l.92-.41c-.17-1.07.27-2.38-1.45-2.58v-1.19a9.46,9.46,0,0,0-5.77.3c0,.06-.15.33-.37.77-.09-.37-.14-.59-.19-.81l-1.79-.42-.07,0v0a0,0,0,0,0,0,0,23.23,23.23,0,0,1-6.05.58.73.73,0,0,1-.51-.23,7.13,7.13,0,0,1,1.87-.22,8.55,8.55,0,0,0,3.45-.52c.5-.14,1-.27,1.24.39h.08a1.79,1.79,0,0,1,.32-.13c1.21-.4,2.43,0,3.67-.21a20.66,20.66,0,0,1,3.61,0c.59,0,1.18-.11,1.87-.19v-1.46l.21,0c.06.35.1.72.18,1.26l1.26-.39.11.14-2.45,1.89c1.09.31,1.33.87,1.31,1.65a4.47,4.47,0,0,0,.44,1.34Zm-18.79-10h1.11v.14l-1.11.08Zm5.52,0a.74.74,0,0,1,.17-.18s.13,0,.25.06a2.53,2.53,0,0,1-.26.23S173.73,349.57,173.67,349.53Zm2,2.55,1.22-.52c0,.11.08.21.11.32l-1.31.19c0,.18,0,.36,0,.54h0c0-.18.05-.35.07-.53h0Zm.88-1.59a1.3,1.3,0,0,1-.3.13s-.11-.11-.18-.17l.1-.17C176.34,350.34,176.46,350.42,176.59,350.49Zm-.11-5.38a.51.51,0,0,0,.12-.09l.32.42-.18.14-.26-.46Zm1.15,4.17a8.28,8.28,0,0,1,1.43-.35,7.46,7.46,0,0,1,2.34.18c-.61,0-1.23.06-1.84.11s-1.27.12-1.9.19a.68.68,0,0,0,0-.14Zm4.56-1.43.13,0s0,.06.05.09-.09.06-.1,0,0-.08-.08-.13Zm.73-.89c0-.06.07-.17.12-.2s.16,0,.25.05a1.62,1.62,0,0,1-.18.19c-.05,0-.12,0-.18,0Zm.71,2.3V350l-.14,0-.19-.71Zm-.31-4.94.22-.17a1,1,0,0,1,.15.28s-.09.1-.15.15l-.23-.27Zm.52,6.42c0-.11,0-.2.07-.29l1.74.21a.76.76,0,0,1,0,.15Zm.33,1.58h-.09v-.26h.09Zm.7,3.87c0,.06-.09.17-.14.17a.62.62,0,0,1-.24-.1l.21-.28a.83.83,0,0,1,.16.21Zm-1.06-14.05c.05.07.14.14.14.21s-.11.11-.16.17-.15-.13-.15-.19S183.74,342.21,183.81,342.14Zm-24.49,1.39c0,.36.05.57.06.76.17,0,.26.1.33.09l3.4-.56a1.09,1.09,0,0,1,.26,0,41.4,41.4,0,0,0,10.55-.1,11.57,11.57,0,0,1,2.35.07c2,.22,3.94-.35,5.89-.66a5.28,5.28,0,0,1,.66-.16q3.88.07,7.81.2c-2.32.67-4.71.24-7,.54a32,32,0,0,0-3.44.26,18.25,18.25,0,0,1-5.16.17,24.66,24.66,0,0,0-3.07.28,29.3,29.3,0,0,1-5.62.07,17.35,17.35,0,0,0-6.21.38c-.3,1.71-.56,3.26-.88,5-1.18-1.08-2.55-.19-4-.8.51-.06.77-.1,1-.11s.56,0,.85,0c.94-.06,1-.28.6-1.16.32-.39.77-.73.86-1.15s-.27-.82-.42-1.23a3.82,3.82,0,0,0-.19-.6c-.17-.3-.37-.78-.59-.81a16.36,16.36,0,0,0-2.8,0c-.25,0-.46.38-.78.67-.16-.42-.29-.81-.51-1.39l6.05.25Zm8.3,19.57h-.34V363h.34Zm-14.28-6.63-.05,0,0,0a8,8,0,0,1-.23.84c-.09.24-.25.48-.38.75-.77-.64.22-1.18-.14-2l.75.41h.09a4.25,4.25,0,0,1,.77-.33c1.12-.21,2.23-.37,3.33-.56-.18.53-2.24,1-4.1.88Zm3.47,4.56c0,.07-.08.16-.14.18s-.15,0-.23-.06.08-.16.14-.17S156.73,361,156.81,361Zm-4.3-1.52V359L154,359l-.56.81,1.4.25c0,.08,0,.17.05.25l-2.4.7c.38-.66.59-1,.85-1.44l-.78-.08Zm.52-1.36c.09-.06.18-.18.28-.18a2.86,2.86,0,0,1,.61.15c-.49.21-.6.31-.68.29s-.14-.17-.22-.26Zm-.51-3.24c0-.07,0-.16,0-.23s.16.08.19.14,0,.12,0,.18S152.53,355,152.52,354.91Zm1.37-5.82a2,2,0,0,1,.46-.26c.11,0,.23,0,.35,0v.22h-.81Zm1.08,3.55h.48v.12l-.44.05,0-.17Zm-1.64-7.28.06.31-.82.16c0-.07,0-.13,0-.19l.81-.28Zm.36,3.33-1.37.55A1.4,1.4,0,0,1,153.69,348.69Zm-1.54,4.19h1.23l-1.57.83C152,353.39,152,353.14,152.15,352.88Zm-3.47-3.09V350c-.61,0-1.23.06-1.84.09v-.25Zm-2.22-4.35a1.5,1.5,0,0,1,.12.15.19.19,0,0,1-.05.09.62.62,0,0,1-.19-.07Zm-5.79,2.24a3,3,0,0,1,.42.14c0,.06,0,.12-.05.18l-.48-.1a1.46,1.46,0,0,1,.1-.23Zm1.51,7.38v.42h-1.91v-.32l1.92-.1Zm-2.26-7.33a1.19,1.19,0,0,1-.25.29c-.06,0-.17,0-.5-.11Zm-1.43.13.1.07a1.36,1.36,0,0,1-.21.1l-.13-.14a2.3,2.3,0,0,1,.26,0Zm-2.94,12.47-.7.28-1.41.05c.52-.72,1-.48,1.41-.05.15-.43.42-.38.71-.28l.69-.27a2.81,2.81,0,0,1,.1.31c-.21.21-.51.07-.79,0Zm.66-4.79c.52-1.07.5-1,1.28-.75a13.56,13.56,0,0,0,2,.4A6.43,6.43,0,0,1,136.21,355.54Zm1.7,4.79-.27.21s-.08-.08-.07-.1a2.31,2.31,0,0,1,.19-.28A1.65,1.65,0,0,1,137.91,360.33Zm-.41,9-.1-.15.13,0s.05.05.07.08Zm.59-5.17c-.1.05-.24,0-.53,0l.63-.44.14.11C138.25,364,138.2,364.13,138.09,364.19Zm.17-4.05,5.12-.83c-.59.63-1.49.49-1.75,1.29-.65-.61-1.37-.1-2.06-.17a7.53,7.53,0,0,1-.83-.07,3.51,3.51,0,0,1-.47-.21Zm2.66,2.21a.71.71,0,0,1-.21.15.74.74,0,0,1,0-.25c0-.06.12-.08.19-.11S140.94,362.3,140.92,362.35Zm.37,1.16h-.1l-1.95.56c.67-.76,1.35-.52,1.95-.56l.07,0h0c0-.09,0-.23,0-.23a12,12,0,0,1,2.4-.09,5.46,5.46,0,0,1-2.44.32Zm4.61-6.95c-.27.13-.32.67-.67,1v-1.9H143v-.21c.83-.08,1.67-.15,2.6-.25,0-.12.05-.33.11-.65.67.27,1.52-.41,2.07.49.88,0,1.77,0,2.65-.11a13.15,13.15,0,0,0,1.5-.36c-.26.48-1.78.84-4.54,1.09,0,.41-.12.81-.18,1.14-.5-.11-1-.38-1.25-.23Zm.58,14.36.05-.12h.83v.12h-.88Zm2.9-7.72c-.71.07-1.48.45-2.17-.28,2.26-.14,4.39-.27,6.33-1.52a3.18,3.18,0,0,1,.21.3,3.69,3.69,0,0,1,.17.41c-.76.26-1.47.56-2.21.74a19.83,19.83,0,0,1-2.33.36Zm6.18.78a2.42,2.42,0,0,0-1.21-.17,1.32,1.32,0,0,1-1.48-.92c2.28.38,4.32,1.13,6.51,1.08a5.51,5.51,0,0,1-3.82,0Zm5.36,3.34v.11c.08.25.15.5.24.74l-.24.06v-.8s0-.05,0-.07v0c-.87-.15-.17-.88-.44-1.31a5,5,0,0,1-.23-1.93,2,2,0,0,1,1.06.78c-.15.9-.27,1.68-.39,2.46Zm0-10.67a2,2,0,0,1-1.34-.39c-.57-.38-.83-1.16-1.61-1.29-.07,0-.16-.54-.06-.74.18-.35.57-.58.76-.93s.47-.9-.28-1.23c-.23-.1-.26-.66-.16-1.15l.65.41c-.07-.44-.12-.8-.19-1.21.19.05.39.05.41.09.17.61.3,1.23.48,2,.51.06,1.06.53,1.67,0a.08.08,0,0,1,0-.06l.08,0,1.06-.12c0,.11,0,.21,0,.32l-1-.2h-.06l0,0c-.1.3-.19.78-.29.76-1.23,0-1.48,1.06-2.08,1.71.49.56.94,1.07,1.39,1.6,1.73-.18,3.47-.57,5.33,0a4.91,4.91,0,0,1-2.32.2,14.53,14.53,0,0,0-2.36.15Zm3.84,6.79s-.15.16-.16.15a2.18,2.18,0,0,1-.28-.25,1,1,0,0,0,.09-.18Zm-2,1.76-.06-.29,2-.09a2.45,2.45,0,0,0,0,.27Zm5.89,16.08-.29-.37c.08,0,.19-.12.24-.09a2.29,2.29,0,0,1,.27.27Zm-4-10A20.08,20.08,0,0,0,167,371a22.34,22.34,0,0,0,2.31-.74C168.49,371.67,166.84,372.07,164.7,371.24Zm5.11,2c0-.07-.08-.17,0-.2a.73.73,0,0,1,.23-.13l.06.24-.26.09Zm1.23,7.57a1.52,1.52,0,0,1-.06-.2l.77,0v.14c-.23,0-.48.06-.72.09Zm8.32-1.28h.43v.09h-.43Zm-2.58.52.06.08a2.44,2.44,0,0,1-.26.06s0-.06-.05-.09A1.11,1.11,0,0,1,176.78,380.05Zm-.29,6.94c-.57.17-1.09.56-1.78,0l1.72-.33.07.29Zm-.85-7a2.13,2.13,0,0,0,0,.25l-1.67.34c0-.08,0-.19-.05-.28.56-.09,1.13-.2,1.68-.31Zm2,14.94a6.54,6.54,0,0,1-1.63.29l0,0h-.1c-1.16.45-2.36.79-3.75,1.24.39-1.18,1.26-.81,1.83-1a7.12,7.12,0,0,1,1.92-.21s0,0,.07,0H176a6.36,6.36,0,0,1,3.34-1.19c-.37,1.08-1.2.68-1.72.9ZM179,384.38a.68.68,0,0,0,0-.12l1.29-.2c0,.11,0,.21,0,.32Zm9.25,16c0-.1,0-.2,0-.3l2.92-.45c0,.09,0,.18.09.28-.93.56-2,.29-3,.48ZM192,398.6l.52-.15a1.46,1.46,0,0,1,.07.19l-.51.19A1.55,1.55,0,0,0,192,398.6Zm13.6-9.43a1.58,1.58,0,0,1-.38-.05V389l.47.11S205.62,389.17,205.6,389.17Zm.89,2a1.38,1.38,0,0,0,0-.22l.76-.1a2.11,2.11,0,0,0,0,.21l-.77.12Zm3.58-.45h0Zm2.16-.48,0-.1a3.43,3.43,0,0,0,.46-.11,1.23,1.23,0,0,0,0,.19Zm26.29,8.94c-.09.12-.19.23-.28.36a2.56,2.56,0,0,0-.2-.26l.48-.09Zm-5.2-.93a2.75,2.75,0,0,1,.53.2c-.42.14-.54.23-.61.19a.38.38,0,0,1-.11-.28s.14-.11.2-.1Zm-.5,1.07.16.13c-.09,0-.17.11-.25.11s-.09-.1-.14-.15a.62.62,0,0,1,.23-.07Zm7.9-.13-.27-.69.36,0Zm.87.26a1.57,1.57,0,0,1-.23,0s0-.07,0-.07a1.18,1.18,0,0,1,.25,0s0,.08-.06.08Zm27.32-1.57a1.49,1.49,0,0,1-.27-.23s.08-.13.15-.26a1.14,1.14,0,0,1,.23.28C269.05,397.75,269,397.85,268.91,397.91Zm1.55-.49c0-.26-.09-.53-.13-.8a1.81,1.81,0,0,0,.23,0c0,.26.06.53.08.8l-.17,0Zm2.09,1c0-.09-.06-.18-.08-.27l1.95-.6c.06.12.1.24.16.37Zm1.22-1.71a1.22,1.22,0,0,1,0-.21,5.62,5.62,0,0,1,.58,0c0,.08,0,.16-.05.23Zm2.69,2a3,3,0,0,1-.19-.3s.11-.1.18-.18a1,1,0,0,1,.22.27s-.14.13-.22.2Zm.89.47-.09-.05c0-.06,0-.14.06-.21s.1,0,.09.06,0,.13-.06.21Zm1.44-1.52h-3.35a1.23,1.23,0,0,1-.05-.13c.91-.16,1.82-.33,2.74-.45.13,0,.3.24.67.57ZM275.74,396l.2-.15c.15.18.28.37.43.54l-.17.14Zm1.81-2.73C277.76,393.29,277.66,393.26,277.55,393.25Zm-4.52.53h.21c0,.17-.07.36-.11.54a2.35,2.35,0,0,1-.24-.37s.08-.13.13-.2Zm-2,.61a1.35,1.35,0,0,1,.31.07c-.05.11-.09.25-.12.24a.57.57,0,0,1-.27-.11s0-.2.08-.21Zm-5.3-5.63.08,0-.12,0,0-.05Zm.3,8.14c0-.23,0-.66,0-.67.84-.2,1.61-.75,2.52-.51l.06-.05.08,0c.37-.22.78-.61,1.13-.57a12.19,12.19,0,0,0,4.17-.62s0,0,0,0l.07,0,3.36-.33a3.14,3.14,0,0,1-3.36.33h0c.1.28.1.49-.29.56-1.5.27-3,.56-4.49.8-.17,0-.34-.09-.52-.18,0,0,0,0,0,0a.11.11,0,0,1-.09,0,5.45,5.45,0,0,1-.79.53c-.58.26-1.17.45-1.76.67l-1.47.14v-.29l1.47.15Zm-2.45.17.06.14-.66.36c0-.11-.08-.23-.12-.32l.71-.18Zm-1.44.62.12,0s-.06.06-.08,0a.49.49,0,0,1-.16,0C262.11,397.73,262.14,397.7,262.18,397.69Zm-2.28-7.09c0,.06.1.15.09.21s-.14.08-.2.11l-.12-.21.23-.1Zm.8,8.22,0,0h0s0,0,0,0c0,.37-.05.74-.08,1.11a0,0,0,0,1,0,0l.12.42-.32-.06.2-.35a.15.15,0,0,0,0-.06c0-.35.07-.71.09-1.07l0,0a2.76,2.76,0,0,0-2-.19c1.05-.77,1.6-.69,2,.19Zm-41.3-41.05h0c0-.19.07-.38.11-.68.46.47.38.65-.11.68v0l0,0,0,.9s0,0,0,0v0a1,1,0,0,1,.29.08c0,.62,0,1.24,0,1.86h-.27c0-.64,0-1.29,0-1.95h0v-.06c-.14-.14-.27-.3-.41-.44l.44-.46v-.08Zm-1.61,22.77c0,.07,0,.13,0,.19H216v-.08l1.8-.11Zm-.43,7.19,0,.28-2,.2a2.06,2.06,0,0,0,0-.26Zm-3,1.43-.26-.17.34-.48c.07.07.16.13.24.2a4.73,4.73,0,0,1-.32.46Zm.64,2.32c.29.62.52,1.07.74,1.54C214.61,393,215,392.27,215,391.48Zm2.36,2.58-.05,0,0,0a1.21,1.21,0,0,1-1.38-.06,1.58,1.58,0,0,1,1.38.06h.1c.91-.67,1.12-.67,1.86,0h-1.87Zm.89-6.45h.45v.1h-.45Zm.49,4.27-.1-.24.66-.13Zm1-4.55h1v.17h-1Zm8.12,10.9c-.47.11-1.14-.18-1.32.59,0,0,0,0,0,0s0,0,0,0l.44.77c-.84.14-.33-.5-.44-.77a.05.05,0,0,0,0,0l0,0a10.28,10.28,0,0,0-1.85.11c-1.55.33-3.09.73-4.8,1.15,1.22-1,2.62-1,3.9-1.38a16.16,16.16,0,0,0,1.59-.44c.19-.08.27-.39.46-.68.85,1.16,1.92,0,3,.09-.22.56-.64.47-1,.56Zm-6.17-4.62-.51.22a3,3,0,0,1,.18-.36S221.53,393.53,221.72,393.61Zm-.16-9.37c.08,0,.17-.08.23-.06s.08.12.12.19-.17.08-.22.06S221.6,384.3,221.56,384.24Zm.42-5.59a.44.44,0,0,1,.12-.06.84.84,0,0,1,.21.11.73.73,0,0,1-.23.09S222,378.7,222,378.65Zm2.25,5.24h0v.5l-1-.29a.59.59,0,0,0,0-.13l1-.08v0l0,0,1.11-.33C225,384.21,224.63,384.32,224.23,383.89Zm.27,3.53-.34,0v-.06a1.19,1.19,0,0,1,.26-.05s.06.05.09.09Zm-1.34-2.14a5.89,5.89,0,0,1-.54.32l-.13-.24.57-.31A2.25,2.25,0,0,1,223.16,385.28Zm-.2,2.42s-.07.07-.09.07a.72.72,0,0,1-.21-.12s.06-.09.09-.08Zm1,5.22v0s0,0,.06,0c.1-.84,1-.69,1.32-1.19.06.09.13.16.2.25l-1.52.94s0,0,0,.08H224c0,.21-.06.42-.11.73l-.29-.52-1.14.74a1.45,1.45,0,0,1,1.54-.94Zm1.62,3.29.14.19-.22.17c0-.06-.1-.14-.09-.21s.1-.1.16-.15Zm.69-12.43c-.05-.1-.11-.21-.15-.31l1-.42.1.21c-.31.17-.6.35-.9.53Zm.94,3.18.15.18-.12,0a.83.83,0,0,0-.11-.15s.09-.07.09-.06Zm-.9,1.6c0,.06.09.12.1.18a.2.2,0,0,1-.07.1.93.93,0,0,1-.2-.1c.06-.05.1-.12.16-.17Zm0-2,.37,0v.75l-.21,0c0-.25-.11-.51-.15-.75Zm.1,5,.34,0v.09c-.11,0-.23,0-.34,0Zm5.27,2-.14-.13.17-.1s0,.08,0,.12A.19.19,0,0,1,231.69,393.56Zm1.12-.8v-.09l.43.05h.11v0c0-.31-.14-.65.55-.72-.25.33-.41.52-.55.72v.05h-.12l-.43,0Zm1.74,1.14c-.27-.15-.62-.23-.66-.37-.08-.39.14-.66.66-.65Zm.12,1.57c.06-.66.29-1.11,1-1,.12.43.24.81.36,1.23l-1.36-.18Zm.68-3.66.3-.19a2.9,2.9,0,0,1,.12.28,1.07,1.07,0,0,1-.32.08S235.34,391.82,235.35,391.81Zm2,3.21a.79.79,0,0,1-.08-.13s.05-.05.07-.09a1.17,1.17,0,0,0,0,.11s0,.08,0,.11Zm-.49-1.2.83-.47c-.18-.27-.3-.42-.52-.74.73,0,.74.36.83.77a4.28,4.28,0,0,0,.67,1.09l-1.8-.64Zm.46-3.21c-.05-.42-.07-.65-.1-.94C238.09,389.92,237.57,390.18,237.34,390.61Zm0-12.63c.08-.08.13-.17.22-.22s.18.1.17.11a1.12,1.12,0,0,1-.16.28C237.47,378.07,237.42,378,237.35,378Zm1.85,15.93c0-.19,0-.38,0-.57l.22,0c0,.19,0,.39.06.58l-.22,0Zm.13-.91-.65-1.19.62-1.05C240.35,391.49,239.4,392.11,239.33,393Zm1,.44-.51-.12c0-.07,0-.14,0-.2l.53.1c0,.07,0,.14,0,.21Zm0-2.35c-.07-.18-.13-.36-.19-.54l.29-.12c.06.18.14.35.21.53l-.32.11Zm.77,1.39-.26-.12.29-.6.27.13-.3.6Zm.83-2.34c-.36,0-.91.24-.75-.69l.92.49C242.1,390,242.06,390.14,242,390.14Zm.86,1.92a2.06,2.06,0,0,1-.2-.33s.12-.19.15-.18a3.19,3.19,0,0,1,.35.24c-.13.11-.21.19-.29.27Zm.48,5.26s-.15-.05-.22-.09a.61.61,0,0,1,0-.13l.49,0a1.2,1.2,0,0,1-.29.19Zm.42-1.52,1.61-.46a.59.59,0,0,1,.06.14c-.29.14-.68.2-.84.43S244.23,396.55,243.77,395.8Zm1.71,1.19-.35-.4c.05,0,.11-.09.15-.14.11.14.24.27.35.41Zm.56-1.54-.29-.47.29-.06Zm-.42-1.8a9,9,0,0,1-1.94-.18,6.18,6.18,0,0,0,2.33-.55C246.3,393.38,246,393.64,245.62,393.65Zm-.26-3.1-.48,1.8c-.13-.55-.22-1-.33-1.43Zm-.77-.52.56-.39.15.2-.54.4-.16-.23Zm1.19,2a2.14,2.14,0,0,0,.13-.19l.78.45a1.73,1.73,0,0,0-.19.28l-.72-.55Zm.35-1.32.61-1.08c0-.19,0-.38.06-.57H247c0,.17.05.33.08.49l.43.28-1.35.87Zm2.12,5.73-1.7.34C247.1,395.91,247.7,396.32,248.25,396.39Zm-1.34-.63.51-.19a1.57,1.57,0,0,1-.19.33,1.88,1.88,0,0,1-.32-.15Zm1.32,2.44c.35-.41.69-.34,1,.2C248.86,398.34,248.56,398.27,248.23,398.2Zm1.49-2.33-.12-.13.22-.05s.06.05.09.07l-.19.1Zm3.07-.43s.1,0,.12,0a.55.55,0,0,1,.13.17l-.24,0v-.18Zm.21,4.28c.06-.12.1-.26.17-.37s.16,0,.31.1Zm2.93-4.77c0-.1.23-.3.46-.37-.12.47.47,1.36-.65,1.21a0,0,0,0,0-.05,0h0v1.28c-.57-.65-.41-1,0-1.28v-.05h.06c.48-.16.3-.49.19-.84Zm-.15-3.31.15-.07a4,4,0,0,1,.22.34,1.11,1.11,0,0,1,0,.33l-.2.05c-.06-.21-.13-.42-.2-.62Zm-.46,2-.25-.15a1,1,0,0,1,.24-.27s.15.07.23.11l-.22.32Zm-.23.78c0,.1,0,.21-.05.31l-1.91-.27a1.38,1.38,0,0,1,.61-1.36c0,.37.1.72.16,1.08l1.19.23Zm2.52,4.73a6.65,6.65,0,0,1-1.16-.1c-.48,0-.95-.16-1.33.41s-.77.11-1.14-.06V399l3.81-.8C258.11,398.65,258.26,399,257.61,399.12Zm-4.22-12.43a.53.53,0,0,0,0,.13.74.74,0,0,0,0,.14l-.09-.21.11-.06Zm.8,4.61,0,0h.06l2.52-.37.11-.07.1,0s0,0,0,0h0l0,0h0l-.06.06-.16,0a3.4,3.4,0,0,1-2.52.37h0c.25.32,0,.41-.26.53s-.83.4-1.37.66a1.12,1.12,0,0,0-1.37-.26c-1.21.41-2.45.72-3.67,1.05a2.81,2.81,0,0,1-.65.05c0-.63.34-.64.71-.72l6.61-1.3Zm-3.27-10.1.29.06h-.32S250.91,381.2,250.92,381.2Zm0,7.57c.27.43.53.87.8,1.31l-.28.17-.76-1.31.23-.16Zm-1.23-11.22v.13l-.61,0a1.67,1.67,0,0,0-.05-.18h.66Zm-1.47,4.2a.45.45,0,0,1,0,.08l-.11,0,0-.12h.11Zm-1.13.76h.13c0,.14,0,.29,0,.43h-.16Zm-3,4.77c0,.08-.07.22-.13.23s-.16-.07-.29-.14Zm-.53.65,3-.65.11-.06h0c.12-.17.21-.4.37-.44a7.53,7.53,0,0,1,1.21-.19c-.12-.91-.22-1.74-.34-2.72l1.39-.84c-.73,1.08-.78,1.47-.22,3.09l1,.06c-.06.29-.11.57-.2,1a2,2,0,0,0-2.15,0c-.26.16-.68.05-1,.05l0,0a.7.7,0,0,0-.14,0l-1.41.83c-.12.32-.28.85-.46,1.36l-.29-.06v-1.13c-.33-.06-.62-.12-.91-.16v-.19Zm-.35,2.92.66.37-.18.24-.58-.43.11-.17Zm-.44-8V383a5,5,0,0,1-.56.06,1.29,1.29,0,0,1,0-.19h.6Zm-2.9-7.85v.11l-.42.08a.88.88,0,0,0,0-.17l.44,0Zm1.08,8c-.55-.25-.85.75-1.52.35A1,1,0,0,1,241,383Zm-2.2-6.84H239s0,.09-.06.09h-.25A.19.19,0,0,1,238.77,376.18Zm-.27,13.07a.83.83,0,0,1,.39,0c.86-.87,2-.79,3.05-.8,0,0,0,0,0-.05l0,0c.17-.34.39-.68.79-.4.16.11.12.52.16.81l-.95-.41v0H242c-.22.51-.71.5-1.13.5a1.85,1.85,0,0,0-1.67.68.13.13,0,0,1-.11,0s0-.08-.07-.12a1.28,1.28,0,0,1-.34.19,2.26,2.26,0,0,1-.51-.05,2.57,2.57,0,0,1,.4-.35ZM238,372.47l-.27.08c-.07-.22-.15-.44-.23-.65l.38-.1.12.66Zm-.46-3.07-.52.55-2.45-.55Zm-5.54,0h1.19v.17l-1.19-.06Zm-.39-2h.09v.49h-.09Zm-.15,2.71a4.32,4.32,0,0,1,.19.45c-.09,0-.23.08-.24.06a3.66,3.66,0,0,1-.15-.43l.2-.07Zm0,3.08,2.94-.39c.78-.12,1.57-.24,2.35-.38a2,2,0,0,1-2.35.38c-.12.12-.23.36-.35.36a4.91,4.91,0,0,0-3.06,1c.16-.33.3-.66.46-1Zm4.14,10.91,0-.12.81-.07a1,1,0,0,0,0,.15,2.14,2.14,0,0,1-.35.06Zm0,3.39c0,.08-.06.18-.12.22s-.14-.05-.22-.07,0-.19.12-.23S235.57,387.45,235.64,387.48Zm-2.12,1.23.2.09s-.08.06-.12,0a.73.73,0,0,1-.19-.07Zm-.22-1.48c-.07,0-.16-.06-.24-.08s.07-.18.14-.2.15,0,.22.08S233.36,387.22,233.3,387.23Zm-.72-9h0a2.35,2.35,0,0,1-.75,0c-.08,0-.07-.36.12-.66l.63.67h.05l2.33.12a3.27,3.27,0,0,1-2.33-.12Zm-1.28,7,.89-.14v.14h-.89Zm.08,1.06s0,.07,0,.07a.29.29,0,0,1-.1,0s0-.07,0-.07Zm.59-5.36a.62.62,0,0,1,.24.1c-.05.05-.1.14-.15.14s-.15-.07-.23-.1S231.93,380.86,232,380.86Zm-.12-.8A.56.56,0,0,1,232,380s.07.07.05.1a.66.66,0,0,1-.12.17c0-.06-.07-.13-.1-.2Zm.44,6.7c0,.08.07.18.05.24s-.14.09-.21.14-.08-.17,0-.23a.77.77,0,0,1,.22-.15Zm-1.66,3.59c0,.18.06.35.09.53,1.26-.34,2.51-.67,3.77-1,.61-.15,1.22-.28,2.06-.47-.33.31-.48.56-.69.62-1.67.41-3.34.79-5,1.16,0,0-.1-.19-.16-.3s-.17-.32-.24-.48Zm-1.3-20.93a.92.92,0,0,1,.23.09.59.59,0,0,0-.11.08l-.23-.1s.09-.07.12-.07Zm-1.52.23s0,.11,0,.16l-.71.08a.89.89,0,0,0,0-.15l.71-.08Zm-4.61,4.88a1,1,0,0,1,.84.2,1.21,1.21,0,0,0,.82.25c1.83-.23,3.64-.49,5.48-.62a16.3,16.3,0,0,1-4.79.95,13.69,13.69,0,0,1-4.93-.14c-.49.53-.52,1.51-1.51,1.42l1.17-2A28.72,28.72,0,0,0,223.2,374.53ZM218.83,369a.61.61,0,0,1,.47.09c.09,1.2.95.82,1.64.8a1.28,1.28,0,0,1,.28.09l-2,.43c-.16-.25-.43-.61-.63-1-.05-.08.11-.36.23-.42Zm-.38,2.28a1.53,1.53,0,0,1,1.39,2.15.62.62,0,0,1-.25.32c-.1.06-.26,0-.54.05l.38-.85c-.58-1.27-1.66-1.52-2.92-1.57a16,16,0,0,1,2-.1Zm-6.08-15v0l-.75,0v-.06Zm-4.22,2.17v.12l-.44,0a.94.94,0,0,0,0-.16h.48Zm-1.49.16h-1.52v-.14h1.52Zm-.12-4.22h-.11a.46.46,0,0,1,0-.1s.07,0,.09,0,0,.08,0,.08Z" transform="translate(-58.77 -297)"/><path class="cls-1" d="M138.86,343.24a36.91,36.91,0,0,1-3.71.47.24.24,0,0,0,0,.08c1.8,0,3.61.16,5.42.1.92,0,1.79-.67,2.76-.35a2,2,0,0,0,2.06-.45c1.94,1.12,3.82-.18,5.79.07a1.26,1.26,0,0,0-.24-.59,60.71,60.71,0,0,0-12.1.66Z" transform="translate(-58.77 -297)"/><path class="cls-1" d="M201.53,363.32l-1.16-.75C200.29,363.71,200.92,363.49,201.53,363.32Z" transform="translate(-58.77 -297)"/><path class="cls-1" d="M242.16,394.6l-.1-.25a1.39,1.39,0,0,0-.28.26s.06.14.1.2A1,1,0,0,0,242.16,394.6Z" transform="translate(-58.77 -297)"/><path class="cls-1" d="M168.8,302.43l0,0h0v.25h0l0,0,.61-.15-.61-.14Z" transform="translate(-58.77 -297)"/><path class="cls-1" d="M207.33,350.28a46.75,46.75,0,0,1-4.72-2.64c-.12.82-.25,1.7-.38,2.64Z" transform="translate(-58.77 -297)"/></g></svg>