<svg id="Layer_1" data-name="Layer 1" xmlns="http://www.w3.org/2000/svg" viewBox="0 0 720 480"><defs><style>.cls-1{fill:#cfc3b4;}.cls-2{fill:#161515;}</style></defs><title>1</title><g id="_7" data-name="7"><path class="cls-1" d="M720,0V480H0V0Z"/><g id="Frog"><path class="cls-2" d="M62.73,112a12.18,12.18,0,0,1,.31,1.34,2.3,2.3,0,0,1-.07,1.45,1.49,1.49,0,0,1-1.46.72,2.71,2.71,0,0,1-1.36-.51c-4.16-2.75-6.56-5-11.64-4.8q-9.93.34-16.48.27a3.69,3.69,0,0,1-2.61-1.21,2.06,2.06,0,0,1-.33-2.49l1.69-2.93a.63.63,0,0,0,0-.72c-3.32-4.92-2.75-8.31-1.22-13.83,1.67-6,7.64-12.72,12-16.16q1.28-1,7.42-5.26c8.71-6,18.82-10,28.73-12.64A90,90,0,0,1,98.26,52c3.95-.11,7.22-.17,9.83-.17,7.17,0,14.07,1.8,20.74,4.11,1.92.66,2.78,0,3.53-1.78,1.52-3.62,6.73-5.5,10.21-5.84a9.7,9.7,0,0,1,7.62,2.6c1.48,1.31,1.34,3.27,2.65,4.87a1.2,1.2,0,0,0,1.69.17.8.8,0,0,0,.13-.13c3.28-3.61,5.79-6.36,10.46-6.22A9.28,9.28,0,0,1,173.81,58a1.62,1.62,0,0,0,1.44,1.47c5.05.54,8.7.74,13.16,3.45a26.13,26.13,0,0,1,4.05,3.29c4.13,3.93,14.12,11.85,10.78,18.3A7.84,7.84,0,0,1,196.43,89a1.2,1.2,0,0,0-.87.45q-2.76,3.44-7.65,9c-2.11,2.38-4.8,4.26-6.57,6.36a1,1,0,0,0-.22.87c.63,2.87-.59,4.61-3.64,5.23q-4,.81-5.37,2.33a1.46,1.46,0,0,1-.85.46,11.51,11.51,0,0,1-5.41-.51,1.32,1.32,0,0,0-.94,0c-2.78,1.13-7.69,2-8-2a.32.32,0,0,0-.34-.3h-.06l-16.3,3.77a1.29,1.29,0,0,0-.72.46q-2.06,2.56-4.53,2.25c-4-.53-7.36-2.9-11.54-3.75a103.62,103.62,0,0,0-17.94-2.09c-5.22-.12-9.57-.8-15.42-1.14a7.28,7.28,0,0,1-6-3.31.69.69,0,0,0-1-.2.67.67,0,0,0-.28.36,6.26,6.26,0,0,1-1.41,2.31,1.32,1.32,0,0,1-.85.41c-3.7.29-5.65,1.94-9.8,1q-1.71-.37-7.62.39C62.74,111.39,62.6,111.62,62.73,112Z"/><path class="cls-1" d="M71.59,107.91a9.21,9.21,0,0,1,3.4.76.58.58,0,0,1,.35.76c-.19.67-.57,1-1.14.86a35.85,35.85,0,0,0-11.61,0,4.48,4.48,0,0,1-3.16-1,.3.3,0,0,0-.39,0l0,.08L59,110c0,.1,0,.15,0,.16l2.26,2a1.64,1.64,0,0,1,.62,1.39l-.09.62c-.08.51-.31.63-.68.36-5.1-3.79-7.82-5.69-14.51-5.46s-11.51.34-14.37.33a2.38,2.38,0,0,1-1.45-.48c-1-.76-1-1.62,0-2.59q5.12-4.93,7.16-7.4c5-6.07,8.71-10.39,11.71-13.48A22.7,22.7,0,0,1,63.88,78.6c.4,0,.55-.25.46-.64l-.06-.26a.39.39,0,0,0-.47-.33A24.65,24.65,0,0,0,49.94,83.6,130.6,130.6,0,0,0,36.35,99.24,26.83,26.83,0,0,1,32.19,103c-.29.22-.5.16-.65-.17-2-4.58-2.69-5.93-1.32-11.44Q32.14,83.59,39.15,77C57.65,59.55,84.7,51.6,110.29,53.07a57.28,57.28,0,0,1,17.29,3.76,19.77,19.77,0,0,0,4.47.68.62.62,0,0,0,.64-.44q1.23-4.07,2.73-5A14.88,14.88,0,0,1,144,49.62c3.09.17,5.18,1.29,6.25,3.35A18.39,18.39,0,0,0,153,57.28a.88.88,0,0,0,.9.2,5.43,5.43,0,0,0,2.6-1.88c2.88-4.32,8.84-6.56,13.17-3.06A8.42,8.42,0,0,1,172.92,59a1.62,1.62,0,0,0,1.44,1.54c6.29.66,11.09.64,15.89,5q5.08,4.64,8,7.68c1.88,1.92,4.57,6,4.5,8.76-.06,2.65-3,5.89-6.17,5.5-.37,0-.51-.25-.42-.61q.68-2.74-2-4.71c-3.57-2.61-6.94-2.8-12-3.27a37.58,37.58,0,0,0-10.94.22C159,81.74,151.36,83.92,141,83q-7.49-.66-15.21-1.7a.57.57,0,0,0-.64.48.66.66,0,0,0,0,.2l.06.27a.24.24,0,0,0,.21.19q13.84,2,19.58,2.19a54.57,54.57,0,0,0,10.88-1.23q3.71-.69,13.22-2.6a47.79,47.79,0,0,1,19.68.07c1.76.38,6.48,2.25,6.25,4.81a10.5,10.5,0,0,1-2.67,6.09q-3.88,4.45-10.12,10.62a9.17,9.17,0,0,1-3.58,2.18c-3.28,1.1-5.37,2.4-8.56,2.94a28,28,0,0,0-4.62,1.38q-1,.38-6.66-.21a1.37,1.37,0,0,1-.84-.41c-2.69-2.72-6.91-1.26-9.6.79a1.22,1.22,0,0,1-.9.24,14.54,14.54,0,0,0-4.08.11,8.09,8.09,0,0,1-4-.81c-4.94-2-11.68-3.63-16.83-6.76a.47.47,0,0,1-.16-.64.43.43,0,0,1,.26-.2,24.21,24.21,0,0,0,9-5.29c.11-.09.1-.18,0-.25l-.46-.27a.28.28,0,0,0-.29,0c-2.13,1.4-3.52,2.73-6,3.71q-4.76,1.94-5.35,2.16c-4.24,1.65-8.33,1-12.55,2.08a.26.26,0,0,0-.18.31l.06.32a.28.28,0,0,0,.37.26,41.87,41.87,0,0,1,7.36-.81,16.27,16.27,0,0,0,4.91-.93,1.33,1.33,0,0,1,1,.09,105,105,0,0,0,16.68,6.45,2.78,2.78,0,0,1,1.77,2.25.37.37,0,0,0,.48.3c2.37-.49,4-.79,5-.91q5.46-.74.68,2s-.78.18-2.23.45c-2.64.51-5.94-.31-8.36-.13-1.51.11-1.55.43-.13,1a11.26,11.26,0,0,0,2.64.44.58.58,0,0,1,.54.62.62.62,0,0,1-.07.23,1.73,1.73,0,0,1-.62.65,2.42,2.42,0,0,1-1.81.38,19.37,19.37,0,0,1-5.56-1.54c-5.27-2.58-11.92-3.42-17.71-3.76q-13.22-.76-21-1.42a8.51,8.51,0,0,1-4.11-1.4C79,102.81,95.11,92.48,99.19,89.33a29.22,29.22,0,0,1,11-5.52.53.53,0,0,0,.38-.66l0-.09-.11-.24a.26.26,0,0,0-.32-.16A26,26,0,0,0,99.8,87.47q-7.76,5.94-8.92,6.8c-3.22,2.4-7.18,6.35-7.5,10.57a1.68,1.68,0,0,1-.34,1,1,1,0,0,1-.85.21,1,1,0,0,1-.78-.54q-1.64-3.06-6.4-2.73a41.15,41.15,0,0,0-7.25,1.06,28,28,0,0,1-5.9-.31c-.33,0-.36-.17-.09-.38,2.39-1.91,6.93-5.09,10.12-8.29,2.71-2.73,9.29-7.49,10.66-13.46.75-3.29-2.08-7.25-4.32-9-3-2.34-6.66-1.71-11.56-1.63a16.6,16.6,0,0,0-6.16,1.31,66.17,66.17,0,0,0-7.37,3.41c-6.16,3.87-10,5.62-12.82,9.2-.53.66-.37.92.47.78a2,2,0,0,0,.63-.45A68.5,68.5,0,0,1,59.06,73.93c5.11-2.21,9.12-2.13,14.46-2a6.45,6.45,0,0,1,3.9,1.32Q83.62,78.07,80.53,84c-1.87,3.62-8,8.67-10.6,11.27-3.35,3.3-6.66,5.09-9.43,7.41a1.28,1.28,0,0,1-.9.32L58.21,103a.48.48,0,0,0-.56.45.54.54,0,0,0,.05.29.61.61,0,0,0,.46.36,50.34,50.34,0,0,0,8.41.89c4.26.05,11.26-3.15,14.21,1.54a1.55,1.55,0,0,1-.49,2.14l-.13.07a5.15,5.15,0,0,1-2.93.32,1.23,1.23,0,0,1-.77-.42A5.2,5.2,0,0,0,71.91,107a.2.2,0,0,0-.15.1l-.33.57C71.32,107.81,71.38,107.9,71.59,107.91Z"/><path class="cls-2" d="M149.16,58A11,11,0,0,0,139,57.26c-.45.19-.58.07-.39-.38,1.45-3.42,9.39-2,11.13.36a.5.5,0,0,1-.25.78A.33.33,0,0,1,149.16,58Z"/><path class="cls-2" d="M168.26,57.69c-2.63-1.74-4.68-1-7.48-.25s-2.89.38-.56-1.18c2.65-1.78,8.86-1.67,9.77,2.86a.45.45,0,0,1-.24.53.39.39,0,0,1-.28.05.21.21,0,0,1-.18-.14C169,58.81,168.75,58,168.26,57.69Z"/><ellipse class="cls-1" cx="177.03" cy="107.98" rx="3.69" ry="1.71" transform="translate(-28.92 83.85) rotate(-24.7)"/><ellipse class="cls-1" cx="152.67" cy="109.44" rx="3.76" ry="1.09" transform="translate(-24.36 46.63) rotate(-16.1)"/><path class="cls-1" d="M165.49,110.07l5.91-1.37c.81-.19,1.18.13,1.13,1l-.06.8a2,2,0,0,1-1.89,1.92q-3.77.56-5.43-1.08a.73.73,0,0,1,.34-1.23Z"/><path class="cls-1" d="M163.8,110a.29.29,0,0,1,.29.27h0v.17a2.62,2.62,0,0,1-2.64,2.58l-.52,0a2.62,2.62,0,0,1-2.78-2.43h0v-.17a.28.28,0,0,1,.27-.28Z"/></g></g></svg>