<svg id="Layer_1" data-name="Layer 1" xmlns="http://www.w3.org/2000/svg" viewBox="0 0 720 480"><defs><style>.cls-1{fill:#cfc3b4;}.cls-2{fill:#232322;}</style></defs><title>3</title><g id="_17" data-name="17"><path class="cls-1" d="M720,1V481H0V1Z" transform="translate(0 -1)"/><g id="Frog"><path class="cls-2" d="M148.46,47.51a.4.4,0,0,0,.54.18.41.41,0,0,0,.18-.19q1.56-3.34,2.33-4.74c1.38-2.48,6.28-5.24,8.4-2.2a18.42,18.42,0,0,1,1.54,3.34,5.43,5.43,0,0,1,.28,3.73,11.34,11.34,0,0,0-.56,3.76c0,5,0,7.75-3,10.91A3.9,3.9,0,0,1,151.46,60c-.57-3.82-1.62-7.45.09-10.55a12.66,12.66,0,0,1,3.57-4.08,2.36,2.36,0,0,1,3.1.22l2.06,2.06c.42.41.62.33.6-.26A11.21,11.21,0,0,0,159,41.28a2.41,2.41,0,0,0-3-.81c-3.64,1.66-5.26,5.59-6.38,9.38-.35,1.18-.72,1.18-1.1,0-.69-2.17-3.83-6.17-6.5-5.85-2.38.3-9.6,2.17-10.63,5.1-1.19,3.38.39,7.74,1.49,12a.27.27,0,0,1-.19.35l-.26.11a.26.26,0,0,1-.39-.16c-1.37-3.76-3.14-9.11-1.52-13,.53-1.26,2-2.39,4.27-3.4C140.43,42.61,145.37,41.41,148.46,47.51Z" transform="translate(0 -1)"/><path class="cls-1" d="M158.87,53.94a1.55,1.55,0,0,0,0,1.23q1.61,3.28-1.49,6.29c-2.37,2.3-4.32.57-4.9-2.07-1.26-5.75-1.57-9.89,3-13.09a1.8,1.8,0,0,1,2.49.44A7.17,7.17,0,0,1,158.87,53.94Z" transform="translate(0 -1)"/><path class="cls-2" d="M87,96c0-.27-.1-.35-.35-.23l-12.8,6.16c-.68.33-.65.57.1.7,2.44.43,6-.2,7.64,2.88a.82.82,0,0,1,0,.89c-1.29,2.06-2.43,1.82-4.42,2.08a.92.92,0,0,0-.74.52q-1.43,2.72-4.86,2.3-4.44-.55-6.64-.77c-1.47-.14-1.74.36-.79,1.49s.49,2.59-.8,3.41c-4,2.57-7.44-.81-11-3.27a10.19,10.19,0,0,0-7.14-2.1,75.49,75.49,0,0,1-11.64.53c-4-.1-7.94-3.2-4.25-7.29a1.14,1.14,0,0,0,0-1.51c-3.83-4.37-4.87-9.41-3.46-15.15Q28.62,75.21,35,68.42A66.25,66.25,0,0,1,64.83,50.06a32.51,32.51,0,0,1,9.67-1.49q8,.07,28.76,1a114.94,114.94,0,0,1,19.12,2.58,21.21,21.21,0,0,1,6.27,2.31.24.24,0,0,1,.11.35l-.15.3a.36.36,0,0,1-.53.18,28.65,28.65,0,0,0-7.62-2.35A150.17,150.17,0,0,0,101,50.64q-25.09-1-26.49-1a19.22,19.22,0,0,0-4.4.24,66.18,66.18,0,0,0-31,16,36.18,36.18,0,0,0-10.06,14c-1.81,4.78-3.29,9.7-2.44,14.33a17.65,17.65,0,0,0,3.84,7.47.51.51,0,0,0,.77.12q.89-.6,3.6-2.78c3.5-2.81,7.29-4.8,10.81-7.46a39.69,39.69,0,0,1,6.07-3.64c7-3.51,12.5-5.39,21-5.63a5.8,5.8,0,0,1,4,1.41q1.58,1.59-.48.76a8.05,8.05,0,0,0-3.13-.88c-8.73,0-15.31,2.31-23.22,6.83a127.14,127.14,0,0,0-20,14.29,2,2,0,0,0-.31,2.73,4.87,4.87,0,0,0,4.22,1.82q5.59,0,10.47-.45a11.5,11.5,0,0,1,4.59.38c4,1.24,6.47,4.06,9.55,5.54a3.86,3.86,0,0,0,3.5,0l.59-.28q1.65-.8.18-1.89a17.69,17.69,0,0,0-6.32-2.82.76.76,0,0,1-.54-.43l-.19-.41c-.26-.54-.1-.73.47-.58a23.24,23.24,0,0,0,6.38.82c3.53-.07,7,1.24,10.4.75,2.35-.33,2.52-1.14.52-2.41a19.46,19.46,0,0,0-12.7-2.87c-1.54.15-2.49.23-2.85.22a.19.19,0,0,1-.22-.19l0-.36a.4.4,0,0,1,.37-.44h0a66.08,66.08,0,0,0,24.84-7.39c.75-.39,2-.93,3.65-1.62A42.94,42.94,0,0,0,91,92.42a7,7,0,0,0,3.66-6.69c0-3.89-3-5.81-6.52-7.11q-9-3.33-22.21-2.07A59.1,59.1,0,0,0,43.54,83a.29.29,0,0,1-.4-.13.3.3,0,0,1,0-.26l.6-1.21a.51.51,0,0,1,.23-.23,68.55,68.55,0,0,1,35.56-5.87c3.39.32,11.26,2.23,13.76,4.75q3.34,3.38,2.26,9a.55.55,0,0,0,.45.65.52.52,0,0,0,.37,0l10.34-5.44q2.16-1.12.66.73a6,6,0,0,1-1.91,1.29c-10,5.08-15,7.25-20.19,14.57-3.27,4.6.83,9.7,5.75,9.58a90.9,90.9,0,0,1,11.41.29q3.66.41,18.83,2.9a77.9,77.9,0,0,0,9.06.35,2,2,0,0,1,1,.25c1.95,1.08,6.54,3,8.11,1a.45.45,0,0,0-.08-.64l-.08,0-1.26-.62a.75.75,0,0,1-.45-.72v-.58c0-.49.19-.59.58-.3,1.36,1,4,1.2,7.95.61.56-.09,1-.56,1.41-1.43a.42.42,0,0,0,0-.31c-.18-.72-.62-1.23-1-1.2l-10.14.94a1.45,1.45,0,0,0-.69.39l-.51.44c-.37.33-.56.24-.56-.25v-1.73a.7.7,0,0,0-.39-.63l-11.92-5.84a3.94,3.94,0,0,0-2.48-.34c-5.94,1.13-9.7.43-17.45-.26a.85.85,0,0,1-.85-.85l0-.3a.46.46,0,0,1,.41-.5H102a62,62,0,0,0,15.1,1.07q3.41-.19,12.7-3.16a7.29,7.29,0,0,0,2.86-2c.27-.25.48-.21.64.12l.14.29a.43.43,0,0,1-.1.55c-2,2-6.14,3.25-8.73,4-.92.25-.95.6-.1,1q4.08,2.07,10.43,5.45a7.44,7.44,0,0,0,3.83.8c5-.15,7.57-.22,7.76-.21a18.88,18.88,0,0,0,4.41-.5,18.68,18.68,0,0,1,4.44-.35,1.18,1.18,0,0,1,.84.38c1,1.08,1.81,1.62,2.3,1.61,6.78-.08,14.64-1.25,19.74-5.69,3.25-2.84,6.83-5.54,8.46-8.87,1.37-2.78,5.63-12.85,3.5-16.42a1.28,1.28,0,0,0-1.55-.64q-8.24,2.1-25.41,6.59a36.77,36.77,0,0,1-14.61,1.08c-6.89-1-13.63-1.08-19-4.34q-2.94-1.77-9.2-5a10.27,10.27,0,0,1-2.45-2c-1-1.16-.79-1.36.5-.6q5.35,3.13,11.81,6.57A27.2,27.2,0,0,0,141,84c6.76.53,12.86,1.47,19.52.37q1.18-.2,12.35-3.06l16.5-4.23a1.11,1.11,0,0,1,1.4.65l.81,1.69a.75.75,0,0,0,1,.35l.12-.07c2.31-1.68,5.6-4.34,5.56-7.4-.12-8.45-10.25-9.67-17.2-11.33q-4.78-1.14-18.41-1.18a.53.53,0,0,1-.46-.3l-.2-.41c-.13-.28,0-.42.27-.41,6.6.11,15.48-.16,22.59,1.95a68.85,68.85,0,0,1,10,3.54q2.37,1.2,4,4.92c2.35,5.44-2,8.91-6.06,12a1.56,1.56,0,0,0-.54.81c-1.16,4.22-2.27,9.93-4.89,15-1.24,2.39-3.3,3.94-5.73,6.15a.73.73,0,0,0-.06,1,.81.81,0,0,0,.24.17q2.38,1.13,2.49,3a2.26,2.26,0,0,1-2.12,2.4H182l-6.29-.22a.81.81,0,0,0-.75.45l-.87,1.79a2.56,2.56,0,0,1-2,1.43,17.45,17.45,0,0,1-6.16-.3.76.76,0,0,0-.84.27c-2.33,2.87-8.27,2.06-9.66-1.09a.55.55,0,0,0-.82-.32,10.5,10.5,0,0,1-5,1,1.41,1.41,0,0,0-1,.27,11.44,11.44,0,0,1-6.26,1.84,1,1,0,0,0-.82.44q-2.17,3.07-6.64,1.69c-2-.62-4-1.8-6.46-1.82-8.48-.07-16.94-1.84-25.24-3a45.48,45.48,0,0,0-5.75-.46c-4.4,0-9.14.69-12.1-2.06-4.92-4.58-1.49-8.5,1.48-13A1.33,1.33,0,0,0,87,96Z" transform="translate(0 -1)"/><path class="cls-2" d="M143.33,48.67a2.51,2.51,0,0,1,2.81,2.13l.82,6c.49,3.61-1.47,6.87-4.38,7.27h0c-2.92.4-5.68-2.21-6.18-5.82h0l-.82-6a2.5,2.5,0,0,1,2.13-2.82h0Z" transform="translate(0 -1)"/><path class="cls-1" d="M143.29,58a4.65,4.65,0,0,0,.42,3.52,1.17,1.17,0,0,1-.52,1.56,1.15,1.15,0,0,1-.66.11c-4.49-.53-5.4-4.18-5.57-8.09s1.78-5.78,5.83-5.26c2.9.36,2.93,4.88,2.9,6.76a.61.61,0,0,1-.61.66l-1,.09A1,1,0,0,0,143.29,58Z" transform="translate(0 -1)"/><path class="cls-1" d="M79.63,106.54c-4.38,1.61-5.89-1.13-9.91-2.13-.55-.14-.54-.27,0-.39a6.93,6.93,0,0,1,2.71-.38,60.37,60.37,0,0,0,6.39.88,1.34,1.34,0,0,1,1.24,1.24A.7.7,0,0,1,79.63,106.54Z" transform="translate(0 -1)"/><path class="cls-1" d="M176.08,107.87l2.45-2.45a2.19,2.19,0,0,1,1.52-.66c.95,0,1.83.57,2.64,1.81a1.21,1.21,0,0,1-1,1.87h-5.36a.34.34,0,0,1-.34-.34A.33.33,0,0,1,176.08,107.87Z" transform="translate(0 -1)"/><rect class="cls-1" x="148.98" y="109.43" width="6.12" height="1.62" rx="0.63" ry="0.63" transform="translate(-19.46 32.72) rotate(-11.9)"/><path class="cls-1" d="M173.47,109.31a.1.1,0,0,1,.11.08v0c.18,1.11-1.34,2.28-3.4,2.62h0l-.37.06c-2.06.33-3.88-.3-4.06-1.41h0v0a.1.1,0,0,1,.08-.12h0Z" transform="translate(0 -1)"/><path class="cls-1" d="M163.46,111.35a.14.14,0,0,1,.12.16h0v.11a2.3,2.3,0,0,1-2.68,1.75l-2.2-.19a2.29,2.29,0,0,1-2.33-2.21h0v-.11a.14.14,0,0,1,.15-.12Z" transform="translate(0 -1)"/></g></g></svg>