<svg id="Layer_1" data-name="Layer 1" xmlns="http://www.w3.org/2000/svg" viewBox="0 0 720 480"><defs><style>.cls-1{fill:#cfc3b4;}.cls-2{fill:#202020;}.cls-3,.cls-4{stroke:#000;stroke-miterlimit:10;}.cls-4{fill:none;}.cls-5{fill:#fff;}</style></defs><title>1</title><g id="_17" data-name="17"><path class="cls-1" d="M720,1V481H0V1Z" transform="translate(0 -1)"/><path class="cls-2" d="M29,76.08a3.46,3.46,0,0,0-1.3,3.7,8.68,8.68,0,0,0,.6,1.6,26.44,26.44,0,0,0,2.3,3.6c.9,1.2,1.7,2.1,1.7,2.1s.7.8,1.6,1.7a36.53,36.53,0,0,0,3,2.7c1,.8,1.6,1.2,1.9,1.4a10.49,10.49,0,0,0,3.6,1.6,26.23,26.23,0,0,0-3-2.4c-.3-.2-.9-.6-1.9-1.4a34,34,0,0,1-2.9-2.6c-.9-.9-1.5-1.6-1.5-1.6s-.8-.9-1.6-2a31.42,31.42,0,0,1-2.2-3.4,8.11,8.11,0,0,1-.5-1.4,6.17,6.17,0,0,1-.2-1.8A3.92,3.92,0,0,1,29,76.08Z" transform="translate(0 -1)"/><path class="cls-2" d="M30.34,69a17.71,17.71,0,0,0,2.8-2.7c.1-.1.4-.5.6-.7a1.76,1.76,0,0,0,.4-.5,4.62,4.62,0,0,1,.7-.7,9,9,0,0,0,.9-1c.7-.6,1.2-1.3,1.9-2a55.24,55.24,0,0,1,4.3-3.8,139.92,139.92,0,0,1,20.9-13.8c3.7-2.1,7.9-4.2,11.8-6.2s8.1-4.1,12-5.7A45.09,45.09,0,0,1,99,28.78a14.74,14.74,0,0,1,9.2,1.8c5.5,3.1,10.9,7.2,16.5,8.7s13.3.9,17.4.5,5.2-.7,7.4-.9a10.77,10.77,0,0,1,2.2-.2c1.6-.1,2.8.1,4.8,0a62.11,62.11,0,0,0,6.8-.8c2.4-.4,5.4-1.2,8.1-1.2a10.22,10.22,0,0,1,4.4,1.1,6.61,6.61,0,0,1,3.5,3.3c.7,1.7.4,3.5.4,5.4a5.53,5.53,0,0,0,.9,3,9.66,9.66,0,0,0,2.3,2.2c1.7,1.2,3.5,2.1,5.2,3.2a13.57,13.57,0,0,1,4.4,4.2,6.11,6.11,0,0,1,.7,5.7,18.3,18.3,0,0,1-3.5,5.2,32.22,32.22,0,0,1-9.7,8.3c-3.9,2-8.1,2.3-12.4,2.3s-8.4-.3-12.6-.5c-2.1-.1-4.1-.3-6.1-.5l-2.9-.3c-.9-.1-1.9-.2-2.7-.3s-1.8-.2-2.3-.3a3.22,3.22,0,0,0-.8-.1h-.6c0-.1,0-.1-.1-.2s-.1-.3-.3-.5a8.79,8.79,0,0,1-.6-1c0,.3.1.9.1,1.2a1.08,1.08,0,0,0,.1.6c0,.2,0,.2.1.3s0,.4.2.5.6.1.9.2a2,2,0,0,0,.9.1c.5.1,1.5.2,2.3.3s1.7.2,2.7.3,1.9.2,3,.3c2,.2,4,.4,6.1.5,4.2.2,8.4.6,12.7.5s8.8-.4,12.8-2.4,7.1-5.2,10-8.6a22.14,22.14,0,0,0,3.7-5.5,7.78,7.78,0,0,0,.4-3.4,9.58,9.58,0,0,0-1.2-3.2,15.5,15.5,0,0,0-4.7-4.5c-1.8-1.2-3.5-2.1-5.2-3.2a7.28,7.28,0,0,1-2-1.9,4.63,4.63,0,0,1-.8-2.5,26.2,26.2,0,0,1,.1-2.8,7.17,7.17,0,0,0-.6-2.9,8.19,8.19,0,0,0-4-3.8,13,13,0,0,0-4.8-1.2,50.16,50.16,0,0,0-8.3,1.2c-2.4.4-4.5.5-6.5.8s-3-.2-4.6,0a13.44,13.44,0,0,0-2.2.3c-2.2.3-3.3.5-7.3,1s-11.6.9-17.3-.5-11.2-5.6-16.8-8.8a15.53,15.53,0,0,0-9.5-1.8,47.37,47.37,0,0,0-12.7,3.2c-4,1.6-8.2,3.7-12.1,5.7S66,41,62.34,43.08a135.5,135.5,0,0,0-21.1,14,53.93,53.93,0,0,0-4.3,3.9l-2,2a8.12,8.12,0,0,0-.9,1,5,5,0,0,0-.7.8l-.5.5a3.74,3.74,0,0,0-.6.7A11.94,11.94,0,0,0,30.34,69Z" transform="translate(0 -1)"/><path class="cls-2" d="M141.14,61.68a2.54,2.54,0,0,1,.5-1.6,11.24,11.24,0,0,1,1.1-1.5c.2-.2.4-.5,1.1-1.2a22.26,22.26,0,0,1,5.4-4,18.94,18.94,0,0,1,2.7-1.2,6.74,6.74,0,0,1,1.2-.4,17.94,17.94,0,0,1,3.6-.7,21.83,21.83,0,0,1,6.3.2,15.18,15.18,0,0,1,2.2.5c1.5.4,2.4.6,3.7.9a9.38,9.38,0,0,0-3.4-1.9c-.4-.1-1.1-.3-2.3-.6a20.62,20.62,0,0,0-6.6-.2,17.8,17.8,0,0,0-3.8.8,6.74,6.74,0,0,0-1.2.4,22.12,22.12,0,0,0-2.9,1.3,21.52,21.52,0,0,0-5.6,4.2c-.7.7-.9,1-1.1,1.2a3.91,3.91,0,0,0-1,1.9A2.13,2.13,0,0,0,141.14,61.68Z" transform="translate(0 -1)"/><path class="cls-2" d="M194.64,66.08a30.36,30.36,0,0,0-1.2,3.6,9.2,9.2,0,0,1-.3.9,1.42,1.42,0,0,0-.2.6c-.2.4-.4.9-.7,1.4a21.06,21.06,0,0,1-4.7,5.8,26.79,26.79,0,0,1-5.7,3.8,15.22,15.22,0,0,1-2.8,1.1s-1.1.4-2.9.9a37.93,37.93,0,0,1-6.8,1,64.13,64.13,0,0,1-7.6,0,23,23,0,0,0-2.3-.1,15.32,15.32,0,0,0-3.8.2,14.12,14.12,0,0,0,3.8.9c.4,0,1.3.1,2.3.2a67.56,67.56,0,0,0,7.8,0,38.16,38.16,0,0,0,7-1.1c1.8-.5,3-.9,3-.9a29.43,29.43,0,0,0,2.9-1.2,24.88,24.88,0,0,0,5.9-3.9,23.09,23.09,0,0,0,4.9-6.1,6.56,6.56,0,0,0,.7-1.5l.3-.6a9.2,9.2,0,0,0,.3-.9A14.31,14.31,0,0,0,194.64,66.08Z" transform="translate(0 -1)"/><path class="cls-2" d="M175.44,84.68a17.1,17.1,0,0,0-3.3,2c-.2.2-.6.4-1.3.9-1.1.7-3.1,1.9-4.9,2.8s-3.3,1.4-3.3,1.4-.3.1-.8.3-1.2.4-2.1.7a38.38,38.38,0,0,1-5.2,1.2,17.6,17.6,0,0,1-2.3.3,37,37,0,0,0-3.8.7,12.14,12.14,0,0,0,3.9.3c.4-.1,1.2-.1,2.4-.3a39.62,39.62,0,0,0,5.3-1.2c.8-.3,1.6-.5,2.1-.7a7.78,7.78,0,0,1,.9-.3s1.5-.6,3.4-1.4,3.8-2.1,5-2.8c.8-.5,1.1-.8,1.3-.9A14.62,14.62,0,0,0,175.44,84.68Z" transform="translate(0 -1)"/><path class="cls-2" d="M177,119.58c-.4-.1-1.2-.2-2.2-.4h-.2a.37.37,0,0,1-.3-.1l-.5-.1-1.1-.3c-.7-.2-1.5-.5-2.2-.7-1.5-.5-3-1.1-4.5-1.6a33.68,33.68,0,0,0-4.8-1.5,43.38,43.38,0,0,0-5.2-.8c-3.4-.3-6.8-.5-9.8-.9a35.63,35.63,0,0,1-7.8-1.9c-2.2-.7-3.9-1.4-5.1-1.9s-1.8-.8-1.8-.8-2.7-1.2-6.6-3.2c-.4-.2-.7-.4-1.1-.6-.2.2-.5.4-.7.6l1.2.6c4,2.1,6.7,3.2,6.7,3.2l1.9.8c1.2.5,3,1.2,5.2,1.9a57.4,57.4,0,0,0,8.1,1.9c3.1.5,6.5.6,9.8.9a40.11,40.11,0,0,1,5,.8c1.6.4,3.2.9,4.7,1.4s3,1.1,4.5,1.6a18.66,18.66,0,0,0,2.2.7l1.1.3.6.1a.37.37,0,0,1,.3.1h.2c1,.2,1.9.3,2.3.4a7.71,7.71,0,0,0,3.8-.4A22.88,22.88,0,0,1,177,119.58Z" transform="translate(0 -1)"/><path class="cls-2" d="M156.54,94.88a13.07,13.07,0,0,1-1.3,1.6l-.6.6a21.12,21.12,0,0,1-1.9,1.5,15.45,15.45,0,0,1-8,2.5,13.22,13.22,0,0,1-4.9-.6,10.37,10.37,0,0,1-3.6-2.1,12.67,12.67,0,0,1-1.1-1.3c-.1-.1-.1-.2-.2-.3-.3.2-.5.3-.8.5v.1a13,13,0,0,0,1.2,1.4,11.08,11.08,0,0,0,4,2.3,16.31,16.31,0,0,0,5.4.6,18.17,18.17,0,0,0,8.6-2.7c.9-.6,1.6-1.2,2.1-1.6l.7-.7a19,19,0,0,0,1.8-2.2A10.26,10.26,0,0,1,156.54,94.88Z" transform="translate(0 -1)"/><path class="cls-2" d="M194.34,99.18a3.28,3.28,0,0,0-1.6-2.1,5.06,5.06,0,0,0-3.2-.7,15.46,15.46,0,0,0-5.5,1.8,35.29,35.29,0,0,1-4.2,1.8c-1.3.4-2.4.7-3.1.9l-1.2.3s-1.7.4-4.5.8c-1.4.2-3,.4-4.8.7a24.52,24.52,0,0,1-2.7.2,4.49,4.49,0,0,1-2.4-.5,1.69,1.69,0,0,1-.8-1.7,6.79,6.79,0,0,1,.7-2c.8-1.3,1.7-2.6,2.5-3.8s1.4-2.2,1.8-2.7c.1-.2.2-.3.3-.5-.5.3-1.1.6-1.7.9-.3.5-.8,1.2-1.3,2-.8,1.2-1.6,2.4-2.5,3.8a5.72,5.72,0,0,0-.8,2.3,2.46,2.46,0,0,0,1.2,2.3,5.66,5.66,0,0,0,3.1.7,13.58,13.58,0,0,0,2.9-.3c1.8-.2,3.4-.5,4.8-.7a40.21,40.21,0,0,0,4.6-.9l1.2-.3c.8-.2,1.9-.5,3.2-.9a36.26,36.26,0,0,0,4.3-1.8,13.46,13.46,0,0,1,5-1.7,5.1,5.1,0,0,1,2.5.5,2.74,2.74,0,0,1,1.3,1.7,2,2,0,0,1-.4,1.8,3.67,3.67,0,0,1-1.8,1.1,4.75,4.75,0,0,1-2,.1c-.7-.1-1.2-.2-1.7-.3a5.07,5.07,0,0,1-1.5-.7,3.65,3.65,0,0,0,3.1,1.7,5.83,5.83,0,0,0,2.5-.2,4.93,4.93,0,0,0,2.4-1.4A3.15,3.15,0,0,0,194.34,99.18Z" transform="translate(0 -1)"/><path class="cls-2" d="M187.14,102.48a13,13,0,0,0-3.8.4,5.07,5.07,0,0,0-.9.2c-.2,0-.4.1-.6.1a20.93,20.93,0,0,0-2.1.5,74.2,74.2,0,0,0-9.3,3.3c-.8.3-1.5.7-2.2,1a6.69,6.69,0,0,0-1.9,1.4,1.71,1.71,0,0,0-.3,1.9,5.53,5.53,0,0,0,1.2,1.4c.9.7,1.7,1.1,2.2,1.5s.9.5.9.5a9.24,9.24,0,0,0,.9.5,16.65,16.65,0,0,0,2.6,1.2,15.4,15.4,0,0,0,4.3.9,40.68,40.68,0,0,1,4.9.5c1.5.4,2.9,1.3,3.2,2.4a1.47,1.47,0,0,1-.5,1.4,4,4,0,0,1-1.8.7,3.1,3.1,0,0,1-1.9-.3,4.68,4.68,0,0,1-1.4-.8,5.24,5.24,0,0,1-1.1-1,2.11,2.11,0,0,0,.5,1.3,3.66,3.66,0,0,0,1.5,1.1,4.33,4.33,0,0,0,2.5.3,5.42,5.42,0,0,0,2.4-.9,2,2,0,0,0,.8-2.1,4.29,4.29,0,0,0-1.4-1.9,6.35,6.35,0,0,0-2.5-1.1c-1.8-.4-3.6-.4-5.1-.6a10.67,10.67,0,0,1-3.9-.9,14.23,14.23,0,0,1-2.4-1.1,9.24,9.24,0,0,1-.9-.5s-.3-.2-.8-.5a25.15,25.15,0,0,1-2.1-1.4,3.46,3.46,0,0,1-1-1.1,1.26,1.26,0,0,1,.2-1.3,11.17,11.17,0,0,1,3.8-2.1,72.94,72.94,0,0,1,9.2-3.3c.7-.2,1.5-.4,2-.5a1.27,1.27,0,0,1,.6-.1,5.07,5.07,0,0,1,.9-.2A9.4,9.4,0,0,0,187.14,102.48Z" transform="translate(0 -1)"/><path class="cls-2" d="M92.74,24a8,8,0,0,1,2.1,1.5,3.59,3.59,0,0,1,.7,1c.1.2.2.3.3.5s.1.2.1.3l.1.2a4.74,4.74,0,0,1,.1,2,1.7,1.7,0,0,1,1,0,6.23,6.23,0,0,0-.1-2.3l-.1-.2c0-.1-.1-.2-.1-.3a4.88,4.88,0,0,1-.3-.7,4.7,4.7,0,0,0-.9-1.2,8.07,8.07,0,0,0-2.4-1.7,10.75,10.75,0,0,0-5.9-.7,38,38,0,0,0-5.8,1.5c-1.9.7-3.8,1.3-5.6,2A122.77,122.77,0,0,0,57.14,35c-2.4,1.4-4.2,2.7-5.6,3.6s-2,1.5-2,1.5-.7.5-2,1.5-3,2.4-5,4.3a74.24,74.24,0,0,0-6.6,6.9,66.41,66.41,0,0,0-6.5,9.3,31.77,31.77,0,0,0-4.4,11,16.67,16.67,0,0,0,.1,5.9,12.59,12.59,0,0,0,2.6,5,11.23,11.23,0,0,0,2,1.8c.4.2.7.5,1.1.7l.6.3c.1,0,.2.1.3.1l.2.1a2.07,2.07,0,0,0,.6.2c.2,0,.3.1.5.1-.3-.4-.5-.9-.8-1.3h-.1c-.1,0-.2-.1-.3-.1l-.5-.3c-.3-.2-.7-.4-1-.6a13.72,13.72,0,0,1-1.8-1.6,10.32,10.32,0,0,1-2.4-4.5,14.46,14.46,0,0,1-.1-5.5,30.88,30.88,0,0,1,4.3-10.7,63.74,63.74,0,0,1,6.4-9.1,72.56,72.56,0,0,1,6.5-6.8c2-1.9,3.8-3.2,5-4.3,1.3-.9,2-1.5,2-1.5s.7-.5,2-1.4,3.1-2.2,5.5-3.6a125,125,0,0,1,18.6-9c1.8-.7,3.7-1.3,5.5-2a38.71,38.71,0,0,1,5.6-1.5A8.69,8.69,0,0,1,92.74,24Z" transform="translate(0 -1)"/><circle class="cls-3" cx="184.74" cy="62.88" r="2.4"/><path class="cls-2" d="M170.34,66.88a6.33,6.33,0,0,0,1.9-3.4,10.85,10.85,0,0,0,.2-1.7V61a23.87,23.87,0,0,0-.2-2.4,6,6,0,0,0-1.9-3.4c.4,1.3.5,2.2.9,3.6a9.47,9.47,0,0,1,.2,2.2v.8c-.1.9-.2,1.3-.2,1.5C170.84,64.68,170.64,65.58,170.34,66.88Z" transform="translate(0 -1)"/><path class="cls-2" d="M195.44,85.08a8.67,8.67,0,0,0-3.3-1.2,23.76,23.76,0,0,0-3.7-.6,36.27,36.27,0,0,0-4.2-.3h-1.4c-.9,0-2.1.1-3.4.2h-.7c-.3.2-.7.5-1,.7a5.44,5.44,0,0,0,1.8,0c1.4-.1,2.5-.2,3.4-.2h1.4a35.27,35.27,0,0,1,4.1.3,21.36,21.36,0,0,1,3.5.6,8.11,8.11,0,0,1,2.9,1c.6.5.3.9.1,1.1-.8.7-1.8.7-3.1.8a5.66,5.66,0,0,0,1.8.3,3.11,3.11,0,0,0,2.1-.7,1.2,1.2,0,0,0,.4-.8A1.71,1.71,0,0,0,195.44,85.08Z" transform="translate(0 -1)"/><path class="cls-2" d="M169.54,93.48a8.33,8.33,0,0,1-.1-1.2,5.27,5.27,0,0,0-.2-1.3,3.92,3.92,0,0,0-.5-1.3,3.51,3.51,0,0,1-.8.5,3.18,3.18,0,0,1,.3.9l.2,1.2a8.37,8.37,0,0,1,.1,1.2,7.14,7.14,0,0,0,.4,1.6,1.61,1.61,0,0,0,1.1.8,2.08,2.08,0,0,0-.1-1.1A2.64,2.64,0,0,1,169.54,93.48Z" transform="translate(0 -1)"/><path class="cls-2" d="M175.34,89.18a22.25,22.25,0,0,1,3.1-1.4c.2-.1.6-.2,1.4-.5a13.15,13.15,0,0,1,3.8-.6,17.19,17.19,0,0,1,2.5,0,9.59,9.59,0,0,1,2.1.3c1.1.2,2.5.7,3.6.9a7.17,7.17,0,0,0,2.6,0,2.75,2.75,0,0,0,1.7-1,1.2,1.2,0,0,0,0-1.4c.1.5-.2.8-.6,1.1a3.65,3.65,0,0,1-1.4.7,4.11,4.11,0,0,1-2,0c-1-.2-2.3-.6-3.6-.9s-2.3-.3-2.3-.3a18.88,18.88,0,0,0-2.6,0,21.76,21.76,0,0,0-4.1.7c-.9.3-1.3.4-1.5.5A4.06,4.06,0,0,0,175.34,89.18Z" transform="translate(0 -1)"/><path class="cls-2" d="M177,88a5.64,5.64,0,0,0-3.1,1.7,10.77,10.77,0,0,0-.8,1.1,5.24,5.24,0,0,0-.8,2,4.27,4.27,0,0,0,.1,2.5,9,9,0,0,0,.8,1.9c.2.5.3.8.3.8a1.45,1.45,0,0,1,.1.6,1.75,1.75,0,0,1-.6,1.4,2.18,2.18,0,0,1-2.1.4,2.8,2.8,0,0,1-1.7-1.1,2.42,2.42,0,0,1-.3-1.5,13.38,13.38,0,0,1,.9-2.6,3.74,3.74,0,0,0-1.9,2.5,3,3,0,0,0,.3,1.9,4,4,0,0,0,2.3,1.5,5.46,5.46,0,0,0,1.8.1,3.48,3.48,0,0,0,1.5-.7,2.54,2.54,0,0,0,.8-1.9,2.77,2.77,0,0,0-.1-.8s-.1-.3-.3-.8a18.19,18.19,0,0,1-.8-1.9,5.86,5.86,0,0,1-.1-2.3,8.35,8.35,0,0,1,.8-1.9c.4-.6.6-.8.7-1A13,13,0,0,0,177,88Z" transform="translate(0 -1)"/><path class="cls-4" d="M215.24,106" transform="translate(0 -1)"/><path class="cls-2" d="M190.44,85.88c.4-.2.6-.2.8-.4a1.74,1.74,0,0,1,.9-.5,4.4,4.4,0,0,1,.9-.1,2,2,0,0,1,.8.2,1.54,1.54,0,0,1,.7.7c.1.2.3.3.6.6.3-.2.5-.5.3-.8a2.3,2.3,0,0,0-1-1,4.87,4.87,0,0,0-1.3-.4,3.79,3.79,0,0,0-1.4.1,2.38,2.38,0,0,0-1.3.8C190.14,85.28,190.24,85.58,190.44,85.88Z" transform="translate(0 -1)"/><path class="cls-2" d="M34.94,80.08a12.4,12.4,0,0,0,3.7,1.1c.2,0,.5.1.9.1.9.1,1.9.1,3.1.2a88.72,88.72,0,0,0,11.4-.4c3.9-.4,7.5-.9,10.2-1.3s4.4-.7,4.4-.7,1.7-.2,4.4-.6c1.4-.2,2.9-.4,4.7-.5.9-.1,1.8-1.5,2.7-1.6s1.9,1.2,2.8,1.2a57.86,57.86,0,0,1,11.2.6c1,.2,1.9.3,2.3.4a12.83,12.83,0,0,0,3.8.5,11.82,11.82,0,0,0-3.6-1.5c-.4-.1-1.3-.2-2.3-.4-.8-.1-1.7-.3-2.6-.4a26.42,26.42,0,0,0-2.9-.2c-1-.1-2,0-2.9-.1h-2.9c-1,0-1.9.1-2.9.1l-2.7.3c-1.8.1-3.3.4-4.7.5-2.7.4-4.5.6-4.5.6s-1.7.3-4.4.7-6.4,1-10.2,1.3a87.8,87.8,0,0,1-11.3.4c-1.1-.1-2.2-.2-3-.2a2.22,2.22,0,0,1-.9-.1A24.09,24.09,0,0,0,34.94,80.08Z" transform="translate(0 -1)"/><path class="cls-2" d="M96,78.48a21.7,21.7,0,0,1,3.3.7,4.5,4.5,0,0,1,.8.2c.2.1.3.1.5.2a1,1,0,0,0,.3.1l.4.2a3.51,3.51,0,0,1,.8.5,15.76,15.76,0,0,1,1.5,1.2,8.59,8.59,0,0,1,2.1,3.6,11.17,11.17,0,0,1,.4,4.5,9,9,0,0,1-1.6,4.2,13.43,13.43,0,0,1-3.2,3.1,34,34,0,0,1-7.8,3.6c-2.6.9-4.9,1.7-7,2.2a67,67,0,0,1-6.8,1.5s-2.7.5-6.9,1a83.08,83.08,0,0,1-16,.2,88.53,88.53,0,0,1-9-1.2c-.7-.1-1.5-.3-2.2-.4s-1.4-.3-2.1-.5-1.4-.3-2.1-.5a18,18,0,0,0-1.9-.5c-.9-.2-1.6-.5-2-.6a14.33,14.33,0,0,0-3.4-.6,9.93,9.93,0,0,0,3.1,1.5c.4.1,1.1.3,2,.6a13.32,13.32,0,0,0,1.9.5c.7.2,1.4.3,2.1.5s1.4.3,2.2.5,1.5.3,2.2.4c3,.6,6.1.9,9.1,1.2a84,84,0,0,0,16.1-.2c4.3-.5,7-1,7-1a59.79,59.79,0,0,0,6.9-1.6c2.1-.5,4.5-1.3,7.1-2.2a35.77,35.77,0,0,0,8-3.7,15.62,15.62,0,0,0,3.5-3.3,11.24,11.24,0,0,0,1.8-4.7,11.41,11.41,0,0,0-.5-4.9,10.2,10.2,0,0,0-2.4-4,20,20,0,0,0-1.6-1.4,4.05,4.05,0,0,0-.9-.5l-.4-.2c-.1,0-.1-.1-.2-.1l-.1-.1a1.42,1.42,0,0,0-.6-.2,3.39,3.39,0,0,1-.8-.3A7.85,7.85,0,0,0,96,78.48Z" transform="translate(0 -1)"/><path class="cls-2" d="M37.94,92.28a16.27,16.27,0,0,0,3.5,1.7c.6.2,1.9.5,3.4.9,2.6.7,5.8,1.3,8.8,1.8a81.57,81.57,0,0,0,11.7,1h3.6a62.44,62.44,0,0,0,8.1-.5c1.5-.1,3.1-.4,4.6-.6s3-.5,4.3-.8c1-.2,1.9-.4,2.3-.5a15,15,0,0,0,3.6-1.4,17,17,0,0,0-3.8.4c-.4.1-1.3.3-2.3.5-1.3.3-2.7.5-4.2.8s-3,.5-4.5.6c-3,.3-5.9.4-8.1.5h-3.6a99.72,99.72,0,0,1-11.5-1,70.21,70.21,0,0,1-8.7-1.8c-1.5-.4-2.7-.7-3.3-.9A14.63,14.63,0,0,0,37.94,92.28Z" transform="translate(0 -1)"/><path class="cls-2" d="M90.24,116.48c-.4,0-1.1.1-2.1.2-.3,0-.6.1-.9.1a3.75,3.75,0,0,0-1,.1c-.6,0-1.3.1-2,.1-1.3.1-2.7.1-4.1.2-2.8,0-5.7,0-8.5-.1a109.69,109.69,0,0,1-14.9-1.6c-2-.4-3.6-.6-4.7-.9a13.69,13.69,0,0,1-1.7-.4s-.6-.1-1.7-.4-2.7-.7-4.6-1.2-4.2-1.2-6.6-2.1a12.42,12.42,0,0,1-6.3-4.9,11.2,11.2,0,0,1-1.5-4.1,11,11,0,0,1,4.1-10.9,6,6,0,0,1,1.5-.9l.6-.3a2.7,2.7,0,0,1-.7-.8.37.37,0,0,1-.3.1,8.64,8.64,0,0,0-1.6,1,11.29,11.29,0,0,0-4.5,7.2,13.65,13.65,0,0,0,1.7,9.1,10.9,10.9,0,0,0,3.1,3.3,14.83,14.83,0,0,0,3.7,2,50,50,0,0,0,6.7,2.1c1.9.5,3.5.9,4.7,1.2s1.7.4,1.7.4.6.1,1.8.4,2.7.5,4.7.9a109.55,109.55,0,0,0,15,1.6,80.35,80.35,0,0,0,8.5.1c1.4-.1,2.8-.1,4.1-.2.7,0,1.3-.1,2-.1a3.75,3.75,0,0,0,1-.1c.3,0,.6-.1.9-.1.9-.1,1.7-.2,2.1-.2a10.63,10.63,0,0,0,3.3-.9C92.44,116.38,91.64,116.38,90.24,116.48Z" transform="translate(0 -1)"/><path class="cls-2" d="M91.74,116.58a12.88,12.88,0,0,0,3.4,0c.2,0,.6-.1,1.4-.2a46.57,46.57,0,0,1,5.8-.4c2-.1,3.7,0,3.7,0s1.4,0,3.2.1,3.9.3,5.5.5a14.19,14.19,0,0,0,2.1.3,13.15,13.15,0,0,0,3.4.1,10.68,10.68,0,0,0-3.3-1.1,12.24,12.24,0,0,0-2.1-.3c-1.6-.2-3.7-.4-5.5-.5s-3.2-.1-3.2-.1h-3.7c-2,.1-4.4.3-5.8.4a7.1,7.1,0,0,0-1.4.2A11.12,11.12,0,0,0,91.74,116.58Z" transform="translate(0 -1)"/><path class="cls-2" d="M118.44,117a7.51,7.51,0,0,0,2.3,2.8,4.93,4.93,0,0,0,1.3.8,5.47,5.47,0,0,0,4.4.3,3.21,3.21,0,0,0,1.6-1.4,1.1,1.1,0,0,0,.3-.6.31.31,0,0,0,.1-.2,7.35,7.35,0,0,0,.2-.8,4.2,4.2,0,0,0-.1-1.9,4.75,4.75,0,0,0-1.1-2.1,5.16,5.16,0,0,0-3.9-1.8,4.69,4.69,0,0,0-3.3,1.3,16.86,16.86,0,0,1,3.3-.3,4.44,4.44,0,0,1,1.9.4,3.6,3.6,0,0,1,1.4,1.1,5.56,5.56,0,0,1,.9,1.7,9.23,9.23,0,0,1,.1,1.5,1.45,1.45,0,0,1-.1.6.31.31,0,0,1-.1.2,1.69,1.69,0,0,1-.2.5,2,2,0,0,1-1.2,1,4.3,4.3,0,0,1-3.7-.3c-.7-.4-1-.6-1.2-.7A26.39,26.39,0,0,0,118.44,117Z" transform="translate(0 -1)"/><path class="cls-2" d="M139.94,89.18c-.5-1.3-.8-2.1-1.4-3.5-.1-.2-.2-.6-.5-1.5a1.85,1.85,0,0,0-.2-.7,1.21,1.21,0,0,0-.1-.5,1,1,0,0,0-.1-.4,1.7,1.7,0,0,0-.1-.7c0-1.2.1-1.9.1-2.3.2-1.5.3-2.4.5-3.7a7.48,7.48,0,0,0-1.6,3.6,13.58,13.58,0,0,0-.1,2.4,2.49,2.49,0,0,0,.1.8.58.58,0,0,0,.1.4,1.75,1.75,0,0,0,.1.5c.1.3.1.6.2.8a10.42,10.42,0,0,0,.5,1.6A9.39,9.39,0,0,0,139.94,89.18Z" transform="translate(0 -1)"/><path class="cls-2" d="M126.44,101.88a10.49,10.49,0,0,0,3.4-.4,9.31,9.31,0,0,1,1.4-.4c.8-.3,1.8-.6,3-1.1a7.43,7.43,0,0,0,3.3-2.1,4.17,4.17,0,0,0,.8-1.8,3.08,3.08,0,0,0-.2-1.7,2.89,2.89,0,0,0-.6-1l-.3-.3a2.57,2.57,0,0,0-1-.7,4.19,4.19,0,0,0-2.8-.4,12,12,0,0,0-6.1,2.6,6.59,6.59,0,0,0-1.4,1.8,4.44,4.44,0,0,0-.3,3.7,9.37,9.37,0,0,1,1.1-3.2,4.89,4.89,0,0,1,1.3-1.5,11.41,11.41,0,0,1,5.6-2.4,4.91,4.91,0,0,1,2.3.3,4.52,4.52,0,0,1,.8.6l.2.2a2.15,2.15,0,0,1,.4.7,2.45,2.45,0,0,1-.5,2.5,6.23,6.23,0,0,1-2.9,1.8c-1.1.4-2.1.8-2.9,1a11.89,11.89,0,0,1-1.4.4A13.43,13.43,0,0,0,126.44,101.88Z" transform="translate(0 -1)"/><path class="cls-2" d="M125.14,97c-1.2.1-2,.1-3.3.1a10.33,10.33,0,0,1-1.4-.1,8.1,8.1,0,0,1-2.9-1.1,5.59,5.59,0,0,1-1.6-1.2,8.46,8.46,0,0,1-1.2-1.3,12.16,12.16,0,0,1-1.5-2.7,3.86,3.86,0,0,1-.2-2,5.27,5.27,0,0,1,.5-1.5,2.41,2.41,0,0,1,1.2-1,1.84,1.84,0,0,0-1.6.5,3.14,3.14,0,0,0-1,1.9,4.59,4.59,0,0,0,.3,2.4,14.59,14.59,0,0,0,1.6,3,9.83,9.83,0,0,0,1.3,1.4,8.63,8.63,0,0,0,1.8,1.3,12.79,12.79,0,0,0,3.2,1.2c.8.2,1.2.1,1.5.2A4.56,4.56,0,0,0,125.14,97Z" transform="translate(0 -1)"/><path class="cls-2" d="M114.24,87.68a4.53,4.53,0,0,0,3.3-1.2,8.4,8.4,0,0,0,1-1.2,6.14,6.14,0,0,0,.9-2.3,7.59,7.59,0,0,0-.1-3,6.16,6.16,0,0,0-1.1-2.3c-.2-.3-.4-.4-.5-.6l-.2-.2a4,4,0,0,0-.7-.5,4.67,4.67,0,0,0-2-.7,5.39,5.39,0,0,0-2.5.3,4.13,4.13,0,0,0-1.9,1.5,6.2,6.2,0,0,0-1,2.2,4.18,4.18,0,0,0,.8,3.7,5,5,0,0,1-.1-1.7,11.14,11.14,0,0,1,.2-1.7,4.83,4.83,0,0,1,.8-1.8,4,4,0,0,1,1.6-1.2,3.86,3.86,0,0,1,2.1-.3,5,5,0,0,1,1.6.5,2.48,2.48,0,0,1,.6.4,2.76,2.76,0,0,1,.6.6,5.61,5.61,0,0,1,.9,1.9,7,7,0,0,1,.1,2.5,5.24,5.24,0,0,1-.8,2,3.89,3.89,0,0,1-.9,1.1A20.69,20.69,0,0,1,114.24,87.68Z" transform="translate(0 -1)"/><path class="cls-2" d="M111,81.18c-.6,1.1-1,1.8-1.6,3.1-.1.2-.3.6-.7,1.3h0c-.5.8-.9,1.5-1.1,1.8a34,34,0,0,0-1.8,3,9.64,9.64,0,0,0,2.6-2.4c.2-.3.7-1,1.2-1.9h0c.4-.8.6-1.1.7-1.4A10.9,10.9,0,0,0,111,81.18Z" transform="translate(0 -1)"/><path class="cls-2" d="M101.74,101.78a9.63,9.63,0,0,0,2.9-1.9,5.93,5.93,0,0,0,1-1.1c.4-.4,1-1,1.5-1.6s.9-1.1.9-1.1.3-.4.7-1a17.67,17.67,0,0,0,1.2-1.7c.6-.9,1-1.6,1.2-1.9a11.88,11.88,0,0,0,1.3-3.4,16.39,16.39,0,0,0-2,2.9c-.2.3-.5.9-1.1,1.8-.3.5-.8,1.1-1.2,1.7s-.7.9-.7.9-.4.5-.9,1.1-1.1,1.2-1.4,1.6a8.37,8.37,0,0,1-1,1A19.41,19.41,0,0,0,101.74,101.78Z" transform="translate(0 -1)"/><path class="cls-2" d="M104.94,104.28a7.61,7.61,0,0,0,3.4.5,10.33,10.33,0,0,0,1.4-.1,23.51,23.51,0,0,0,4-.8,18.88,18.88,0,0,0,1.8-.6,6,6,0,0,1,.7-.3,3.22,3.22,0,0,1,.6-.2c.4-.2.9-.4,1.5-.7a16,16,0,0,0,3.4-2,7.66,7.66,0,0,0,1.7-1.3,9.73,9.73,0,0,0,2.3-2.7,15.4,15.4,0,0,0-2.8,1.9c-.3.2-.8.6-1.7,1.2a25.94,25.94,0,0,1-3.3,1.9,11.43,11.43,0,0,1-1.4.6,1.55,1.55,0,0,1-.6.2s-.3.1-.7.2a12.2,12.2,0,0,1-1.7.5,24.61,24.61,0,0,1-3.9.8,10.33,10.33,0,0,1-1.4.1C106.94,103.88,106.14,104,104.94,104.28Z" transform="translate(0 -1)"/><path class="cls-2" d="M108,108.68a9.34,9.34,0,0,0,3.4.6,12.42,12.42,0,0,0,1.5-.1,28.59,28.59,0,0,0,3.5-.6,15.46,15.46,0,0,0,1.5-.4,3.22,3.22,0,0,0,.6-.2,15.56,15.56,0,0,0,1.8-.6c1-.4,2.2-1,3.1-1.4a12.65,12.65,0,0,0,1.8-1.1,8.23,8.23,0,0,0,2.5-2.4,17.7,17.7,0,0,0-3,1.6c-.3.2-.9.5-1.8,1s-2,1-3,1.4a15.56,15.56,0,0,1-1.8.6,3.22,3.22,0,0,1-.6.2c-.4.1-.9.2-1.5.4a16.39,16.39,0,0,1-3.4.5,10.33,10.33,0,0,1-1.4.1A11.7,11.7,0,0,0,108,108.68Z" transform="translate(0 -1)"/><path class="cls-2" d="M106.34,111.18a17.92,17.92,0,0,0,3.4.3h1.4a16.23,16.23,0,0,1,2.1.1,8.87,8.87,0,0,1,1.3.1s2,.2,3.1.4,1.7.3,2,.4a22.27,22.27,0,0,0,3.4.4,10.23,10.23,0,0,0-3.2-1.3c-.3-.1-1-.2-2.1-.4s-3.2-.4-3.2-.4a9.44,9.44,0,0,0-1.4-.1c-.7,0-1.6-.1-2.2-.1h-1.4A6.78,6.78,0,0,0,106.34,111.18Z" transform="translate(0 -1)"/><ellipse class="cls-3" cx="157.04" cy="61.68" rx="7.6" ry="5.3" transform="translate(-4.16 10.88) rotate(-4.28)"/><ellipse class="cls-5" cx="158.64" cy="58.28" rx="2.2" ry="1.6"/></g></svg>