<svg id="Layer_1" data-name="Layer 1" xmlns="http://www.w3.org/2000/svg" viewBox="0 0 720 480"><defs><style>.cls-1{fill:#cfc3b4;}.cls-2{fill:#010102;}</style></defs><title>4</title><g id="_18" data-name="18"><path class="cls-1" d="M720,1V481H0V1Z" transform="translate(0 -1)"/><g id="Frog"><path class="cls-2" d="M157.29,111c.14,1.84-1.87,3-3.1,3.06-2.92.23-7.48.88-9.47,1.21-3.94.64-5.47,1.19-8.92,1s-4.34-.55-8.53-1.89c-2.67-.86-9.82-3.38-13.38-4.71a1.53,1.53,0,0,0-1,.13,7.82,7.82,0,0,1-2.84,1.64c-2.89.55-3.84,1.06-7.2,1-7-.11-14.38-.88-22.52-1.27a49.88,49.88,0,0,0-6.86,1.8,74.45,74.45,0,0,1-12.09,2.45.89.89,0,0,0-.68.54,7.94,7.94,0,0,0-.25,1.12c0,1-.61,1.41-1.53,1.55a1.92,1.92,0,0,1-.93-.15c-4.83-1.94-7.34-4.2-13.12-5.08-3.54-.53-9.92-1-14.21-1.45-1.15-.14-2.86-.76-3.16-2.27C27,107,30,104.9,31.85,104,36,101.86,39.6,100,43.46,97.7a.69.69,0,0,0,.22-.92s-.07,0-.09-.07c-3.08-5-6.37-9.43-5.18-15.75C40.45,70.15,48.76,63,58.26,57c1.83-1.15,6.09-3.1,9-4.53A41.23,41.23,0,0,1,74.9,50c9.58-1.83,17.17-3,27.43-4.53a126.64,126.64,0,0,0,21.92-5.8c.68-.24,6.13-2.91,9.19-4.44,2.2-1.1,8.67-3.56,13-3.94a51.89,51.89,0,0,1,10.91.74,1.13,1.13,0,0,0,.9-.34c2.7-3.09,5-5.33,9.42-4.72a13.63,13.63,0,0,1,10.65,7.39.8.8,0,0,0,1.19.4c4.5-1.92,7.23-3.07,12.22-1.28,2.07.74,3.86,3.16,5.34,5.13,1.77,2.37,2.35,5.3-.31,7.34a.57.57,0,0,0-.13.68c.1.17.11.14.18.19,6.8,4.57,12.94,8.51,19.91,13.33a16.28,16.28,0,0,1,5.4,7.38,9.24,9.24,0,0,1-1.46,9.36c-3.13,3.63-6.22,5.39-11.25,4.64a6,6,0,0,0-4.73,1c-4.46,3.91-6.88,6.33-13.52,8.07-5.41,1.42-13.6,3.67-19.95,6-.56.2-4.83.77-6,.91-.09,0-.36.13-.15.48,1.26,2.18,3,3.6,4.16,6.18a6.23,6.23,0,0,0,4.25,3.22c3.92.53,8.31,1,11.88,1.57,1.72.26,1.42.89,1.73,2,0,.1-.05.19-.09.27-.9,1.74-2.07,2.33-3.6,3.62-2.16,1.82-4.62,1.28-7.11.19a1.24,1.24,0,0,0-1,0,8.5,8.5,0,0,1-6.44-.19,1.44,1.44,0,0,0-.93-.09c-4.13.83-8.57,1.47-9.7-3.55a.27.27,0,0,0-.16-.22c-.11-.06-.21-.08-.35-.16S157.28,110.73,157.29,111Z" transform="translate(0 -1)"/><path class="cls-1" d="M55.16,113.11a1.56,1.56,0,0,0,.69.91c.93.57,1.87,1,2.84,1.59a.89.89,0,0,1,.35,1.2l0,.07c0,.07-.13.18-.22.33a.55.55,0,0,1-.6.19,37,37,0,0,1-5.69-2.89,8.13,8.13,0,0,0-3-1.3c-1.58-.3-3-.84-4.35-1-4.13-.39-8.43-.7-12.35-1.13a9.37,9.37,0,0,1-3.5-.87c-1.1-.55-1-1.4-.78-2.34a1.14,1.14,0,0,1,.18-.25A13,13,0,0,1,33,104.39a94.44,94.44,0,0,0,10.33-5.55c3.87-2.61,5.9-4.24,9.28-6.09a87.11,87.11,0,0,1,10.7-4.82,44.86,44.86,0,0,1,14.16-3,.35.35,0,0,0,.37-.32,2.88,2.88,0,0,1,0-.39c0-.22-.2-.39-.42-.37A56.43,56.43,0,0,0,67,85.57,94.11,94.11,0,0,0,44.84,96.24a.42.42,0,0,1-.65-.12C39.77,88.6,37.11,82.05,42,73.86a38.5,38.5,0,0,1,12.43-13c8.8-5.87,15.64-9.06,27.9-11.35,4.31-.8,14.35-2.12,22.25-3.32,2.7-.41,15.85-3.71,21.13-6.08,0,0,6.09-2.93,8.65-4.18,1.71-.82,8.14-3.38,12-3.6,2.54-.14,8.64,0,11.74.89a1.27,1.27,0,0,0,.81-.3,22.66,22.66,0,0,1,2.64-3.47c4.48-3.05,9.56-1.31,13.11,1.74.87.75.47.94-.48.78a13.33,13.33,0,0,0-9.52,1.51,1.78,1.78,0,0,0-.82,2.44,2.2,2.2,0,0,0,1.44,1.27,32.39,32.39,0,0,0,12.6,1.27.84.84,0,0,0,.72-.6c.11-.32.11-.57.22-.89a1.71,1.71,0,0,1,.51-.86,11.9,11.9,0,0,1,2.94-1.47c4.05-1.67,8.7-1.82,11.61,1.81.14.18,0,.41-.13.46s-.08,0-.12,0a28.45,28.45,0,0,0-6.59,1.28c-1.41.47-2,1.71-2.26,3.13A2.48,2.48,0,0,0,186,43.87a10.47,10.47,0,0,0,4.5,1.53c2.14-.1,3-.26,4.64,1C201.4,51.34,208,55.55,214.74,60c3.58,2.36,7.49,7,7,11.47-.6,5.4-4.94,8.68-9.78,9.17-1.92.2-3-.31-4.77-.34-.35,0-.31-.15-.25-.5.74-4.7,3.2-7.44-2.93-10.36C198.78,67,191.79,65,185.14,62.69a170.59,170.59,0,0,0-22.54-5.86c-5.91-1.13-12.39-2.73-18-6-1.95-1.15-3.86-3.93-5-6,0-.09-.24-.19-.32-.11s0,0-.11.1-.32.41-.4.54a.35.35,0,0,0,0,.39c1.88,2.76,3.29,4.82,6.43,6.37a58.13,58.13,0,0,0,18.53,6.26A132.26,132.26,0,0,1,185.44,64c4,1.53,12.09,3.75,16.92,5.68a12.4,12.4,0,0,1,4.46,3.11A3,3,0,0,1,207.4,75,13.86,13.86,0,0,1,205,80.3a28.21,28.21,0,0,1-14.39,9.4c-3.69,1.09-6.49,1.48-10.38,2.71-5.28,1.68-10.18,4-16.3,4.14a21.54,21.54,0,0,0-7.16,1.5,69.65,69.65,0,0,1-7.79,2c-6.29,1.31-13.8,3-20.35,3.88a.78.78,0,0,1-.9-.33,24.22,24.22,0,0,0-4.89-5.4c-2-1.52-4.17-5.27-1.42-6.72,4.91-2.59,9.36-4.42,13.53-8,.12-.1.09-.16,0-.27s-.07-.07-.15-.2a.57.57,0,0,0-.51-.15c-.11.05-.1,0-.13.06-4.27,3.78-8.82,5.3-14,7.93-3,1.55-.45,6.22,1.89,8s3.33,3.58,5.62,6.07c5,5.46,12.59,6,19.85,5.9,1,0,1.88.52,1.87,1.63,0,.48-.8.78-1.59,1a17.4,17.4,0,0,1-5,.54.83.83,0,0,1-.74-.49,3,3,0,0,0-3.37-1.67c-.52,0-.61.23-.19.48a5.8,5.8,0,0,1,1.26.65,1.19,1.19,0,0,1,.15,1.31c-.13.39-.7.45-.88.51-1.74.6-7.49-.11-8.44-.4-5-1.54-16.34-5.29-18.79-6.68C104.22,103.29,102,100.44,98,94.6c-2-3,.42-4.6,1.06-7.55.29-1.31,1.21-2.32,2.45-3.57a114.21,114.21,0,0,0,13-15.59.24.24,0,0,0-.09-.31.29.29,0,0,0-.2,0c-.09,0-.24,0-.35,0a.52.52,0,0,0-.31.16c-3.08,3.86-6.68,8.38-9.73,11.92a22.24,22.24,0,0,1-3.61,3.42c-.36.29-.48.13-.65-.15-1.49-2.58-1.94-5.26-5-6.6C87.12,73,79.18,72.2,71,71.22a.19.19,0,0,0-.21.18c0,.12,0,.23,0,.37a.31.31,0,0,0,.25.31c3,.53,6.63.92,9.56,1.31A54.46,54.46,0,0,1,93,76.53c3,1.12,3.84,2.8,5.12,5.45a3.66,3.66,0,0,1,.28,3c-1.94,5.42-3.56,9.23-9.06,12.52-1.46.86-5.45,1.84-7.85,2.33a96.5,96.5,0,0,0-13.72,3.7,16.5,16.5,0,0,0-2.24,1c-.74.39-.68.66-.13,1,4.07,2.31,10,1.23,13.59,4.25.36.3.11.48-.18.58-2.25.82-5.13,0-7.26-.06-3.09-.13-5.44-.09-8.35-.19-.37,0-.38.22-.32.44s.13.24.17.39a.38.38,0,0,0,.35.23c2.23,0,5.85.09,7.73.26,2.62.25,2.51.64,0,1.24a71.07,71.07,0,0,1-10.6,1.74,13.33,13.33,0,0,1-5-1.58C55.37,112.69,55,112.72,55.16,113.11Z" transform="translate(0 -1)"/><path class="cls-1" d="M195.18,42.38a1,1,0,0,0-1,.34c-2.24,2-4.41,1.93-7.17.74A2.14,2.14,0,0,1,185.81,41a.59.59,0,0,1,.1-.26c2-2.41,5.47-2.38,8.27-2.76a1.16,1.16,0,0,1,.93.18c1.54,1,2.45,2.11,2.3,3.94,0,.36-.22.48-.61.47S195.62,42.4,195.18,42.38Z" transform="translate(0 -1)"/><path class="cls-1" d="M176.16,36.65c0,.65-.71,1-1.06,1s-.07,0-.07,0c-.71,0-2.53-.1-3-.13-2.19-.15-6.11-.1-7-2.28a.4.4,0,0,1,0-.42c.84-2.23,4.89-1.87,7-1.88l3,.06a1.19,1.19,0,0,1,1.16,1.06c0,.35,0-.31,0,.15S176.12,36,176.16,36.65Z" transform="translate(0 -1)"/><path class="cls-1" d="M80.16,109.63c-2.94-3.21-7.91-3-12-3.95-1.28-.27-1.72-.81.06-1.37,5.66-1.76,11.09-3,17.14-4.3a20.8,20.8,0,0,0,10.28-6.32c.23-.24.43-.27.64.07a40.69,40.69,0,0,0,15.52,15,.41.41,0,0,1,.13.59c-.14.14-.05.16-.17.2-3.87,1.27-4.28,2.1-9.31,1.9-5.68-.22-15.24-1-21.78-1.58A.79.79,0,0,1,80.16,109.63Z" transform="translate(0 -1)"/><path class="cls-1" d="M166.06,111c.39.59,1,1.55,1.49,2.18a.42.42,0,0,1-.07.54c-.1.09-.07,0-.11.06a12.68,12.68,0,0,1-6,.19,1.46,1.46,0,0,1-1.18-.82c-1.8-4.47-4.59-8.4-7.28-12.25-.32-.46-.21-.57.3-.75a87.85,87.85,0,0,1,9.51-2.86c1.17-.27,1.15.15,1.82,1a42.11,42.11,0,0,1,4.21,7,4.44,4.44,0,0,0,3.43,2.89c3.77.78,8.75,1.21,12.74,1.82a1,1,0,0,1,.95,1.09.31.31,0,0,1,0,.18,3.93,3.93,0,0,1-2.2,1.83,1,1,0,0,1-.94-.08l-1.35-.89c-.28-.17-.27-.09-.45,0a1.89,1.89,0,0,0-.48.36c-.14.14-.25.19,0,.39s1.14.73,1.43.94.39.4.12.63c-1.55,1.33-3.89.34-5.44-.49a1.59,1.59,0,0,1-.67-.68c-.53-1-1.52-2.08-2.56-2-1.76.06-1.31.47,0,1a2.46,2.46,0,0,1,1,.87,1,1,0,0,1-.27,1.36,1.12,1.12,0,0,1-.58.17,11.94,11.94,0,0,1-4.09-.62.92.92,0,0,1-.6-.66,4.33,4.33,0,0,0-2.4-2.76C165.85,110.26,165.68,110.37,166.06,111Z" transform="translate(0 -1)"/><path class="cls-1" d="M156.72,109.82a22,22,0,0,0-4.35-.32,87.73,87.73,0,0,1-11.59.25c-4-.25-8.56-1.57-11.37-4.66-.32-.36.27-.59.41-.6,1.54-.16,7.66-1.13,8.19-1.26a87.62,87.62,0,0,1,13.28-2.58c.83-.07.65.11.79.36A79.94,79.94,0,0,0,157,109.5c.08.1,0,.24-.1.29A.27.27,0,0,1,156.72,109.82Z" transform="translate(0 -1)"/><path class="cls-1" d="M155.81,110.52a.41.41,0,0,1,.45.3c.05.13,0,.09,0,.12.13,1.46-1.8,2.18-2.56,2.3-.51.07-.11,0-.12,0a1.81,1.81,0,0,1-.37,0c-1.39-.07-2.38-.62-2.59-2.06,0,0,0,0,0-.12s.3-.36.4-.34,0,0,0,0C152.64,110.68,154.27,110.63,155.81,110.52Z" transform="translate(0 -1)"/></g></g></svg>