<svg id="Layer_1" data-name="Layer 1" xmlns="http://www.w3.org/2000/svg" viewBox="0 0 720 480"><defs><style>.cls-1{fill:#cfc3b4;}.cls-2{fill:none;}.cls-2,.cls-4{stroke:#000;stroke-miterlimit:10;}.cls-3{fill:#202020;}.cls-5{fill:#fff;}.cls-6{fill:#3c3c3c;}</style></defs><title>2</title><g id="_18" data-name="18"><path class="cls-1" d="M720,1V481H0V1Z" transform="translate(0 -1)"/><path class="cls-2" d="M142.85,58.33" transform="translate(0 -1)"/><path class="cls-3" d="M103.92,69.52c-.26-.12-1.26-.49-1.82-.7a21.22,21.22,0,0,0-2.13-.71c-.73-.2-1.64-.4-2.44-.6s-1.7-.41-2.53-.6a24.79,24.79,0,0,0-2.55-.46c-.84-.1-1.77-.26-2.57-.38s-1.8-.17-2.48-.29c-1.27-.22-3.18-.28-4.17-.35-1.88-.14-2.76-.29-4.49-.47s-2.49-.21-4.62-.43-5.87-.63-8.28-1a1.33,1.33,0,0,0-.43.66c2.47.43,6.4.8,8.56,1s2.89.29,4.63.43,2.61.29,4.49.49c1,.11,2.9.22,4.15.35l2.39.29c.76.09,1.73.27,2.47.38a59.87,59.87,0,0,1,9.32,2.25,16,16,0,0,1,1.87.71,17.74,17.74,0,0,0,3.37,1.12A18.53,18.53,0,0,0,103.92,69.52Z" transform="translate(0 -1)"/><path class="cls-3" d="M104,70.76c1.18-.19,2.3-.35,3.51-.43.19,0,.56-.07.76-.07s.4,0,.58,0h.9a3.37,3.37,0,0,1,.87.13,11.61,11.61,0,0,1,1.71.46,8.43,8.43,0,0,1,3,2,5.69,5.69,0,0,1,1.43,3,5.24,5.24,0,0,1-.65,3.31,10.86,10.86,0,0,1-2.5,2.9,52.35,52.35,0,0,1-6.78,4.5c-2,1.16-4.65,2.6-6.15,3.33a70.55,70.55,0,0,1-6.82,3C91,94,90.32,94.33,86.49,95.54A123,123,0,0,1,70.8,99.46c-2.55.4-6.59,1-9.43,1.31-.71.08-1.66.22-2.4.28l-2.29.19-2.28.18c-.7.07-1.47,0-2.09.11s-1.74.09-2.13.1a23.67,23.67,0,0,0-3.77.4,32.87,32.87,0,0,0,3.82.3c.39,0,1.51,0,2.13-.1s1.38,0,2.08-.1,1.54-.13,2.29-.19l2.38-.19c.74-.06,1.72-.21,2.4-.28,2.82-.26,7-.92,9.51-1.3a129.7,129.7,0,0,0,15.89-3.91,69.75,69.75,0,0,0,7.42-2.66c2.87-1.13,3.93-1.68,7-3.1,1.49-.7,4.09-2.16,6.12-3.35a54.82,54.82,0,0,0,7-4.58,10.42,10.42,0,0,0,2.71-3.19,6,6,0,0,0,.71-3.71,6.09,6.09,0,0,0-1.57-3.31,8.82,8.82,0,0,0-3.35-2.17,17.2,17.2,0,0,0-1.94-.58,4.74,4.74,0,0,0-.93-.12h-1c-.14,0-.36,0-.57,0a3.41,3.41,0,0,0-.85.07A11.12,11.12,0,0,0,104,70.76Z" transform="translate(0 -1)"/><path class="cls-3" d="M44,71.09a2.07,2.07,0,0,0-.4,2.77,3.23,3.23,0,0,0,.9,1,26.22,26.22,0,0,0,2.72,1.92c.75.4,1.36.85,2.08,1.17s1.11.6,1.88.94,2.4.93,3.1,1.26a11.19,11.19,0,0,0,2,.68,20,20,0,0,0,3.85.6c-1.24-.46-2-.79-3.42-1.25-.3-.1-1.26-.4-1.93-.66s-2.27-.85-3-1.17-1.2-.53-1.88-.85a21.64,21.64,0,0,1-2-1.17c-.69-.41-2-1.43-2.54-1.81a3.06,3.06,0,0,1-.8-.93A4.31,4.31,0,0,1,44,72.37,1.77,1.77,0,0,1,44,71.09Z" transform="translate(0 -1)"/><path class="cls-3" d="M61.69,117.15c-3.43-.78-8-2-11-2.92-1.93-.59-3.28-1-4.54-1.43s-1-.32-2-.64-.76-.22-2-.65-2.75-1-4.46-1.63-4.27-1.63-6.23-2.65a12.6,12.6,0,0,1-5.25-4.49,4.88,4.88,0,0,1-.56-3.13,5.71,5.71,0,0,1,1.1-3,11.21,11.21,0,0,1,5.95-3.8,14.35,14.35,0,0,1,1.72-.39,8.73,8.73,0,0,1,.94-.15,2.72,2.72,0,0,0,.52-.07,1.47,1.47,0,0,1,.42,0,3,3,0,0,0,.6,0,4.58,4.58,0,0,1,.77,0c1.29.06,2.42.15,3.66.22a12.94,12.94,0,0,0-3.5-1c-.19,0-.65,0-.88,0a1.52,1.52,0,0,0-.61,0c-.18.05-.22,0-.42,0a3.42,3.42,0,0,0-.52.07,7,7,0,0,0-.94.15c-.46.1-1.31.19-1.91.38-2.49.83-5,1.92-6.46,4.18s-1.37,4.3-.6,6.74a7,7,0,0,0,2.35,2.93,19.68,19.68,0,0,0,3.29,2.09c1.9,1,4.54,2,6.22,2.66s3.25,1.24,4.45,1.64,1,.38,2,.74.69.22,2,.64,2.63.85,4.65,1.43c3.26.93,8,2.19,11.62,3A2.19,2.19,0,0,0,61.69,117.15Z" transform="translate(0 -1)"/><path class="cls-3" d="M60.11,117.37a21.87,21.87,0,0,0,3.48,1.08c.21,0,.75.17,1.48.39,1.28.39,4,1,5.43,1.45s2.48.79,3.72,1.17,1.88.68,3.16,1.2,3.55,1.48,4.74,2l1.92.92a27,27,0,0,0,3.45,1.27A18.58,18.58,0,0,0,84.54,125c-.28-.14-1.11-.52-1.91-.93-1.07-.55-3.54-1.59-4.82-2s-2-.77-3.24-1.21-2.31-.75-3.72-1.19-4.1-1.2-5.44-1.43a14.85,14.85,0,0,1-1.49-.36A23.83,23.83,0,0,0,60.11,117.37Z" transform="translate(0 -1)"/><path class="cls-3" d="M86.28,125.5a6.43,6.43,0,0,0,1.36,2.66,5,5,0,0,0,1.1,1,8.12,8.12,0,0,0,4.09,1.22,11.3,11.3,0,0,0,2.09-.43,3.06,3.06,0,0,0,.67-.37,1.25,1.25,0,0,0,.24-.21,2.09,2.09,0,0,0,.45-.5,4.46,4.46,0,0,0,.59-1.35,3,3,0,0,0-.28-1.7,5.62,5.62,0,0,0-1.18-1.37,7,7,0,0,0-2-1,9.85,9.85,0,0,0-4-.11,22.21,22.21,0,0,1,3.53.78,9.06,9.06,0,0,1,1.69.8,3.19,3.19,0,0,1,1,1.08,3.3,3.3,0,0,1,.21,1.41,2.12,2.12,0,0,1-.46,1,2.7,2.7,0,0,1-.34.4c-.13.14-.06,0-.23.11a2,2,0,0,1-.45.29,7.67,7.67,0,0,1-1.61.37,7.13,7.13,0,0,1-3.42-1.09,4,4,0,0,1-1-.88C87.55,126.83,87,126.3,86.28,125.5Z" transform="translate(0 -1)"/><path class="cls-3" d="M90.39,123.87c.77-.76,1.37-1.4,2.21-2.2a11.34,11.34,0,0,1,.94-.81,2.53,2.53,0,0,0,.51-.36c.07-.12.21-.14.31-.2a1.1,1.1,0,0,0,.32-.17,2.81,2.81,0,0,1,.51-.27,13,13,0,0,1,1.81-.75c1.33-.42,2.22-.76,3.46-1.1a15.38,15.38,0,0,0-3.92.47,13,13,0,0,0-1.91.86,4.91,4.91,0,0,1-.61.34,1.09,1.09,0,0,0-.33.19,3.82,3.82,0,0,0-.42.28c-.16.13-.33.21-.54.37s-.85.65-1,.81A4.9,4.9,0,0,0,90.39,123.87Z" transform="translate(0 -1)"/><path class="cls-3" d="M100.07,117.48a18.18,18.18,0,0,0,3.87.68l1.64.12c.74,0,2.18.08,3.28.14a12.05,12.05,0,0,0,4-.51,4.12,4.12,0,0,0,1.5-1,1.87,1.87,0,0,0,.51-1.17,1,1,0,0,0-.22-.83c-.15-.27,0-.07-.21-.37a2.18,2.18,0,0,0-.9-.77,9.42,9.42,0,0,0-2.63-1,25.15,25.15,0,0,0-6.93,0,7.69,7.69,0,0,0-2.2.72c-1.47.8-1.52,1.22-2,2.54a11,11,0,0,1,2.58-2,7.12,7.12,0,0,1,1.9-.65,18.92,18.92,0,0,1,6.32.07,8,8,0,0,1,2.25.85,1.72,1.72,0,0,1,.7.67c.19.27.12,0,.2.26s.27.13.13.67a2.08,2.08,0,0,1-1.56,1.44,16,16,0,0,1-3.49.33c-1-.07-2.54-.1-3.26-.14s-1.32-.11-1.64-.12C102.41,117.43,101.44,117.49,100.07,117.48Z" transform="translate(0 -1)"/><path class="cls-3" d="M100.65,113.89c-1.26-.28-2.19-.49-3.54-.86a10.78,10.78,0,0,1-1.38-.52,19.06,19.06,0,0,1-2.43-1.44,5,5,0,0,1-1.21-1.28,10,10,0,0,1-.81-1.29,5.13,5.13,0,0,1-.43-2.1,2.28,2.28,0,0,1,.48-1.41,2.48,2.48,0,0,1,1.14-.86,10.14,10.14,0,0,1,1.48-.44,4.16,4.16,0,0,0-1.86-.07,2.55,2.55,0,0,0-1.65,1.07,3.57,3.57,0,0,0-.57,1.67,5.42,5.42,0,0,0,.51,2.39,13.71,13.71,0,0,0,.82,1.39,11.43,11.43,0,0,0,1.39,1.4,13.79,13.79,0,0,0,2.59,1.54,9,9,0,0,0,1.48.52A12.72,12.72,0,0,0,100.65,113.89Z" transform="translate(0 -1)"/><path class="cls-3" d="M92.92,104.46a7.48,7.48,0,0,0,3.81-.08,8,8,0,0,0,1.35-.66,8.79,8.79,0,0,0,1.66-1.34,5.42,5.42,0,0,0,1-2.07,3.73,3.73,0,0,0-.18-1.81c-.13-.43-.21-.35-.35-.57s0,0-.21-.24a3.52,3.52,0,0,0-.58-.55,8.09,8.09,0,0,0-1.66-1,10.79,10.79,0,0,0-2.5-.4,6.81,6.81,0,0,0-2.26.49,4.66,4.66,0,0,0-1.7,1.23,2.79,2.79,0,0,0-.61,2.89,6,6,0,0,1,.48-1.21A5.29,5.29,0,0,1,92,98a5.67,5.67,0,0,1,1.51-1.07,4.7,4.7,0,0,1,1.89-.42,11.14,11.14,0,0,1,2,.29,6.28,6.28,0,0,1,1.38.75,1.49,1.49,0,0,1,.5.45,1.58,1.58,0,0,1,.36.66,3.46,3.46,0,0,1,.19,1.52,4.57,4.57,0,0,1-.83,1.77,5,5,0,0,1-1.37,1.16c-.39.2-1,.49-1.16.56A15.9,15.9,0,0,1,92.92,104.46Z" transform="translate(0 -1)"/><path class="cls-3" d="M93.17,100.19c-1,.54-1.92,1.08-2.92,1.59-.19.09-1,.57-1.1.65s.09-.08,0,0h0c-.1.07.21-.11-.14,0s-1.33.64-1.66.78c-1.18.5-2.09.93-3.17,1.48a18.9,18.9,0,0,0,3.64-.84c.3-.11,1.39-.66,1.73-.78s.08,0,.15,0h0c.08,0-.13.12.11,0s1-.48,1.16-.63A11.37,11.37,0,0,0,93.17,100.19Z" transform="translate(0 -1)"/><path class="cls-3" d="M75.26,110.73a21.46,21.46,0,0,0,3.77-.62l1.4-.4c.45-.14,1.46-.5,2-.66s.89-.35,1.33-.53.66-.27,1.14-.46,1.21-.56,1.69-.8,1.47-.8,1.78-1A11.36,11.36,0,0,0,91,104.14a29.5,29.5,0,0,0-3.2,1.5c-.32.17-1.29.66-1.78.89s-1.23.6-1.69.79-.71.28-1.14.46-.83.37-1.33.53-1.44.49-1.88.67-1.18.33-1.39.41C77.34,109.9,76.43,110.27,75.26,110.73Z" transform="translate(0 -1)"/><path class="cls-3" d="M77.53,113.25A16.89,16.89,0,0,0,81,114.56c.28.07.81.15,1.61.31s3,.46,4.06.53l1.94.12.92,0c.36,0,.41,0,.83.05s1.15,0,1.65,0c1.12,0,3.13-.19,4-.31s1.83-.27,2.24-.35a18.74,18.74,0,0,0,3.62-1.18,34.55,34.55,0,0,0-3.88.56c-.41.08-1.36.23-2.22.35S93,115,92,115l-1.65,0c-.4,0-.39,0-.73,0l-.92,0-1.83-.11c-1.08-.07-3.23-.38-4-.52l-1.5-.3C79.84,113.66,78.91,113.44,77.53,113.25Z" transform="translate(0 -1)"/><path class="cls-3" d="M78.92,117a17.63,17.63,0,0,0,3.37,1.3c.2,0,.88.16,1.58.31s2.54.43,3.5.5l1.66.1c.45,0,.32,0,.87.06s1.29,0,2.08,0,2.66,0,3.4-.06a21,21,0,0,0,2.19-.24,16.29,16.29,0,0,0,3.7-1,30,30,0,0,0-3.93.26,21.92,21.92,0,0,1-2.2.15c-.75,0-2.53.11-3.3,0s-1.46,0-2,0l-.86,0-1.55-.1a32.58,32.58,0,0,1-3.42-.49c-.69-.14-1.27-.27-1.49-.3C81.12,117.37,80.21,117.21,78.92,117Z" transform="translate(0 -1)"/><path class="cls-3" d="M76.26,118.28a18.59,18.59,0,0,0,3.45,1.11l1.43.39c.47.13,1.43.41,2,.6s.76.26,1.41.52,2.13.79,2.78,1,1.52.66,1.89.81c1.35.55,2.22.87,3.51,1.27a18,18,0,0,0-3-1.85c-.3-.14-1.25-.57-1.89-.81s-2.21-.82-2.88-1-.93-.33-1.5-.51-1.48-.47-2-.61L80,118.83A18.55,18.55,0,0,0,76.26,118.28Z" transform="translate(0 -1)"/><path class="cls-3" d="M45.77,67.05a19.38,19.38,0,0,0,2-2.28,5.85,5.85,0,0,0,.41-.56c.09-.17.21-.2.32-.39a2.37,2.37,0,0,1,.44-.57,7.48,7.48,0,0,0,.63-.76c.44-.58.84-1,1.38-1.61a37.11,37.11,0,0,1,3.19-3.22A132.87,132.87,0,0,1,70.77,45.3c3-1.89,6.36-4.21,9.47-6.39s6.46-4.65,9.83-6.61a52.87,52.87,0,0,1,10.85-4.9,50.35,50.35,0,0,1,11.69-1.85c7.18-.36,16.44-.39,22.86-.47s14.25.61,18.71,1a56.5,56.5,0,0,1,8.07,1.21c2.44.43.91.23,2.82.63s3.32.86,5.73,1.35,5.67,1,8.58,1.48a41.82,41.82,0,0,1,9.4,2.37,20.39,20.39,0,0,1,4.34,2.62c1.24,1,2.65,2.26,3,3.78s-.33,2.49-.58,4a4.35,4.35,0,0,0,.37,2.48,14.18,14.18,0,0,0,1.5,2.38c1.14,1.43,2.52,2.87,3.6,4.29a15.81,15.81,0,0,1,2.71,4.57c.5,1.6.53,2.89-.64,4a8.07,8.07,0,0,1-4,2,25.86,25.86,0,0,1-10.05,1.15c-3.68-.37-7.46-1.73-11.26-2.61a67.24,67.24,0,0,0-12-1.53c-2-.08-4.07-.28-6.05-.44a17.89,17.89,0,0,1-2.89-.52c-.87-.21-1.8-.35-2.54-.49s-1.66-.34-2.18-.41a3.51,3.51,0,0,1-.84-.17.71.71,0,0,0-.42,0c-.13,0,0,0-.12,0s0,0-.11,0-.07-.07-.17-.18a2.59,2.59,0,0,0-.32-.43,4.85,4.85,0,0,1-.62-.83c.05.25.14.71.18.93a1.62,1.62,0,0,0,.11.48c.07.14,0,.11.07.25s0,.29.25.38a6.38,6.38,0,0,0,.86.21,5.91,5.91,0,0,0,.85.18c.53.06,1.42.25,2.17.41s1.66.33,2.55.5,1.85.46,2.86.56c1.93.2,4,.32,6,.42a81.15,81.15,0,0,1,12.09,1.32c3.89.82,7.83,2.18,11.6,2.59s6.83-.29,10.3-1.15a9.85,9.85,0,0,0,4.22-2.05,3.29,3.29,0,0,0,1.09-2.12,5.36,5.36,0,0,0-.32-2.57,16.19,16.19,0,0,0-2.94-4.89c-1.19-1.46-2.47-2.87-3.6-4.29a8.54,8.54,0,0,1-1.35-2.13,4,4,0,0,1-.3-2.08,20.46,20.46,0,0,1,.58-2,4.3,4.3,0,0,0,0-2.31,9.94,9.94,0,0,0-3.46-4.32,24.71,24.71,0,0,0-4.73-2.89c-3-1.37-6.85-1.89-9.8-2.35s-6-.89-8.37-1.33-3.63-.9-5.53-1.23-.41-.22-2.86-.63a66.87,66.87,0,0,0-8.1-1.19c-4.49-.37-12.32-1.05-18.78-1s-15.71,0-23,.48a51.25,51.25,0,0,0-11.88,1.88,61,61,0,0,0-11.16,5c-3.42,2-6.8,4.44-9.95,6.57s-6.51,4.46-9.48,6.35A131.56,131.56,0,0,0,53.1,57.12a43.13,43.13,0,0,0-3.21,3.32c-.53.56-.89,1.06-1.38,1.61a8.28,8.28,0,0,1-.63.75,2.14,2.14,0,0,0-.43.57,2.67,2.67,0,0,1-.32.39,3,3,0,0,0-.41.56C46.35,65.26,46.07,66.12,45.77,67.05Z" transform="translate(0 -1)"/><path class="cls-3" d="M149.32,44.62a2.29,2.29,0,0,1,.52-1.26,8.23,8.23,0,0,1,1.26-1.28,9.08,9.08,0,0,1,1.32-.91,24.75,24.75,0,0,1,6-2.77c1-.22,2.34-.58,3.31-.7a17.39,17.39,0,0,1,1.87-.24,23.21,23.21,0,0,1,4.41,0A42.74,42.74,0,0,1,175.2,39c1.06.39,2.07.88,2.52,1.1,1.79.86,2.75,1.34,4.32,2.21a14.89,14.89,0,0,0-3.88-2.81,27.55,27.55,0,0,0-2.66-1.16A48.81,48.81,0,0,0,168,36.79a27.41,27.41,0,0,0-4.63-.09,12.86,12.86,0,0,0-1.93.25,34.12,34.12,0,0,0-3.46.76,25.61,25.61,0,0,0-6.33,2.9,5.93,5.93,0,0,0-1.38,1,5,5,0,0,0-1.18,1.51C148.76,43.77,149.09,44.08,149.32,44.62Z" transform="translate(0 -1)"/><path class="cls-3" d="M143.76,62.57a10.33,10.33,0,0,1-1.48-.76A6,6,0,0,1,141,60.76a6.4,6.4,0,0,1-.75-.95,8.85,8.85,0,0,1-.91-1.76,8.52,8.52,0,0,1-.33-1.27,6.16,6.16,0,0,1,0-1.15,6.08,6.08,0,0,1,.48-1.75,7.61,7.61,0,0,1,.84-1.41c.73-.9,1.28-1.54,2-2.37a7.43,7.43,0,0,0-2.89,2.07,5.94,5.94,0,0,0-.83,1.49A13.53,13.53,0,0,0,138,55.6a5.08,5.08,0,0,0,0,1.24,7.51,7.51,0,0,0,2.27,4.29A6.59,6.59,0,0,0,143.76,62.57Z" transform="translate(0 -1)"/><path class="cls-3" d="M201.57,62.58c-.6.58-1.17,1.06-1.84,1.62-.08.06-.27.26-.42.36s-.15.17-.4.29-.52.4-.87.58A15.75,15.75,0,0,1,193,67a25.83,25.83,0,0,1-5.3,0c-1.37-.14-1.52-.24-2.66-.35a23,23,0,0,1-2.75-.51c-1.45-.28-3.88-.73-5.76-1a52.92,52.92,0,0,0-6.57-.7c-.86,0-1.72-.11-2.15-.14a14.11,14.11,0,0,0-3.88.23c1.38.18,2.25.42,3.78.52.42,0,1.3.12,2.13.14,1.86,0,4.71.47,6.61.68s4.33.72,5.79,1,1.64.28,2.79.5,1.31.25,2.72.41a27.12,27.12,0,0,0,5.45.09,16.92,16.92,0,0,0,5.31-1.53,3.2,3.2,0,0,0,.87-.58c.21-.19.25-.15.39-.31a4.52,4.52,0,0,1,.48-.43A4.13,4.13,0,0,0,201.57,62.58Z" transform="translate(0 -1)"/><path class="cls-3" d="M182.05,66.18a14.81,14.81,0,0,0-3.07.43c-.2,0-.6.19-1.17.39-.87.3-2.94.92-3.9,1.22s-2.1.61-2.75.85-.41.1-.92.28a13,13,0,0,1-1.79.43c-1.17.26-3.38.6-4.3.77a16.86,16.86,0,0,1-2.17.36c-1.51,0-2.28,0-3.63,0a14,14,0,0,0,3.79.62c.4,0,1.29-.14,2.25-.27a34.69,34.69,0,0,0,4.4-.84c.59-.19,1.28-.33,1.81-.53a9.91,9.91,0,0,1,1-.25c.68-.21,1.82-.47,2.78-.78s3-.91,3.92-1.14a12.62,12.62,0,0,0,1.22-.35A15.15,15.15,0,0,0,182.05,66.18Z" transform="translate(0 -1)"/><path class="cls-3" d="M46.74,76.21a26.17,26.17,0,0,1-3.55.33c-.21,0-.58,0-.79,0l-.59,0h-.54a2.72,2.72,0,0,1-.5-.11,6.84,6.84,0,0,1-1-.24,13,13,0,0,1-2-.77,8.91,8.91,0,0,1-3.1-2.63,7.32,7.32,0,0,1-1.27-3.64,16.62,16.62,0,0,1,1.9-7.71,40.69,40.69,0,0,1,4.19-6.95A70,70,0,0,1,44.29,49a43.85,43.85,0,0,1,3.86-3.56c1.07-.94.92-.78,1.8-1.5a16.14,16.14,0,0,1,1.92-1.49c1.33-.92,2.42-1.76,4.62-3.14,4.44-2.79,10.38-6.15,15.52-8.84,1.31-.68,3.27-1.68,4.8-2.37a41.64,41.64,0,0,1,5-2,15.71,15.71,0,0,1,5.14-.6,8.79,8.79,0,0,1,2.28.6,4.74,4.74,0,0,1,.86.47,1.38,1.38,0,0,1,.39.3c.1.11.15.12.18.2s.07.08.1.1a1.66,1.66,0,0,1,.51,1.38,4.36,4.36,0,0,1-.16,1.31A2.87,2.87,0,0,1,90.41,31c1.08-.7,1.7-1.16,1.82-2.57a2.51,2.51,0,0,0-.6-1.56.31.31,0,0,1-.09-.2c0-.1-.07-.1-.2-.21a2,2,0,0,0-.49-.38,6.17,6.17,0,0,0-1-.56,10.7,10.7,0,0,0-2.57-.7,15.7,15.7,0,0,0-5.63.58,44.65,44.65,0,0,0-5.17,2.11c-1.58.69-3.49,1.7-4.81,2.36-5.23,2.65-11.24,6-15.72,8.84-2.23,1.39-3.3,2.29-4.63,3.23a18.57,18.57,0,0,0-1.92,1.49,22.54,22.54,0,0,0-1.8,1.51c-1.06,1-2.46,2.08-3.86,3.56a56,56,0,0,0-4.84,5.43,43.22,43.22,0,0,0-4.29,7,17.88,17.88,0,0,0-1.92,8A7.14,7.14,0,0,0,34,72.89a10.27,10.27,0,0,0,3.49,2.93,14.66,14.66,0,0,0,2.15.87,5.25,5.25,0,0,0,1.17.25c.3,0,.43.1.61.12l.32,0H42l.69,0c.24,0,.65,0,.89,0A6.06,6.06,0,0,0,46.74,76.21Z" transform="translate(0 -1)"/><path class="cls-3" d="M80.12,34.73a16.22,16.22,0,0,0-2.38,2.38c-.15.18-.47.61-.84,1S75.7,39.47,75.18,40s-.7.76-1.29,1.35-2.17,2.11-2.75,2.6l-1.47,1.2a18.49,18.49,0,0,0-2.3,2.3,16.53,16.53,0,0,0,3-1.73c.29-.22,1-.77,1.44-1.2.74-.66,2.16-2.06,2.79-2.72s.76-.87,1.29-1.36S77.21,39,77.6,38.57a11,11,0,0,0,.83-1A11.87,11.87,0,0,0,80.12,34.73Z" transform="translate(0 -1)"/><path class="cls-4" d="M179.28,45.87c.77,4.48-3.67,5.49-7.39,5.69s-9-.51-10.37-4.85,2.86-6.68,6.9-6.77S178.52,41.38,179.28,45.87Z" transform="translate(0 -1)"/><path class="cls-4" d="M191.94,55.79c.46-1.1,1.58-1,2.49-.52s1.82,1.5,1.41,2.59-1.57.83-2.49.39S191.49,56.88,191.94,55.79Z" transform="translate(0 -1)"/><path class="cls-5" d="M170.17,43c.23-1.34,2-1.34,3.1-1.13s2.65,1,2.32,2.34-1.93,1.14-3,1S169.93,44.34,170.17,43Z" transform="translate(0 -1)"/><path class="cls-3" d="M180.07,52.52A6.88,6.88,0,0,0,182.86,51a3.56,3.56,0,0,0,.55-.94.85.85,0,0,1,.12-.32,3.21,3.21,0,0,0,.12-.31,4.25,4.25,0,0,0,.32-1.64,6.57,6.57,0,0,0-1.22-3.33,19.89,19.89,0,0,1,.11,3,12.7,12.7,0,0,1-.32,1.49,2.14,2.14,0,0,0,0,.23,2,2,0,0,1-.11.31,8.12,8.12,0,0,1-.55.81A13.52,13.52,0,0,1,180.07,52.52Z" transform="translate(0 -1)"/><path class="cls-2" d="M214,102.88" transform="translate(0 -1)"/><path class="cls-6" d="M36.33,91.79A6.43,6.43,0,0,0,38.21,91a2.91,2.91,0,0,1,.41-.27c.16-.07.1-.06.35-.19s.69-.39,1-.6.82-.42,1.24-.63c3.58-1.8,7.72-3.57,11.33-5.08s7.2-2.75,10.64-3.84c1.7-.54,2-.58,3.57-1.07a17.11,17.11,0,0,1,1.93-.53c3-.82,10.43-2.65,15.37-3.59,2.44-.46,8.6-1.58,11.6-2L96.88,73a18.07,18.07,0,0,0,2-.5,9.12,9.12,0,0,0-2,0c-.2,0-.76.14-1.19.19-3,.36-9.14,1.54-11.6,2-4.94,1-12.46,2.74-15.45,3.61s-.37.06-2,.53-1.86.52-3.56,1.06c-3.44,1.1-7,2.32-10.65,3.85s-7.79,3.35-11.43,5c-.43.21-.87.45-1.25.62a11.75,11.75,0,0,0-1,.61,3.21,3.21,0,0,1-.35.2,2.44,2.44,0,0,0-.41.26C37.44,90.94,36.89,91.32,36.33,91.79Z" transform="translate(0 -1)"/><path class="cls-6" d="M59.79,101.78a6.51,6.51,0,0,0,1.89.91c.34.12,1,.3,1.64.48,1,.28,3,.79,4,1,2,.36,3.63.61,5.56.77s3.54.19,5.58.19c1.06,0,3-.14,4-.28.45-.06,1-.13,1.18-.14a6,6,0,0,0,2-.5,19.3,19.3,0,0,0-2,0c-.21,0-.74.08-1.18.14-1.06.14-3,.27-4,.28-2.05,0-3.58,0-5.49-.17a37.14,37.14,0,0,1-5.46-.77c-1-.19-3-.68-4-1-.62-.17-1.31-.36-1.64-.47A18,18,0,0,0,59.79,101.78Z" transform="translate(0 -1)"/><path class="cls-6" d="M97.39,91.57a8.38,8.38,0,0,0,1.8.79,3.89,3.89,0,0,0,.51.14c.34.08,1,.23,1.57.36a50,50,0,0,0,5.76.85,40.34,40.34,0,0,0,5.24.07,20.65,20.65,0,0,0,2.64-.23,51.22,51.22,0,0,0,7.61-1.45c1.27-.38,4.22-1.42,5.64-2,.41-.17.9-.33,1.11-.43a16.86,16.86,0,0,0,1.84-1.09,7.05,7.05,0,0,0-2,.57c-.2.1-.7.26-1.11.43-1.43.6-4.38,1.64-5.65,2a40.73,40.73,0,0,1-7.52,1.36c-1.85.14-1.1.13-2.64.22a49,49,0,0,1-5.24-.07,44,44,0,0,1-5.7-.85c-.55-.11-1.24-.29-1.57-.36s-.4-.11-.5-.13A11.81,11.81,0,0,0,97.39,91.57Z" transform="translate(0 -1)"/><path class="cls-6" d="M130.4,86.32a14.54,14.54,0,0,0,.69-2c0-.09.06-.36.08-.49s0-.14.05-.33a6.72,6.72,0,0,1,.2-.7c.23-.82.67-2.33.91-3a30.63,30.63,0,0,1,1.65-4c.57-1.15.78-1.45,1.4-2.56A34,34,0,0,1,138,69.44c.4-.49.64-.76.84-1a13,13,0,0,0,1.19-1.64,6.87,6.87,0,0,0-1.53,1.36l-.85,1A29.06,29.06,0,0,0,135,73c-.63,1.09-.83,1.4-1.41,2.56A29.65,29.65,0,0,0,132,79.62c-.23.75-.68,2.24-.91,3.15,0,.18-.17.54-.2.69s0,.2,0,.32-.05.41-.08.49A3.74,3.74,0,0,0,130.4,86.32Z" transform="translate(0 -1)"/><path class="cls-3" d="M168.46,107.47a10.2,10.2,0,0,0-2.46-1l-.56-.12-.43-.08c-.29-.05-.67-.08-1.16-.18a3.5,3.5,0,0,0-1.79.32,1,1,0,0,0-.43,1.29,9.2,9.2,0,0,0,2.5,3.42,12.2,12.2,0,0,0,1.4,1.09,4.36,4.36,0,0,0,.82.51c.61.34,1.35.89,2.26,1.47.45.29,1.74,1,2.5,1.38s2.09,1,2.85,1.35a3.76,3.76,0,0,1,1.82,1.59c.23.59-.07.35-.35.5s-.79-.08-1.07-.2a5.82,5.82,0,0,1-1-.64,16.61,16.61,0,0,1-1.23-1.32c.1.24,0,.38.12.63a3.22,3.22,0,0,0,.57.8,6.07,6.07,0,0,0,1.33.81,6.91,6.91,0,0,0,.88.26,2.07,2.07,0,0,0,.82,0c.3,0,.63-.1.58-.53s-.38-.7-.71-1a5.16,5.16,0,0,0-1.44-.93c-.94-.42-2.25-1.09-3.06-1.48s-2-1.05-2.43-1.28c-.94-.49-1.61-1-2.18-1.35a4.23,4.23,0,0,1-.72-.48,16.71,16.71,0,0,1-1.31-1.07,7.26,7.26,0,0,1-2.31-3.16.85.85,0,0,1,.37-1.17,3.11,3.11,0,0,1,1.6-.31,3.82,3.82,0,0,1,1,.1c.25,0,.25.06.41.09l.47.09A13.58,13.58,0,0,1,168.46,107.47Z" transform="translate(0 -1)"/><path class="cls-3" d="M172.79,118.09c-.92-.56-1.26-.79-2.3-1.43-.48-.3-1.41-.88-2.24-1.35S166,114,165,113.38c-.54-.32-1.36-.67-1.92-1a3.41,3.41,0,0,0-1.91-.37c-.54.09-.58.31-.65.7a1.7,1.7,0,0,0,.23,1c.14.38.55,1.29.67,1.61a9.72,9.72,0,0,0,.81,1.59c.24.42.1.25.34.64a11.05,11.05,0,0,0,.88,1.29c.39.49,1,1.31,1.54,1.83a7,7,0,0,1,1.5,1.9c.2.59,0,.52-.39.68s-.92-.06-1.39-.14a5.23,5.23,0,0,1-1.54-.69,3,3,0,0,1-.94-.89,1.09,1.09,0,0,1-.19-.68c0-.24.17-.3.29-.48s.35-.15.54-.21c-.55,0-1.1-.31-1.36.4a.85.85,0,0,0,.26.79,5.21,5.21,0,0,0,1.19,1.13,11.11,11.11,0,0,0,1.92.86,4.74,4.74,0,0,0,1.76.21c.51,0,.66-.29.54-.71a5.84,5.84,0,0,0-1.58-2.15,19.38,19.38,0,0,1-1.55-1.82c-.39-.51-.65-.83-.9-1.21a3.16,3.16,0,0,1-.33-.63c-.19-.4-.58-1.09-.8-1.56s-.54-1.15-.7-1.54a1.63,1.63,0,0,1-.26-.89c0-.33,0-.51.42-.54a3.45,3.45,0,0,1,1.45.28,18.11,18.11,0,0,1,1.73.83c1,.54,2.41,1.45,3.21,1.92s1.79,1.09,2.24,1.35C171.27,117.54,171.77,117.58,172.79,118.09Z" transform="translate(0 -1)"/><path class="cls-3" d="M162.11,120.13a3.5,3.5,0,0,0-.35-1.33,2,2,0,0,0-.24-.35c-.1-.11,0-.07-.18-.25s-.25-.49-.46-.79c-.89-1.32-1.91-2.61-3-3.9-.23-.28-.59-.67-.89-1a6.78,6.78,0,0,0-1.18-1.07,5.16,5.16,0,0,0-1.51-.74,4.26,4.26,0,0,0-1.17-.16,11.31,11.31,0,0,0-1.19.15,1.45,1.45,0,0,0-.45.12,4.36,4.36,0,0,0-.44.12,4,4,0,0,0-.93.33,1.51,1.51,0,0,0-.67,1c-.11.46.07.87-.37,1.3a1.89,1.89,0,0,1-1.89.13,3.33,3.33,0,0,1-1.13-.63,4.16,4.16,0,0,1-.64-.74.32.32,0,0,1,.17-.49,5.18,5.18,0,0,1,.63-.2c.23-.06.55,0,.79-.06-.33-.06-.7-.24-1-.29a1.18,1.18,0,0,0-.91.14c-.25.19-.38.34-.22.69a2.4,2.4,0,0,0,.82,1,5.75,5.75,0,0,0,1.68.84,6.57,6.57,0,0,0,1.53.2.94.94,0,0,0,.89-.45,3.16,3.16,0,0,0,.34-1.28,1.38,1.38,0,0,1,.65-.89,3.7,3.7,0,0,1,.84-.34,2.51,2.51,0,0,1,.43-.13,4.64,4.64,0,0,1,.45-.12c.26,0,.76-.13,1.08-.16a2.49,2.49,0,0,1,.89.08,3.08,3.08,0,0,1,1.08.55,10.11,10.11,0,0,1,1.82,1.82c1,1.27,2.09,2.55,3,3.8a4.53,4.53,0,0,1,.46.8c.1.23.1.14.17.27s.19.25.23.35A5,5,0,0,0,162.11,120.13Z" transform="translate(0 -1)"/><path class="cls-6" d="M165.13,104.13a4.11,4.11,0,0,1,1.81.05,3.58,3.58,0,0,1,.7.38c.17.14.52.37.69.53a4.29,4.29,0,0,1,.45.38c.11.14.23.19.34.37s.37.46.48.65.35.69.17.88a1,1,0,0,1-.64.24,3.21,3.21,0,0,1-.87-.08,2.09,2.09,0,0,0,.9.46,1.07,1.07,0,0,0,.61,0c.25-.08.49,0,.65-.36a1.67,1.67,0,0,0-.2-1.33,6.24,6.24,0,0,0-.55-.75c-.14-.16-.23-.24-.35-.37a3.34,3.34,0,0,0-.45-.38l-.77-.54a2.84,2.84,0,0,0-.85-.43,2.28,2.28,0,0,0-1.07,0A2.16,2.16,0,0,0,165.13,104.13Z" transform="translate(0 -1)"/><path class="cls-6" d="M171.88,117.94a7.76,7.76,0,0,0-1.92-.84c-.09,0-.61-.12-.85-.17l-1-.19a2.59,2.59,0,0,0-.64,0,9.2,9.2,0,0,0-1.47,0,3.37,3.37,0,0,0-1.28.37,1.47,1.47,0,0,0-.67,1,4.52,4.52,0,0,0,0,1,3,3,0,0,1,1-1.58,3.32,3.32,0,0,1,1-.3,6.78,6.78,0,0,1,1.27,0,4.65,4.65,0,0,0,.63,0c.25,0,.64.13.86.16l.75.15A9.1,9.1,0,0,0,171.88,117.94Z" transform="translate(0 -1)"/><path class="cls-6" d="M167.06,106.9a2.5,2.5,0,0,0-.87,1.72,2.55,2.55,0,0,0,.07.84c.07.25.13.7.22.93s.14.37.21.56a1.5,1.5,0,0,0,.22.46c.12.17.35.66.45.78.25.28.58.86.71,1a5.56,5.56,0,0,0,1.58,1.38,15.86,15.86,0,0,0-1.13-1.77,8.33,8.33,0,0,1-.69-.93c-.14-.24-.35-.5-.47-.7a1.8,1.8,0,0,1-.23-.46c-.06-.2-.13-.34-.2-.56a4.49,4.49,0,0,1-.17-.81c0-.23-.09-.57-.08-.75A6.52,6.52,0,0,1,167.06,106.9Z" transform="translate(0 -1)"/><path class="cls-6" d="M160.54,117.25A8.4,8.4,0,0,0,158.9,116l-.72-.47c-.3-.19-1.23-.72-1.62-1s-.72-.38-1.1-.56-.6-.25-1-.43-1.28-.5-1.7-.68a9.85,9.85,0,0,0-1.21-.37,1.85,1.85,0,0,0-2,.33,4.29,4.29,0,0,1,1.89.18,6.82,6.82,0,0,1,1.11.34c.37.17,1.2.49,1.6.65s.58.25.94.42.7.34,1.1.55,1.27.82,1.63.95a2.89,2.89,0,0,1,.73.46A8.09,8.09,0,0,0,160.54,117.25Z" transform="translate(0 -1)"/><path class="cls-6" d="M132.1,82.13a5.45,5.45,0,0,0-1.39,1.66c-.05.08-.2.37-.26.48a1.05,1.05,0,0,0-.15.3,6.55,6.55,0,0,0-.41,1.41,7,7,0,0,0,.25,3.19,12.55,12.55,0,0,0,1.53,2.89,30,30,0,0,0,3.53,4.12c1,1,1.06,1,1.87,1.78s.87.74,1.93,1.7a39.25,39.25,0,0,1,3.87,4,13.15,13.15,0,0,1,2.49,5.6,8.06,8.06,0,0,1,.08,1.26,11.25,11.25,0,0,0,.21,2.07,5.94,5.94,0,0,0,.27-2.19c0-.23-.09-.73-.16-1.28a13.09,13.09,0,0,0-2.62-5.83,30.39,30.39,0,0,0-3.95-4.08,24.41,24.41,0,0,1-1.94-1.69c-.8-.75-.91-.76-1.89-1.68a25,25,0,0,1-3.47-4,13.86,13.86,0,0,1-1.45-2.79,7,7,0,0,1-.19-3,7.78,7.78,0,0,1,.37-1.27c.1-.28.11-.15.16-.34A1.91,1.91,0,0,1,131,84,18.41,18.41,0,0,0,132.1,82.13Z" transform="translate(0 -1)"/><path class="cls-3" d="M166.2,92.2a.53.53,0,0,0-.51,0,.64.64,0,0,0-.18.44c0,.15,0,.24-.07.38a.91.91,0,0,0,0,.4.77.77,0,0,0,.13.42.62.62,0,0,0,.45.2.27.27,0,0,0,.26-.31,1.51,1.51,0,0,1-.09-.6,1.1,1.1,0,0,1,.19-.55C166.54,92.45,166.4,92.25,166.2,92.2Z" transform="translate(0 -1)"/><path class="cls-3" d="M167.26,94.12a4.67,4.67,0,0,0-1.28.19c-.61.23-1.63.7-2.31,1s-1.72.76-2.3,1-.39.38-.77.73a5.06,5.06,0,0,0,1.27-.2c.62-.23,1.62-.71,2.31-1s1.7-.77,2.31-1S166.92,94.56,167.26,94.12Z" transform="translate(0 -1)"/><path class="cls-3" d="M175.44,98.53a5.31,5.31,0,0,0,.43.86,6.17,6.17,0,0,1,.56,1.12c.14.35.18.65.32,1a5.64,5.64,0,0,1,.22,1,4.34,4.34,0,0,0,.45,1.31,2.23,2.23,0,0,0,1,.75,2.19,2.19,0,0,0-.24-.89c-.17-.34-.33-.84-.47-1.2s-.13-.62-.23-1a8,8,0,0,0-.31-1,7.37,7.37,0,0,0-.73-1.3A1.37,1.37,0,0,0,175.44,98.53Z" transform="translate(0 -1)"/><path class="cls-3" d="M162.35,97.35a3.46,3.46,0,0,0-3-.27,1.19,1.19,0,0,0-.7.8,1.51,1.51,0,0,0,.56,1.19,7,7,0,0,0,.83.52,3.18,3.18,0,0,0,1.05.26,4.21,4.21,0,0,0,1.39-.3,3,3,0,0,0,.56-.26c.23-.12.18-.13.38-.31s.55-.35.77-.58a6.05,6.05,0,0,1,1.92-1.13,14.28,14.28,0,0,1,1.43-.41c1.12-.21,1.81-.21,2.83-.37a11,11,0,0,0-3.22-.23,6.15,6.15,0,0,0-1.62.46,15.11,15.11,0,0,0-2,1.17,5.82,5.82,0,0,1-.81.6l-.36.22a1.65,1.65,0,0,1-.44.2,2.44,2.44,0,0,1-1,.21,2.15,2.15,0,0,1-1.17-.49,1,1,0,0,1-.37-.77.75.75,0,0,1,.47-.55A12.25,12.25,0,0,1,162.35,97.35Z" transform="translate(0 -1)"/><path class="cls-3" d="M183.13,98.27a4.93,4.93,0,0,0-2.32,1.42,3.61,3.61,0,0,0-.57.88,4.53,4.53,0,0,0-.39,1.6,6.64,6.64,0,0,0,.31,2,9.74,9.74,0,0,0,.78,1.52,1.34,1.34,0,0,1,.29.71c0,.3.14.24.09.57s0,.73-.33,1a1.93,1.93,0,0,1-1.54.23,3,3,0,0,1-1.39-.94,2.09,2.09,0,0,1-.39-1.11,17.69,17.69,0,0,1,.42-2.21c-.66.75-1.14,1-1.21,2.13a2.06,2.06,0,0,0,.53,1.45,4.31,4.31,0,0,0,1.94,1.27,4.8,4.8,0,0,0,1.37.12,1.56,1.56,0,0,0,1-.57,2.31,2.31,0,0,0,.48-1.38,1.48,1.48,0,0,0-.18-.7,3.26,3.26,0,0,0-.38-.74,11.15,11.15,0,0,1-.78-1.51,4,4,0,0,1-.26-1.76,6.63,6.63,0,0,1,.37-1.42,3.91,3.91,0,0,1,.45-.8A19,19,0,0,1,183.13,98.27Z" transform="translate(0 -1)"/><path class="cls-6" d="M167.67,96.77c.69,0,1.19,0,1.94,0h.8a8.21,8.21,0,0,1,1.49.21l1,.26a5.7,5.7,0,0,1,.86.32,9.53,9.53,0,0,1,1.33.73,5.74,5.74,0,0,1,.93.77c.54.62.93.93,1.45,1.47a6,6,0,0,0-1.2-1.8,7.92,7.92,0,0,0-1-.89,9.77,9.77,0,0,0-1.41-.74,6.07,6.07,0,0,0-.86-.33l-1.06-.28a9.52,9.52,0,0,0-1.59-.23c-.32,0-.71,0-.8,0A5.16,5.16,0,0,0,167.67,96.77Z" transform="translate(0 -1)"/><path class="cls-6" d="M164.1,98.59c.72.09,1.2.17,2,.21.1,0,.41,0,.81,0a13.34,13.34,0,0,1,2.89.38c.74.2,1.29.31,1.93.51s1,.38,1.63.63a11.42,11.42,0,0,1,2.32,1.68c.44.38.79.6,1,.77a17.46,17.46,0,0,0,1.73,1.26,8.56,8.56,0,0,0-1.37-1.58,11.46,11.46,0,0,0-1.08-.78,27.3,27.3,0,0,0-2.41-1.7,14.07,14.07,0,0,0-1.72-.66,19.66,19.66,0,0,0-2-.54,19,19,0,0,0-3-.39c-.43,0-.71,0-.81,0A4,4,0,0,0,164.1,98.59Z" transform="translate(0 -1)"/><path class="cls-6" d="M181.33,104.86c.33-.64.63-1,1-1.77,0-.09.16-.37.36-.74a8.91,8.91,0,0,1,2-2.26A8,8,0,0,1,186.41,99a13.31,13.31,0,0,1,1.7-.66,24.17,24.17,0,0,1,2.85-.59l1.26-.11a13.83,13.83,0,0,0,2.07-.32,7.63,7.63,0,0,0-2.07-.2l-1.26.12a21.66,21.66,0,0,0-2.94.57,10.17,10.17,0,0,0-1.7.66,16.62,16.62,0,0,0-1.87,1.13,9.76,9.76,0,0,0-2.12,2.29,4.32,4.32,0,0,0-.37.77A4.61,4.61,0,0,0,181.33,104.86Z" transform="translate(0 -1)"/><path class="cls-3" d="M176.56,90.21A19,19,0,0,1,178.63,92c.1.1.41.48.78.84a12.46,12.46,0,0,0,1.88,1.67,5.19,5.19,0,0,0,1.66.6c.48,0,1.28.11,1.68.08.92-.07,1.89-.11,2.66-.12s.52,0,1.35,0,2,.22,3.16.34c.62.06,2,.35,2.78.5a13.21,13.21,0,0,1,2.33.79c.53.24.54.73.38.89-.73.73-1.51.6-2.4.8a4.72,4.72,0,0,0,1.51.21,1.86,1.86,0,0,0,1.55-.63.76.76,0,0,0,.22-.69,1.44,1.44,0,0,0-.72-1,11.06,11.06,0,0,0-2.72-1c-.85-.16-2.28-.42-2.89-.51a29.52,29.52,0,0,0-3.38-.3,13.72,13.72,0,0,0-1.46,0c-.77,0-1.78.07-2.64.14a5.07,5.07,0,0,1-2.69-.53,7.71,7.71,0,0,1-1.7-1.56c-.35-.41-.61-.7-.78-.86A5.68,5.68,0,0,0,176.56,90.21Z" transform="translate(0 -1)"/><path class="cls-3" d="M181.82,99.19a19.88,19.88,0,0,1,2.41-1.09l1.11-.37a10.45,10.45,0,0,1,2.73-.39c.71,0,1.35,0,2,.09a11.33,11.33,0,0,1,1.8.34l2.81.72a5.17,5.17,0,0,0,2,.05,1.84,1.84,0,0,0,1.35-.88c.36-.49.05-.76-.13-1.19,0,.39,0,.62-.4.85a2.52,2.52,0,0,1-1.14.49,4,4,0,0,1-1.65,0c-.7-.15-2.08-.54-2.82-.71A10.16,10.16,0,0,0,190,96.8c-.71,0-1.36-.06-2.13-.09a14,14,0,0,0-2.94.42,7.11,7.11,0,0,0-1.24.44A4.36,4.36,0,0,0,181.82,99.19Z" transform="translate(0 -1)"/><path class="cls-3" d="M193.5,96.65c.23.06.4-.14.57-.29a1.28,1.28,0,0,1,.69-.36,2.58,2.58,0,0,1,.73-.06,2.36,2.36,0,0,1,.67.25,3.35,3.35,0,0,1,.59.54c.17.15.27.49.53.41s.32-.33.11-.59a3,3,0,0,0-.94-.81,4,4,0,0,0-1-.33,2.79,2.79,0,0,0-1,.09,2.2,2.2,0,0,0-.94.61C193.21,96.32,193.27,96.59,193.5,96.65Z" transform="translate(0 -1)"/><path class="cls-6" d="M158.46,70.67c-.93.47-.68.14-1.7.88-2.19,1.59-5,3.68-7.26,5.69s-5.13,4.75-7,6.79a10.92,10.92,0,0,0-1.38,1.82,8.4,8.4,0,0,0,1.7-1.44c1.9-2,4.78-4.77,7-6.76s5.09-4.14,7.26-5.7A3.84,3.84,0,0,0,158.46,70.67Z" transform="translate(0 -1)"/><path class="cls-6" d="M141.77,84.75a9.7,9.7,0,0,0,1,2c.25.34.78,1,1.24,1.62.84,1.16,2.55,3.26,3.48,4.27a68.85,68.85,0,0,0,5.32,5.24,71.08,71.08,0,0,0,5.82,4.66c.55.4,1.71,1.15,2.33,1.66a13.84,13.84,0,0,0,2.35,1.39,3.29,3.29,0,0,0,1.24.34,2.58,2.58,0,0,0,1.95-.52,6.08,6.08,0,0,1-1.95,0,7.87,7.87,0,0,1-1.15-.3,17.63,17.63,0,0,1-2.29-1.27c-.64-.42-1.78-1.27-2.31-1.66-2.13-1.53-3.83-2.87-5.75-4.54a64,64,0,0,1-5.32-5.25c-.92-1-2.65-3.14-3.48-4.27-.45-.61-1-1.29-1.15-1.6A5.58,5.58,0,0,0,141.77,84.75Z" transform="translate(0 -1)"/><path class="cls-6" d="M166.44,103.74c.05-.15-.27-.38-.49-.41a2,2,0,0,0-.88.07,2.36,2.36,0,0,0-.65.34,1.78,1.78,0,0,0-.41.6,2,2,0,0,0,0,.86c0,.21.16.47.3.46s.22-.34.21-.51a3.22,3.22,0,0,1,0-.69.72.72,0,0,1,.27-.44.74.74,0,0,1,.43-.19,3.11,3.11,0,0,1,.68,0C166.05,103.83,166.38,103.89,166.44,103.74Z" transform="translate(0 -1)"/><path class="cls-6" d="M145.57,107.63a18,18,0,0,0-1.94-.37c-.09,0-.54,0-.76,0s-.6-.12-.85-.16-.5-.09-.77-.14-.9-.25-1.08-.31a14.79,14.79,0,0,0-1.92-.46,5.66,5.66,0,0,0,1.75.95c.19.06.84.26,1.19.33l.75.14.85.16c.24,0,.67,0,.86.06A3.56,3.56,0,0,0,145.57,107.63Z" transform="translate(0 -1)"/><path class="cls-6" d="M140.22,106.73a7.83,7.83,0,0,0-1.58-1.36,5.32,5.32,0,0,0-.84-.24,4.22,4.22,0,0,0-1.68.07,1.55,1.55,0,0,0-.68.51c-.1.17-.19.18-.25.29a1.31,1.31,0,0,0,0,1.16c.13.42,1,.83,1.26.9a6.8,6.8,0,0,0,1.25.21,5.73,5.73,0,0,0,2-.39,16,16,0,0,0-2-.14,5.34,5.34,0,0,1-1.13-.18c-.31-.11-.92-.37-1-.66a.59.59,0,0,1,0-.64,1.2,1.2,0,0,1,.61-.53,3.61,3.61,0,0,1,1.38-.11,3,3,0,0,1,.74.22A18.53,18.53,0,0,0,140.22,106.73Z" transform="translate(0 -1)"/><path class="cls-6" d="M138.65,108.21a9.23,9.23,0,0,0,1.73,1,7.84,7.84,0,0,0,.81.26l.66.12.56.11c.34.05,1,.21,1.21.22a6.59,6.59,0,0,0,2-.12,13.62,13.62,0,0,0-1.93-.47c-.19,0-.8-.16-1.12-.21-.11,0-.4-.09-.57-.11a4,4,0,0,1-.64-.21c-.17-.07-.63-.23-.71-.25C140,108.43,139.36,108.34,138.65,108.21Z" transform="translate(0 -1)"/><path class="cls-6" d="M139.81,106.23a2.35,2.35,0,0,0,.73.35,5.47,5.47,0,0,0,1.07,0l.91,0c.31,0,.59-.09.91-.13a10.34,10.34,0,0,0,1.11-.21,1.81,1.81,0,0,0,.67-.4,1.14,1.14,0,0,0-.77-.14c-.31,0-.71.16-1,.21l-.83.16c-.28.06-.49,0-.81.07a4.78,4.78,0,0,1-1.07,0A1.16,1.16,0,0,0,139.81,106.23Z" transform="translate(0 -1)"/><path class="cls-6" d="M173.62,68.79a5.43,5.43,0,0,0-.89,1.89c-.08.31-.27,1-.39,1.69a21.35,21.35,0,0,0-.39,4.18,16.52,16.52,0,0,0,.23,2c.11.57.26,1.22.37,1.67s.27.91.32,1.18a1.46,1.46,0,0,0,.14.44,32.89,32.89,0,0,0,2.15,5.21c.22.43.82,1.37,1.13,1.88s.88,1.33,1.16,1.72.59.76.74.93a7.68,7.68,0,0,0,1.53,1.4,8.33,8.33,0,0,0-1-1.71c-.18-.23-.44-.56-.75-.93s-.83-1.21-1.17-1.7-.83-1.44-1-1.86a35,35,0,0,1-2.17-5.11,1.14,1.14,0,0,1-.14-.43c-.05-.26-.22-.67-.34-1.1s-.27-1.1-.37-1.66a14.89,14.89,0,0,1-.17-1.93,22.36,22.36,0,0,1,.31-4c.13-.69.32-1.32.37-1.61C173.39,70,173.48,69.66,173.62,68.79Z" transform="translate(0 -1)"/><path class="cls-6" d="M161.54,79.64a7.79,7.79,0,0,0,.28,2,5.16,5.16,0,0,1,.26.87,26.69,26.69,0,0,0,1,2.71c.3.73.36.95.72,1.9s1.13,3,1.59,4.07c.19.41.43,1,.49,1.1A10.15,10.15,0,0,0,167,94.06a11.54,11.54,0,0,0-.57-2c-.08-.2-.32-.68-.5-1.09-.45-1.08-1.23-3.1-1.59-4.08s-.41-1.11-.72-1.91-.68-2-.9-2.72c-.13-.43-.18-.61-.27-.83A17.22,17.22,0,0,0,161.54,79.64Z" transform="translate(0 -1)"/><path class="cls-6" d="M161.53,82c-.27-.66-.41-1.18-.68-1.89,0-.12-.17-.44-.27-.75a9.78,9.78,0,0,1-.29-1.56,3.21,3.21,0,0,1,0-.73c0-.23,0-.07.05-.31s.1-.53.16-.86a8.22,8.22,0,0,1,.36-1.4,7.45,7.45,0,0,0,.29-1,7.3,7.3,0,0,0,.33-1.78,5.22,5.22,0,0,0-.8,1.64c-.05.16-.22.66-.29,1s-.31,1.14-.37,1.48-.12.63-.16.86a3.63,3.63,0,0,0-.06.38c0,.2,0,.48,0,.71a6.21,6.21,0,0,0,.28,1.68c.14.35.2.68.27.85A5.31,5.31,0,0,0,161.53,82Z" transform="translate(0 -1)"/><path class="cls-6" d="M142.14,86.55a7.28,7.28,0,0,0,2,0c.34,0,.85-.15,1.5-.18s2.52-.27,3.22-.37a42.1,42.1,0,0,0,4.29-.76,27.58,27.58,0,0,0,2.8-.89,15.66,15.66,0,0,0,3.94-2.34,6.4,6.4,0,0,0,.85-.8,7,7,0,0,0,1-1.57A15.57,15.57,0,0,0,160.39,81a10.43,10.43,0,0,1-.84.71,16.17,16.17,0,0,1-3.83,2.26,25.29,25.29,0,0,1-2.7.93,39.41,39.41,0,0,1-4.19.77,28.66,28.66,0,0,1-3.21.36,11.06,11.06,0,0,0-1.49.17A4.35,4.35,0,0,0,142.14,86.55Z" transform="translate(0 -1)"/></g></svg>