<svg id="Layer_1" data-name="Layer 1" xmlns="http://www.w3.org/2000/svg" viewBox="0 0 720 480"><defs><style>.cls-1{fill:#cfc3b4;}.cls-2{fill:#030303;}</style></defs><title>5</title><g id="_19" data-name="19"><path class="cls-1" d="M720,1V481H0V1Z" transform="translate(0 -1)"/><path class="cls-2" d="M58,113.33a5.27,5.27,0,0,0-2.27,1.87.9.9,0,0,1-.5.41,29.11,29.11,0,0,1-8.59.51c-.24,0-.41.31-.37.49a.86.86,0,0,0,.16.36c.29.45.86,1,1.1,1.42s.59.72.31,1c-2.67,3-6.2-.54-8.42-2.23a34.56,34.56,0,0,0-14.55-6.6A6.42,6.42,0,0,1,22,108.85c-.22-.2-.19-.76-.24-1-1.05-4.39,4.41-12.93,6.09-15.07,2.71-3.46,8-9.83,8.87-10.89,7.14-8.65,12.8-14.4,20.52-20.19a98,98,0,0,1,11.36-7.06c6.45-3.61,14-6.1,20.22-8.13A57.15,57.15,0,0,1,104.67,44c7.62-.29,10.72,0,19.41.43a67.05,67.05,0,0,0,11.63,1,107,107,0,0,0,31.43-7.31,61,61,0,0,1,10.92-2.72c4.42-.71,11.24-1.66,16.6-.81,4.57.73,9.51,2.31,14.33,3.61a65.06,65.06,0,0,1,18.13,8.41,2.08,2.08,0,0,0,1.61.33c5.14-.78,9.24-2.12,14.71-1.24A57.78,57.78,0,0,1,255.3,49c4,1.59,7.83,4.91,11,8.21a9.65,9.65,0,0,1,1.95,3.27c.08.26.56.4.71.36a.83.83,0,0,0,.18-.08c6.32-2.74,11.11-1.54,14.72,4.46,2.24,3.73,1.41,7.66.68,11.69a.65.65,0,0,0,.21.61c.14.08.15,0,.2,0,3.3.58,5.41,2,6.41,5.31a8.54,8.54,0,0,1-1.34,8.45c-.14.19-.5.09-.6,0s-.06-.07-.08-.11c-1.2-2.53-2-4.82-4.78-6a1.19,1.19,0,0,0-1.62.9,7.76,7.76,0,0,0,.68,7.07,1.7,1.7,0,0,0,2.4.35s0,0,.1-.07.77-.56,1-.33c1.65,1.83,1.26,1.66-.7,3.29-2.34,2-2,6.18-.44,8.83,3.75,6.28,7.76,12.92,5,20-1.23,3.09-5.3,4.09-7.18,4.06-2.88,0-6.4-1.88-7.81-2.3a15.32,15.32,0,0,0-5-.85,84.91,84.91,0,0,1-21.42-3.1,78.56,78.56,0,0,1-20.16-9c-2.15-1.29-4.5-4.12-6.47-6.09a1.65,1.65,0,0,0-1.85-.4,142.79,142.79,0,0,1-24.53,9c-1.78.46-5,.79-8.06,1.21s-8.42,1.64-12.14,1a13.53,13.53,0,0,0-7.5.38c-4.41,1.81-8.12,5.35-12.84,6.52a2.34,2.34,0,0,1-2.57-.91,2.51,2.51,0,0,1-.07-3.28,2.15,2.15,0,0,1,.85-.66c2.66-1.24,5.46-2.55,8.08-3.89.6-.3.62-.73.53-1.3a.5.5,0,0,0-.35-.45c-4.23-1.7-8.33-1.26-12.87-1.25a3.68,3.68,0,0,1-2.72-1.49c-.06-.08-.22-.3-.27-.39-.62-.92-.33-1.74.77-1.84,3.95-.34,8.2.32,11.95.61a5.78,5.78,0,0,0,2.48-.2c1.27-.46,1.34-1,.62-1.93a31.25,31.25,0,0,0-5.72-5.28,7.4,7.4,0,0,1-2.48-3.46,1,1,0,0,1,.43-1c.23-.12.21-.12.34-.1a10.78,10.78,0,0,1,3.83,1c3.3,1.91,5.95,4.73,10.08,4.49.48,0,.51-.34.11-.58-4.14-2.52-8.39-5-12.78-7.08a20.25,20.25,0,0,0-6.46-1.45c-4.33-.36-10.22-.57-14-.66-6.83-.18-13.25-3.95-18.58-5.67-6.32-2-12.26-3.66-17.41-5.1s-8.17-2.5-12.55-1.17C81,84.66,78,88.23,74.55,93.45c-2,3-2.5,6.87-2.5,10.56s1.57,5.32,5.27,6.78c2.16.85,6,2.14,8.36,3a10.75,10.75,0,0,1,2.25,1.08c.49.35.46.49.42.82-.23,1.83-1.67,2.38-3.25,2.31a37.16,37.16,0,0,1-4.84-.82c-1.66-.32-2-.23-3,.83-.29.31-.28.52-.69.61a9.07,9.07,0,0,1-3.29.09,2,2,0,0,0-.91.21c-2.21.74-2.89,1.2-5.42,0a64.46,64.46,0,0,1-7.23-4,4.46,4.46,0,0,1-1.12-1.29C58.49,113.33,58.24,113.23,58,113.33Z" transform="translate(0 -1)"/><path class="cls-1" d="M218,105.66a107,107,0,0,1-14.15,1.53,75.59,75.59,0,0,1-18.69-1.07c-6.16-1.34-11.5-1.37-17-4.09-4.14-2-7.5-4.59-11.88-6.39a18.29,18.29,0,0,0-5.53-1.22c-4.58-.36-8.54-.65-13.47-.65a33.51,33.51,0,0,1-12.62-3,97.1,97.1,0,0,0-16.4-5.4c-6.45-1.28-9.71-3.37-16.48-4.13a12.19,12.19,0,0,0-8.71,2.26c-1.89,1.36-7,4.25-8.74,8.37-1.33,3.08-4.1,8.94-3.18,13.6a7.37,7.37,0,0,0,5.53,6.15c2.64.81,7.11,2.69,10.17,3.63.3.09.61.74.49,1a1.75,1.75,0,0,1-.21.29c-.26.52-1.54.65-1.84.59-1.43-.31-4.4-.83-5.33-.93a14.64,14.64,0,0,1-4.76-1.25,27,27,0,0,0-6.28-1.77c-.23,0-.28.1-.26.24a.52.52,0,0,0,.11.26c.06.11,0,.07.21.13,2.24.87,4.79,1.71,7,2.54,1,.37.64.6.11,1.11a1,1,0,0,1-.33.18,2.54,2.54,0,0,1-2.06.06,82.5,82.5,0,0,1-8.57-4,.28.28,0,0,0-.38.05c-.09.09,0,0,0,.1a1.13,1.13,0,0,0-.08.36.33.33,0,0,0,.18.37c2.14,1.17,4.47,2.28,6.68,3.24.51.23.18.36.06.53-.32.44-1.88.59-2.08.53a49.29,49.29,0,0,1-10.07-5.15c-.93-.6-.57-.58-.69-.83a19.9,19.9,0,0,0-1.51-3.35,2.63,2.63,0,0,1-.28-2.88c3.74-6,7.42-14.1,10.95-19.57a28.06,28.06,0,0,1,9.24-8.83c4.54-2.93,9.18-3.9,13.66-5.4s7.85.29,12,.36,7.67-.52,11.8-.6a42.51,42.51,0,0,1,7.85.84,15.81,15.81,0,0,0,3.21.22,45.77,45.77,0,0,1,6.2.41c.21,0,.47,0,.45-.24s-.14-.41-.48-.56C125.85,70.57,117.58,67.57,112,65,106,62.1,95.31,61.62,91,61.18s-10.28,1.3-10.73,1.38A46.38,46.38,0,0,0,68.63,66C63.17,68.31,57.87,71.28,54,75.25c-8.66,8.84-13.59,18.65-19.27,29.3-.17.33.19.83.35,1a.59.59,0,0,0,.27.18c6.25,2.4,12,4.6,18.79,4.13a2.89,2.89,0,0,1,3,1.24,1.25,1.25,0,0,1,0,1.64c-.13.18-.29.16-.49.14a29.75,29.75,0,0,0-3.38-.6c-3.51-.09-7.18-.27-10.72-.5-.21,0-.28.2-.24.35a3.18,3.18,0,0,0,.08.33c0,.14.1.27.3.28,4,.22,8.09.48,12.11.68a.6.6,0,0,1,.48.45c.07.17,0,.17,0,.31a1.61,1.61,0,0,1-.17.45c-.27.38-.32.58-.86.57-3.53-.06-7.2-.38-10.73-.45-.71,0-.44.3,0,.67s1.4,1.13,1.93,1.5a5.08,5.08,0,0,1,1.21,1.56c.19.36.21.57.17.68a1,1,0,0,1-1.55.67c-3.74-1.77-7.21-5-10.61-7s-6.46-2.4-10.09-3.32a2.51,2.51,0,0,1-2-2.1,2.53,2.53,0,0,1,.08-1.06,38.66,38.66,0,0,1,8.83-16.37c2.37-2.7,5.07-5.9,6.78-8.23A95.07,95.07,0,0,1,57.77,62.44a113.21,113.21,0,0,1,13.09-7.93,91.45,91.45,0,0,1,17.61-7A58.36,58.36,0,0,1,105.78,45c11.21-.16,21,1.06,32.47,1.66a34.4,34.4,0,0,0,7.56-.57c1.57-.35,4.6-1.18,6.57-1.82,11.11-3.6,21.84-7.78,33.69-8.6,9.42-.66,17.68,2.27,26.94,4.87a40.85,40.85,0,0,1,12.7,6.67,4.81,4.81,0,0,0,3,.74c2.4-.75,8.58-1.81,10-1.65,7.84.93,13.3,2.2,19.64,5.56,4.63,2.47,6.79,6.5,9.75,10.56.16.22.29.24.55.1,5.33-3,8.9-3.2,13.21,1.75,1.81,2.07,2.42,5.31,2.51,8.33.06,1.64-1.07,3.94-2,5.45a.77.77,0,0,0,.16.83.53.53,0,0,0,.41.06c4-.06,6,.89,7.46,4.88.63,1.68.85,4.13-.3,5.81a.49.49,0,0,1-.66.06.33.33,0,0,1-.15-.28c-.59-2.17-1.46-4.12-3.62-5s-3.54.33-4,2.47c-.8,3.75.13,6.38,3.25,8.62.35.26.38.45.19.77a8.21,8.21,0,0,1-.66.87,1.94,1.94,0,0,0-.35.82,14.24,14.24,0,0,0,1.15,8.49c1.81,3.79,4.23,7.35,5.31,11,1.57,5.27-.21,7.43-3.93,10.77-.71.63-2.46.36-3.25.14-2.59-.74-5.45-1.68-7.78-2.41-1.09-.34-.31-.37-.48-.73s.09-.3.18-.36a7.78,7.78,0,0,0,2.5-3.32c1.57-3.62-.05-9.27-1.75-11.86-4.17-6.35-10.19-13.81-13.47-19C258.09,83.4,256.88,79,254.05,72c-1.19-2.95-1.22-5.72-1.55-8.82,0-.19-.05-.2-.19-.09a1.81,1.81,0,0,0-.42.41c-.1.16-.22.15-.2.35.29,3-.13,3.79,1,7.23s2.77,7.69,4.43,12.09c1.07,2.84,5.31,9.33,7.08,11.9,3.3,4.79,8.15,10.28,10.37,14.4,4.29,7.95,4.41,11.85-4.08,15.86-.85.4-4.58,0-7.56-.44a112.24,112.24,0,0,1-14.16-3,84.26,84.26,0,0,1-17.66-7.77c-2.81-1.71-5.56-4.71-7.8-7.16a1.46,1.46,0,0,0-1.89-.44c-10.36,4.65-20.24,8.24-31.59,10-2.47.39-5.1.67-7.92,1.08-3.29.48-6.11-.15-10-.21a12.43,12.43,0,0,0-7,2.49c-2.63,2.09-6.94,6.11-10.83,4.06-.76-.4-.33-1.25,0-1.78a1.11,1.11,0,0,1,.39-.27c2.78-1.32,5.76-2.65,8.46-4.09,1.09-.59,1.16-1.35,1-2.44a.74.74,0,0,0-.42-.67c-4.43-2.43-9.12-1.78-14.07-1.65a2.22,2.22,0,0,1-1.43-.6l-.5-.5a.53.53,0,0,1,0-.6.37.37,0,0,1,.3-.17,67,67,0,0,1,10.61.76,7.84,7.84,0,0,0,4.48-.64,2.11,2.11,0,0,0,.95-2.44,1.26,1.26,0,0,0-.28-.52,45.11,45.11,0,0,0-7.65-6.73,1.46,1.46,0,0,1-.31-1c.06-.26,0-.58.44-.44a16.1,16.1,0,0,1,5.82,3.35,10.78,10.78,0,0,0,4.58,2.07c1.75.25,4.07-.62,6-.37,4,.52,7.57.94,11.61,1.64,9.92,1.71,19.63,1.52,29.81.47a25.63,25.63,0,0,0,3.59-.78c.23-.07.79-.2.84-.54S218.89,105.49,218,105.66Z" transform="translate(0 -1)"/><path class="cls-2" d="M275.48,75.88c.34-.25,1-.85,1.39-1.08s.58-.4,1-.21c1.19.6,1.06,1.55.6,2.73a1.76,1.76,0,0,1-1.94,1c-3.68-1.35-5.73-3.76-5.47-7.67.22-3.41,1-5.69,4.67-6.11,2.78-.32,4.69,1.08,5.69,4.07.72,2.13.95,5.54-.41,7.73a.7.7,0,0,1-.49.36c-.19,0-.18,0-.34,0s-.22-.31-.21-.4,0-.08.05-.12c.61-1.82,1.2-3.46.72-5.42-.91-3.73-2.57-5.66-6.8-4.79-.8.17-1.57,1.46-1.77,3-.32,2.37-.56,5.91,2.53,7.14A.75.75,0,0,0,275.48,75.88Z" transform="translate(0 -1)"/><path class="cls-2" d="M150.34,70.61a.55.55,0,0,0-.33-.42c-3.48-1.9-6.93-3.93-10.21-6.16a2.11,2.11,0,0,1-1.19-2.09,1.81,1.81,0,0,1,1.86-1.6,1.3,1.3,0,0,1,.39.09,42.05,42.05,0,0,0,15.59,2.16,9,9,0,0,0,4.18-1.32c3.3-2.26,7.05-6,9.81-7.7,14.91-9,27.74-10.45,44.36-8.17,1.95.26,2.92,1,4.63,1.6.16,0,.09.15,0,.24a2,2,0,0,1-.3.27.45.45,0,0,1-.41.08c-17-3.5-30.42-2.76-46.1,5.68-2.62,1.41-5.68,4.5-8.37,6.49a17.92,17.92,0,0,1-11.11,4,37,37,0,0,1-12.27-2.26.84.84,0,0,0-.89.2,1.46,1.46,0,0,0-.32.34.45.45,0,0,0,.11.7c3.23,2,6.46,4,9.77,6a12.16,12.16,0,0,1,2.54,2.24.81.81,0,0,1,0,.84.54.54,0,0,1-.33.2,11.78,11.78,0,0,1-2.86.57c-3.64-.1-7.08-.32-10.62-.14A2.36,2.36,0,0,0,136,74.22c-.05.12,0,.24,0,.31s0,.09,0,.11c0,1.07.32,1.71,1.5,1.74,2.57.07,5.1,0,7.71-.17,2.06-.13,4.12-.92,6.2-1.18a1.13,1.13,0,0,1,1.3,1.16,1.44,1.44,0,0,1-.42,1.14c-2,2.22-4.45,4.64-6.43,6.84-.91,1-.65,1.23-.24,2.27,0,0,0,0,.08,0a1.71,1.71,0,0,0,2.47,0c9-7.69,17.91-15.46,28.1-21.57,3-1.78,6.91-2.2,10-2.38a117.89,117.89,0,0,1,15.65.26c2.76.19,5.15,1.21,7.73,2.08a.29.29,0,0,1,.16.35,1.21,1.21,0,0,1-.09.31c-.07.12-.07.17-.23.13a77.56,77.56,0,0,0-25.23-1.92,25.25,25.25,0,0,0-10.54,3.74A131.08,131.08,0,0,0,160,77.6c-3.51,3.14-7.75,6.74-11.33,9.68-1.7,1.39-2.24.78-3.71-.22a.22.22,0,0,1-.07-.09c-.69-1.63-.9-2.38.45-3.89s3.93-3.8,5.2-5.23,1.31-1.77-.52-1.46c-4.14.68-8.52,1.37-12.84,1-1.73-.16-2.27-1.41-2-3,0-.06,0-.12,0-.14a3.84,3.84,0,0,1,3.53-2.94c3.71-.16,7.22.12,10.83.21C150.38,71.5,150.37,71.21,150.34,70.61Z" transform="translate(0 -1)"/><path class="cls-1" d="M36,104.79c1.41-3.27,1.81-5.22,3.78-8.62,4.53-7.81,9.68-15.5,16.68-22.14a24.59,24.59,0,0,1,5.61-3.85c5.12-2.45,10.2-5.43,16.2-6.36,6.77-1,12.17-1.92,19.81-1.57a47.47,47.47,0,0,1,13.78,3.54c3.49,1.44,9.69,4.17,13.64,5.8.71.29,1.3.65.34,1.18a2.78,2.78,0,0,1-1.12-.08c-6.12-.83-11.24-1.41-17.88-.4-1.54.23-4.3-.24-6.84-.36-3-.14-6.71-1.34-10.31.23C81.37,75.79,76.9,76,69.06,84.42c-1.93,2.08-11.27,16.23-12.73,21.45-.1.34-.88,2.08-.47,2.55.14.16-.07.49-.38.44-1.81-.34-3.47.55-5.34.33-4.87-.58-9.43-2.33-14-4.18C36.05,105,35.94,104.93,36,104.79Z" transform="translate(0 -1)"/></g></svg>