<svg id="Layer_1" data-name="Layer 1" xmlns="http://www.w3.org/2000/svg" viewBox="0 0 720 480"><defs><style>.cls-1{fill:#cfc3b4;}.cls-2{fill:#202020;}.cls-3{fill:#fff;}.cls-4{fill:#3c3c3c;}</style></defs><title>3</title><g id="_19" data-name="19"><path class="cls-1" d="M720,1V481H0V1Z" transform="translate(0 -1)"/><g id="_Group_" data-name="&lt;Group&gt;"><path class="cls-2" d="M292.27,82.55a6.33,6.33,0,0,1,.19,2.7,5.47,5.47,0,0,1-1.09,2.48,11.52,11.52,0,0,1-2.16,2c0-.23.13-.45.17-.67-.4.34-.76.95-1.13,1.25a5.28,5.28,0,0,1-1.06.68c-3.3,1.73-6.18,3.33-10.07,3.63s-7.71-1.14-11.36-2.69-7.27-3.4-10.78-5.21c-1.68-.86-3.35-1.73-5-2.61l-2.54-1.38c-.79-.43-1.63-.92-2.32-1.29s-1.55-.84-2-1.16-.44-.28-.74-.49a6.92,6.92,0,0,1-.8-.56c-.1-.11,0-.32,0-.45s0-.09,0-.25a1.63,1.63,0,0,1,0-.57c0-.23,0-.67.09-.93a4.56,4.56,0,0,1,.29,1,3.85,3.85,0,0,0,.15.54c.07.13.06.19,0,.24s0,0,0,0,0-.05.11,0a1,1,0,0,1,.3.14c.2.14.23.14.67.4s1.32.77,2,1.14,1.53.86,2.33,1.29,1.7.94,2.58,1.41c1.63.88,3.3,1.77,5,2.63,3.48,1.74,7.18,3.62,10.75,5.14s7.26,3,11,2.66,6.64-1.88,9.74-3.6a13.57,13.57,0,0,0,4-3.06,4.8,4.8,0,0,0,.86-4.45,10.2,10.2,0,0,0-2.42-4.25c-1.1-1.32-2.38-2.64-3.42-4.07a14.41,14.41,0,0,1-1.45-2.38,4.4,4.4,0,0,1-.17-2.67c.41-1.57,1-2.8.71-4.35a7.51,7.51,0,0,0-2.38-3.82,14,14,0,0,0-3.7-2.42,52.11,52.11,0,0,0-7.49-2.12A27.57,27.57,0,0,1,265,53.9a42.31,42.31,0,0,1-3.77-2.61c-1.25-.88.08,0-1.57-1.2s-2.1-1.59-5.3-3.84-8.35-5.81-13.59-8.84a213.28,213.28,0,0,0-20.26-10.53A61.21,61.21,0,0,0,208.82,23a43.79,43.79,0,0,0-12.11-.52,90.31,90.31,0,0,0-11.8,2c-3.82.88-7.89,1.89-11.5,2.89a82.82,82.82,0,0,0-19.76,8c-1.57.9-2.61,1.65-4,2.53-.67.44-1.28,1-1.76,1.3a2.89,2.89,0,0,0-.82.69,4,4,0,0,0-.48.57c-.13.19-.22.2-.33.32s-.34.43-.39.5A10.72,10.72,0,0,1,144,43.3c.19-.45.46-1.12.67-1.5a6,6,0,0,1,.62-1c.21-.24.27-.33.42-.52a2.92,2.92,0,0,0,.29-.4,4.4,4.4,0,0,1,.47-.57,4,4,0,0,1,.68-.68c.67-.46,1.15-.9,1.88-1.39,1.38-.91,2.47-1.69,4-2.59a80.78,80.78,0,0,1,20-8.08c3.64-1,7.67-2,11.51-2.9a94.82,94.82,0,0,1,11.9-2.1,44.09,44.09,0,0,1,12.36.5,60.48,60.48,0,0,1,11.86,4A226.7,226.7,0,0,1,241,36.59c5.26,3,10.52,6.7,13.77,8.93s3.64,2.67,5.3,3.84.34.32,1.57,1.19,2,1.59,3.66,2.55a25.19,25.19,0,0,0,5.88,2.38,68.87,68.87,0,0,1,7.67,2.21,14.91,14.91,0,0,1,4,2.62,8.21,8.21,0,0,1,2.68,4.31,5.74,5.74,0,0,1-.13,2.51c-.2.79-.46,1.49-.59,2.27a3.75,3.75,0,0,0,.16,2.17,9.72,9.72,0,0,0,1.23,2.13c1,1.44,2.32,2.66,3.42,4.1A14.56,14.56,0,0,1,292.27,82.55Z" transform="translate(0 -1)"/><path class="cls-1" d="M291.45,82.69a4.86,4.86,0,0,1-.87,4.45,13.16,13.16,0,0,1-4,3.06c-3.08,1.68-6,3.24-9.74,3.59s-7.46-1.13-11-2.65S258.54,87.71,255,86c-1.69-.82-3.37-1.75-5-2.62-.87-.46-1.77-1-2.57-1.39l-2.32-1.3c-.68-.38-1.55-.92-2-1.15a6.84,6.84,0,0,1-.67-.39c-.2-.12-.24-.18-.31-.16s-.08.06-.11,0h0s0-.14,0-.26a3.91,3.91,0,0,0-.15-.53c-.07-.23-.24-.75-.29-1a5.13,5.13,0,0,0-.09.93c0,.23,0,.33,0,.48s-.05.11,0,.25-.1.3,0,.46a6.23,6.23,0,0,0,.79.54l.73.5c.45.3,1.32.77,2,1.15s1.52.86,2.32,1.29L250,84.19c1.63.87,3.26,1.76,5,2.61,3.51,1.74,7.14,3.63,10.76,5.2s7.47,3,11.35,2.68,6.78-1.94,10.08-3.6c.4-.2.68-.45,1.06-.66a12,12,0,0,1-.83,1,6.18,6.18,0,0,1-.45.48,2.29,2.29,0,0,0-.34.35,10.45,10.45,0,0,1-.87.83,17.73,17.73,0,0,1-5.14,2.83,19.47,19.47,0,0,1-5.32,1,13.11,13.11,0,0,1-2.59-.11,12.78,12.78,0,0,1-2.76-.52,45.89,45.89,0,0,1-5.88-2c-1.81-.78-4.53-2-6.19-2.86-.77-.4-1.52-.78-1.85-1A16.27,16.27,0,0,0,252.68,89a16.44,16.44,0,0,0,3,2.18c.34.21,1.07.65,1.89,1.07,1.76.9,4.22,2.12,6.25,2.94a35.08,35.08,0,0,0,3.53,1.24,6,6,0,0,0-1.3.17c-.5.12-.63,0-1.34.12a33.65,33.65,0,0,1-4.49.18c-1.12,0-2.31-.15-3-.23s-.35,0-.91-.06-1.24-.2-1.85-.3c-1.18-.19-3.45-.8-4.33-1.05s-1.61-.52-1.91-.62c-1.44-.49-2.28-.31-3.44-1a.19.19,0,0,1,0-.09c.09-.48,1-.79,1.19-.94a9.79,9.79,0,0,0,1-.86,6.4,6.4,0,0,0,1.6-2.53,23,23,0,0,0-2.36,1.91,12,12,0,0,1-.89.85,34.38,34.38,0,0,1-4.61,3.2c-.72.4-1.71.86-2.27,1.15a7.83,7.83,0,0,1-1.06.44,4.9,4.9,0,0,1-.94.27,17.61,17.61,0,0,1-2.24.54A15.52,15.52,0,0,0,228.64,99a4.26,4.26,0,0,0-1.39,1.41c-.83,1.4-.52,2.11-.05,3.4a5.63,5.63,0,0,1,.17-1.42,8.2,8.2,0,0,1,.63-1.36c.1-.17.47-.57.62-.78a1.54,1.54,0,0,1,.08.19,4.29,4.29,0,0,0-1.16,2.9,7.63,7.63,0,0,0,.06.88,2.67,2.67,0,0,0,.17.67,16.52,16.52,0,0,0,.52,1.9,13.14,13.14,0,0,0,2.64,4,11.83,11.83,0,0,0,4.15,2.64,12.93,12.93,0,0,0,7.6.19,8.23,8.23,0,0,0,2.25-1c.72-.36.18-.11.92-.58a14.1,14.1,0,0,0,2.54-2,17.75,17.75,0,0,0,2.13-2.59,15.73,15.73,0,0,1,2.14-3.11,3,3,0,0,1,3.45-.75,3.71,3.71,0,0,1,1.42,1.31,1.52,1.52,0,0,1,0,1.53,2,2,0,0,1-1.26.81,16.23,16.23,0,0,1-3,.17,7.65,7.65,0,0,0,1.52.58,7.74,7.74,0,0,0,1.36.13c.08,0,.24.06.35.07a9.43,9.43,0,0,0-2.56,1.75c-.47.45-1.43,1.34-2.26,2.11s-2.29,2-3.27,3a7.15,7.15,0,0,0-1.45,2.05,3.36,3.36,0,0,0,.15,2.8,5.08,5.08,0,0,0,2.21,1.87,14.93,14.93,0,0,0,2.35.78c1.16.33,3.22.81,4,1a35.36,35.36,0,0,0,3.9.61c1,.1.34.07,1.2.12a24.41,24.41,0,0,0,2.84.1,25.27,25.27,0,0,0,4-.47,9.29,9.29,0,0,1,4.48,0,2.84,2.84,0,0,1,1.69,1.29,3.45,3.45,0,0,1,.38,2,2.7,2.7,0,0,1-.92,1.78,2.42,2.42,0,0,1-1.74.55,3.79,3.79,0,0,1-1.62-.53,5.52,5.52,0,0,1-1.23-.93,5.63,5.63,0,0,1-.89-1.18,2.78,2.78,0,0,0,.45,1.45,14.55,14.55,0,0,0-3-.87c-.18,0-.52,0-.78-.1a1.77,1.77,0,0,0-.62-.08c-.42,0-1.11-.09-1.73-.11a58.19,58.19,0,0,0-8.43.36c-.7.08-1.41.22-2.11.35a4.88,4.88,0,0,0-1.93.79,2.5,2.5,0,0,0-.92,1.78,3.55,3.55,0,0,0,.44,1.75c.42.82.86,1.76,1.19,2.32s.23.5.47.93.2.31.56.9a13.44,13.44,0,0,0,1.57,2.14,11.82,11.82,0,0,0,2.9,2.37,21.66,21.66,0,0,1,3.56,2,4.06,4.06,0,0,1,1.64,3.44,1.83,1.83,0,0,1-.89,1.3,2.2,2.2,0,0,1-1.53.18,2.75,2.75,0,0,1-1.42-.82,4.46,4.46,0,0,1-.83-1.28,3.92,3.92,0,0,1-.5-1.33s0-.11.06-.12a3,3,0,0,1,1.23.09c-.94-.57-1.68-.94-2.69-1.58-.29-.19-1.1-.82-1.54-1.05l-.13-.06c-.07,0-.08,0-.17-.14a1.18,1.18,0,0,0-.32-.29,7.61,7.61,0,0,1-.67-.64,16.78,16.78,0,0,1-1.4-1.49c-.91-1.08-1.93-2.09-2.89-3.2a27.38,27.38,0,0,0-3.2-3.17,35.3,35.3,0,0,0-3.71-2.65c-2.35-1.45-5.14-2.88-7.22-4.27a40.69,40.69,0,0,1-5.46-4.59,46.39,46.39,0,0,1-3.44-3.87c-1-1.19-.41-.5-1.47-1.88s-2.93-3.76-4.29-5.73c-.35-.52-1.41-2-2-2.92a23,23,0,0,1-2.07-3.38,8.67,8.67,0,0,1-.94-4A5.65,5.65,0,0,1,215.17,96c.64-.71,1.37-1.36,2.07-2,.4-.1,1.44-.28,1.73-.35a5.53,5.53,0,0,0,2.6-1.61,19.44,19.44,0,0,0-2.9.7c-.09,0-.37.06-.48.1a22.43,22.43,0,0,0,1.89-3.24,33.57,33.57,0,0,1,4-6.46c.38-.45.89-.86,1.17-1.17a3.21,3.21,0,0,1,.66-.52,1,1,0,0,1,.39-.16l.19-.08.12,0,.46-.19.64-.26a19.41,19.41,0,0,1,3-.74,5.86,5.86,0,0,0-3.42-.13c-.19,0-.56.23-.73.29l-.47.19-.11,0a.91.91,0,0,0-.2.08c-.12.08-.12.1-.34.26l-.76.55a7,7,0,0,0-1.27,1.22,29.31,29.31,0,0,0-4.06,6.63,23.38,23.38,0,0,1-2,3.44,3.77,3.77,0,0,1-.5.58A29.43,29.43,0,0,1,208,91.93c-4.72-1.35-8.31-2.63-12.68-4.09s-7.8-2.52-12.41-4.32c-2.31-.91-6.57-2.63-9.09-3.82-.89-.42-1.68-.79-2.38-1.17-.33-.19-.55-.28-.72-.37a16.34,16.34,0,0,0-3-1.1A20.1,20.1,0,0,0,170.53,79l.71.35c.19.09.36.15.53.25.53.32,1.38.62,1.93.89,2.35,1.14,7.22,3,9.12,3.76,3.88,1.54,9.55,3.46,12,4.24a13.16,13.16,0,0,1,1.49.53c-.94-.14-1.09-.1-2-.21-2.21-.28-5.45-.73-7.51-1.2s-2.51-.54-4.56-1.08a68.77,68.77,0,0,1-6.78-2.17c-1.21-.46-3.55-1.35-4.91-2l-1-.49c-.25-.12-.33-.16-.55-.25s-.52-.26-.7-.35a15.14,15.14,0,0,0-2.92-1.15c0-.31,0-.62.07-.93.4.07.79.09,1.19.16a13.49,13.49,0,0,0-3.13-1.43l-.79-.19c-.81-.16-1.72-.37-2.62-.56A74.25,74.25,0,0,0,151.52,76c-2.36-.17-5.06-.25-6.72-.27s-1.72,0-2.83,0a22.37,22.37,0,0,0-2.44.16c-.57,0-1.67.14-2.39.16-.4,0-1,.06-1.4.09s-.84.07-1.23.08c-1.62.07-3.41-.08-4.93-.15-.44,0-.76,0-1,0a6.82,6.82,0,0,0-1.76,0,6.65,6.65,0,0,0,1.8.65c.19,0,.71-.14,1,.11l.08,0a3.33,3.33,0,0,1-1.07.84,6.9,6.9,0,0,1-1.74.62,26,26,0,0,0-3.83,1.46,13.28,13.28,0,0,0-2.82,1.66,27.79,27.79,0,0,0-2.87,2.19c-1.14,1.06-1.17,1.14-2.74,2.79s-3.86,5.24-5.79,7.64c-.93,1.16-2.89,3.38-4.07,4.7-.31.34-.79.85-1.16,1.18s-.7.78-1,1.14-.72.73-1,1.06-.72.65-1,.94-.61.81-.88.84-.14-.15-.24-.18.11,0,0-.11A12,12,0,0,0,95,105.27c-.34.2-1,.52-1.75,1s-2.64,1.81-3.73,2.4c-.57.31-1.38.78-1.86,1.1s-.26.18-.81.56-1.25,1-2,1.58a25.34,25.34,0,0,0-3.05,2.88c-.59.71-1.49,1.72-1.71,2.06a7.42,7.42,0,0,0-1.41,4c-.14,0-.3,0-.45-.05a2.65,2.65,0,0,0-.62-1.48c-.08.32-.1.64-.18.95-1-.13-1.91-.22-2.87-.32a4.42,4.42,0,0,0-1.2-1.45c.1-.06.11-.1.23-.17.43-.24,1-.7,1.41-.94a8.11,8.11,0,0,0,.9-.66c.26-.24.43-.35.67-.6s.89-.84,1-1c.34-.39.92-1.11,1.06-1.32a4.08,4.08,0,0,0,.7-2.59c-.1,0-.09.2-.23.16a20.93,20.93,0,0,1-3-1.15,14.39,14.39,0,0,0,1.68-.36,14.27,14.27,0,0,0-4,.13l-1.58.31a31.2,31.2,0,0,0-6.56,2.4,21,21,0,0,0-3.35,2.32,10.34,10.34,0,0,0-.89.76,12.67,12.67,0,0,0-1.52,1.69,9.92,9.92,0,0,1-1.88,2,3.45,3.45,0,0,1-2.65.32,3.3,3.3,0,0,1-1.55-.93,1.4,1.4,0,0,1-.43-1.09,1.63,1.63,0,0,1,.42-1.07,2.28,2.28,0,0,0-.75.44,1.94,1.94,0,0,1,.11-.68,2.34,2.34,0,0,1,.33-.65,1.9,1.9,0,0,1,.56-.53,8.46,8.46,0,0,1,1-.46c.28-.1.21-.3.45-.39.81-.33,1.34-.36,2.31-.79l1.3-.54c2.17-.92,5.25-2.23,7.58-3.19s4.94-2.08,7-3a15.9,15.9,0,0,0,1.83-.89,2.62,2.62,0,0,0,1.27-1.34c.39,0,.83,0,1.22.06-.33-.24-.93-.2-1.21-.43s-.13-.61-.41-.75c-.11.09.19.63-.12.64-.7,0-1.2-.24-2.15-.27-.47,0-1.57-.06-2.34,0-.42,0-1.62.07-2.11.12l-1.2.13c-.45.05-.92.14-1.39.21s-1.64.44-1.94.5a6.63,6.63,0,0,0-1.4.55,10,10,0,0,0-2.43,1.57c-.08-.09-.26,0-.3-.21s.29-.44.33-.64a4.24,4.24,0,0,1-1.51.66c-.22,0-.57-.29-.78-.25s.16.38,0,.39a5.37,5.37,0,0,1-2.4-.14c-.44-.1-1.58-.29-1.6-1.14a2.55,2.55,0,0,1,.48-1.24,9.89,9.89,0,0,1,.69-.75c.27-.27.55-.47.89-.75a12.93,12.93,0,0,1,1.66-1,8.39,8.39,0,0,1,1.85-.61c1.94-.33,3.51-.48,5.35-.73,0,0,0,.07,0,.09a4.5,4.5,0,0,1-1.76.36,19.73,19.73,0,0,0,5.84.24l3.46-.37a48.42,48.42,0,0,0,5.61-1.21c1.23-.37,2.31-.7,3.1-1a8.72,8.72,0,0,1,1.12-.44c.66-.21,1.64-.74,2.29-1a31.71,31.71,0,0,0,4.54-2.8,17.11,17.11,0,0,0,1.56-1.36,11.58,11.58,0,0,0,2.8-3.94c.61.29,1.26.55,1.88.84-.17.52-.41,1.09-.58,1.6s-.35,1.14-.51,1.59-.44,1.38-.51,1.66a19.72,19.72,0,0,0-.54,2.76A23.56,23.56,0,0,0,95.45,95c.12-.33.33-1.17.47-1.66s.33-1.07.5-1.6.36-1.15.56-1.7.41-1.16.63-1.7.45-1.3.64-1.82c.74-2,2.41-5,3.16-6.8,1.52-3.53,5-7.78,7-9.86a19.79,19.79,0,0,1,3.76-3.15,13.72,13.72,0,0,1,4.49-2.47A38.81,38.81,0,0,1,121,63a10.24,10.24,0,0,1,5.07,0,9.85,9.85,0,0,1,2.66,1.17h0c-.15.18-.3.36-.44.55a4.38,4.38,0,0,0,.88-.23,5.4,5.4,0,0,1,1.5,1.63c.09.15.1.33.16.42s.41.33.59.55A8.59,8.59,0,0,0,131,66a4.67,4.67,0,0,0-1.38-1.71c.25-.15.21-.09.52-.25s.57-.29,1.08-.54a9.69,9.69,0,0,1,2.26-.56c.75-.11,1.86-.34,2.66-.41a29.41,29.41,0,0,1,4.85-.19c.77,0,.86.17,1.65.26s-.65-.16,1,.19a77.18,77.18,0,0,1,8.21,2.08c1.3.46,5.08,1.9,6.69,2.51l3,1.13a20.81,20.81,0,0,0,3.51,1,18.29,18.29,0,0,0-3.21-1.77c-.63-.25-1.86-.74-3-1.13-2-.71-4.74-1.8-6.91-2.54a41,41,0,0,0-4-1.08s0-.11,0-.13c.29-.21.65.07,1,.15a28.11,28.11,0,0,0-2.65-1.57c-.26-.15-1-.62-1.44-1a7.11,7.11,0,0,1-1.52-2,6,6,0,0,1-.47-1.43,5.51,5.51,0,0,1,.05-1.61,16.25,16.25,0,0,1,.7-2.35c.16-.49.28-1,.33-1.21a15.46,15.46,0,0,0,.51-3.13,16.64,16.64,0,0,0-1.26,2.65c-.07.19-.23.68-.39,1.14s-.51,1.58-.63,2.18a12.38,12.38,0,0,1-1.37-.78c-.07-.23,0-.72-.16-.88s-.1-.07-.27-.15a8.88,8.88,0,0,0-1.82-.65c-1.82-.54-4-1.19-5.94-1.93-1-.37-2.3-1-3.28-1.4a19.64,19.64,0,0,0-3.23-1.07c-.83-.19-1.3-.35-1.82-.46a3.13,3.13,0,0,0-.8-.14,9.25,9.25,0,0,0,1.31-2,5,5,0,0,0,.34-1.25c-.29.22-.66.36-.94.55s-.09.34-.15.47a8.34,8.34,0,0,1-1.34,2c-.42-.08-.84-.07-1.26-.12.3.16.59.35.9.49h0a11.22,11.22,0,0,1-2.74,1.68c-2,.89-4.55,2.16-6.36,3s-4.26,1.83-5.51,2.53c-2.51,1.4-3.2,1.93-5.52,3.31a45.93,45.93,0,0,0-5.7,3.75c-3,2.24-8.78,6.06-12.87,8.66-2,1.3-5.43,3.47-7.8,4.78l-2,1.09c-.61.33-1.25.69-1.88,1s-1.29.67-1.88.94-1.2.56-1.71.81-1.41.65-1.76.78a17.66,17.66,0,0,0-3.08,1.52,14.6,14.6,0,0,0,3.11-.74c.33-.11,1.26-.57,1.76-.79s1.28-.53,1.79-.8,1-.44,1.45-.71a18.85,18.85,0,0,0-3.86,3.06c-.25.27-.77.9-1.57,1.69s-3,3.34-3.9,4.44-1.61,2.14-2.43,3.09-1.3,1.55-2.12,2.55a45.63,45.63,0,0,0-2.86,4.22c-.54.93-1.2,2-1.39,2.34a10.14,10.14,0,0,0-1.14,4.18c.33-.46.48-1,1-1.28,0,0,.07,0,.09,0-.87,1.19-1.57,2.36-2.41,3.62-.07.1-.21.29-.36.53a4.85,4.85,0,0,1-.79.77,9.1,9.1,0,0,1-2,1.08l-1.46.53a8.05,8.05,0,0,1-1.26.39,3.72,3.72,0,0,1-2-.09,1.39,1.39,0,0,1-.82-.93,2.36,2.36,0,0,1,0-.88,3,3,0,0,1,.61-1.77c.09.05.49.25.54.16s-.07-.47-.19-.58a5.62,5.62,0,0,1,1.4-1,11.11,11.11,0,0,0-1.41.19c-.05-.1-.1-.21-.16-.31a7.22,7.22,0,0,0,3-1.37c.17-.13.63-.53,1-.79a12,12,0,0,0,1.41-1.36,8.28,8.28,0,0,0,.82-1c.24-.37.38-.49.65-.9a11.53,11.53,0,0,0,.82-1.65,9.07,9.07,0,0,0,.52-1.63,9.75,9.75,0,0,0,.14-1.51,3.09,3.09,0,0,1,1,.05c-.23-.32-.71-.26-1-.48s-.07-.72-.27-.94a1.83,1.83,0,0,1-.3.87c-.14.09-.08,0-.12,0a3.65,3.65,0,0,0-1.91.44,12.51,12.51,0,0,0-1.71,1c-2,1.34-4.25,2.89-6.37,4.37S36,102.74,34,104.17c-.55.38-.89.6-1.09.71a16.83,16.83,0,0,0-1.63,1.31c-.29.2-.35,0-.65.24a7.64,7.64,0,0,1-1.14.59,3.76,3.76,0,0,1-1,.24,3.45,3.45,0,0,1-1.11,0l-1.1-.21a1.58,1.58,0,0,0,.87-.44,4.43,4.43,0,0,1-1.53-.1,2.82,2.82,0,0,1-1.48-.73,1.88,1.88,0,0,1-.71-1.37,2.24,2.24,0,0,1,1.47-1.9,15.93,15.93,0,0,1,3.34-.66c1-.1,2.13-.39,2.85-.54a7.87,7.87,0,0,0,1.22-.32,11.84,11.84,0,0,0,1.32-.5c.72-.3,1.94-.86,2.84-1.35A22.92,22.92,0,0,0,41.71,95c.51-.57.72-.78.85-1a7.31,7.31,0,0,0,1.2-2.77c-.1.09-.15.18-.24.26l-2.15-1.53.84-.14a13.17,13.17,0,0,0-3.6-.27c-.32,0-1.4.18-2,.3-.37.06-1.53.26-2,.39s-.73.18-1.18.3a10.77,10.77,0,0,0-1.29.46c-.52.21-1.33.55-1.88.84a8.8,8.8,0,0,0-1.76-1.34l0-2.13c.54.09,1.08.13,1.61.22a8.85,8.85,0,0,0-1.84-.87,1.13,1.13,0,0,0,.12-.28,17.56,17.56,0,0,0,5.69.23c.54-.06,2.07-.28,3.17-.48a43.66,43.66,0,0,0,5-1.35l2.87-1a7.32,7.32,0,0,0,1-.47,19.52,19.52,0,0,0,2.16-1.06,39.52,39.52,0,0,0,4.27-3.15c.83-.72,1.27-1.2,1.58-1.51a19.51,19.51,0,0,0,1.78-2.19c.24-.3.46-.28.76-.67s.83-.92,1.22-1.36.84-.88,1.25-1.38,1-1,1.43-1.54,1-1,1.43-1.55,1.05-1.16,1.5-1.69C65.29,66,68,63.31,69.74,61.35A120.25,120.25,0,0,1,82.13,49.61c3.29-2.6,3.62-3.11,6.24-4.86A59.77,59.77,0,0,1,95,40.67a61.41,61.41,0,0,1,6.93-3.11c2.26-.8,5.29-2.21,7.78-2.59a34.68,34.68,0,0,1,3.88-.37,8.87,8.87,0,0,1,2.71.16s-.09,0-.16.05c-.48.12-1.65.46-2,.6A16.64,16.64,0,0,0,111.19,37a21.61,21.61,0,0,0,3.29-.88c.4-.14,1.15-.36,2.1-.62a27.1,27.1,0,0,1,9.64-.88c.79.08,1.72.2,2.46.33s1.81.34,2.41.41a22.46,22.46,0,0,1,4,1.06c1.64.62,2.34.89,3.71,1.49s2.54,1.13,4,1.79c.25.11.91.66,1.33.59a.12.12,0,0,0,.08-.06,8.16,8.16,0,0,1,.78,1,10.54,10.54,0,0,0-.67,1.54,11.36,11.36,0,0,0,1.94-1.92,4,4,0,0,0,.4-.49c.11-.16.19-.16.34-.33a7.67,7.67,0,0,1,.57-.56,8,8,0,0,1,.81-.66c.66-.43,1.11-.87,1.8-1.32,1.38-.91,2.4-1.65,3.95-2.54a82,82,0,0,1,19.82-8c3.65-1,7.68-2,11.51-2.9a88.78,88.78,0,0,1,11.81-2,43.89,43.89,0,0,1,12.12.54,61.34,61.34,0,0,1,11.66,3.86,202.88,202.88,0,0,1,20.29,10.55c5.24,3.05,10.4,6.65,13.6,8.89s3.65,2.66,5.3,3.84.33.31,1.57,1.2a45,45,0,0,0,3.79,2.62,29.18,29.18,0,0,0,6.16,2.5c2.24.67,5.07,1.15,7.48,2.11a12.9,12.9,0,0,1,3.69,2.4,7.15,7.15,0,0,1,2.35,3.79c.28,1.53-.37,2.79-.69,4.35a5.16,5.16,0,0,0,.18,2.68,8.92,8.92,0,0,0,1.43,2.37c1.17,1.4,2.3,2.7,3.45,4.09C290.1,79.43,291.09,81.05,291.45,82.69Zm-6.59,2.66a2.7,2.7,0,1,0-5-2,2.3,2.3,0,0,0,.1,1.93,3.15,3.15,0,0,0,1.58,1.49,2.77,2.77,0,0,0,.74.19A2.36,2.36,0,0,0,284.86,85.35ZM273.4,75.77a7,7,0,0,0-.83-3.54c-.07,1.15,0,2-.07,3.27a10.27,10.27,0,0,1-.31,1.75c0,.07-.08.2-.1.26s-.1.22-.11.25a5,5,0,0,1-.51,1.06c-.6.88-1,1.64-1.65,2.43a4.68,4.68,0,0,0,2.49-1.81,5.55,5.55,0,0,0,.56-1.17,1.28,1.28,0,0,0,.06-.35c0-.09.08-.22.1-.27A10.36,10.36,0,0,0,273.4,75.77Zm-2.69-1.09a1.66,1.66,0,0,0,0-.58c-1-4.92-4.68-8.06-9.39-9.13a6.29,6.29,0,0,0-6.2,1.59,4.88,4.88,0,0,0-1.43,4.72c.75,4.49,4.34,7.56,8.67,9a2.68,2.68,0,0,0,.64.15A7.24,7.24,0,0,0,269,78.72,5.57,5.57,0,0,0,270.71,74.68ZM272,69.83a12.53,12.53,0,0,0-2.63-3c-.32-.26-1.12-.82-1.93-1.42a32.27,32.27,0,0,0-5.82-3.05A34.88,34.88,0,0,0,258,61.21a9.61,9.61,0,0,0-1.43-.25,25.41,25.41,0,0,0-2.9-.29,20.15,20.15,0,0,0-5.87.72,4.57,4.57,0,0,0-1.32.53c-.71.43-1,.52-1.41,1.07a1.54,1.54,0,0,0-.13,1.55,1.37,1.37,0,0,1,.76-1.06,7,7,0,0,1,1.34-.77,7.5,7.5,0,0,1,1.21-.5,19.78,19.78,0,0,1,5.5-.73,24.25,24.25,0,0,1,2.79.32c.78.13.38.07,1.32.27a22.53,22.53,0,0,1,3.47,1.1,36.71,36.71,0,0,1,5.66,3c.81.59,1.58,1.09,1.89,1.34C270.12,68.5,270.76,69,272,69.83Zm-37.46-1.17c1-.58,1.65-1,2.64-1.52a5.22,5.22,0,0,0-3.32.72,7.57,7.57,0,0,0-1.42,1.21,13.76,13.76,0,0,0-1.24,1.82,7.28,7.28,0,0,0-.5,1.27,10.41,10.41,0,0,0-.28,1.66,11.76,11.76,0,0,0,.15,2.61A7.31,7.31,0,0,0,231,77.9a5.48,5.48,0,0,0,2.81,2.91,6.74,6.74,0,0,1-1.15-1.35,9.2,9.2,0,0,1-.76-1.63,8.12,8.12,0,0,1-.36-1.37,15.57,15.57,0,0,1-.14-2.4,6.2,6.2,0,0,1,.24-1.51c.15-.49.21-.74.4-1.24a5.63,5.63,0,0,1,1.12-1.67A10.82,10.82,0,0,1,234.51,68.66Z" transform="translate(0 -1)"/><path class="cls-2" d="M289.26,89c-.12.23,0,.44-.21.67a4.12,4.12,0,0,1-.92.62C288.48,89.81,288.88,89.4,289.26,89Z" transform="translate(0 -1)"/><path class="cls-2" d="M289.09,89.63a8.81,8.81,0,0,1-1,2.17c-.06.1-.37.42-.5.6s-.18.18-.42.4-.61.55-1,.86a18.47,18.47,0,0,1-5.31,3,19.27,19.27,0,0,1-5.48,1.06,15.53,15.53,0,0,1-2.67-.08,22.39,22.39,0,0,1-2.66-.45c-.25,0-.91-.28-1.23-.35a7,7,0,0,1,.75-.32,19.38,19.38,0,0,1-2-.07h0c-1.16-.3-2.43-.82-3.53-1.23a62.72,62.72,0,0,1-6.26-2.94c-.82-.42-1.54-.87-1.88-1.07a15.76,15.76,0,0,1-3-2.19,19.16,19.16,0,0,1,3.29,1.41c.39.2,1.08.56,1.85,1,1.66.91,4.37,2.12,6.2,2.88a43.66,43.66,0,0,0,5.87,2,16.7,16.7,0,0,0,2.76.49,12.29,12.29,0,0,0,2.59.12,18,18,0,0,0,5.31-1,20.31,20.31,0,0,0,5.16-2.82,4.83,4.83,0,0,0,.85-.84c.18-.24.22-.19.33-.35s.38-.41.44-.49a7.1,7.1,0,0,0,.82-1A1.78,1.78,0,0,1,289.09,89.63Z" transform="translate(0 -1)"/><path d="M284.74,83.4a2.65,2.65,0,0,1-2.65,3.75,1.76,1.76,0,0,1-.73-.19,3,3,0,0,1-1.56-1.5,2.55,2.55,0,0,1-.11-1.93,2.67,2.67,0,0,1,3.39-1.59A2.26,2.26,0,0,1,284.74,83.4Zm-.65,1.68a1.88,1.88,0,0,0-1.18-2.44,1.91,1.91,0,0,0-2.48,1.08,2,2,0,0,0,3.66,1.36Z" transform="translate(0 -1)"/><path d="M282.91,82.64a1.88,1.88,0,0,1,1.18,2.43,1.8,1.8,0,0,1-2.4,1.05,1.91,1.91,0,0,1-1.18-2.44A1.81,1.81,0,0,1,282.91,82.64Zm.5,2.19c.2-.45.07-.52,0-.82a1.61,1.61,0,0,0-.69-.66c-.2-.1-.24,0-.37-.06a1.18,1.18,0,0,0-1.21.69c-.16.39,0,.49.06.8a1.31,1.31,0,0,0,.7.67A1.28,1.28,0,0,0,283.41,84.83Z" transform="translate(0 -1)"/><path class="cls-2" d="M281.58,113.8a1.47,1.47,0,0,1-.42,1.38,3,3,0,0,1-.3.23,4.65,4.65,0,0,0,.42-.47,2.07,2.07,0,0,0,.17-.66C281.48,114.09,281.59,114,281.58,113.8Z" transform="translate(0 -1)"/><path d="M283.45,84c.07.31.23.37.06.8a1.28,1.28,0,0,1-1.55.63,1.3,1.3,0,0,1-.71-.67,1,1,0,0,1-.07-.8,1.17,1.17,0,0,1,1.22-.69c.12,0,.19,0,.37.06S283.37,83.68,283.45,84Z" transform="translate(0 -1)"/><path class="cls-2" d="M281.35,114.3a1,1,0,0,1-.17.69c-.17.23-.14.34-.49.51a2.07,2.07,0,0,1-1.41.26,6.52,6.52,0,0,1-.69-.11h0a6.12,6.12,0,0,1-1.28-.84,4,4,0,0,0,2.52.15c.29-.1.53-.13.69-.19C280.93,114.62,281.13,114.65,281.35,114.3Z" transform="translate(0 -1)"/><path class="cls-2" d="M281.14,113.5a1.88,1.88,0,0,1,.19.8c0,.26-.4.34-.55.46s-.64.32-.68.21,0,0,.09-.06a2.37,2.37,0,0,0,.29-.32h0c.08-.1.68-.39.58-.79,0-.13,0-.73-.26-.87A1.73,1.73,0,0,1,281.14,113.5Z" transform="translate(0 -1)"/><path class="cls-2" d="M281.06,113.84c0,.3-.3.71-.56.71h0c-.1,0,0-.62-.1-.75s-.2-.43-.33-.56-.05-.21-.16-.35a2.41,2.41,0,0,0-.49-.47c-.13-.08-.19,0-.27-.11h0a5.81,5.81,0,0,1-.49-.42c-.08-.11-.52-.29-.53-.37s.42-.06.6-.06a1.56,1.56,0,0,1,.79.16h0a10,10,0,0,1,1.4,1.36A1.4,1.4,0,0,1,281.06,113.84Z" transform="translate(0 -1)"/><path class="cls-2" d="M280.81,115.54l-.16.07a2.15,2.15,0,0,1-1.82.06,3,3,0,0,0,.72.12A2.57,2.57,0,0,0,280.81,115.54Z" transform="translate(0 -1)"/><path class="cls-2" d="M280.63,112.5l.27.38a8.41,8.41,0,0,0-1.4-1.33c.15.09.08,0,.29.12A4.68,4.68,0,0,1,280.63,112.5Z" transform="translate(0 -1)"/><path class="cls-2" d="M280.39,113.82a1.61,1.61,0,0,1,.08.76,2.11,2.11,0,0,1-.27-.69,5,5,0,0,0-.11-.56A1.16,1.16,0,0,1,280.39,113.82Z" transform="translate(0 -1)"/><path class="cls-1" d="M280.45,114.55c.05.28-.16.27-.28.35s.06,0-.13,0a1.09,1.09,0,0,1-.66,0,3.33,3.33,0,0,1-1.56-.68c-.58-.44-1.79-1.48-2.44-1.95a10.48,10.48,0,0,0-1.76-1.07c-.68-.34-1.34-.6-2.12-.93a16,16,0,0,0-3.31-.73,12.16,12.16,0,0,0-1.44,0,4.65,4.65,0,0,0-2.22.62,4.77,4.77,0,0,0-2,.82,8.29,8.29,0,0,0-1,.81,9.43,9.43,0,0,0-1.41,1.82,8.17,8.17,0,0,0-.79,2.57,20.35,20.35,0,0,0-.05,2.29,3.85,3.85,0,0,1-.08.93,1.47,1.47,0,0,1-.19.73,2.27,2.27,0,0,1-.9,1.27,1.69,1.69,0,0,1-1.82-.34,3.91,3.91,0,0,1-1-1.78,2.69,2.69,0,0,1,.3-1.57,11.8,11.8,0,0,1,1.3-2c.07.17.2.26.27.44a4.18,4.18,0,0,0,.3-1.24,14.61,14.61,0,0,1,.21-1.59c.1-.42.22-.85.35-1.3a8,8,0,0,0,.31-1.4,7.24,7.24,0,0,0,0-1.86c-.09-.55-.44-.8-.77-1.19.25-.25.6-.4.78-.73a2.53,2.53,0,0,0,.33-1.08,2.63,2.63,0,0,0-.34-1.3,4.65,4.65,0,0,0-1.89-1.89,3.74,3.74,0,0,0-2.44-.19c-.41.08-.67.28-1,.38a7,7,0,0,0-3-1.45,8.35,8.35,0,0,0-2-.1,12.73,12.73,0,0,0-3.06.74c-.4.17-.82.31-1.12.43s-.25.11-.5.19a2.23,2.23,0,0,1-.63.13,2.64,2.64,0,0,1-1.26-.17,2.21,2.21,0,0,1-1-1.12,1.12,1.12,0,0,1,0-1.13,1.51,1.51,0,0,1,.84-.55,3.53,3.53,0,0,1,2.78.78c-.09-.3-.47-.6-.55-.86,0-.06.14,0,.32,0,.93-.16,2.2-.25,3.18-.35s2.37-.23,3.15-.34.64-.26,1.13-.6A8.79,8.79,0,0,0,250.2,98c-.16-.06-.08-.18,0-.31s.36-.08.41-.27a2.28,2.28,0,0,1,.29-.84c.17-.18.25-.39.4-.58,1.09.28,2.35.53,3.42.71.69.11,1.27.24,1.85.29s.18,0,.91.07,1.93.2,3.05.22c.74,0,2.39,0,3.27-.09a9.53,9.53,0,0,1,1.07,3c.05.2.11.72.24,1.34a11,11,0,0,0,1,2.89,6,6,0,0,0,1.32,1.45,8.27,8.27,0,0,0,1.71.81c.92.31,2,.61,2.72.9s.41.2,1.22.56a27.22,27.22,0,0,1,3.09,1.6l2,1.26a2.8,2.8,0,0,0-.7.31c-.39.29-.32.54-.32.94a1.61,1.61,0,0,0,.79-.22,2,2,0,0,1,.85-.26c.19,0,.31,0,.37,0h0c.3.26.83.75,1,1a.75.75,0,0,1,.14.57A5.22,5.22,0,0,0,280.45,114.55Z" transform="translate(0 -1)"/><path class="cls-2" d="M279.91,112.89s.18.38.12.31a6.16,6.16,0,0,0-1-.94,2.2,2.2,0,0,1,.27.11A2.32,2.32,0,0,1,279.91,112.89Z" transform="translate(0 -1)"/><path class="cls-2" d="M279.39,115a1.77,1.77,0,0,0,.69-.06,4,4,0,0,1-2.57-.14,7.53,7.53,0,0,0,1.32.87,7.78,7.78,0,0,1-1.36-.67c-.74-.51-1.79-1.49-2.46-2a9.06,9.06,0,0,0-1.61-.94,18.32,18.32,0,0,0-2-.88,14.76,14.76,0,0,0-3.06-.63l-1.34,0c-.89,0-1.3.1-2.06.19.29-.11.54-.28.82-.39a3.68,3.68,0,0,0-1.1,0,4.45,4.45,0,0,1,2.21-.65,11.53,11.53,0,0,1,1.44,0,14.62,14.62,0,0,1,3.31.72,19,19,0,0,1,2.12.94,11.58,11.58,0,0,1,1.75,1.07c.65.49,1.85,1.52,2.44,2A2.59,2.59,0,0,0,279.39,115Z" transform="translate(0 -1)"/><path class="cls-2" d="M279,111.22c.11.1.36.23.46.33a2.42,2.42,0,0,0-.81-.18c-.21,0-.51.13-.63,0a21.83,21.83,0,0,0-2-1.25c-1.06-.57-2.29-1.23-3.1-1.58s-.48-.23-1.21-.58-1.79-.57-2.73-.9a13,13,0,0,1-1.72-.8,4.39,4.39,0,0,1-1.32-1.44,14,14,0,0,1-1-2.88,11.9,11.9,0,0,1-.26-1.35,9.59,9.59,0,0,0-1-2.95c0-.07.06-.05.08,0,1.28.52,1.51,1.6,1.8,3,.05.24.15.81.29,1.43a8.44,8.44,0,0,0,.85,2.6,5,5,0,0,0,2.55,1.81c.94.29,2,.65,2.75,1a11.62,11.62,0,0,1,1.31.53c.84.41,2.09,1,3.25,1.66A15,15,0,0,1,279,111.22Z" transform="translate(0 -1)"/><path class="cls-2" d="M279,112.33s-.18,0-.34,0a1.94,1.94,0,0,0-.84.26,1.53,1.53,0,0,1-.79.21.77.77,0,0,1,.28-.91c.25-.15.53-.33.74-.29a1.62,1.62,0,0,1,.57.35A3.17,3.17,0,0,1,279,112.33Z" transform="translate(0 -1)"/><path class="cls-2" d="M274.74,125a4.19,4.19,0,0,1,.48,2.6,3.57,3.57,0,0,1-1.18,2.21,3.39,3.39,0,0,1-2.3.7,3.83,3.83,0,0,1-2-.67c-.58-.36-1.24-.57-1.26-1.24,0,0,.1,0,.09,0s-.1,0-.12-.05A2.25,2.25,0,0,1,268,127a5.42,5.42,0,0,0,.9,1.18,7.69,7.69,0,0,0,1.22.93,3.69,3.69,0,0,0,1.62.52,2.4,2.4,0,0,0,1.74-.54,2.77,2.77,0,0,0,.93-1.79,3.16,3.16,0,0,0-.38-2,2.78,2.78,0,0,0-1.7-1.28,11.63,11.63,0,0,0-4.48,0,40.15,40.15,0,0,1-4,.46,24.54,24.54,0,0,1-2.84-.09c-.86-.06-.21,0-1.21-.13a32.25,32.25,0,0,1-3.88-.61c-.75-.18-2.8-.62-3.95-1a14.75,14.75,0,0,1-2.35-.79,5.52,5.52,0,0,1-2.22-1.88,3.44,3.44,0,0,1-.17-2.8,6,6,0,0,1,1.44-2c1-1,2.43-2.25,3.29-3s1.79-1.66,2.27-2.1a9.48,9.48,0,0,1,2.57-1.77,8,8,0,0,1-2,2.38c-.55.48-1.5,1.39-2.36,2.15s-2.22,2-3.18,3a5.63,5.63,0,0,0-1.29,1.87,2.38,2.38,0,0,0,.09,2.1,4,4,0,0,0,1.74,1.44A13.93,13.93,0,0,0,252,122c1.33.35,2.79.68,4,1,.45.1,1,.23,1.17.26.93.18,1.89.32,2.62.4a6.77,6.77,0,0,0,1.15.12c.77,0,1.62.14,2.74.13a26.94,26.94,0,0,0,3.93-.44,11.23,11.23,0,0,1,4.93,0A4,4,0,0,1,274.74,125Z" transform="translate(0 -1)"/><path class="cls-2" d="M272.57,72.23a7,7,0,0,1,.83,3.55,19,19,0,0,1-.32,2A1.19,1.19,0,0,1,273,78a1.8,1.8,0,0,0-.07.35,4.54,4.54,0,0,1-.55,1.19,4,4,0,0,1-2.49,1.79c.64-.79,1.05-1.54,1.66-2.42a5.41,5.41,0,0,0,.5-1c0-.06.08-.2.11-.26l.1-.27a7.73,7.73,0,0,0,.32-1.72C272.55,74.32,272.61,73.43,272.57,72.23Z" transform="translate(0 -1)"/><path class="cls-2" d="M268.38,128.69h0s-.12-.05-.11-.05S268.36,128.7,268.38,128.69Z" transform="translate(0 -1)"/><path d="M270.63,74.23a2,2,0,0,1,0,.58A5.68,5.68,0,0,1,269,78.94c-1.69,1.61-3.78,1.87-6.05,1.66a3.92,3.92,0,0,1-.62-.13c-4.36-1.34-8-4.52-8.68-8.94a4.92,4.92,0,0,1,1.44-4.72,6.3,6.3,0,0,1,6.19-1.62C266.05,66.17,269.73,69.26,270.63,74.23Zm-7.82,5.3c3.91.69,7.16-1.28,6.84-5.49s-4.35-7.35-8.3-8-7.33,1.26-6.91,5.45S258.9,78.84,262.81,79.53Z" transform="translate(0 -1)"/><path class="cls-2" d="M268.24,128.65c.09,0,.09,0,0,0a11.88,11.88,0,0,1-3-.05,6.54,6.54,0,0,1-.77-.09c-.2-.06-.3,0-.54,0-.62-.06-1.07-.08-1.78-.1a51.44,51.44,0,0,0-8.3.43,9.17,9.17,0,0,0-3.66,1,1.3,1.3,0,0,0-.6,1.27,3.94,3.94,0,0,0,.36,1.5c.31.7.84,1.67,1.12,2.21s.32.46.55.89a6.52,6.52,0,0,0,.57.88,15.64,15.64,0,0,0,1.5,2,10.59,10.59,0,0,0,2.73,2.14,26.23,26.23,0,0,1,3.72,2.18,6.47,6.47,0,0,1,1.48,1.91,3.48,3.48,0,0,1,.38,2.35,2.84,2.84,0,0,1-1.32,1.87,3.33,3.33,0,0,1-4-.84,4.28,4.28,0,0,1-.86-1.62,4,4,0,0,1,0-1.57,3.91,3.91,0,0,0,.51,1.33,9.86,9.86,0,0,0,.83,1.27,2.72,2.72,0,0,0,1.39.81,2,2,0,0,0,1.56-.16,1.54,1.54,0,0,0,.9-1.31,4.15,4.15,0,0,0-1.65-3.43,21,21,0,0,0-3.56-2.05,11.79,11.79,0,0,1-2.9-2.36,13.44,13.44,0,0,1-1.57-2.14c-.36-.59-.29-.48-.56-.89a5.61,5.61,0,0,1-.48-.93c-.28-.58-.81-1.5-1.15-2.33a5.5,5.5,0,0,1-.46-1.76,2.13,2.13,0,0,1,.9-1.79,6.3,6.3,0,0,1,1.94-.79c.7-.17,1.42-.25,2.12-.35a47.58,47.58,0,0,1,8.41-.36c.68,0,1.3.08,1.74.11a3.83,3.83,0,0,1,.63.09c.26,0,.59.08.78.09A8.06,8.06,0,0,1,268.24,128.65Z" transform="translate(0 -1)"/><path class="cls-2" d="M269.35,66.86a12.69,12.69,0,0,1,2.62,3c-1.17-.8-1.82-1.28-3.09-2.25-.32-.25-1.08-.79-1.88-1.33a41.88,41.88,0,0,0-5.67-3,29.45,29.45,0,0,0-3.47-1.11,8.85,8.85,0,0,0-1.32-.27,22,22,0,0,0-2.79-.32,17,17,0,0,0-5.51.71,9.42,9.42,0,0,0-1.2.49,4.83,4.83,0,0,0-1.34.78,1.83,1.83,0,0,0-.75,1.07,1.82,1.82,0,0,1,.13-1.56,2.32,2.32,0,0,1,1.43-1,7.19,7.19,0,0,1,1.31-.53,19.21,19.21,0,0,1,5.87-.72,24.38,24.38,0,0,1,2.89.29c.8.15.44,0,1.42.25a27.35,27.35,0,0,1,3.64,1.17,41.81,41.81,0,0,1,5.82,3C268.27,66.08,269,66.6,269.35,66.86Z" transform="translate(0 -1)"/><path d="M269.75,74c.31,4.19-3,6.21-6.84,5.5s-8-3.86-8.38-8,3-6.16,6.92-5.46S269.44,69.81,269.75,74Zm-1.85,3.46A3.79,3.79,0,0,0,269,73.92a7.32,7.32,0,0,0-2.16-4.34,12.46,12.46,0,0,0-4.73-2.72c-.15,0-.43-.15-.56-.18-1.76-.31-3.91,0-5,1.28a3.56,3.56,0,0,0-1.15,3.58c.62,3.83,3.83,6.26,7.54,7.12A5.15,5.15,0,0,0,267.9,77.46Z" transform="translate(0 -1)"/><path class="cls-2" d="M269.4,96.34a2.78,2.78,0,0,1-.75.31h0c-.18,0-1.08-.31-1.27-.35C268,96.31,268.74,96.34,269.4,96.34Z" transform="translate(0 -1)"/><path d="M269,73.91a3.88,3.88,0,0,1-1.13,3.54,5.15,5.15,0,0,1-5,1.32c-3.62-.79-6.85-3.36-7.51-7.1a3.79,3.79,0,0,1,1.12-3.53c1.26-1.4,3.25-1.48,5.06-1.33.14,0,.4.15.56.18a10.58,10.58,0,0,1,4.74,2.7A6.8,6.8,0,0,1,269,73.91Zm-2.26-2A2.53,2.53,0,0,0,265.23,69c-1-.49-2.29-.39-2.7.79a2.56,2.56,0,0,0,1.56,2.89C265.12,73.15,266.37,73,266.77,71.86Z" transform="translate(0 -1)"/><path class="cls-2" d="M267.33,96.3c.27,0,1,.36,1.3.35a7.69,7.69,0,0,1-2.29.56c-.2,0-.89.19-1.31.22l-1.22.11c-.06,0-.22-.15-.19-.15s.05.07,0,.09c-.89.06-2.54.11-3.29.09-1.11,0-2.3-.17-3-.23s-.32,0-.91-.06-1.14-.17-1.86-.3c-1-.19-2.34-.44-3.4-.71,0-.07.1-.07.13-.18a.62.62,0,0,0,0-.51.53.53,0,0,0-.57-.13c-.18.09-.43.31-.43.47s-.07,0-.1,0-.12,0-.14,0a18.19,18.19,0,0,0-1.95-.67,13.79,13.79,0,0,1-3.22-1.8,24.53,24.53,0,0,1,3.44,1l1.92.63a44.38,44.38,0,0,0,4.33,1.06c.61.11,1.3.24,1.85.3s.18,0,.91.06,1.94.2,3,.22,3.42-.11,4.48-.19c.73,0,.9-.11,1.35-.1s.9-.15,1.17-.12Z" transform="translate(0 -1)"/><path class="cls-3" d="M265.13,69a2.59,2.59,0,0,1,1.54,2.9c-.39,1.2-1.66,1.29-2.68.8s-2-1.71-1.55-2.89A1.78,1.78,0,0,1,265.13,69Z" transform="translate(0 -1)"/><path class="cls-2" d="M265.68,110.38c-.29.09-.53.32-.82.39s-.62.09-.92.14c.27-.15.46-.46.75-.56A2.76,2.76,0,0,1,265.68,110.38Z" transform="translate(0 -1)"/><path class="cls-2" d="M263.94,110.91c.31,0,.61-.13.92-.14a13.5,13.5,0,0,0-1.68,1.08,8.31,8.31,0,0,0-.89.77,10.53,10.53,0,0,0-1.26,1.66,5.78,5.78,0,0,0-.68,2.32c0,.72-.07,1.65-.08,2.2a5.21,5.21,0,0,1,0,1,2.29,2.29,0,0,1-.25.87,3.07,3.07,0,0,1-1.29,1.64,2.37,2.37,0,0,1-1.4.23,3.81,3.81,0,0,1-1.36-.73,5.4,5.4,0,0,1-1.36-2.35,3.13,3.13,0,0,1,.32-2,3.88,3.88,0,0,1,1.9-1.83c.1-.06.16.16.1.26a18.94,18.94,0,0,0-1.26,2,3.18,3.18,0,0,0-.3,1.58,3.49,3.49,0,0,0,1,1.79,1.7,1.7,0,0,0,1.83.33,1.94,1.94,0,0,0,.92-1.27,2.45,2.45,0,0,0,.17-.74,6.42,6.42,0,0,0,.08-.93,20.35,20.35,0,0,1,.05-2.29,9,9,0,0,1,.78-2.58,8.74,8.74,0,0,1,1.4-1.81,5.92,5.92,0,0,1,1-.83,5.77,5.77,0,0,1,2-.77C264.38,110.56,264.17,110.73,263.94,110.91Z" transform="translate(0 -1)"/><path class="cls-2" d="M263.78,97.55h0s-.17-.12-.16-.14S263.78,97.54,263.78,97.55Z" transform="translate(0 -1)"/><path class="cls-2" d="M257.06,144.76a11.9,11.9,0,0,1-1.27-.11,5.5,5.5,0,0,1-1.78-.71,13.3,13.3,0,0,1-1.57-1.14.66.66,0,0,1-.17-.14c0-.06-.06,0-.16-.15l-.36-.38c-.18-.17-.54-.47-.78-.69-.5-.48-1-.92-1.5-1.45-.95-1-1.89-2.14-2.9-3.17a39.7,39.7,0,0,0-3.08-3.14,32.42,32.42,0,0,0-3.65-2.55c-2.36-1.41-5.13-2.95-7.25-4.35a37.92,37.92,0,0,1-5.62-4.73c-1.49-1.48-2.51-2.73-3.54-3.93s-.45-.47-1.56-1.84-2.92-3.78-4.31-5.78c-.35-.5-1.39-2-2-2.92a23.7,23.7,0,0,1-2.18-3.58,11.18,11.18,0,0,1-1.12-4.61,6.11,6.11,0,0,1,1.76-3.9,6.86,6.86,0,0,1,1.25-1.27c.42-.25,1,.09,1.47-.16-.6.8-1.4,1.32-2.05,2.06a5.91,5.91,0,0,0-1.65,3.5,8.54,8.54,0,0,0,.94,4,25.33,25.33,0,0,0,2.1,3.37c.62.89,1.66,2.41,2,2.93,1.35,2,3.17,4.35,4.27,5.7s.47.69,1.47,1.87,2,2.42,3.44,3.9A36.25,36.25,0,0,0,232.7,126c2.08,1.41,4.84,2.9,7.22,4.28a23.35,23.35,0,0,1,3.7,2.65,43.5,43.5,0,0,1,3.2,3.17c1,1.07,1.89,2.21,2.9,3.18.53.52.91,1,1.41,1.49.23.22.49.49.66.64a4.34,4.34,0,0,1,.33.29c.08.09.11.12.16.14l.14.06c.38.23,1.28.9,1.53,1.05C255.11,143.66,256,144.1,257.06,144.76Z" transform="translate(0 -1)"/><path class="cls-2" d="M258.32,108.81a6.82,6.82,0,0,1,0,1.86,10.69,10.69,0,0,1-.32,1.4c-.14.47-.25.83-.36,1.31a13.18,13.18,0,0,0-.2,1.63,6.18,6.18,0,0,1-.3,1.18c-.1-.11-.26-.27-.25-.42s.33-.33.31-.44-.35.27-.44.13a1,1,0,0,1-.12-.61,12.8,12.8,0,0,1,.23-1.81c.11-.47.19-.94.32-1.39a12.4,12.4,0,0,0,.26-1.27,4.17,4.17,0,0,0,0-1.65,2.36,2.36,0,0,1,.06-1.21A2.28,2.28,0,0,1,258.32,108.81Z" transform="translate(0 -1)"/><path class="cls-2" d="M258.66,105.8a2.54,2.54,0,0,1-.33,1.08,2.46,2.46,0,0,1-.77.74,2.43,2.43,0,0,1-.92.36,1.59,1.59,0,0,1-.43,0,4.12,4.12,0,0,1-1.36-.14,11.28,11.28,0,0,1-1.52-.58,12.85,12.85,0,0,0,3-.19,2.17,2.17,0,0,0,1.25-.8,1.65,1.65,0,0,0,0-1.53,2.63,2.63,0,0,0-1.42-1.32,3.27,3.27,0,0,0-3.44.77,15.26,15.26,0,0,0-2.14,3.1,18.59,18.59,0,0,1-2.12,2.6,14.68,14.68,0,0,1-2.54,2,6,6,0,0,1-.92.58,8.58,8.58,0,0,1-2.25.94A11.74,11.74,0,0,1,231,110.68a13.54,13.54,0,0,1-2.62-4,7.33,7.33,0,0,1-.53-1.91,1.86,1.86,0,0,0-.16-.68,3.49,3.49,0,0,1-.07-.87,4,4,0,0,1,1.17-2.9,26.2,26.2,0,0,0-.31,3.11,5.05,5.05,0,0,0,0,.77,1.56,1.56,0,0,0,.13.58c.14.43.24,1.16.5,1.82a11.34,11.34,0,0,0,2.36,3.63,12.86,12.86,0,0,0,3.75,2.46,11.49,11.49,0,0,0,7.08.23,7.22,7.22,0,0,0,2.08-.87c.68-.36.13-.1.82-.55a11.84,11.84,0,0,0,2.35-2,19,19,0,0,0,2-2.46,19,19,0,0,1,2.26-3.25,4.38,4.38,0,0,1,.7-.58c.17-.09.34.08.45,0s-.36-.16-.25-.21a3.13,3.13,0,0,1,1-.39,4.23,4.23,0,0,1,2.45.19,3.94,3.94,0,0,1,1.89,1.91A.92.92,0,0,1,258.66,105.8Z" transform="translate(0 -1)"/><path class="cls-2" d="M257.27,115.41c-.08.08-.29.4-.34.42s-.14-.2-.1-.24S257.2,115.52,257.27,115.41Z" transform="translate(0 -1)"/><path class="cls-2" d="M253,102.92s.29.22.28.19-.34,0-.41-.06S252.94,102.88,253,102.92Z" transform="translate(0 -1)"/><path class="cls-2" d="M253,102.91c-.1,0-.12.08-.14.17-1-.26-1.68-.41-2.83-.63a9.12,9.12,0,0,0-1.82-.17,10.48,10.48,0,0,0-2.79.64c-.41.17-.89.34-1.2.46s-.23.1-.51.19a3,3,0,0,1-.74.16,3.13,3.13,0,0,1-1.69-.21,3.66,3.66,0,0,1-1-.72,11,11,0,0,1-.62-1,2.28,2.28,0,0,1,0-1.84,2.19,2.19,0,0,1,1.17-.82,2.51,2.51,0,0,1,1.8.26c.11,0-.32.19-.28.24.19.18.76.22,1,.28h0c.18.06.54.71.61.85a3.54,3.54,0,0,0-2.77-.76,1.29,1.29,0,0,0-.85.57,1.34,1.34,0,0,0,0,1.11,2.7,2.7,0,0,0,1,1.1,3.26,3.26,0,0,0,1.26.18,1.84,1.84,0,0,0,.63-.13c.24-.08.21-.08.5-.19s.73-.26,1.11-.43a13.46,13.46,0,0,1,3.06-.74,10.41,10.41,0,0,1,2,.1A6.73,6.73,0,0,1,253,102.91Z" transform="translate(0 -1)"/><path class="cls-2" d="M251.21,95.69c.07.14.12.48,0,.54s-.09.12-.16.15-1-.07-1-.24,0,0,.1-.07a2.33,2.33,0,0,0,.43-.48C250.76,95.39,251.13,95.55,251.21,95.69Z" transform="translate(0 -1)"/><path class="cls-2" d="M250.22,98.34a2.81,2.81,0,0,1,1.1.37c-.49.34-.35.48-1.13.6s-2.18.23-3.16.34-2.21.31-3.19.34c-.18,0-.22.05-.33,0h0c-.11,0-.63-.54-.81-.55a1.43,1.43,0,0,1,.94-.35c.73-.12,2.19-.24,3.15-.36s2.23-.27,3.18-.34C250.14,98.38,249.93,98.28,250.22,98.34Z" transform="translate(0 -1)"/><path class="cls-2" d="M251.18,96.37a1.47,1.47,0,0,0-.4.58,6.36,6.36,0,0,1-.29.84.4.4,0,0,1-.43.25.6.6,0,0,1-.43-.46,2.72,2.72,0,0,1,.14-.7,1.41,1.41,0,0,1,.22-.52c.07-.11.1-.26.16-.38A3.48,3.48,0,0,0,251.18,96.37Z" transform="translate(0 -1)"/><path class="cls-2" d="M248.63,89.13a6.69,6.69,0,0,1-1.6,2.54c-.16.16-.61.53-1,.87a11.86,11.86,0,0,1-1.22.93c-1.07.7-2.43,1.71-3.53,2.32-.78.43-1.77.88-2.36,1.19a9.75,9.75,0,0,1-1.07.45,8.3,8.3,0,0,1-1,.3,12.87,12.87,0,0,1-2.24.55c-.82.11-2,.33-2.92.48a5.9,5.9,0,0,0-2.44.94c-.21.16-.3.27-.49.41a4.11,4.11,0,0,0-.63.77,4.82,4.82,0,0,0-.64,1.37,4,4,0,0,0-.16,1.42c-.44-1.27-.7-2,.06-3.39a4.08,4.08,0,0,1,1.37-1.41,14.49,14.49,0,0,1,5.41-1.49,9.61,9.61,0,0,0,2.25-.55,6.61,6.61,0,0,1,.93-.26c.51-.14.47-.21,1.09-.43A15.66,15.66,0,0,0,240.72,95a42.83,42.83,0,0,0,4.61-3.19,9.25,9.25,0,0,0,.89-.84A29.56,29.56,0,0,1,248.63,89.13Z" transform="translate(0 -1)"/><path class="cls-2" d="M243.36,100a1.86,1.86,0,0,1-1-.28c-.07-.06.17-.26.32-.21A2,2,0,0,1,243.36,100Z" transform="translate(0 -1)"/><path class="cls-2" d="M237.05,67.18a29.19,29.19,0,0,0-2.62,1.54,15.75,15.75,0,0,0-1.38,1.08,7.2,7.2,0,0,0-1.11,1.65,7.37,7.37,0,0,0-.4,1.23,9,9,0,0,0-.24,1.52,10.59,10.59,0,0,0,.13,2.4,12.12,12.12,0,0,0,.38,1.38,12.88,12.88,0,0,0,.74,1.62,4.83,4.83,0,0,0,1.17,1.34A4.74,4.74,0,0,1,230.91,78a8.3,8.3,0,0,1-.41-1.47,14.8,14.8,0,0,1-.14-2.61,8.76,8.76,0,0,1,.26-1.66c.15-.52.31-.76.49-1.28a7.76,7.76,0,0,1,1.24-1.82,16.19,16.19,0,0,1,1.43-1.2A4.14,4.14,0,0,1,237.05,67.18Z" transform="translate(0 -1)"/><path class="cls-2" d="M226.59,79.93a5.49,5.49,0,0,1,3.4.1,21.46,21.46,0,0,0-2.93.78c-.17,0-.48.19-.65.25l-.46.19-.11,0-.2.08a1.43,1.43,0,0,0-.39.16c-.21.13-.32.25-.67.51a7.57,7.57,0,0,0-1.17,1.17,30.79,30.79,0,0,0-3.94,6.49A25.13,25.13,0,0,1,217.6,93a7.49,7.49,0,0,1-1.21.21c-.09,0-.23.09-.2,0s.32-.39.45-.57a26.68,26.68,0,0,0,2-3.43,27.34,27.34,0,0,1,4.05-6.66c.44-.49.86-.81,1.29-1.24a6.52,6.52,0,0,1,.72-.53,2.78,2.78,0,0,1,.34-.25.79.79,0,0,1,.19-.09.4.4,0,0,1,.12,0,2.21,2.21,0,0,1,.47-.18C226,80.11,226.4,80,226.59,79.93Z" transform="translate(0 -1)"/><path class="cls-4" d="M221,92.23a5.31,5.31,0,0,1-2.57,1.62c-.3.08-1.34.26-1.73.36.18-.22.58-.64.74-.82s.16-.27.29-.37.39-.08.48-.11A19.56,19.56,0,0,1,221,92.23Z" transform="translate(0 -1)"/><path class="cls-4" d="M217.55,93c.11,0-.13.19-.24.35s-.44.67-.79.79a8.46,8.46,0,0,1-1.46.12,12.87,12.87,0,0,0,1-1.07c.06-.06.14,0,.22,0A7.93,7.93,0,0,0,217.55,93Z" transform="translate(0 -1)"/><path class="cls-4" d="M216.17,93.24a8.87,8.87,0,0,1-1,1.07,30.59,30.59,0,0,1-8-1.28c-3.14-.91-6-2-9.1-2.86a6.33,6.33,0,0,0,.76-.12,7.3,7.3,0,0,0-3.31-.74s.16,0-.07,0h0c-1.31-.43.94.3-1.43-.5s-8.18-2.68-12-4.21c-1.92-.78-6.71-2.64-9.07-3.73L171.08,80l-.54-.25c-.19-.08-.53-.26-.7-.35A20.2,20.2,0,0,1,167,77.43a14.81,14.81,0,0,1,3,1.1c.19.08.37.21.73.36.74.3,1.48.76,2.37,1.18,2.51,1.17,6.73,2.89,9,3.78,4.6,1.77,8,2.86,12.41,4.27s8,2.7,12.64,4A32,32,0,0,0,216.17,93.24Z" transform="translate(0 -1)"/><path class="cls-4" d="M198.81,90c-.21,0-.55.15-.73.1-.93-.25-1.79-.57-2.67-.89l.14,0A30.18,30.18,0,0,1,198.81,90Z" transform="translate(0 -1)"/><path class="cls-4" d="M198.22,90.12a11.81,11.81,0,0,1-2.54,0c-.44,0-1.06-.11-2-.22-2-.23-5.49-.69-7.54-1.12s-2.58-.52-4.65-1.06-4.46-1.31-6.89-2.21c-1.19-.44-3.64-1.37-5-2l-1-.49c-.24-.12-.36-.15-.54-.25l-.69-.36a12.23,12.23,0,0,1-2.8-2l.13,0a19.14,19.14,0,0,1,2.93,1.15,6.52,6.52,0,0,0,.7.35,3.18,3.18,0,0,1,.55.25l1.05.49c1.33.61,3.68,1.57,4.87,2,2.37.87,4.75,1.58,6.78,2.17a43.15,43.15,0,0,0,4.53,1c2.06.44,5.3.86,7.51,1.17.91.13,1.09,0,1.92.19h0C196.31,89.44,197.34,89.91,198.22,90.12Z" transform="translate(0 -1)"/><path class="cls-2" d="M165.77,79.65c-.5-.07-.66-.07-1.23-.15a11.6,11.6,0,0,1-2.1-.51,7.71,7.71,0,0,0-.79-.19c-.74-.15-1.51-.37-2.3-.55a65.43,65.43,0,0,0-8.45-1.15c-2.32-.15-4.91-.21-6.53-.18s-1.6,0-2.69,0-1.37,0-2.49.07c-.57,0-1.71.16-2.43.21-.37,0-.86.06-1.26.12s-.81,0-1.23.1a8.8,8.8,0,0,1-1.26,0c-.43,0-.9,0-1.33,0a7.71,7.71,0,0,0-1.26-.09c-.23,0-.48.3-.62,0,0,0,0,0,0-.08a1,1,0,0,0,.17-.49,2.57,2.57,0,0,1-.52.27s0,.16-.07.2,0,.15-.06.14,0,0-.07,0a4.48,4.48,0,0,1-1-.07,16.29,16.29,0,0,1-1.82-.67,6,6,0,0,1,1.8,0c.19,0,.53,0,1,0,1.49,0,3.31.14,4.89.09l1.22-.09c.39,0,.91-.16,1.26-.16.72,0,1.83-.13,2.39-.16,1.11-.06,1.34-.15,2.43-.19s1.1,0,2.72,0,4.23.06,6.56.24a85.14,85.14,0,0,1,8.55,1.16c.84.16,1.74.39,2.45.58l.8.18A11.62,11.62,0,0,1,165.77,79.65Z" transform="translate(0 -1)"/><path class="cls-2" d="M161,68.36a15.84,15.84,0,0,1,3.23,1.79,21.66,21.66,0,0,1-3.52-1c-.6-.23-2-.73-2.92-1.13-1.56-.7-5.28-2.08-6.58-2.52-2.61-.86-6.48-1.72-8.06-2.07a9.69,9.69,0,0,0-.95-.2A6.57,6.57,0,0,0,140.5,63c-1.53,0-3.23.11-4.83.24-.8.06-1.92.27-2.67.4a5.72,5.72,0,0,0-2,.62,6.45,6.45,0,0,1-1.07.55c-.3.16-.28.25-.51.22s-.4-.36-.63-.45c.32-.2.37-.31.72-.54s.57-.28,1.11-.56a7.39,7.39,0,0,1,2.16-.73c.79-.11,1.89-.28,2.72-.35a44.81,44.81,0,0,1,4.87-.17,11.56,11.56,0,0,1,1.62.22,4.85,4.85,0,0,1,.81.16c1,.2,2.74.59,4.33,1,.71.18,2.72.66,3.88,1,1.88.6,4.92,1.82,6.65,2.52C158.84,67.59,160.28,68.09,161,68.36Z" transform="translate(0 -1)"/><path class="cls-2" d="M144.4,40.4c-.11.13-.46.41-.54.5s-.07.07-.09.07c-.43.09-1.09-.48-1.34-.59-1.45-.59-2.62-1.18-4-1.78s-2-.82-3.65-1.45a30.32,30.32,0,0,0-4-1.09c-.64-.12-1.67-.29-2.41-.41s-1.6-.22-2.4-.3a25.56,25.56,0,0,0-9.63.91c-.91.27-1.69.47-2.09.62a14.15,14.15,0,0,1-3.17.85A10.64,10.64,0,0,1,114,36.2a5.16,5.16,0,0,1,2-.59s.1,0,.14,0,.09,0,.16.07.23.13.32.13c.38,0,.77-.06,1.14,0-.08-.15-.47-.31-.56-.35s-.11,0-.1,0c.25-.49.87-.31,1.35-.41.84-.16,1.74-.35,2.6-.45a18.2,18.2,0,0,1,2.65-.09c.83,0,1.55.07,2.34.16s1.67.2,2.43.33,1.84.37,2.49.46a25.81,25.81,0,0,1,4,1c1.64.63,2.33.88,3.69,1.48s2.53,1.13,4,1.8C143,39.81,143.94,40.25,144.4,40.4Z" transform="translate(0 -1)"/><path class="cls-4" d="M148.08,63.56c-.47-.12-.49,0-1-.18a6.69,6.69,0,0,1-1.89-.69,8.35,8.35,0,0,1-1.63-1.17,11.5,11.5,0,0,1-1.63-2.37,7.85,7.85,0,0,1-.58-1.71,6.85,6.85,0,0,1-.1-1.92c0-.1,0-.24.05-.34.09-.61.51-1.7.61-2.18a7,7,0,0,1,.38-1.12,11,11,0,0,1,1.26-2.65,21,21,0,0,1-.5,3.12c-.05.21-.21.7-.33,1.2s-.59,1.76-.69,2.36a4.77,4.77,0,0,0,0,1.6,6.21,6.21,0,0,0,.47,1.42,7.08,7.08,0,0,0,1.45,2,10,10,0,0,0,1.44,1C146.46,62.54,147.12,62.9,148.08,63.56Z" transform="translate(0 -1)"/><path class="cls-2" d="M140,53.41a1.67,1.67,0,0,1,.15.86c0,.06-.15-.08-.39-.16-.62-.2-.86-.35-1.75-.62-1.79-.55-4-1.24-6-2-1-.35-2.4-.9-3.37-1.37a24.37,24.37,0,0,0-3.23-1,14.44,14.44,0,0,0-1.75-.49c-.59-.13-.73-.29-1.26-.41.26-.09.29-.49.57-.52s.3.09.76.12,1,.29,1.71.42a17.32,17.32,0,0,1,3.28,1c1,.44,2.35,1,3.28,1.4A57.51,57.51,0,0,0,138,52.59a8.61,8.61,0,0,1,1.8.59C140,53.3,140,53.34,140,53.41Z" transform="translate(0 -1)"/><path class="cls-2" d="M123.6,45c.21-.22.66-.34.93-.55a5.12,5.12,0,0,1-.35,1.28A9.75,9.75,0,0,1,123,47.71c-.26-.08-.52-.11-.79-.18a8.24,8.24,0,0,0,1.26-2C123.51,45.41,123.49,45.14,123.6,45Z" transform="translate(0 -1)"/><path class="cls-2" d="M117.81,35.63a5.27,5.27,0,0,1-1.1,0,.8.8,0,0,1-.34-.14c-.07,0-.22,0-.15-.07a1.91,1.91,0,0,1,.93-.24s0,0,.09.05A4.3,4.3,0,0,0,117.81,35.63Z" transform="translate(0 -1)"/><path class="cls-2" d="M117,35.29c-.42,0-.53.26-1,.21a13.4,13.4,0,0,0-2.68-.14,37.78,37.78,0,0,0-3.77.35c-2.44.39-5.52,1.83-7.73,2.65A68.17,68.17,0,0,0,95,41.5a59.56,59.56,0,0,0-6.56,4.1c-2.61,1.75-2.89,2.35-6.2,4.9A107,107,0,0,0,69.86,62.25c-1.75,2-4.44,4.69-6.25,6.88-.45.53-1,1.15-1.51,1.68s-1,1-1.44,1.54l-1.43,1.52c-.44.47-.85.94-1.25,1.37L56.75,76.6a6.9,6.9,0,0,1-.78.69c.25-.29.11-.42.42-.73s.77-.81,1.15-1.23.83-.88,1.24-1.37.93-1,1.34-1.51,1-1,1.43-1.55,1.07-1.15,1.52-1.66c1.87-2.14,4.58-4.88,6.35-6.86A115.88,115.88,0,0,1,81.9,50.49c3.33-2.59,3.58-3.18,6.22-4.92a60.31,60.31,0,0,1,6.66-4.1,75.29,75.29,0,0,1,7-3.22c2.27-.86,5.38-2.31,7.94-2.67,1.32-.18,2.92-.33,4.15-.43A8.84,8.84,0,0,1,117,35.29Z" transform="translate(0 -1)"/><path class="cls-2" d="M123,47.72c-.19.12-.34.47-.54.53S122,48,121.8,48c.19-.07.2-.28.38-.36S122.76,47.75,123,47.72Z" transform="translate(0 -1)"/><path class="cls-2" d="M122.16,47.62c-.13.08-.15.35-.38.34s-.62-.37-.88-.46A6.64,6.64,0,0,1,122.16,47.62Z" transform="translate(0 -1)"/><path class="cls-2" d="M122.43,48.3s-.05,0-.13.11a11.75,11.75,0,0,1-3,1.79c-2,.89-4.54,2.39-6.35,3.27s-4.27,1.82-5.48,2.61c-2.43,1.57-3.14,2.07-5.46,3.49a57.34,57.34,0,0,0-5.63,3.87c-3,2.22-8.84,6-12.89,8.78-2,1.36-5.51,3.48-7.9,4.81-.56.31-1.38.75-2,1.1a8.13,8.13,0,0,1-1.88,1s-.12,0-.1.11,0-.14,0-.1a3.47,3.47,0,0,1-.36.21c-.49.22-.94.46-1.45.69s-1.29.6-1.78.81-1.49.68-1.75.77a12.85,12.85,0,0,1-3.13.73c1.08-.57,1.88-1,3.09-1.48L68,80c.53-.22,1.14-.51,1.72-.79s1.29-.59,1.88-.94,1.27-.61,1.88-1,1.34-.74,2-1.1c2.34-1.3,5.79-3.46,7.81-4.79,4-2.66,9.83-6.48,12.85-8.7a54.19,54.19,0,0,1,5.63-3.86c2.31-1.41,3-1.91,5.45-3.4,1.25-.75,3.68-1.74,5.51-2.57s4.32-2.21,6.28-3.16a15.42,15.42,0,0,0,2.74-1.67h0C122,47.91,122.27,48.28,122.43,48.3Z" transform="translate(0 -1)"/><path class="cls-2" d="M130.84,66.62a4.84,4.84,0,0,1,.4,1.11c-.15-.17-.45-.35-.57-.49s-.11-.31-.17-.42A4.33,4.33,0,0,0,129,65.16c.16,0,.39-.24.54-.14A4.88,4.88,0,0,1,130.84,66.62Z" transform="translate(0 -1)"/><path class="cls-2" d="M128.94,64.61c.12,0,.46.34.58.45a1.16,1.16,0,0,1-.52.16c-.12,0-.41-.23-.41-.3A.58.58,0,0,1,128.94,64.61Z" transform="translate(0 -1)"/><path class="cls-2" d="M128.76,64.54c.05,0,.12.08.11.11s-.29.28-.34.33h0a14.89,14.89,0,0,0-2.67-1.16,8.41,8.41,0,0,0-5,0c-1.53.46-3.34.84-4.4,1.23a11.53,11.53,0,0,0-4.3,2.5c-1.58,1.31-1.84,1.09-3.75,3.22s-5.3,6.36-6.82,9.89c-.76,1.76-2.42,4.74-3.13,6.82-.19.55-.46,1.25-.64,1.82s-.43,1.16-.62,1.71-.39,1.17-.56,1.7-.35,1.13-.5,1.59-.35,1.33-.43,1.61a13,13,0,0,1-1.18,2.7,14.1,14.1,0,0,1,.55-2.75c.09-.31.36-1.16.5-1.64s.33-1.07.49-1.59a9.29,9.29,0,0,0,.57-1.61s0,0,.06-.12c.27-.52.41-1.23.64-1.79s.51-1.26.7-1.82c.75-2.14,2.47-5.13,3.24-7,1.52-3.56,5-7.85,7-10s2.14-1.89,3.76-3.2a12.76,12.76,0,0,1,4.46-2.51c1-.4,2.84-.87,4.4-1.28a10.46,10.46,0,0,1,5.19,0A7.75,7.75,0,0,1,128.76,64.54Z" transform="translate(0 -1)"/><path class="cls-2" d="M128.55,65c.14,0,.29.24.44.28a4,4,0,0,1-.89.23C128.25,65.36,128.4,65,128.55,65Z" transform="translate(0 -1)"/><path class="cls-2" d="M129.93,76.84c-.05.13-.13.38-.17.49s0,0,0,.09-.35,0-.39,0,0-.1,0-.14,0-.2.08-.21A1.06,1.06,0,0,0,129.93,76.84Z" transform="translate(0 -1)"/><path class="cls-2" d="M129.31,77.4c.16-.12.27,0,.42,0a3.51,3.51,0,0,1-1.18,1,10,10,0,0,1-1.9.7,19.42,19.42,0,0,0-3.72,1.57,26.38,26.38,0,0,0-2.75,1.79,28.68,28.68,0,0,0-2.81,2.23c-1.17,1.06-1.13,1.2-2.7,2.84s-3.82,5.36-5.74,7.78c-1,1.2-3,3.47-4.14,4.84-.31.35-.76.83-1.11,1.16a12.44,12.44,0,0,0-1,1.15,11.47,11.47,0,0,1-1,1c-.35.31-.67.67-1,.94s-.94.83-1.15,1a22.3,22.3,0,0,1-1.88,1.43,16.78,16.78,0,0,1,2-1.81l.25-.23c.18-.17.64-.54.92-.82s.66-.62,1-1,.71-.69,1-1,.72-.76,1-1.14.82-.85,1.12-1.18c1.22-1.31,3.13-3.53,4.08-4.72,1.91-2.4,4.13-6.12,5.71-7.75s1.54-1.78,2.71-2.82a28.47,28.47,0,0,1,2.79-2.24,21.91,21.91,0,0,1,2.74-1.73,24.86,24.86,0,0,1,3.69-1.54,13.65,13.65,0,0,0,1.74-.62C128.78,78.09,129,77.66,129.31,77.4Z" transform="translate(0 -1)"/><path class="cls-4" d="M71.67,79h0s-.34.2-.34.21Z" transform="translate(0 -1)"/><path class="cls-4" d="M71.32,79.09A.55.55,0,0,1,71.6,79a41,41,0,0,1-3.32,4.11c-.19.2-.78.86-1.45,1.54-.87.91-2.95,3.19-3.85,4.3s-1.55,2-2.35,3-1.19,1.45-2,2.44-2.21,3.13-2.83,4a17.76,17.76,0,0,0-1.31,2.33,19.36,19.36,0,0,1-1.47,2.48,12.1,12.1,0,0,1-1,1.3,9.47,9.47,0,0,1,1.11-4.18c.25-.46.81-1.41,1.41-2.34s2.09-3.16,2.87-4.19a27.88,27.88,0,0,1,2.11-2.56c.85-.92,1.57-1.9,2.46-3s3.12-3.6,3.92-4.41,1.28-1.35,1.57-1.68A16.79,16.79,0,0,1,71.32,79.09Z" transform="translate(0 -1)"/><path class="cls-4" d="M91,92.94C92.38,91.78,93.35,91,94.75,90A12.69,12.69,0,0,1,91.94,94c-.24.23-.74.68-1.56,1.35a29.66,29.66,0,0,1-4.55,2.79,17.09,17.09,0,0,1-2.29,1,7.09,7.09,0,0,0-1.15.43c-.79.31-1.88.63-3.11,1a54.91,54.91,0,0,1-5.66,1.2c-1.21.16-2.93.33-3.46.37a22,22,0,0,1-5.92-.28c.68-.11,1.13-.23,1.8-.35,1.42-.26,2.18-.28,3.9-.56.57-.1,2.14-.23,3.33-.38s4.25-.82,5.46-1.13,2.23-.73,3-1,.46-.2,1.12-.45a23,23,0,0,0,2.29-1.06,33.57,33.57,0,0,0,4.52-2.73C90.38,93.61,90.67,93.19,91,92.94Z" transform="translate(0 -1)"/><path class="cls-4" d="M56.92,75.09c-.16.33-.34,1.11-.45,1.34s-.15.15-.23.23c-.73.65-1.4,1.26-2.07,1.94.62-.43,1.22-.83,1.82-1.33a10.09,10.09,0,0,1-1.76,2.21c-.31.31-.77.78-1.58,1.51a22.24,22.24,0,0,1-4.3,3.09c-.67.29-1.58.75-2.17,1s-.27.15-1,.48-1.76.67-2.87,1-3.87,1.12-5,1.35-2.65.45-3.17.5a19.13,19.13,0,0,1-5.7-.25c1.89-.45,3.12-.63,5.23-1,.53-.09,2-.3,3.07-.5s3.68-.94,4.76-1.3,2.08-.74,2.78-1.06.4-.2,1-.48a21.73,21.73,0,0,0,2.16-1.08,39.68,39.68,0,0,0,4.06-3.07c.74-.69,1.28-1.19,1.55-1.42C54.57,77.06,55.58,76.25,56.92,75.09Z" transform="translate(0 -1)"/><path class="cls-4" d="M56.24,76.67s.22-.21.19-.15-.18.53-.35.66c-.57.46-1.21.89-1.8,1.33A14.23,14.23,0,0,1,56.24,76.67Z" transform="translate(0 -1)"/><path class="cls-4" d="M99.63,104.71h0a23.75,23.75,0,0,1-3.75,2.71c-.24.14-.92.52-1.64,1s-2.79,1.57-3.8,2.18a12.22,12.22,0,0,0-1.66,1.09,5.51,5.51,0,0,1-.82.56c-.54.37-1.28.93-2.06,1.46a32.78,32.78,0,0,0-3,2.66,20.7,20.7,0,0,0-1.73,2,29.05,29.05,0,0,1-3,3.53,8.25,8.25,0,0,1,1.42-4.07,19.33,19.33,0,0,1,1.72-2c.66-.65,2.3-2.24,3.06-2.86a25.09,25.09,0,0,1,2.07-1.58,4.42,4.42,0,0,0,.83-.56,11.57,11.57,0,0,1,1.81-1.13A36.68,36.68,0,0,0,93,107.42a11.84,11.84,0,0,1,1.74-1A16.26,16.26,0,0,1,99.63,104.71Z" transform="translate(0 -1)"/><path class="cls-4" d="M76.42,104.82c0-.07.2-.49,0-.65a1.2,1.2,0,0,1,.36.76C76.81,105,76.41,104.9,76.42,104.82Z" transform="translate(0 -1)"/><path class="cls-4" d="M76.84,105c.43.11.83.28,1.25.39-.38,0-.86,0-1.21-.06C76.77,105.27,76.91,105,76.84,105Z" transform="translate(0 -1)"/><path class="cls-4" d="M76.39,104.88a.69.69,0,0,1,.43.1.24.24,0,0,1-.09.32c-.12,0-.68.1-.74,0s0-.05.1-.1S76.3,104.9,76.39,104.88Z" transform="translate(0 -1)"/><path class="cls-4" d="M76.4,104.86a3.93,3.93,0,0,1-.32.41c-.07.07,0,.08-.11.09a6,6,0,0,1-1.85-.11c-.44,0-1.51,0-2.27,0-.34,0-1.56.06-2,.11l-1.21.14q-.63.08-1.29.21c-.43.09-1.55.42-1.83.51-.49.16-1.1.39-1.29.47-1.2.49-2.07.79-3.2,1.18.13-.1.11-.14.23-.25A7,7,0,0,1,63.7,106l1.39-.55A15.65,15.65,0,0,1,67,105c.47-.08,1-.16,1.39-.21l1.2-.14c.49-.06,1.71-.1,2.13-.11.77,0,1.88,0,2.35,0A8.21,8.21,0,0,1,76.4,104.86Z" transform="translate(0 -1)"/><path class="cls-4" d="M76,105.33c.35-.23.47.11.81,0a2.32,2.32,0,0,1-1.27,1.34,15.26,15.26,0,0,1-1.84.87c-2.11.91-4.71,2-7.05,3s-5.41,2.28-7.59,3.19l-1.31.54a10.38,10.38,0,0,1-2.31.74c-.11,0,.18-.2.08-.23a3.52,3.52,0,0,0-.41-.1,8.34,8.34,0,0,1,2.07-1c.19-.07.53-.59.93-.34,0,0,0,.06,0,.08.47.29.95-.09,1.4-.36a3.68,3.68,0,0,0,.52-.47c2.1-.83,4-1.67,6.11-2.57s5-2.15,7-3a12.5,12.5,0,0,0,1.73-.88A9,9,0,0,0,76,105.33Z" transform="translate(0 -1)"/><path class="cls-4" d="M51.08,93.57a2.89,2.89,0,0,1,.2.94c0,.1-.43,0-.43-.06A2.26,2.26,0,0,1,51.08,93.57Z" transform="translate(0 -1)"/><path class="cls-4" d="M51.22,94.45a2,2,0,0,1,1,.43,6.35,6.35,0,0,0-.95-.07C51.2,94.79,51.32,94.5,51.22,94.45Z" transform="translate(0 -1)"/><path class="cls-4" d="M51.2,94.46s.09.31,0,.36a3.09,3.09,0,0,1-.48.11c-.07,0-.18.12-.19,0a2,2,0,0,1,.19-.59A.82.82,0,0,1,51.2,94.46Z" transform="translate(0 -1)"/><path class="cls-1" d="M74.29,105.24c.7,0,1.13.09,1.8.13-.49.3-.57.52-1.12.85a16.57,16.57,0,0,1-1.77.91c-2.06,1-4.84,2.08-7,3s-4,1.75-6.12,2.57a6.6,6.6,0,0,0,.64-.8,4.42,4.42,0,0,0,.45-1.17,3.24,3.24,0,0,0-.07-1.2c-.06-.43-.5-1-.56-1.35s.52-.44.59-.56.3.09.31.16-.18.16-.21.24c1.12-.37,2-.71,3.18-1.18.22-.08.8-.3,1.3-.47.29-.1,1.39-.41,1.84-.51s.85-.16,1.29-.22.71-.06,1.22-.14,1.53-.07,2-.12A12.9,12.9,0,0,1,74.29,105.24Z" transform="translate(0 -1)"/><path class="cls-4" d="M50.64,94.45s.08-.06.09,0,0,.47-.23.61-.75.22-1.23.51-.88.48-1.53.93c-1.9,1.3-4.38,3-6.29,4.35s-3.48,2.56-5.26,3.79a3.74,3.74,0,0,1-.82.25c-.51.27-1.1.36-.94,1,0,0,.09,0,.09,0l-.94.69c-.7.48-1.2.74-1.86,1.13a2.88,2.88,0,0,0,0-.39c0-.09-.34.12-.27,0A7.9,7.9,0,0,1,33.06,106c.24-.18.5-.31,1.11-.72,2-1.38,4.66-3.31,6.78-4.79s4.39-3,6.35-4.4c.68-.48,1.3-.71,1.7-1C49.73,94.54,49.84,94.41,50.64,94.45Z" transform="translate(0 -1)"/><path class="cls-4" d="M50.77,95c.11-.09.35,0,.49-.13a8,8,0,0,1-.12,1.53A9.64,9.64,0,0,1,50.6,98a14.39,14.39,0,0,1-.81,1.62c-.24.38-.38.55-.62.9a10.13,10.13,0,0,1-.83,1,12,12,0,0,1-1.41,1.36c-.36.25-.82.67-1,.79A9,9,0,0,1,43,105.09c.8-.7,1.46-1.19,2.33-1.93.15-.13.66-.53,1-.81s1-1,1.32-1.36a6.59,6.59,0,0,0,.73-1c.22-.33.4-.53.62-.89a16.53,16.53,0,0,0,.81-1.54,9.71,9.71,0,0,0,.52-1.55A10.82,10.82,0,0,1,50.57,95C50.63,94.82,50.65,95,50.77,95Z" transform="translate(0 -1)"/><path class="cls-4" d="M60.06,101.12a16.77,16.77,0,0,1,5.78.33c-1.88.25-3.43.4-5.39.73a9.1,9.1,0,0,0-1.88.61,12.82,12.82,0,0,0-1.65,1c-.31.27-.62.48-.88.74s-.45.47-.69.76a2.29,2.29,0,0,0-.47,1.23c.06.81,1.18,1,1.59,1.14a6.23,6.23,0,0,0,2.44.16c0,.17.13.37.19.51a.53.53,0,0,0,.22.27,6.83,6.83,0,0,1-3.31.17,6.53,6.53,0,0,1-1.37-.43,2.28,2.28,0,0,1-.88-.64c-.16-.26-.29-.32-.38-.56a1.17,1.17,0,0,1-.16-.6,2.86,2.86,0,0,1,.05-.62,4.43,4.43,0,0,1,.61-1.18,4.17,4.17,0,0,1,.79-.84c.31-.26.63-.61,1-.89a18.23,18.23,0,0,1,1.84-1A11.21,11.21,0,0,1,60.06,101.12Z" transform="translate(0 -1)"/><path class="cls-1" d="M49.29,95.51A11.61,11.61,0,0,1,50.56,95c-.09.45-.18.64-.27,1.14a8.81,8.81,0,0,1-.52,1.55,11.43,11.43,0,0,1-.8,1.55,8.77,8.77,0,0,1-.63.89,9.33,9.33,0,0,1-.73,1c-.33.35-1,1.07-1.32,1.37a11.87,11.87,0,0,1-1,.82c-.9.69-1.56,1.2-2.34,1.91,0,.08.24.2.14.31a.54.54,0,0,1-.61.15,17.06,17.06,0,0,0-1.76-.9,8.75,8.75,0,0,0-1.66-.41,5.56,5.56,0,0,0-1.71.1c-.27,0-.85.15-1.19.19,1.84-1.28,3.36-2.48,5.27-3.82s4.38-3,6.3-4.36A17.52,17.52,0,0,1,49.29,95.51Z" transform="translate(0 -1)"/><path class="cls-4" d="M42.3,90.73l-.85.14c-.87.16-1.47.22-2.54.33-.32,0-1.31.18-1.93.32-.34.07-1.47.27-1.91.41s-.73.19-1.16.29a13.48,13.48,0,0,0-1.28.47,8.11,8.11,0,0,1-1.76.71c-.3,0-.31-.55-.55-.65.57-.28,1.37-.63,1.89-.83s.84-.33,1.29-.47.71-.15,1.17-.31a18.78,18.78,0,0,1,2-.39c.64-.11,1.72-.27,2-.29A12.43,12.43,0,0,1,42.3,90.73Z" transform="translate(0 -1)"/><path class="cls-4" d="M43.5,92.48c.11-.12.12-.15.24-.27A6.89,6.89,0,0,1,42.54,95a11.72,11.72,0,0,1-.86,1,23.27,23.27,0,0,1-5.26,4.19,22.79,22.79,0,0,1-2.82,1.35c-.74.25-.79.29-1.34.49a6.65,6.65,0,0,1-1.22.32c-.71.17-1.89.41-2.84.56a22.77,22.77,0,0,0-3.35.65,2.18,2.18,0,0,0-1.46,1.89,1.83,1.83,0,0,0,.71,1.37,3.58,3.58,0,0,0,1.49.72,3.7,3.7,0,0,0,1.51.11,2.14,2.14,0,0,1-.84.42c-.23,0-.09,0-.34,0a2.56,2.56,0,0,0-1,0c-.07,0,.19.24.05.19a2.83,2.83,0,0,1-1.48-.73,2.58,2.58,0,0,1,.79-4.54,19.92,19.92,0,0,1,3.59-.82c1.08-.16,1.83-.3,2.8-.48a.67.67,0,0,0,.2-.06c.33-.22.51-.16.86-.28.51-.18.63-.25,1.32-.48a21.66,21.66,0,0,0,2.72-1.28,23.8,23.8,0,0,0,5-4,7,7,0,0,0,.76-1C42.36,93.64,42.82,93.2,43.5,92.48Z" transform="translate(0 -1)"/><path class="cls-4" d="M77.82,110.59c-.64.15-1,.25-1.71.37s-1.08.25-2,.36c-.25,0-.82.16-1.59.3A33.83,33.83,0,0,0,66.27,114a15.54,15.54,0,0,0-3.21,2.16,3.88,3.88,0,0,1-.53.48c-.27.22-.21.13-.35.26a10.18,10.18,0,0,0-1.46,1.65,10.32,10.32,0,0,1-2.12,2.24,5,5,0,0,1-3.59.47,4.44,4.44,0,0,1-2.2-1.25,1.6,1.6,0,0,1-.46-1.18c0-.13.12.17.22.07a1.58,1.58,0,0,0,.31-.62c0-.17-.08-.14,0-.28s.53-.32.71-.43a1.74,1.74,0,0,0-.42,1.07,1.51,1.51,0,0,0,.44,1.1,2.84,2.84,0,0,0,1.56.93,3.76,3.76,0,0,0,2.65-.33,10.29,10.29,0,0,0,1.88-2c.55-.63,1-1.18,1.52-1.69a11.53,11.53,0,0,1,.9-.75,22,22,0,0,1,3.34-2.32,30.18,30.18,0,0,1,6.56-2.42l1.6-.31A14.47,14.47,0,0,1,77.82,110.59Z" transform="translate(0 -1)"/><path class="cls-4" d="M79,112.22a.6.6,0,0,1,.23-.17,4.18,4.18,0,0,1-.69,2.6A7.29,7.29,0,0,1,77.49,116c-.2.18-.77.83-1,1a3.84,3.84,0,0,0-.68.59,7.09,7.09,0,0,1-.89.66c-.32.23-1.12.79-1.37.92s-.2.18-.27.17-.69-.3-.67-.5,0,0,.24-.21,1-.71,1.36-.94.61-.46.89-.66a7.44,7.44,0,0,0,.67-.59,12.29,12.29,0,0,0,1-1,10.83,10.83,0,0,0,1-1.33A15.39,15.39,0,0,1,79,112.22Z" transform="translate(0 -1)"/><path class="cls-4" d="M61.26,106.89a6.82,6.82,0,0,1-.34.66,1.77,1.77,0,0,1-.63.54c-.07,0,0-.09-.12-.16a2.47,2.47,0,0,0-.41-.34A4.9,4.9,0,0,0,61.26,106.89Z" transform="translate(0 -1)"/><path class="cls-4" d="M28.47,88.66a16.92,16.92,0,0,1,1.84.85c-.58-.09-1-.11-1.62-.21a14.3,14.3,0,0,0-1.77-.14,13.93,13.93,0,0,0-1.44-.07,7.14,7.14,0,0,0-2.84.9,4.17,4.17,0,0,0-1.29,1.29A2.42,2.42,0,0,0,21,92.69,3.76,3.76,0,0,0,22.11,95a3.3,3.3,0,0,0,1.62.65,4.4,4.4,0,0,0,2.92-.74,1.36,1.36,0,0,1-.28.47,2.66,2.66,0,0,1-2.67,1.08,5.28,5.28,0,0,1-2.28-.88A4.11,4.11,0,0,1,20,92.62a3.48,3.48,0,0,1,.52-1.8A4.67,4.67,0,0,1,22,89.37a8.29,8.29,0,0,1,3.15-1c.68,0,1.29,0,1.55,0A4.33,4.33,0,0,1,28.47,88.66Z" transform="translate(0 -1)"/><path class="cls-4" d="M58.94,107.3a4.5,4.5,0,0,1,.77.28c0,.08-.52.17-.58.15h0C59.07,107.7,59,107.35,58.94,107.3Z" transform="translate(0 -1)"/><path class="cls-4" d="M59.13,107.75c0-.08.53-.14.64-.14s.35.25.4.33.16.09.08.19a4,4,0,0,1-.6.37c-.1.08,0,.09-.13.09s-.15-.17-.2-.27-.23-.49-.19-.57Z" transform="translate(0 -1)"/><path class="cls-4" d="M59.66,108.43a2.36,2.36,0,0,0,.62-.39,3.82,3.82,0,0,1,.61,1.37,2.63,2.63,0,0,1,.07,1.21,3.92,3.92,0,0,1-.45,1.17,2,2,0,0,1-.65.78c-.5.26-1.1.4-1.58.7-.14.08-.21.07-.33.15a2.86,2.86,0,0,1,.66-.74,4.05,4.05,0,0,0,1-1.1,2.9,2.9,0,0,0,.35-1,2.63,2.63,0,0,0-.09-1c-.08-.31-.36-.8-.38-1S59.53,108.51,59.66,108.43Z" transform="translate(0 -1)"/><path class="cls-4" d="M53.15,103.21a8.5,8.5,0,0,1-.27,2.49,6.84,6.84,0,0,1-.77,1.67,3.2,3.2,0,0,1-.46.59,6,6,0,0,1-1.11,1c-.51.33-1.59,1-2.17,1.35a8.17,8.17,0,0,1-1.58.71,8.45,8.45,0,0,1-1.59.38,7.48,7.48,0,0,1-3-.16,2.71,2.71,0,0,1-1.63-1.75,3.24,3.24,0,0,1-.1-1.2,2.67,2.67,0,0,1,1.15-2.15.64.64,0,0,1,.3.24c.11.13.47.25.63.38a4,4,0,0,0-.59,2.67,1.43,1.43,0,0,0,.84.93,4,4,0,0,0,2,.12,6.37,6.37,0,0,0,1.26-.39c.48-.18.93-.33,1.45-.57s1.5-.84,1.94-1.1.57-.56.81-.75a1.5,1.5,0,0,0,.37-.53C51.51,105.78,52.34,104.54,53.15,103.21Z" transform="translate(0 -1)"/><path class="cls-4" d="M28.56,91.41a8.16,8.16,0,0,1,1.76,1.35c-.16-.05-.52.33-.62.23A19.39,19.39,0,0,1,28.56,91.41Z" transform="translate(0 -1)"/><path class="cls-4" d="M30.33,92.79c.12,0,.37.53.5.66-.18,0-.55.38-.72.33a1.15,1.15,0,0,1-.39-.73C29.75,92.93,30.17,92.75,30.33,92.79Z" transform="translate(0 -1)"/><path class="cls-4" d="M30.85,93.5c.08,0,.11.08.28.38a11.74,11.74,0,0,1,.76,1.8c0,.13.15.56.22.74a6.23,6.23,0,0,1,.1.8,8.69,8.69,0,0,1,0,1.29,4.52,4.52,0,0,1-1.13,2.78c.12-1,.18-1.84.24-2.94a6.6,6.6,0,0,0-.06-1.2,6.19,6.19,0,0,0-.12-.71c-.06-.15-.19-.51-.22-.63a11,11,0,0,0-.67-1.61c-.15-.3-.19-.15-.18-.3A.94.94,0,0,1,30.85,93.5Z" transform="translate(0 -1)"/><path class="cls-4" d="M29.58,93.06c.12,0,.38.61.37.72s-.3.17-.39.23c-.9.52-1.87.91-2.79,1.39a7.43,7.43,0,0,1,2.27-2C29.2,93.34,29.45,93.05,29.58,93.06Z" transform="translate(0 -1)"/><path class="cls-4" d="M43.19,105.39a7.86,7.86,0,0,1,1.36-.18,6.91,6.91,0,0,0-1.4,1c0-.17-.36-.34-.41-.44s-.24-.1-.17-.13A3.77,3.77,0,0,1,43.19,105.39Z" transform="translate(0 -1)"/><path class="cls-4" d="M60,112.6a5.21,5.21,0,0,1-.52.46c-.46.33-.9.64-1.4.36,0,0-.05,0,0-.09a1.1,1.1,0,0,1,.32-.14Z" transform="translate(0 -1)"/><path class="cls-4" d="M40.76,104.74a6.52,6.52,0,0,1,1.76.94c-.18,0-.38.25-.52.28s-.14.2-.24.14a8.37,8.37,0,0,0-1.31-.62,5.56,5.56,0,0,0-1.46-.29,7.44,7.44,0,0,0-1.49,0,16,16,0,0,0-1.72.4,4.56,4.56,0,0,1-1.24.19h0c.6-.37,1-.84,1.68-1.18a4.77,4.77,0,0,1,1.18-.2,10.77,10.77,0,0,1,1.7-.09A8,8,0,0,1,40.76,104.74Z" transform="translate(0 -1)"/><path class="cls-4" d="M42.52,105.7c.09,0,.09.07.19.12s.41.33.41.43-.17.25-.22.34,0,.07-.13.09-.52-.26-.62-.37-.25-.14-.25-.25.11-.13.2-.17A3.17,3.17,0,0,1,42.52,105.7Z" transform="translate(0 -1)"/><path class="cls-4" d="M42.82,106.58s.17-.32.23-.31.23.52.2.55-.49-.18-.52-.16S42.8,106.64,42.82,106.58Z" transform="translate(0 -1)"/><path class="cls-4" d="M69.1,117.36a7,7,0,0,0,.79.3c.57.23,1.77.74,2.1.93s.51.24.49.3a.94.94,0,0,1-.71.39c-.22,0,0,0-.41-.2s-1.34-.65-1.91-.85c-.12,0-.51-.21-.67-.29s-.68-.18-.78-.21c-.38-.11-1.25-.3-1.45-.33-1.42-.22-2.5-.44-3.84-.59a11.27,11.27,0,0,1,3.94-.09,12.93,12.93,0,0,1,1.67.43A7.86,7.86,0,0,1,69.1,117.36Z" transform="translate(0 -1)"/><path class="cls-4" d="M72.41,118.9c.26.19.48.36.71.55-.18,0-.47.34-.65.29s-.73-.32-.75-.44S72.35,119.08,72.41,118.9Z" transform="translate(0 -1)"/><path class="cls-4" d="M77.16,121.29c.12-.49.11-.61.21-1a9.56,9.56,0,0,1,.58,1.53,3.05,3.05,0,0,1-.09,1.32,3.52,3.52,0,0,1-.54,1.06,5.34,5.34,0,0,1-2.22,1.74,9.67,9.67,0,0,1-2.34.49,10.67,10.67,0,0,1-2.29-.21,8.64,8.64,0,0,1-3-1.5,1.72,1.72,0,0,1-.62-1.72c.31-1.12.86-1.22,1.74-1.5a4.18,4.18,0,0,1,1.12-.12c-.39.23-.92.31-1.19.71a2.64,2.64,0,0,0-.63,1.14,1.57,1.57,0,0,0,.44,1.25,6.5,6.5,0,0,0,2.37,1.22,6.43,6.43,0,0,0,1.83.18,8,8,0,0,0,1.9-.36,4.71,4.71,0,0,0,1.91-1.5,3.26,3.26,0,0,0,.44-1C76.87,122.32,77,121.78,77.16,121.29Z" transform="translate(0 -1)"/><path class="cls-4" d="M72.58,119.86a1.93,1.93,0,0,1,.66-.32A10.35,10.35,0,0,1,74.43,121C73.81,120.62,73.19,120.25,72.58,119.86Z" transform="translate(0 -1)"/><path class="cls-4" d="M71.69,119.39a1.5,1.5,0,0,1,.73.46c.06.12-.21.13-.29.17a14.77,14.77,0,0,1-3.47,1.1,21.76,21.76,0,0,1,2.78-1.57C71.54,119.5,71.51,119.39,71.69,119.39Z" transform="translate(0 -1)"/><path class="cls-4" d="M35.38,104.84a2.09,2.09,0,0,1,.8-.22l-1.63,1.18h0c-.08.06-.09,0-.1,0C34.26,105.22,34.9,105.06,35.38,104.84Z" transform="translate(0 -1)"/><path class="cls-4" d="M55.44,114.91a.26.26,0,0,1-.12.24,4.22,4.22,0,0,1-1,.1,5.06,5.06,0,0,1,.72-.43A.51.51,0,0,1,55.44,114.91Z" transform="translate(0 -1)"/><path class="cls-4" d="M55.38,115.15c-.17.15-.19.28-.46.36a2.52,2.52,0,0,0-.94.5c-.21.22-.38.35-.55.56a3,3,0,0,0-.33.64,3.58,3.58,0,0,0-.13.67c-.06.19-.3.3-.31.48s-.11.18-.11.35c-.24-.18-.49-.24-.53-.59a2.64,2.64,0,0,1,.11-1.08,2.45,2.45,0,0,1,.44-.83,3.62,3.62,0,0,1,.66-.7,5.78,5.78,0,0,1,1.15-.6c.26-.09.69-.11.72,0s-.6.3-.68.46A9,9,0,0,1,55.38,115.15Z" transform="translate(0 -1)"/><path class="cls-4" d="M31.64,107.23a.35.35,0,0,1-.05.38,9.5,9.5,0,0,1-.9.44c.15-.16.44-.56.56-.68S31.6,107.18,31.64,107.23Z" transform="translate(0 -1)"/><path class="cls-4" d="M31.37,107.25a2.36,2.36,0,0,0-.58.72l.95-.45c-.11.28-.08.35-.39.57a5.23,5.23,0,0,1-1.34.66,7.66,7.66,0,0,1-1.24.28,7.14,7.14,0,0,1-1.24.07,10,10,0,0,1-1.65-.32c-.46-.1-.54-.3-.77-.65a1.84,1.84,0,0,0,.62,0,5.43,5.43,0,0,0,.63-.08c.29,0,.74.18,1.08.19a10.25,10.25,0,0,0,1.11,0c.36,0,.67-.15,1-.22a3.47,3.47,0,0,0,1.13-.59C31,107.28,31.11,107.33,31.37,107.25Z" transform="translate(0 -1)"/><path class="cls-4" d="M52.56,118.35a3.1,3.1,0,0,1,.31-.44s0,.14,0,.25a1.15,1.15,0,0,1-.31.61c-.1,0-.2-.08-.21-.09h0S52.53,118.43,52.56,118.35Z" transform="translate(0 -1)"/><path class="cls-4" d="M26,108c.16,0,.31,0,.29.06a1.46,1.46,0,0,1-.58.09,3.65,3.65,0,0,1-.58,0c-.11-.06-.13-.2-.08-.21A2.69,2.69,0,0,1,26,108Z" transform="translate(0 -1)"/></g></g></svg>