<svg id="Layer_1" data-name="Layer 1" xmlns="http://www.w3.org/2000/svg" viewBox="0 0 720 480"><defs><style>.cls-1{fill:#cfc3b4;}.cls-2{fill:none;stroke:#313130;stroke-width:2px;}.cls-3{fill:#111;}.cls-4{fill:#50504f;}</style></defs><title>6</title><g id="_2" data-name="2"><path class="cls-1" d="M720,1V481H0V1Z" transform="translate(0 -1)"/><g id="Frog"><path class="cls-2" d="M444.55,217.77c-.05-.26,0-.43.12-.53a1,1,0,0,1,.75-.14" transform="translate(0 -1)"/><path class="cls-3" d="M444.55,217.77c-.05-.26,0-.43.12-.53a1,1,0,0,1,.75-.14c2.88,1.49,7.36,3.25,7.14,7.16a.85.85,0,0,1-.49.75c-1.67.87-2.73.6-4.4-.4a2.43,2.43,0,0,0-1.55-.54c-.45.1-.52.33-.23.68q2.25,2.66,1,6.69a1.32,1.32,0,0,1-1.65.88,1.42,1.42,0,0,1-.48-.27,5.15,5.15,0,0,1-1.28-1.67c-1.22-2.59-3.19-6.64-5.4-7.68a.67.67,0,0,0-.89.31.64.64,0,0,0-.05.45,24.74,24.74,0,0,1,.55,9.56,1.87,1.87,0,0,1-1.53,1.54l-.5.08c-.86.13-1.68-.65-1.83-1.76a.59.59,0,0,1,0-.13q-.8-9.06-4.26-12.65a53.38,53.38,0,0,0-5.36-3.75c-3.84-2.53-8.83-3.65-13-5.27q-.35-.15-7.12-2.58a68.15,68.15,0,0,1-17.71-9.58,43.88,43.88,0,0,1-11.8-13.23,2.92,2.92,0,0,0-2.72-1.56,11.13,11.13,0,0,1-6.68-2.44c-1.62-1.41-3.66-2.61-5.29-4.26q-5.37-5.43-7.34-7.4c-2.11-2.12-4.76-5.33-5.79-7.72q-2-4.74-4.1-9.82a3.86,3.86,0,0,0-1.21-1.15A102.79,102.79,0,0,0,320,139.27q-17.47-7.31-34.77-12.8-8-2.53-35.47-8.72c-5.79-1.31-14-4.14-20.31-4.61q-5.87-.45-16.61-1.2a7.88,7.88,0,0,0-4.23.71c-5,2.6-7,3.95-12,4.37a.66.66,0,0,1-.7-.43l-.75-1.81a1,1,0,0,1,.51-1.26h0l9.35-3.89a.84.84,0,0,0,.56-.77c0-.72-.16-1-.65-1a45.58,45.58,0,0,1-16.91-.66,1.54,1.54,0,0,1-1.18-1.83,1.44,1.44,0,0,1,.46-.81,4.84,4.84,0,0,1,2.59-1.26q6.7-.54,7.79-.5a65.55,65.55,0,0,0,7.54.06c.48-.09.51-.25.08-.49a40.65,40.65,0,0,0-6.6-3,11.87,11.87,0,0,1-4.56-2.9.77.77,0,0,1,0-1.08l0,0c1.55-1.38,3.15-1.33,5.18-.63q13.24,4.53,25,9c13.65,5.24,25.31,5.41,43,6.12.35,0,.42-.13.23-.41-1.9-2.83-6.41-4.69-9.76-6.16a25.39,25.39,0,0,0-8-1.73q-7.56-.63-14.67-.72a9.33,9.33,0,0,1-2.73-.41,1.21,1.21,0,0,1-.23-2.2c3.2-1.84,5.36-1.65,9.61-1.68,1.59,0,1.69-.41.31-1.18a6.42,6.42,0,0,0-1.72-.39q-3.51-.56-6.94-1.4c-2.55-.64-4.28-.74-4.59-3.37a1.66,1.66,0,0,1,1.45-1.85h0a14.46,14.46,0,0,1,7,.79c2.77,1.1,4.84,1.86,6.23,2.28,1.18.36,1.41,0,.68-1-1.58-2.2-4.37-3.27-6-4.76-.82-.74-.76-1.54.18-2.42l.25-.13a3,3,0,0,1,3.2.32q6.75,5.33,15.32,12.12a26.5,26.5,0,0,0,8.21,4.07,126.73,126.73,0,0,0,15,3.13l14,2.33q7.63,1.26,14,2,16.75,1.92,26.75,2.79a141.15,141.15,0,0,0,20,.22c15.23-.88,31.51-1.1,45.9,6,5.34,2.65,12.58,4.65,17,11.5a.09.09,0,0,1,0,.12l-.19.28a.22.22,0,0,1-.29,0l0,0q-5.06-5.55-7.5-6.68l-9.31-4.38c-15-7-32.15-6.6-49.14-5.58-12.66.76-26.15-1.68-38.08-2.69q-8.85-.75-19.85-2.6-2-.33-21.88-3.79a40.46,40.46,0,0,1-12.75-4.37,72.81,72.81,0,0,1-9.1-6.73q-6.67-5.49-9.29-7.29a2.85,2.85,0,0,0-1.49-.07c-.13,0-.19.09-.18.25a4.16,4.16,0,0,0,.2,1.15q7.44,4.81,6.93,6.81a1.2,1.2,0,0,1-1.47.85l-.13,0c-5.17-2-8.93-3.85-13.8-3.51a.74.74,0,0,0-.71.53,1.2,1.2,0,0,0,.43,1.37,7.63,7.63,0,0,0,2.93,1L240.79,94a6.79,6.79,0,0,1,3.79,2,1.11,1.11,0,0,1,0,1.58,1.13,1.13,0,0,1-.74.31c-4.17.12-7.85-.5-10.15.94-1,.66-1,1,.28,1.08l14.52.61c6.4.26,10.2,2.25,15.75,4.89a16.45,16.45,0,0,1,4.32,3.39,6.66,6.66,0,0,0,4.35,1.65,137.4,137.4,0,0,1,37.49,6.48.25.25,0,0,1,.15.15l.28.66c.15.36,0,.49-.34.37a114.06,114.06,0,0,0-15.25-4.08Q289,112.87,274,111.37q-3.74-.39-14.58-.55a122.38,122.38,0,0,1-34.11-5.29c-3.83-1.18-7.08-2.71-11.57-4.57-4.87-2-10.27-3.37-15.22-5.54a2.64,2.64,0,0,0-2.05-.13l-.65.23c-.78.27-.83.6-.16,1q2.8,1.64,9.87,4.86a2.56,2.56,0,0,1,1.6,1.78.46.46,0,0,1-.41.62,23.48,23.48,0,0,1-3.28.46,54.43,54.43,0,0,0-13.71.32,1.78,1.78,0,0,0-1.29.77.68.68,0,0,0,.2,1,.66.66,0,0,0,.26.11,63,63,0,0,0,16.63.66,1.41,1.41,0,0,1,1.54,1.28,1.36,1.36,0,0,1-.13.74,4.85,4.85,0,0,1-2.43,2q-3.9,1.77-7.7,3.09a.46.46,0,0,0-.31.69l.31.74a.67.67,0,0,0,.71.4c3-.48,5-1,6-1.69,2.69-1.8,5.78-4,9.18-3.7,6.54.55,12.33.56,18.37,1.61,8,1.38,13.17,3.17,20.45,4.76q15.4,3.36,32.6,8.08c5.7,1.56,10.65,3.56,17.1,5.82a293.82,293.82,0,0,1,28.53,11.72c3.72,1.75,7.53,5,11.22,6.64.55.24.86.22.94,0,.25-.91.51-.9.79,0,2.43,8.15,5.89,15.37,12.07,21.4,6.37,6.22,10.13,10.83,17.26,12.64a.67.67,0,0,0,.8-.49.62.62,0,0,0-.06-.46q-1.4-2.58-4.66-8.91a8.53,8.53,0,0,1-1-4.91c.07-.68.23-.7.46-.06A94.15,94.15,0,0,0,377.82,189a33.18,33.18,0,0,0,5.59,5.85A91.59,91.59,0,0,0,394.77,203c4.69,2.89,11.38,4.37,16.13,6.66a64,64,0,0,0,7.66,2.88,26,26,0,0,1,10.92,6.4,18.72,18.72,0,0,1,5.3,13.54,1.09,1.09,0,0,0,.58.85l.24.15a.61.61,0,0,0,.83-.21.62.62,0,0,0,.09-.26,24,24,0,0,0-.65-9.35,2.35,2.35,0,0,1,.23-1.56,1.43,1.43,0,0,1,2-.61c3.67,1.56,5.08,5.85,6.71,9.25a.57.57,0,0,0,.75.26.83.83,0,0,0,.15-.11l.28-.28a1.68,1.68,0,0,0,.45-1.84,19.71,19.71,0,0,0-6.85-9.81.25.25,0,0,1-.05-.35.21.21,0,0,1,.11-.08l.3-.13a.49.49,0,0,1,.47,0l9.57,6.52c.28.18.81-.27,1.18-1l.08-.17a2.7,2.7,0,0,0,0-.75,2.22,2.22,0,0,0-1.05-1.67Z" transform="translate(0 -1)"/><path class="cls-4" d="M445.42,217.1a1,1,0,0,0-.75.14c-.13.1-.17.27-.12.53-4.17-2.86-7.74-6.38-12.61-8.2-5.73-2.15-10.68-4.8-18.81-8.84a15.72,15.72,0,0,1-7.47-7,.83.83,0,0,1,.22-1.12c.31-.26.48-.19.52.21.16,1.39.74,2.1,1.75,2.14a273.74,273.74,0,0,0,34.91-1.18,16.12,16.12,0,0,0,5.67-1.7c3.78-1.88,6.66-3,8.93-5.24a30.12,30.12,0,0,0,6.31-10,2.29,2.29,0,0,0-1.13-3.25q-8.71-4.71-17-4.3a141.31,141.31,0,0,1-22.44-.63,40.25,40.25,0,0,1-11.71-2.91q-3.21-1.33-7.52-2.8-2.15-.73-3.89-4c-.05-.1,0-.16.07-.2l.24-.1a.42.42,0,0,1,.48.12,11.17,11.17,0,0,0,4.11,3.21,63.94,63.94,0,0,0,24.48,5.69q8.41.28,19.27-.13c5.44-.21,11.75,3.21,16.16,5.49,2.69,1.39.06,5-1,6.73-.59.93-.35,1.23.7.91,4.24-1.33,7.12-2.2,8.53-7,.93-3.15,1.33-9.25-1.53-11.89q-8-7.35-12.33-10l-8.77-5.31a.94.94,0,0,0-1.3.19s0,.07-.05.1a10.44,10.44,0,0,1-2,2.87,1.26,1.26,0,0,1-.9.37c-4.13,0-6.59.1-8.62-3.49a6.29,6.29,0,0,1-.41-5.12c1.07-3.54,5.73-3.84,8.86-3.06a.72.72,0,0,1,.36.2l1.84,1.84a.51.51,0,0,0,.72,0,.59.59,0,0,0,.12-.2c1.15-3.56-1.48-6.48-4.92-6.86-3-.33-6.57,1.83-9.77,3.54a2.27,2.27,0,0,1-3.05-.91,11.82,11.82,0,0,0-9.63-6.38,8.36,8.36,0,0,0-6.64,1.84,10.42,10.42,0,0,0-3.66,6.9c0,.31-.19.38-.45.2l-.4-.27a.53.53,0,0,1-.22-.56A12.14,12.14,0,0,1,415,130.3a9.57,9.57,0,0,1,7.79-1.83,13.33,13.33,0,0,1,9.69,6.87,1.11,1.11,0,0,0,1.78.41c3.1-2,6.17-4.29,10.45-3.88,5.34.52,7.44,5.54,5.22,10.31a1.65,1.65,0,0,0,.34,1.87,20.42,20.42,0,0,0,4.39,3.42,82.42,82.42,0,0,1,17.1,12.38,10.72,10.72,0,0,1,3.42,5.18,18.66,18.66,0,0,1-.12,8.2c-1.21,5.42-5.7,8.05-10.86,9.64a1,1,0,0,0-.64,1.19l0,.05c1.53,4.2,4.32,8.63,5.24,13.55A119.07,119.07,0,0,1,471,213.92a7.73,7.73,0,0,0,1.22,4.44c2.36,3.07,4.93,4.65,5.56,8.55a1.7,1.7,0,0,1-1.41,2,1.75,1.75,0,0,1-1-.16,14.76,14.76,0,0,1-5.09-4.35c-.42-.55-.61-.48-.57.22.23,3.51.76,5.48-.81,7.71a1,1,0,0,1-1.44.25c-2.95-2.08-2.3-4.83-2.57-9.29a3.07,3.07,0,0,0-.33-1.45c-.55-.72-1-.67-1.39.17-1.17,2.59-2.18,5.68-4.61,7.24a.61.61,0,0,1-.85-.09l-1.8-1.79a1,1,0,0,1-.27-1,30.29,30.29,0,0,1,1.36-4.84,16.78,16.78,0,0,0,2.66-7.73,13.82,13.82,0,0,0-1.63-7.17c-2.25-4.66-5.62-13.43-11.84-12.16a87.26,87.26,0,0,1-17.5,1.92q-8.77,0-14.59.2a4.74,4.74,0,0,1-1.29-.15,3.84,3.84,0,0,0-1.29-.22q-2.49.61-.06,1.88,5.41,2.81,11,5.63c3.72,1.88,8.39,3.69,12.39,5.6S441.65,214.62,445.42,217.1Z" transform="translate(0 -1)"/><path class="cls-3" d="M429.57,140.35c.2,3.28-2.57,6.13-6.19,6.35h0c-3.61.22-6.71-2.27-6.91-5.55s2.57-6.13,6.19-6.35h0C426.27,134.58,429.37,137.06,429.57,140.35Z" transform="translate(0 -1)"/><path class="cls-1" d="M423.16,142.39a3,3,0,0,0-1.3,2,1.12,1.12,0,0,1-1.26.94,1.08,1.08,0,0,1-.45-.17,5,5,0,0,1-2.29-6c1.59-5.7,13.82-3.35,9.57,4.14-.55,1-1.13,1-1.75.07a5.22,5.22,0,0,0-1.58-1.1A.81.81,0,0,0,423.16,142.39Z" transform="translate(0 -1)"/><path class="cls-1" d="M441.42,144.84a5,5,0,0,0-1.35.9c-.39,1.41-.86,1.43-1.42,0-.5-1.22-.45-3.73.68-4.91,2.46-2.57,7.19-2.33,8.51,1.42q1.52,4.26-1.94,6.15a2.37,2.37,0,0,1-2.74-.47.78.78,0,0,1-.29-.84,2.15,2.15,0,0,0-.53-2.19A.69.69,0,0,0,441.42,144.84Z" transform="translate(0 -1)"/><ellipse class="cls-4" cx="398.18" cy="183.82" rx="0.33" ry="1.75" transform="translate(-23.22 61.34) rotate(-8.7)"/><path class="cls-1" d="M468.21,219.1a.22.22,0,0,0-.35-.16l-.5.21a.22.22,0,0,0-.15.28,43,43,0,0,1,1.32,9.28,11.7,11.7,0,0,1,0,1.39q-1,2.76-1.88-.09c-.79-2.59.37-8-2.25-10a.64.64,0,0,0-.9,0,6.6,6.6,0,0,0-2.14,2.43,23.2,23.2,0,0,1-2.29,4.92,1.17,1.17,0,0,1-2.15-.31c-.57-2.28,1.85-6.28,3.43-9.63a11.39,11.39,0,0,0,.76-5.41,13.24,13.24,0,0,0-1.4-5.1c-2.52-5.28-4.64-10.11-9.27-13.53a.4.4,0,0,1-.07-.55.36.36,0,0,1,.19-.13,20.6,20.6,0,0,0,10.23-7.44,1,1,0,0,1,1.36-.2,1,1,0,0,1,.33.48c1.38,4.25,3.86,7.89,4.79,12.75,1.35,7,2.82,12.5,2.3,18.45a1.09,1.09,0,0,0,.3.87c2.54,2.79,6.84,6.79,6.67,9.21-.09,1.24-.58,1.43-1.47.56C472.48,224.86,469.4,222.87,468.21,219.1Z" transform="translate(0 -1)"/></g></g></svg>