<svg id="Layer_1" data-name="Layer 1" xmlns="http://www.w3.org/2000/svg" viewBox="0 0 720 480"><defs><style>.cls-1{fill:#cfc3b4;}.cls-2{fill:#3c3c3c;}.cls-3{fill:#202020;}.cls-4{fill:#fff;}</style></defs><title>4</title><g id="_2" data-name="2"><path class="cls-1" d="M720,1V481H0V1Z" transform="translate(0 -1)"/><g id="_Group_" data-name="&lt;Group&gt;"><path class="cls-2" d="M520.57,226.61c-.21.06-.38.23-.52.16s-.44,0-.58-.05a3.62,3.62,0,0,0-1.44.45l-.11,0-.31.09c-.44,0-1,.09-1.78.11a46.22,46.22,0,0,1-5.37-.13,27.37,27.37,0,0,1-3.34-.54,26.6,26.6,0,0,1-3.78-1.2,23.43,23.43,0,0,1-5.28-3.11,5.94,5.94,0,0,1-1.11-1,7.75,7.75,0,0,1-1.41-1.6c-.4-.55-.66-1-1.06-1.59,1.08.91,1.82,1.47,2.93,2.48a6.07,6.07,0,0,0,1.08.91,18.58,18.58,0,0,0,5,3,22.81,22.81,0,0,0,3.64,1.12c1.22.3,1.91.31,3.24.57s3.9.14,5.26.17c.79,0,1.44-.11,1.79-.11A18.1,18.1,0,0,1,520.57,226.61Z" transform="translate(0 -1)"/><path class="cls-2" d="M519.47,226.72a1.9,1.9,0,0,1,.58.05,6.7,6.7,0,0,1-2,.51l.1,0A2,2,0,0,1,519.47,226.72Z" transform="translate(0 -1)"/><path class="cls-2" d="M495.54,219.82c.4.56.44.66.8,1.11a11.85,11.85,0,0,1-3.06-2.55,20.52,20.52,0,0,1-1.51-1.91,59.74,59.74,0,0,1-5.41-9.3c-1.21-2.8-2.55-6.34-3.44-8.45s-.78-2.13-1.5-3.72a18.36,18.36,0,0,0-1.86-3.39,32,32,0,0,0-4.85-6.07,94.07,94.07,0,0,0-7.63-5.89c-1.15-.77-2.46-1.72-3.17-2.18A23.28,23.28,0,0,1,461,175l0-.1a15.08,15.08,0,0,1,3.29,1.8c.71.46,2,1.41,3.18,2.18,2.19,1.58,5.6,4.14,7.62,5.89a29.36,29.36,0,0,1,5,6.25,20.8,20.8,0,0,1,1.89,3.49,34.55,34.55,0,0,1,1.5,3.72c.89,2.1,2.23,5.65,3.44,8.44a47.56,47.56,0,0,0,5.35,9.1c.6.83,1.24,1.42,1.47,1.81C494.64,218.75,495,219.3,495.54,219.82Z" transform="translate(0 -1)"/><path class="cls-3" d="M495.35,256.84a4.21,4.21,0,0,1,.06,2.36,2.76,2.76,0,0,1-.6,1,1.83,1.83,0,0,1-1,.43,3.49,3.49,0,0,1-2.18-.45h0a3.89,3.89,0,0,1-1.17-1.22c-.27-.48-.4-.9-.66-1.38a15.68,15.68,0,0,0,2.29,1.89c.27.14,1.08.57,1.5.44a1.46,1.46,0,0,0,1.07-.91,2,2,0,0,0-.07-1.67,3.31,3.31,0,0,0-2.91-1.7,16.85,16.85,0,0,0-3.91.2,16.93,16.93,0,0,1-3.52,0,19.48,19.48,0,0,1-3.51-.71c-.88-.29-.24,0-1.12-.33a14.17,14.17,0,0,1-2.41-1.17,15.87,15.87,0,0,1-5.54-5.75,9.57,9.57,0,0,1-1.19-4.16,5.43,5.43,0,0,1,.88-3.33,4.83,4.83,0,0,1,1-1c.28-.2.18-.17.45-.37a1.63,1.63,0,0,1,.59-.3,5.36,5.36,0,0,1,2.61-.36c-.07.13-.52.16-.45.37h0c-.52.16-1,.42-1.62.62-.11,0-.38.23-.49.26s-.1,0-.38.24a4.6,4.6,0,0,0-.94,1,5,5,0,0,0-.87,3,9.36,9.36,0,0,0,1.06,3.74,15.28,15.28,0,0,0,5.17,5.3,12.8,12.8,0,0,0,2.27,1.1,6.32,6.32,0,0,0,1,.36,17.68,17.68,0,0,0,3.28.68,30.39,30.39,0,0,0,3.42.06c.65-.09,1.75-.21,2.64-.26a10.11,10.11,0,0,1,1.47,0,5.72,5.72,0,0,1,2.11.59A3.46,3.46,0,0,1,495.35,256.84Z" transform="translate(0 -1)"/><path class="cls-3" d="M489.35,280.37a5.07,5.07,0,0,1,.32,2.85,4.24,4.24,0,0,1-1.47,2.16,2.63,2.63,0,0,1-2.34.51,3.88,3.88,0,0,1-2-1.41,5.21,5.21,0,0,1-.95-2,3.22,3.22,0,0,1,0-1.82l0,.11,0-.11a3.06,3.06,0,0,1,.74-1.25c-.08.48-.16,1-.23,1.43a6.08,6.08,0,0,0,.14,1.55,3.3,3.3,0,0,0,.72,1.58,2.52,2.52,0,0,0,1.56,1,2.14,2.14,0,0,0,1.82-.35,3.14,3.14,0,0,0,1.16-1.72,3,3,0,0,0-.23-2.19,13,13,0,0,0-3-3.38,29,29,0,0,1-2.89-2.72c-.74-.9-1.27-1.53-1.84-2.25s-.17-.18-.77-1-1.16-1.9-1.89-3.15c-.33-.69-1.47-2.49-2-3.56a14.53,14.53,0,0,1-1.15-2.24,3.73,3.73,0,0,1,0-2.6,3.1,3.1,0,0,1,2.26-1.5,10.2,10.2,0,0,1,2.7-.06c1.54.2,3.58.58,4.88.74s2.59.32,3.41.4a19.58,19.58,0,0,1,3.31.78,25,25,0,0,1-3.39,0c-.72-.11-2.22-.21-3.41-.4s-3.38-.64-4.78-.77a7.65,7.65,0,0,0-2.39,0,2.11,2.11,0,0,0-1.7,1.09,2.46,2.46,0,0,0,.06,2,16.07,16.07,0,0,0,1.13,2.15c.53,1,1.59,2.9,2,3.45.73,1.25,1.29,2.32,1.89,3.15a7.12,7.12,0,0,1,.67,1c.53.63,1,1.28,1.7,2.19a30.38,30.38,0,0,0,2.9,2.72A9.44,9.44,0,0,1,489.35,280.37Z" transform="translate(0 -1)"/><path class="cls-2" d="M488.3,219.14a12,12,0,0,1,1.27,3.69,18.06,18.06,0,0,1-1.2-2,10.14,10.14,0,0,0-.79-1.45c-.43-.66-.6-1.17-1.23-2.11a70.1,70.1,0,0,0-5.82-7.36c-1.54-1.67-2.58-2.82-3.73-3.93s-.84-.87-1.84-1.92-2.45-2.74-3.66-4.07a35,35,0,0,1-3.57-4.89,5.29,5.29,0,0,1-.56-1.07,1.35,1.35,0,0,1-.3-.58c-.07-.21-.3-.59-.36-.8s-.3-.58-.23-.72.41.21.51.18c-.2-.28-.58-.39-.67-.7a14.94,14.94,0,0,1-.55-2.09,18.27,18.27,0,0,1,1.63,3c0,.11.26.49.33.69a1.51,1.51,0,0,0,.29.59c.2.28.33.69.57,1.07a48.78,48.78,0,0,0,3.4,4.72c1.11,1.35,2.51,3,3.55,4.1s.81.77,1.85,1.91,2.18,2.27,3.73,3.94a75,75,0,0,1,6,7.53C487.57,217.9,488.07,218.76,488.3,219.14Z" transform="translate(0 -1)"/><path class="cls-2" d="M488.17,220.89a5.94,5.94,0,0,1-.41,3.41c0,.24-.49.61-.73.91a7.55,7.55,0,0,1-1.36,1.11,4.56,4.56,0,0,1-1.07.56c-.41.13-.58.3-1,.43a9.49,9.49,0,0,1-1.88.13,11.21,11.21,0,0,1-2.12-.24,8.44,8.44,0,0,1-3.56-1.61.1.1,0,0,1,.13.08c1.13.32,1.95.41,3.28.67.34,0,1.29.16,2,.17a8.85,8.85,0,0,0,1.64-.17l.93-.29a5,5,0,0,0,1-.53,6.32,6.32,0,0,0,1.25-1.08,8.11,8.11,0,0,0,.63-.87A9.84,9.84,0,0,0,488.17,220.89Z" transform="translate(0 -1)"/><path class="cls-3" d="M482.84,280.6l0,.1,0-.1Z" transform="translate(0 -1)"/><path class="cls-3" d="M482.84,280.6h0a10.83,10.83,0,0,1-2-2.33,2.87,2.87,0,0,0-.44-.66,1.36,1.36,0,0,1-.36-.45,10,10,0,0,0-1.14-1.46,54.38,54.38,0,0,0-5.77-6.12,9.31,9.31,0,0,0-3.08-2.21,1.4,1.4,0,0,0-1.27.28,2.91,2.91,0,0,0-.77,1.15,23.42,23.42,0,0,0-.76,2.28,3.93,3.93,0,0,0-.26,1c-.08.47-.11.37-.26,1a8.17,8.17,0,0,0-.28,2.36,10.88,10.88,0,0,0,.42,3.5,32.3,32.3,0,0,1,1,4.33,5.92,5.92,0,0,1-.25,2.46,3.37,3.37,0,0,1-1.33,1.89,2.3,2.3,0,0,1-2.09.2,2.8,2.8,0,0,1-1.51-1.57c-.3-.58-.57-1.07-.46-1.44.19-.85.41-1.6.6-2.45.1-.38.69-.68,1-.88a10.35,10.35,0,0,0-.61,1.33,8.23,8.23,0,0,0-.33,1.46,2.79,2.79,0,0,0,.28,1.62,2.24,2.24,0,0,0,1.14,1.11,1.49,1.49,0,0,0,1.54-.14,4,4,0,0,0,1.16-3.54,29.87,29.87,0,0,0-1-4.23,17.59,17.59,0,0,1-.41-3.84,16.6,16.6,0,0,1,.32-2.59,6.4,6.4,0,0,1,.26-1,5.27,5.27,0,0,0,.25-1,18.28,18.28,0,0,1,.73-2.38,4.41,4.41,0,0,1,.92-1.42,2.48,2.48,0,0,1,1.89-.48,6.16,6.16,0,0,1,1.79,1c.58.38,1.08.91,1.69,1.4a49.6,49.6,0,0,1,5.8,6.23,15.07,15.07,0,0,0,1.14,1.45c.34.35.2.28.37.46a1.89,1.89,0,0,1,.43.65A7.91,7.91,0,0,1,482.84,280.6Z" transform="translate(0 -1)"/><path class="cls-2" d="M477.13,235.23a4.67,4.67,0,0,1,.38,1.92c-.34,1.47-1.13,1.49-2.29,1.74.1,0,.27-.2.38-.23h0c-.1-.31.82-.26,1-.33-.24,0-.38-.11-.58,0,.28-.54.49-.61.6-1.32a2.72,2.72,0,0,0-.24-1.51,6.71,6.71,0,0,0-2.53-2.27,8.83,8.83,0,0,0-2-.73,4.42,4.42,0,0,0-2.09.21,3.12,3.12,0,0,0-1.81,1.81,1.72,1.72,0,0,0-.12,1.06,12.87,12.87,0,0,0,.29,2.74,4.76,4.76,0,0,1-1.18-3,9.72,9.72,0,0,1,.2-1.19,3.64,3.64,0,0,1,2.16-2.16,7,7,0,0,1,1.61-.27,4.54,4.54,0,0,1,.82.08c.34,0,0,0,.48.08s1.29.5,2,.72A8.45,8.45,0,0,1,477.13,235.23Z" transform="translate(0 -1)"/><path class="cls-2" d="M476,238.19c.2-.07.37.1.58,0l-1,.32C475.77,238.49,475.91,238.22,476,238.19Z" transform="translate(0 -1)"/><path class="cls-2" d="M472.73,223.34a9.84,9.84,0,0,1,3.38,2.12,18.46,18.46,0,0,0-3.33-1.22,10.26,10.26,0,0,0-1.33-.27,5.26,5.26,0,0,0-2.54.57,1.76,1.76,0,0,0-.71,1.36,2.22,2.22,0,0,0,.14,1.54,6.08,6.08,0,0,0,1.67,2.42,5.81,5.81,0,0,0,1.76.93,6.88,6.88,0,0,0,2,.27c-.07.14,0,.24-.07.48a2.38,2.38,0,0,1,.62-.54l.11,0,.41-.13a2.28,2.28,0,0,1-2.82.77l-.24,0a6.46,6.46,0,0,1-2.07-1.16,10.87,10.87,0,0,1-2.2-3,4.84,4.84,0,0,1-.14-1.89,2.79,2.79,0,0,1,1-1.66,4.88,4.88,0,0,1,3-.7A2.47,2.47,0,0,1,472.73,223.34Z" transform="translate(0 -1)"/><path class="cls-2" d="M474.4,230.87c-.17.17-.45.37-.62.53.07-.13,0-.34.11-.37S474.23,231,474.4,230.87Z" transform="translate(0 -1)"/><path class="cls-2" d="M466.72,192.24c-.14-.07-.48-.08-.51-.18s-.27-.49-.13-.42S466.48,192.2,466.72,192.24Z" transform="translate(0 -1)"/><path class="cls-2" d="M465.94,191.57c.17.18.1.31.17.52a11.77,11.77,0,0,1-2.65-1.21,13.25,13.25,0,0,0-1.83-1.13c-.57-.39-1.83-1.13-2.54-1.59s-2.13-1.37-2.7-1.76-1-.7-1.29-.84a13.63,13.63,0,0,1-1.48-1.12c.34,0,.35-.34.59-.3a8,8,0,0,1,1.11.67c.44.32.71.46,1.29.85s2,1.3,2.7,1.76,2,1.19,2.54,1.58,1.42.92,1.83,1.13A13.68,13.68,0,0,1,465.94,191.57Z" transform="translate(0 -1)"/><path class="cls-3" d="M460.24,170.12a7.55,7.55,0,0,1,.94,3,4.71,4.71,0,0,1-.17,2c0,.11-.17-.17-.24,0s.24,0,.17.17-.18.51-.26.65a7.61,7.61,0,0,1-1.85,2.05c0-.24,0-.45,0-.69-.35.34-.57,1.09-.82,1.39a4.12,4.12,0,0,1-.9.74c-3,1.86-5.64,3.35-9.24,3.8s-7.41-.51-10.92-1.56-7.07-2.32-10.47-3.41c-1.77-.58-3.41-1.09-5-1.73-.78-.32-1.66-.61-2.45-.94s-1.53-.54-2.17-.79-1.43-.57-1.83-.78l-.68-.36c-.27-.14-.65-.25-.78-.32s0-.34,0-.45,0-.1,0-.34,0-.24.07-.48a8.58,8.58,0,0,0,.13-1l.32,1,.16.51.07.21,0,.1.1,0c.14.07.1,0,.27.14s.27.14.65.25a19.46,19.46,0,0,0,1.83.79c.65.25,1.43.57,2.18.79l2.34,1,5,1.83c3.43,1.2,7,2.46,10.37,3.44s7.08,2,10.58,1.56a19.29,19.29,0,0,0,8.93-3.7,9.38,9.38,0,0,0,3.51-3.26c.89-1.52.44-3.31-.39-4.86a16.8,16.8,0,0,0-3.68-4.52c-1.31-1.29-2.69-2.44-3.9-3.76a6.75,6.75,0,0,1-1.47-2.15,4.36,4.36,0,0,1-.09-2.47c.33-1.46,1-2.68.76-4.09a5.18,5.18,0,0,0-2-3.12,9.18,9.18,0,0,0-3.12-1.63,48.07,48.07,0,0,0-6.31-1,15.87,15.87,0,0,1-4.9-1.52,14.53,14.53,0,0,1-2.8-2.07,5.27,5.27,0,0,0-1.18-.88c-1.22-1-1.38-1.15-3.88-3s-6.15-4.76-10-7.64S407,125.6,402,122.6a67.2,67.2,0,0,0-9.29-4.68,82.75,82.75,0,0,0-9.6-2.43c-3.17-.71-6-1.31-9-1.71a46.51,46.51,0,0,0-9.57-.17c-5.93.61-11.63,1.26-17.34,1.46-1.48,0-2.37.06-3.7.14a10,10,0,0,0-1.75.21c-.31.1-.65.09-.86.16l-.62.19-.41.13-.62.19c-1.07.57-2,1.2-3,1.63a7.69,7.69,0,0,1,2.51-2.15,2.13,2.13,0,0,1,.69-.33l.51-.16.73-.23c.3-.09.54,0,.85-.15a13.61,13.61,0,0,1,1.86-.24c1.33-.08,2.36-.06,3.8-.17,5.82-.24,11.58-1,17.51-1.64a41.08,41.08,0,0,1,9.58.18c3.07.39,6,1,9.14,1.67a70,70,0,0,1,9.74,2.5,55.65,55.65,0,0,1,9.53,4.72c4.94,3.1,11.32,7.56,15.17,10.44s7.59,5.78,10,7.64,2.6,2.13,3.91,3.08a8.68,8.68,0,0,0,1.19.88,13.47,13.47,0,0,0,2.77,2,11.23,11.23,0,0,0,4.66,1.49,60.45,60.45,0,0,1,6.44,1A9.31,9.31,0,0,1,450.2,150a5.76,5.76,0,0,1,2.23,3.5,7.31,7.31,0,0,1-.07,2.29,18.71,18.71,0,0,0-.59,2.11,4.07,4.07,0,0,0,.07,2,4.3,4.3,0,0,0,1.37,1.84c1.31,1.29,2.55,2.37,3.87,3.66A20,20,0,0,1,460.24,170.12Z" transform="translate(0 -1)"/><path class="cls-2" d="M461,175.09h0a.34.34,0,0,1-.24,0S461,175,461,175.09Z" transform="translate(0 -1)"/><path class="cls-2" d="M468.21,238.25a6,6,0,0,1,.5,3,4.88,4.88,0,0,1-.51,1.63,5.11,5.11,0,0,1-1,1.56,5.27,5.27,0,0,1-.87.84c-.38.23-.62.53-1.11.8a16.28,16.28,0,0,1-2,1,5,5,0,0,1-1.23.38,6.41,6.41,0,0,1-3.43-.06c.83-.26,2.2-.57,2.93-.8l1.24-.39a14,14,0,0,0,1.86-.92,4.27,4.27,0,0,0,1-.77c.35-.34.42-.47.76-.81a6.22,6.22,0,0,0,.89-1.52,8.58,8.58,0,0,0,.43-1.5c.15-.61.31-1.57.49-2.42Z" transform="translate(0 -1)"/><path class="cls-3" d="M458.81,177.14c0,.24.17.52,0,.69s-.66.43-.8.7A5.87,5.87,0,0,1,458.81,177.14Z" transform="translate(0 -1)"/><path class="cls-3" d="M458.8,177.83a5.3,5.3,0,0,1-.55,2.21,2,2,0,0,1-.39.57,1.18,1.18,0,0,0-.31.44,7.8,7.8,0,0,1-.74.91,15.82,15.82,0,0,1-2.64,2.08,5.74,5.74,0,0,0-1.08-.57,11,11,0,0,0,2.84-2.14,6.89,6.89,0,0,0,.74-.91c.14-.27.17-.17.31-.44s.15-.27.39-.57a5.63,5.63,0,0,1,.6-1C458.21,178.12,458.56,178.13,458.8,177.83Z" transform="translate(0 -1)"/><path class="cls-2" d="M463.37,273.44a45.13,45.13,0,0,1-.29,6.67c-.05.92-.2,1.53-.18,2s0,.1,0,.24h0a3.75,3.75,0,0,0-.58,1.76c-.07.14,0,.45,0,.69a1.37,1.37,0,0,1-.18.51,22.31,22.31,0,0,1,.1-3.32c0-.34.12-1.06.17-2a59,59,0,0,0,.22-6.53,24.85,24.85,0,0,0-.34-4,25.71,25.71,0,0,0-.84-4.49,24.78,24.78,0,0,0-3.23-6.7c-.44-.66-.77-1-1-1.28a31.24,31.24,0,0,1-2.27-3.26,8.75,8.75,0,0,1,1.52,1.22,15.2,15.2,0,0,1,1.24,1.43,12.47,12.47,0,0,0,1,1.28,25.24,25.24,0,0,1,3.29,6.91,29.28,29.28,0,0,1,.88,4.6A18.2,18.2,0,0,1,463.37,273.44Z" transform="translate(0 -1)"/><path class="cls-2" d="M462.76,282.36h0a12.15,12.15,0,0,1-.52,2.31,1.2,1.2,0,0,1,0-.68A4.24,4.24,0,0,1,462.76,282.36Z" transform="translate(0 -1)"/><path d="M452.42,171.21a3.33,3.33,0,0,1,.68,2.17c-.16,1.29-1,1.79-2.29,1.73a2.08,2.08,0,0,1-.75-.21,4.57,4.57,0,0,1-2-1.54,3,3,0,0,1-.64-2.07c.3-1.57,1.51-2.06,3-1.62A4.91,4.91,0,0,1,452.42,171.21Zm-.24,1.77a2.76,2.76,0,0,0-1.93-2.56,1.48,1.48,0,0,0-2.15,1.12,2.58,2.58,0,0,0,1.81,2.5C451,174.5,452.09,174.15,452.18,173Z" transform="translate(0 -1)"/><path d="M450.25,170.42a2.76,2.76,0,0,1,1.93,2.56c-.09,1.17-1.22,1.52-2.24,1.16a2.41,2.41,0,0,1-1.8-2.5A1.45,1.45,0,0,1,450.25,170.42Zm1.18,2.35c.08-.48-.05-.55-.25-.83a1.82,1.82,0,0,0-.88-.63.91.91,0,0,1-.38-.11.87.87,0,0,0-1,.77,1.14,1.14,0,0,0,.26.82c.23.38.47.42.87.63S451.36,173.24,451.43,172.77Z" transform="translate(0 -1)"/><path class="cls-2" d="M454.21,184.14c-.21.07-.35.34-.59.3s-.61-.49-.78-.67.18-.16.28-.2A3.48,3.48,0,0,1,454.21,184.14Z" transform="translate(0 -1)"/><path class="cls-2" d="M460.46,249a8.73,8.73,0,0,1-3.43-1.54,12.27,12.27,0,0,1-1.92-1.44,45.17,45.17,0,0,1-5-5.35,65,65,0,0,1-3.63-5.44c-.8-1.45-.83-1.56-1.53-2.7s-.7-1.14-1.46-2.49-1.95-3.69-3-5.29a31.69,31.69,0,0,0-3.74-4.72,4.53,4.53,0,0,0-.95-.84c-.2-.27-.3-.24-.47-.42a3.81,3.81,0,0,0-.6-.49c-.78-.66-1.59-1.09-2.37-1.75a9.87,9.87,0,0,1,1.94.75c.27.15.26.49.46.77.11,0-.12-.42,0-.35s.3.25.44.32.47.42.64.59a3.09,3.09,0,0,0,.47.42c.3.25.64.59,1,.94a38.51,38.51,0,0,1,3.88,4.79c1.06,1.6,2.36,3.91,3.12,5.26s.79,1.45,1.46,2.49a28.28,28.28,0,0,1,1.49,2.6c.8,1.45,2.4,3.67,3.6,5.33a34.17,34.17,0,0,0,4.8,5.18,10.16,10.16,0,0,0,1.79,1.37,11.9,11.9,0,0,1,1.05.81A5.7,5.7,0,0,1,460.46,249Z" transform="translate(0 -1)"/><path d="M451.18,171.94c.2.28.33.35.25.83s-.87.83-1.38.65a1.49,1.49,0,0,1-.87-.63,1.13,1.13,0,0,1-.26-.82.9.9,0,0,1,1-.77c.11,0,.11,0,.38.11A1.13,1.13,0,0,1,451.18,171.94Z" transform="translate(0 -1)"/><path class="cls-2" d="M453.12,183.57c0,.11-.17.17-.28.2a5.41,5.41,0,0,1-.64-.59A2.29,2.29,0,0,1,453.12,183.57Z" transform="translate(0 -1)"/><path class="cls-3" d="M452.81,183.67a4.89,4.89,0,0,0,.78.66c-.38.24-1.11.46-1.59.73a20.56,20.56,0,0,1-5.22,1.07,22.92,22.92,0,0,1-2.6,0,24,24,0,0,1-2.6-.32,8.74,8.74,0,0,0-1.19-.19c.17-.17.38-.24.55-.4-.51.16-1.24.73-1.74.2h0c-1.1-.22-2.32-.52-3.41-.74-2-.52-4.5-1.32-6.3-2a19.79,19.79,0,0,0-1.9-.65,10.89,10.89,0,0,1-3.12-1.63c1.23.3,1.94.41,3.2.81a18.88,18.88,0,0,1,1.91.65c1.66.61,4.32,1.48,6.16,1.93s4.15,1,5.58,1.19,1.54.2,2.6.32,1.26.06,2.5,0a18.06,18.06,0,0,0,5-1A5.56,5.56,0,0,0,452.81,183.67Z" transform="translate(0 -1)"/><path class="cls-2" d="M457.7,256.06a10.45,10.45,0,0,1-1.08-.91c-.51-.52-1-.94-1.68-1.74-.34-.35-.84-.87-1.55-1.67-2.25-2.13-5.08-4.65-7.71-6.88s-6-4.94-8.49-7.21a76.41,76.41,0,0,1-6.92-7.24,54.25,54.25,0,0,1-4.13-6.3,30.09,30.09,0,0,1-1.95-3.7c-.59-1.17-.06-.2-.72-1.58a12.08,12.08,0,0,0-2.53-4.09c-1.74-1.94-4.6-4.9-7.22-7.48A96.31,96.31,0,0,1,401,192.66a8.15,8.15,0,0,1-1.24-2.9l-.33-1c.87,1,1.43,2.38,2.33,3.46,5.12,6.56,19.48,20.2,22,25.31s.1.31,1.12,2.48.76,1.69,1.95,3.7a44.87,44.87,0,0,0,4,6.23,82.38,82.38,0,0,0,6.78,7.17c2.52,2.27,5.73,4.89,8.46,7.1s5.59,4.82,7.84,6.95c.81.77,1.35,1.39,1.68,1.74A14.72,14.72,0,0,1,457.7,256.06Z" transform="translate(0 -1)"/><path class="cls-3" d="M440,161.85a8.35,8.35,0,0,1,.77,3.16,10.46,10.46,0,0,1-.14,1.74l0,.24,0,.24a8.1,8.1,0,0,1-.43,1.16,4.17,4.17,0,0,1-1.86,2.05c.43-.81.75-1.6,1.15-2.51.07-.14.21-.75.36-1l0-.24,0-.24a16.07,16.07,0,0,0,.17-1.64C440,163.66,440,162.87,440,161.85Z" transform="translate(0 -1)"/><path d="M438.42,163.81c.07.2.1.3,0,.44a6.12,6.12,0,0,1-1,3.95c-1.26,1.76-3,2.31-5.14,2.41a.85.85,0,0,1-.58-.05c-4.09-.76-7-3.14-7.81-7.19a5,5,0,0,1,1.28-4.59,6.17,6.17,0,0,1,5.45-2.16C434.71,157,437.47,159.68,438.42,163.81Zm-6.3,5.94c3.66.1,6-2.32,5.52-5.92a7.21,7.21,0,0,0-7-6.32c-3.59-.24-6.44,2.24-6,5.94A7.52,7.52,0,0,0,432.12,169.75Z" transform="translate(0 -1)"/><path class="cls-3" d="M437.31,157.35a11.63,11.63,0,0,1,2.21,2.37,26.54,26.54,0,0,1-2.6-1.79c-.27-.14-.88-.63-1.55-1a27.31,27.31,0,0,0-4.52-2.1,16.3,16.3,0,0,0-2.9-.57,7.28,7.28,0,0,0-1.16-.08c-.68,0-1.57,0-2.36.06a20,20,0,0,0-4.95,1.21,4.61,4.61,0,0,0-1.07.56,4.46,4.46,0,0,0-1.21.83,2.17,2.17,0,0,0-.77,1.15,2,2,0,0,1,.3-1.57,2.83,2.83,0,0,1,1.22-1.17,5.53,5.53,0,0,1,1.17-.6,22.4,22.4,0,0,1,5.16-1.27,14.75,14.75,0,0,1,2.49,0,6.37,6.37,0,0,1,1.16.09,26,26,0,0,1,3,.63,23.72,23.72,0,0,1,4.75,2.14C436.43,156.72,437,157.11,437.31,157.35Z" transform="translate(0 -1)"/><path d="M437.64,163.83c.44,3.6-1.86,6-5.52,5.92a7.58,7.58,0,0,1-7.44-6.4c-.48-3.7,2.37-6.18,6-5.95A7.41,7.41,0,0,1,437.64,163.83Zm-1.36,3.26a4.59,4.59,0,0,0,.74-3.41,5.85,5.85,0,0,0-1.81-3.63,8.81,8.81,0,0,0-4-1.92c-.13-.07-.34,0-.47-.08a5.67,5.67,0,0,0-4.42,1.84,3.84,3.84,0,0,0-.85,3.44A7,7,0,0,0,432.1,169,4.62,4.62,0,0,0,436.28,167.09Z" transform="translate(0 -1)"/><path class="cls-3" d="M441.08,185.31c-.21.06-.35.33-.55.4s.1,0-.11,0a2.19,2.19,0,0,1-1.09-.23A4.84,4.84,0,0,1,441.08,185.31Z" transform="translate(0 -1)"/><path d="M437,163.81a4.2,4.2,0,0,1-.74,3.41,4.76,4.76,0,0,1-4.28,1.91,7,7,0,0,1-6.64-5.63,3.77,3.77,0,0,1,.85-3.44,5.61,5.61,0,0,1,4.41-1.84.86.86,0,0,1,.48.08,8,8,0,0,1,4,1.92A5.41,5.41,0,0,1,437,163.81Zm-2-1.64a2,2,0,0,0-1.32-2.42,1.58,1.58,0,0,0-2.28,1.05,2.17,2.17,0,0,0,1.33,2.42A1.64,1.64,0,0,0,435,162.17Z" transform="translate(0 -1)"/><path class="cls-3" d="M439.33,185.51c.23.38.75.22,1.2.2a6.54,6.54,0,0,1-1.9.82l-1.14.35a30.76,30.76,0,0,1-4.18.75c-1,.08-2.2.23-2.88.22a3.35,3.35,0,0,0-.89.05,10.06,10.06,0,0,1-1.82,0,29.9,29.9,0,0,1-4.37-.21c-.93-.05-1.64-.17-2-.17a19.84,19.84,0,0,1-3.34-.89,22.31,22.31,0,0,1,3.32.1c.34,0,1,.12,2,.17s3.14.26,4.27.25a6.93,6.93,0,0,1,1.71,0,2.8,2.8,0,0,1,.79,0c.68,0,1.78-.1,2.77-.19s3.13-.52,4.09-.71a3.36,3.36,0,0,1,1.16-.25,2,2,0,0,1,1.21-.5Z" transform="translate(0 -1)"/><path class="cls-4" d="M433.74,159.72a2.18,2.18,0,0,1,1.33,2.42,1.55,1.55,0,0,1-2.18,1,2.18,2.18,0,0,1-1.32-2.42C431.69,159.68,432.72,159.36,433.74,159.72Z" transform="translate(0 -1)"/><path class="cls-2" d="M434.92,217.39c0,.11,0,.34,0,.45a7.71,7.71,0,0,0-.43-.66C434.48,217.08,434.92,217.39,434.92,217.39Z" transform="translate(0 -1)"/><path class="cls-2" d="M434.92,217.39c-.06-.2-.3-.24-.44-.31a7.46,7.46,0,0,1-.79-1.46,7.7,7.7,0,0,0-.6-1.17,43,43,0,0,0-2.65-4.5c-1.57-2.45-2.87-4.08-4.61-6.37s-3.58-4.21-5.7-6.61c-1-1.15-3.35-3.82-4.63-5a23.3,23.3,0,0,1-1.84-2.26,13.8,13.8,0,0,1-1.86-3c.14.07.17.17.3.24a9.21,9.21,0,0,1,2.16,2.16,29,29,0,0,0,1.84,2.26c1.2,1.32,3.52,4,4.66,5.12,2.11,2.39,3.89,4.45,5.73,6.7a64.2,64.2,0,0,1,4.64,6.48,41.64,41.64,0,0,1,2.69,4.6,9.67,9.67,0,0,0,.59,1.18A5.54,5.54,0,0,1,434.92,217.39Z" transform="translate(0 -1)"/><path class="cls-3" d="M409.39,161.23A27.89,27.89,0,0,0,407,163a7.55,7.55,0,0,0-1.18,1.28,9.45,9.45,0,0,0-1,1.89,5.71,5.71,0,0,0-.4,1.26c-.18.51-.16,1-.31,1.57a21.79,21.79,0,0,0,.13,2.57,7.16,7.16,0,0,0,.32,1.37,8.52,8.52,0,0,0,.75,1.69,3.85,3.85,0,0,0,1.07,1.26,4.22,4.22,0,0,1-2.68-2.79,9.66,9.66,0,0,1-.38-1.58,11.9,11.9,0,0,1-.09-2.81,10.41,10.41,0,0,1,.27-1.67,8.44,8.44,0,0,1,.47-1.39,11.72,11.72,0,0,1,1.17-2.07,15.71,15.71,0,0,1,1.25-1.41A5.11,5.11,0,0,1,409.39,161.23Z" transform="translate(0 -1)"/><path class="cls-2" d="M393.68,189.62a6,6,0,0,1-3.48,1.2,14.16,14.16,0,0,1-2.39,0,38.39,38.39,0,0,1-10.66-2.56,79.68,79.68,0,0,1-9.4-4.65,4.54,4.54,0,0,0,.82.08,19.19,19.19,0,0,0-3.32-1.56l-.14-.07h0c-1.28-.85.85.52-1.28-.85s-7.27-4.75-10.62-7.1c-1.62-1.19-5.61-3.8-7.57-5.34-.47-.42-1.07-.91-1.55-1.33a2.37,2.37,0,0,1-.47-.42,3.81,3.81,0,0,0-.6-.49,14.68,14.68,0,0,1-2.25-2.47,23.68,23.68,0,0,1,2.74,1.87,7.35,7.35,0,0,0,.6.49c.61.49,1.25,1.08,2,1.64,2.2,1.58,5.51,3.83,7.54,5.23,4.05,2.82,6.85,4.88,10.92,7.35a89.74,89.74,0,0,0,12.74,6.67,33.4,33.4,0,0,0,10.19,2.47c.92,0,1.84.1,2.29.08C391.35,189.78,392.24,189.73,393.68,189.62Z" transform="translate(0 -1)"/><path class="cls-2" d="M368.44,183.58a4.54,4.54,0,0,0-.82-.08c-.24,0,.37.11-.14-.07A19.87,19.87,0,0,1,365,182l.13.07A28.84,28.84,0,0,1,368.44,183.58Z" transform="translate(0 -1)"/><path class="cls-2" d="M367.65,183.6a12.64,12.64,0,0,1-2.83-.7c-.37-.11-1.15-.43-2-.72-1.93-.75-5.43-2.15-7.33-3.14s-2.41-1.18-4.17-2.1-3.83-2.09-6-3.46c-1-.7-3.07-2.21-4.29-3.19a7.8,7.8,0,0,0-.91-.74,1.48,1.48,0,0,1-.47-.41c-.17-.18-.47-.42-.64-.6a12.32,12.32,0,0,1-2.07-2.64l.13.08a13.81,13.81,0,0,1,2.53,1.92,3.44,3.44,0,0,1,.61.49,1.39,1.39,0,0,0,.47.42c.17.18.61.49.91.74,1.08.91,3.14,2.41,4.15,3.12,2,1.4,4,2.36,5.83,3.39s2.27,1.1,4.17,2.09,5.16,2.35,7.23,3.18c.88.29,1.39.47,1.9.65s-.37-.11.24,0S366.94,183.14,367.65,183.6Z" transform="translate(0 -1)"/><path class="cls-3" d="M338.76,165.56a7.15,7.15,0,0,1-1.19-.53,7.43,7.43,0,0,1-1.76-1.27,2.1,2.1,0,0,0-.71-.45c-.71-.46-1.42-.92-2.16-1.48-2.3-1.55-5.58-3.69-7.89-4.9s-5.18-2.8-6.91-3.61-1.87-.89-3.16-1.4-1.66-.61-3.06-1.08c-.64-.25-2.14-.69-3-1-.51-.18-1.26-.4-1.77-.58a18.52,18.52,0,0,0-1.88-.54c-.61-.15-1.25-.4-1.87-.55a9.25,9.25,0,0,1-1.9-.65,14,14,0,0,0-1.77-.58,5,5,0,0,1-.92-.39l.11,0a4.59,4.59,0,0,0,.48-.26,2.16,2.16,0,0,0-.82-.08l-.31.09-.1,0-.14-.08a11,11,0,0,1-1.46-.67,7.55,7.55,0,0,1-2.12-1.72,10,10,0,0,1,2.58,1,14.22,14.22,0,0,0,1.46.67c2.1.93,4.86,1.77,7.14,2.53.61.15,1.29.5,1.9.65a18.41,18.41,0,0,1,1.77.58c.89.29,2.28.76,3,1,1.39.47,1.77.58,3.06,1.08a20.45,20.45,0,0,1,3.16,1.39c1.76.92,4.57,2.31,6.91,3.62s5.59,3.35,7.92,5c.74.56,1.55,1,2.16,1.47a3.9,3.9,0,0,0,.71.46A18.78,18.78,0,0,1,338.76,165.56Z" transform="translate(0 -1)"/><path class="cls-3" d="M338.61,154.61a12.76,12.76,0,0,1,2.32,2.33,26.41,26.41,0,0,1-2.84-1.83,17.52,17.52,0,0,1-2.16-1.82c-1.24-1.08-4.28-3.53-5.29-4.57-2.19-1.92-5.35-4.79-6.7-5.84s-.14-.07-.88-.63-.81-.77-1.55-1.33a30.72,30.72,0,0,0-5.18-3.14c-.91-.39-2.2-.89-3.09-1.18s-2.21-.56-3.06-.74-1.3-.16-1.78-.24-.55.06-.85-.19-.06-.54-.36-.79c.58.05.68,0,1.26.06a11.44,11.44,0,0,1,1.81.34c.85.19,2.18.45,3.06.74s2.32.86,3.23,1.25a26.17,26.17,0,0,1,5.18,3.14c.74.56.94.84,1.55,1.33a4.06,4.06,0,0,1,.78.67c.8.76,2.35,2.09,3.63,3.28.61.49,2.29,1.89,3.24,2.72,1.55,1.33,4,3.29,5.39,4.55C337.26,153.56,338.17,154.29,338.61,154.61Z" transform="translate(0 -1)"/><path class="cls-3" d="M337.55,114.69c-.2.07-.58.3-.69.33l-.1,0a6,6,0,0,1-.94-.84c-1.08-.91-1.75-1.61-2.8-2.41s-1.68-1.4-2.93-2.49c-.61-.49-2.12-1.71-3-2.34-.44-.32-1.29-.85-1.89-1.34s-1.39-.81-2.1-1.27a41,41,0,0,0-8.93-3.89c-.89-.29-1.63-.51-2-.61a22,22,0,0,1-3.5-1.06,22.2,22.2,0,0,1,3.69.2c.37.11,1.49.44,2,.62l.14.07a.32.32,0,0,0,.17.18c.13.07,0,.1.2.27a5.11,5.11,0,0,0,1,.6c0-.24-.3-.58-.33-.69s-.14-.07,0-.1c.37.11.88.29,1.26.4l2.34,1c.78.33,1.59.75,2.27,1.11a12.57,12.57,0,0,1,2.2,1.23c.71.46,1.42.92,2.1,1.27s1.46,1,1.89,1.34a34.16,34.16,0,0,1,3.14,2.42c1.25,1.08,1.86,1.57,2.93,2.48s1.72,1.5,2.83,2.51C336.61,113.86,337.35,114.42,337.55,114.69Z" transform="translate(0 -1)"/><path class="cls-2" d="M328.43,146c-.33-.35-.4-.21-.87-.63a6.47,6.47,0,0,1-1.31-1.64,9.14,9.14,0,0,1-.82-1.89,10.31,10.31,0,0,1-.42-3.16,8.68,8.68,0,0,1,.41-1.94,6.62,6.62,0,0,1,1.13-2.17c.07-.14.25-.3.32-.44.46-.71,1.37-2.13,1.76-2.7s.84-1.29,1-1.56a35.36,35.36,0,0,1,2.77-4.16c-.78,1.83-1.36,3.26-2.35,5.16-.14.27-.7,1-1.05,1.69a20,20,0,0,1-2,2.91,4.22,4.22,0,0,0-.92,1.76,4.7,4.7,0,0,0-.31,1.57,11.26,11.26,0,0,0,.37,2.61c.16.51.66,1.38.75,1.69C327.44,144.28,327.87,144.94,328.43,146Z" transform="translate(0 -1)"/><path class="cls-3" d="M326.41,131.22c0,.24-.26,1-.46,1.06s0-.11-.41-.56-.83-1.21-1.43-2a64.63,64.63,0,0,0-4.52-5.73c-.83-.87-1.8-2.15-2.54-3.06s-1.88-2-2.45-2.74-.9-1.08-1.37-1.5a11.47,11.47,0,0,1-.94-1.18c.37.11.69-.33,1-.19s.3.25.64.59a15.35,15.35,0,0,1,1.38,1.5,28.68,28.68,0,0,1,2.41,2.65c.74.9,1.71,2.18,2.55,3,1.57,1.78,3.14,3.89,4.48,5.63.63.93,1,1.28,1.43,2C326.34,131,326.45,131,326.41,131.22Z" transform="translate(0 -1)"/><path class="cls-3" d="M315.69,112.93c.31-.1.89-.05,1.2-.15a5.27,5.27,0,0,1-1,1.11,8.12,8.12,0,0,1-2.53,1.36,1.89,1.89,0,0,0-.74-.56,6.61,6.61,0,0,0,2.66-1.29C315.34,113.27,315.38,113,315.69,112.93Z" transform="translate(0 -1)"/><path class="cls-3" d="M315.81,100.65a5.3,5.3,0,0,1-1-.6c-.17-.17-.17-.17-.2-.28a.42.42,0,0,0-.17-.17c.13.07.75.22.88.29l.14.07C315.61,100,315.74,100.44,315.81,100.65Z" transform="translate(0 -1)"/><path class="cls-3" d="M315.34,99.89c-.3-.25-.58,0-.88-.29a9.2,9.2,0,0,0-2.13-1.72,38.15,38.15,0,0,0-3.62-1.81c-2.38-1.07-5.85-2.36-8.16-3.22s-5.5-2-7-2.46c-3.06-1.08-4.19-1.41-6.87-2.38s-3.3-1.12-6.7-2.21-9.28-3.21-13.36-4.65c-2-.72-4.76-1.8-6.9-2.49a14.62,14.62,0,0,1-1.57-.64,11.8,11.8,0,0,0-1.53-.54l-1.53-.55c-.51-.18-.91-.39-1.42-.57s-1-.36-1.43-.57a3.6,3.6,0,0,1-.78-.32c.34,0,.41-.13.79,0s.78.32,1.29.5a11.33,11.33,0,0,0,1.42.57l1.53.54a11.15,11.15,0,0,1,1.57.65,16.63,16.63,0,0,0,1.66.61c2.18.79,4.89,1.87,6.93,2.59,4.08,1.44,10.07,3.53,13.5,4.72S284.2,87,286.89,88s3.8,1.3,6.86,2.38c1.53.54,4.73,1.69,7,2.55s5.91,2.23,8.39,3.27a40.73,40.73,0,0,1,3.8,2A5.49,5.49,0,0,1,315.34,99.89Z" transform="translate(0 -1)"/><path class="cls-3" d="M313.28,115.38a2.78,2.78,0,0,1-1,.19c-.13-.07-.5-.52-.43-.66s.51-.16.65-.09S313.11,115.21,313.28,115.38Z" transform="translate(0 -1)"/><path class="cls-3" d="M312.51,114.72c-.24,0-.49.27-.65.09s-.44-.66-.64-.93C311.66,114.19,312.07,114.41,312.51,114.72Z" transform="translate(0 -1)"/><path class="cls-3" d="M312.32,115.57c0,.11-.1,0-.2.07a21.35,21.35,0,0,1-4.66,0c-2.86-.46-6.47-1.48-9-2s-5.75-1.72-7.49-2.19c-3.26-1-4.49-1.31-7.34-2.46s-3.57-1.26-7.14-2.87a91.93,91.93,0,0,1-13.82-7.57,50.64,50.64,0,0,1-6.51-5.22,12.47,12.47,0,0,1-1.34-1.39c-.47-.42-.84-.87-1.31-1.29l0-.1h0a.62.62,0,0,0-.31-.25c-.33-.34-.57-.73-.9-1.07a8.21,8.21,0,0,1-1-1.29c-.34-.35-.8-1.11-1-1.28a12.22,12.22,0,0,1-1.12-2.48A18.34,18.34,0,0,1,251,86.27a11.38,11.38,0,0,0,1,1.28,12.4,12.4,0,0,0,1,1.29,10.56,10.56,0,0,0,1.21,1.32c.47.42.84.87,1.31,1.29a8.86,8.86,0,0,1,1.34,1.39A62.73,62.73,0,0,0,263.16,98a99.27,99.27,0,0,0,13.69,7.5c3.56,1.6,4.21,1.85,7,2.9s3.95,1.37,7.21,2.39c1.64.5,5,1.49,7.35,2.11s6.17,1.59,8.69,2a24,24,0,0,0,4.21,0c.65-.09.1,0,.21-.06C312,115,312.19,115.5,312.32,115.57Z" transform="translate(0 -1)"/><path class="cls-3" d="M307.85,137.83a3.2,3.2,0,0,1-.27,1.33c-.09-.31-.43-.65-.49-.86s0-.34,0-.58a9.61,9.61,0,0,0-.43-2.47,2.34,2.34,0,0,0,.75.22A5.72,5.72,0,0,1,307.85,137.83Z" transform="translate(0 -1)"/><path class="cls-3" d="M307.22,134.74c.13.07.19.62.36.8-.13-.07-.61-.15-.75-.22s-.26-.49-.26-.49S307.08,134.67,307.22,134.74Z" transform="translate(0 -1)"/><path class="cls-3" d="M307.05,134.57s.14.07,0,.1-.51.16-.68,0c0,0,.23.38,0-.1a14.27,14.27,0,0,0-2.18-2.61,30,30,0,0,0-6.4-3.77c-2-.86-4.72-2-6.11-2.51a59.84,59.84,0,0,0-6.64-2c-2.83-.7-3.2-.81-7-1.67s-10.68-1.87-15.56-2.26c-2.46-.25-6.29-.53-9-.58-.68,0-1.5-.09-2.18-.11s-1.48,0-2.16,0-1.47,0-2,0a12.24,12.24,0,0,0-1.92,0,18.41,18.41,0,0,0-2,.06c-1.37,0-2.29-.07-3.55-.13a18.71,18.71,0,0,1,3.25-.46c.35,0,1.48,0,2-.06s1.37,0,1.92,0l2.05,0,.11,0c.68,0,1.47,0,2.15,0s1.61.07,2.29.08c2.74,0,6.7.4,9.16.64,4.92.5,11.95,1.59,15.7,2.34s4.26.93,7.09,1.64a61.23,61.23,0,0,1,6.66,2.1,52.35,52.35,0,0,1,6.25,2.58,32.22,32.22,0,0,1,6.54,3.84A12.27,12.27,0,0,1,307.05,134.57Z" transform="translate(0 -1)"/><path class="cls-3" d="M306.43,134.76c.24,0,.13.42.27.49a9.4,9.4,0,0,1-1.26-.4C305.68,134.89,306.19,134.73,306.43,134.76Z" transform="translate(0 -1)"/><path class="cls-3" d="M299.45,146.13c0,.11-.48.27-.48.27l-.11,0a1.92,1.92,0,0,1-.64-.25l.1,0c.11,0,.18-.17.31-.1A2.16,2.16,0,0,0,299.45,146.13Z" transform="translate(0 -1)"/><path class="cls-3" d="M298.15,146.32c.34,0,.4.21.64.25a6.31,6.31,0,0,1-2.43.19,15.61,15.61,0,0,1-3.34-.54c-2.18-.45-5-1.39-7-2s-4.8-1.56-6.29-2c-2.9-.91-3.88-1.17-6.64-2s-3.27-1-6.8-2.18-10.17-3.5-14.73-5c-2.28-.76-5.78-2.16-8.26-3.2-.64-.25-1.32-.6-2-.85a16.67,16.67,0,0,1-1.84-.79c-.54-.28-1.19-.53-1.73-.82s-1.19-.53-1.59-.74a14.8,14.8,0,0,1-1.63-.85,17.24,17.24,0,0,1-2.47-1.38c1.05.46,2,.85,3,1.32l.27.14a9.59,9.59,0,0,1,1.36.71c.4.21,1.05.46,1.59.75s1.19.53,1.73.81,1.29.51,1.83.79,1.33.61,2,.86c2.38,1.07,5.95,2.33,8.12,3.12,4.49,1.65,11.06,3.79,14.63,5.05s4.15,1.31,6.8,2.18,3.64,1.13,6.53,2c1.4.47,4.29,1.38,6.19,2s4.8,1.56,6.88,2c1,.26,2.15.35,3.1.5A6.58,6.58,0,0,1,298.15,146.32Z" transform="translate(0 -1)"/><path class="cls-2" d="M253.52,90.35h0c-.11,0-.17-.17-.17-.17Z" transform="translate(0 -1)"/><path class="cls-2" d="M253.35,90.18a.4.4,0,0,1,.2.28,19.18,19.18,0,0,1-4.36-1.25,18.92,18.92,0,0,0-1.8-.68,39.22,39.22,0,0,0-5-1.39c-1.33-.26-2.42-.49-3.72-.65s-2.08-.14-3.69-.2a52.17,52.17,0,0,0-6.71.29c-1.44.11-3.19.32-3.94.44-2,.27-2.82.43-4.36.57-.89,0-1.44.11-2.33.16a28.35,28.35,0,0,1,7.05-2.09c.76-.13,2.61-.37,4.05-.48s5.24-.28,6.85-.21,2.42.14,3.72.3,2.39.39,3.72.65a51.65,51.65,0,0,1,5.1,1.46,11.4,11.4,0,0,1,1.7.72A9.08,9.08,0,0,1,253.35,90.18Z" transform="translate(0 -1)"/><path class="cls-2" d="M244,113.62c1.86.89,3,1.66,4.67,2.62a17.71,17.71,0,0,1-5.31-1.4,10.81,10.81,0,0,1-2-1.06,53.69,53.69,0,0,1-4.67-3c-.61-.49-1.49-1.12-2-1.54s-.3-.25-.91-.74-1.41-1.26-2.22-2a34.45,34.45,0,0,1-3.32-3.72,17.17,17.17,0,0,1-1.77-2.4,8.62,8.62,0,0,1-1.39-4.78c.37.45.61.83,1,1.29a17.3,17.3,0,0,1,1.87,2.7c.27.48,1,1.49,1.64,2.32a39.53,39.53,0,0,0,3.18,3.65c.81.77,1.61,1.54,2.12,2.06s.44.31.91.73,1.35,1,1.82,1.47a48.83,48.83,0,0,0,4.53,2.89C243.11,113.23,243.76,113.48,244,113.62Z" transform="translate(0 -1)"/><path class="cls-2" d="M253.41,75.19a3.76,3.76,0,0,1-1.2.15c-.2.07-.13-.07-.24,0a12.35,12.35,0,0,0-2.24-.65,16.46,16.46,0,0,0,1.73.82,6.34,6.34,0,0,1-2.29-.42,14.68,14.68,0,0,1-1.9-.65,45.65,45.65,0,0,1-4.38-2c-.57-.39-1.39-.81-2-1.2s-.27-.14-.88-.63-1.35-1.05-2.33-1.65-3.34-2.35-4.15-3.12a29.59,29.59,0,0,1-2.18-2.27A17.79,17.79,0,0,1,228.73,59c1.41,1.26,2.25,2.13,3.73,3.59.34.35,1.35,1.39,2.15,2.16s2.93,2.48,3.81,3.11,1.62,1.2,2.2,1.58.41.22.84.53a17.82,17.82,0,0,0,1.83,1.13,29.72,29.72,0,0,0,4.24,2c.89.29,1.53.54,1.77.58A39.73,39.73,0,0,1,253.41,75.19Z" transform="translate(0 -1)"/><path class="cls-2" d="M252.08,75.27s.24,0,.13.07a.87.87,0,0,1-.68,0c-.51-.18-1.09-.57-1.73-.82C250.68,74.8,251.33,75.05,252.08,75.27Z" transform="translate(0 -1)"/><path class="cls-2" d="M235.53,125.58h0a44.29,44.29,0,0,1-4.71-2.72,16.22,16.22,0,0,0-1.93-1.1,26.24,26.24,0,0,0-4.37-2,19.34,19.34,0,0,0-2.25-.65,7.92,7.92,0,0,0-1.09-.23c-.72-.11-1.7-.37-2.87-.46s-4-.21-5.16-.2-3,.15-3.56.21c-2.43.2-3.87.31-6,.3a19.3,19.3,0,0,1,5.85-1.6c.65-.09,2.53-.23,3.77-.27s4.2,0,5.37.13,2.14.34,3,.53a7.76,7.76,0,0,0,1.09.22c.61.15,1.63.51,2.24.66a22.72,22.72,0,0,1,4.52,2.1,14.23,14.23,0,0,1,2,1.2A16.58,16.58,0,0,1,235.53,125.58Z" transform="translate(0 -1)"/><path class="cls-2" d="M224.86,106.7l.82-.26a1.91,1.91,0,0,1-.8.71S224.78,106.84,224.86,106.7Z" transform="translate(0 -1)"/><path class="cls-2" d="M224.91,107.25a3.56,3.56,0,0,1,0,1c-.07-.21-.44-.66-.5-.87S224.88,107.15,224.91,107.25Z" transform="translate(0 -1)"/><path class="cls-2" d="M224.86,106.7c.13.07.09.31,0,.45s-.38.23-.51.16-.27-.48-.3-.59.1,0,.1,0A1.47,1.47,0,0,0,224.86,106.7Z" transform="translate(0 -1)"/><path class="cls-2" d="M224.86,106.7c.06.21-.55.06-.55.06s-.11,0-.24,0c-.27-.48-.36-.79-.63-1.27a13.21,13.21,0,0,0-1-1.63,8.3,8.3,0,0,0-1-1.28,8.67,8.67,0,0,1-.7-.8l-.92-.74a15.18,15.18,0,0,0-1.55-1,7.75,7.75,0,0,0-1.22-.64c-1.19-.54-2.11-.93-3.19-1.5a9.58,9.58,0,0,1,4,.69,11.63,11.63,0,0,1,1.25.74,18.9,18.9,0,0,1,1.59,1.09c.44.32.64.59.94.84a3.72,3.72,0,0,1,.7.8,9.44,9.44,0,0,1,1,1.39,7.09,7.09,0,0,1,.89,1.76A2.82,2.82,0,0,1,224.86,106.7Z" transform="translate(0 -1)"/><path class="cls-2" d="M224,106.76c.37.1.12.41.4.55a6.49,6.49,0,0,1-2.4,0,21.39,21.39,0,0,1-2.14-.69c-2.42-.83-5.31-1.74-8-2.71s-6.33-2.1-9-2.87a9.91,9.91,0,0,1-1.53-.54,7.52,7.52,0,0,1-2-1.3c0-.1.35,0,.31-.1s0-.24,0-.44a11.51,11.51,0,0,1,2.41.83,5,5,0,0,0,.92.39l-.1,0c.29.59.53.63,1.25.74.24,0,.75-.12,1,0,2.39.73,4.67,1.49,7.18,2.29s5.58,1.88,7.86,2.64c.88.29,1.39.47,2,.72A5.67,5.67,0,0,0,224,106.76Z" transform="translate(0 -1)"/><path class="cls-2" d="M234.18,79.29A7.67,7.67,0,0,1,233,80c-.11,0-.24-.38-.13-.41S233.87,79.39,234.18,79.29Z" transform="translate(0 -1)"/><path class="cls-2" d="M232.83,80.06a1.24,1.24,0,0,1-.36,1c.07-.14-.19-.62-.12-.76S232.9,79.92,232.83,80.06Z" transform="translate(0 -1)"/><path class="cls-2" d="M232.93,80c-.1,0-.48.27-.48.27s-.3-.25-.34-.35-.23,0-.13-.07l.82-.26C232.91,79.58,232.9,79.92,232.93,80Z" transform="translate(0 -1)"/><path class="cls-2" d="M232.77,79.51h0c-.2.06-.55.4-.93.29s-.6-.49-1.11-.67a13.38,13.38,0,0,0-1.91-.65c-2.38-.73-5.82-1.58-8-2.47s-4-1.48-6-2.44c-.27-.14-.36-.45-.53-.62a1.88,1.88,0,0,0-1.23-.3l0,.1a4.7,4.7,0,0,0-.84-.52,6.69,6.69,0,0,1-1.49-1.13l.31-.09c.11,0-.2-.28-.06-.21a4.76,4.76,0,0,1,1.7.71,3.66,3.66,0,0,0,.94.5c2.35,1,5.1,2.15,7.65,3s5.65,1.74,8.16,2.54a12.53,12.53,0,0,1,2.08.82A2,2,0,0,1,232.77,79.51Z" transform="translate(0 -1)"/><path class="cls-2" d="M232,80c.14.07.51.18.23.38a14.57,14.57,0,0,1-2.1.89,26.41,26.41,0,0,1-2.64.6c-.55.06-1.93.38-2.61.37s-1,.08-1.54.14a9.82,9.82,0,0,1-1.71,0,13.85,13.85,0,0,1-2.46-.25c-.48-.08-1.23-.3-1.47-.34a4.36,4.36,0,0,1-2.39-1.85c1.09.22,1.87.54,3.09.84.24,0,.86.19,1.33.26a12.58,12.58,0,0,0,2.33.18c.58,0,1.13,0,1.6.07a5.64,5.64,0,0,0,1.44-.12c.55,0,2-.27,2.51-.33.86-.15,1.78-.44,2.54-.57a7.67,7.67,0,0,1,1.68-.41C232.19,79.81,232,79.87,232,80Z" transform="translate(0 -1)"/><path class="cls-2" d="M225.06,91.79a8.56,8.56,0,0,1,1,4.91c-1-1.28-1.56-2.46-2.67-3.81a4,4,0,0,0-1.48-1.12,10.88,10.88,0,0,0-2-.62,15.28,15.28,0,0,0-1.54-.2c-.58,0-.79,0-1.37,0a8.44,8.44,0,0,0-2.2.58,3,3,0,0,0-1.65,2.33,2.47,2.47,0,0,0,.48,2.23,3.93,3.93,0,0,0-.84.6c-.2.07-.21.41-.45.37a2.12,2.12,0,0,1-1.22-2.45,4.75,4.75,0,0,1,.44-1.5,5.68,5.68,0,0,1,.95-1.31,5.84,5.84,0,0,1,.8-.71c.27-.2.65-.43,1-.66a3.78,3.78,0,0,1,1.11-.46,15.93,15.93,0,0,1,2.13-.44c.55-.06,1,0,1.57,0a6.41,6.41,0,0,1,1.67.27,14.48,14.48,0,0,1,2.28.76A4.71,4.71,0,0,1,225.06,91.79Z" transform="translate(0 -1)"/><path class="cls-2" d="M228.89,72.56c1.51.1,2.33.18,3.63.34a11.87,11.87,0,0,1-3.81.51c-.24,0-.79,0-1.61-.06A22.47,22.47,0,0,1,220,71.51a17.35,17.35,0,0,1-2.54-1.59,7,7,0,0,1-.94-.83,10.63,10.63,0,0,0-.81-.77,23.9,23.9,0,0,1-1.74-1.95,22.68,22.68,0,0,0-2-2.33,2.29,2.29,0,0,0-2.35-.28,1.65,1.65,0,0,0-1,1.21,3.07,3.07,0,0,0-.1,1.51,3,3,0,0,0,.52,1.31c-.27-.14-.64-.25-.71-.46l-.09-.31a2.38,2.38,0,0,0-.37-.79s-.14.27-.17.16a2.46,2.46,0,0,1,.1-1.5,3.28,3.28,0,0,1,1.47-1.82,2.93,2.93,0,0,1,3.14.26,26.34,26.34,0,0,1,2.35,2.44,12.46,12.46,0,0,0,1.74,2c.2.27.31.24.48.42s0,.1.33.34a6.21,6.21,0,0,0,.94.84,28.81,28.81,0,0,0,2.54,1.59,20.54,20.54,0,0,0,6.81,1.83A2,2,0,0,1,228.89,72.56Z" transform="translate(0 -1)"/><path class="cls-2" d="M231.89,68a6.85,6.85,0,0,1,1.48,2.93c-.84-.87-1.34-1.39-2.21-2.37a13.87,13.87,0,0,0-1.35-1.39c-.2-.28-1-.94-1.31-1.29a8.54,8.54,0,0,1-.91-.73,6.81,6.81,0,0,0-1-.81,16,16,0,0,0-1.7-1.06,3.35,3.35,0,0,1,.46-.71c.54.29,1.25.74,1.8,1a9.61,9.61,0,0,0,1.15.77l.91.74c.33.34,1.14,1.11,1.44,1.36C231,67,231.69,67.72,231.89,68Z" transform="translate(0 -1)"/><path class="cls-2" d="M215.38,108.65a9.37,9.37,0,0,1,2.38,2.54c-1.12-.67-1.93-1.09-3.08-1.87a13.23,13.23,0,0,0-1.28-.84,30.64,30.64,0,0,0-7-2.45,37,37,0,0,0-5-.57c-1,0-.55.06-1,0a1.39,1.39,0,0,1-.58,0c-1,0-1.81,0-2.84,0a7.08,7.08,0,0,1-3.17-.37,4.09,4.09,0,0,1-2.15-2.5,2.83,2.83,0,0,1,.32-2.25,2.23,2.23,0,0,1,1.07-.91c.11,0-.07.14.07.21a1.7,1.7,0,0,0,.75-.13c.21-.06.18-.16.38-.23a1.06,1.06,0,0,1,.78.32,3.2,3.2,0,0,0-1.37.32,2,2,0,0,0-.87.84,2.23,2.23,0,0,0-.17,1.64,2.8,2.8,0,0,0,1.48,1.81,9.51,9.51,0,0,0,2.83.36c1,0,2,0,2.94,0s.34,0,1.58,0a43.68,43.68,0,0,1,5.29.61,29,29,0,0,1,7.27,2.59A15.57,15.57,0,0,0,215.38,108.65Z" transform="translate(0 -1)"/><path class="cls-2" d="M212.79,113.43a39.85,39.85,0,0,1,4-.34,12.46,12.46,0,0,1-3.82,1.2c-.45,0-1.65.17-2.43.19-.35,0-1.58,0-2,.07a5,5,0,0,1-1.27-.06,6.85,6.85,0,0,1-1.4-.12c-.48-.08-1.67-.27-2-.28s-.35,0-.38-.11a2.41,2.41,0,0,1,.22-.75c.07-.13,0,0,.34,0s1.44.23,1.91.31.93,0,1.4.12.69,0,1.13,0,1.58,0,1.92,0C211.25,113.57,212.45,113.42,212.79,113.43Z" transform="translate(0 -1)"/><path class="cls-2" d="M215.86,97.17a5.58,5.58,0,0,1-2.33.16c-.1,0,.21-.07.17-.17s.42-.47.49-.61A4.53,4.53,0,0,0,215.86,97.17Z" transform="translate(0 -1)"/><path class="cls-2" d="M228.66,59.14a4.51,4.51,0,0,1,.1,1.78c-.42-1-.79-1.79-1.35-2.86-.06-.21-.4-.55-.66-1a5.31,5.31,0,0,0-2.23-1.68,3.66,3.66,0,0,0-1.71-.37,3.38,3.38,0,0,0-1.47.35,4,4,0,0,0-1.78,1.91,1.77,1.77,0,0,0,.14,1.55,3.42,3.42,0,0,0,2.09,1.95c-.24,0-.31.1-.55.06a2.52,2.52,0,0,1-2.2-1.58,3.16,3.16,0,0,1-.13-2.23,5.37,5.37,0,0,1,2.17-2.49,3.44,3.44,0,0,1,1.79-.45,4.49,4.49,0,0,1,2.07.49,8.38,8.38,0,0,1,2.57,2c.4.55.63.93.83,1.21A6.59,6.59,0,0,0,228.66,59.14Z" transform="translate(0 -1)"/><path class="cls-2" d="M214.48,95.67c0,.1-.11.72-.22.75s-.44-.32-.44-.32-.1,0,0-.1S214.35,95.6,214.48,95.67Z" transform="translate(0 -1)"/><path class="cls-2" d="M213.72,96.13c0,.11.41.22.47.42s-.42.48-.49.61-.07.14-.27.2a2.58,2.58,0,0,1-.86-.19c-.13-.07-.1,0-.13-.07s.28-.2.35-.33c.27-.2.83-.6.93-.64S213.69,96,213.72,96.13Z" transform="translate(0 -1)"/><path class="cls-2" d="M212.68,97.14a1.78,1.78,0,0,0,.85.19,18.82,18.82,0,0,1-2.22,1.6,8.83,8.83,0,0,1-2.07,1l-2.17.68a4.25,4.25,0,0,1-1.64.17c-.48-.07-1.53-.54-1.77-.57s-.48-.08-.38-.11a5.41,5.41,0,0,1,1.65-.18,17.87,17.87,0,0,0,2.33-.16,5.85,5.85,0,0,0,1.86-.59,11.63,11.63,0,0,0,1.76-.89c.58-.29,1.11-.8,1.8-1.13Z" transform="translate(0 -1)"/><path class="cls-2" d="M219.9,87.62a31.88,31.88,0,0,1-4.24,1.67,14.51,14.51,0,0,1-2.89.57,5.59,5.59,0,0,1-2.66-.19,4.65,4.65,0,0,1-2-1.06,7.26,7.26,0,0,1-.94-1.18,3.22,3.22,0,0,1-.32-1.38,8.2,8.2,0,0,1,.53-3,6.37,6.37,0,0,1,2-2.56c.65-.43,1.17-.6,1.45-.8a3.89,3.89,0,0,1,2.84-.32c.24,0-.14.27-.21.4a3.91,3.91,0,0,0-.43.82,5.79,5.79,0,0,0-2.33.5,6.86,6.86,0,0,0-1.07.57,3.58,3.58,0,0,0-1.19,1.27,4.17,4.17,0,0,0-.27,2,2.15,2.15,0,0,0,.35,1.13,2.94,2.94,0,0,0,.87,1,6.2,6.2,0,0,0,1.8,1,3.59,3.59,0,0,0,1.3.16,3,3,0,0,0,.89,0C215.75,88.13,217.81,87.83,219.9,87.62Z" transform="translate(0 -1)"/><path class="cls-2" d="M225.83,60.6a9.66,9.66,0,0,1-.52,2l-.68-.35A16.21,16.21,0,0,0,225.83,60.6Z" transform="translate(0 -1)"/><path class="cls-2" d="M225.31,62.57a1.51,1.51,0,0,1-.46.71,1.25,1.25,0,0,1-.67-.35,1.54,1.54,0,0,1,.45-.71C224.77,62.29,225.28,62.47,225.31,62.57Z" transform="translate(0 -1)"/><path class="cls-2" d="M224.78,63.42c0,.1-.07.13-.31.44A15.61,15.61,0,0,1,223,65.34a8.34,8.34,0,0,1-.76.46,3,3,0,0,1-.86.5A11.56,11.56,0,0,1,220,67a5.43,5.43,0,0,1-3.26.45l-.1,0,3.1-1.32a8.92,8.92,0,0,0,1.28-.62,8.17,8.17,0,0,1,.76-.47c.2-.06.55-.4.65-.43.46-.37,1.12-1.14,1.4-1.35s.14-.27.24-.3S224.72,63.21,224.78,63.42Z" transform="translate(0 -1)"/><path class="cls-2" d="M224.63,62.22c0,.1-.38.57-.45.71a.49.49,0,0,1-.41-.21c-1-.5-1.9-1-2.74-1.52a8.77,8.77,0,0,1,3.09.84C224.23,62,224.6,62.12,224.63,62.22Z" transform="translate(0 -1)"/><path class="cls-2" d="M214.9,80.35a4.33,4.33,0,0,1,.46,1.1,4.46,4.46,0,0,0-1.57-.64c.18-.17.49-.61.6-.64s0-.24.17-.17S214.83,80.14,214.9,80.35Z" transform="translate(0 -1)"/><path class="cls-2" d="M205.32,100.81a3.51,3.51,0,0,1-1,0c-.72-.12-1-.26-1.26-.74l.11,0h0c.16.18,0,0,.4.22A14,14,0,0,0,205.32,100.81Z" transform="translate(0 -1)"/><path class="cls-2" d="M215.32,77.72a7.85,7.85,0,0,1-.82,2.07c-.18.17-.31-.24-.41-.21s-.34,0-.27-.14a14.24,14.24,0,0,0,.54-1.53c.08-.48.12-1.06.2-1.54a2.75,2.75,0,0,0-.29-1.27,4,4,0,0,0-.86-1.31,2,2,0,0,1-.53-1h0a14.85,14.85,0,0,1,1.73.82c.27.14.43.65.49.86a3.39,3.39,0,0,1,.35,1.48A3.31,3.31,0,0,1,215.32,77.72Z" transform="translate(0 -1)"/><path class="cls-2" d="M214.53,79.9c0,.1-.07.13-.14.27s-.39.57-.6.64a.82.82,0,0,1-.47-.08c-.11,0-.21.06-.14-.07a1.78,1.78,0,0,1,.43-.81c.07-.14.1-.38.21-.41a.24.24,0,0,1,.27.14C214.12,79.68,214.5,79.79,214.53,79.9Z" transform="translate(0 -1)"/><path class="cls-2" d="M213.42,80.7s.44,0,.37.11-.73.57-.73.57.18-.51.15-.62S213.32,80.73,213.42,80.7Z" transform="translate(0 -1)"/><path class="cls-2" d="M203.61,110.19a1.27,1.27,0,0,1,.09.65c.06.55.15,1.54.14,1.88s0,.45-.08.48-.82-.08-.85-.19,0,0,0-.34a7.46,7.46,0,0,0-.07-1.68c0-.1,0-.44-.06-.55l-.2-.62c-.09-.3-.42-1-.46-1.1a26.13,26.13,0,0,0-1.76-2.73,6.39,6.39,0,0,1,2.59,2.47c.06.21.39.9.52,1.31C203.52,109.53,203.65,110,203.61,110.19Z" transform="translate(0 -1)"/><path class="cls-2" d="M203.76,113.2a1.34,1.34,0,0,1-.21.75c-.11,0-.72-.12-.75-.22s0-.69.11-.72S203.73,113.1,203.76,113.2Z" transform="translate(0 -1)"/><path class="cls-2" d="M204.89,117.15a5.66,5.66,0,0,1-1.43,1.24,9.41,9.41,0,0,1-1.58.73,4,4,0,0,1-1.51.24,9.71,9.71,0,0,1-3-.63,4.72,4.72,0,0,1-1.75-1.27,3.37,3.37,0,0,1-.86-1.65,5.57,5.57,0,0,1,0-2.84,2.46,2.46,0,0,1,1.42-1.24,3.46,3.46,0,0,1,2.6.32c.37.11.47.42.77.66a5.66,5.66,0,0,0-1.5-.44,6.23,6.23,0,0,0-1.44.12,1.57,1.57,0,0,0-1.07.9,3,3,0,0,0,0,2.26,6.44,6.44,0,0,0,.77,1.35,3.21,3.21,0,0,0,1.45,1,12,12,0,0,0,2.66.53,11.5,11.5,0,0,0,1.3-.18C202.86,117.9,203.75,117.51,204.89,117.15Z" transform="translate(0 -1)"/><path class="cls-2" d="M202.8,113.73a4.93,4.93,0,0,0,.85.19,4.63,4.63,0,0,1-1.19,1.62C202.6,114.92,202.65,114.34,202.8,113.73Z" transform="translate(0 -1)"/><path class="cls-2" d="M202.78,112.94c0,.1,0,.69-.12.72s-.34,0-.37-.11a7.9,7.9,0,0,1-3.12-1.63c1.12.33,2.21.55,3.44.85C202.64,112.87,202.88,112.91,202.78,112.94Z" transform="translate(0 -1)"/><path class="cls-2" d="M214.17,73a1.57,1.57,0,0,1,.54.62c-.54-.28-1.19-.53-1.73-.81h0l0-.11A1.64,1.64,0,0,1,214.17,73Z" transform="translate(0 -1)"/><path class="cls-2" d="M199.81,99.13a.37.37,0,0,1-.34,0,5.71,5.71,0,0,1-.67-.7,4.17,4.17,0,0,1,1.09.23A.77.77,0,0,1,199.81,99.13Z" transform="translate(0 -1)"/><path class="cls-2" d="M199.36,99.16c-.07.14-.44,0-.71-.12a9.89,9.89,0,0,0-1.26-.4,3.56,3.56,0,0,0-1,0c-.31.09-.75.12-1.16.25s-.8.36-1,.43a1.22,1.22,0,0,1-.69,0c-.13-.07-.38.24-.31.1a.86.86,0,0,1,.46-.71,10.21,10.21,0,0,1,1.69-.76,5.74,5.74,0,0,1,1.41-.21,4.93,4.93,0,0,1,1.26.06,6.46,6.46,0,0,1,1.5.43c.27.15.47.42.4.56s-.85-.19-1.06-.12S199.44,99,199.36,99.16Z" transform="translate(0 -1)"/><path class="cls-2" d="M210.82,71s-.17.17-.31.09a4.67,4.67,0,0,1-.64-.59,5.06,5.06,0,0,1,.86.19C210.89,70.83,210.93,70.94,210.82,71Z" transform="translate(0 -1)"/><path class="cls-2" d="M210.76,70.76a2.79,2.79,0,0,0-.85-.19c.06.21.6.49.53.63s-.31.1-.58,0a4,4,0,0,1-1-.81,3.16,3.16,0,0,1-.74-.9c-.2-.28-.33-.69-.53-1A6.42,6.42,0,0,1,207.2,67a1.42,1.42,0,0,1,.29-.88c.1,0,.1.31.16.51s.2.28.37.45a2.74,2.74,0,0,0,.29.93,3.32,3.32,0,0,0,.5.87c.2.28.37.45.57.73a2.65,2.65,0,0,0,.87.63C210.66,70.45,210.69,70.55,210.76,70.76Z" transform="translate(0 -1)"/><path class="cls-2" d="M193.41,99.33a1.43,1.43,0,0,1,.68,0,.54.54,0,0,0-.28.2,2.09,2.09,0,0,1-.75.12s-.06-.21,0-.24h0C193.23,99.49,193.3,99.36,193.41,99.33Z" transform="translate(0 -1)"/><path class="cls-2" d="M208.13,66.71c0,.1.1.31,0,.34s-.23-.38-.37-.45l-.16-.52c0-.1.07-.13.18-.16A2.8,2.8,0,0,1,208.13,66.71Z" transform="translate(0 -1)"/><path d="M473.89,231a3,3,0,0,1,1.19-1.62c.1,0,.38-.23.59-.3l.51-.16a10,10,0,0,1,1.51-.25,11.85,11.85,0,0,1,4.27.59,17.84,17.84,0,0,1,4.34,2.27,13.68,13.68,0,0,1,4.92,5.94,11.34,11.34,0,0,1,.54,2.1c.23.72,0,.1.06.89a11.84,11.84,0,0,1-.29,2.7,13.75,13.75,0,0,1-1.11,2.61,22.85,22.85,0,0,0-1.59,2.88,2.67,2.67,0,0,0,.56,2.89,2.35,2.35,0,0,0,1.4.47,1.73,1.73,0,0,0,1.14-.7,3,3,0,0,0,.29-1.23,8.21,8.21,0,0,0-.91-2.2,8.32,8.32,0,0,1,1,.8,1.87,1.87,0,0,1,.6,1.18h0a2.7,2.7,0,0,1-.34,1.8,6.24,6.24,0,0,1-.67.78,1.82,1.82,0,0,1-1,.32c-.24,0-.21.07-.34,0a2.37,2.37,0,0,1-1.67-.61,3,3,0,0,1-1-1.73,4.12,4.12,0,0,1,.1-1.84,23.66,23.66,0,0,1,1.56-3,23.15,23.15,0,0,0,1-2.48,11.37,11.37,0,0,0,.33-2.6,2,2,0,0,0-.06-.89,5.12,5.12,0,0,0-.48-1.89,11.73,11.73,0,0,0-4.55-5.49,21.59,21.59,0,0,0-3.93-2.05,11.44,11.44,0,0,0-3.82-.62,10.27,10.27,0,0,0-1.41.21l-.41.13c-.21.07-.38.24-.49.27-.48.26-.86.5-1.24.73" transform="translate(0 -1)"/><path d="M493,249.89a10.27,10.27,0,0,1,.52-2.66c.18-.51.51-1.64.8-2.52a23.17,23.17,0,0,0,.86-3.78,4.45,4.45,0,0,1,.72-2,3,3,0,0,1,2.11-1.23,3.51,3.51,0,0,1,2.31.52,14.51,14.51,0,0,1,1.76,1.26c.91.74,2.33,2,2.93,2.49,1.11,1,2.22,2,3,2.68s.3.25.84.87a20.49,20.49,0,0,1,1.91,2.13A32.78,32.78,0,0,1,513,251a11.26,11.26,0,0,0,2.78,3.43,2.56,2.56,0,0,0,1.84.45,2.67,2.67,0,0,0,1.46-1.14,2.84,2.84,0,0,0,.41-1.94,2.71,2.71,0,0,0-.86-1.66,3.58,3.58,0,0,0-1.29-.84A6.68,6.68,0,0,0,516,249a5,5,0,0,0-1.23.05,2.87,2.87,0,0,1,1.14-.7l.11,0a2.35,2.35,0,0,1,1.53.2,4.33,4.33,0,0,1,1.69,1,4.52,4.52,0,0,1,1.13,2.15,3.37,3.37,0,0,1-.49,2.42,3.44,3.44,0,0,1-1.81,1.47,2.93,2.93,0,0,1-2.42-.49,13.11,13.11,0,0,1-3.08-3.68,25.23,25.23,0,0,0-2.27-3.26,18.25,18.25,0,0,0-1.88-2,10.22,10.22,0,0,1-.83-.87c-.68-.69-1.79-1.71-2.87-2.62-.6-.49-2.12-1.71-2.93-2.48a16.16,16.16,0,0,0-1.62-1.19,3.09,3.09,0,0,0-1.84-.44,1.92,1.92,0,0,0-1.52.93,5,5,0,0,0-.68,1.8,19.27,19.27,0,0,1-.89,3.68c-.39.91-.62,2-.8,2.51C493.79,248.6,493.55,248.9,493,249.89Z" transform="translate(0 -1)"/><path d="M520,226.8a3.14,3.14,0,0,1,1.32.6,4.29,4.29,0,0,1,1.24,1.77,2.82,2.82,0,0,1-.21,2.22,3.91,3.91,0,0,1-1.64,1.31,4.07,4.07,0,0,1-2,.17,22.7,22.7,0,0,1-3.57-1.27,8.86,8.86,0,0,0-5-.36,2.69,2.69,0,0,0-.86.16,2.72,2.72,0,0,1-.86.15c-.52.16-1.37.32-2,.51a1.68,1.68,0,0,0-1,.67,1.46,1.46,0,0,0-.26,1.33,10.89,10.89,0,0,0,1.61,3.35,48.65,48.65,0,0,0,5,6.59,10.76,10.76,0,0,0,1.18,1.22c.3.24.2.27.37.45a3.24,3.24,0,0,1,.5.52,15.7,15.7,0,0,1,2,2.33l0,.1a.1.1,0,0,0-.13-.07,13.89,13.89,0,0,1-2.37-1.75,4.25,4.25,0,0,1-.5-.52c-.17-.18-.14-.08-.47-.42a11.06,11.06,0,0,1-1.21-1.33,50,50,0,0,1-5.18-6.76,11.8,11.8,0,0,1-1-1.83,13.6,13.6,0,0,1-.72-1.93,2.45,2.45,0,0,1,.55-1.87,3.93,3.93,0,0,1,1.32-.87c.72-.23,1.58-.38,2.09-.54a2.08,2.08,0,0,1,.86-.16,2.69,2.69,0,0,1,.86-.16c.55,0,1.3-.18,2.19-.23a11.88,11.88,0,0,1,3.14.6,19.79,19.79,0,0,0,3.47,1.3,3,3,0,0,0,3-1,1.78,1.78,0,0,0,.2-1.54,2.62,2.62,0,0,0-1-1.28,2.23,2.23,0,0,0-1.4-.47,4.14,4.14,0,0,0-1.16.25,4.62,4.62,0,0,0-1.08.56,4,4,0,0,1,.81-1" transform="translate(0 -1)"/></g></g></svg>