<svg id="Layer_1" data-name="Layer 1" xmlns="http://www.w3.org/2000/svg" viewBox="0 0 720 480"><defs><style>.cls-1{fill:#cfc3b4;}.cls-2{fill:#3c3c3c;}.cls-3{fill:#202020;}.cls-4{fill:#fff;}</style></defs><title>5</title><g id="_3" data-name="3"><path class="cls-1" d="M720,1V481H0V1Z" transform="translate(0 -1)"/><g id="_Group_" data-name="&lt;Group&gt;"><path class="cls-2" d="M637.11,347.73c-.21,0-.42.13-.54,0s-.43-.09-.55-.19a3.5,3.5,0,0,0-1.51.08h-.11l-.32,0c-.44-.08-1-.16-1.75-.34a45.41,45.41,0,0,1-5.17-1.45,26.5,26.5,0,0,1-3.11-1.35,26.94,26.94,0,0,1-3.36-2.1,23.12,23.12,0,0,1-4.35-4.32,6.12,6.12,0,0,1-.83-1.25,7.72,7.72,0,0,1-1-1.9c-.25-.64-.39-1.17-.64-1.81.82,1.15,1.4,1.88,2.22,3.13a6.49,6.49,0,0,0,.82,1.15,18.68,18.68,0,0,0,4.12,4.11,23.72,23.72,0,0,0,3.25,2c1.12.59,1.78.77,3,1.35s3.74,1.1,5.06,1.46c.77.18,1.42.25,1.75.34A18.2,18.2,0,0,1,637.11,347.73Z" transform="translate(0 -1)"/><path class="cls-2" d="M636,347.57a1.62,1.62,0,0,1,.55.19,6.77,6.77,0,0,1-2.06,0h.11A2.06,2.06,0,0,1,636,347.57Z" transform="translate(0 -1)"/><path class="cls-2" d="M614.55,335c.25.64.25.74.5,1.27a11.7,11.7,0,0,1-2.34-3.23,21.77,21.77,0,0,1-1-2.22,59.38,59.38,0,0,1-2.94-10.35c-.48-3-.9-6.78-1.24-9s-.23-2.26-.54-4a17.71,17.71,0,0,0-1-3.74,32.18,32.18,0,0,0-3.2-7.09c-1.53-2.19-4.09-5.52-5.93-7.59-.92-1-2-2.28-2.54-2.89a22.77,22.77,0,0,1-2.23-3.14v-.1a15.56,15.56,0,0,1,2.74,2.56c.57.62,1.61,1.86,2.53,2.9,1.74,2.07,4.41,5.39,5.94,7.59a29.67,29.67,0,0,1,3.31,7.29,20.82,20.82,0,0,1,1,3.85,37.86,37.86,0,0,1,.53,4c.34,2.26.76,6,1.25,9a47,47,0,0,0,2.92,10.13c.38,1,.85,1.69,1,2.12C613.94,333.69,614.19,334.33,614.55,335Z" transform="translate(0 -1)"/><path class="cls-3" d="M605.2,370.78a4.24,4.24,0,0,1-.53,2.3,2.84,2.84,0,0,1-.82.8,1.86,1.86,0,0,1-1.08.17,3.48,3.48,0,0,1-2-1h0a4,4,0,0,1-.84-1.47c-.14-.53-.16-1-.3-1.5a17.45,17.45,0,0,0,1.76,2.4c.23.2.91.82,1.34.79a1.46,1.46,0,0,0,1.27-.61,2,2,0,0,0,.34-1.64,3.28,3.28,0,0,0-2.4-2.36,15.5,15.5,0,0,0-3.83-.77,18.5,18.5,0,0,1-3.41-.9,20.63,20.63,0,0,1-3.22-1.57c-.79-.5-.22-.09-1-.59a14.36,14.36,0,0,1-2-1.73,16,16,0,0,1-3.95-6.94,9.74,9.74,0,0,1-.12-4.33,5.38,5.38,0,0,1,1.68-3,4.51,4.51,0,0,1,1.26-.72c.32-.13.21-.12.53-.25a1.65,1.65,0,0,1,.64-.14,5.39,5.39,0,0,1,2.62.29c-.11.12-.54,0-.53.25h0c-.54,0-1.08.16-1.73.2-.1,0-.42.13-.53.14s-.11,0-.43.13a4.38,4.38,0,0,0-1.15.71,5,5,0,0,0-1.59,2.68,9.49,9.49,0,0,0,.1,3.9,15.37,15.37,0,0,0,3.7,6.41,13.83,13.83,0,0,0,1.93,1.63,7,7,0,0,0,.9.6,18.26,18.26,0,0,0,3,1.47,29.24,29.24,0,0,0,3.3.9c.66.08,1.75.23,2.62.4a10.3,10.3,0,0,1,1.43.36,6,6,0,0,1,1.9,1.09A3.53,3.53,0,0,1,605.2,370.78Z" transform="translate(0 -1)"/><path class="cls-3" d="M593.55,392.09a5,5,0,0,1-.39,2.84,4.32,4.32,0,0,1-2,1.73,2.64,2.64,0,0,1-2.39-.09,3.86,3.86,0,0,1-1.62-1.86,5.47,5.47,0,0,1-.44-2.15,3.34,3.34,0,0,1,.45-1.75v0a3.07,3.07,0,0,1,1-1c-.19.44-.39.88-.58,1.33a6.37,6.37,0,0,0-.24,1.53,3.13,3.13,0,0,0,.31,1.71A2.46,2.46,0,0,0,589,395.7a2.21,2.21,0,0,0,1.85.11,3.16,3.16,0,0,0,1.55-1.38,3,3,0,0,0,.31-2.18,12.77,12.77,0,0,0-2.05-4,29.15,29.15,0,0,1-2.13-3.35c-.49-1.06-.86-1.8-1.23-2.65a12.31,12.31,0,0,1-.49-1.16c-.38-1-.66-2.13-1.06-3.52-.14-.75-.79-2.77-1.07-3.95a14.43,14.43,0,0,1-.57-2.46,3.79,3.79,0,0,1,.62-2.53,3.15,3.15,0,0,1,2.56-.89,9.91,9.91,0,0,1,2.63.62c1.44.57,3.33,1.44,4.54,1.92s2.44,1,3.21,1.24a18.9,18.9,0,0,1,3,1.57,27.22,27.22,0,0,1-3.29-.8c-.67-.29-2.1-.75-3.21-1.24s-3.11-1.46-4.44-1.93a8,8,0,0,0-2.31-.63,2.1,2.1,0,0,0-1.91.64,2.48,2.48,0,0,0-.44,2,15.86,15.86,0,0,0,.56,2.35c.28,1.07.82,3.21,1.07,3.84.4,1.39.68,2.57,1.06,3.52a7.25,7.25,0,0,1,.39,1.17c.36.74.62,1.49,1.11,2.54a29.2,29.2,0,0,0,2.13,3.36A9.43,9.43,0,0,1,593.55,392.09Z" transform="translate(0 -1)"/><path class="cls-2" d="M607.7,332.51a11.92,11.92,0,0,1,.31,3.88,18.43,18.43,0,0,1-.66-2.24,9.93,9.93,0,0,0-.41-1.6c-.25-.75-.28-1.29-.67-2.35a69.64,69.64,0,0,0-3.81-8.57c-1.09-2-1.81-3.37-2.64-4.73s-.6-1-1.32-2.32-1.69-3.26-2.53-4.84a35.54,35.54,0,0,1-2.25-5.63,5.75,5.75,0,0,1-.28-1.17,1.24,1.24,0,0,1-.14-.64c0-.22-.15-.65-.16-.86s-.14-.65,0-.76.34.31.45.3c-.12-.32-.46-.52-.48-.84a14.29,14.29,0,0,1,0-2.17,19.16,19.16,0,0,1,.82,3.32c0,.11.14.53.15.75a1.68,1.68,0,0,0,.14.64c.13.32.15.75.28,1.18a47.9,47.9,0,0,0,2.14,5.41c.73,1.58,1.7,3.48,2.42,4.85s.59.95,1.32,2.32,1.55,2.73,2.63,4.73a71.67,71.67,0,0,1,3.94,8.78C607.3,331.12,607.57,332.08,607.7,332.51Z" transform="translate(0 -1)"/><path class="cls-2" d="M607.14,334.16a5.9,5.9,0,0,1-1.24,3.21c-.1.22-.63.47-.94.7a7,7,0,0,1-1.58.74,5.06,5.06,0,0,1-1.18.28c-.43,0-.64.14-1.07.16a8.67,8.67,0,0,1-1.86-.33,11.43,11.43,0,0,1-2-.76,8.5,8.5,0,0,1-3-2.44s.11,0,.11.1c1,.6,1.78.88,3,1.47.33.09,1.21.47,1.87.66a8.52,8.52,0,0,0,1.64.23l1-.05a4.78,4.78,0,0,0,1.07-.27,6.38,6.38,0,0,0,1.48-.73,7.47,7.47,0,0,0,.83-.7A9.84,9.84,0,0,0,607.14,334.16Z" transform="translate(0 -1)"/><path class="cls-3" d="M587.2,390.7v0Z" transform="translate(0 -1)"/><path class="cls-3" d="M587.2,390.7h0a10.82,10.82,0,0,1-1.34-2.75,3,3,0,0,0-.26-.74,1.42,1.42,0,0,1-.25-.53,8.61,8.61,0,0,0-.74-1.69,53.28,53.28,0,0,0-4.07-7.37,9.42,9.42,0,0,0-2.43-2.9,1.41,1.41,0,0,0-1.31,0c-.42.13-.83.69-1,.92a22.09,22.09,0,0,0-1.3,2,3.77,3.77,0,0,0-.49.89,10.28,10.28,0,0,1-.5.9,8.23,8.23,0,0,0-.85,2.21,10.73,10.73,0,0,0-.47,3.49,33.4,33.4,0,0,1-.08,4.45,6.05,6.05,0,0,1-.86,2.32,3.33,3.33,0,0,1-1.76,1.5,2.28,2.28,0,0,1-2.07-.32,2.81,2.81,0,0,1-1.08-1.89c-.14-.65-.28-1.18-.08-1.52.39-.77.79-1.45,1.18-2.23.2-.33.84-.47,1.16-.6a9.14,9.14,0,0,0-.91,1.13,8.13,8.13,0,0,0-.69,1.34,2.78,2.78,0,0,0-.13,1.63,2.27,2.27,0,0,0,.83,1.37,1.5,1.5,0,0,0,1.53.24,4,4,0,0,0,2-3.14,30,30,0,0,0,.09-4.34,17.6,17.6,0,0,1,.56-3.82,16.87,16.87,0,0,1,.95-2.44,6,6,0,0,1,.49-.89,6.43,6.43,0,0,0,.5-.89,17.55,17.55,0,0,1,1.29-2.13,4.45,4.45,0,0,1,1.24-1.15,2.53,2.53,0,0,1,1.95,0,6.6,6.6,0,0,1,1.49,1.44c.46.52.82,1.15,1.28,1.77a51.62,51.62,0,0,1,4.09,7.48,15,15,0,0,0,.74,1.69,4.5,4.5,0,0,1,.24.53,2,2,0,0,1,.26.75A8,8,0,0,1,587.2,390.7Z" transform="translate(0 -1)"/><path class="cls-2" d="M592.89,345.33a4.44,4.44,0,0,1-.11,1.95c-.69,1.34-1.45,1.16-2.65,1.12.11,0,.32-.13.43-.13h0c0-.33.86,0,1.08-.06a1.14,1.14,0,0,0-.55-.19c.4-.45.62-.46.91-1.13a2.85,2.85,0,0,0,.14-1.52,6.83,6.83,0,0,0-1.89-2.83,9.24,9.24,0,0,0-1.8-1.2,4.37,4.37,0,0,0-2.07-.32,3.13,3.13,0,0,0-2.21,1.31,1.78,1.78,0,0,0-.38,1,13.29,13.29,0,0,0-.39,2.73,4.71,4.71,0,0,1-.39-3.23,7.94,7.94,0,0,1,.48-1.11,3.73,3.73,0,0,1,2.63-1.55,8.29,8.29,0,0,1,1.63.13,5.78,5.78,0,0,1,.77.29c.33.09,0,0,.44.19s1.13.81,1.8,1.2A8.43,8.43,0,0,1,592.89,345.33Z" transform="translate(0 -1)"/><path class="cls-2" d="M591.08,347.92c.22,0,.34.19.55.18l-1.08.06C590.77,348.15,591,347.92,591.08,347.92Z" transform="translate(0 -1)"/><path class="cls-2" d="M591.57,332.72a9.63,9.63,0,0,1,2.75,2.89,19.25,19.25,0,0,0-2.92-2,9.09,9.09,0,0,0-1.23-.59,5.3,5.3,0,0,0-2.6-.07,1.73,1.73,0,0,0-1,1.13,2.25,2.25,0,0,0-.25,1.53,6.3,6.3,0,0,0,1,2.77,5.71,5.71,0,0,0,1.48,1.33,6.88,6.88,0,0,0,1.88.76,1.55,1.55,0,0,0-.19.44,2.41,2.41,0,0,1,.74-.36h.11l.43,0a2.29,2.29,0,0,1-2.93.05l-.22-.1a6.46,6.46,0,0,1-1.71-1.64,10.84,10.84,0,0,1-1.38-3.5,4.76,4.76,0,0,1,.33-1.86,2.77,2.77,0,0,1,1.34-1.37,4.78,4.78,0,0,1,3,.05A2.5,2.5,0,0,1,591.57,332.72Z" transform="translate(0 -1)"/><path class="cls-2" d="M591.33,340.43c-.21.12-.53.24-.74.36.1-.11.09-.33.2-.33S591.12,340.55,591.33,340.43Z" transform="translate(0 -1)"/><path class="cls-2" d="M593.45,301.1c-.11-.11-.44-.2-.45-.31s-.14-.53,0-.43A1.37,1.37,0,0,0,593.45,301.1Z" transform="translate(0 -1)"/><path class="cls-2" d="M592.86,300.26c.12.21,0,.32,0,.54a11.28,11.28,0,0,1-2.26-1.83,15.36,15.36,0,0,0-1.49-1.54c-.46-.52-1.49-1.55-2.07-2.17l-2.19-2.37c-.46-.52-.8-.93-1-1.14a12.27,12.27,0,0,1-1.16-1.45c.33.09.42-.24.64-.15s.57.62.92.93.57.62,1,1.14,1.61,1.75,2.19,2.37,1.6,1.65,2.06,2.16,1.15,1.24,1.49,1.55A12.88,12.88,0,0,1,592.86,300.26Z" transform="translate(0 -1)"/><path class="cls-3" d="M592.65,278.06a7.65,7.65,0,0,1,.17,3.14,4.62,4.62,0,0,1-.66,1.87c0,.11-.12-.21-.22-.09s.22.09.12.21-.3.45-.41.56a7.58,7.58,0,0,1-2.3,1.53c.1-.22.09-.44.18-.66-.42.24-.81.91-1.13,1.14a4.5,4.5,0,0,1-1,.49c-3.41,1.05-6.3,1.86-9.9,1.4s-7.05-2.33-10.19-4.22-6.28-4-9.31-5.89c-1.57-1-3-1.9-4.38-2.91-.67-.51-1.46-1-2.14-1.51s-1.34-.9-1.91-1.31-1.24-.91-1.58-1.21l-.57-.51c-.23-.21-.56-.41-.68-.51s.1-.33.09-.44,0-.11.09-.33.1-.22.19-.44a7.85,7.85,0,0,0,.38-1l.06,1.08,0,.54v.33h.11c.11.1.1,0,.22.21s.23.2.57.4,1,.81,1.58,1.22,1.24.9,1.91,1.3l2,1.52,4.39,3c3,2,6.18,4.11,9.2,5.9s6.37,3.67,9.86,4.13a19.24,19.24,0,0,0,9.57-1.38,9.35,9.35,0,0,0,4.21-2.28c1.23-1.26,1.24-3.1.82-4.81a16.84,16.84,0,0,0-2.44-5.29c-1-1.57-2-3-2.85-4.61a6.63,6.63,0,0,1-.89-2.45,4.33,4.33,0,0,1,.52-2.41c.69-1.33,1.61-2.36,1.75-3.77a5.14,5.14,0,0,0-1.17-3.52,9.28,9.28,0,0,0-2.61-2.35,47.51,47.51,0,0,0-5.88-2.5,16.21,16.21,0,0,1-4.37-2.69,13.9,13.9,0,0,1-2.2-2.7,4.89,4.89,0,0,0-.93-1.14c-.93-1.25-1.05-1.46-3-3.85s-4.77-6.14-7.79-9.87S552,221.73,548,217.62a67.3,67.3,0,0,0-7.84-6.84,83.21,83.21,0,0,0-8.71-4.74c-2.89-1.47-5.45-2.74-8.33-3.88a46.76,46.76,0,0,0-9.23-2.54c-5.9-.88-11.58-1.66-17.17-2.88-1.42-.35-2.3-.52-3.61-.78a9.66,9.66,0,0,0-1.75-.23c-.32,0-.65-.07-.87-.06l-.65,0-.43,0-.65,0c-1.18.28-2.24.66-3.31.83a7.56,7.56,0,0,1,2.95-1.46,2,2,0,0,1,.75-.15l.54,0,.76,0c.32,0,.55.08.87.06a13.51,13.51,0,0,1,1.85.23c1.32.25,2.31.53,3.73.78,5.7,1.21,11.47,1.87,17.37,2.75a40.5,40.5,0,0,1,9.24,2.54c2.88,1.14,5.54,2.41,8.44,3.88A69.53,69.53,0,0,1,540.8,210a55.73,55.73,0,0,1,8.06,6.93c4,4.23,9.1,10.13,12.12,13.87s5.92,7.48,7.78,9.87,2,2.72,3,4a9.46,9.46,0,0,0,.93,1.14,13.55,13.55,0,0,0,2.2,2.59,11.58,11.58,0,0,0,4.14,2.6,57.84,57.84,0,0,1,6,2.6,9.1,9.1,0,0,1,2.85,2.56,5.8,5.8,0,0,1,1.29,3.94,7.16,7.16,0,0,1-.64,2.2,18.45,18.45,0,0,0-1.09,1.9,4,4,0,0,0-.43,2,4.35,4.35,0,0,0,.87,2.12c1,1.58,1.89,2.93,2.84,4.51A19.67,19.67,0,0,1,592.65,278.06Z" transform="translate(0 -1)"/><path class="cls-2" d="M592.16,283.07h0a.35.35,0,0,1-.22-.09S592.15,283,592.16,283.07Z" transform="translate(0 -1)"/><path class="cls-2" d="M583.5,346.05a6,6,0,0,1-.27,3,4.71,4.71,0,0,1-.89,1.46,6.49,6.49,0,0,1-2.39,1.86c-.43.13-.74.37-1.28.5a14.52,14.52,0,0,1-2.14.44,4.72,4.72,0,0,1-1.3.07,6.44,6.44,0,0,1-3.3-.9c.87,0,2.28,0,3-.06l1.3-.07a14.82,14.82,0,0,0,2-.43,4,4,0,0,0,1.16-.5c.42-.24.52-.35.94-.59a6.19,6.19,0,0,0,1.24-1.26,8.52,8.52,0,0,0,.79-1.34c.3-.56.68-1.45,1.07-2.22Z" transform="translate(0 -1)"/><path class="cls-3" d="M589.53,284.51c-.1.22,0,.54-.18.66s-.75.26-1,.49A5.59,5.59,0,0,1,589.53,284.51Z" transform="translate(0 -1)"/><path class="cls-3" d="M589.35,285.17a5.29,5.29,0,0,1-1.09,2,2.36,2.36,0,0,1-.51.46,1.18,1.18,0,0,0-.42.35,6.38,6.38,0,0,1-.94.7,16,16,0,0,1-3.07,1.36,5.26,5.26,0,0,0-.91-.82,11.25,11.25,0,0,0,3.29-1.37,7.66,7.66,0,0,0,.94-.7c.2-.23.21-.12.41-.35s.21-.23.52-.46a5.69,5.69,0,0,1,.82-.8C588.7,285.32,589,285.41,589.35,285.17Z" transform="translate(0 -1)"/><path class="cls-2" d="M570.1,378.94a44.75,44.75,0,0,1-1.93,6.39c-.28.88-.58,1.44-.66,1.87s0,.11-.1.22h0a3.92,3.92,0,0,0-1,1.58c-.1.11-.08.43-.18.65a1.45,1.45,0,0,1-.3.45,22.05,22.05,0,0,1,.91-3.19c.09-.33.38-1,.66-1.87a57.37,57.37,0,0,0,1.83-6.28,24.62,24.62,0,0,0,.66-3.93,26.2,26.2,0,0,0,.29-4.57,24.69,24.69,0,0,0-1.47-7.29c-.26-.74-.5-1.16-.62-1.48a30.12,30.12,0,0,1-1.39-3.72,8.78,8.78,0,0,1,1.17,1.57,15.39,15.39,0,0,1,.84,1.68,14.43,14.43,0,0,0,.63,1.49,25.94,25.94,0,0,1,1.48,7.5,28.31,28.31,0,0,1-.29,4.68A18.12,18.12,0,0,1,570.1,378.94Z" transform="translate(0 -1)"/><path class="cls-2" d="M567.3,387.43h0a12.42,12.42,0,0,1-1.08,2.12,1.1,1.1,0,0,1,.19-.66A4.05,4.05,0,0,1,567.3,387.43Z" transform="translate(0 -1)"/><path d="M584.8,277.18a3.23,3.23,0,0,1,.12,2.27,1.89,1.89,0,0,1-2.64,1.12,2.42,2.42,0,0,1-.68-.4,4.47,4.47,0,0,1-1.51-2A3,3,0,0,1,580,276c.69-1.44,2-1.62,3.32-.82A5,5,0,0,1,584.8,277.18Zm-.67,1.66a2.76,2.76,0,0,0-1.24-3,1.47,1.47,0,0,0-2.35.56,2.55,2.55,0,0,0,1.13,2.86C582.57,280,583.76,280,584.13,278.84Z" transform="translate(0 -1)"/><path d="M582.89,275.88a2.76,2.76,0,0,1,1.24,3c-.37,1.11-1.56,1.17-2.46.57a2.43,2.43,0,0,1-1.13-2.87A1.45,1.45,0,0,1,582.89,275.88Zm.57,2.57a.85.85,0,0,0,0-.87,1.89,1.89,0,0,0-.7-.83.67.67,0,0,1-.33-.2.88.88,0,0,0-1.17.5,1.17,1.17,0,0,0,0,.86c.13.43.35.53.69.83A1.15,1.15,0,0,0,583.46,278.45Z" transform="translate(0 -1)"/><path class="cls-2" d="M583.33,290.15c-.22,0-.42.24-.64.15s-.47-.63-.59-.84.21-.12.32-.12A3.14,3.14,0,0,1,583.33,290.15Z" transform="translate(0 -1)"/><path class="cls-2" d="M573.34,354.5a8.55,8.55,0,0,1-2.94-2.34,12.9,12.9,0,0,1-1.51-1.87,47.13,47.13,0,0,1-3.49-6.42,65.22,65.22,0,0,1-2.17-6.16c-.41-1.61-.41-1.72-.81-3s-.39-1.28-.8-2.78-1-4.06-1.61-5.87a31.83,31.83,0,0,0-2.46-5.5,4.86,4.86,0,0,0-.71-1.05c-.12-.32-.23-.31-.35-.52a3.44,3.44,0,0,0-.47-.63c-.58-.83-1.27-1.44-1.85-2.28a9.27,9.27,0,0,1,1.69,1.21c.22.2.13.53.26.85.11,0,0-.43.09-.33s.23.31.35.42.35.52.47.73a3.59,3.59,0,0,0,.35.52,10.14,10.14,0,0,1,.71,1.16,36.79,36.79,0,0,1,2.58,5.6c.64,1.81,1.32,4.37,1.72,5.87s.41,1.6.8,2.77.39,1.28.8,2.88,1.42,4.15,2.17,6.06a33.89,33.89,0,0,0,3.37,6.21,10.17,10.17,0,0,0,1.39,1.77c.46.52.58.73.82,1A6,6,0,0,1,573.34,354.5Z" transform="translate(0 -1)"/><path d="M583.42,277.58a.85.85,0,0,1,0,.87,1.15,1.15,0,0,1-1.5.29,1.48,1.48,0,0,1-.69-.83,1.21,1.21,0,0,1,0-.86.92.92,0,0,1,1.17-.5c.1,0,.1,0,.33.2A1.16,1.16,0,0,1,583.42,277.58Z" transform="translate(0 -1)"/><path class="cls-2" d="M582.42,289.34c0,.1-.21.11-.32.12a4.89,4.89,0,0,1-.47-.73A2.16,2.16,0,0,1,582.42,289.34Z" transform="translate(0 -1)"/><path class="cls-3" d="M582.1,289.35a5.54,5.54,0,0,0,.58.84c-.42.13-1.18.17-1.72.31a20.9,20.9,0,0,1-5.32-.26,23.25,23.25,0,0,1-2.52-.62,25.65,25.65,0,0,1-2.44-1,11.13,11.13,0,0,0-1.11-.48c.21-.12.43-.13.64-.25-.54,0-1.39.4-1.75-.23h0c-1-.49-2.11-1.08-3.11-1.57-1.79-1-4-2.38-5.61-3.49a18.64,18.64,0,0,0-1.68-1.1,11,11,0,0,1-2.62-2.35c1.12.59,1.78.88,2.9,1.58a15.92,15.92,0,0,1,1.69,1.1c1.46,1,3.81,2.5,5.49,3.39s3.79,2,5.12,2.54,1.44.57,2.43.95,1.21.37,2.42.63a18.49,18.49,0,0,0,5.1.27A5.58,5.58,0,0,0,582.1,289.35Z" transform="translate(0 -1)"/><path class="cls-2" d="M568.91,360.69a9.08,9.08,0,0,1-.82-1.14c-.36-.63-.72-1.16-1.2-2.11-.24-.42-.6-1.05-1.08-2-1.66-2.62-3.78-5.75-5.77-8.57s-4.56-6.26-6.44-9.08a76.47,76.47,0,0,1-4.91-8.73,54.14,54.14,0,0,1-2.44-7.13,28.36,28.36,0,0,1-1-4.06c-.28-1.29,0-.22-.31-1.72a12.27,12.27,0,0,0-1.43-4.58c-1.21-2.32-3.25-5.9-5.15-9a96,96,0,0,1-8.72-17.3,8.4,8.4,0,0,1-.5-3.12l0-1.08c.6,1.16.79,2.67,1.4,3.93,3.33,7.63,13.87,24.4,15,30s0,.32.47,2.68.31,1.82,1,4.06a44,44,0,0,0,2.33,7,83.53,83.53,0,0,0,4.79,8.63c1.89,2.82,4.34,6.16,6.44,9s4.23,6.06,5.88,8.68c.59.94,1,1.68,1.2,2.1A14.78,14.78,0,0,1,568.91,360.69Z" transform="translate(0 -1)"/><path class="cls-3" d="M575.05,265a8.49,8.49,0,0,1,0,3.25,10.14,10.14,0,0,1-.56,1.66l-.1.22-.1.22c-.2.23-.49.89-.7,1a4.12,4.12,0,0,1-2.3,1.53c.61-.68,1.12-1.36,1.73-2.15.1-.11.39-.67.6-.9l.09-.22.1-.22a15.28,15.28,0,0,0,.57-1.55C574.6,266.79,574.78,266,575.05,265Z" transform="translate(0 -1)"/><path d="M573.07,266.54c0,.22,0,.33-.08.44a6.1,6.1,0,0,1-2,3.57c-1.66,1.39-3.49,1.49-5.57,1.06a.78.78,0,0,1-.55-.19c-3.78-1.74-6-4.77-5.79-8.9a5,5,0,0,1,2.38-4.13,6.22,6.22,0,0,1,5.81-.75C571.16,259.06,573.17,262.31,573.07,266.54Zm-7.57,4.2c3.52,1,6.35-.77,6.81-4.37a7.22,7.22,0,0,0-5.19-7.85c-3.42-1.12-6.79.58-7.25,4.29A7.54,7.54,0,0,0,565.5,270.74Z" transform="translate(0 -1)"/><path class="cls-3" d="M573.59,260a11.57,11.57,0,0,1,1.56,2.84,27,27,0,0,1-2.08-2.38c-.22-.21-.69-.83-1.26-1.34A26.65,26.65,0,0,0,568,256a16.24,16.24,0,0,0-2.67-1.26,6.59,6.59,0,0,0-1.1-.38c-.66-.18-1.54-.35-2.31-.52a20.23,20.23,0,0,0-5.09-.06,4.6,4.6,0,0,0-1.18.28,4.49,4.49,0,0,0-1.38.51,2.16,2.16,0,0,0-1,.92,2,2,0,0,1,.68-1.44,2.88,2.88,0,0,1,1.47-.84,5.58,5.58,0,0,1,1.29-.28,22,22,0,0,1,5.31,0,14.65,14.65,0,0,1,2.41.63,8,8,0,0,1,1.11.37,25.67,25.67,0,0,1,2.78,1.37,22.78,22.78,0,0,1,4.07,3.25A18.29,18.29,0,0,1,573.59,260Z" transform="translate(0 -1)"/><path d="M572.31,266.37c-.46,3.6-3.29,5.37-6.81,4.37a7.58,7.58,0,0,1-5.63-8c.45-3.71,3.83-5.41,7.24-4.29A7.42,7.42,0,0,1,572.31,266.37Zm-2.13,2.82a4.56,4.56,0,0,0,1.57-3.12,5.89,5.89,0,0,0-.86-4,8.76,8.76,0,0,0-3.41-2.85c-.11-.1-.33-.09-.44-.19a5.64,5.64,0,0,0-4.73.68,3.81,3.81,0,0,0-1.67,3.13,7,7,0,0,0,5,7.09A4.59,4.59,0,0,0,570.18,269.19Z" transform="translate(0 -1)"/><path class="cls-3" d="M570.32,288c-.21,0-.42.24-.63.25s.11,0-.11,0a2.17,2.17,0,0,1-1-.49A5,5,0,0,1,570.32,288Z" transform="translate(0 -1)"/><path d="M571.65,266.19a4.17,4.17,0,0,1-1.57,3.11,4.73,4.73,0,0,1-4.62.79,7,7,0,0,1-5-7.09,3.79,3.79,0,0,1,1.67-3.13,5.6,5.6,0,0,1,4.73-.68.77.77,0,0,1,.44.19,7.91,7.91,0,0,1,3.41,2.85A5.45,5.45,0,0,1,571.65,266.19Zm-1.52-2.09a2.05,2.05,0,0,0-.69-2.67,1.58,1.58,0,0,0-2.47.46,2.18,2.18,0,0,0,.69,2.67A1.66,1.66,0,0,0,570.13,264.1Z" transform="translate(0 -1)"/><path class="cls-3" d="M568.58,287.8c.13.43.67.4,1.11.48a6.37,6.37,0,0,1-2,.33l-1.19.06a30,30,0,0,1-4.24-.31c-1-.17-2.19-.32-2.85-.5a3.45,3.45,0,0,0-.87-.17,10.34,10.34,0,0,1-1.76-.45,29.31,29.31,0,0,1-4.19-1.29c-.88-.28-1.54-.57-1.87-.66a19.26,19.26,0,0,1-3-1.68,21.36,21.36,0,0,1,3.19.91c.33.1,1,.38,1.88.66s3,1,4.08,1.3a7.53,7.53,0,0,1,1.65.45,2.8,2.8,0,0,1,.76.18c.66.18,1.76.34,2.74.5s3.16.27,4.13.32a3.7,3.7,0,0,1,1.2.05,1.91,1.91,0,0,1,1.29-.18Z" transform="translate(0 -1)"/><path class="cls-4" d="M569.55,261.42a2.18,2.18,0,0,1,.68,2.68,1.54,1.54,0,0,1-2.35.45,2.18,2.18,0,0,1-.69-2.68C567.57,260.88,568.65,260.82,569.55,261.42Z" transform="translate(0 -1)"/><path class="cls-2" d="M556.41,317.59c0,.11-.09.33-.08.44a6.14,6.14,0,0,0-.26-.74C556.07,317.18,556.41,317.59,556.41,317.59Z" transform="translate(0 -1)"/><path class="cls-2" d="M556.41,317.59c0-.21-.23-.31-.34-.41a7.34,7.34,0,0,1-.41-1.6,8.08,8.08,0,0,0-.29-1.29,42.45,42.45,0,0,0-1.46-5c-.91-2.77-1.77-4.67-2.88-7.32s-2.43-5-3.89-7.81c-.72-1.37-2.3-4.54-3.24-6a22.77,22.77,0,0,1-1.23-2.65,13.54,13.54,0,0,1-1-3.41c.12.11.12.21.24.32A9,9,0,0,1,543.4,285c.25.53.75,1.8,1.23,2.64.84,1.58,2.42,4.75,3.25,6.11,1.45,2.85,2.67,5.28,3.89,7.92a59.8,59.8,0,0,1,2.89,7.43,40.3,40.3,0,0,1,1.47,5.12,9.33,9.33,0,0,0,.28,1.29A5.44,5.44,0,0,1,556.41,317.59Z" transform="translate(0 -1)"/><path class="cls-3" d="M545.58,256.86a29,29,0,0,0-2.76,1.12,7.65,7.65,0,0,0-1.46.94,9.86,9.86,0,0,0-1.43,1.6,5.73,5.73,0,0,0-.7,1.12c-.3.45-.39.89-.68,1.44a20.9,20.9,0,0,0-.52,2.52,7.76,7.76,0,0,0,0,1.41,9.83,9.83,0,0,0,.31,1.83,3.91,3.91,0,0,0,.73,1.47,4.16,4.16,0,0,1-1.91-3.36,10.08,10.08,0,0,1,0-1.63,12.52,12.52,0,0,1,.61-2.74,10.16,10.16,0,0,1,.68-1.55,7.79,7.79,0,0,1,.8-1.23,12.7,12.7,0,0,1,1.64-1.72,16.78,16.78,0,0,1,1.57-1.06A5.19,5.19,0,0,1,545.58,256.86Z" transform="translate(0 -1)"/><path class="cls-2" d="M523.34,280.47a6.1,6.1,0,0,1-3.67.31,14,14,0,0,1-2.31-.64,38.25,38.25,0,0,1-9.7-5.11,82.22,82.22,0,0,1-8-6.83,5.91,5.91,0,0,0,.77.28,18.69,18.69,0,0,0-2.83-2.34l-.11-.1h0c-1-1.14.69.72-1-1.14s-5.87-6.4-8.53-9.51c-1.27-1.56-4.49-5.07-6-7-.35-.52-.82-1.14-1.17-1.67a2.44,2.44,0,0,1-.35-.52,3,3,0,0,0-.47-.62,15.7,15.7,0,0,1-1.56-2.95,23.66,23.66,0,0,1,2.19,2.48,6.78,6.78,0,0,0,.46.62c.47.63.94,1.36,1.52,2.09,1.74,2.07,4.39,5.07,6,6.94,3.23,3.72,5.43,6.42,8.76,9.82a89.86,89.86,0,0,0,10.7,9.61,33.3,33.3,0,0,0,9.25,4.92c.88.28,1.76.56,2.2.64C521,280.05,521.91,280.22,523.34,280.47Z" transform="translate(0 -1)"/><path class="cls-2" d="M500.37,268.38a4.66,4.66,0,0,0-.77-.29c-.23-.09.33.2-.12-.1a19,19,0,0,1-2.06-2.06l.12.11A28.8,28.8,0,0,1,500.37,268.38Z" transform="translate(0 -1)"/><path class="cls-2" d="M499.6,268.2a12.8,12.8,0,0,1-2.56-1.38c-.34-.2-1-.7-1.8-1.2-1.69-1.21-4.73-3.43-6.33-4.86s-2-1.74-3.52-3.07-3.19-3-4.92-4.82c-.81-.94-2.43-2.91-3.36-4.16a6.82,6.82,0,0,0-.7-.93,1.47,1.47,0,0,1-.35-.53c-.12-.21-.36-.52-.48-.73a12.51,12.51,0,0,1-1.35-3.07l.11.1a14.7,14.7,0,0,1,2,2.5,3.44,3.44,0,0,1,.46.62,1.4,1.4,0,0,0,.36.52c.12.21.46.63.7.94.82,1.15,2.44,3.12,3.25,4.05,1.61,1.87,3.31,3.29,4.8,4.73s1.93,1.63,3.52,3.06,4.42,3.56,6.22,4.87c.79.5,1.24.8,1.68,1.1s-.33-.2.23.1S499,267.58,499.6,268.2Z" transform="translate(0 -1)"/><path class="cls-3" d="M476.08,243.57a8.58,8.58,0,0,1-2.41-2.47,2.35,2.35,0,0,0-.58-.62c-.57-.62-1.15-1.24-1.73-2-1.84-2.07-4.49-5-6.42-6.7s-4.33-4-5.81-5.21-1.58-1.32-2.71-2.13-1.46-1-2.7-1.81c-.56-.4-1.9-1.19-2.69-1.69-.45-.31-1.12-.7-1.57-1s-1.12-.7-1.68-1-1.12-.7-1.68-1a9.54,9.54,0,0,1-1.68-1.1,11.42,11.42,0,0,0-1.57-1,4.42,4.42,0,0,1-.79-.61h.11a5.32,5.32,0,0,0,.53-.14,2.43,2.43,0,0,0-.77-.29l-.33,0h-.1l-.12-.1a12.29,12.29,0,0,1-1.24-1,7.66,7.66,0,0,1-1.64-2.19,10.42,10.42,0,0,1,2.26,1.61,12,12,0,0,0,1.24,1c1.81,1.42,4.27,2.91,6.29,4.21.56.3,1.13.81,1.69,1.11a17.1,17.1,0,0,1,1.57,1c.78.5,2,1.31,2.69,1.7,1.23.8,1.57,1,2.7,1.81a20.07,20.07,0,0,1,2.71,2.13c1.48,1.33,3.86,3.37,5.8,5.21s4.59,4.63,6.44,6.81c.58.73,1.26,1.34,1.73,2a3.73,3.73,0,0,0,.57.62A19.61,19.61,0,0,1,476.08,243.57Z" transform="translate(0 -1)"/><path class="cls-3" d="M478.65,232.92a13.08,13.08,0,0,1,1.67,2.84,26.7,26.7,0,0,1-2.3-2.48,16.67,16.67,0,0,1-1.64-2.3c-.94-1.35-3.28-4.48-4-5.74-1.65-2.4-4-6-5.05-7.31s-.12-.11-.7-.83-.59-.95-1.17-1.67a30.8,30.8,0,0,0-4.24-4.33c-.79-.6-1.92-1.41-2.7-1.91s-2-1.08-2.79-1.48-1.22-.47-1.66-.67-.55-.08-.78-.39.08-.54-.16-.86c.56.19.66.19,1.22.37a13.3,13.3,0,0,1,1.66.78c.78.39,2,1,2.79,1.48s2,1.4,2.82,2a27,27,0,0,1,4.24,4.32c.58.73.7,1.05,1.17,1.68a4.1,4.1,0,0,1,.59.83c.59.94,1.76,2.61,2.71,4.08.46.63,1.75,2.4,2.45,3.44,1.18,1.68,3,4.18,4.1,5.74C477.6,231.57,478.3,232.51,478.65,232.92Z" transform="translate(0 -1)"/><path class="cls-3" d="M487.5,194c-.21,0-.64.14-.75.15h-.1a5.49,5.49,0,0,1-.71-1c-.82-1.15-1.3-2-2.11-3s-1.29-1.78-2.23-3.13c-.46-.63-1.63-2.19-2.33-3-.34-.41-1-1.14-1.5-1.76a23.49,23.49,0,0,0-1.72-1.75,40.33,40.33,0,0,0-7.68-6c-.79-.5-1.46-.9-1.8-1.1a20.79,20.79,0,0,1-3.13-1.89,22.42,22.42,0,0,1,3.53,1.11c.33.2,1.34.8,1.79,1.1l.11.1a.36.36,0,0,0,.12.21c.11.1,0,.11.13.32a5.11,5.11,0,0,0,.8.82c.1-.22-.14-.64-.15-.75s-.11-.1,0-.1c.34.19.79.49,1.13.69l2,1.52c.67.51,1.36,1.12,1.93,1.63a13.27,13.27,0,0,1,1.82,1.74c.58.62,1.15,1.24,1.72,1.75s1.16,1.35,1.5,1.76c.81.94,2,2.39,2.45,3.12.93,1.36,1.4,2,2.22,3.14s1.29,1.88,2.12,3.13A12.54,12.54,0,0,1,487.5,194Z" transform="translate(0 -1)"/><path class="cls-2" d="M470.92,222.07c-.24-.42-.35-.31-.7-.83a6.58,6.58,0,0,1-.86-1.91,9.35,9.35,0,0,1-.32-2,10.16,10.16,0,0,1,.37-3.16,8.68,8.68,0,0,1,.88-1.78,6.59,6.59,0,0,1,1.63-1.82c.11-.11.32-.23.42-.35l2.37-2.18c.52-.46,1.14-1,1.34-1.27a36.3,36.3,0,0,1,3.72-3.34c-1.21,1.59-2.12,2.83-3.55,4.42-.21.23-.93.81-1.44,1.38a19.34,19.34,0,0,1-2.7,2.31,4.37,4.37,0,0,0-1.33,1.48,4.58,4.58,0,0,0-.68,1.44,11.19,11.19,0,0,0-.29,2.62c0,.54.3,1.5.31,1.82C470.38,220.15,470.64,220.89,470.92,222.07Z" transform="translate(0 -1)"/><path class="cls-3" d="M472.61,207.24c-.09.23-.49.9-.71.91s0-.11-.25-.64-.5-1.38-.88-2.33a67,67,0,0,0-3-6.67c-.59-1-1.22-2.54-1.71-3.59s-1.32-2.42-1.69-3.27-.61-1.27-1-1.79a12.81,12.81,0,0,1-.62-1.38c.34.2.75-.15,1,.06s.24.31.48.73a17.84,17.84,0,0,1,1,1.79,33.3,33.3,0,0,1,1.68,3.16c.49,1.06,1.11,2.54,1.71,3.59,1.09,2.11,2.09,4.55,2.95,6.56.39,1.07.62,1.49.89,2.34C472.6,207,472.71,207,472.61,207.24Z" transform="translate(0 -1)"/><path class="cls-3" d="M466.76,186.86c.32,0,.87.17,1.2.16a5.26,5.26,0,0,1-1.26.82,8.12,8.12,0,0,1-2.78.69,1.87,1.87,0,0,0-.58-.72,6.68,6.68,0,0,0,2.89-.59C466.34,187.1,466.43,186.88,466.76,186.86Z" transform="translate(0 -1)"/><path class="cls-3" d="M469.91,175a6.15,6.15,0,0,1-.8-.83c-.12-.21-.12-.21-.12-.32a.45.45,0,0,0-.12-.21c.11.11.67.4.78.5l.11.11C469.88,174.35,469.9,174.78,469.91,175Z" transform="translate(0 -1)"/><path class="cls-3" d="M469.65,174.14c-.23-.31-.55-.18-.78-.5a9.29,9.29,0,0,0-1.64-2.18,36.27,36.27,0,0,0-3.07-2.66c-2-1.62-5.07-3.73-7.1-5.14s-4.83-3.32-6.17-4.11c-2.7-1.81-3.71-2.4-6.07-4s-2.92-1.9-5.94-3.8-8.2-5.41-11.8-7.82c-1.8-1.2-4.16-2.92-6.07-4.12a12.82,12.82,0,0,1-1.35-1,14.37,14.37,0,0,0-1.35-.9L417,137c-.45-.3-.79-.61-1.24-.91s-.9-.6-1.24-.91a3.25,3.25,0,0,1-.68-.51c.33.1.43,0,.77.18s.68.51,1.13.81a12.1,12.1,0,0,0,1.24.9l1.35.91a12.45,12.45,0,0,1,1.35,1,14.82,14.82,0,0,0,1.46,1c1.91,1.31,4.28,3,6.08,4.23,3.59,2.41,8.87,5.92,11.91,7.92s3.59,2.3,6,3.91,3.36,2.2,6.06,4c1.35.9,4.16,2.81,6.19,4.21s5.17,3.63,7.32,5.25a39.45,39.45,0,0,1,3.18,2.86A5.44,5.44,0,0,1,469.65,174.14Z" transform="translate(0 -1)"/><path class="cls-3" d="M463.82,188.65a3,3,0,0,1-1-.06c-.11-.1-.36-.63-.26-.74s.54,0,.66.07S463.7,188.44,463.82,188.65Z" transform="translate(0 -1)"/><path class="cls-3" d="M463.23,187.81c-.22-.09-.53.14-.65-.07s-.26-.75-.38-1.06C462.54,187.09,462.88,187.4,463.23,187.81Z" transform="translate(0 -1)"/><path class="cls-3" d="M462.84,188.59c0,.11-.11,0-.22,0a21.27,21.27,0,0,1-4.5-1.16c-2.66-1.16-5.9-3.05-8.24-4.22s-5.15-3.08-6.72-4a77.17,77.17,0,0,1-6.5-4.2c-2.48-1.81-3.15-2.1-6.21-4.54a92.49,92.49,0,0,1-11.51-10.76,51.35,51.35,0,0,1-5-6.66,14.49,14.49,0,0,1-1-1.69c-.35-.52-.59-1-.95-1.57v-.11h0c0-.11-.12-.21-.24-.31-.23-.42-.37-.85-.61-1.27a9.32,9.32,0,0,1-.62-1.48c-.24-.42-.5-1.28-.62-1.49a12.92,12.92,0,0,1-.47-2.68,17.54,17.54,0,0,1,1.22,2.54,14.5,14.5,0,0,0,.62,1.48,13.86,13.86,0,0,0,.63,1.48,10.5,10.5,0,0,0,.84,1.58c.35.53.6,1.05.95,1.58a8.55,8.55,0,0,1,1,1.68,62.53,62.53,0,0,0,4.9,6.56A98.84,98.84,0,0,0,431,170c3.06,2.43,3.62,2.84,6.1,4.55s3.48,2.3,6.39,4.1c1.46.89,4.48,2.68,6.6,3.87s5.58,3.06,7.91,4.13a25,25,0,0,0,4.07,1.08c.65.07.11,0,.21,0C462.7,188,462.73,188.49,462.84,188.59Z" transform="translate(0 -1)"/><path class="cls-3" d="M453,209.05a3.13,3.13,0,0,1-.58,1.23c0-.33-.26-.75-.27-1a1.14,1.14,0,0,1,.19-.55,9.59,9.59,0,0,0,.19-2.5,2.28,2.28,0,0,0,.67.4A5.45,5.45,0,0,1,453,209.05Z" transform="translate(0 -1)"/><path class="cls-3" d="M453.15,205.9c.11.1,0,.65.15.86-.11-.1-.55-.29-.67-.4s-.13-.53-.13-.53S453,205.8,453.15,205.9Z" transform="translate(0 -1)"/><path class="cls-3" d="M453,205.69s.11.1,0,.11-.54,0-.66-.18c0,0,.13.42,0-.11a14.2,14.2,0,0,0-1.46-3.06,30.09,30.09,0,0,0-5.27-5.25c-1.69-1.31-4.07-3.14-5.3-3.94a60.7,60.7,0,0,0-5.93-3.58c-2.57-1.38-2.91-1.58-6.36-3.34s-9.88-4.46-14.51-6.05c-2.32-.85-6-2.07-8.6-2.79-.66-.18-1.44-.47-2.1-.65s-1.42-.35-2.08-.54-1.43-.35-2-.54a11.51,11.51,0,0,0-1.87-.44,18.42,18.42,0,0,0-2-.44c-1.32-.36-2.2-.64-3.41-1a18.62,18.62,0,0,1,3.27.37c.33.09,1.42.36,2,.44s1.32.36,1.86.44l2,.54h.11c.66.18,1.43.35,2.09.53s1.54.46,2.2.64c2.64.73,6.39,2,8.71,2.9,4.64,1.7,11.19,4.49,14.63,6.15s3.9,2,6.47,3.33a60.48,60.48,0,0,1,5.93,3.7,49.9,49.9,0,0,1,5.42,4,31.93,31.93,0,0,1,5.38,5.34A12.32,12.32,0,0,1,453,205.69Z" transform="translate(0 -1)"/><path class="cls-3" d="M452.38,205.73c.22.09,0,.43.14.53a8.7,8.7,0,0,1-1.12-.7C451.62,205.66,452.16,205.63,452.38,205.73Z" transform="translate(0 -1)"/><path class="cls-3" d="M442.8,215c0,.11-.53.14-.53.14h-.11c-.11,0-.45-.3-.56-.41h.11c.1,0,.21-.12.32,0A2.25,2.25,0,0,0,442.8,215Z" transform="translate(0 -1)"/><path class="cls-3" d="M441.5,214.87c.33.09.34.3.56.4a6.28,6.28,0,0,1-2.41-.41,16.4,16.4,0,0,1-3.1-1.35c-2-1-4.47-2.58-6.27-3.68s-4.26-2.69-5.6-3.49c-2.58-1.59-3.47-2.09-5.93-3.58s-2.92-1.79-6.06-3.79-9-5.91-13-8.51c-2-1.3-5.06-3.53-7.21-5.14-.56-.41-1.13-.92-1.69-1.32a16.34,16.34,0,0,1-1.58-1.22c-.46-.41-1-.81-1.48-1.22s-1-.81-1.36-1.12a13.94,13.94,0,0,1-1.36-1.22,16.92,16.92,0,0,1-2.06-1.95l2.6,2,.23.2a10.08,10.08,0,0,1,1.14,1c.34.31.9.71,1.36,1.12s1,.81,1.47,1.22,1.13.81,1.58,1.22,1.14.91,1.7,1.32c2,1.62,5.18,3.73,7.09,5,3.94,2.72,9.77,6.41,12.92,8.52s3.7,2.29,6.05,3.79,3.25,2,5.83,3.59c1.23.8,3.81,2.4,5.49,3.5s4.26,2.7,6.16,3.68c.89.49,2,.87,2.88,1.25A6.4,6.4,0,0,1,441.5,214.87Z" transform="translate(0 -1)"/><path class="cls-2" d="M412.11,149.6h0c-.11,0-.12-.21-.12-.21Z" transform="translate(0 -1)"/><path class="cls-2" d="M412,149.39a.43.43,0,0,1,.13.32,19.06,19.06,0,0,1-3.92-2.29c-.23-.2-.68-.5-1.57-1.1a36.22,36.22,0,0,0-4.48-2.58c-1.22-.59-2.22-1.07-3.44-1.55s-2-.65-3.52-1.11a52.25,52.25,0,0,0-6.58-1.38c-1.42-.25-3.16-.48-3.93-.55-2-.22-2.83-.28-4.36-.53-.87-.17-1.42-.25-2.3-.42a28,28,0,0,1,7.36-.28c.76.07,2.61.29,4,.54s5.15,1,6.69,1.49a36.75,36.75,0,0,1,3.53,1.21c1.22.48,2.22,1,3.44,1.55s3.69,2.08,4.59,2.68a11.69,11.69,0,0,1,1.47,1.12A8.93,8.93,0,0,1,412,149.39Z" transform="translate(0 -1)"/><path class="cls-2" d="M397.16,169.79c1.58,1.32,2.51,2.36,3.88,3.69a17.39,17.39,0,0,1-4.8-2.67,10.15,10.15,0,0,1-1.71-1.53,52.46,52.46,0,0,1-3.79-4c-.47-.63-1.16-1.46-1.51-2s-.24-.31-.71-.94-1-1.57-1.65-2.51a33.71,33.71,0,0,1-2.29-4.43,16.2,16.2,0,0,1-1.12-2.75,8.52,8.52,0,0,1-.16-5c.24.53.37,1,.62,1.49a17.72,17.72,0,0,1,1.14,3.08c.14.53.63,1.7,1,2.65a39,39,0,0,0,2.18,4.33c.59.94,1.18,1.88,1.54,2.51s.35.42.7.94,1.05,1.35,1.4,1.88a49.9,49.9,0,0,0,3.68,3.92C396.37,169.18,396.93,169.59,397.16,169.79Z" transform="translate(0 -1)"/><path class="cls-2" d="M415.76,134.88a3.76,3.76,0,0,1-1.2-.15c-.21,0-.11-.1-.22-.09a12.56,12.56,0,0,0-2-1.2,15.61,15.61,0,0,0,1.47,1.22,6,6,0,0,1-2.11-1,12.83,12.83,0,0,1-1.68-1.1,46.74,46.74,0,0,1-3.74-3.05c-.46-.51-1.14-1.13-1.61-1.65s-.22-.2-.69-.82-1.05-1.36-1.85-2.18-2.66-3.11-3.25-4-1.31-2.21-1.55-2.74a17.6,17.6,0,0,1-1.46-5c1.05,1.57,1.65,2.62,2.72,4.41.24.42,1,1.68,1.55,2.62s2.23,3.13,2.92,4,1.28,1.56,1.74,2.07.34.31.69.73a17.75,17.75,0,0,0,1.49,1.54,28.88,28.88,0,0,0,3.62,3c.79.5,1.35.9,1.57,1A38.71,38.71,0,0,1,415.76,134.88Z" transform="translate(0 -1)"/><path class="cls-2" d="M414.45,134.63s.22.1.11.1a.88.88,0,0,1-.66-.18c-.44-.3-.91-.82-1.47-1.22C413.22,133.83,413.78,134.23,414.45,134.63Z" transform="translate(0 -1)"/><path class="cls-2" d="M386,179.27h0a43.32,43.32,0,0,1-3.88-3.8,16.75,16.75,0,0,0-1.6-1.54,27,27,0,0,0-3.74-3.05,22.47,22.47,0,0,0-2-1.19,8.72,8.72,0,0,0-1-.49,28.46,28.46,0,0,0-2.66-1.16c-1.1-.37-3.85-1.2-4.95-1.46s-3-.6-3.5-.68c-2.41-.42-3.83-.66-5.92-1.2a19.11,19.11,0,0,1,6.06-.11c.66.07,2.52.41,3.72.67s4.07,1.08,5.17,1.45,2,.87,2.78,1.26a8.13,8.13,0,0,0,1,.49c.56.3,1.46.9,2,1.19a22.21,22.21,0,0,1,3.85,3.16,13.25,13.25,0,0,1,1.61,1.64A16.65,16.65,0,0,1,386,179.27Z" transform="translate(0 -1)"/><path class="cls-2" d="M380.29,158.34l.87,0a2,2,0,0,1-1,.48A.84.84,0,0,1,380.29,158.34Z" transform="translate(0 -1)"/><path class="cls-2" d="M380.21,158.89a3.12,3.12,0,0,1-.27,1c0-.22-.25-.75-.27-1S380.21,158.78,380.21,158.89Z" transform="translate(0 -1)"/><path class="cls-2" d="M380.29,158.34c.12.1,0,.33-.08.44s-.43.13-.54,0-.14-.54-.14-.64.1,0,.1,0A1.56,1.56,0,0,0,380.29,158.34Z" transform="translate(0 -1)"/><path class="cls-2" d="M380.29,158.34c0,.22-.54-.08-.54-.08s-.11,0-.22-.09c-.14-.54-.16-.86-.3-1.4a12.61,12.61,0,0,0-.53-1.81,7.51,7.51,0,0,0-.62-1.48,10.4,10.4,0,0,1-.48-.95l-.7-.94c-.35-.41-.92-1-1.26-1.34a8.94,8.94,0,0,0-1-.92c-1-.81-1.81-1.42-2.72-2.24a9.38,9.38,0,0,1,3.66,1.65,9,9,0,0,1,1,1,15.31,15.31,0,0,1,1.27,1.44c.35.42.48.74.71,1a3.69,3.69,0,0,1,.48,1,8.48,8.48,0,0,1,.63,1.59,7.25,7.25,0,0,1,.43,1.93A2.81,2.81,0,0,1,380.29,158.34Z" transform="translate(0 -1)"/><path class="cls-2" d="M379.42,158.17c.33.2,0,.43.25.64a6.37,6.37,0,0,1-2.31-.64,21.14,21.14,0,0,1-1.91-1.19c-2.13-1.41-4.71-3-7.07-4.61s-5.61-3.6-8-5a10.77,10.77,0,0,1-1.35-.9,8.07,8.07,0,0,1-1.61-1.76c0-.11.33.09.33,0s.09-.22.08-.43a12.22,12.22,0,0,1,2.14,1.4,4.93,4.93,0,0,0,.79.61h-.11c.14.64.36.74,1,1,.22.1.76.07,1,.27,2.13,1.3,4.15,2.6,6.39,4s4.94,3.21,7,4.51c.78.5,1.23.8,1.79,1.2A5.67,5.67,0,0,0,379.42,158.17Z" transform="translate(0 -1)"/><path class="cls-2" d="M396.11,134.09a7.05,7.05,0,0,1-1.28.4c-.1,0-.13-.43,0-.43S395.79,134.11,396.11,134.09Z" transform="translate(0 -1)"/><path class="cls-2" d="M394.62,134.5a1.29,1.29,0,0,1-.6.9c.1-.12,0-.65.06-.76S394.72,134.39,394.62,134.5Z" transform="translate(0 -1)"/><path class="cls-2" d="M394.73,134.49c-.11,0-.54.14-.54.14s-.23-.31-.24-.42-.22-.1-.11-.1l.86-.05C394.81,134.06,394.72,134.39,394.73,134.49Z" transform="translate(0 -1)"/><path class="cls-2" d="M394.7,134h0c-.22,0-.64.25-1,.06s-.46-.63-.91-.93a12.79,12.79,0,0,0-1.69-1.1c-2.12-1.3-5.25-3-7.16-4.39s-3.49-2.41-5.19-3.83c-.23-.21-.25-.53-.37-.74a1.87,1.87,0,0,0-1.11-.59v.1a5.32,5.32,0,0,0-.68-.72,6.83,6.83,0,0,1-1.17-1.45l.33,0c.11,0-.13-.32,0-.21a4.49,4.49,0,0,1,1.46,1.11,4.88,4.88,0,0,0,.8.71c2,1.52,4.4,3.34,6.65,4.85s5,3.09,7.28,4.48a11.47,11.47,0,0,1,1.81,1.32A2,2,0,0,1,394.7,134Z" transform="translate(0 -1)"/><path class="cls-2" d="M393.84,134.22c.12.1.45.3.14.42a15.31,15.31,0,0,1-2.26.34c-.76,0-1.74,0-2.71-.07a23.94,23.94,0,0,1-2.62-.3c-.65-.07-1-.16-1.53-.24a9.44,9.44,0,0,1-1.65-.45,14.8,14.8,0,0,1-2.32-.85c-.44-.2-1.11-.59-1.34-.69a4.39,4.39,0,0,1-1.86-2.39c1,.49,1.68,1,2.8,1.58.22.1.78.39,1.22.59a13,13,0,0,0,2.21.75c.55.18,1.09.26,1.54.45a5.06,5.06,0,0,0,1.42.25c.54.08,2,.22,2.51.3.87.06,1.84,0,2.6.08a7.33,7.33,0,0,1,1.73,0C394.05,134.1,393.84,134.11,393.84,134.22Z" transform="translate(0 -1)"/><path class="cls-2" d="M384.18,143.94a8.59,8.59,0,0,1-.27,5c-.62-1.48-.91-2.77-1.64-4.35a4,4,0,0,0-1.17-1.46,11.39,11.39,0,0,0-1.79-1.09,14.82,14.82,0,0,0-1.44-.58c-.55-.18-.76-.17-1.32-.36a8.19,8.19,0,0,0-2.27,0A3,3,0,0,0,372.1,143a2.5,2.5,0,0,0-.09,2.28,3.37,3.37,0,0,0-1,.38c-.21,0-.3.34-.52.24a2.1,2.1,0,0,1-.58-2.67,4.78,4.78,0,0,1,.79-1.35,6,6,0,0,1,2.2-1.52c.32-.13.74-.26,1.17-.39a4.09,4.09,0,0,1,1.18-.17,16.58,16.58,0,0,1,2.17.1c.55.08,1,.27,1.54.35a6.39,6.39,0,0,1,1.55.68,14.14,14.14,0,0,1,2,1.3A4.81,4.81,0,0,1,384.18,143.94Z" transform="translate(0 -1)"/><path class="cls-2" d="M392.66,126.26c1.43.47,2.21.75,3.42,1.23a12.27,12.27,0,0,1-3.81-.45c-.22-.09-.77-.17-1.54-.46a22.62,22.62,0,0,1-6.48-3.55,16.77,16.77,0,0,1-2.06-2.17,6.65,6.65,0,0,1-.71-1,10.17,10.17,0,0,0-.59-.94c-.35-.53-.84-1.58-1.21-2.32a20.62,20.62,0,0,0-1.34-2.75,2.28,2.28,0,0,0-2.21-.85,1.65,1.65,0,0,0-1.25.93,3.22,3.22,0,0,0-.46,1.43,3,3,0,0,0,.18,1.4c-.23-.2-.56-.4-.58-.62v-.32a2.34,2.34,0,0,0-.16-.86s-.2.23-.21.12a2.48,2.48,0,0,1,.47-1.43A3.26,3.26,0,0,1,376,112.2a3,3,0,0,1,3,1,26.1,26.1,0,0,1,1.68,2.94,11.71,11.71,0,0,0,1.2,2.32c.13.32.24.31.36.52s0,.11.24.42a6.41,6.41,0,0,0,.7,1,26,26,0,0,0,2.07,2.16,20.54,20.54,0,0,0,6.14,3.47A2,2,0,0,1,392.66,126.26Z" transform="translate(0 -1)"/><path class="cls-2" d="M396.69,122.58a6.87,6.87,0,0,1,.71,3.21c-.6-1.05-.95-1.68-1.56-2.84a11.31,11.31,0,0,0-1-1.68c-.12-.32-.71-1.16-.95-1.58a7.75,7.75,0,0,1-.7-.93,6.24,6.24,0,0,0-.81-1,15.43,15.43,0,0,0-1.38-1.45,3.21,3.21,0,0,1,.62-.57c.46.41,1,1,1.49,1.44a9.54,9.54,0,0,0,.92,1l.7.94c.24.42.83,1.36,1.06,1.67C396.08,121.42,396.56,122.26,396.69,122.58Z" transform="translate(0 -1)"/><path class="cls-2" d="M370.63,157.88a9.32,9.32,0,0,1,1.68,3.06c-.92-.93-1.6-1.54-2.52-2.58a11.78,11.78,0,0,0-1-1.13,29.81,29.81,0,0,0-6.18-4.11,35.72,35.72,0,0,0-4.75-1.81c-1-.27-.55-.08-1-.27a1.31,1.31,0,0,1-.55-.19c-1-.27-1.76-.45-2.75-.72a7.08,7.08,0,0,1-3-1.14,4.11,4.11,0,0,1-1.46-3,2.88,2.88,0,0,1,.87-2.11,2.25,2.25,0,0,1,1.26-.61c.11,0-.1.12,0,.22a1.79,1.79,0,0,0,.76.07c.21,0,.21-.12.42-.13s.56.29.68.5a3.2,3.2,0,0,0-1.41,0,2,2,0,0,0-1.05.6,2.19,2.19,0,0,0-.57,1.54,2.81,2.81,0,0,0,1,2.12,9.85,9.85,0,0,0,2.66,1c1,.27,2,.54,2.85.71s.33.09,1.54.35a43,43,0,0,1,5,1.9,28.68,28.68,0,0,1,6.4,4.32A16.37,16.37,0,0,0,370.63,157.88Z" transform="translate(0 -1)"/><path class="cls-2" d="M366.94,161.87c1.52.14,2.51.41,3.94.66a12.34,12.34,0,0,1-4,.21c-.44-.08-1.64-.23-2.41-.41-.33-.09-1.53-.35-2-.44a5.06,5.06,0,0,1-1.21-.36,7.31,7.31,0,0,1-1.33-.47c-.44-.2-1.55-.68-1.88-.77s-.33-.09-.33-.2a2.12,2.12,0,0,1,.39-.67c.1-.11,0,0,.33.09s1.33.58,1.78.77.88.28,1.32.47.66.18,1.1.27,1.54.35,1.87.44C365.41,161.63,366.61,161.78,366.94,161.87Z" transform="translate(0 -1)"/><path class="cls-2" d="M373.94,146.87a5.41,5.41,0,0,1-2.3-.42c-.11,0,.22,0,.21-.11s.52-.36.63-.47A4.28,4.28,0,0,0,373.94,146.87Z" transform="translate(0 -1)"/><path class="cls-2" d="M395.75,113.2a4.45,4.45,0,0,1-.34,1.76c-.16-1.08-.32-1.94-.6-3.11,0-.22-.25-.64-.38-1.17a5.22,5.22,0,0,0-1.75-2.19,3.66,3.66,0,0,0-1.55-.78,3.71,3.71,0,0,0-1.52,0,4.1,4.1,0,0,0-2.2,1.42,1.76,1.76,0,0,0-.24,1.53A3.41,3.41,0,0,0,388.7,113c-.22-.1-.32,0-.54-.08a2.51,2.51,0,0,1-1.74-2.07,3.18,3.18,0,0,1,.43-2.19,5.34,5.34,0,0,1,2.71-1.88,3.45,3.45,0,0,1,1.84,0,4.61,4.61,0,0,1,1.9,1,8.65,8.65,0,0,1,2,2.6c.25.64.38,1.07.51,1.38A6.22,6.22,0,0,0,395.75,113.2Z" transform="translate(0 -1)"/><path class="cls-2" d="M373,145.08c0,.11-.29.67-.4.67s-.35-.41-.35-.41-.11,0,0-.11S372.86,145,373,145.08Z" transform="translate(0 -1)"/><path class="cls-2" d="M372.12,145.35c0,.1.34.3.36.52s-.53.35-.63.47-.1.11-.32.12a2.71,2.71,0,0,1-.78-.39c-.11-.1-.1,0-.11-.1s.32-.13.42-.24a8,8,0,0,1,1.06-.38C372.23,145.34,372.12,145.24,372.12,145.35Z" transform="translate(0 -1)"/><path class="cls-2" d="M370.86,146.06a1.6,1.6,0,0,0,.78.39,17.14,17.14,0,0,1-2.55,1,8.84,8.84,0,0,1-2.25.44l-2.27.12a4.21,4.21,0,0,1-1.63-.23c-.45-.2-1.35-.91-1.57-1s-.45-.19-.34-.2a5.52,5.52,0,0,1,1.64.24,18.54,18.54,0,0,0,2.3.42,6,6,0,0,0,1.94-.11,11,11,0,0,0,1.93-.43c.64-.14,1.27-.5,2-.65Z" transform="translate(0 -1)"/><path class="cls-2" d="M380.21,138.63a32.85,32.85,0,0,1-4.52.57,14.19,14.19,0,0,1-2.93-.17,5.13,5.13,0,0,1-1-.17,6.58,6.58,0,0,1-1.56-.67,4.77,4.77,0,0,1-1.7-1.53,7.62,7.62,0,0,1-.62-1.38,3.38,3.38,0,0,1,0-1.41,8.24,8.24,0,0,1,1.26-2.78,6.43,6.43,0,0,1,2.61-2c.74-.25,1.28-.28,1.6-.41a3.93,3.93,0,0,1,2.84.39c.22.1-.21.23-.31.34s-.52.46-.61.69a5.79,5.79,0,0,0-2.39-.09,7,7,0,0,0-1.18.28,3.63,3.63,0,0,0-1.46.94,4.16,4.16,0,0,0-.77,1.88,2.29,2.29,0,0,0,.06,1.19,2.84,2.84,0,0,0,.61,1.16,6.15,6.15,0,0,0,1.48,1.44,3.77,3.77,0,0,0,1.22.48,3.45,3.45,0,0,0,.87.17C376.07,138.09,378.14,138.31,380.21,138.63Z" transform="translate(0 -1)"/><path class="cls-2" d="M392.65,113.91a9.36,9.36,0,0,1-1,1.79l-.57-.51A16.23,16.23,0,0,0,392.65,113.91Z" transform="translate(0 -1)"/><path class="cls-2" d="M391.66,115.7c0,.11-.51.57-.62.57a1.28,1.28,0,0,1-.57-.51,1.55,1.55,0,0,1,.62-.57C391.21,115.29,391.66,115.59,391.66,115.7Z" transform="translate(0 -1)"/><path class="cls-2" d="M390.94,116.39c0,.11-.1.11-.41.34a14.53,14.53,0,0,1-1.79,1.08c-.11,0-.64.25-.85.26a3.46,3.46,0,0,1-1,.27,10.1,10.1,0,0,1-1.5.29,5.46,5.46,0,0,1-3.27-.36h-.11l3.33-.5a8.67,8.67,0,0,0,1.39-.29c.11,0,.64-.25.86-.27s.63-.25.74-.25c.53-.25,1.36-.83,1.68-1s.21-.23.32-.23S390.93,116.17,390.94,116.39Z" transform="translate(0 -1)"/><path class="cls-2" d="M391.09,115.19c0,.11-.51.46-.62.57s-.33-.2-.34-.3c-.79-.72-1.59-1.44-2.28-2.16a8.68,8.68,0,0,1,2.79,1.59C390.75,114.88,391.09,115.08,391.09,115.19Z" transform="translate(0 -1)"/><path class="cls-2" d="M377.17,130.34a4.14,4.14,0,0,1,.17,1.18,4.46,4.46,0,0,0-1.35-1,6.46,6.46,0,0,1,.73-.47c.1-.11.1-.22.21-.12S377.16,130.13,377.17,130.34Z" transform="translate(0 -1)"/><path class="cls-2" d="M362.83,147.79a3.33,3.33,0,0,1-1-.27c-.67-.29-.89-.49-1-1h.11c.12.21,0,0,.34.3A12.46,12.46,0,0,0,362.83,147.79Z" transform="translate(0 -1)"/><path class="cls-2" d="M378.23,127.9a7.59,7.59,0,0,1-1.31,1.81c-.21.11-.23-.32-.34-.31s-.33-.09-.23-.21a12.47,12.47,0,0,0,.9-1.34c.2-.45.38-1,.58-1.44a2.65,2.65,0,0,0,0-1.31,3.9,3.9,0,0,0-.51-1.48,1.94,1.94,0,0,1-.27-1.07h0a15.54,15.54,0,0,1,1.47,1.22c.23.2.26.74.27,1a3.55,3.55,0,0,1,0,1.52A3.35,3.35,0,0,1,378.23,127.9Z" transform="translate(0 -1)"/><path class="cls-2" d="M376.93,129.81c0,.11-.11.12-.21.23a1.77,1.77,0,0,1-.73.47.83.83,0,0,1-.45-.19c-.1,0-.21,0-.11-.1s.4-.57.61-.68.2-.34.31-.35a.25.25,0,0,1,.23.21C376.58,129.51,376.92,129.71,376.93,129.81Z" transform="translate(0 -1)"/><path class="cls-2" d="M375.65,130.31s.44.09.34.2-.85.37-.85.37.3-.45.3-.55S375.54,130.32,375.65,130.31Z" transform="translate(0 -1)"/><path class="cls-2" d="M358.85,156.46c0,.1,0,.54-.07.65-.08.55-.25,1.53-.34,1.86s-.08.44-.19.44a1.23,1.23,0,0,1-.78-.39c0-.11,0,0,.09-.33a7.31,7.31,0,0,0,.35-1.64c0-.11.08-.44.08-.55l0-.65c0-.32-.16-1.07-.17-1.18a27.12,27.12,0,0,0-1-3.08,6.32,6.32,0,0,1,1.89,3c0,.21.16,1,.19,1.39C358.92,155.8,359,156.23,358.85,156.46Z" transform="translate(0 -1)"/><path class="cls-2" d="M358.25,159.41c0,.11-.29.67-.4.67s-.66-.28-.67-.39.18-.66.29-.67S358.24,159.31,358.25,159.41Z" transform="translate(0 -1)"/><path class="cls-2" d="M358.36,163.52a5.6,5.6,0,0,1-1.69.85,8.42,8.42,0,0,1-1.71.31,4,4,0,0,1-1.53-.13,10,10,0,0,1-2.78-1.37,4.9,4.9,0,0,1-1.39-1.66,3.47,3.47,0,0,1-.42-1.82,5.77,5.77,0,0,1,.72-2.75,2.52,2.52,0,0,1,1.69-.85,3.53,3.53,0,0,1,2.43,1c.34.2.36.52.59.83a5.57,5.57,0,0,0-1.34-.79,6.61,6.61,0,0,0-1.43-.25,1.55,1.55,0,0,0-1.26.61,3,3,0,0,0-.54,2.19,6.3,6.3,0,0,0,.41,1.5,3.27,3.27,0,0,0,1.16,1.35,12.54,12.54,0,0,0,2.44,1.16,10.77,10.77,0,0,0,1.31.15C356.21,163.75,357.17,163.59,358.36,163.52Z" transform="translate(0 -1)"/><path class="cls-2" d="M357.18,159.69a5.13,5.13,0,0,0,.78.39,4.35,4.35,0,0,1-1.56,1.27C356.7,160.8,356.89,160.24,357.18,159.69Z" transform="translate(0 -1)"/><path class="cls-2" d="M357.36,158.92c0,.11-.18.66-.29.67s-.33-.1-.34-.2a7.85,7.85,0,0,1-2.62-2.36c1,.6,2,1.09,3.13,1.68C357.24,158.82,357.47,158.91,357.36,158.92Z" transform="translate(0 -1)"/><path class="cls-2" d="M378.3,123a1.71,1.71,0,0,1,.36.74c-.46-.41-1-.81-1.47-1.22h0v-.11A1.7,1.7,0,0,1,378.3,123Z" transform="translate(0 -1)"/><path class="cls-2" d="M357.9,144.81a.43.43,0,0,1-.33-.09,7,7,0,0,1-.48-.85,4.4,4.4,0,0,1,1,.49A.72.72,0,0,1,357.9,144.81Z" transform="translate(0 -1)"/><path class="cls-2" d="M357.46,144.72c-.1.12-.43-.08-.66-.29a11,11,0,0,0-1.12-.7,3.41,3.41,0,0,0-1-.27c-.33,0-.76-.07-1.2,0s-.85.15-1.07.16a1.17,1.17,0,0,1-.66-.18c-.11-.1-.43.13-.32,0a.86.86,0,0,1,.62-.58,9.58,9.58,0,0,1,1.82-.31,5.7,5.7,0,0,1,1.42.14,6,6,0,0,1,1.21.37,7,7,0,0,1,1.34.79c.23.21.35.53.25.64s-.78-.39-1-.38S357.57,144.61,357.46,144.72Z" transform="translate(0 -1)"/><path class="cls-2" d="M375.55,120.24s-.21.12-.33,0a4.89,4.89,0,0,1-.47-.73,5.13,5.13,0,0,1,.78.39C375.65,120.13,375.65,120.24,375.55,120.24Z" transform="translate(0 -1)"/><path class="cls-2" d="M375.53,120a2.33,2.33,0,0,0-.77-.39c0,.21.46.62.36.74s-.32,0-.55-.19a4,4,0,0,1-.82-1,3.46,3.46,0,0,1-.49-1.06c-.12-.32-.14-.75-.27-1.07a6.78,6.78,0,0,1,0-1.51,1.39,1.39,0,0,1,.5-.79c.11,0,0,.32,0,.54s.12.32.24.53a3,3,0,0,0,0,1,3.37,3.37,0,0,0,.27,1c.13.32.25.53.37.85a2.69,2.69,0,0,0,.7.83C375.52,119.7,375.52,119.81,375.53,120Z" transform="translate(0 -1)"/><path class="cls-2" d="M351.65,143.41a1.49,1.49,0,0,1,.66.18.56.56,0,0,0-.32.12,2.13,2.13,0,0,1-.76-.06s0-.22.1-.22h0C351.44,143.53,351.54,143.41,351.65,143.41Z" transform="translate(0 -1)"/><path class="cls-2" d="M374,115.45c0,.11,0,.33-.09.33s-.13-.42-.25-.53l0-.54c0-.1.1-.11.21-.12A2.82,2.82,0,0,1,374,115.45Z" transform="translate(0 -1)"/><path d="M590.79,340.46a3.06,3.06,0,0,1,1.56-1.28A5.48,5.48,0,0,1,593,339l.54,0a10.82,10.82,0,0,1,1.52.13,11.69,11.69,0,0,1,4,1.63,17.46,17.46,0,0,1,3.64,3.27,13.57,13.57,0,0,1,3.3,7,11.9,11.9,0,0,1,0,2.16c0,.76,0,.11-.17.88a11.63,11.63,0,0,1-1,2.54,14.08,14.08,0,0,1-1.72,2.26,24,24,0,0,0-2.26,2.4,2.64,2.64,0,0,0-.16,2.93,2.17,2.17,0,0,0,1.23.8,1.69,1.69,0,0,0,1.28-.39,3,3,0,0,0,.59-1.12,8.51,8.51,0,0,0-.34-2.36,9.69,9.69,0,0,1,.81,1,1.87,1.87,0,0,1,.29,1.28h0a2.72,2.72,0,0,1-.78,1.67,6.36,6.36,0,0,1-.84.59,1.84,1.84,0,0,1-1.08.05c-.22-.09-.21,0-.33-.09a2.37,2.37,0,0,1-1.46-1,3,3,0,0,1-.53-1.92,4.1,4.1,0,0,1,.55-1.77,24.39,24.39,0,0,1,2.25-2.5,21.91,21.91,0,0,0,1.62-2.15,11,11,0,0,0,1-2.43,2.09,2.09,0,0,0,.17-.88,5.14,5.14,0,0,0,0-1.95,11.72,11.72,0,0,0-3.06-6.44,22.15,22.15,0,0,0-3.3-3,11.68,11.68,0,0,0-3.55-1.54,8.49,8.49,0,0,0-1.41-.14l-.44,0a3.86,3.86,0,0,0-.53.14c-.53.14-1,.27-1.39.4" transform="translate(0 -1)"/><path d="M604.59,363.44a10.5,10.5,0,0,1,1.17-2.44c.3-.45.89-1.46,1.39-2.24a23.48,23.48,0,0,0,1.77-3.46,4.49,4.49,0,0,1,1.2-1.8,3.07,3.07,0,0,1,2.35-.66,3.56,3.56,0,0,1,2.12,1.08,14.68,14.68,0,0,1,1.38,1.65c.7.94,1.76,2.51,2.23,3.14.83,1.25,1.65,2.51,2.24,3.34a11.81,11.81,0,0,1,.6,1.05,21.5,21.5,0,0,1,1.32,2.53,32.71,32.71,0,0,1,1.4,3.83,11.31,11.31,0,0,0,1.84,4,2.57,2.57,0,0,0,1.67.88,2.65,2.65,0,0,0,1.7-.74,2.89,2.89,0,0,0,.88-1.78,2.68,2.68,0,0,0-.43-1.82,3.44,3.44,0,0,0-1-1.13,5.75,5.75,0,0,0-1.23-.59A5.16,5.16,0,0,0,626,368a2.83,2.83,0,0,1,1.28-.39h.11a2.45,2.45,0,0,1,1.43.57,4.24,4.24,0,0,1,1.94,3.8,3.31,3.31,0,0,1-1.07,2.22,3.41,3.41,0,0,1-2.12,1,2.91,2.91,0,0,1-2.22-1.07,12.81,12.81,0,0,1-2.07-4.33,26.27,26.27,0,0,0-1.39-3.72,18,18,0,0,0-1.33-2.42,9,9,0,0,1-.59-1.05c-.48-.84-1.31-2.1-2.13-3.24-.46-.63-1.63-2.19-2.22-3.13a14.86,14.86,0,0,0-1.28-1.56,3.17,3.17,0,0,0-1.67-.89,2,2,0,0,0-1.71.53,5.33,5.33,0,0,0-1.1,1.57,19.4,19.4,0,0,1-1.77,3.35c-.61.79-1.1,1.79-1.4,2.24C605.72,362.41,605.41,362.64,604.59,363.44Z" transform="translate(0 -1)"/><path d="M636.47,347.76a3.13,3.13,0,0,1,1.13.92,4.31,4.31,0,0,1,.76,2,2.76,2.76,0,0,1-.76,2.1,3.91,3.91,0,0,1-1.9.86,3.86,3.86,0,0,1-2-.33,22.11,22.11,0,0,1-3.15-2.1,8.66,8.66,0,0,0-4.74-1.59,2.49,2.49,0,0,0-.87-.06,2.76,2.76,0,0,1-.87-.06c-.54,0-1.41,0-2.06,0a1.66,1.66,0,0,0-1.17.39,1.43,1.43,0,0,0-.58,1.22,10.87,10.87,0,0,0,.73,3.64,47.73,47.73,0,0,0,3.23,7.63,9.5,9.5,0,0,0,.83,1.47c.24.31.13.32.25.53a3.75,3.75,0,0,1,.36.63,15.82,15.82,0,0,1,1.34,2.75v.1a.1.1,0,0,0-.11-.1,13.85,13.85,0,0,1-1.86-2.28,3.79,3.79,0,0,1-.36-.63c-.11-.21-.11-.1-.35-.53a11.24,11.24,0,0,1-.84-1.58,51.38,51.38,0,0,1-3.35-7.83,11.79,11.79,0,0,1-.54-2,14.12,14.12,0,0,1-.22-2.05,2.52,2.52,0,0,1,1-1.68,4.07,4.07,0,0,1,1.49-.51c.75,0,1.62,0,2.16,0a2.17,2.17,0,0,1,.87.06,2.76,2.76,0,0,1,.87.07c.55.07,1.31.14,2.19.31a12.14,12.14,0,0,1,2.89,1.36,21,21,0,0,0,3,2.12,3,3,0,0,0,3.12-.28,1.77,1.77,0,0,0,.58-1.44,2.56,2.56,0,0,0-.63-1.48,2.17,2.17,0,0,0-1.23-.8,4.34,4.34,0,0,0-1.19-.05,4.83,4.83,0,0,0-1.18.28,4,4,0,0,1,1-.81" transform="translate(0 -1)"/></g></g></svg>