<svg id="Layer_1" data-name="Layer 1" xmlns="http://www.w3.org/2000/svg" viewBox="0 0 720.38 480"><defs><style>.cls-1{fill:#cfc3b4;}.cls-2{fill:#202020;}.cls-3{fill:#3c3c3c;}.cls-4{fill:#fff;}</style></defs><title>6</title><g id="_4" data-name="4"><path class="cls-1" d="M720,1V481H0V1Z" transform="translate(0 -1)"/><g id="_Group_" data-name="&lt;Group&gt;"><path class="cls-2" d="M677.44,467.57l.5.64c.3.37.84,1,1.32,1.45s1.09,1,1.65,1.62,1.21,1.21,1.83,1.86c1.23,1.29,2.42,2.42,3.8,3.68s2.67,2.51,4,3.78h.9c-1.5-1.41-3-2.87-4.45-4.28-1.27-1.22-2.52-2.54-3.77-3.78-.59-.58-1.16-1.31-1.72-1.85s-1.18-1.13-1.64-1.61-1-1.1-1.32-1.45-.35-.36-.5-.53-.11-.17-.2-.24-.07,0-.12,0,0,0,0-.11,0-.09,0-.23l.07-.55c0-.24.09-.76.13-1.05a8,8,0,0,1-.54.89,2.75,2.75,0,0,0-.28.42c-.07.16-.13.16-.15.33s-.27.2-.14.42S677.25,467.31,677.44,467.57Z" transform="translate(0 -1)"/><path class="cls-2" d="M637.83,376.17l.39.13.57.2c.22.09.44.23.72.36a11.82,11.82,0,0,1,1.53.91c1.13.76,1.9,1.39,3.15,2.24A157.11,157.11,0,0,0,659.51,389a53.46,53.46,0,0,1,8.14,5.51c2.47,2,4.77,4,7.15,6.19a99.9,99.9,0,0,1,7.3,7,73.66,73.66,0,0,1,6.1,8.48c3.06,4.86,6.68,11.63,8.88,15.84s4.21,8.39,5.63,11.09,1.58,3.07,2.32,4.5.26.43.81,1.52a14.28,14.28,0,0,0,1.69,3,17.37,17.37,0,0,0,3.77,3.43,52.23,52.23,0,0,1,5.24,3.52,8.55,8.55,0,0,1,2.12,2.74,5,5,0,0,1,.49,3.57c-.39,1.3-1.5,2.18-2.36,3.33a4,4,0,0,0-.92,2.2,6.82,6.82,0,0,0,.43,2.5c.6,1.68,1.3,3.28,2,5a24,24,0,0,1,.81,2.26h1a13.16,13.16,0,0,0-.62-2.51c-.63-1.71-1.37-3.24-2-4.86A4.61,4.61,0,0,1,717,471a4,4,0,0,1,.78-1.83c.38-.62,1-1.06,1.39-1.65a6.26,6.26,0,0,0,1-2,5.81,5.81,0,0,0-.55-4,9.23,9.23,0,0,0-2.32-3A59.37,59.37,0,0,0,712,455a13.88,13.88,0,0,1-3.58-3.3,17.52,17.52,0,0,1-1.7-3c-.58-1.05-.07-.09-.82-1.52s-.92-1.86-2.3-4.59-3.43-6.84-5.62-11.08-5.86-11-8.86-15.93a63.87,63.87,0,0,0-6.29-8.61,94.75,94.75,0,0,0-7.38-7.08c-2.44-2.17-4.77-4.2-7.26-6.22a51.44,51.44,0,0,0-8.14-5.49,171.55,171.55,0,0,1-15.56-8.87c-1.23-.82-2.14-1.53-3.22-2.27a10.82,10.82,0,0,0-1.58-.9,8.12,8.12,0,0,0-.73-.36c-.25-.1-.45-.16-.67-.23a3.53,3.53,0,0,0-.49-.17,2.62,2.62,0,0,0-.73-.06c-.34,0-.68,0-1.16,0a9.43,9.43,0,0,0-1.86.44c1.06.12,2.1.08,3.2.15A5.32,5.32,0,0,1,637.83,376.17Z" transform="translate(0 -1)"/><path d="M708.65,480.6a1.67,1.67,0,0,1,.25-.76,1.42,1.42,0,0,1,2.37-.14,3.07,3.07,0,0,1,.64.9h.79a3.57,3.57,0,0,0-.93-1.47c-1.21-1-2.37-1-3.37.21a1.91,1.91,0,0,0-.34,1.26Z" transform="translate(0 -1)"/><path d="M709.41,480.6a.69.69,0,0,1,0-.1.86.86,0,0,1,1.21-.25c.12.09.12.11.32.26l.09.09h.85a3.32,3.32,0,0,0-.66-.91,1.43,1.43,0,0,0-2.39.24,1.77,1.77,0,0,0-.25.67Z" transform="translate(0 -1)"/><path class="cls-2" d="M685.76,480.6h1.16l-.53-.48c-1-.94-1.65-1.38-2.64-2.16A14.51,14.51,0,0,0,685.76,480.6Z" transform="translate(0 -1)"/><path class="cls-3" d="M657.56,480.6h1l-.35-1.1c-.42-1.42-.35-3-.74-4.24,0,.42-.11.63-.13,1.08a9.75,9.75,0,0,0,0,3.29C657.42,479.94,657.49,480.28,657.56,480.6Z" transform="translate(0 -1)"/><path class="cls-2" d="M705.52,467.75a9.79,9.79,0,0,1-.67,3.18,11.26,11.26,0,0,1-.83,1.46,1.51,1.51,0,0,0-.14.21l-.15.22a5.35,5.35,0,0,1-.82.83,5.14,5.14,0,0,1-2.55,1.09c.74-.59,1.35-1.15,2.09-1.82.12-.1.6-.61.71-.73a1.42,1.42,0,0,0,.15-.22c.05-.07.1-.16.14-.21.21-.31.7-1.12.8-1.34C704.75,469.41,705,468.68,705.52,467.75Z" transform="translate(0 -1)"/><path d="M703.3,468.83a.9.9,0,0,1-.16.42,6.8,6.8,0,0,1-2.61,3.09c-1.92,1-3.65.71-5.63,0a1.92,1.92,0,0,1-.52-.29c-3.21-2.63-4.86-5.64-4-9.74a4.55,4.55,0,0,1,3.07-3.55,6.05,6.05,0,0,1,5.81.4C702.77,461.45,703.86,464.73,703.3,468.83Zm-8.17,2.6c3.18,1.6,6.23.47,7.35-2.95a7,7,0,0,0-3.6-8.45c-3.15-1.67-6.62-.79-7.77,2.74S691.94,469.82,695.13,471.43Z" transform="translate(0 -1)"/><path class="cls-2" d="M705,462.56a13.77,13.77,0,0,1,1.06,3.13c-.66-1-1-1.63-1.66-2.79-.16-.26-.57-.92-1-1.54a26.76,26.76,0,0,0-3.1-3.64,15.59,15.59,0,0,0-2.37-1.74,7.81,7.81,0,0,0-1.12-.63c-.61-.3-1.44-.66-2.15-.93a22.33,22.33,0,0,0-4.85-1,4.47,4.47,0,0,0-1.24,0,6.07,6.07,0,0,0-1.5.23,2.58,2.58,0,0,0-1.2.69,2.23,2.23,0,0,1,.95-1.27,3.27,3.27,0,0,1,1.67-.53,4.52,4.52,0,0,1,1.34,0,24.84,24.84,0,0,1,5.06,1.08,15.91,15.91,0,0,1,2.24,1c.6.35.42.19,1.11.64a25.67,25.67,0,0,1,2.47,1.86,23.18,23.18,0,0,1,3.3,3.78C704.39,461.59,704.79,462.21,705,462.56Z" transform="translate(0 -1)"/><path d="M702.48,468.48c-1.12,3.42-4.15,4.56-7.36,2.94a7.37,7.37,0,0,1-4-8.75c1.16-3.54,4.64-4.44,7.77-2.74A7.12,7.12,0,0,1,702.48,468.48ZM700,470.83a4.28,4.28,0,0,0,2.1-2.73,5.62,5.62,0,0,0-.12-4,9.31,9.31,0,0,0-2.8-3.39,1.59,1.59,0,0,0-.41-.26c-1.56-.59-3.18-1-4.73-.22a3.5,3.5,0,0,0-2.21,2.71,7.18,7.18,0,0,0,3.66,7.79A4.44,4.44,0,0,0,700,470.83Z" transform="translate(0 -1)"/><path d="M702,468.19a4,4,0,0,1-2.12,2.73,4.54,4.54,0,0,1-4.65-.11,7.13,7.13,0,0,1-3.63-7.78,3.54,3.54,0,0,1,2.21-2.7c1.56-.76,3.15-.35,4.76.21a1.87,1.87,0,0,1,.4.27,8.88,8.88,0,0,1,2.79,3.39A5.44,5.44,0,0,1,702,468.19Zm-1.13-2.29a2,2,0,0,0-.18-2.68,1.57,1.57,0,0,0-2.46,0,2,2,0,0,0,.18,2.68A1.61,1.61,0,0,0,700.82,465.9Z" transform="translate(0 -1)"/><path class="cls-4" d="M700.74,463.24a2,2,0,0,1,.19,2.67,1.5,1.5,0,0,1-2.36,0,2.08,2.08,0,0,1-.19-2.68A1.47,1.47,0,0,1,700.74,463.24Z" transform="translate(0 -1)"/><path class="cls-2" d="M678.09,454.11c-1.08.17-1.84.28-3,.55a7.48,7.48,0,0,0-1.59.68,10.55,10.55,0,0,0-1.68,1.31,9.63,9.63,0,0,0-.92,1A13.78,13.78,0,0,0,670,459a19.39,19.39,0,0,0-.93,2.35,7.39,7.39,0,0,0-.29,1.4,9.76,9.76,0,0,0,0,1.94,4.6,4.6,0,0,0,.45,1.63,4.83,4.83,0,0,1-1.27-3.78,9.16,9.16,0,0,1,.31-1.63,13.91,13.91,0,0,1,1.06-2.55,11.53,11.53,0,0,1,1-1.46,10,10,0,0,1,1-1.12,12.4,12.4,0,0,1,1.9-1.38,9.05,9.05,0,0,1,1.71-.76A6.07,6.07,0,0,1,678.09,454.11Z" transform="translate(0 -1)"/><path class="cls-3" d="M651.92,473.78a7.37,7.37,0,0,1-3.79-.35,14.43,14.43,0,0,1-2.15-1,42.61,42.61,0,0,1-8.61-6.39,92.59,92.59,0,0,1-6.76-7.68,7.09,7.09,0,0,0,.72.38c-.8-.83-2.52-1.3-2.44-2.64,0,0,0,.05-.07-.08h0c-.89-1.28.56.79-1.07-1.54s-4.59-6.79-6.74-10.18c-1.06-1.67-3.59-5.23-4.73-7.34-.29-.54-.61-1.23-.92-1.77a2.39,2.39,0,0,1-.27-.53,3.34,3.34,0,0,0-.35-.62,13.1,13.1,0,0,1-1.15-3.17c.63,1,1.23,1.79,1.84,2.82.08.13.21.38.36.64.4.66.74,1.38,1.2,2.14,1.33,2.23,3.46,5.24,4.78,7.25,2.63,4,4.36,7,7.14,10.84a104.45,104.45,0,0,0,9.1,10.79,35.74,35.74,0,0,0,8.11,6c.78.38,1.63.82,2,1C649.66,473,650.54,473.3,651.92,473.78Z" transform="translate(0 -1)"/><path class="cls-3" d="M631.23,458.63c-.21-.14-.5-.26-.7-.37s.33.27-.15-.14-1.84-1.36-1.65-2.2c0-.05,0,0,.1.11A28.42,28.42,0,0,1,631.23,458.63Z" transform="translate(0 -1)"/><path class="cls-3" d="M630.51,458.37a15.51,15.51,0,0,1-2.41-1.72c-.29-.24-.91-.76-1.58-1.37-1.5-1.37-4-3.76-5.33-5.3s-1.8-1.93-3.12-3.49a51.35,51.35,0,0,1-4.1-5.29c-.65-1-1.9-3.21-2.57-4.47a6,6,0,0,0-.54-1,1.59,1.59,0,0,1-.28-.55l-.38-.76c-.49-1-1.57-2.1-1-3.2,0,0,0,0,.11.13a17.94,17.94,0,0,1,1.71,2.72,4.3,4.3,0,0,1,.37.65,2.35,2.35,0,0,0,.27.56c.14.25.38.61.55.95.65,1.23,1.85,3.34,2.49,4.35a50.22,50.22,0,0,0,4,5.15c1.27,1.57,1.75,1.94,3.12,3.49s3.65,3.9,5.24,5.35c.66.6,1,.82,1.51,1.29s-.33-.36.24.18A26.08,26.08,0,0,1,630.51,458.37Z" transform="translate(0 -1)"/><path class="cls-2" d="M611.07,431.64a9.29,9.29,0,0,1-1-1,9.85,9.85,0,0,1-1.27-2,5,5,0,0,0-.52-.75c-.52-.67-1.1-1.52-1.65-2.34a55.4,55.4,0,0,0-6.38-7.37,72.9,72.9,0,0,0-6-5.13c-1.6-1.22-1.77-1.35-3-2.18s-1.65-1-2.91-1.94c-.59-.45-1.85-1.49-2.65-2.13a18.28,18.28,0,0,1-1.58-1.44c-.5-.51-1.1-1.14-1.67-1.66s-1.11-1.18-1.69-1.72a12.9,12.9,0,0,1-1.6-1.9,23.15,23.15,0,0,0-1.45-1.82c-.38-.39-.77-.79-.73-1.05s0,.05.13,0,.74.31.58.09a4,4,0,0,0-.7-.68c-.19-.1-.26-.11-.35-.16s-.08,0-.12-.06a.7.7,0,0,1-.09-.17c-.27-.44-.8-1.38-1-1.74a11.82,11.82,0,0,1-.84-3.37,28.22,28.22,0,0,1,1.67,3.12,19.29,19.29,0,0,0,1,1.76,45.6,45.6,0,0,0,5.81,7.28c.56.57,1.14,1.28,1.66,1.78s1.11,1,1.58,1.39c.81.67,2,1.67,2.65,2.15,1.24.9,1.72,1.05,2.91,1.88s1.4.91,3,2.16a70.39,70.39,0,0,1,6,5.11,59.52,59.52,0,0,1,6.34,7.51c.54.81,1.21,1.63,1.62,2.34a8.64,8.64,0,0,0,.53.75A23.9,23.9,0,0,1,611.07,431.64Z" transform="translate(0 -1)"/><path class="cls-2" d="M615.39,419.3a14.48,14.48,0,0,1,1.37,3.62c-.82-1.19-1.28-1.75-2.14-3.13-.31-.5-.92-1.83-1.36-2.75-.76-1.58-2.76-5.09-3.41-6.43-1.3-2.69-3.26-6.21-4.24-7.93s-.26-.32-.76-1.11-.48-1-1-1.83a24.86,24.86,0,0,0-3.71-4.5,18.14,18.14,0,0,0-2.54-2.06c-.83-.54-2-1.29-2.65-1.76a11.37,11.37,0,0,0-1.67-.87c-.47-.27-.59-.13-.77-.53s.32-.72.24-1.14c.51.24.74.24,1.3.49a10.72,10.72,0,0,1,1.63,1c.68.47,1.79,1.14,2.62,1.7a28.83,28.83,0,0,1,2.62,2.18,19.86,19.86,0,0,1,3.66,4.5c.48.77.53,1.17.92,1.84a4.79,4.79,0,0,1,.57,1.06c.5,1,1.4,2.85,2.22,4.46.38.72,1.52,2.61,2.12,3.74,1,1.83,2.71,4.79,3.51,6.53C614.46,417.56,615.07,418.73,615.39,419.3Z" transform="translate(0 -1)"/><path class="cls-2" d="M636.61,374.12c-.06.12-.52,0-.64,0s0,.06-.14,0-.16-.83-.2-1c-.22-1.12-.37-2-.66-3.08s-.42-1.87-.7-3.23c-.13-.64-.43-2.2-.67-3.14-.12-.47-.37-1.29-.51-1.9s-.48-1.32-.7-2a32.54,32.54,0,0,0-3.68-7.48c-.45-.65-.87-1.26-1.1-1.55-.88-1.11-1.31-1.8-2.18-2.73a10.06,10.06,0,0,1,2.78,2.09c.24.26.63,1.25,1.09,1.5a.13.13,0,0,1,.05.14.49.49,0,0,0,0,.23c0,.11,0,.19,0,.35s.18.83.32.9.13-.6.17-.65-.08-.25.06-.08a7.73,7.73,0,0,1,.61.9c.36.61.69,1.31,1,2s.62,1.31.9,2a12.5,12.5,0,0,1,.74,2.07,16.37,16.37,0,0,0,.69,2c.21.58.38,1.46.53,1.9a27.64,27.64,0,0,1,.76,3.24c.23,1.37.46,2.08.69,3.23s.35,2.06.55,3.25A4,4,0,0,1,636.61,374.12Z" transform="translate(0 -1)"/><path class="cls-3" d="M608.75,406.84c-.2-.53-.39-.37-.65-1a6.38,6.38,0,0,1-.55-2.27,10.1,10.1,0,0,1,.2-2.46,18.46,18.46,0,0,1,1.47-4,23.68,23.68,0,0,1,1.79-2.61,19.87,19.87,0,0,1,2.73-2.78c.19-.16.48-.4.66-.57,1-.92,2.85-2.57,3.68-3.27s1.82-1.59,2.14-1.89a39.73,39.73,0,0,1,5.68-4.39c-2.19,1.87-3.68,3.54-5.92,5.69-.32.3-1.49,1.27-2.3,2.05s-3.06,2.76-4.06,3.54a12.26,12.26,0,0,0-2.27,2.3,13,13,0,0,0-1.4,2.13,15.26,15.26,0,0,0-1.19,3.34,13.23,13.23,0,0,0-.15,2.21C608.57,404.44,608.73,405.39,608.75,406.84Z" transform="translate(0 -1)"/><path class="cls-2" d="M615.92,387.36c-.2.3-.91,1.25-1.19,1.25s0-.27-.09-.8,0-1.59,0-2.61c0-2.14,0-4.85-.22-7.18a37.92,37.92,0,0,1,.13-4c0-1.16-.11-2.57,0-3.51s.09-1.42.09-2.12a16.4,16.4,0,0,1,.2-1.66c.32.25.78-.22,1,.11s0,.34.06.91-.07,1.2-.06,2.07.1,2.27.05,3.39-.14,2.7-.08,3.87c.11,2.29.12,4.84.19,7,0,1.11.06,1.67.06,2.63C616,387.07,616.11,387.05,615.92,387.36Z" transform="translate(0 -1)"/><path class="cls-2" d="M620.06,365c.32,0,.77.21,1.13.25a13.63,13.63,0,0,1-1.82.82,14,14,0,0,1-3.46.76,1.4,1.4,0,0,0-.18-.85,10.45,10.45,0,0,0,3.56-.64C619.47,365.27,619.73,364.94,620.06,365Z" transform="translate(0 -1)"/><path class="cls-2" d="M629.72,353.08a4.67,4.67,0,0,1-.32-.93.73.73,0,0,1,0-.35c0-.07.06-.3,0-.22s.38.56.45.65,0,0,.06.16A1.4,1.4,0,0,1,629.72,353.08Z" transform="translate(0 -1)"/><path class="cls-2" d="M629.85,352.25c-.08-.36-.38-.33-.45-.71a8.84,8.84,0,0,0-.63-2.57,12.93,12.93,0,0,0-2.13-3.22,80.28,80.28,0,0,0-6.68-5.62c-1.81-1.49-4.47-3.42-5.62-4.42a65.85,65.85,0,0,1-5.17-4.91c-1.87-1.95-2.49-2.48-4.62-5a68.18,68.18,0,0,1-6.78-10.67c-.91-1.73-1.7-4.22-2.55-6.09a8.57,8.57,0,0,1-.44-1.52,11.61,11.61,0,0,0-.49-1.4c-.17-.47-.35-1-.5-1.4s-.27-.92-.38-1.37-.26-1-.36-1.4a5.54,5.54,0,0,1-.18-.82c.17.27.33.23.45.58s.22.83.32,1.26a9.33,9.33,0,0,0,.37,1.37c.17.45.33.93.5,1.4a14.48,14.48,0,0,1,.45,1.5,13.58,13.58,0,0,0,.52,1.56c.75,1.9,1.57,4.44,2.48,6.18a71.48,71.48,0,0,0,6.84,10.77c2.12,2.52,2.73,3.07,4.59,5a69.67,69.67,0,0,0,5.17,4.91c1.18,1.05,3.76,3,5.64,4.5s5,3.87,6.86,5.78a12.9,12.9,0,0,1,2.08,3.48A6,6,0,0,1,629.85,352.25Z" transform="translate(0 -1)"/><path class="cls-2" d="M615.68,366.91a1.18,1.18,0,0,1-1-.07c-.14-.16,0-.68.18-.83s.5,0,.67.08S615.85,366.79,615.68,366.91Z" transform="translate(0 -1)"/><path class="cls-2" d="M615.61,366c-.16-.11-.63.2-.65-.13a8.54,8.54,0,0,1,.25-1.22C615.33,365.08,615.49,365.52,615.61,366Z" transform="translate(0 -1)"/><path class="cls-2" d="M614.67,366.83c0,.21-.14.05-.24,0a12.61,12.61,0,0,1-4.35-1.44,58.93,58.93,0,0,1-6.83-5.49,62.79,62.79,0,0,1-5.31-5.51,43.75,43.75,0,0,1-5.12-6.29c-1.75-2.66-2.53-3.34-4.54-6.85a68.68,68.68,0,0,1-6.06-14.69,36.89,36.89,0,0,1-.88-8.54c0-.65,0-1.39.08-2.05a7.15,7.15,0,0,1,.16-1.9.2.2,0,0,1,.07-.09h0a2.51,2.51,0,0,0,0-.44c0-.43.23-1,.29-1.47a10.32,10.32,0,0,1,.42-1.68c.14-.45.38-1.37.48-1.62a16.59,16.59,0,0,1,1.47-2.78,23.44,23.44,0,0,1-.71,3c-.12.34-.35,1.13-.49,1.63s-.32,1.11-.43,1.69a13.91,13.91,0,0,0-.31,1.88c0,.62-.14,1.23-.12,1.89s-.07,1.35-.08,2a35.35,35.35,0,0,0,.84,8.34A69.38,69.38,0,0,0,589,341a65.18,65.18,0,0,0,4.44,6.78,58,58,0,0,0,5.06,6.14c1.13,1.29,3.56,3.69,5.3,5.29a61.64,61.64,0,0,0,6.5,5.35,14.59,14.59,0,0,0,3.8,1.33c.66.18.28,0,.38,0C615,366.11,614.66,366.62,614.67,366.83Z" transform="translate(0 -1)"/><path class="cls-2" d="M591.11,393.22a7.46,7.46,0,0,1-1.22,1.54c.1-.41,0-.94.12-1.3s.29-.43.44-.72a32,32,0,0,0,1.35-3.24c0,.33.55.26.53.56A9.2,9.2,0,0,1,591.11,393.22Z" transform="translate(0 -1)"/><path class="cls-2" d="M592.7,389.05a2.61,2.61,0,0,1-.26,1c-.05.07-.49-.33-.57-.46a1.06,1.06,0,0,1,.14-.7C592.12,388.78,592.64,388.85,592.7,389.05Z" transform="translate(0 -1)"/><path class="cls-2" d="M592.7,388.75s.09.14-.08.14-.59,0-.64-.24c0,0-.05.53.07-.3a17.29,17.29,0,0,0,0-4.14,37.79,37.79,0,0,0-2.5-7.55,66.17,66.17,0,0,0-3-6.18,61.4,61.4,0,0,0-4-6.4,74.2,74.2,0,0,0-4.79-6.46c-2.7-3.24-7.74-8.77-11.63-12.5-2-1.88-5.12-5-7.42-7-.58-.49-1.27-1.23-1.85-1.76s-1.27-1.1-1.85-1.64-1.25-1-1.79-1.58-1.23-1-1.76-1.43-1.41-1.15-1.81-1.49c-1.22-1-2-1.87-3.15-2.87a23.66,23.66,0,0,1,3.3,2.2c.32.25,1.27,1.08,1.8,1.47s1.17,1,1.76,1.42,1.17,1.14,1.81,1.57a.37.37,0,0,0,.11.05,16.16,16.16,0,0,1,1.86,1.64c.59.55,1.35,1.3,1.93,1.8,2.32,2,5.55,5.23,7.5,7.13,3.9,3.81,9,9.38,11.73,12.61a71.17,71.17,0,0,1,4.92,6.46,75.75,75.75,0,0,1,4,6.45,41.7,41.7,0,0,1,3,6.35c.81,2.22,2.21,5,2.57,7.68C593,385.4,592.59,387.37,592.7,388.75Z" transform="translate(0 -1)"/><path class="cls-2" d="M591.91,388.78c.24.22-.18.48-.12.72a7.2,7.2,0,0,1-.88-1.1C591.18,388.61,591.67,388.56,591.91,388.78Z" transform="translate(0 -1)"/><path class="cls-2" d="M577.86,397.27c.07.13-.49-.07-.54-.12s0,0-.14-.06-.51-.58-.44-.7,0,0,.12,0,.26,0,.33.15S577.79,397.13,577.86,397.27Z" transform="translate(0 -1)"/><path class="cls-2" d="M576.6,396.43c.26.28.25.46.47.75a9.86,9.86,0,0,1-2.36-1.84,17.75,17.75,0,0,1-2.51-3.24,66.18,66.18,0,0,1-3.91-7.55c-1-2.21-2.25-4.91-3.08-6.47-1.62-3.05-2.25-4-3.79-6.92s-2-3.69-4.22-7.55-6.09-10.81-9.06-15.6c-1.48-2.4-3.68-6.38-5.19-9.09-.38-.69-.81-1.59-1.19-2.28s-.8-1.4-1.12-2.08-.7-1.41-1-2-.61-1.3-.89-1.83-.68-1.58-.83-1.9c-.54-1.22-.83-2-1.23-3.1.58,1.17,1.12,2.26,1.71,3.43a2.42,2.42,0,0,0,.17.37c.16.33.48,1.05.69,1.59s.6,1.21.89,1.84.69,1.35,1,2,.79,1.37,1.11,2.09.81,1.58,1.19,2.28c1.44,2.65,3.7,6.57,5.11,8.9,2.9,4.82,6.83,11.68,9,15.56s2.68,4.63,4.17,7.54,2.1,3.8,3.7,6.87c.77,1.49,2.05,4.25,3,6.42a60.85,60.85,0,0,0,3.82,7.49,15.16,15.16,0,0,0,2.35,3C575.27,395.73,576,395.78,576.6,396.43Z" transform="translate(0 -1)"/><path class="cls-3" d="M581.8,313.94h0s0-.25,0-.23S581.83,313.91,581.8,313.94Z" transform="translate(0 -1)"/><path class="cls-3" d="M581.85,313.7a.63.63,0,0,1-.11.36,19.49,19.49,0,0,1-2-4.14c-.09-.3-.3-.95-.63-1.86a34.86,34.86,0,0,0-2.13-4.48c-.67-1.13-1.2-2.12-1.95-3.24a25,25,0,0,0-2.52-2.9,41.72,41.72,0,0,0-5.27-4.39c-1.28-.86-2.86-1.95-3.56-2.37-1.8-1.11-2.72-1.65-4.14-2.64-.81-.57-1.17-1-2-1.52a38.56,38.56,0,0,1,7.78,3.32c.74.44,2.39,1.52,3.67,2.45a50.73,50.73,0,0,1,5.27,4.53,20.71,20.71,0,0,1,2.36,3c.75,1.14,1.25,2.09,1.93,3.24s1.72,3.7,2.11,4.61a11.8,11.8,0,0,1,.54,1.81A11.28,11.28,0,0,1,581.85,313.7Z" transform="translate(0 -1)"/><path class="cls-3" d="M554.38,326.26c1,2.24,1.53,3.74,2.31,5.81a24.86,24.86,0,0,1-3.83-5.27,17.9,17.9,0,0,1-1-2.44,42.16,42.16,0,0,1-1.77-5.69c-.12-.85-.31-1.89-.39-2.64s-.08-.52-.19-1.38a23.58,23.58,0,0,1-.14-3.22,31.43,31.43,0,0,1,.82-5.18,24.41,24.41,0,0,1,1-3.17,14.59,14.59,0,0,1,3.93-5c-.22.66-.39,1.08-.6,1.75a29.38,29.38,0,0,1-1.38,3.61c-.25.58-.7,1.92-1,3a26.39,26.39,0,0,0-.86,5c0,1.2-.08,2.35,0,3.18s.11.69.16,1.37.22,1.8.33,2.48a35.76,35.76,0,0,0,1.68,5.53C553.81,325.16,554.24,325.93,554.38,326.26Z" transform="translate(0 -1)"/><path class="cls-3" d="M594.15,302.38a3.3,3.3,0,0,1-.76-.72c-.13-.18-.07-.13-.11-.23a13.67,13.67,0,0,0-.74-2.06c.09.61.18,1.2.33,1.82a7.16,7.16,0,0,1-1-2,14.9,14.9,0,0,1-.58-1.84c-.21-.93-.76-3.2-.89-4.47-.06-.68-.18-1.64-.26-2.28s-.06-.42-.15-1.18-.25-1.71-.44-2.83-.71-3.83-.88-4.92a16.09,16.09,0,0,1-.08-3.1,21.25,21.25,0,0,1,1.3-5.18c.1,1.94.09,3.21.12,5.35a29.15,29.15,0,0,0,.17,3c.14,1,.36,3.65.51,4.7s.28,2,.4,2.68.14.51.22,1.08.19,1.54.24,2.12a31.26,31.26,0,0,0,.87,4.3c.23.81.49,1.49.55,1.68A35,35,0,0,1,594.15,302.38Z" transform="translate(0 -1)"/><path class="cls-3" d="M593.35,301.47s.15.24,0,.13a.63.63,0,0,1-.36-.52c-.08-.37-.22-1.28-.32-1.75C592.89,300,593.08,300.8,593.35,301.47Z" transform="translate(0 -1)"/><path class="cls-3" d="M538.82,329.34h0c-.88-2-1.5-3.6-2.3-5.94-.11-.34-.53-1.36-.91-2.35a45.62,45.62,0,0,0-2-4.73c-.36-.64-.79-1.53-1.14-2.1s-.24-.41-.68-1.05-1-1.49-1.62-2.4-2.37-2.87-3.12-3.67-2.06-2-2.46-2.33c-1.77-1.6-2.81-2.59-4.32-4.15a21.83,21.83,0,0,1,5.12,3.09c.5.4,1.82,1.6,2.64,2.43a42.21,42.21,0,0,1,3.29,3.78c.65,1,1.16,1.87,1.58,2.54s.33.49.68,1.05.78,1.52,1.14,2.09a40.5,40.5,0,0,1,2.11,4.86c.43,1,.78,2.06.91,2.46A26.74,26.74,0,0,1,538.82,329.34Z" transform="translate(0 -1)"/><path class="cls-3" d="M543.68,306.89a3,3,0,0,1,.83.34c-.06.14-1.13.22-1.2,0S543.56,306.87,543.68,306.89Z" transform="translate(0 -1)"/><path class="cls-3" d="M543.19,307.33a2.88,2.88,0,0,1-.87.72,4.29,4.29,0,0,1,.4-.94C542.81,307,543.27,307.17,543.19,307.33Z" transform="translate(0 -1)"/><path class="cls-3" d="M543.65,306.87c.08.12-.24.36-.37.34s-.44-.06-.48-.23.23-.54.32-.64.08-.08.11.05S543.57,306.75,543.65,306.87Z" transform="translate(0 -1)"/><path class="cls-3" d="M543.68,306.85c-.2.19-.35-.23-.42-.33s-.17-.06-.12-.21c.2-.52.46-.87.73-1.46s.6-1.23.86-2a8.08,8.08,0,0,0,.53-1.64c0-.45.21-.73.26-1.15s0-.77.06-1.24a15.18,15.18,0,0,0-.17-1.82,10,10,0,0,0-.28-1.33c-.42-1.25-.67-2.23-1-3.43a8.13,8.13,0,0,1,2.34,3.29,9.26,9.26,0,0,1,.21,1.45c.06.48.09,1.42.09,1.93s-.11.89-.13,1.34a7.3,7.3,0,0,1-.27,1.17,13.73,13.73,0,0,1-.61,1.74,12.29,12.29,0,0,1-1.06,2.05A5.7,5.7,0,0,1,543.68,306.85Z" transform="translate(0 -1)"/><path class="cls-3" d="M543,306.24c.22.48-.28.35-.2.76a6.28,6.28,0,0,1-1.62-1.82c-.26-.44-.45-1.18-.82-2-1-2.36-2.28-5-3.52-7.5s-2.91-5.73-4.27-8.08a13.24,13.24,0,0,1-.76-1.41,7,7,0,0,1-.68-2.31c0-.12.23.23.29.13s.23-.2.28-.33a17,17,0,0,1,1.33,2.19c.07.12.51.7.42.84s-.09,0-.11,0c-.63.38,0,1,.41,1.41.12.15.57.42.72.69,1.22,2.18,2.38,4.29,3.58,6.55s2.53,5,3.48,7.31a14.68,14.68,0,0,1,.73,2A8.63,8.63,0,0,0,543,306.24Z" transform="translate(0 -1)"/><path class="cls-3" d="M579,291.43a7.53,7.53,0,0,1-1.48-.27c-.24-.12.09-.48.3-.39S578.71,291.29,579,291.43Z" transform="translate(0 -1)"/><path class="cls-3" d="M577.21,291.09c-.17.17-1,.6-1.21.49s.51-.6.58-.64S577.38,290.92,577.21,291.09Z" transform="translate(0 -1)"/><path class="cls-3" d="M577.32,291.09a3,3,0,0,1-.61-.13c-.14-.06,0-.42.09-.5s-.15-.21,0-.14.7.28.84.37S577.43,291.09,577.32,291.09Z" transform="translate(0 -1)"/><path class="cls-3" d="M577.72,290.57c-.09.15.21.1,0,0s-.81,0-1-.44-.06-.73-.31-1.31-.55-1.06-1-1.82c-1.24-2.19-3.12-5.11-4.16-7.36a64.5,64.5,0,0,1-2.55-6.1c-.1-.3.17-.64.17-.84,0-.51.1-1.14-.49-1.18,0,0,0,.14-.1.09s0-.85-.07-1a9.71,9.71,0,0,1-.14-1.92,1.59,1.59,0,0,0,.29.15c.11,0,.05-.33.13-.18a5.69,5.69,0,0,1,.64,1.83c0,.16.1.42.27,1.07a38.89,38.89,0,0,0,3.09,7.66c1.3,2.41,2.94,5.2,4.29,7.55a14.64,14.64,0,0,1,1,2.08A1.64,1.64,0,0,1,577.72,290.57Z" transform="translate(0 -1)"/><path class="cls-3" d="M576.7,290.41c0,.2.2.54-.24.44a15.82,15.82,0,0,1-2.56-.79,21.6,21.6,0,0,1-2.74-1.4c-.56-.32-1.83-1.06-2.39-1.47l-1.42-1A10.21,10.21,0,0,1,566,285a17,17,0,0,1-1.64-1.85c-.31-.47-.71-1.05-.83-1.28-.62-1.26-.33-2-.12-3.19.64,1,1,1.81,1.65,2.88.13.2.49.71.8,1.13a14,14,0,0,0,1.6,1.71,15.66,15.66,0,0,1,1.25,1.17,6.3,6.3,0,0,0,1.3.94c.56.35,1.7,1.13,2.24,1.45.87.51,1.9,1,2.61,1.33a10.23,10.23,0,0,1,1.8.85C577.1,290.46,576.71,290.22,576.7,290.41Z" transform="translate(0 -1)"/><path class="cls-3" d="M559.08,294.81c-1.13,2.31-2.61,3.29-4.4,4.82.63-1.77,1.35-3.15,1.93-5.05a3.63,3.63,0,0,0,0-1.95,9.14,9.14,0,0,0-.85-1.83c-.31-.4-.6-.86-.94-1.24s-.63-.56-1-1a8.24,8.24,0,0,0-2.2-1c-1.17-.5-3.05.36-3.68.74a5,5,0,0,0-2.18,2.27c-.29-.17-1,0-1.22-.09s-.67.29-.76,0c-.4-1.34.47-2.06,1.65-2.88a10.76,10.76,0,0,1,2-1,12.17,12.17,0,0,1,2.09-.44,9.45,9.45,0,0,1,1.39,0,14.58,14.58,0,0,1,1.48.18,5.12,5.12,0,0,1,1.32.41,13.85,13.85,0,0,1,2,1.11c.5.37.79.72,1.23,1.09a6.42,6.42,0,0,1,1,1.37c.32.45.78,1.85,1,2.12A3.77,3.77,0,0,1,559.08,294.81Z" transform="translate(0 -1)"/><path class="cls-3" d="M580.41,282.78c.91,1.07,1.72,1.86,2.61,2.87a14.52,14.52,0,0,1-3.39-2.46c-.17-.19-.59-.59-1.13-1.24-1.29-1.57-3.41-4.11-4.06-6.22a25.45,25.45,0,0,1-.68-2.92,5.78,5.78,0,0,1-.11-1.34c0-.56,0-.53,0-1.21a25.58,25.58,0,0,1,.28-2.62,13.8,13.8,0,0,0,.24-3,2.47,2.47,0,0,0-1.43-1.91,1.64,1.64,0,0,0-1.56.09,2.88,2.88,0,0,0-1.15,1,3.3,3.3,0,0,0-.58,1.28c-.08-.21-.25-.63-.16-.81s0-.17.16-.31.4-.66.32-.78-.32,0-.24,0c.39-.45.47-.73,1.16-1a3,3,0,0,1,4.31,2.31,15.11,15.11,0,0,1,0,3.37,24.27,24.27,0,0,0-.28,2.67,4.33,4.33,0,0,0,0,.66c0,.29-.06.12,0,.53a5.57,5.57,0,0,0,.12,1.31c.18.72.36,1.83.7,2.9.64,2.07,2.37,4.32,3.79,6.11A2.63,2.63,0,0,1,580.41,282.78Z" transform="translate(0 -1)"/><path class="cls-3" d="M585.84,281.79a7.34,7.34,0,0,1-.81,3.14c0-1.17-.16-2-.13-3.26,0-.33,0-1.37,0-1.88s0-1.32,0-1.81a10.54,10.54,0,0,1-.14-1.2,7.63,7.63,0,0,0-.18-1.34,16.35,16.35,0,0,0-.45-1.94,2.7,2.7,0,0,1,.84-.15c.15.6.42,1.44.53,2s.18.93.27,1.39a6.9,6.9,0,0,1,.14,1.2c0,.46.09,1.56.08,1.92C585.94,280.47,585.85,281.46,585.84,281.79Z" transform="translate(0 -1)"/><path class="cls-3" d="M535.31,301.65a13.68,13.68,0,0,1-.41,3.7,31.49,31.49,0,0,1-.62-3.65,10.12,10.12,0,0,0-.21-1.57,26.92,26.92,0,0,0-2.8-6.48,30.27,30.27,0,0,0-3-3.87c-.71-.76-.52-.48-.83-.81s-.25-.28-.42-.45c-.74-.74-1.37-1.27-2.15-1.94a6.57,6.57,0,0,1-1.95-2.45,4.24,4.24,0,0,1,.25-3.2,2.75,2.75,0,0,1,1.75-1.4c.66-.21.86,0,1.41.08.11,0-.17.08-.07.2a2.07,2.07,0,0,0,.59.42c.18.08.25,0,.44.11a1,1,0,0,1,.31.75,2.92,2.92,0,0,0-1.18-.71,1.74,1.74,0,0,0-1.21,0,2.12,2.12,0,0,0-1.24,1.05,2.76,2.76,0,0,0-.2,2.28,7.37,7.37,0,0,0,1.7,2.2c.68.64,1.53,1.32,2.22,1.94A13.23,13.23,0,0,1,529,289a28,28,0,0,1,3.21,4.05,24.63,24.63,0,0,1,2.9,6.74A12.41,12.41,0,0,1,535.31,301.65Z" transform="translate(0 -1)"/><path class="cls-3" d="M530,303.32c1.2,1,1.88,1.68,2.9,2.67a14.06,14.06,0,0,1-3.4-1.94c-.34-.26-1.2-1-1.73-1.55-.23-.23-1-1-1.33-1.33a8.12,8.12,0,0,1-.82-.94,9.45,9.45,0,0,1-.83-1.09,18.57,18.57,0,0,0-1.1-1.55c-.23-.27-.28-.19-.21-.38a1,1,0,0,1,.64-.36c.18,0,0,0,.27.27s.78,1.11,1,1.49.58.76.84,1.08a8.34,8.34,0,0,0,.77.8c.29.28,1.05,1.1,1.24,1.28C528.81,302.25,529.75,303.1,530,303.32Z" transform="translate(0 -1)"/><path class="cls-3" d="M546.38,293a5.16,5.16,0,0,1-2-1.43c-.08-.09.2,0,.32,0s.87-.25.94-.13C545.94,291.88,545.93,292.56,546.38,293Z" transform="translate(0 -1)"/><path class="cls-3" d="M589.76,273.43a4.58,4.58,0,0,1-1.18,1.31c.41-1.05.72-1.86,1.1-3a11.69,11.69,0,0,0,.23-1.23,6,6,0,0,0-.43-2.67,5.22,5.22,0,0,0-1-1.53,5.34,5.34,0,0,0-1.31-.87,4.26,4.26,0,0,0-2.5,0,1.84,1.84,0,0,0-1,1.12,4.18,4.18,0,0,0,0,3c-.11-.21-.31-.15-.43-.38a2.8,2.8,0,0,1-.37-2.78,3.16,3.16,0,0,1,1.51-1.57,5.38,5.38,0,0,1,3.13-.09,4.12,4.12,0,0,1,1.6,1,5.62,5.62,0,0,1,1.13,1.88,8.37,8.37,0,0,1,.44,3.14,8.21,8.21,0,0,1-.24,1.46A13.51,13.51,0,0,1,589.76,273.43Z" transform="translate(0 -1)"/><path class="cls-3" d="M546.82,290.82c0,.2-.71.51-.89.46s0-.41,0-.54,0-.09.11-.11S546.85,290.61,546.82,290.82Z" transform="translate(0 -1)"/><path class="cls-3" d="M545.78,290.7c.09.11,0,.5-.09.67s-.75.13-1,.16a.5.5,0,0,1-.43,0,1.79,1.79,0,0,1-.49-.69c-.05-.14-.15-.09,0-.15a2.09,2.09,0,0,1,.63-.05,4.65,4.65,0,0,1,1.37.09C545.87,290.81,545.69,290.58,545.78,290.7Z" transform="translate(0 -1)"/><path class="cls-3" d="M543.93,290.85c.16,0,.21.7.49.69a30,30,0,0,1-3.45-.12,15.45,15.45,0,0,1-2.66-.55,12.55,12.55,0,0,1-2.43-.86,4.06,4.06,0,0,1-1.31-1,13.32,13.32,0,0,1-.85-1.55c-.13-.25-.32-.42-.21-.36a5.19,5.19,0,0,1,1.33,1,18.77,18.77,0,0,0,1.81,1.44,5.73,5.73,0,0,0,2.2.69c.77.16,1.58.26,2.4.39s1.84,0,2.68.23C544,290.61,543.76,290.81,543.93,290.85Z" transform="translate(0 -1)"/><path class="cls-3" d="M559.36,288a40.62,40.62,0,0,1-4.85-1.63,15.31,15.31,0,0,1-2.76-1.58,3.77,3.77,0,0,1-.82-.64,4.63,4.63,0,0,1-.77-1.46,4.34,4.34,0,0,1-.2-2.32,8.53,8.53,0,0,1,.56-1.66,5.11,5.11,0,0,1,1.05-1.33,11.23,11.23,0,0,1,2.87-1.83,8.67,8.67,0,0,1,3.69-.52,17.11,17.11,0,0,1,1.88.39,3.8,3.8,0,0,1,2.61,1.72c.16.25-.36.11-.55.18a5.2,5.2,0,0,0-1.05.32,7.4,7.4,0,0,0-2.3-1.26,7.56,7.56,0,0,0-1.33-.31,5.28,5.28,0,0,0-2,.16,6.27,6.27,0,0,0-2,1.33,3.53,3.53,0,0,0-.85,1.17,3.68,3.68,0,0,0-.31,1.41,8.32,8.32,0,0,0,.22,2.07,2.36,2.36,0,0,0,.7,1.08,4.51,4.51,0,0,0,.73.6C555.71,285.36,557.49,286.64,559.36,288Z" transform="translate(0 -1)"/><path class="cls-3" d="M586.71,272.36a11,11,0,0,1-1.78,1l-.23-.74A17.21,17.21,0,0,0,586.71,272.36Z" transform="translate(0 -1)"/><path class="cls-3" d="M584.9,273.33c-.08.16-.64.24-.8.15a.79.79,0,0,1-.22-.71.87.87,0,0,1,.79-.15C584.79,272.74,585,273.17,584.9,273.33Z" transform="translate(0 -1)"/><path class="cls-3" d="M583.93,273.52c-.16.18-.2.06-.6.09a10.65,10.65,0,0,1-2.06-.07c-.12,0-.61-.16-.87-.21a6.88,6.88,0,0,1-1-.3c-.3-.11-1.22-.43-1.42-.52a12.29,12.29,0,0,1-2.91-2l-.1-.05c1.18.46,2.17.8,3.42,1.31a13.05,13.05,0,0,0,1.37.48c.1,0,.68.16.84.23a4.43,4.43,0,0,0,.76.17c.56.1,1.53,0,1.9.11s.29-.13.45,0S584.08,273.34,583.93,273.52Z" transform="translate(0 -1)"/><path class="cls-3" d="M584.68,272.59c-.14.15-.62.16-.81.15s-.13-.32-.16-.43c-.29-1-.61-2-.84-3.07a11.83,11.83,0,0,1,1.6,2.86C584.51,272.21,584.81,272.45,584.68,272.59Z" transform="translate(0 -1)"/><path class="cls-3" d="M562.66,278.78a4.45,4.45,0,0,1-.69,1.14,4,4,0,0,0-.58-1.59,7.84,7.84,0,0,1,1-.09c.22,0,.2-.18.32,0S562.77,278.51,562.66,278.78Z" transform="translate(0 -1)"/><path class="cls-3" d="M534.45,289a2.9,2.9,0,0,1-.72-.67c-.34-.43-.92-1-.4-1.39,0,0,.08,0,.1,0h0a1.48,1.48,0,0,0,.16.47A13.55,13.55,0,0,0,534.45,289Z" transform="translate(0 -1)"/><path class="cls-3" d="M565.4,277a11,11,0,0,1-2.44,1c-.54.07-.05-.31-.17-.41s-.4-.15,0-.33a17.62,17.62,0,0,0,1.77-.78c.47-.3,1.06-.69,1.52-1a3.55,3.55,0,0,0,.93-1.17,5.7,5.7,0,0,0,.54-1.6,3.38,3.38,0,0,1,.64-1.18h0c.1.67.26,1.25.38,1.94.06.3-.26.74-.38,1a7,7,0,0,1-1.07,1.39A5.87,5.87,0,0,1,565.4,277Z" transform="translate(0 -1)"/><path class="cls-3" d="M562.8,278.13c-.09.14-.18.05-.38.12a2.34,2.34,0,0,1-1,.08c-.22-.08-.23-.26-.32-.38s-.22,0,0-.18a3,3,0,0,1,1.06-.33c.23,0,.38-.21.55-.15s.14.16.09.3S562.89,278,562.8,278.13Z" transform="translate(0 -1)"/><path class="cls-3" d="M561.2,278c.07.07.37.24.17.35a1.77,1.77,0,0,1-1-.07c-.15-.09.6-.3.66-.37S561.13,277.92,561.2,278Z" transform="translate(0 -1)"/><path class="cls-3" d="M526.17,294.68a2.24,2.24,0,0,1-.36.51c-.34.36-.91,1.13-1.16,1.36s-.22.36-.41.31-.51-.5-.45-.69.05-.05.26-.29a6.3,6.3,0,0,0,1.05-1.19c.06-.11.25-.27.33-.43s.2-.38.29-.57.37-.93.41-1c.35-1.2.63-2.17,1-3.3a8.13,8.13,0,0,1-.21,3.69c-.06.21-.39,1-.5,1.23C526.56,294.23,526.22,294.56,526.17,294.68Z" transform="translate(0 -1)"/><path class="cls-3" d="M524.22,296.87c-.07.17-.47.42-.64.36a.82.82,0,0,1-.36-.65c.06-.16.37-.43.56-.41S524.28,296.7,524.22,296.87Z" transform="translate(0 -1)"/><path class="cls-3" d="M522.23,300.48a6.12,6.12,0,0,1-1.82-.14,7.74,7.74,0,0,1-1.56-.6,4,4,0,0,1-1.21-.93,10.23,10.23,0,0,1-1.56-2.51,4.94,4.94,0,0,1-.35-2.11,3.82,3.82,0,0,1,.55-1.8,5.49,5.49,0,0,1,1.88-1.92,2,2,0,0,1,1.78.09,3.74,3.74,0,0,1,1.63,2c.17.34,0,.65.09,1a5.78,5.78,0,0,0-.75-1.33,4.54,4.54,0,0,0-1.07-.93,1.48,1.48,0,0,0-1.35-.1,2.93,2.93,0,0,0-1.48,1.56,5.92,5.92,0,0,0-.4,1.51,3.34,3.34,0,0,0,.31,1.73,12.37,12.37,0,0,0,1.4,2.14,4.21,4.21,0,0,0,1,.82C520.38,299.61,521.23,299.92,522.23,300.48Z" transform="translate(0 -1)"/><path class="cls-3" d="M523.21,296.58a6.76,6.76,0,0,0,.46.72,5,5,0,0,1-1.92.31C522.25,297.28,522.71,296.91,523.21,296.58Z" transform="translate(0 -1)"/><path class="cls-3" d="M523.72,296c-.06.06-.38.43-.55.39s-.16-.23-.2-.32a9.51,9.51,0,0,1-1-3.32c.55,1,1.21,2,1.78,3A.24.24,0,0,1,523.72,296Z" transform="translate(0 -1)"/><path class="cls-3" d="M568.82,272.65a2.13,2.13,0,0,1-.19.83,12.44,12.44,0,0,1-.39-1.89h0c0-.1,0-.11.09-.11C568.93,271.49,568.84,272.13,568.82,272.65Z" transform="translate(0 -1)"/><path class="cls-3" d="M531.47,284.1c-.13,0-.2-.06-.26-.24a3.84,3.84,0,0,1,0-.91c.18.21.62.63.66.85S531.6,284.1,531.47,284.1Z" transform="translate(0 -1)"/><path class="cls-3" d="M531.09,283.81c-.21,0-.35-.29-.47-.56a7.7,7.7,0,0,0-.69-1.07,2.87,2.87,0,0,0-.69-.74c-.31-.19-.67-.46-1-.62s-.73-.27-1-.39a.89.89,0,0,1-.47-.47c-.06-.17-.43-.07-.26-.18a.86.86,0,0,1,.81-.16,9.42,9.42,0,0,1,1.66.62,6,6,0,0,1,1.13.82,10.58,10.58,0,0,1,.87.91,6.22,6.22,0,0,1,.84,1.25c.13.31.18.58-.06.67s-.52-.7-.71-.73S531.31,283.77,531.09,283.81Z" transform="translate(0 -1)"/><path class="cls-3" d="M568.26,268.65c-.13,0-.25,0-.3-.17a3.65,3.65,0,0,1,0-.87,3.54,3.54,0,0,1,.44.73C568.46,268.52,568.39,268.67,568.26,268.65Z" transform="translate(0 -1)"/><path class="cls-3" d="M568.37,268.45c-.08-.16-.31-.68-.44-.69s.07.74-.13.78-.3-.22-.38-.5a4.09,4.09,0,0,1,0-1.32,7.79,7.79,0,0,1,.21-1.19c.12-.37.22-.7.37-1.08a5.89,5.89,0,0,1,.8-1.26,1,1,0,0,1,.79-.39c.2.05-.16.34-.23.47s0,.35-.08.58-.34.54-.44.84a9.35,9.35,0,0,0-.3,1c-.06.32-.14.61-.2.95a2.86,2.86,0,0,0,.12,1.09A.83.83,0,0,1,568.37,268.45Z" transform="translate(0 -1)"/><path class="cls-3" d="M526.7,279.9c.11,0,.56.37.46.46s-.18-.05-.34-.05-.56-.25-.59-.4.13-.18.18-.16h0A.61.61,0,0,0,526.7,279.9Z" transform="translate(0 -1)"/><path class="cls-3" d="M569.63,263.64c-.07.12-.14.3-.25.23s0-.43.07-.56a3,3,0,0,1,.24-.47.12.12,0,0,1,.23,0A2.34,2.34,0,0,1,569.63,263.64Z" transform="translate(0 -1)"/></g></g></svg>