<svg id="Layer_1" data-name="Layer 1" xmlns="http://www.w3.org/2000/svg" viewBox="0 0 720.18 480"><defs><style>.cls-1{fill:#cfc3b4;}.cls-2{fill:#484846;}</style></defs><title>8</title><g id="_4" data-name="4"><path class="cls-1" d="M720,1V481H0V1Z" transform="translate(0 -1)"/><g id="Frog"><path class="cls-2" d="M582.66,407.16c2,2.2,4.13,4,5.46,6.53a56.74,56.74,0,0,1,4.31,10.85,53.93,53.93,0,0,0,1.77,5.6c1.91,4.23,2.68,8.24,4.83,12.49a50.34,50.34,0,0,0,3.69,6.54c3.45,4.48,5.5,8.15,8.95,11.49,3,2.95,6.86,8.46,11.45,10.85q9.14,4.75,15.41,7.49a.6.6,0,0,1,.15.09.77.77,0,0,1,.16,1.09H640c.15-.23.29-.47.45-.71q6.62-10.1,11.31-17.35a.12.12,0,0,0,0-.19l-.59-.35a.24.24,0,0,0-.37.09l-10.31,15.84a1.06,1.06,0,0,1-1.32.4c-7.51-3.27-15.76-6.33-21.44-12.51-3.44-3.75-6.31-6.2-8.66-9.83a43.19,43.19,0,0,0-4.13-5.48c-2.06-2.3-2.94-4.66-4.57-7.36a31,31,0,0,1-2.55-6c-2-6-4.25-11.2-5.91-17.93a58.12,58.12,0,0,0-3.36-6.6c-1.1-2-2.78-3-4.11-4.5q-4.78-5.37-15.93-21.38a40,40,0,0,1-3.54-5.84q-3.8-8.38-6.56-15.51c-2-5-2.15-10.42-3.8-15.5-1.07-3.27-2.35-6.29-3.39-10.2a149.26,149.26,0,0,0-8.12-22.66,13.08,13.08,0,0,0-4-5A35.49,35.49,0,0,0,529,305.9a17.71,17.71,0,0,0-6.58-1q-4.26.15-6.73.29a15.52,15.52,0,0,1-9-2.53q-1.15-.7.12-1.89a5.28,5.28,0,0,1,4.45.06c3.09,1.67,6,3.7,8.66,2.54a1.26,1.26,0,0,0,.21-2.19,80.64,80.64,0,0,1-10.53-8.88c-1.28-1.26-1.75-3-2.92-4.52a.71.71,0,0,1-.13-.67.47.47,0,0,1,.2-.29.6.6,0,0,1,.8,0l16.27,13.85a1.42,1.42,0,0,0,2.23-1.63,5.46,5.46,0,0,0-.61-1.05q-5.12-7.2-5.22-7.4a27.71,27.71,0,0,1-2.52-5.92q-.75-2.77,1.54-.95a5,5,0,0,1,.78,1.35,48.84,48.84,0,0,0,11.61,15.48,10.54,10.54,0,0,0,2.74,2A29,29,0,0,1,551,317.66c3.37,7,5.45,14.19,8.85,20.93a83.28,83.28,0,0,1,4.55,10.71,41.5,41.5,0,0,0,4.19,9.07q6.86,10.8,8.07,12.3,4.49,5.5,6,7.2a36.36,36.36,0,0,0,8.46,6.5,18.13,18.13,0,0,0,8,2.65c3.15.19,6,.24,8.53.17,4.61-.12,11.74-2.46,14.27-6.25,3.65-5.47,7.65-12.69,6.08-18.52a52.84,52.84,0,0,0-2.2-6.21c-1.35-3.27-4.11-6.83-6-9.92a25.4,25.4,0,0,0-3.18-4.17,126.9,126.9,0,0,0-11.42-10.58,3.38,3.38,0,0,1-1.06-3.92q2.12-4.69,3.86-8.68.83-1.9.78-7.15c0-2.9-1.59-5.77-1.75-8.67-.07-1.14.39-1.43,1.38-.86l.84.49a2.88,2.88,0,0,1,1.43,2.18l.87,8c.15,1.31.48,1.36,1,.15q1.85-4.28,4.23-10.76a3.46,3.46,0,0,1,1-1.49,1,1,0,0,1,1.19-.27.88.88,0,0,1,.5.8,18.7,18.7,0,0,1-3.75,11,1.66,1.66,0,0,0,.12,2.17c.11.11.35,0,.7-.23a1.31,1.31,0,0,0,.43-.55,31.29,31.29,0,0,1,4.09-6.9c1.31-1.67.24-4.19-.49-6.42a2.23,2.23,0,0,0-1-1.38c-3.75-1.89-5.93,6.57-6.46,8.92a.44.44,0,0,1-.56.39l-.29,0c-.07,0-.1,0-.09-.11q.65-6.85-5.7-8.08a.54.54,0,0,0-.7.44c-1.33,4.9,2.18,9.08,1.41,13.9a25,25,0,0,1-1.88,7c-1.81,3.65-3.35,6.21-2.65,9.65a1.52,1.52,0,0,0,.59.91q3.22,2.37,10.73,9.14a18.93,18.93,0,0,1,3.67,4.16c3.51,6,10.31,13.31,9.32,21.34-.64,5.25-3,8.47-5.5,12.87-1.76,3-3.72,3.83-7.3,5a33.68,33.68,0,0,1-17.84,1q-1.34-.3-6.75-3.49c-4.18-2.47-6.38-5.87-10.24-10q-4.21-4.49-10.27-16.14-4.32-8.32-14.38-34.48-2.1-5.48-8.93-13.49c-3-3.5-6.35-4.6-11.77-7.52a11.28,11.28,0,0,1-3.18-2.53c-2.58-3-6-6.42-7.77-10-.79-1.59-1.72-3.27-2.81-5a2.94,2.94,0,0,0-2.76-1.58,1.19,1.19,0,0,0-1.29,1.29,12.14,12.14,0,0,0,2,7.54q2.86,4.54,4.85,7.25c.1.13.07.22-.1.27l-.46.11a.72.72,0,0,1-.77-.22,124.61,124.61,0,0,0-10.6-9.64c-1.22-1-3.19-1.7-4.36-3.34a.8.8,0,0,0-.21-.2.76.76,0,0,0-1,.23c-1.14,1.76-.05,2-.09,3.62a1.61,1.61,0,0,0,.29,1c1.47,2.15,2.45,4.25,4.61,6.05q4.28,3.6,6.63,5.45a1.16,1.16,0,0,1,.41.63l.11.45a.44.44,0,0,1,0,.32.42.42,0,0,1-.58.15c-3.6-2.12-5.61-3.81-8.86-3.41-2.63.33-3.74,1.79-3.31,4.4a1,1,0,0,0,.56.74c3.38,1.63,4.83,2.77,8.1,2.67,6.1-.18,13.54-.14,18.68,2.42a68.71,68.71,0,0,1,6.06,4c4.1,2.9,5.38,7.94,7.41,13.26,2.5,6.54,4.29,13.9,6.4,19.76,2.54,7,3.82,17,6.89,23.7q1.89,4.11,5.41,11.3a61,61,0,0,0,3.54,5.78Q576.89,400.72,582.66,407.16Z" transform="translate(0 -1)"/><path class="cls-2" d="M720.18,445.5c-1-.36-2.14-.73-3.35-1.11-4.65-1.46-3.25-8-6.31-11.21-3.85-4-11.1-2.48-15.29.27a2,2,0,0,0-.64.67l-1.05,1.82-.12.18a1.49,1.49,0,0,1-2.09.24,15.94,15.94,0,0,0-4.94-2.84,7.05,7.05,0,0,0-4.61.48c-5.45,2.09-11,3.62-11.74,10.67a.39.39,0,0,0,.08.22l.62,1.1a.26.26,0,0,0,.49-.1c.22-4.2,2.11-7.37,6.37-9,3.25-1.26,7.39-3.63,9.85-1.8q2.22,1.67,4.59,3.12a1.35,1.35,0,0,0,1.77-.27l2.7-3.48a2.55,2.55,0,0,1,.68-.69c3.49-2,10-2.73,13,1.05,1.74,2.22,1.2,6,3.19,8.4s4.5,2.54,6.81,3.46Z" transform="translate(0 -1)"/><path class="cls-2" d="M720.18,475c-2.78.35-5.6.66-8.52.87a52.31,52.31,0,0,1-10.58-.55c-2.46-.33-6-.59-10.68-.76a20.29,20.29,0,0,1-5.51-1.23.52.52,0,0,0-.6.24l-.24.4a.5.5,0,0,0,0,.13.46.46,0,0,0,.34.55,25.25,25.25,0,0,0,4.59,1.13c6.8.41,15.76,1.72,23.52,1.23,2.79-.17,5.35-.4,7.73-.68Z" transform="translate(0 -1)"/><path class="cls-2" d="M644.05,384.31a78.25,78.25,0,0,1,33.84,39.05,51.69,51.69,0,0,1,2.38,9.45.17.17,0,0,1-.14.21.2.2,0,0,1-.13,0l-.46-.26a.81.81,0,0,1-.4-.52c-.83-3.17-1.37-6.72-2.76-9.61a113.31,113.31,0,0,0-10-17.59q-4.79-6.51-15.29-15.06c-2.42-2-5-3-7.42-5.13a.48.48,0,0,0-.67,0,.74.74,0,0,1-.35.16.56.56,0,0,1-.62-.43,8.33,8.33,0,0,1,0-3.44c1.78-8.65,4.08-15,1.29-22.11a21.68,21.68,0,0,0-4.86-6.57q-11-11.21-12.86-12.68a88.65,88.65,0,0,0-10.85-6.87,23.59,23.59,0,0,1-2.93-2.18,3.58,3.58,0,0,1-1.38-2.05c-.79-4.17,7.07-13.49,9.76-16.64a9.55,9.55,0,0,0,1.68-4.63.46.46,0,0,1,.54-.42,1.66,1.66,0,0,1,.26.05.65.65,0,0,1,.48.55,4.4,4.4,0,0,1-.8,3.15c-3.81,5.39-7.82,10.24-10.14,15.64-1.37,3.19,1.74,4.86,3.85,6,4.95,2.63,9.46,5.34,13.44,9.65,3.31,3.6,13.19,11.26,15.63,18.78a18.69,18.69,0,0,1,.2,8.66q-.24,1.46-2.17,13A1.82,1.82,0,0,0,644.05,384.31Z" transform="translate(0 -1)"/><path class="cls-2" d="M708,439a8,8,0,0,0-7.93.66q-.63.42-3.35,2.81a.11.11,0,0,1-.15,0l-.27-.23a.48.48,0,0,1,0-.68l0,0c3.51-3.46,6.13-5.92,11.63-3.9a.49.49,0,0,1,.32.35l.17.68C708.48,439.05,708.35,439.16,708,439Z" transform="translate(0 -1)"/><path class="cls-2" d="M688.75,444.36c-2.42-6.19-8.48-4.81-11.78-.37a.41.41,0,0,1-.57.08.37.37,0,0,1-.15-.22l-.12-.49a1,1,0,0,1,.38-1.08c3.91-2.91,7.76-5.47,11.89-1a7.2,7.2,0,0,1,1.64,2.67.34.34,0,0,1-.27.5l-.62.15A.3.3,0,0,1,688.75,444.36Z" transform="translate(0 -1)"/></g></g></svg>