<svg id="Layer_1" data-name="Layer 1" xmlns="http://www.w3.org/2000/svg" viewBox="0 0 720 480.63"><defs><style>.cls-1{fill:#cfc3b4;}.cls-2{fill:#202020;}.cls-3{fill:#3c3c3c;}</style></defs><title>7</title><g id="_4" data-name="4"><path class="cls-1" d="M719.9,0V480H-.1V0Z" transform="translate(0.1)"/><g id="_Group_" data-name="&lt;Group&gt;"><path class="cls-2" d="M719.38,474.88h0c-.46-.25-.85-1.24-1.09-1.5a10.26,10.26,0,0,0-2.78-2.09c.87.93,1.3,1.63,2.18,2.73.23.29.65.9,1.1,1.55.2.29.4.6.59.91Z" transform="translate(0.1)"/><path class="cls-2" d="M719.38,473.24l-.16-.37a12.91,12.91,0,0,0-2.07-3.49c-1.88-1.9-5-4.24-6.87-5.77s-4.46-3.46-5.64-4.51a67.66,67.66,0,0,1-5.17-4.91c-1.86-2-2.47-2.53-4.59-5.05A71,71,0,0,1,688,438.37c-.91-1.74-1.73-4.27-2.48-6.18a13.58,13.58,0,0,1-.52-1.56c-.13-.51-.27-1-.44-1.49s-.34-.95-.5-1.41a9.28,9.28,0,0,1-.38-1.36c-.1-.43-.21-.92-.32-1.27s-.28-.31-.45-.57a5.83,5.83,0,0,0,.18.82c.1.38.25.95.36,1.39s.23.92.38,1.37.33.94.5,1.4a11.18,11.18,0,0,1,.49,1.41,8,8,0,0,0,.45,1.51c.84,1.87,1.63,4.36,2.54,6.09a67.71,67.71,0,0,0,6.78,10.67c2.13,2.48,2.75,3,4.62,5a64,64,0,0,0,5.17,4.91c1.15,1,3.81,2.93,5.63,4.42a82,82,0,0,1,6.67,5.63,12.88,12.88,0,0,1,2.13,3.21,6,6,0,0,1,.53,2Z" transform="translate(0.1)"/><path class="cls-2" d="M678.36,464.64c2,3.51,2.79,4.19,4.54,6.85a43.75,43.75,0,0,0,5.12,6.29c.66.73,1.58,1.78,2.59,2.85h1.32c-1.29-1.25-2.57-2.56-3.31-3.4a58.93,58.93,0,0,1-5.06-6.13,65.18,65.18,0,0,1-4.44-6.78,69.06,69.06,0,0,1-6-14.47,34.92,34.92,0,0,1-.85-8.35c0-.68.1-1.39.08-2s.09-1.26.12-1.89a13.91,13.91,0,0,1,.31-1.88c.11-.58.3-1.19.43-1.69s.37-1.29.49-1.63a23,23,0,0,0,.71-3,17.35,17.35,0,0,0-1.47,2.78c-.1.25-.34,1.18-.48,1.63a10.2,10.2,0,0,0-.42,1.67c-.06.5-.27,1.05-.29,1.47a2.57,2.57,0,0,1,0,.45s-.06.06-.07.08a7.23,7.23,0,0,0-.16,1.91c0,.65-.07,1.39-.08,2a37.39,37.39,0,0,0,.88,8.54A68.68,68.68,0,0,0,678.36,464.64Z" transform="translate(0.1)"/><path class="cls-2" d="M641.57,455.05c.53.46,1.21.91,1.76,1.44s1.2,1.05,1.79,1.58,1.26,1.1,1.85,1.64,1.27,1.26,1.85,1.75c2.3,2,5.46,5.13,7.42,7,3.76,3.61,8.58,8.89,11.34,12.16h.87l0,0c-2.77-3.24-7.83-8.81-11.73-12.62-1.94-1.9-5.18-5.12-7.5-7.13-.58-.5-1.34-1.25-1.93-1.8a17.09,17.09,0,0,0-1.86-1.63l-.11-.06c-.64-.43-1.23-1.1-1.81-1.56s-1.23-1-1.76-1.42-1.48-1.23-1.8-1.48a23.66,23.66,0,0,0-3.3-2.2c1.13,1,1.93,1.84,3.15,2.88C640.16,453.9,641.05,454.59,641.57,455.05Z" transform="translate(0.1)"/><path class="cls-2" d="M628.83,454c.28.53.59,1.21.89,1.84s.68,1.35,1,2,.74,1.4,1.12,2.09.81,1.58,1.2,2.28c1.5,2.7,3.7,6.68,5.18,9.08,1.69,2.72,3.67,6.12,5.47,9.27H644c-1.76-3.07-3.69-6.38-5.3-9.05-1.41-2.33-3.67-6.26-5.11-8.91-.38-.7-.86-1.56-1.18-2.28s-.8-1.4-1.12-2.08-.72-1.4-1-2-.67-1.3-.89-1.85-.53-1.26-.69-1.58-.09-.22-.17-.38c-.59-1.17-1.13-2.26-1.71-3.43.4,1.14.69,1.89,1.23,3.1C628.15,452.47,628.55,453.51,628.83,454Z" transform="translate(0.1)"/><path class="cls-3" d="M671.88,437.29h0s0-.24,0-.23S671.91,437.27,671.88,437.29Z" transform="translate(0.1)"/><path class="cls-3" d="M671.93,437.05a.66.66,0,0,1-.11.37,19.57,19.57,0,0,1-2.05-4.15c-.09-.29-.3-.94-.63-1.86a36.7,36.7,0,0,0-2.12-4.47c-.68-1.14-1.2-2.13-2-3.25a25,25,0,0,0-2.52-2.9,42.59,42.59,0,0,0-5.27-4.39c-1.28-.86-2.86-1.94-3.56-2.37-1.8-1.1-2.72-1.65-4.13-2.64-.82-.57-1.18-.95-2-1.51a37.45,37.45,0,0,1,7.78,3.32c.74.43,2.39,1.52,3.67,2.44a49.65,49.65,0,0,1,5.27,4.54,19.7,19.7,0,0,1,2.36,3c.75,1.13,1.25,2.08,1.93,3.24s1.72,3.69,2.11,4.6a11.8,11.8,0,0,1,.54,1.81A11.28,11.28,0,0,1,671.93,437.05Z" transform="translate(0.1)"/><path class="cls-3" d="M644.46,449.62c.95,2.23,1.53,3.73,2.31,5.81a25.29,25.29,0,0,1-3.83-5.28,18.67,18.67,0,0,1-1-2.44,41.72,41.72,0,0,1-1.77-5.69c-.12-.84-.31-1.89-.38-2.64s-.08-.51-.2-1.37a23.66,23.66,0,0,1-.14-3.23,31.43,31.43,0,0,1,.82-5.18,23.7,23.7,0,0,1,1-3.16,14.49,14.49,0,0,1,3.93-5c-.22.66-.39,1.08-.6,1.74a30.1,30.1,0,0,1-1.38,3.62c-.25.57-.7,1.92-1,3a26.52,26.52,0,0,0-.86,5.05c0,1.21-.08,2.35,0,3.19s.11.68.16,1.37.22,1.79.33,2.47a35.42,35.42,0,0,0,1.68,5.53C643.89,448.51,644.32,449.29,644.46,449.62Z" transform="translate(0.1)"/><path class="cls-3" d="M684.23,425.73a3.1,3.1,0,0,1-.76-.72.57.57,0,0,1-.11-.22,13.4,13.4,0,0,0-.74-2.07c.09.62.18,1.2.33,1.83a7.1,7.1,0,0,1-1-2,14.59,14.59,0,0,1-.58-1.83,45.07,45.07,0,0,1-.88-4.48c-.07-.67-.19-1.64-.27-2.27s-.06-.42-.15-1.19-.25-1.71-.44-2.83-.71-3.83-.88-4.92a16.84,16.84,0,0,1-.08-3.09,21.33,21.33,0,0,1,1.3-5.19c.1,1.94.09,3.22.12,5.36a29.29,29.29,0,0,0,.17,3c.14,1,.36,3.64.51,4.7s.28,2,.4,2.68.15.51.22,1.08.19,1.54.24,2.11a31,31,0,0,0,.87,4.3c.23.81.49,1.49.55,1.69A31,31,0,0,1,684.23,425.73Z" transform="translate(0.1)"/><path class="cls-3" d="M683.43,424.83s.15.24,0,.13a.66.66,0,0,1-.36-.52c-.08-.38-.22-1.29-.31-1.76C683,423.38,683.17,424.15,683.43,424.83Z" transform="translate(0.1)"/><path class="cls-3" d="M628.9,452.7c0-.06,0-.09,0,0-.88-2.06-1.5-3.61-2.3-5.94-.11-.35-.53-1.36-.91-2.36a48.7,48.7,0,0,0-2-4.73c-.37-.64-.8-1.53-1.15-2.09s-.24-.41-.68-1.05-1-1.5-1.62-2.41-2.37-2.87-3.12-3.67-2.06-2-2.46-2.33c-1.77-1.6-2.81-2.58-4.32-4.14a21.26,21.26,0,0,1,5.12,3.08c.5.4,1.82,1.61,2.64,2.43a42.21,42.21,0,0,1,3.29,3.78c.65,1,1.16,1.87,1.58,2.54l.68,1.05c.34.56.78,1.52,1.14,2.09a40.59,40.59,0,0,1,2.11,4.87c.44,1,.78,2.05.91,2.45A26.9,26.9,0,0,1,628.9,452.7Z" transform="translate(0.1)"/><path class="cls-3" d="M633.76,430.24a3.13,3.13,0,0,1,.83.35c-.06.14-1.13.22-1.2,0S633.64,430.23,633.76,430.24Z" transform="translate(0.1)"/><path class="cls-3" d="M633.27,430.69a2.93,2.93,0,0,1-.86.71,3.77,3.77,0,0,1,.39-.94C632.89,430.34,633.35,430.52,633.27,430.69Z" transform="translate(0.1)"/><path class="cls-3" d="M633.73,430.22c.08.12-.24.36-.37.34s-.44-.05-.48-.23.23-.54.32-.64.08-.08.11.05S633.65,430.11,633.73,430.22Z" transform="translate(0.1)"/><path class="cls-3" d="M633.76,430.2c-.2.2-.35-.23-.42-.33s-.17-.06-.12-.2c.21-.53.46-.87.73-1.46s.6-1.24.86-2a8.38,8.38,0,0,0,.53-1.65c0-.45.21-.73.26-1.15s0-.76.06-1.24a15.21,15.21,0,0,0-.17-1.81,10.23,10.23,0,0,0-.28-1.34c-.42-1.24-.67-2.22-1-3.43a8.16,8.16,0,0,1,2.34,3.3,9.12,9.12,0,0,1,.21,1.44c.06.49.09,1.42.09,1.93s-.11.89-.13,1.35a7.44,7.44,0,0,1-.27,1.16,12.71,12.71,0,0,1-.61,1.74,11.92,11.92,0,0,1-1.06,2A5.56,5.56,0,0,1,633.76,430.2Z" transform="translate(0.1)"/><path class="cls-3" d="M633.08,429.59c.22.48-.28.35-.2.77a6.56,6.56,0,0,1-1.62-1.82c-.26-.45-.45-1.19-.82-2.05-1-2.35-2.28-5-3.52-7.5s-2.91-5.72-4.27-8.07a15.25,15.25,0,0,1-.76-1.42,7.14,7.14,0,0,1-.68-2.31c0-.11.24.24.29.13s.23-.2.28-.33a17.13,17.13,0,0,1,1.33,2.2c.07.12.51.69.42.83s-.09,0-.11,0c-.63.38,0,1,.41,1.41.12.14.57.41.72.68,1.22,2.19,2.38,4.29,3.58,6.55s2.53,5,3.48,7.31a15.23,15.23,0,0,1,.73,2A9.57,9.57,0,0,0,633.08,429.59Z" transform="translate(0.1)"/><path class="cls-3" d="M669.07,414.78a6.3,6.3,0,0,1-1.48-.27c-.24-.12.09-.48.3-.39S668.79,414.64,669.07,414.78Z" transform="translate(0.1)"/><path class="cls-3" d="M667.29,414.44c-.17.18-1,.6-1.21.49s.51-.59.58-.63S667.46,414.27,667.29,414.44Z" transform="translate(0.1)"/><path class="cls-3" d="M667.4,414.44a2.48,2.48,0,0,1-.61-.13c-.14-.05,0-.42.09-.49s-.15-.21,0-.15.7.29.84.37S667.51,414.44,667.4,414.44Z" transform="translate(0.1)"/><path class="cls-3" d="M667.8,413.92c-.09.15.21.1,0,0s-.81,0-1-.44-.06-.73-.31-1.3-.55-1.06-1-1.83c-1.24-2.19-3.12-5.11-4.16-7.36a62.72,62.72,0,0,1-2.54-6.09c-.11-.3.16-.64.16-.84,0-.52.1-1.15-.49-1.19,0,0,0,.14-.1.09s0-.85-.07-1a9.66,9.66,0,0,1-.14-1.92,2.69,2.69,0,0,0,.29.16c.11.05,0-.34.13-.18a5.52,5.52,0,0,1,.64,1.83c0,.16.1.41.27,1.07a38.81,38.81,0,0,0,3.09,7.65c1.3,2.42,2.94,5.21,4.29,7.55a14.64,14.64,0,0,1,1,2.08A1.64,1.64,0,0,1,667.8,413.92Z" transform="translate(0.1)"/><path class="cls-3" d="M666.78,413.77c0,.19.2.53-.24.44a17,17,0,0,1-2.56-.8,20.23,20.23,0,0,1-2.74-1.39c-.56-.33-1.83-1.07-2.39-1.47s-.91-.63-1.42-1a10.21,10.21,0,0,1-1.33-1.23,16.13,16.13,0,0,1-1.64-1.85c-.31-.47-.71-1.05-.83-1.28-.62-1.26-.33-2-.12-3.18.64,1,1,1.81,1.65,2.87.13.21.49.71.8,1.13a14.08,14.08,0,0,0,1.6,1.72,15.57,15.57,0,0,1,1.25,1.16,6,6,0,0,0,1.3.94c.56.36,1.7,1.13,2.25,1.45.86.51,1.89,1,2.6,1.33a11,11,0,0,1,1.8.85C667.18,413.81,666.79,413.57,666.78,413.77Z" transform="translate(0.1)"/><path class="cls-3" d="M649.16,418.17c-1.13,2.31-2.61,3.29-4.39,4.81.62-1.77,1.34-3.15,1.92-5a3.64,3.64,0,0,0,0-1.95,9.2,9.2,0,0,0-.85-1.84c-.31-.4-.6-.85-.94-1.23s-.63-.57-1-1a8.24,8.24,0,0,0-2.2-1c-1.17-.51-3,.35-3.68.73a5,5,0,0,0-2.18,2.27c-.29-.17-.95,0-1.22-.08s-.67.28-.76,0c-.4-1.34.47-2.06,1.65-2.88a9.51,9.51,0,0,1,2-1,11,11,0,0,1,2.08-.44,7.31,7.31,0,0,1,1.39,0,12.19,12.19,0,0,1,1.48.17,4.8,4.8,0,0,1,1.32.42,13.85,13.85,0,0,1,2,1.11c.5.36.79.72,1.23,1.08a6.68,6.68,0,0,1,1,1.37c.32.45.78,1.86.95,2.12A3.8,3.8,0,0,1,649.16,418.17Z" transform="translate(0.1)"/><path class="cls-3" d="M670.49,406.14c.91,1.07,1.72,1.85,2.61,2.86a14.24,14.24,0,0,1-3.39-2.46c-.17-.18-.59-.58-1.13-1.23-1.29-1.57-3.41-4.11-4.06-6.23a22.49,22.49,0,0,1-.67-2.92,5.84,5.84,0,0,1-.12-1.33c0-.57,0-.53,0-1.21A26.05,26.05,0,0,1,664,391a13.7,13.7,0,0,0,.24-3,2.47,2.47,0,0,0-1.43-1.91,1.64,1.64,0,0,0-1.56.1,2.86,2.86,0,0,0-1.15,1,3.12,3.12,0,0,0-.57,1.29c-.09-.21-.26-.63-.17-.82s0-.17.16-.31.4-.65.32-.78-.32.05-.24,0c.39-.45.47-.74,1.16-1a3.14,3.14,0,0,1,2.32-.14,3.21,3.21,0,0,1,2,2.44,15.11,15.11,0,0,1-.05,3.37,24.44,24.44,0,0,0-.28,2.68,4.19,4.19,0,0,0,0,.65c0,.3-.06.13,0,.54a5.49,5.49,0,0,0,.12,1.3c.18.73.36,1.84.7,2.91.64,2.06,2.37,4.31,3.79,6.1A2.56,2.56,0,0,1,670.49,406.14Z" transform="translate(0.1)"/><path class="cls-3" d="M675.92,405.14a7.3,7.3,0,0,1-.81,3.14c0-1.17-.16-2-.13-3.26,0-.33,0-1.37,0-1.88s0-1.31,0-1.81a10,10,0,0,1-.14-1.2,7.63,7.63,0,0,0-.18-1.34,16.2,16.2,0,0,0-.45-1.93,2.72,2.72,0,0,1,.84-.16c.15.6.42,1.44.53,2s.19.94.27,1.39a7,7,0,0,1,.14,1.2c0,.46.09,1.56.08,1.92C676,403.83,675.93,404.81,675.92,405.14Z" transform="translate(0.1)"/><path class="cls-3" d="M625.4,425a14,14,0,0,1-.42,3.69,31.13,31.13,0,0,1-.62-3.65,10.27,10.27,0,0,0-.21-1.57,26.68,26.68,0,0,0-2.8-6.47,30.47,30.47,0,0,0-3-3.88c-.71-.75-.52-.47-.83-.8s-.25-.29-.42-.46c-.74-.73-1.37-1.27-2.15-1.94a6.5,6.5,0,0,1-2-2.45,4.21,4.21,0,0,1,.25-3.19,2.73,2.73,0,0,1,1.75-1.41c.66-.21.86,0,1.41.08.11,0-.17.08-.07.21a2.05,2.05,0,0,0,.59.41c.18.09.25,0,.44.12a1,1,0,0,1,.31.74,2.93,2.93,0,0,0-1.17-.7,1.71,1.71,0,0,0-1.22,0,2.09,2.09,0,0,0-1.24,1.05,2.74,2.74,0,0,0-.2,2.27,7.4,7.4,0,0,0,1.7,2.21c.68.64,1.53,1.31,2.22,1.93a14.87,14.87,0,0,1,1.32,1.17,28.46,28.46,0,0,1,3.21,4.05,24.63,24.63,0,0,1,2.9,6.74A15,15,0,0,1,625.4,425Z" transform="translate(0.1)"/><path class="cls-3" d="M620.1,426.68c1.2,1,1.88,1.67,2.9,2.66a13.69,13.69,0,0,1-3.4-1.93c-.34-.27-1.2-1-1.72-1.56-.23-.23-1-1-1.34-1.33a7.37,7.37,0,0,1-.82-.94,9.45,9.45,0,0,1-.83-1.09c-.25-.41-.87-1.27-1.1-1.55s-.28-.19-.21-.37.45-.34.64-.37,0,0,.27.28a17.23,17.23,0,0,1,1,1.49c.26.37.58.76.84,1.07a9.82,9.82,0,0,0,.77.81c.29.28,1.05,1.09,1.24,1.28C618.89,425.6,619.83,426.45,620.1,426.68Z" transform="translate(0.1)"/><path class="cls-3" d="M636.46,416.35a5.37,5.37,0,0,1-2-1.43c-.08-.1.2,0,.32,0s.87-.25.94-.12C636,415.24,636,415.92,636.46,416.35Z" transform="translate(0.1)"/><path class="cls-3" d="M679.84,396.79a4.55,4.55,0,0,1-1.18,1.3c.41-1,.72-1.85,1.1-3,.07-.21.14-.67.24-1.22a6.14,6.14,0,0,0-.44-2.68,4,4,0,0,0-2.26-2.4,4.26,4.26,0,0,0-2.5,0,1.85,1.85,0,0,0-1,1.13,4.18,4.18,0,0,0,.05,3c-.11-.22-.31-.16-.43-.38a2.82,2.82,0,0,1-.37-2.79,3.23,3.23,0,0,1,1.51-1.57,5.38,5.38,0,0,1,3.13-.08,4,4,0,0,1,1.6,1,5.72,5.72,0,0,1,1.13,1.88,8.4,8.4,0,0,1,.44,3.15,8.07,8.07,0,0,1-.24,1.45A13.75,13.75,0,0,1,679.84,396.79Z" transform="translate(0.1)"/><path class="cls-3" d="M636.9,414.17c0,.2-.71.51-.89.46s0-.41,0-.54,0-.09.11-.11S636.93,414,636.9,414.17Z" transform="translate(0.1)"/><path class="cls-3" d="M635.86,414.05c.09.12,0,.5-.09.67s-.75.13-.95.16-.25.07-.43,0a1.76,1.76,0,0,1-.49-.68c0-.15-.15-.09,0-.16a2.09,2.09,0,0,1,.63-.05,5,5,0,0,1,1.37.09Z" transform="translate(0.1)"/><path class="cls-3" d="M634,414.2c.16.05.21.71.49.69a30.07,30.07,0,0,1-3.45-.11,17.61,17.61,0,0,1-2.66-.55,12.59,12.59,0,0,1-2.43-.87,3.89,3.89,0,0,1-1.31-1,14.19,14.19,0,0,1-.85-1.55c-.13-.25-.32-.42-.21-.37a5.71,5.71,0,0,1,1.33,1,17.35,17.35,0,0,0,1.81,1.44,5.92,5.92,0,0,0,2.2.7c.77.15,1.58.25,2.4.38s1.84,0,2.68.23C634.07,414,633.84,414.16,634,414.2Z" transform="translate(0.1)"/><path class="cls-3" d="M649.44,411.34a37.33,37.33,0,0,1-4.85-1.63,15.25,15.25,0,0,1-2.76-1.57,3.87,3.87,0,0,1-.82-.65,4.53,4.53,0,0,1-.77-1.46,4.31,4.31,0,0,1-.2-2.31,8.1,8.1,0,0,1,.56-1.66,5.14,5.14,0,0,1,1-1.34,11.38,11.38,0,0,1,2.87-1.82,8.85,8.85,0,0,1,3.69-.53,17.44,17.44,0,0,1,1.89.4,3.77,3.77,0,0,1,2.6,1.71c.16.25-.36.11-.55.18a5.26,5.26,0,0,0-1,.33,7.22,7.22,0,0,0-2.3-1.27,7.71,7.71,0,0,0-1.33-.3,5.28,5.28,0,0,0-2,.16,6.42,6.42,0,0,0-2,1.32,3.63,3.63,0,0,0-.85,1.17,3.72,3.72,0,0,0-.31,1.41,8.45,8.45,0,0,0,.22,2.08,2.47,2.47,0,0,0,.7,1.08,4.37,4.37,0,0,0,.73.59C645.79,408.72,647.57,410,649.44,411.34Z" transform="translate(0.1)"/><path class="cls-3" d="M676.79,395.71a10.34,10.34,0,0,1-1.78,1l-.23-.74A19.7,19.7,0,0,0,676.79,395.71Z" transform="translate(0.1)"/><path class="cls-3" d="M675,396.69c-.08.16-.64.23-.8.15a.81.81,0,0,1-.22-.72.87.87,0,0,1,.79-.14C674.88,396.09,675.07,396.53,675,396.69Z" transform="translate(0.1)"/><path class="cls-3" d="M674,396.88c-.16.18-.2.05-.6.08a11.41,11.41,0,0,1-2.06-.06c-.12,0-.61-.17-.87-.22a8.34,8.34,0,0,1-1-.29c-.3-.12-1.22-.44-1.42-.53a12.29,12.29,0,0,1-2.91-2l-.1-.05c1.18.46,2.17.81,3.42,1.31a13.68,13.68,0,0,0,1.37.49,7.56,7.56,0,0,1,.84.22,5.82,5.82,0,0,0,.76.18c.56.09,1.53,0,1.9.1s.29-.13.45,0S674.16,396.7,674,396.88Z" transform="translate(0.1)"/><path class="cls-3" d="M674.76,396a1.37,1.37,0,0,1-.81.14c-.18,0-.13-.32-.16-.42-.29-1-.61-2-.84-3.07a11.47,11.47,0,0,1,1.6,2.86C674.59,395.56,674.89,395.8,674.76,396Z" transform="translate(0.1)"/><path class="cls-3" d="M652.74,402.14a4.76,4.76,0,0,1-.68,1.14,4.14,4.14,0,0,0-.59-1.59,6.5,6.5,0,0,1,1-.1c.22,0,.2-.18.32,0S652.85,401.86,652.74,402.14Z" transform="translate(0.1)"/><path class="cls-3" d="M624.53,412.33a2.72,2.72,0,0,1-.71-.68c-.35-.42-.93-1-.41-1.39,0,0,.08,0,.1.05h0a1.34,1.34,0,0,0,.17.47A12.82,12.82,0,0,0,624.53,412.33Z" transform="translate(0.1)"/><path class="cls-3" d="M655.48,400.39a10.51,10.51,0,0,1-2.44,1c-.54.07,0-.3-.17-.41s-.4-.14,0-.33a18.72,18.72,0,0,0,1.77-.77c.47-.31,1.06-.7,1.52-1a3.41,3.41,0,0,0,.93-1.16,5.81,5.81,0,0,0,.54-1.6,3.21,3.21,0,0,1,.64-1.18h0c.1.66.26,1.25.38,1.93.06.3-.26.75-.38,1a7,7,0,0,1-1.07,1.39A5.87,5.87,0,0,1,655.48,400.39Z" transform="translate(0.1)"/><path class="cls-3" d="M652.88,401.48c-.09.14-.18.06-.38.13a2.34,2.34,0,0,1-1,.08c-.22-.09-.23-.26-.32-.39s-.22,0,0-.18a3,3,0,0,1,1.06-.32c.23,0,.38-.22.55-.16s.14.17.09.31S653,401.34,652.88,401.48Z" transform="translate(0.1)"/><path class="cls-3" d="M651.28,401.34c.07.06.37.23.17.35a1.7,1.7,0,0,1-1.05-.08c-.14-.09.6-.29.66-.37S651.21,401.27,651.28,401.34Z" transform="translate(0.1)"/><path class="cls-3" d="M616.25,418a2.3,2.3,0,0,1-.36.52c-.34.36-.91,1.12-1.16,1.35s-.22.36-.41.31-.51-.5-.45-.69,0,0,.26-.28a6.72,6.72,0,0,0,1-1.2c.06-.1.25-.27.33-.42s.2-.38.29-.57.37-.94.41-1c.35-1.2.63-2.17.95-3.31a8.12,8.12,0,0,1-.21,3.69c-.06.21-.39,1-.5,1.24C616.64,417.59,616.3,417.91,616.25,418Z" transform="translate(0.1)"/><path class="cls-3" d="M614.3,420.22c-.07.17-.47.43-.64.37a.78.78,0,0,1-.35-.65.74.74,0,0,1,.55-.42C614.05,419.53,614.36,420.05,614.3,420.22Z" transform="translate(0.1)"/><path class="cls-3" d="M612.31,423.83a5.8,5.8,0,0,1-1.82-.13,7.22,7.22,0,0,1-1.56-.61,3.71,3.71,0,0,1-1.21-.93,10.17,10.17,0,0,1-1.56-2.5,5,5,0,0,1-.35-2.12,3.78,3.78,0,0,1,.55-1.79,5.38,5.38,0,0,1,1.89-1.93,2,2,0,0,1,1.77.09,3.74,3.74,0,0,1,1.63,2c.17.35,0,.65.09,1a5.58,5.58,0,0,0-.75-1.33,4.32,4.32,0,0,0-1.07-.93,1.45,1.45,0,0,0-1.35-.11,2.93,2.93,0,0,0-1.48,1.56,6,6,0,0,0-.4,1.51,3.45,3.45,0,0,0,.31,1.73,12.3,12.3,0,0,0,1.41,2.15,3.92,3.92,0,0,0,1,.81C610.46,423,611.31,423.27,612.31,423.83Z" transform="translate(0.1)"/><path class="cls-3" d="M613.29,419.93a6.89,6.89,0,0,0,.46.73,5,5,0,0,1-1.92.3C612.33,420.63,612.79,420.26,613.29,419.93Z" transform="translate(0.1)"/><path class="cls-3" d="M613.8,419.39c-.06.07-.38.44-.55.39s-.15-.23-.2-.32a9.72,9.72,0,0,1-1-3.32c.55,1,1.21,2,1.78,3A.23.23,0,0,1,613.8,419.39Z" transform="translate(0.1)"/><path class="cls-3" d="M658.9,396a2.21,2.21,0,0,1-.19.83,12.56,12.56,0,0,1-.39-1.9h0c0-.1,0-.11.09-.11C659,394.84,658.92,395.49,658.9,396Z" transform="translate(0.1)"/><path class="cls-3" d="M621.55,407.45c-.13,0-.2-.05-.26-.24a3.34,3.34,0,0,1,0-.9c.17.2.61.62.65.84S621.68,407.45,621.55,407.45Z" transform="translate(0.1)"/><path class="cls-3" d="M621.17,407.16c-.21,0-.35-.29-.47-.55a7.78,7.78,0,0,0-.69-1.08,2.83,2.83,0,0,0-.69-.73c-.3-.19-.67-.47-1-.63s-.73-.26-1-.39a.89.89,0,0,1-.47-.47c0-.17-.43-.06-.26-.18a.9.9,0,0,1,.81-.16,11.32,11.32,0,0,1,1.66.62,6,6,0,0,1,1.13.82,10.58,10.58,0,0,1,.87.91,5.64,5.64,0,0,1,.84,1.26c.13.3.18.57-.06.66s-.51-.7-.71-.72S621.39,407.13,621.17,407.16Z" transform="translate(0.1)"/><path class="cls-3" d="M658.34,392c-.13,0-.25,0-.3-.17a3.57,3.57,0,0,1,0-.86,3.3,3.3,0,0,1,.44.73C658.54,391.88,658.47,392,658.34,392Z" transform="translate(0.1)"/><path class="cls-3" d="M658.45,391.81c-.08-.17-.3-.69-.44-.7s.07.74-.13.78-.3-.21-.38-.49a4.16,4.16,0,0,1,0-1.33,8,8,0,0,1,.21-1.19c.12-.37.22-.7.37-1.07a5.65,5.65,0,0,1,.8-1.26,1.07,1.07,0,0,1,.79-.4c.2.05-.16.34-.23.47s0,.36-.07.58-.35.54-.45.85a9.16,9.16,0,0,0-.3,1c-.06.33-.14.62-.2,1a2.81,2.81,0,0,0,.12,1.08A.85.85,0,0,1,658.45,391.81Z" transform="translate(0.1)"/><path class="cls-3" d="M616.78,403.26c.11,0,.56.36.46.45s-.18,0-.34,0-.56-.25-.59-.4.13-.18.18-.15h0S616.67,403.26,616.78,403.26Z" transform="translate(0.1)"/><path class="cls-3" d="M659.71,387c-.07.13-.14.31-.25.23s0-.43.07-.56a2.48,2.48,0,0,1,.24-.46.12.12,0,0,1,.23,0A2.29,2.29,0,0,1,659.71,387Z" transform="translate(0.1)"/></g></g></svg>