<?xml version="1.0" encoding="utf-8"?>
<!-- Generator: Adobe Illustrator 22.1.0, SVG Export Plug-In . SVG Version: 6.00 Build 0)  -->
<svg version="1.1" id="Layer_1" xmlns="http://www.w3.org/2000/svg" xmlns:xlink="http://www.w3.org/1999/xlink" x="0px" y="0px"
	 viewBox="0 0 720 480" style="enable-background:new 0 0 720 480;" xml:space="preserve">
<style type="text/css">
	.st0{fill:#CFC3B4;}
	.st1{display:none;}
	.st2{display:inline;fill:#CFC3B4;}
	.st3{display:inline;}
	.st4{fill:#484846;}
	.st5{fill:#0C0D0C;}
	.st6{fill:none;stroke:#313130;stroke-width:2;}
	.st7{fill:#111111;}
	.st8{fill:#50504F;}
	.st9{fill:#030303;}
	.st10{fill:#010102;}
	.st11{fill:#232322;}
	.st12{fill:#161515;}
</style>
<g id="_x34__2_">
	<path class="st0" d="M719.8,1v480h-720V1H719.8z"/>
</g>
<g id="_x34__1_" class="st1">
	<path class="st2" d="M719.9,0v480h-720V0H719.9z"/>
	<g id="Frog_7_" class="st3">
		<path class="st4" d="M693,456.2c2.2,1.6,5.7,4.6,10.7,9.1c1.8,1.6,3,3,3.7,4.1c1.9,3.2,4.7,6.8,6.8,10.7h1.3
			c-1.4-3.2-4.1-6.6-6-9.6c-1.1-1.7-2.1-3.1-3.2-4.1c-4.2-4.3-8-7.8-11.4-10.5c-1.2-1-1.6-2.6-1.1-3.9c1.4-3.1,2.7-6,3.9-8.6
			c0.6-1.3,0.8-3.6,0.8-7.1c0-2.9-1.6-5.7-1.8-8.6c-0.1-1.1,0.4-1.4,1.4-0.9l0.8,0.5c0.8,0.5,1.3,1.3,1.4,2.2l0.9,7.9
			c0.1,1.3,0.5,1.4,1,0.1c1.2-2.8,2.6-6.4,4.2-10.7c0.2-0.6,0.6-1.1,1-1.5c0.4-0.4,0.8-0.4,1.2-0.3c0.3,0.1,0.5,0.5,0.5,0.8
			c0,3.9-1.3,7.5-3.8,10.9c-0.5,0.7-0.4,1.6,0.1,2.2c0.1,0.1,0.3,0,0.7-0.2c0.2-0.1,0.3-0.3,0.4-0.5c1.2-2.6,2.5-4.9,4.1-6.8
			c1.3-1.7,0.2-4.2-0.5-6.4c-0.2-0.7-0.6-1.2-1-1.4c-3.8-1.9-5.9,6.5-6.5,8.8c-0.1,0.3-0.3,0.4-0.6,0.4l-0.3,0c-0.1,0-0.1,0-0.1-0.1
			c0.4-4.5-1.5-7.2-5.7-8c-0.4-0.1-0.6,0.1-0.7,0.4c-1.3,4.9,2.2,9,1.4,13.8c-0.5,3.1-1.1,5.4-1.9,6.9c-1.8,3.6-3.3,6.2-2.7,9.6
			C692.4,455.6,692.7,455.9,693,456.2z"/>
		<path class="st4" d="M606.5,426.6c-3.6-2.1-5.6-3.8-8.9-3.4c-2.6,0.3-3.7,1.8-3.3,4.4c0.1,0.3,0.2,0.6,0.6,0.7
			c3.4,1.6,4.8,2.7,8.1,2.6c6.1-0.2,13.5-0.1,18.7,2.4c0.9,0.4,2.9,1.8,6.1,4c4.1,2.9,5.4,7.9,7.4,13.1c2.5,6.5,4.3,13.8,6.4,19.6
			c1.1,3,1.9,6.4,2.8,10h1.6c-0.4-2.2-0.9-4.4-1.6-6.5c-1.1-3.2-2.4-6.2-3.4-10.1c-2-7.6-4.7-15-8.1-22.5c-0.9-2-2.2-3.6-4-5
			c-3.3-2.5-6.7-4.4-10.1-5.6c-2.2-0.8-4.4-1.1-6.6-1c-2.8,0.1-5.1,0.2-6.7,0.3c-3.5,0.2-6.6-1.1-9-2.5c-0.8-0.5-0.7-1.1,0.1-1.9
			c0.1-0.1,0.5-0.2,1.2-0.4c1.1-0.2,2.2-0.1,3.2,0.4c3.1,1.7,6,3.7,8.7,2.5c0.2-0.1,0.4-0.2,0.5-0.4c0.4-0.6,0.3-1.3-0.3-1.7
			c-3.5-2.4-7-5.3-10.5-8.8c-1.3-1.2-1.8-3-2.9-4.5c-0.2-0.2-0.2-0.4-0.1-0.7c0-0.1,0.1-0.2,0.2-0.3c0.3-0.2,0.5-0.2,0.8,0
			l16.3,13.7c0.4,0.3,1,0.4,1.5,0.2c0.7-0.3,1.1-1.1,0.8-1.8c-0.1-0.3-0.3-0.7-0.6-1c-3.4-4.8-5.1-7.2-5.2-7.3
			c-1.2-2.2-2.1-4.2-2.5-5.9c-0.5-1.8,0-2.2,1.5-0.9c0.2,0.1,0.4,0.6,0.8,1.3c2.7,5.7,6.5,10.8,11.6,15.3c1.2,1.1,2.1,1.8,2.7,2
			c7.6,2.8,13.1,7.8,16.6,14.9c3.4,7,5.5,14.1,8.8,20.7c1.9,3.7,3.4,7.3,4.6,10.6c0.8,2.5,1.8,4.7,2.9,6.7h1.9
			c0-0.1-0.1-0.2-0.1-0.2c-2.9-5.5-7.7-16.9-14.4-34.2c-1.4-3.6-4.4-8.1-8.9-13.4c-3-3.5-6.4-4.6-11.8-7.5c-1.2-0.6-2.3-1.5-3.2-2.5
			c-2.6-2.9-6-6.4-7.8-9.9c-0.8-1.6-1.7-3.2-2.8-5c-0.7-1.1-1.6-1.6-2.8-1.6c-0.8,0-1.3,0.5-1.3,1.3c-0.1,2.8,0.4,5,2,7.5
			c1.9,3,3.5,5.4,4.9,7.2c0.1,0.1,0.1,0.2-0.1,0.3l-0.5,0.1c-0.3,0.1-0.6,0-0.8-0.2c-3.3-3.4-6.9-6.6-10.6-9.6
			c-1.2-1-3.2-1.7-4.4-3.3c-0.1-0.1-0.1-0.1-0.2-0.2c-0.4-0.2-0.8-0.1-1,0.2c-1.1,1.7-0.1,2-0.1,3.6c0,0.4,0.1,0.7,0.3,1
			c1.5,2.1,2.5,4.2,4.6,6c2.9,2.4,5.1,4.2,6.6,5.4c0.2,0.2,0.3,0.4,0.4,0.6l0.1,0.4c0,0.1,0,0.2,0,0.3
			C607,426.6,606.7,426.7,606.5,426.6z"/>
		<path class="st4" d="M720.2,467.5c0-0.2,0-0.3,0-0.5c-0.3-0.3-0.6-0.6-0.9-0.9c-4-4.3-8.5-7-13.4-9.6c-2.1-1.1-5.2-2.8-3.8-5.9
			c2.3-5.4,6.3-10.2,10.1-15.5c0.7-0.9,0.9-2,0.8-3.1c0-0.3-0.2-0.5-0.5-0.5c-0.1,0-0.2,0-0.3,0c-0.3,0-0.5,0.1-0.5,0.4
			c-0.4,2.2-0.9,3.7-1.7,4.6c-2.7,3.1-10.5,12.4-9.8,16.5c0.1,0.7,0.6,1.4,1.4,2c1.3,1.1,2.3,1.8,2.9,2.2c5,2.8,8.6,5.1,10.8,6.8
			c0.7,0.5,2.3,2.1,4.9,4.6C720.2,468.1,720.2,467.8,720.2,467.5z"/>
	</g>
</g>
<g id="_x34_" class="st1">
	<path class="st2" d="M720,1v480H0V1H720z"/>
	<g id="Frog_4_" class="st3">
		<path class="st4" d="M582.7,407.2c2,2.2,4.1,4,5.5,6.5c1.8,3.6,3.3,7.2,4.3,10.9c0.8,3,1.4,4.8,1.8,5.6c1.9,4.2,2.7,8.2,4.8,12.5
			c1.7,3.4,3,5.6,3.7,6.5c3.5,4.5,5.5,8.1,9,11.5c3,3,6.9,8.5,11.4,10.8c6.1,3.2,11.2,5.7,15.4,7.5c0.1,0,0.1,0.1,0.2,0.1
			c0.3,0.3,0.4,0.7,0.2,1.1c0,0,0,0,0,0h1.2c0.1-0.2,0.3-0.5,0.4-0.7c4.4-6.7,8.2-12.5,11.3-17.3c0.1-0.1,0-0.1,0-0.2l-0.6-0.4
			c-0.2-0.1-0.3-0.1-0.4,0.1l-10.3,15.8c-0.3,0.4-0.8,0.6-1.3,0.4c-7.5-3.3-15.8-6.3-21.4-12.5c-3.4-3.8-6.3-6.2-8.7-9.8
			c-1.4-2.1-2.8-3.9-4.1-5.5c-2.1-2.3-2.9-4.7-4.6-7.4c-0.8-1.3-1.7-3.3-2.5-6c-2-6-4.3-11.2-5.9-17.9c-0.1-0.5-1.3-2.7-3.4-6.6
			c-1.1-2-2.8-3-4.1-4.5c-3.2-3.6-8.5-10.7-15.9-21.4c-1.7-2.5-2.9-4.4-3.5-5.8c-2.5-5.6-4.7-10.8-6.6-15.5c-2-5-2.1-10.4-3.8-15.5
			c-1.1-3.3-2.4-6.3-3.4-10.2c-2-7.6-4.7-15.2-8.1-22.7c-0.9-2-2.2-3.6-4-5c-3.3-2.6-6.7-4.5-10.1-5.7c-2.2-0.8-4.4-1.1-6.6-1
			c-2.8,0.1-5.1,0.2-6.7,0.3c-3.5,0.2-6.6-1.1-9-2.5c-0.8-0.5-0.7-1.1,0.1-1.9c0.1-0.1,0.5-0.2,1.2-0.4c1.1-0.3,2.2-0.1,3.2,0.4
			c3.1,1.7,6,3.7,8.7,2.5c0.2-0.1,0.4-0.2,0.5-0.4c0.4-0.6,0.3-1.4-0.3-1.8c-3.5-2.4-7-5.4-10.5-8.9c-1.3-1.3-1.8-3-2.9-4.5
			c-0.2-0.2-0.2-0.4-0.1-0.7c0-0.1,0.1-0.2,0.2-0.3c0.3-0.2,0.5-0.2,0.8,0l16.3,13.8c0.4,0.3,1,0.4,1.5,0.2c0.7-0.3,1.1-1.1,0.8-1.9
			c-0.1-0.3-0.3-0.7-0.6-1.1c-3.4-4.8-5.1-7.3-5.2-7.4c-1.2-2.2-2.1-4.2-2.5-5.9c-0.5-1.9,0-2.2,1.5-0.9c0.2,0.1,0.4,0.6,0.8,1.3
			c2.7,5.7,6.5,10.9,11.6,15.5c1.2,1.1,2.1,1.8,2.7,2c7.6,2.8,13.1,7.9,16.6,15.1c3.4,7,5.5,14.2,8.8,20.9c1.9,3.8,3.4,7.3,4.6,10.7
			c1.2,3.5,2.6,6.5,4.2,9.1c4.6,7.2,7.3,11.3,8.1,12.3c3,3.7,5,6.1,6.1,7.2c2.1,2.3,4.9,4.4,8.5,6.5c2.8,1.6,5.4,2.5,8,2.6
			c3.2,0.2,6,0.2,8.5,0.2c4.6-0.1,11.7-2.5,14.3-6.2c3.7-5.5,7.7-12.7,6.1-18.5c-0.5-1.7-1.2-3.8-2.2-6.2c-1.3-3.3-4.1-6.8-6-9.9
			c-1.1-1.7-2.1-3.1-3.2-4.2c-4.2-4.4-8-7.9-11.4-10.6c-1.2-1-1.6-2.7-1.1-3.9c1.4-3.1,2.7-6,3.9-8.7c0.6-1.3,0.8-3.7,0.8-7.2
			c0-2.9-1.6-5.8-1.8-8.7c-0.1-1.1,0.4-1.4,1.4-0.9l0.8,0.5c0.8,0.5,1.3,1.3,1.4,2.2l0.9,8c0.1,1.3,0.5,1.4,1,0.2
			c1.2-2.8,2.6-6.4,4.2-10.8c0.2-0.6,0.6-1.1,1-1.5c0.4-0.4,0.8-0.5,1.2-0.3c0.3,0.1,0.5,0.5,0.5,0.8c0,3.9-1.3,7.6-3.8,11
			c-0.5,0.7-0.4,1.6,0.1,2.2c0.1,0.1,0.3,0,0.7-0.2c0.2-0.1,0.3-0.3,0.4-0.5c1.2-2.6,2.5-4.9,4.1-6.9c1.3-1.7,0.2-4.2-0.5-6.4
			c-0.2-0.7-0.6-1.2-1-1.4c-3.8-1.9-5.9,6.6-6.5,8.9c-0.1,0.3-0.3,0.4-0.6,0.4l-0.3,0c-0.1,0-0.1,0-0.1-0.1c0.4-4.6-1.5-7.3-5.7-8.1
			c-0.4-0.1-0.6,0.1-0.7,0.4c-1.3,4.9,2.2,9.1,1.4,13.9c-0.5,3.1-1.1,5.5-1.9,7c-1.8,3.7-3.3,6.2-2.7,9.7c0.1,0.4,0.3,0.7,0.6,0.9
			c2.2,1.6,5.7,4.6,10.7,9.1c1.8,1.6,3,3,3.7,4.2c3.5,6,10.3,13.3,9.3,21.3c-0.6,5.3-3,8.5-5.5,12.9c-1.8,3-3.7,3.8-7.3,5
			c-6.1,1.9-12.1,2.3-17.8,1c-0.9-0.2-3.1-1.4-6.8-3.5c-4.2-2.5-6.4-5.9-10.2-10c-2.8-3-6.2-8.4-10.3-16.1
			c-2.9-5.5-7.7-17-14.4-34.5c-1.4-3.6-4.4-8.1-8.9-13.5c-3-3.5-6.4-4.6-11.8-7.5c-1.2-0.6-2.3-1.5-3.2-2.5c-2.6-3-6-6.4-7.8-10
			c-0.8-1.6-1.7-3.3-2.8-5c-0.7-1.1-1.6-1.6-2.8-1.6c-0.8,0-1.3,0.5-1.3,1.3c-0.1,2.8,0.4,5,2,7.5c1.9,3,3.5,5.5,4.9,7.3
			c0.1,0.1,0.1,0.2-0.1,0.3l-0.5,0.1c-0.3,0.1-0.6,0-0.8-0.2c-3.3-3.4-6.9-6.6-10.6-9.6c-1.2-1-3.2-1.7-4.4-3.3
			c-0.1-0.1-0.1-0.1-0.2-0.2c-0.4-0.2-0.8-0.1-1,0.2c-1.1,1.8-0.1,2-0.1,3.6c0,0.4,0.1,0.7,0.3,1c1.5,2.1,2.5,4.3,4.6,6
			c2.9,2.4,5.1,4.2,6.6,5.5c0.2,0.2,0.3,0.4,0.4,0.6l0.1,0.4c0,0.1,0,0.2,0,0.3c-0.1,0.2-0.4,0.3-0.6,0.1c-3.6-2.1-5.6-3.8-8.9-3.4
			c-2.6,0.3-3.7,1.8-3.3,4.4c0.1,0.3,0.2,0.6,0.6,0.7c3.4,1.6,4.8,2.8,8.1,2.7c6.1-0.2,13.5-0.1,18.7,2.4c0.9,0.4,2.9,1.8,6.1,4
			c4.1,2.9,5.4,7.9,7.4,13.3c2.5,6.5,4.3,13.9,6.4,19.8c2.5,7,3.8,17,6.9,23.7c1.3,2.7,3.1,6.5,5.4,11.3c0.6,1.1,1.7,3.1,3.5,5.8
			C573.8,396,578.8,402.9,582.7,407.2z"/>
		<path class="st4" d="M720.2,445.5c-1-0.4-2.1-0.7-3.4-1.1c-4.7-1.5-3.3-8-6.3-11.2c-3.8-4-11.1-2.5-15.3,0.3
			c-0.3,0.2-0.5,0.4-0.6,0.7l-1,1.8c0,0.1-0.1,0.1-0.1,0.2c-0.5,0.6-1.4,0.7-2.1,0.2c-1.8-1.4-3.4-2.4-4.9-2.8
			c-1.2-0.4-2.8-0.2-4.6,0.5c-5.5,2.1-11,3.6-11.7,10.7c0,0,0,0.1,0.1,0.2l0.6,1.1c0,0.1,0.1,0.1,0.2,0.1c0.1,0,0.3-0.1,0.3-0.2
			c0.2-4.2,2.1-7.4,6.4-9c3.3-1.3,7.4-3.6,9.8-1.8c1.5,1.1,3,2.1,4.6,3.1c0.6,0.4,1.4,0.3,1.8-0.3l2.7-3.5c0.3-0.4,0.5-0.6,0.7-0.7
			c3.5-2,10-2.7,13,1c1.7,2.2,1.2,6,3.2,8.4c2,2.4,4.5,2.5,6.8,3.5V445.5z"/>
		<path class="st4" d="M720.2,475c-2.8,0.4-5.6,0.7-8.5,0.9c-2.9,0.2-6.4,0-10.6-0.5c-2.5-0.3-6-0.6-10.7-0.8
			c-1.9-0.1-3.6-0.6-5.5-1.2c-0.2-0.1-0.5,0-0.6,0.2l-0.2,0.4c0,0,0,0.1-0.1,0.1c-0.1,0.2,0.1,0.5,0.3,0.6c1.6,0.4,2.9,1,4.6,1.1
			c6.8,0.4,15.8,1.7,23.5,1.2c2.8-0.2,5.4-0.4,7.7-0.7V475z"/>
		<path class="st4" d="M644,384.3c15.8,9.3,27,22.3,33.8,39c1.2,3,1.8,6.3,2.4,9.5c0,0.1,0,0.2-0.1,0.2c0,0-0.1,0-0.1,0l-0.5-0.3
			c-0.2-0.1-0.3-0.3-0.4-0.5c-0.8-3.2-1.4-6.7-2.8-9.6c-3.7-7.6-7-13.5-10-17.6c-3.2-4.3-8.3-9.4-15.3-15.1c-2.4-2-5-3-7.4-5.1
			c-0.2-0.2-0.4-0.2-0.7,0c-0.1,0.1-0.2,0.1-0.3,0.2c-0.3,0-0.6-0.1-0.6-0.4c-0.2-1-0.2-2.2,0-3.4c1.8-8.6,4.1-15,1.3-22.1
			c-0.7-1.8-2.3-4-4.9-6.6c-7.3-7.5-11.6-11.7-12.9-12.7c-2.2-1.8-5.8-4.1-10.8-6.9c-0.7-0.4-1.6-1.1-2.9-2.2
			c-0.8-0.7-1.2-1.3-1.4-2c-0.8-4.2,7.1-13.5,9.8-16.6c0.8-0.9,1.3-2.4,1.7-4.6c0.1-0.3,0.2-0.4,0.5-0.4c0.1,0,0.2,0,0.3,0
			c0.3,0.1,0.4,0.3,0.5,0.5c0.1,1.2-0.1,2.2-0.8,3.2c-3.8,5.4-7.8,10.2-10.1,15.6c-1.4,3.2,1.7,4.9,3.8,6c5,2.6,9.5,5.3,13.4,9.6
			c3.3,3.6,13.2,11.3,15.6,18.8c0.7,2.2,0.8,5.1,0.2,8.7c-0.2,1-0.9,5.3-2.2,13C643.1,383.2,643.4,383.9,644,384.3z"/>
		<path class="st4" d="M708,439c-2.9-1.2-5.5-1-7.9,0.7c-0.4,0.3-1.5,1.2-3.4,2.8c0,0-0.1,0-0.1,0l-0.3-0.2c-0.2-0.2-0.2-0.5,0-0.7
			c0,0,0,0,0,0c3.5-3.5,6.1-5.9,11.6-3.9c0.2,0.1,0.3,0.2,0.3,0.4l0.2,0.7C708.5,439,708.3,439.2,708,439z"/>
		<path class="st4" d="M688.8,444.4c-2.4-6.2-8.5-4.8-11.8-0.4c-0.1,0.2-0.4,0.2-0.6,0.1c-0.1-0.1-0.1-0.1-0.1-0.2l-0.1-0.5
			c-0.1-0.4,0-0.8,0.4-1.1c3.9-2.9,7.8-5.5,11.9-1c0.8,0.9,1.3,1.7,1.6,2.7c0.1,0.3,0,0.4-0.3,0.5l-0.6,0.2
			C689,444.6,688.8,444.5,688.8,444.4z"/>
	</g>
</g>
<g id="_x33_" class="st1">
	<path class="st2" d="M720,1v480H0V1H720z"/>
	<g id="Frog_3_" class="st3">
		<path class="st5" d="M605,357.7c2.1,3.6,3.9,7.6,5.4,12.2c0.5,1.4,0.4,2.8-0.3,4c-0.3,0.6-1,0.7-1.6,0.4c-2.3-1.3-4.1-4.5-5-6.9
			c-1-2.8-2.2-5.6-3.4-8.3c-0.3-0.6-0.7-0.9-1.3-0.9h-0.3c-0.2,0-0.3,0.2-0.3,0.3c0,0,0,0.1,0,0.1c1.4,4.1,1.9,7.9,1.6,11.3
			c-0.1,0.8-0.7,1.8-1.9,2.8c-0.3,0.2-0.5,0.2-0.7-0.1c-0.8-1.3-1.4-2.3-1.6-3.1c-1.4-5.5-3-10.7-4.8-15.8
			c-1.6-4.4-3.8-9.5-6.7-15.2c-2.7-5.3-7.2-14.1-13.5-26.4c-0.8-1.5-1.9-4.1-3.4-7.6c-0.1-0.3-0.4-0.4-0.7-0.4
			c-8.3,1.5-16.6,2.2-24.9,2.1c-0.5,0-0.8,0.4-0.8,0.8c0,0.1,0,0.2,0.1,0.3c3.3,8.7,7.4,17.4,12.2,26.2c2.1,3.8,7.3,9.5,10.2,15
			c1.1,2.1,2.2,3.8,3.4,5.1c4.4,5.1,9.3,9.8,14.6,14.3c2.4,2,3.3,4.5,4.7,7c0.2,0.3,0.1,0.5-0.2,0.7c-4.8,2.3-6-5.4-10.4-7
			c-0.3-0.1-0.4,0-0.2,0.3c3.2,4.7,4.9,10,5.1,15.9c0.1,2.1-0.6,3.7-2.9,3.3c-0.3-0.1-0.6-0.2-0.8-0.5c-1.8-2.6-2.8-4.6-3.3-6
			c-1.6-5.2-2.4-8.4-5.3-12c-0.2-0.3-0.5-0.3-0.8-0.2c-0.3,0.2-0.4,0.4-0.3,0.6c0.8,2.3,1.7,4.5,1.8,7.1c0.2,2.8,0.3,4.5,0.4,5.2
			c0.1,0.8,0,1.4-0.3,1.9c-0.7,0.9-1.2,1.3-1.5,1.4c-1.3,0.2-2.5-0.7-2.8-2c0-0.1,0-0.1,0-0.2c-0.5-4.2-1.1-8.3-1.9-12.5
			c-0.5-2.7-1.3-5.2-2.5-7.5c-0.4-0.8-1.9-2.9-4.6-6.4c-1.8-2.4-3.2-4.8-4.3-7.1c-1.7-3.9-3.2-6.4-5.9-9.6
			c-5.4-6.3-8.6-10.2-9.6-11.7c-2.5-3.8-5.6-8.8-9.4-12.9c-1.2-1.3-3.2-3.5-6-6.8c-3-3.5-4.9-7.1-7.7-11.5c-1.4-2.1-5.3-4.4-8.4-6
			c-5-2.5-8.5-4.7-10.8-6.6c-1.2-1-3.6-3.4-7-7.1c-1.9-2-3.9-4.6-6.1-7.8c-3.3-4.9-7.5-9.5-10.6-14.8c-1.5-2.5-2.2-5.4-3.6-8.1
			c-2.2-4.3-3.3-10.5-4.1-15c-0.3-1.5-0.9-2.7-1.9-3.5c-1.9-1.7-3.3-2.8-4.3-3.2c-4.7-2.1-10.1-4.6-16-7.4c-3.7-1.7-6.9-3.5-9.6-5.3
			c-3.2-2.2-6.4-4.3-9.6-6.5c-8.3-5.7-16-12.8-22.8-21.4c-4.2-5.3-7.4-8.7-9.5-10.2c-3.6-2.6-6.6-4.8-8.9-6.6
			c-2.2-1.7-4.5-2.6-7-4.1c-2-1.2-6-1-8.8-0.5c-5.6,1.1-10.3,1.8-14.3,2.3c-1.2,0.1-2.6-0.1-4.2-0.6c-0.4-0.1-0.5-0.4-0.5-0.7v-2.4
			c0-0.3,0.2-0.6,0.4-0.7c1.9-0.9,2.6-1.3,4.3-1.4c3.9-0.1,8-0.2,11.6-1.8c1-0.4,0.9-0.7-0.1-0.8c-2.8-0.3-4.3-0.4-6.6-1.3
			c-4.9-2-9.4-4.4-13.5-7.2c-1.1-0.7-1.2-1.7-0.4-3.1c0,0,0.2-0.2,0.4-0.4c0.8-0.8,1.9-1,2.9-0.5c2.8,1.4,5.8,3,9,4.7
			c2.6,1.4,5.3,2.4,8.3,2.9c1.1,0.2,1.3-0.1,0.4-0.9c-3.5-3.3-6.3-5.8-8.3-7.6c-0.6-0.5-1.1-1.3-1.5-2.2c-0.4-1,0-2.2,1.1-2.6
			c0.3-0.1,0.5-0.2,0.8-0.2h3.3c0.3,0,0.5,0.1,0.7,0.3c4.9,5.2,8,8.2,9.5,9c2.3,1.3,4.7,2.7,7,4c1.2,0.7,3.6,2,7.3,3.8
			c3.4,1.7,6.6,4,9.5,7c5.6,5.8,10.4,10.8,17.1,14.9c5.9,3.7,12.4,9.8,18.6,12.1c9.5,3.6,19.2,5.7,29.4,6.2c0.3,0,0.6-0.2,0.6-0.5
			c0,0,0-0.1,0-0.1c-0.1-0.5-0.1-0.7-0.2-0.9c-3.7-6.8-7.5-12.8-11.3-17.8c-3.5-4.7-13.2-10.3-17.5-13.4c-4-2.8-7.6-4.5-11.1-7
			c-1.1-0.8-2.3-2-3.7-3.7c-3.6-4.3-7.6-7.9-11.9-10.9c-2.1-1.4-5.5-4.5-4.9-7.1c0.9-3.8,5.4-1.9,7.1,0.1c2.6,3,4.5,5.1,5.9,6.6
			c0.1,0.1,0.3,0.1,0.4,0c0.1-0.1,0.1-0.2,0-0.3c-1-2-2.3-4.1-4-6.3c-1.8-2.3-3-5.1-3.6-8.3c-0.1-0.5,0.1-0.8,0.6-0.9
			c1.8-0.3,3.2,0.1,4.1,1.3c2.6,3.5,5.1,7.6,7.4,12.5c0.1,0.2,0.3,0.2,0.4,0.2c0,0,0.1,0,0.1-0.1l0.3-0.3c0-0.1,0.1-0.1,0-0.2
			c-1-3-2.1-6.3-3.5-9.8c-0.6-1.6-0.7-2.7-0.3-4.3c0.2-0.7,0.9-1.1,1.5-0.9c1.3,0.3,2.1,1,2.6,2.2c2.2,5.5,4.1,10.8,5.7,15.9
			c1.1,3.5,2.2,5.9,3.2,7.4c1.5,2.2,4.6,6.5,7.4,7c11,2.2,20,6,26.9,11.4c5.7,4.5,13.1,10.5,20.5,16c2.6,1.9,4.9,4.1,6.9,6.6
			c1.4,1.7,5.1,3.3,8.2,3.9c6.3,1.1,12.4,3.2,18.6,6.1c1,0.5,4,1.8,9,4.1c10.4,4.7,19,13.2,23.1,24.1c1.8,4.8,3.1,8.2,3.7,10.2
			c0.1,0.3,0.3,0.5,0.6,0.6c4.5,1.5,8.1,3,9.7,7.8c0.1,0.3,0.4,0.4,0.6,0.3c0.1,0,0.1,0,0.1-0.1c1.7-1.3,3.8-3.7,6.3-4.4
			c4.2-1.3,7.4,0.1,9.8,4.1c1.5,2.6,0.5,5.1,0.7,8c0,0.3-0.1,0.7-0.3,0.9c-0.3,0.3-0.5,0.6-0.5,0.8c-0.1,0.3,0,0.7,0.3,0.9
			c1.1,0.9,2.7,1.4,3.9,2.5c2.5,2.3,6.8,5.9,10.2,10c0.7,0.9,2,2.5,3.9,4.7c2.8,3.3,5.6,10,3.6,14.2c-1.8,3.8-5.6,1.8-9.1,1.7
			c-0.3,0-0.6,0.1-0.8,0.4c-1.2,2.4-2.2,3.8-2.8,4.3c-4.7,3.6-9.9,6.2-15.7,7.8c-0.5,0.1-0.7,0.5-0.4,1c4.4,9.4,9.3,19.1,14.6,28.9
			c3.8,7,6.4,12.5,7.7,16.3c2.7,7.7,4.9,14.5,6.5,20.6c0.1,0.3,0.3,0.5,0.6,0.5c0.8,0.1,1.1-0.3,1.1-1.4c0-2.9-0.6-6.7-1.8-11.5
			c-0.3-1.3,0.2-1.7,1.5-1.3l0.6,0.2c1.2,0.4,2.1,1.3,2.6,2.5c1.7,4.5,3.3,10.1,6,12.8c1.4,1.4,2.1,1.1,2.1-0.9
			c0-0.5-0.2-1.1-0.6-1.9c-0.4-0.8-0.6-1.4-0.8-1.8c-1.5-4.1-3.4-7.9-5.8-11.4c-1.1-1.5-0.7-1.9,1-1.3c2.3,0.9,5,2.5,8.1,4.8
			c0.5,0.4,1.1,1.2,1.4,1.9c0.6,1.7,1.1,1.6,1.4-0.1c0.1-0.8,0-1.5-0.4-2.2c-0.2-0.3-0.4-0.5-0.7-0.6c-3.4-1.5-5.6-2.7-6.5-3.5
			c-5-4.4-8.7-9.3-11-14.9c-1.5-3.6-2.8-7.1-4-10.5c-3.3-9.3-6-19-7.9-29.2c-0.2-1-0.1-2,0.1-3.1c0-0.1,0.1-0.2,0.2-0.2h0.3
			c0.2,0,0.4,0.2,0.4,0.4c0,0,0,0,0,0c-0.1,1.7,0,2.8,0.1,3.3c2.2,11.5,5.7,23.6,10.4,36.2c1.4,3.6,3.8,6.9,5.6,10.5
			c0.3,0.5,1.4,2,3.5,4.4c1,1.2,2.5,2.2,4.4,3.1c0.5,0.3,2.3,1.3,5.2,3.1c0.3,0.2,0.5,0.5,0.6,0.8c0.7,1.8,0.9,3.8,0.6,6.1
			c0,0.4-0.2,0.5-0.6,0.4c-0.8-0.2-1.2-0.8-1.3-1.8c0-0.3-0.2-0.7-0.4-0.9c-2.2-2.3-4.8-4.2-7.9-5.5
			C604.9,357.1,604.8,357.3,605,357.7z"/>
		<path class="st0" d="M411.7,143.7c-0.5-1.4-0.7-2.2-0.9-2.4c-3.7-5.8-6.7-9.5-7.7-13.3c-0.1-0.3,0.1-0.7,0.4-0.8
			c0.1,0,0.2,0,0.3,0c0.7,0.2,1.4,0.7,1.9,1.5c2,2.9,4.3,6.8,7,11.8c0.3,0.5,0.7,0.9,1.3,1c0.6,0.1,1,0.1,1.3-0.3
			c0.4-0.4,0.5-0.6,0.5-0.7l-3.7-11.7c-0.3-0.9-0.4-1.6-0.2-2.1c0.1-0.4,0.2-0.6,0.4-0.7c0.5-0.3,0.9-0.1,1.2,0.4
			c2.3,5.1,4.5,10.9,6.6,17.3c1.6,4.7,3.4,7.8,6.9,11.3c1.8,1.8,3.5,2.9,5.2,3.2c3.4,0.7,6.8,1.1,9.3,2.1c7,2.6,13.4,6.3,19.2,11.1
			c6.5,5.3,12,9.8,18.1,14.1c2.4,1.7,4.4,3.7,6.2,6c0.5,0.6,1.6,1.5,3.3,2.6c1.1,0.7,2.4,1.2,4,1.5c7.7,1.4,14.6,3.6,20.7,6.5
			c5.6,2.7,10.5,4.5,14.4,7.2c5.7,4,10.2,8.7,13.5,14.2c1.8,3.1,4,8.5,6.5,16.5c0.1,0.3,0,0.5-0.3,0.6c-5.9,1.6-9.3,5.5-10.3,11.6
			c-0.1,0.4,0.1,0.8,0.4,1.1l0.4,0.4c0.1,0.1,0.2,0.1,0.3,0c0,0,0.1-0.1,0.1-0.1c0.3-8.3,8.2-15.3,16.1-10.3
			c2.3,1.4,3.4,4.1,4.3,6.3c0.1,0.3,0.5,0.5,0.8,0.3c0.1,0,0.2-0.1,0.2-0.2c3.8-4.4,10.1-8.5,14.8-2.3c0.8,1,1.1,2.2,1.1,3.4
			c0,0.7-0.3,0.8-0.8,0.3c-2.8-2.8-5.8-4.6-9.4-2c-3.2,2.3-3.2,6.9,0.3,9.2c2.9,2,5.8,2.3,8.5,1c0.3-0.2,0.7-0.2,1,0
			c2.2,1,3.4,1.7,3.7,2c5.3,4.3,10.2,9.5,14.6,15.4c0.5,0.7,1.5,2.5,2.7,5.2c1.6,3.5,1.7,10.6-4.7,8.9c-3.4-0.9-7-1-10.5-1.6
			c-1.9-0.3-4.3-0.5-7.3-0.8c-7.3-0.7-13.1-1.6-17.3-3c-5.8-1.8-10.8-3.4-15.2-4.8c-0.8-0.3-2.1-1.1-3.7-2.3
			c-3.5-2.8-7.1-5.7-10.6-8.5c-0.1-0.1-0.2-0.1-0.3,0c0,0,0,0.1,0,0.1v0.5c0,0.2,0.1,0.4,0.3,0.6c5.3,4.3,8.8,7.2,10.5,8.5
			c1.5,1.1,3.6,2.2,6.3,3.1c6.1,2.1,11.4,3.8,15.9,4.9c4,1,9.7,1.8,17,2.4c3.4,0.3,6.4,0.8,9.8,1.3c0.2,0,0.4,0.2,0.3,0.4
			c0,0.1,0,0.1-0.1,0.2c-1.2,1.5-2.5,3.5-4.4,4.7c-5.1,3.4-9.9,5.6-14.2,6.5c-5.6,1.2-12.4,2-20.5,2.4c-4,0.2-7.2-0.4-9.8-1.9
			c-0.2-0.1-0.3-0.1-0.5,0.1l-0.2,0.3c-0.1,0.1-0.1,0.2,0,0.2l2.7,1.9c0.3,0.2,0.4,0.5,0.4,0.9c-0.1,0.6-0.1,1.1,0.1,1.6
			c2.1,5.6,5.3,12.7,9.5,21.2c2.2,4.4,5,8.8,8.6,13.2c3,3.8,4.8,8.4,8,12c3.1,3.4,7,7.4,11.6,12c1.7,1.6,3.5,2.5,4.7,4.6
			c0.4,0.7,1.2,1.8,2.2,3.2c0.2,0.3,0.2,0.5-0.2,0.6l-0.7,0.2c-0.1,0-0.3,0-0.3-0.1c-2.9-3.4-4.9-5.6-5.8-6.6
			c-0.4-0.4-1.4-1.1-2.9-1.9c-0.3-0.2-0.6-0.1-0.9,0.1c-0.5,0.6-0.6,1.2-0.3,1.8c3.4,5.2,5.3,10.8,5.7,16.8c0,0.6-0.3,1.1-0.9,1.3
			c-1,0.3-1.6,0-2-0.9c-2.1-4.7-3.5-8.5-4.2-11.4c-0.2-0.8-1.1-2.4-2.6-4.8c-0.9-1.4-2.1-2-3.5-1.7c-0.3,0.1-0.5,0.3-0.5,0.6
			c0.1,1.6,0.2,2.4,0.3,2.6c1.5,3.9,2.1,8.1,1.8,12.5c0,0.3-0.2,0.5-0.5,0.6c-0.4,0.1-0.7,0.1-1,0c-0.3-0.1-0.5-0.4-0.5-0.7
			c-0.6-4.2-1.3-9-2.1-14.2c-0.1-0.7-0.8-2.6-2.1-5.7c-0.6-1.3-1.7-3-3.4-5.2c-2.6-3.3-5.1-7.3-7.5-12c-1.5-2.9-2.8-5-3.7-6.2
			c-2-2.5-5.1-5.5-7-8.2c-2.2-3-4.1-5.7-5.7-8.1c-3.9-6-8-10.2-13.2-16c-3.1-3.5-4.8-7-6.7-10.2c-2.3-3.8-8.7-6.9-13.3-8.8
			c-1.7-0.7-4.4-2.8-8.2-6.2c-3.2-2.9-7.5-7.6-10.4-11.8c-3.4-5-8.6-11.1-11.6-16.7c-4-7.8-6.6-15.8-7.7-24c0-0.3-0.2-0.5-0.4-0.8
			c-2.9-2.8-5.2-4.6-7-5.4c-4.8-2.1-9.2-4.2-13.1-6.2c-0.7-0.4-1.6-0.7-2.6-0.9c-1.3-0.3-2.1-0.6-2.3-0.7c-2.3-1.7-6.9-4.8-14-9.4
			c-9.9-6.5-18.7-14.6-26.2-24.5c-2.4-3.1-5.8-6.4-10.2-9.9c-5.4-4.3-9.5-7.5-15.3-9.9c-1.4-0.6-3.1-0.7-5.1-0.5
			c-4.6,0.5-9.2,1.2-13.9,2.3c-1.5,0.3-4.3,0.5-5.5,0.3c-1-0.1-1.5-0.7-1.5-1.7c0-0.3,0.1-0.6,0.4-0.8c1.1-0.6,2.9-1,5.4-1.1
			c2.9-0.1,6-0.5,9.3-1.2c0.9-0.2,1.4-1.1,1.2-1.9c-0.2-1.2-1-1.8-2.3-1.9c-1.7-0.1-3.2-0.2-5-1c-4.8-2.3-9.2-4.7-13.2-7.3
			c-0.5-0.4-0.5-0.8,0-1.3c0,0,0.2-0.1,0.4-0.2c0.6-0.3,1.4-0.2,2,0.2c5.9,3.7,11.7,6.2,17.5,7.5c1.7,0.4,3.4,0.2,5.1-0.4
			c0.7-0.3,0.7-0.4-0.1-0.5l-1.4-0.2c-0.2,0-0.4-0.1-0.5-0.2l-10.9-9.8c0,0,0,0-0.1-0.1c-0.8-1.9-0.2-2.6,2-2.1
			c1.1,0.2,2.1,0.8,2.9,1.6c7.1,7.4,15.3,11.8,24.8,16.2c0.8,0.4,2.1,1.4,3.9,3.1c4.2,3.9,8.1,7.6,11.6,11.1
			c1.6,1.6,4.7,3.9,9.1,6.8c1.6,1.1,4.4,3,8.3,5.9c4.1,3,7.7,5.1,10.8,6.2c8.9,3.3,17.8,5.3,26.8,6c1.5,0.1,2.8,0.1,3.9-0.1
			c0.3-0.1,0.4-0.2,0.3-0.5c-0.8-2.4-2.2-5.3-4.2-8.6c-3.8-6.3-7.8-12.9-13.5-17c-2.6-1.9-6.5-4.6-11.8-8.1
			c-4.7-3.2-11.8-6.3-15.3-11.1c-3.8-5.1-8.9-8.5-13-11.9c-1.6-1.3-2.5-2.7-2.8-4.2c-0.2-0.9,0.4-1.7,1.3-1.9c0.2,0,0.5,0,0.7,0
			c1.3,0.3,2.4,1.1,3.4,2.4c2.4,3,4.5,5.3,6.4,7c0.6,0.5,1.4,0.6,2.2,0.7C411.7,144.2,411.8,144.1,411.7,143.7z"/>
		<path class="st5" d="M554.4,257.2c-2.3,2.8-6.5,3-9.5,0.6c0,0,0,0,0,0c-3-2.5-3.6-6.7-1.3-9.5c0,0,0,0,0,0c2.3-2.8,6.5-3,9.5-0.6
			l0,0C556.1,250.2,556.6,254.4,554.4,257.2z"/>
		<path class="st0" d="M548.4,255c-0.2,0.5-0.2,1.2-0.1,2.1c0,0.4-0.2,0.7-0.6,0.8c-0.1,0-0.2,0-0.3,0c-3.7-1.3-6-5.9-2.6-8.8
			c2.6-2.2,7-2.7,8.7,0.8c0.8,1.6,1.1,3.2,0.8,4.8c-0.3,1.7-0.8,1.9-1.7,0.5c-0.3-0.5-1.5-0.8-3.4-0.7
			C548.8,254.5,548.6,254.6,548.4,255z"/>
		<path class="st0" d="M567.2,255.9l-0.4,1c-0.1,0.3-0.4,0.4-0.7,0.3c-6-2.4-0.2-11.8,5.8-7.2c1.9,1.4,2.8,3.5,2.6,6.3
			c0,0.3-0.1,0.6-0.3,0.9c-1.2,1.4-2.8,1.8-4.7,1.2c-0.2-0.1-0.3-0.3-0.3-0.5c0-0.1,0.1-0.2,0.2-0.2c0.1,0,0.1-0.1,0.2-0.1
			c0.2-0.1,0.4-0.3,0.5-0.6c0.3-0.8-0.1-1.5-1.2-1.9C568.1,254.8,567.5,255.1,567.2,255.9z"/>
	</g>
</g>
<g id="_x32_" class="st1">
	<path class="st2" d="M720,1v480H0V1H720z"/>
	<g id="Frog" class="st3">
		<path vector-effect="non-scaling-stroke" class="st6" d="M444.5,217.8c-0.1-0.3,0-0.4,0.1-0.5c0.2-0.1,0.5-0.2,0.8-0.1"/>
		<path class="st7" d="M444.5,217.8c-0.1-0.3,0-0.4,0.1-0.5c0.2-0.1,0.5-0.2,0.8-0.1c2.9,1.5,7.4,3.3,7.1,7.2c0,0.3-0.2,0.6-0.5,0.8
			c-1.7,0.9-2.7,0.6-4.4-0.4c-0.7-0.4-1.2-0.6-1.5-0.5c-0.4,0.1-0.5,0.3-0.2,0.7c1.5,1.8,1.8,4,1,6.7c-0.2,0.7-1,1.1-1.6,0.9
			c-0.2-0.1-0.3-0.1-0.5-0.3c-0.6-0.5-1-1-1.3-1.7c-1.2-2.6-3.2-6.6-5.4-7.7c-0.3-0.2-0.7,0-0.9,0.3c-0.1,0.1-0.1,0.3,0,0.4
			c0.8,3.6,1,6.8,0.5,9.6c-0.1,0.8-0.7,1.4-1.5,1.5l-0.5,0.1c-0.9,0.1-1.7-0.6-1.8-1.8c0,0,0-0.1,0-0.1c-0.5-6-2-10.3-4.3-12.6
			c-0.4-0.4-2.2-1.6-5.4-3.8c-3.8-2.5-8.8-3.6-13-5.3c-0.2-0.1-2.6-1-7.1-2.6c-6.4-2.3-12.3-5.5-17.7-9.6
			c-4.9-3.7-8.8-8.1-11.8-13.2c-0.6-1-1.5-1.6-2.7-1.6c-2.2,0-5-1-6.7-2.4c-1.6-1.4-3.7-2.6-5.3-4.3c-3.6-3.6-6-6.1-7.3-7.4
			c-2.1-2.1-4.8-5.3-5.8-7.7c-1.4-3.2-2.7-6.4-4.1-9.8c-0.1-0.2-0.5-0.6-1.2-1.1c-6.6-4.8-13.7-8.9-21.4-12.1
			c-11.6-4.9-23.2-9.1-34.8-12.8c-5.3-1.7-17.1-4.6-35.5-8.7c-5.8-1.3-14-4.1-20.3-4.6c-3.9-0.3-9.4-0.7-16.6-1.2
			c-1.7-0.1-3.1,0.1-4.2,0.7c-5,2.6-7,3.9-12,4.4c-0.3,0-0.6-0.1-0.7-0.4l-0.8-1.8c-0.2-0.5,0-1.1,0.5-1.3c0,0,0,0,0,0l9.3-3.9
			c0.3-0.1,0.5-0.4,0.6-0.8c0.1-0.7-0.2-1-0.6-1c-5.3,0.9-10.9,0.6-16.9-0.7c-0.8-0.2-1.4-1-1.2-1.8c0.1-0.3,0.2-0.6,0.5-0.8
			c0.6-0.6,1.6-1.2,2.6-1.3c4.5-0.4,7.1-0.5,7.8-0.5c4.3,0.2,6.9,0.2,7.5,0.1c0.5-0.1,0.5-0.3,0.1-0.5c-2-1.1-4.2-2.1-6.6-3
			c-1.7-0.6-3.2-1.6-4.6-2.9c-0.3-0.3-0.3-0.8,0-1.1c0,0,0,0,0,0c1.6-1.4,3.1-1.3,5.2-0.6c8.8,3,17.2,6,25,9
			c13.6,5.2,25.3,5.4,43,6.1c0.3,0,0.4-0.1,0.2-0.4c-1.9-2.8-6.4-4.7-9.8-6.2c-2-0.9-4.7-1.5-8-1.7c-5-0.4-9.9-0.7-14.7-0.7
			c-1,0-1.9-0.2-2.7-0.4c-0.6-0.2-1-0.9-0.8-1.5c0.1-0.3,0.3-0.5,0.5-0.7c3.2-1.8,5.4-1.7,9.6-1.7c1.6,0,1.7-0.4,0.3-1.2
			c-0.2-0.1-0.8-0.2-1.7-0.4c-2.3-0.4-4.7-0.8-6.9-1.4c-2.6-0.6-4.3-0.7-4.6-3.4c-0.1-0.9,0.5-1.7,1.4-1.8c0,0,0,0,0,0
			c2.4-0.3,4.7-0.1,7,0.8c2.8,1.1,4.8,1.9,6.2,2.3c1.2,0.4,1.4,0,0.7-1c-1.6-2.2-4.4-3.3-6.1-4.8c-0.8-0.7-0.8-1.5,0.2-2.4
			c0,0,0.1-0.1,0.3-0.1c1-0.5,2.3-0.4,3.2,0.3c4.5,3.6,9.6,7.6,15.3,12.1c2,1.6,4.8,2.9,8.2,4.1c2.6,0.8,7.6,1.9,15,3.1
			c5.1,0.8,9.7,1.6,14,2.3c5.1,0.8,9.8,1.5,14,2c11.2,1.3,20.1,2.2,26.8,2.8c5.9,0.5,12.8,0.6,20,0.2c15.2-0.9,31.5-1.1,45.9,6
			c5.3,2.7,12.6,4.7,17,11.5c0,0,0,0.1,0,0.1l-0.2,0.3c-0.1,0.1-0.2,0.1-0.3,0.1c0,0,0,0,0,0c-3.4-3.7-5.9-5.9-7.5-6.7
			c-0.4-0.2-3.5-1.7-9.3-4.4c-15-7.1-32.2-6.6-49.1-5.6c-12.7,0.8-26.1-1.7-38.1-2.7c-5.9-0.5-12.5-1.4-19.9-2.6
			c-1.3-0.2-8.6-1.5-21.9-3.8c-4.7-0.8-9-2.3-12.8-4.4c-1.9-1-4.9-3.3-9.1-6.7c-4.4-3.7-7.5-6.1-9.3-7.3c-0.2-0.1-0.7-0.1-1.5-0.1
			c-0.1,0-0.2,0.1-0.2,0.3c0.1,0.6,0.1,1.1,0.2,1.2c5,3.2,7.3,5.5,6.9,6.8c-0.2,0.6-0.8,1-1.5,0.9c0,0-0.1,0-0.1,0
			c-5.2-2-8.9-3.8-13.8-3.5c-0.4,0-0.6,0.2-0.7,0.5c-0.2,0.5,0,0.9,0.4,1.4c0.4,0.3,1.4,0.7,2.9,1c0.1,0,2.6,0.5,7.4,1.5
			c1.6,0.3,2.9,1,3.8,2c0.4,0.4,0.4,1.2,0,1.6c-0.2,0.2-0.5,0.3-0.7,0.3c-4.2,0.1-7.8-0.5-10.1,0.9c-1,0.7-0.9,1,0.3,1.1
			c0.8,0,5.6,0.2,14.5,0.6c6.4,0.3,10.2,2.3,15.8,4.9c1.7,0.8,2.8,2,4.3,3.4c1.2,1.2,2.9,1.6,4.4,1.7c12.8,0.6,25.4,2.4,37.5,6.5
			c0.1,0,0.1,0.1,0.2,0.1l0.3,0.7c0.2,0.4,0,0.5-0.3,0.4c-6.5-2.1-11.6-3.5-15.3-4.1c-4.1-0.7-11.2-1.6-21.3-2.6
			c-2.5-0.3-7.3-0.4-14.6-0.6c-12-0.2-23.3-2-34.1-5.3c-3.8-1.2-7.1-2.7-11.6-4.6c-4.9-2-10.3-3.4-15.2-5.5
			c-0.7-0.3-1.4-0.4-2.1-0.1l-0.7,0.2c-0.8,0.3-0.8,0.6-0.2,1c1.9,1.1,5.2,2.7,9.9,4.9c0.9,0.4,1.4,1,1.6,1.8
			c0.1,0.3-0.1,0.6-0.4,0.6c-1.8,0.3-2.9,0.5-3.3,0.5c-4.7-0.5-9.3-0.4-13.7,0.3c-0.6,0.1-1,0.3-1.3,0.8c-0.2,0.3-0.1,0.7,0.2,1
			c0.1,0.1,0.2,0.1,0.3,0.1c5.6,1,11.2,1.2,16.6,0.7c0.8-0.1,1.5,0.5,1.5,1.3c0,0.3,0,0.5-0.1,0.7c-0.4,0.7-1.2,1.4-2.4,2
			c-2.6,1.2-5.2,2.2-7.7,3.1c-0.3,0.1-0.4,0.3-0.3,0.7l0.3,0.7c0.1,0.3,0.4,0.4,0.7,0.4c3-0.5,5-1,6-1.7c2.7-1.8,5.8-4,9.2-3.7
			c6.5,0.6,12.3,0.6,18.4,1.6c8,1.4,13.2,3.2,20.5,4.8c10.3,2.2,21.1,4.9,32.6,8.1c5.7,1.6,10.7,3.6,17.1,5.8
			c9.6,3.4,19.1,7.3,28.5,11.7c3.7,1.8,7.5,5,11.2,6.6c0.5,0.2,0.9,0.2,0.9-0.1c0.2-0.9,0.5-0.9,0.8,0c2.4,8.2,5.9,15.4,12.1,21.4
			c6.4,6.2,10.1,10.8,17.3,12.6c0.4,0.1,0.7-0.1,0.8-0.5c0-0.2,0-0.3-0.1-0.5c-0.9-1.7-2.5-4.7-4.7-8.9c-0.9-1.6-1.2-3.3-1-4.9
			c0.1-0.7,0.2-0.7,0.5-0.1c2.4,6.5,6,14.4,10.3,20.6c1.3,1.8,3.1,3.7,5.6,5.9c3.3,2.8,7.1,5.5,11.4,8.2c4.7,2.9,11.4,4.4,16.1,6.7
			c1.7,0.8,4.3,1.8,7.7,2.9c4.5,1.5,8.2,3.6,10.9,6.4c3.5,3.6,5.3,8.1,5.3,13.5c0,0.3,0.2,0.6,0.6,0.8l0.2,0.2
			c0.3,0.2,0.7,0.1,0.8-0.2c0-0.1,0.1-0.2,0.1-0.3c0.4-3.2,0.2-6.3-0.6-9.4c-0.1-0.2-0.1-0.5,0-0.8c0.1-0.3,0.1-0.6,0.3-0.8
			c0.5-0.8,1.1-1,2-0.6c3.7,1.6,5.1,5.9,6.7,9.3c0.1,0.3,0.5,0.4,0.7,0.3c0.1,0,0.1-0.1,0.2-0.1l0.3-0.3c0.5-0.5,0.7-1.1,0.5-1.8
			c-1.3-4-3.6-7.3-6.9-9.8c-0.1-0.1-0.1-0.2,0-0.4c0,0,0.1-0.1,0.1-0.1l0.3-0.1c0.2-0.1,0.3,0,0.5,0.1l9.6,6.5
			c0.3,0.2,0.8-0.3,1.2-1c0-0.1,0.1-0.1,0.1-0.2c0-0.1,0-0.3,0-0.8c-0.1-0.7-0.4-1.3-1-1.7L444.5,217.8z"/>
		<path class="st8" d="M445.4,217.1c-0.3,0-0.5,0-0.8,0.1c-0.1,0.1-0.2,0.3-0.1,0.5c-4.2-2.9-7.7-6.4-12.6-8.2
			c-5.7-2.1-10.7-4.8-18.8-8.8c-3.6-1.8-6-4.1-7.5-7c-0.2-0.4-0.1-0.8,0.2-1.1c0.3-0.3,0.5-0.2,0.5,0.2c0.2,1.4,0.7,2.1,1.8,2.1
			c10.7,0.4,22.3,0,34.9-1.2c1.9-0.2,3.8-0.7,5.7-1.7c3.8-1.9,6.7-3,8.9-5.2c2.4-2.4,4.5-5.7,6.3-10c0.6-1.4,0.2-2.5-1.1-3.3
			c-5.8-3.1-11.5-4.6-17-4.3c-7.6,0.4-14.9,0.2-22.4-0.6c-3.9-0.4-7.6-1.2-11.7-2.9c-2.1-0.9-4.6-1.8-7.5-2.8
			c-1.4-0.5-2.7-1.8-3.9-4c-0.1-0.1,0-0.2,0.1-0.2l0.2-0.1c0.2-0.1,0.4,0,0.5,0.1c1.1,1.4,2.5,2.5,4.1,3.2
			c7.7,3.5,15.9,5.4,24.5,5.7c5.6,0.2,12,0.2,19.3-0.1c5.4-0.2,11.8,3.2,16.2,5.5c2.7,1.4,0.1,5-1,6.7c-0.6,0.9-0.4,1.2,0.7,0.9
			c4.2-1.3,7.1-2.2,8.5-7c0.9-3.2,1.3-9.3-1.5-11.9c-5.3-4.9-9.4-8.2-12.3-10c-5.7-3.4-8.6-5.2-8.8-5.3c-0.4-0.3-1-0.2-1.3,0.2
			c0,0,0,0.1-0.1,0.1c-0.5,1.1-1.2,2.1-2,2.9c-0.3,0.2-0.6,0.4-0.9,0.4c-4.1,0-6.6,0.1-8.6-3.5c-0.9-1.5-1-3.2-0.4-5.1
			c1.1-3.5,5.7-3.8,8.9-3.1c0.1,0,0.3,0.1,0.4,0.2l1.8,1.8c0.2,0.2,0.5,0.2,0.7,0c0.1-0.1,0.1-0.1,0.1-0.2c1.1-3.6-1.5-6.5-4.9-6.9
			c-3-0.3-6.6,1.8-9.8,3.5c-1.1,0.6-2.5,0.2-3-0.9c-2.1-3.8-5.3-5.9-9.6-6.4c-2.7-0.3-4.9,0.3-6.6,1.8c-2.1,1.8-3.3,4.1-3.7,6.9
			c0,0.3-0.2,0.4-0.5,0.2l-0.4-0.3c-0.2-0.1-0.3-0.3-0.2-0.6c0.7-3.2,2.1-5.6,4.4-7.4c2.2-1.7,4.8-2.3,7.8-1.8
			c4.2,0.7,7.4,3,9.7,6.9c0.4,0.8,1,0.9,1.8,0.4c3.1-2,6.2-4.3,10.5-3.9c5.3,0.5,7.4,5.5,5.2,10.3c-0.3,0.6-0.2,1.4,0.3,1.9
			c1.3,1.3,2.7,2.5,4.4,3.4c6.3,3.4,12,7.6,17.1,12.4c1.9,1.8,3.1,3.5,3.4,5.2c0.6,2.6,0.5,5.3-0.1,8.2c-1.2,5.4-5.7,8.1-10.9,9.6
			c-0.5,0.1-0.8,0.7-0.6,1.2c0,0,0,0,0,0c1.5,4.2,4.3,8.6,5.2,13.6c1.3,7.1,2,12.5,2.2,16.3c0.1,2,0.5,3.5,1.2,4.4
			c2.4,3.1,4.9,4.7,5.6,8.6c0.1,0.9-0.5,1.8-1.4,1.9c-0.4,0.1-0.7,0-1-0.2c-1.9-1-3.6-2.4-5.1-4.4c-0.4-0.5-0.6-0.5-0.6,0.2
			c0.2,3.5,0.8,5.5-0.8,7.7c-0.3,0.5-1,0.6-1.4,0.3c-2.9-2.1-2.3-4.8-2.6-9.3c0-0.7-0.2-1.2-0.3-1.4c-0.6-0.7-1-0.7-1.4,0.2
			c-1.2,2.6-2.2,5.7-4.6,7.2c-0.3,0.2-0.6,0.2-0.9-0.1l-1.8-1.8c-0.3-0.3-0.4-0.6-0.3-1c0.7-2.9,1.1-4.5,1.4-4.8
			c1.5-2.3,2.4-4.9,2.7-7.7c0.2-2.1-0.4-4.5-1.6-7.2c-2.3-4.7-5.6-13.4-11.8-12.2c-6.2,1.3-12.1,1.9-17.5,1.9
			c-5.9,0-10.7,0.1-14.6,0.2c-0.4,0-0.9,0-1.3-0.1c-0.7-0.2-1.1-0.3-1.3-0.2c-1.7,0.4-1.7,1-0.1,1.9c3.6,1.9,7.3,3.8,11,5.6
			c3.7,1.9,8.4,3.7,12.4,5.6C438.7,211.2,441.6,214.6,445.4,217.1z"/>
		<path class="st7" d="M429.6,140.3c0.2,3.3-2.6,6.1-6.2,6.3c0,0,0,0,0,0c-3.6,0.2-6.7-2.3-6.9-5.5c-0.2-3.3,2.6-6.1,6.2-6.3
			c0,0,0,0,0,0C426.3,134.6,429.4,137.1,429.6,140.3z"/>
		<path class="st0" d="M423.2,142.4c-0.8,0.6-1.2,1.2-1.3,2c-0.1,0.6-0.6,1-1.3,0.9c-0.2,0-0.3-0.1-0.5-0.2c-2.2-1.5-3-3.5-2.3-6
			c1.6-5.7,13.8-3.3,9.6,4.1c-0.5,1-1.1,1-1.8,0.1c-0.2-0.3-0.7-0.6-1.6-1.1C423.8,142.1,423.5,142.2,423.2,142.4z"/>
		<path class="st0" d="M441.4,144.8c-0.9,0.5-1.3,0.8-1.3,0.9c-0.4,1.4-0.9,1.4-1.4,0.1c-0.5-1.2-0.5-3.7,0.7-4.9
			c2.5-2.6,7.2-2.3,8.5,1.4c1,2.8,0.4,4.9-1.9,6.2c-0.8,0.5-1.8,0.3-2.7-0.5c-0.3-0.2-0.4-0.5-0.3-0.8c0.2-0.9,0-1.7-0.5-2.2
			C442.1,144.7,441.8,144.6,441.4,144.8z"/>
		
			<ellipse transform="matrix(0.9885 -0.1513 0.1513 0.9885 -23.2229 62.344)" class="st8" cx="398.2" cy="183.8" rx="0.3" ry="1.8"/>
		<path class="st0" d="M468.2,219.1c-0.1-0.2-0.2-0.2-0.4-0.2l-0.5,0.2c-0.1,0.1-0.2,0.1-0.1,0.3c0.8,3.1,1.2,6.2,1.3,9.3
			c0,0.9,0,1.3,0,1.4c-0.7,1.8-1.3,1.8-1.9-0.1c-0.8-2.6,0.4-8-2.3-10c-0.3-0.2-0.6-0.2-0.9,0c-1.3,1.1-2,1.9-2.1,2.4
			c-0.4,1.3-1.1,3-2.3,4.9c-0.3,0.6-1,0.8-1.6,0.4c-0.3-0.2-0.5-0.4-0.6-0.7c-0.6-2.3,1.9-6.3,3.4-9.6c0.6-1.3,0.9-3.1,0.8-5.4
			c-0.1-1.6-0.5-3.3-1.4-5.1c-2.5-5.3-4.6-10.1-9.3-13.5c-0.2-0.1-0.2-0.4-0.1-0.5c0-0.1,0.1-0.1,0.2-0.1c4.1-1.3,7.5-3.8,10.2-7.4
			c0.3-0.4,0.9-0.5,1.4-0.2c0.2,0.1,0.3,0.3,0.3,0.5c1.4,4.3,3.9,7.9,4.8,12.8c1.4,7,2.8,12.5,2.3,18.4c0,0.3,0.1,0.6,0.3,0.9
			c2.5,2.8,6.8,6.8,6.7,9.2c-0.1,1.2-0.6,1.4-1.5,0.6C472.5,224.9,469.4,222.9,468.2,219.1z"/>
	</g>
</g>
<g id="_x31_9" class="st1">
	<path class="st2" d="M720,1v480H0V1H720z"/>
	<g class="st3">
		<path class="st9" d="M58,113.3c-1,0.4-1.6,1.1-2.3,1.9c-0.2,0.2-0.3,0.4-0.5,0.4c-2.9,0.7-5.6,0.7-8.6,0.5c-0.2,0-0.4,0.3-0.4,0.5
			s0.1,0.2,0.2,0.4c0.3,0.4,0.9,1,1.1,1.4s0.6,0.7,0.3,1c-2.7,3-6.2-0.5-8.4-2.2c-4.7-3.5-8.9-5.4-14.5-6.6
			c-1.1-0.2-2.1-0.9-2.9-1.7c-0.2-0.2-0.2-0.8-0.2-1c-1.1-4.4,4.4-12.9,6.1-15.1c2.7-3.5,8-9.8,8.9-10.9
			c7.1-8.6,12.8-14.4,20.5-20.2c3.9-2.9,7.7-5,11.4-7.1c6.4-3.6,14-6.1,20.2-8.1c5.7-1.9,11-2.3,15.9-2.5c7.6-0.3,10.7,0,19.4,0.4
			c0.2,0,6.7,1.2,11.6,0.9c7.8-0.3,22-3.2,31.4-7.3c2.1-0.9,7.1-2.1,10.9-2.7c4.4-0.7,11.2-1.7,16.6-0.8c4.6,0.7,9.5,2.3,14.3,3.6
			c6.3,1.7,12.5,4.8,18.1,8.4c0.5,0.3,1,0.4,1.6,0.3c5.1-0.8,9.2-2.1,14.7-1.2c3.8,0.6,7.8,1.8,11.9,3.3c4,1.6,7.8,4.9,11,8.2
			c0.7,0.7,1.6,2.2,1.9,3.3c0.1,0.3,0.6,0.4,0.7,0.4c0.1,0,0.1-0.1,0.2-0.1c6.3-2.7,11.1-1.5,14.7,4.5c2.2,3.7,1.4,7.7,0.7,11.7
			c0,0.2,0.1,0.5,0.2,0.6s0.1,0,0.2,0c3.3,0.6,5.4,2,6.4,5.3c1,3.3,0.7,5.7-1.3,8.4c-0.1,0.2-0.5,0.1-0.6,0
			c-0.1-0.1-0.1-0.1-0.1-0.1c-1.2-2.5-2-4.8-4.8-5.9c-0.7-0.3-1.4,0.1-1.6,0.9c-0.8,2.5-0.8,4.7,0.7,7.1c0.5,0.8,1.6,0.8,2.4,0.3
			c0,0,0,0,0.1-0.1c0.1-0.1,0.8-0.6,1-0.3c1.6,1.8,1.3,1.7-0.7,3.3c-2.3,1.9-2,6.2-0.4,8.8c3.7,6.3,7.8,12.9,5,20
			c-1.2,3.1-5.3,4.1-7.2,4.1c-2.9,0-6.4-1.9-7.8-2.3c-2.5-0.8-3.3-0.8-5-0.8c-7.4-0.2-14.6-1.1-21.4-3.1c-7.6-2.2-13.4-4.9-20.2-9
			c-2.1-1.3-4.5-4.1-6.5-6.1c-0.4-0.4-1.1-0.7-1.8-0.4c-8.1,3.7-15.4,6.6-24.5,8.9c-1.8,0.5-5,0.8-8.1,1.2c-3,0.4-8.4,1.6-12.1,1
			c-2.4-0.4-5-0.6-7.5,0.4c-4.4,1.8-8.1,5.4-12.8,6.5c-1.1,0.3-1.7-0.1-2.6-0.9c-0.8-0.8-0.9-2.3-0.1-3.3c0.2-0.3,0.4-0.5,0.8-0.7
			c2.7-1.2,5.5-2.5,8.1-3.9c0.6-0.3,0.6-0.7,0.5-1.3c0-0.2-0.1-0.4-0.3-0.5c-4.2-1.7-8.3-1.3-12.9-1.2c-0.9,0-2.1-0.6-2.7-1.5
			c-0.1-0.1-0.2-0.3-0.3-0.4c-0.6-0.9-0.3-1.7,0.8-1.8c4-0.3,8.2,0.3,12,0.6c1.1,0.1,1.8,0,2.5-0.2c1.3-0.5,1.3-1,0.6-1.9
			c-1.6-2.1-3.7-3.7-5.7-5.3c-1.2-0.9-2-2-2.5-3.5c-0.1-0.4,0.2-0.9,0.4-1c0.2-0.1,0.2-0.1,0.3-0.1c1.4,0.3,2.5,0.3,3.8,1
			c3.3,1.9,6,4.7,10.1,4.5c0.5,0,0.5-0.3,0.1-0.6c-4.1-2.5-8.4-4.9-12.8-7.1c-1.8-0.9-4.6-1.3-6.5-1.5c-4.3-0.4-10.2-0.6-14-0.7
			c-6.8-0.2-13.3-4-18.6-5.7c-6.3-2-12.3-3.7-17.4-5.1c-5.2-1.4-8.2-2.5-12.5-1.2C81,84.7,78,88.2,74.5,93.4c-2,3-2.5,6.9-2.5,10.6
			s1.6,5.3,5.3,6.8c2.2,0.8,6,2.1,8.4,3c0.8,0.3,1.8,0.7,2.3,1.1c0.5,0.4,0.5,0.5,0.4,0.8c-0.2,1.8-1.7,2.4-3.3,2.3
			s-3.6-0.6-4.8-0.8c-1.7-0.3-2-0.2-3,0.8c-0.3,0.3-0.3,0.5-0.7,0.6c-1.1,0.3-2.1,0.2-3.3,0.1c-0.3,0-0.5,0.1-0.9,0.2
			c-2.2,0.7-2.9,1.2-5.4,0c-2-0.9-5.1-2.6-7.2-4c-0.3-0.2-1-0.9-1.1-1.3C58.5,113.3,58.2,113.2,58,113.3z"/>
		<path class="st0" d="M218,105.7c-4.8,0.9-8.9,1.2-14.2,1.5c-5.6,0.3-13.1,0.1-18.7-1.1c-6.2-1.3-11.5-1.4-17-4.1
			c-4.1-2-7.5-4.6-11.9-6.4c-1.6-0.7-3.5-1.1-5.5-1.2c-4.6-0.4-8.5-0.7-13.5-0.7c-4.1,0-8.4-1.2-12.6-3c-4.8-2-11.5-4.4-16.4-5.4
			c-6.5-1.3-9.7-3.4-16.5-4.1c-2.2-0.2-5.4-0.1-8.7,2.3c-1.9,1.4-7,4.3-8.7,8.4c-1.3,3.1-4.1,8.9-3.2,13.6c0.5,2.7,1.9,5,5.5,6.2
			c2.6,0.8,7.1,2.7,10.2,3.6c0.3,0.1,0.6,0.7,0.5,0.9s-0.2,0.2-0.2,0.3c-0.3,0.5-1.5,0.6-1.8,0.6c-1.4-0.3-4.4-0.8-5.3-0.9
			c-2.2-0.2-3.1-0.6-4.8-1.2c-2.1-0.9-4.1-1.4-6.3-1.8c-0.2,0-0.3,0.1-0.3,0.2c0,0.1,0,0.2,0.1,0.3c0.1,0.1,0.1,0.1,0.2,0.1
			c2.2,0.9,4.8,1.7,7,2.5c1,0.4,0.6,0.6,0.1,1.1c-0.1,0.1-0.2,0.2-0.3,0.2c-0.8,0.2-1.2,0.4-2.1,0.1c-2.9-1.2-5.8-2.5-8.6-4
			c-0.2-0.1-0.3,0-0.4,0.1c-0.1,0.1,0,0,0,0.1c0,0.1-0.1,0.2-0.1,0.4c0,0.1,0,0.3,0.2,0.4c2.1,1.2,4.5,2.3,6.7,3.2
			c0.5,0.2,0.2,0.4,0.1,0.5c-0.3,0.4-1.9,0.6-2.1,0.5c-3.6-1.2-7.3-3.4-10.1-5.1c-0.9-0.6-0.6-0.6-0.7-0.8c-0.6-1.2-0.8-2.4-1.5-3.3
			c-0.7-0.9-0.8-2.1-0.3-2.9c3.7-6,7.4-14.1,11-19.6c2.8-4.3,5.8-6.6,9.2-8.8c4.5-2.9,9.2-3.9,13.7-5.4s7.9,0.3,12,0.4
			c4.2,0.1,7.7-0.5,11.8-0.6c2.6-0.1,5.2,0.4,7.9,0.8c1,0.2,1.9,0.3,3.2,0.2c1.8,0,4.3,0.2,6.2,0.4c0.2,0,0.5,0,0.5-0.2
			c0-0.3-0.1-0.4-0.5-0.6c-5.9-2.7-14.2-5.7-19.7-8.3c-6-2.9-16.7-3.3-21.1-3.8s-10.3,1.3-10.7,1.4c-5.5,1-7.9,1.8-11.6,3.4
			c-5.5,2.3-10.8,5.3-14.6,9.3c-8.7,8.8-13.6,18.7-19.3,29.3c-0.2,0.3,0.2,0.8,0.3,1c0.2,0.2,0.2,0.1,0.3,0.2
			c6.3,2.4,12,4.6,18.8,4.1c1.4-0.1,2.1,0.2,3,1.2c0.5,0.6,0.4,1.1,0,1.6c-0.1,0.2-0.3,0.2-0.5,0.1c-1.2-0.1-2.1-0.6-3.4-0.6
			c-3.5-0.1-7.2-0.3-10.7-0.5c-0.2,0-0.3,0.2-0.2,0.4c0,0.1,0,0.2,0.1,0.3c0.1,0.1,0.1,0.3,0.3,0.3c4,0.2,8.1,0.5,12.1,0.7
			c0.3,0,0.4,0.3,0.5,0.4c0.1,0.2,0,0.2,0,0.3c0,0.1-0.1,0.3-0.2,0.4c-0.3,0.4-0.3,0.6-0.9,0.6c-3.5-0.1-7.2-0.4-10.7-0.4
			c-0.7,0-0.4,0.3,0,0.7c0.5,0.4,1.4,1.1,1.9,1.5c0.5,0.4,1,1.2,1.2,1.6c0.2,0.4,0.2,0.6,0.2,0.7c-0.3,0.8-0.9,1-1.6,0.7
			c-3.7-1.8-7.2-5-10.6-7c-3.4-2-6.5-2.4-10.1-3.3c-1.2-0.3-1.7-0.9-2-2.1c-0.1-0.3,0-0.7,0.1-1.1c1.4-6.2,4.8-11.8,8.8-16.4
			c2.4-2.7,5.1-5.9,6.8-8.2c5.3-7.2,13.3-14.8,19.5-19.2c5.2-3.7,9-5.7,13.1-7.9c6.3-3.4,11.6-5.1,17.6-7c6-1.9,11.4-2.5,17.3-2.6
			c11.2-0.2,21,1.1,32.5,1.7c1.6,0.1,5.1,0,7.6-0.6c1.6-0.3,4.6-1.2,6.6-1.8c11.1-3.6,21.8-7.8,33.7-8.6c9.4-0.7,17.7,2.3,26.9,4.9
			c4,1.1,9.3,4,12.7,6.7c0.8,0.7,2.6,0.9,3.1,0.7c2.4-0.7,8.6-1.8,10-1.6c7.8,0.9,13.3,2.2,19.6,5.6c4.6,2.5,6.8,6.5,9.8,10.6
			c0.2,0.2,0.3,0.2,0.5,0.1c5.3-2.9,8.9-3.2,13.2,1.7c1.8,2.1,2.4,5.3,2.5,8.3c0.1,1.6-1.1,3.9-2,5.5c-0.1,0.2,0,0.7,0.2,0.8
			c0.2,0.1,0.3,0.1,0.4,0.1c4-0.1,6,0.9,7.5,4.9c0.6,1.7,0.8,4.1-0.3,5.8c-0.2,0.2-0.5,0.2-0.7,0.1c-0.1-0.1-0.1-0.2-0.1-0.3
			c-0.6-2.2-1.5-4.1-3.6-5c-2.2-0.8-3.5,0.3-4,2.5c-0.8,3.8,0.1,6.4,3.3,8.6c0.4,0.3,0.4,0.4,0.2,0.8c-0.2,0.3-0.5,0.6-0.7,0.9
			c-0.2,0.2-0.3,0.6-0.3,0.8c-0.6,2.8,0.1,6.2,1.2,8.5c1.8,3.8,4.2,7.4,5.3,11c1.6,5.3-0.2,7.4-3.9,10.8c-0.7,0.6-2.5,0.4-3.2,0.1
			c-2.6-0.7-5.5-1.7-7.8-2.4c-1.1-0.3-0.3-0.4-0.5-0.7c-0.2-0.4,0.1-0.3,0.2-0.4c1.2-0.8,2-2.1,2.5-3.3c1.6-3.6,0-9.3-1.7-11.9
			c-4.2-6.3-10.2-13.8-13.5-19c-4.6-7.2-5.8-11.6-8.6-18.7c-1.2-3-1.2-5.7-1.5-8.8c0-0.2,0-0.2-0.2-0.1c-0.1,0.1-0.3,0.2-0.4,0.4
			c-0.1,0.2-0.2,0.2-0.2,0.4c0.3,3-0.1,3.8,1,7.2s2.8,7.7,4.4,12.1c1.1,2.8,5.3,9.3,7.1,11.9c3.3,4.8,8.1,10.3,10.4,14.4
			c4.3,8,4.4,11.9-4.1,15.9c-0.9,0.4-4.6,0-7.6-0.4c-3.4-0.5-9.4-1.6-14.2-3c-5.3-1.6-12.4-4.6-17.7-7.8c-2.8-1.7-5.6-4.7-7.8-7.2
			c-0.6-0.7-1.2-0.8-1.9-0.4c-10.4,4.7-20.2,8.2-31.6,10c-2.5,0.4-5.1,0.7-7.9,1.1c-3.3,0.5-6.1-0.1-10-0.2c-1.8,0-4.9,0.8-7,2.5
			c-2.6,2.1-6.9,6.1-10.8,4.1c-0.8-0.4-0.3-1.2,0-1.8c0.1-0.1,0.2-0.2,0.4-0.3c2.8-1.3,5.8-2.7,8.5-4.1c1.1-0.6,1.2-1.3,1-2.4
			c0-0.3-0.1-0.5-0.4-0.7c-4.4-2.4-9.1-1.8-14.1-1.7c-0.5,0-1.1-0.2-1.4-0.6c-0.1-0.1-0.4-0.3-0.5-0.5c-0.1-0.1-0.1-0.5,0-0.6
			c0.1-0.1,0.2-0.2,0.3-0.2c3.7-0.1,6.9,0.3,10.6,0.8c1.3,0.2,3.2,0.1,4.5-0.6c0.9-0.5,1.2-1.5,0.9-2.4c-0.1-0.2-0.1-0.4-0.3-0.5
			c-2.3-2.6-4.8-4.7-7.6-6.7c-0.1-0.1-0.4-0.7-0.3-0.9c0.1-0.3,0-0.6,0.4-0.4c2.4,0.7,3.7,1.7,5.8,3.4c1,0.8,2.8,1.8,4.6,2.1
			s4.1-0.6,6-0.4c4,0.5,7.6,0.9,11.6,1.6c9.9,1.7,19.6,1.5,29.8,0.5c0.9-0.1,2.6-0.5,3.6-0.8c0.2-0.1,0.8-0.2,0.8-0.5
			C218.3,105.7,218.9,105.5,218,105.7z"/>
		<path class="st9" d="M275.5,75.9c0.3-0.2,1-0.8,1.4-1.1c0.4-0.2,0.6-0.4,1-0.2c1.2,0.6,1.1,1.6,0.6,2.7c-0.3,0.6-1.2,1.3-1.9,1
			c-3.7-1.3-5.7-3.8-5.5-7.7c0.2-3.4,1-5.7,4.7-6.1c2.8-0.3,4.7,1.1,5.7,4.1c0.7,2.1,0.9,5.5-0.4,7.7c-0.1,0.2-0.3,0.3-0.5,0.4
			c-0.2,0-0.2,0-0.3,0c-0.2,0-0.2-0.3-0.2-0.4c0-0.1,0-0.1,0.1-0.1c0.6-1.8,1.2-3.5,0.7-5.4c-0.9-3.7-2.6-5.7-6.8-4.8
			c-0.8,0.2-1.6,1.5-1.8,3c-0.3,2.4-0.6,5.9,2.5,7.1C274.9,76.1,275.1,76.1,275.5,75.9z"/>
		<path class="st9" d="M150.3,70.6c0-0.2-0.1-0.3-0.3-0.4c-3.5-1.9-6.9-3.9-10.2-6.2c-0.8-0.5-1.3-1.1-1.2-2.1
			c0.1-1,0.9-1.6,1.9-1.6c0.1,0,0.3,0,0.4,0.1c5,1.9,10.6,2.3,15.6,2.2c1.7,0,3.5-0.8,4.2-1.3c3.3-2.3,7.1-6,9.8-7.7
			c14.9-9,27.7-10.5,44.4-8.2c1.9,0.3,2.9,1,4.6,1.6c0.2,0.1,0.1,0.2,0,0.2c-0.1,0.1-0.2,0.2-0.3,0.3c-0.1,0.1-0.2,0.1-0.4,0.1
			c-17-3.5-30.4-2.8-46.1,5.7c-2.6,1.4-5.7,4.5-8.4,6.5c-3.3,2.5-6.8,4-11.1,4c-4.3,0-8.3-0.9-12.3-2.3c-0.4-0.1-0.7,0-0.9,0.2
			c-0.2,0.2-0.2,0.1-0.3,0.3c-0.2,0.2-0.2,0.5,0.1,0.7c3.2,2,6.5,4,9.8,6c0.9,0.5,1.8,1.4,2.5,2.2c0.2,0.2,0.1,0.7,0,0.8
			c-0.1,0.2-0.2,0.2-0.3,0.2c-0.8,0.2-2.1,0.6-2.9,0.6c-3.6-0.1-7.1-0.3-10.6-0.1c-1.3,0.1-1.8,0.7-2.3,1.8c-0.1,0.1,0,0.2,0,0.3
			c0,0.1,0,0.1,0,0.1c0,1.1,0.3,1.7,1.5,1.7c2.6,0.1,5.1,0,7.7-0.2c2.1-0.1,4.1-0.9,6.2-1.2c0.7-0.1,1.3,0.4,1.3,1.2
			c0,0.4-0.1,0.8-0.4,1.1c-2,2.2-4.5,4.6-6.4,6.8c-0.9,1-0.6,1.2-0.2,2.3c0,0,0.1,0,0.1,0.1c0.8,0.7,1.7,0.7,2.5,0
			c9-7.7,17.9-15.5,28.1-21.6c3-1.8,6.9-2.2,10.1-2.4c5.5-0.3,10.3-0.1,15.6,0.3c2.8,0.2,5.1,1.2,7.7,2.1c0.1,0,0.2,0.2,0.2,0.3
			c0,0.1,0,0.2-0.1,0.3c-0.1,0.1-0.1,0.2-0.2,0.1c-8.8-2-15.5-2.6-25.2-1.9c-2.5,0.2-7,1.4-10.5,3.7c-3.6,2.3-9.9,6.6-13.7,10.1
			c-3.5,3.1-7.7,6.7-11.3,9.7c-1.7,1.4-2.2,0.8-3.7-0.2c0,0,0,0-0.1-0.1c-0.7-1.6-0.9-2.4,0.5-3.9s3.9-3.8,5.2-5.2s1.3-1.8-0.5-1.5
			c-4.1,0.7-8.5,1.4-12.8,1c-1.7-0.2-2.3-1.4-2-3c0-0.1,0-0.1,0-0.1c0.5-1.7,1.8-2.9,3.5-2.9c3.7-0.2,7.2,0.1,10.8,0.2
			C150.4,71.5,150.4,71.2,150.3,70.6z"/>
		<path class="st0" d="M36,104.8c1.4-3.3,1.8-5.2,3.8-8.6c4.5-7.8,9.7-15.5,16.7-22.1c1.2-1.2,3.5-2.8,5.6-3.9
			c5.1-2.4,10.2-5.4,16.2-6.4c6.8-1.1,12.2-1.9,19.8-1.6c3.6,0.2,9.2,1.7,13.8,3.5c3.5,1.4,9.7,4.2,13.6,5.8
			c0.7,0.3,1.3,0.7,0.3,1.2c-0.2,0.1-0.5,0-1.1-0.1c-6.1-0.8-11.2-1.4-17.9-0.4c-1.5,0.2-4.3-0.2-6.8-0.4c-3-0.1-6.7-1.3-10.3,0.2
			c-8.3,3.6-12.8,3.8-20.6,12.3c-1.9,2.1-11.3,16.2-12.7,21.5c-0.1,0.3-0.9,2.1-0.5,2.5c0.1,0.2-0.1,0.5-0.4,0.4
			c-1.8-0.3-3.5,0.5-5.3,0.3c-4.9-0.6-9.4-2.3-14-4.2C36,105,35.9,104.9,36,104.8z"/>
	</g>
</g>
<g id="_x31_8" class="st1">
	<path class="st2" d="M720,1v480H0V1H720z"/>
	<g id="Frog_2_" class="st3">
		<path class="st10" d="M157.3,111c0.1,1.8-1.9,3-3.1,3.1c-2.9,0.2-7.5,0.9-9.5,1.2c-3.9,0.6-5.5,1.2-8.9,1
			c-3.5-0.2-4.3-0.6-8.5-1.9c-2.7-0.9-9.8-3.4-13.4-4.7c-0.2-0.1-0.7-0.1-1,0.1c-0.8,0.6-1.8,1.4-2.8,1.6c-2.9,0.6-3.8,1.1-7.2,1
			c-7-0.1-14.4-0.9-22.5-1.3c-0.3,0-4.6,1-6.9,1.8c-2.3,0.8-8.9,2.1-12.1,2.5c-0.2,0-0.6,0.3-0.7,0.5c-0.1,0.3-0.3,0.9-0.3,1.1
			c0,1-0.6,1.4-1.5,1.5c-0.3,0-0.6,0-0.9-0.2c-4.8-1.9-7.3-4.2-13.1-5.1c-3.5-0.5-9.9-1-14.2-1.5c-1.2-0.1-2.9-0.8-3.2-2.3
			c-0.5-2.6,2.5-4.7,4.4-5.7c4.2-2.1,7.7-3.9,11.6-6.3c0.4-0.2,0.4-0.6,0.2-0.9c0,0-0.1,0-0.1-0.1c-3.1-5-6.4-9.4-5.2-15.8
			C40.4,70.2,48.8,63,58.3,57c1.8-1.2,6.1-3.1,9-4.5c1.5-0.7,5.4-2.1,7.6-2.5c9.6-1.8,17.2-3,27.4-4.5c6.4-1,14.2-3.1,21.9-5.8
			c0.7-0.2,6.1-2.9,9.2-4.4c2.2-1.1,8.7-3.6,13-3.9c2-0.2,8.2,0.1,10.9,0.7c0.2,0,0.7-0.1,0.9-0.3c2.7-3.1,5-5.3,9.4-4.7
			c4.9,0.7,8.2,3.1,10.7,7.4c0.3,0.5,0.6,0.6,1.2,0.4c4.5-1.9,7.2-3.1,12.2-1.3c2.1,0.7,3.9,3.2,5.3,5.1c1.8,2.4,2.3,5.3-0.3,7.3
			c-0.2,0.2-0.2,0.5-0.1,0.7s0.1,0.1,0.2,0.2c6.8,4.6,12.9,8.5,19.9,13.3c2.1,1.4,4.3,4.3,5.4,7.4c1.1,3,0.9,6.6-1.5,9.4
			c-3.1,3.6-6.2,5.4-11.2,4.6c-1.4-0.2-3.4-0.2-4.7,1c-4.5,3.9-6.9,6.3-13.5,8.1c-5.4,1.4-13.6,3.7-20,6c-0.6,0.2-4.8,0.8-6,0.9
			c-0.1,0-0.4,0.1-0.2,0.5c1.3,2.2,3,3.6,4.2,6.2c0.7,1.4,2.5,3,4.3,3.2c3.9,0.5,8.3,1,11.9,1.6c1.7,0.3,1.4,0.9,1.7,2
			c0,0.1,0,0.2-0.1,0.3c-0.9,1.7-2.1,2.3-3.6,3.6c-2.2,1.8-4.6,1.3-7.1,0.2c-0.4-0.2-0.6-0.1-1,0c-2.2,0.8-4.2,0.7-6.4-0.2
			c-0.3-0.1-0.5-0.2-0.9-0.1c-4.1,0.8-8.6,1.5-9.7-3.5c0-0.1-0.1-0.2-0.2-0.2s-0.2-0.1-0.3-0.2C157.6,110.7,157.3,110.7,157.3,111z"
			/>
		<path class="st0" d="M55.2,113.1c0.1,0.4,0.3,0.7,0.7,0.9c0.9,0.6,1.9,1.1,2.8,1.6c0.4,0.2,0.6,0.7,0.4,1.2c0,0,0,0,0,0.1
			c0,0.1-0.1,0.2-0.2,0.3s-0.4,0.3-0.6,0.2c-1.9-0.8-4.1-1.9-5.7-2.9c-1.1-0.7-2-1.1-3-1.3c-1.6-0.3-3-0.8-4.4-1
			c-4.1-0.4-8.4-0.7-12.3-1.1c-1.5-0.2-2.4-0.3-3.5-0.9c-1.1-0.5-1-1.4-0.8-2.3c0-0.1,0.1-0.2,0.2-0.3c0.9-1.2,3.1-2.7,4.3-3.3
			c3.1-1.4,8.2-4.1,10.3-5.5c3.9-2.6,5.9-4.2,9.3-6.1c3.9-2.1,6.5-3.1,10.7-4.8s9.4-2.8,14.2-3c0.2,0,0.3-0.1,0.4-0.3
			c0-0.2,0-0.2,0-0.4c0-0.2-0.2-0.4-0.4-0.4c-3.2,0.3-7.6,0.8-10.5,1.7c-8.2,2.7-15,6.2-22.1,10.7c-0.3,0.2-0.5,0.1-0.6-0.1
			C39.8,88.6,37.1,82,42,73.9c3.1-5.3,6.9-9.2,12.4-13C63.2,55,70,51.9,82.3,49.6c4.3-0.8,14.4-2.1,22.2-3.3
			c2.7-0.4,15.9-3.7,21.1-6.1c0,0,6.1-2.9,8.7-4.2c1.7-0.8,8.1-3.4,12-3.6c2.5-0.1,8.6,0,11.7,0.9c0.2,0.1,0.7-0.2,0.8-0.3
			c0.6-0.9,2.1-3.1,2.6-3.5c4.5-3.1,9.6-1.3,13.1,1.7c0.9,0.8,0.5,0.9-0.5,0.8c-3.2-0.6-6.6-0.3-9.5,1.5c-1,0.6-1.2,1.4-0.8,2.4
			c0.2,0.6,0.8,1.1,1.4,1.3c4.2,1.2,8.3,1.7,12.6,1.3c0.4,0,0.6-0.3,0.7-0.6c0.1-0.3,0.1-0.6,0.2-0.9c0.1-0.3,0.2-0.6,0.5-0.9
			c0.8-0.7,2-1.1,2.9-1.5c4-1.7,8.7-1.8,11.6,1.8c0.1,0.2,0,0.4-0.1,0.5s-0.1,0-0.1,0c-2.3,0.2-4.3,0.5-6.6,1.3
			c-1.4,0.5-2,1.7-2.3,3.1c-0.2,1.1,0.6,2.1,1.2,2.5c1.4,0.8,3.3,1.6,4.5,1.5c2.1-0.1,3-0.3,4.6,1c6.3,4.9,12.8,9.1,19.6,13.6
			c3.6,2.4,7.5,7,7,11.5c-0.6,5.4-4.9,8.7-9.8,9.2c-1.9,0.2-3-0.3-4.8-0.3c-0.4,0-0.3-0.2-0.3-0.5c0.7-4.7,3.2-7.4-2.9-10.4
			c-5.2-2.5-12.2-4.5-18.9-6.8c-6.6-2.3-14.8-4.4-22.5-5.9c-5.9-1.1-12.4-2.7-18-6c-2-1.1-3.9-3.9-5-6.1c0-0.1-0.2-0.2-0.3-0.1
			c-0.1,0.1,0,0-0.1,0.1c-0.1,0.1-0.3,0.4-0.4,0.5c-0.1,0.1-0.1,0.3,0,0.4c1.9,2.8,3.3,4.8,6.4,6.4c6.6,3.3,10.2,4.7,18.5,6.3
			c5.7,1,14.6,2.9,21.7,5.6c4,1.5,12.1,3.7,16.9,5.7c1.4,0.5,3.4,1.8,4.5,3.1c0.5,0.6,0.8,1.6,0.6,2.3c-0.5,1.9-1.2,3.9-2.4,5.3
			c-4.1,4.8-8.4,7.6-14.4,9.4c-3.7,1.1-6.5,1.5-10.4,2.7c-5.3,1.7-10.2,3.9-16.3,4.1c-2.2,0.1-4.3,0.5-7.2,1.5
			c-1.7,0.6-5.1,1.4-7.8,2c-6.3,1.3-13.8,3-20.4,3.9c-0.5,0.1-0.7-0.1-0.9-0.3c-1.5-2-2.9-3.9-4.9-5.4c-2-1.5-4.2-5.3-1.4-6.7
			c4.9-2.6,9.4-4.4,13.5-8c0.1-0.1,0.1-0.2,0-0.3c-0.1-0.1-0.1-0.1-0.1-0.2s-0.4-0.2-0.5-0.2c-0.1,0.1-0.1,0-0.1,0.1
			c-4.3,3.8-8.8,5.3-13.9,7.9c-3,1.5-0.4,6.2,1.9,8s3.3,3.6,5.6,6.1c5,5.5,12.6,6,19.9,5.9c1,0,1.9,0.5,1.9,1.6c0,0.5-0.8,0.8-1.6,1
			c-1.3,0.3-3.4,0.7-5,0.5c-0.4,0-0.6-0.2-0.7-0.5c-0.7-1.4-1.9-1.8-3.4-1.7c-0.5,0-0.6,0.2-0.2,0.5s0.9,0.3,1.3,0.7
			c0.4,0.4,0.3,0.9,0.2,1.3s-0.7,0.5-0.9,0.5c-1.7,0.6-7.5-0.1-8.4-0.4c-5-1.5-16.3-5.3-18.8-6.7c-7.7-4.4-9.9-7.2-13.9-13.1
			c-2-3,0.4-4.6,1.1-7.6c0.3-1.3,1.2-2.3,2.5-3.6c4.6-4.6,9.2-10.1,13-15.6c0.1-0.1,0-0.3-0.1-0.3c-0.1,0-0.1,0-0.2-0.1
			s-0.2,0-0.4,0s-0.3,0.1-0.3,0.2c-3.1,3.9-6.7,8.4-9.7,11.9c-1.5,1.7-2.1,2.2-3.6,3.4c-0.4,0.3-0.5,0.1-0.6-0.2
			c-1.5-2.6-1.9-5.3-5-6.6C87.1,73,79.2,72.2,71,71.2c-0.1,0-0.2,0-0.2,0.2c0,0.1,0,0.2,0,0.4c0,0.1,0.1,0.3,0.3,0.3
			c3,0.5,6.6,0.9,9.6,1.3C85,74,89.1,75,93,76.5c3,1.1,3.8,2.8,5.1,5.5c0.5,1,0.7,1.9,0.3,3c-1.9,5.4-3.6,9.2-9.1,12.5
			c-1.5,0.9-5.4,1.8-7.8,2.3c-4.1,0.9-10,2.2-13.7,3.7c-1.5,0.6-1.5,0.6-2.2,1c-0.7,0.4-0.7,0.7-0.1,1c4.1,2.3,10,1.2,13.6,4.3
			c0.4,0.3,0.1,0.5-0.2,0.6c-2.3,0.8-5.1,0-7.3-0.1c-3.1-0.1-5.4-0.1-8.3-0.2c-0.4,0-0.4,0.2-0.3,0.4s0.1,0.2,0.2,0.4
			c0,0.2,0.2,0.2,0.4,0.2c2.2,0,5.8,0.1,7.7,0.3c2.6,0.2,2.5,0.6,0,1.2c-3.1,0.8-6.9,1.4-10.6,1.7c-1,0.1-3.8-0.9-5-1.6
			C55.4,112.7,55,112.7,55.2,113.1z"/>
		<path class="st0" d="M195.2,42.4c-0.4,0-0.6,0.1-1,0.3c-2.2,2-4.4,1.9-7.2,0.7c-0.9-0.4-1.5-1.4-1.3-2.5c0-0.1,0-0.2,0.1-0.3
			c2-2.4,5.5-2.4,8.3-2.8c0.5-0.1,0.7,0,0.9,0.2c1.5,1,2.5,2.1,2.3,3.9c0,0.4-0.2,0.5-0.6,0.5C196.4,42.6,195.6,42.4,195.2,42.4z"/>
		<path class="st0" d="M176.2,36.6c0,0.7-0.7,1-1.1,1c-0.2,0-0.1,0-0.1,0c-0.7,0-2.5-0.1-3-0.1c-2.2-0.1-6.1-0.1-7-2.3
			c-0.1-0.2-0.1-0.2,0-0.4c0.8-2.2,4.9-1.9,7-1.9c0.4,0,2.3,0,3,0.1c0.7,0,1.1,0.5,1.2,1.1c0,0.4,0-0.3,0,0.1
			C176.2,34.7,176.1,36,176.2,36.6z"/>
		<path class="st0" d="M80.2,109.6c-2.9-3.2-7.9-3.1-12-3.9c-1.3-0.3-1.7-0.8,0.1-1.4c5.7-1.8,11.1-3,17.1-4.3
			c3.9-0.8,7.5-3.3,10.3-6.3c0.2-0.2,0.4-0.3,0.6,0.1c4,6.6,8.8,11.2,15.5,15c0.2,0.1,0.3,0.4,0.1,0.6c-0.1,0.1-0.1,0.2-0.2,0.2
			c-3.9,1.3-4.3,2.1-9.3,1.9c-5.7-0.2-15.2-1-21.8-1.6C80.5,109.9,80.3,109.8,80.2,109.6z"/>
		<path class="st0" d="M166.1,111c0.4,0.6,1,1.6,1.5,2.2c0.2,0.2,0,0.5-0.1,0.5c-0.1,0.1-0.1,0-0.1,0.1c-2,0.5-4,0.6-6,0.2
			c-0.6-0.1-1-0.4-1.2-0.8c-1.8-4.5-4.6-8.4-7.3-12.2c-0.3-0.5-0.2-0.6,0.3-0.8c3-1,6.5-2.2,9.5-2.9c1.2-0.3,1.1,0.2,1.8,1
			c1.6,2,3,4.7,4.2,7c0.8,1.5,1.4,2.5,3.4,2.9c3.8,0.8,8.7,1.2,12.7,1.8c0.7,0.1,0.9,0.5,1,1.1c0,0.1,0,0.1,0,0.2
			c-0.5,0.9-1.2,1.4-2.2,1.8c-0.3,0.1-0.6,0.1-0.9-0.1s-1.1-0.7-1.4-0.9s-0.3-0.1-0.4,0s-0.3,0.2-0.5,0.4c-0.1,0.1-0.2,0.2,0,0.4
			s1.1,0.7,1.4,0.9c0.3,0.2,0.4,0.4,0.1,0.6c-1.6,1.3-3.9,0.3-5.4-0.5c-0.4-0.2-0.6-0.5-0.7-0.7c-0.5-1-1.5-2.1-2.6-2
			c-1.8,0.1-1.3,0.5,0,1c0.3,0.1,0.8,0.5,1.1,0.9c0.3,0.4,0.2,1-0.3,1.4c-0.2,0.1-0.4,0.2-0.6,0.2c-1.4,0-2.8-0.1-4.1-0.6
			c-0.4-0.1-0.5-0.3-0.6-0.7c-0.4-1.3-1.2-2.2-2.4-2.8C165.9,110.3,165.7,110.4,166.1,111z"/>
		<path class="st0" d="M156.7,109.8c-1.4-0.2-2.9-0.4-4.3-0.3c-3.9,0.3-7.6,0.5-11.6,0.3c-4-0.3-8.6-1.6-11.4-4.7
			c-0.3-0.4,0.3-0.6,0.4-0.6c1.5-0.2,7.7-1.1,8.2-1.3c5.1-1.2,8.9-2.2,13.3-2.6c0.8-0.1,0.7,0.1,0.8,0.4c1.6,2.9,3,5.8,4.9,8.5
			c0.1,0.1,0,0.2-0.1,0.3C156.8,109.8,156.8,109.8,156.7,109.8z"/>
		<path class="st0" d="M155.8,110.5c0.3,0,0.4,0.2,0.4,0.3c0.1,0.1,0,0.1,0,0.1c0.1,1.5-1.8,2.2-2.6,2.3c-0.5,0.1-0.1,0-0.1,0
			c-0.2,0-0.3,0-0.4,0c-1.4-0.1-2.4-0.6-2.6-2.1c0,0,0,0,0-0.1c0-0.1,0.3-0.4,0.4-0.3c0.1,0,0,0,0,0
			C152.6,110.7,154.3,110.6,155.8,110.5z"/>
	</g>
</g>
<g id="_x31_7" class="st1">
	<path class="st2" d="M720,1v480H0V1H720z"/>
	<g id="Frog_1_" class="st3">
		<path class="st11" d="M148.5,47.5c0.1,0.2,0.3,0.3,0.5,0.2c0.1,0,0.1-0.1,0.2-0.2c1-2.2,1.8-3.8,2.3-4.7c1.4-2.5,6.3-5.2,8.4-2.2
			c0.4,0.5,0.9,1.6,1.5,3.3c0.5,1.4,0.6,2.7,0.3,3.7c-0.4,1.1-0.6,2.4-0.6,3.8c0,5,0,7.8-3,10.9c-2.5,2.6-6.3,0.9-6.7-2.3
			c-0.6-3.8-1.6-7.4,0.1-10.5c0.9-1.6,2.1-3,3.6-4.1c0.9-0.7,2.3-0.6,3.1,0.2l2.1,2.1c0.4,0.4,0.6,0.3,0.6-0.3
			c-0.1-2.4-0.7-4.4-1.9-6.1c-0.7-1-1.9-1.3-3-0.8c-3.6,1.7-5.3,5.6-6.4,9.4c-0.4,1.2-0.7,1.2-1.1,0c-0.7-2.2-3.8-6.2-6.5-5.9
			c-2.4,0.3-9.6,2.2-10.6,5.1c-1.2,3.4,0.4,7.7,1.5,12c0,0.2,0,0.3-0.2,0.4l-0.3,0.1c-0.2,0.1-0.3,0-0.4-0.2
			c-1.4-3.8-3.1-9.1-1.5-12.9c0.5-1.3,2-2.4,4.3-3.4C140.4,42.6,145.4,41.4,148.5,47.5z"/>
		<path class="st0" d="M158.9,53.9c-0.2,0.4-0.1,0.8,0.1,1.2c1.1,2.2,0.6,4.3-1.5,6.3c-2.4,2.3-4.3,0.6-4.9-2.1
			c-1.3-5.8-1.6-9.9,3-13.1c0.8-0.6,1.9-0.4,2.5,0.4C159.6,48.9,159.9,51.3,158.9,53.9z"/>
		<path class="st11" d="M87,96c0-0.3-0.1-0.4-0.4-0.2l-12.8,6.2c-0.7,0.3-0.6,0.6,0.1,0.7c2.4,0.4,6-0.2,7.6,2.9
			c0.2,0.3,0.1,0.6,0,0.9c-1.3,2.1-2.4,1.8-4.4,2.1c-0.3,0-0.6,0.2-0.7,0.5c-1,1.8-2.6,2.6-4.9,2.3c-3-0.4-5.2-0.6-6.6-0.8
			c-1.5-0.1-1.7,0.4-0.8,1.5c1,1.2,0.5,2.6-0.8,3.4c-4,2.6-7.4-0.8-11-3.3c-1.9-1.3-4.3-2.5-7.1-2.1c-3.5,0.5-7.4,0.6-11.6,0.5
			c-4-0.1-7.9-3.2-4.3-7.3c0.4-0.4,0.4-1.1,0-1.5c-3.8-4.4-4.9-9.4-3.5-15.1c1.9-7.6,4.9-13.7,9.2-18.2c8.2-8.7,18.2-14.9,29.8-18.4
			c3.4-1,6.7-1.5,9.7-1.5c5.3,0.1,14.9,0.4,28.8,1c5.9,0.2,12.3,1.1,19.1,2.6c2.4,0.5,4.5,1.3,6.3,2.3c0.1,0.1,0.2,0.2,0.1,0.3
			l-0.2,0.3c-0.1,0.2-0.3,0.3-0.5,0.2c-2.4-1.1-5-1.9-7.6-2.4c-7.3-1.2-12.7-2-19.5-2.3c-16.7-0.7-25.6-1-26.5-1
			c-1.6,0-2.8-0.1-4.4,0.2c-11.5,2.4-21.8,7.8-31,16c-4.8,4.3-8.2,9-10.1,14c-1.8,4.8-3.3,9.7-2.4,14.3c0.4,2.3,1.7,4.8,3.8,7.5
			c0.2,0.3,0.5,0.3,0.8,0.1c0.6-0.4,1.8-1.3,3.6-2.8c3.5-2.8,7.3-4.8,10.8-7.5c1.6-1.2,3.6-2.4,6.1-3.6c7-3.5,12.5-5.4,21-5.6
			c1.5-0.1,3.1,0.5,4,1.4c1,1.1,0.9,1.3-0.5,0.8c-1-0.4-2-0.9-3.1-0.9c-8.7,0-15.3,2.3-23.2,6.8c-6.9,4-13.6,8.7-20,14.3
			c-0.8,0.7-0.9,1.9-0.3,2.7c0.9,1.2,2.3,1.8,4.2,1.8c3.7,0,7.2-0.1,10.5-0.5c1.7-0.2,3.3,0,4.6,0.4c4,1.2,6.5,4.1,9.5,5.5
			c1.2,0.6,2.3,0.6,3.5,0l0.6-0.3c1.1-0.5,1.2-1.2,0.2-1.9c-1.7-1.3-3.8-2.2-6.3-2.8c-0.2-0.1-0.4-0.2-0.5-0.4l-0.2-0.4
			c-0.3-0.5-0.1-0.7,0.5-0.6c2.2,0.6,4.4,0.9,6.4,0.8c3.5-0.1,7,1.2,10.4,0.8c2.3-0.3,2.5-1.1,0.5-2.4c-3.8-2.4-8-3.3-12.7-2.9
			c-1.5,0.2-2.5,0.2-2.9,0.2c-0.1,0-0.2-0.1-0.2-0.2l0-0.4c0-0.2,0.1-0.4,0.4-0.4c0,0,0,0,0,0c8.8-0.8,17.1-3.3,24.8-7.4
			c0.7-0.4,2-0.9,3.6-1.6c1.6-0.6,2.8-1.4,4.6-2.4c2.5-1.3,3.7-3.6,3.7-6.7c0-3.9-3-5.8-6.5-7.1c-6-2.2-13.4-2.9-22.2-2.1
			C57.5,77.4,50,79.5,43.5,83c-0.1,0.1-0.3,0-0.4-0.1c0-0.1,0-0.2,0-0.3l0.6-1.2c0-0.1,0.1-0.2,0.2-0.2C55.2,76,67,74.1,79.5,75.3
			c3.4,0.3,11.3,2.2,13.8,4.8c2.2,2.2,3,5.2,2.3,9c-0.1,0.3,0.1,0.6,0.5,0.7c0.1,0,0.3,0,0.4-0.1l10.3-5.4c1.4-0.8,1.7-0.5,0.7,0.7
			c-0.3,0.4-0.9,0.8-1.9,1.3c-10,5.1-15,7.3-20.2,14.6c-3.3,4.6,0.8,9.7,5.8,9.6c4.8-0.1,8.6,0,11.4,0.3c2.4,0.3,8.7,1.2,18.8,2.9
			c1.3,0.2,4.3,0.3,9.1,0.4c0.4,0,0.7,0.1,1,0.3c2,1.1,6.5,3,8.1,1c0.2-0.2,0.1-0.5-0.1-0.6c0,0-0.1,0-0.1-0.1l-1.3-0.6
			c-0.3-0.1-0.4-0.4-0.4-0.7v-0.6c0-0.5,0.2-0.6,0.6-0.3c1.4,1,4,1.2,8,0.6c0.6-0.1,1-0.6,1.4-1.4c0-0.1,0.1-0.2,0-0.3
			c-0.2-0.7-0.6-1.2-1-1.2l-10.1,0.9c-0.2,0-0.4,0.2-0.7,0.4l-0.5,0.4c-0.4,0.3-0.6,0.2-0.6-0.3v-1.7c0-0.3-0.2-0.5-0.4-0.6
			l-11.9-5.8c-0.8-0.4-1.6-0.5-2.5-0.3c-5.9,1.1-9.7,0.4-17.5-0.3c-0.5,0-0.8-0.3-0.8-0.9l0-0.3c0-0.3,0.2-0.5,0.4-0.5
			c0,0,0.1,0,0.1,0c5.3,1,10.3,1.4,15.1,1.1c2.3-0.1,6.5-1.2,12.7-3.2c1.3-0.4,2.1-1.3,2.9-2c0.3-0.3,0.5-0.2,0.6,0.1l0.1,0.3
			c0.1,0.2,0.1,0.4-0.1,0.6c-2,2-6.1,3.3-8.7,4c-0.9,0.3-1,0.6-0.1,1c2.7,1.4,6.2,3.2,10.4,5.4c1.1,0.6,2.4,0.8,3.8,0.8
			c5-0.2,7.6-0.2,7.8-0.2c1,0.1,2.5-0.1,4.4-0.5c1.4-0.3,2.9-0.4,4.4-0.4c0.3,0,0.6,0.1,0.8,0.4c1,1.1,1.8,1.6,2.3,1.6
			c6.8-0.1,14.6-1.3,19.7-5.7c3.3-2.8,6.8-5.5,8.5-8.9c1.4-2.8,5.6-12.9,3.5-16.4c-0.4-0.6-0.9-0.8-1.5-0.6
			c-5.5,1.4-14,3.6-25.4,6.6c-5.2,1.4-10.1,1.7-14.6,1.1c-6.9-1-13.6-1.1-19-4.3c-2-1.2-5-2.8-9.2-5c-0.8-0.4-1.9-1.4-2.4-2
			c-1-1.2-0.8-1.4,0.5-0.6c3.6,2.1,7.5,4.3,11.8,6.6c3.5,1.9,7.1,3,10.7,3.3c6.8,0.5,12.9,1.5,19.5,0.4c0.8-0.1,4.9-1.1,12.4-3.1
			c4.7-1.2,10.2-2.6,16.5-4.2c0.6-0.2,1.1,0.1,1.4,0.6l0.8,1.7c0.2,0.4,0.6,0.5,1,0.4c0,0,0.1,0,0.1-0.1c2.3-1.7,5.6-4.3,5.6-7.4
			c-0.1-8.5-10.3-9.7-17.2-11.3c-3.2-0.8-9.3-1.2-18.4-1.2c-0.2,0-0.4-0.1-0.5-0.3l-0.2-0.4c-0.1-0.3,0-0.4,0.3-0.4
			c6.6,0.1,15.5-0.2,22.6,2c4.9,1.4,8.2,2.6,10,3.5c1.6,0.8,2.9,2.4,4,4.9c2.4,5.4-2,8.9-6.1,12c-0.3,0.2-0.4,0.5-0.5,0.8
			c-1.2,4.2-2.3,9.9-4.9,15c-1.2,2.4-3.3,3.9-5.7,6.1c-0.3,0.3-0.3,0.7-0.1,1c0.1,0.1,0.1,0.1,0.2,0.2c1.6,0.7,2.4,1.7,2.5,3
			c0.1,1.2-0.9,2.3-2.1,2.4c-0.1,0-0.1,0-0.2,0l-6.3-0.2c-0.3,0-0.6,0.2-0.8,0.4l-0.9,1.8c-0.4,0.8-1.2,1.3-2,1.4
			c-2.4,0.2-4.4,0.1-6.2-0.3c-0.3-0.1-0.6,0-0.8,0.3c-2.3,2.9-8.3,2.1-9.7-1.1c-0.2-0.4-0.4-0.5-0.8-0.3c-1.8,0.8-3.5,1.1-5,1
			c-0.4,0-0.7,0.1-1,0.3c-1.5,1.1-3.6,1.7-6.3,1.8c-0.3,0-0.6,0.2-0.8,0.4c-1.4,2-3.7,2.6-6.6,1.7c-2-0.6-4-1.8-6.5-1.8
			c-8.5-0.1-16.9-1.8-25.2-3c-2.1-0.3-4.1-0.4-5.8-0.5c-4.4,0-9.1,0.7-12.1-2.1c-4.9-4.6-1.5-8.5,1.5-13C86.9,96.3,87,96.1,87,96z"
			/>
		<path class="st11" d="M143.3,48.7c1.4-0.2,2.6,0.8,2.8,2.1l0.8,6c0.5,3.6-1.5,6.9-4.4,7.3l0,0c-2.9,0.4-5.7-2.2-6.2-5.8
			c0,0,0,0,0,0l-0.8-6c-0.2-1.4,0.8-2.6,2.1-2.8c0,0,0,0,0,0L143.3,48.7z"/>
		<path class="st0" d="M143.3,58c-0.3,1.1-0.2,2.3,0.4,3.5c0.3,0.6,0.1,1.3-0.5,1.6c-0.2,0.1-0.4,0.1-0.7,0.1
			c-4.5-0.5-5.4-4.2-5.6-8.1c-0.2-3.9,1.8-5.8,5.8-5.3c2.9,0.4,2.9,4.9,2.9,6.8c0,0.4-0.2,0.6-0.6,0.7l-1,0.1
			C143.7,57.3,143.4,57.6,143.3,58z"/>
		<path class="st0" d="M79.6,106.5c-4.4,1.6-5.9-1.1-9.9-2.1c-0.5-0.1-0.5-0.3,0-0.4c1-0.2,1.9-0.5,2.7-0.4c1.7,0.4,3.9,0.6,6.4,0.9
			c0.7,0.1,1.1,0.5,1.2,1.2C80.1,106.1,79.9,106.4,79.6,106.5z"/>
		<path class="st0" d="M176.1,107.9l2.5-2.5c0.4-0.4,0.9-0.6,1.5-0.7c0.9,0,1.8,0.6,2.6,1.8c0.4,0.6,0.2,1.3-0.4,1.7
			c-0.2,0.1-0.4,0.2-0.7,0.2h-5.4c-0.2,0-0.3-0.2-0.3-0.3C176,108,176,107.9,176.1,107.9z"/>
		<path class="st0" d="M149.5,109.9l4.8-1c0.3-0.1,0.7,0.1,0.7,0.5l0.1,0.4c0.1,0.3-0.1,0.7-0.5,0.7l-4.8,1
			c-0.3,0.1-0.7-0.1-0.7-0.5l-0.1-0.4C148.9,110.4,149.2,110,149.5,109.9z"/>
		<path class="st0" d="M173.5,109.3c0.1,0,0.1,0,0.1,0.1l0,0c0.2,1.1-1.3,2.3-3.4,2.6c0,0,0,0,0,0l-0.4,0.1
			c-2.1,0.3-3.9-0.3-4.1-1.4c0,0,0,0,0,0l0,0c0-0.1,0-0.1,0.1-0.1c0,0,0,0,0,0L173.5,109.3z"/>
		<path class="st0" d="M163.5,111.3c0.1,0,0.1,0.1,0.1,0.2c0,0,0,0,0,0l0,0.1c-0.1,1.1-1.3,1.9-2.7,1.8l-2.2-0.2
			c-1.4-0.1-2.4-1.1-2.3-2.2c0,0,0,0,0,0l0-0.1c0-0.1,0.1-0.1,0.1-0.1L163.5,111.3z"/>
	</g>
</g>
<g id="_x36_" class="st1">
	<path class="st2" d="M720,1v480H0V1H720z"/>
	<g id="Frog_5_" class="st3">
		<path class="st12" d="M62.7,113c0.1,0.3,0.2,0.7,0.3,1.3c0.1,0.6,0.1,1.1-0.1,1.4c-0.3,0.5-0.8,0.7-1.5,0.7
			c-0.4,0-0.9-0.2-1.4-0.5c-4.2-2.8-6.6-5-11.6-4.8c-6.6,0.2-12.1,0.3-16.5,0.3c-0.9,0-1.8-0.4-2.6-1.2c-0.7-0.7-0.8-1.7-0.3-2.5
			l1.7-2.9c0.1-0.2,0.1-0.5,0-0.7c-3.3-4.9-2.8-8.3-1.2-13.8c1.7-6,7.6-12.7,12-16.2c0.8-0.7,3.3-2.4,7.4-5.3
			c8.7-6,18.8-10,28.7-12.6c7.5-2,14.4-3.1,20.6-3.3c3.9-0.1,7.2-0.2,9.8-0.2c7.2,0,14.1,1.8,20.7,4.1c1.9,0.7,2.8,0,3.5-1.8
			c1.5-3.6,6.7-5.5,10.2-5.8c2.8-0.3,5.4,0.6,7.6,2.6c1.5,1.3,1.3,3.3,2.6,4.9c0.4,0.5,1.2,0.6,1.7,0.2c0,0,0.1-0.1,0.1-0.1
			c3.3-3.6,5.8-6.4,10.5-6.2c4.4,0.1,8.3,3.8,8.7,8.4c0.1,0.8,0.7,1.4,1.4,1.5c5.1,0.5,8.7,0.7,13.2,3.4c1.1,0.6,2.4,1.7,4.1,3.3
			c4.1,3.9,14.1,11.9,10.8,18.3c-1.5,2.8-3.7,4.3-6.8,4.5c-0.4,0-0.6,0.2-0.9,0.5c-1.8,2.3-4.4,5.3-7.6,9c-2.1,2.4-4.8,4.3-6.6,6.4
			c-0.2,0.3-0.3,0.5-0.2,0.9c0.6,2.9-0.6,4.6-3.6,5.2c-2.7,0.5-4.5,1.3-5.4,2.3c-0.2,0.2-0.5,0.4-0.9,0.5c-1.8,0.3-3.6,0.1-5.4-0.5
			c-0.3-0.1-0.6-0.1-0.9,0c-2.8,1.1-7.7,2-8-2c0-0.2-0.2-0.3-0.3-0.3c0,0,0,0-0.1,0l-16.3,3.8c-0.3,0.1-0.5,0.2-0.7,0.5
			c-1.4,1.7-2.9,2.5-4.5,2.3c-4-0.5-7.4-2.9-11.5-3.8c-6.2-1.2-12.1-1.9-17.9-2.1c-5.2-0.1-9.6-0.8-15.4-1.1c-2.6-0.2-4.6-1.3-6-3.3
			c-0.2-0.3-0.6-0.4-1-0.2c-0.1,0.1-0.2,0.2-0.3,0.4c-0.3,0.9-0.8,1.6-1.4,2.3c-0.2,0.2-0.5,0.4-0.9,0.4c-3.7,0.3-5.6,1.9-9.8,1
			c-1.1-0.3-3.7-0.1-7.6,0.4C62.7,112.4,62.6,112.6,62.7,113z"/>
		<path class="st0" d="M71.6,108.9c1.3,0.1,2.5,0.3,3.4,0.8c0.3,0.2,0.5,0.4,0.3,0.8c-0.2,0.7-0.6,1-1.1,0.9
			c-3.6-0.6-7.5-0.6-11.6,0c-1.3,0.2-2.1-0.4-3.2-1c-0.1-0.1-0.3-0.1-0.4,0c0,0,0,0.1,0,0.1L59,111c0,0.1,0,0.2,0,0.2l2.3,2
			c0.5,0.4,0.7,0.9,0.6,1.4l-0.1,0.6c-0.1,0.5-0.3,0.6-0.7,0.4c-5.1-3.8-7.8-5.7-14.5-5.5c-6.7,0.2-11.5,0.3-14.4,0.3
			c-0.5,0-1-0.2-1.5-0.5c-1-0.8-1-1.6,0-2.6c3.4-3.3,5.8-5.8,7.2-7.4c5-6.1,8.7-10.4,11.7-13.5c3.8-4,8.6-6.2,14.3-6.9
			c0.4,0,0.6-0.3,0.5-0.6l-0.1-0.3c-0.1-0.3-0.2-0.4-0.5-0.3c-5.6,0.7-10.2,2.8-13.9,6.2c-3.6,3.4-8.2,8.6-13.6,15.6
			c-0.6,0.8-2,2-4.2,3.7c-0.3,0.2-0.5,0.2-0.6-0.2c-2-4.6-2.7-5.9-1.3-11.4c1.3-5.2,4.3-10,8.9-14.4c18.5-17.4,45.5-25.4,71.1-23.9
			c5.9,0.3,11.6,1.6,17.3,3.8c0.7,0.3,2.2,0.5,4.5,0.7c0.3,0,0.6-0.2,0.6-0.4c0.8-2.7,1.7-4.4,2.7-5c3-1.8,5.9-2.6,8.6-2.5
			c3.1,0.2,5.2,1.3,6.3,3.4c1.3,2.5,2.2,3.9,2.7,4.3c0.3,0.2,0.6,0.3,0.9,0.2c1.2-0.5,2.1-1.1,2.6-1.9c2.9-4.3,8.8-6.6,13.2-3.1
			c2.1,1.7,3.2,3.8,3.3,6.4c0,0.8,0.6,1.5,1.4,1.5c6.3,0.7,11.1,0.6,15.9,5c3.4,3.1,6.1,5.7,8,7.7c1.9,1.9,4.6,6,4.5,8.8
			c-0.1,2.6-3,5.9-6.2,5.5c-0.4,0-0.5-0.3-0.4-0.6c0.5-1.8-0.2-3.4-2-4.7c-3.6-2.6-6.9-2.8-12-3.3c-4.6-0.4-8.3-0.4-10.9,0.2
			C159,82.7,151.4,84.9,141,84c-5-0.4-10.1-1-15.2-1.7c-0.3,0-0.6,0.2-0.6,0.5c0,0.1,0,0.1,0,0.2l0.1,0.3c0,0.1,0.1,0.2,0.2,0.2
			c9.2,1.3,15.8,2,19.6,2.2c2.4,0.1,6-0.3,10.9-1.2c2.5-0.5,6.9-1.3,13.2-2.6c6.6-1.3,13.2-1.3,19.7,0.1c1.8,0.4,6.5,2.3,6.3,4.8
			c-0.2,2.3-1.1,4.3-2.7,6.1c-2.6,3-6,6.5-10.1,10.6c-1,1-2.2,1.7-3.6,2.2c-3.3,1.1-5.4,2.4-8.6,2.9c-1.1,0.2-2.6,0.6-4.6,1.4
			c-0.7,0.2-2.9,0.2-6.7-0.2c-0.3,0-0.6-0.2-0.8-0.4c-2.7-2.7-6.9-1.3-9.6,0.8c-0.3,0.2-0.6,0.3-0.9,0.2c-1.2-0.2-2.6-0.1-4.1,0.1
			c-1,0.1-2.3-0.1-4-0.8c-4.9-2-11.7-3.6-16.8-6.8c-0.2-0.1-0.3-0.4-0.2-0.6c0.1-0.1,0.1-0.2,0.3-0.2c3.2-1,6.2-2.8,9-5.3
			c0.1-0.1,0.1-0.2,0-0.3l-0.5-0.3c-0.1,0-0.2,0-0.3,0c-2.1,1.4-3.5,2.7-6,3.7c-3.2,1.3-5,2-5.4,2.2c-4.2,1.6-8.3,1-12.5,2.1
			c-0.1,0-0.2,0.2-0.2,0.3l0.1,0.3c0,0.2,0.2,0.3,0.4,0.3c2.5-0.5,4.9-0.8,7.4-0.8c2,0,3.2-0.4,4.9-0.9c0.3-0.1,0.7-0.1,1,0.1
			c4.8,2.4,10.4,4.5,16.7,6.4c0.9,0.3,1.5,1,1.8,2.3c0.1,0.3,0.2,0.4,0.5,0.3c2.4-0.5,4-0.8,5-0.9c3.6-0.5,3.9,0.2,0.7,2
			c0,0-0.8,0.2-2.2,0.5c-2.6,0.5-5.9-0.3-8.4-0.1c-1.5,0.1-1.5,0.4-0.1,1c0.5,0.2,1.4,0.3,2.6,0.4c0.3,0,0.6,0.3,0.5,0.6
			c0,0.1,0,0.2-0.1,0.2c-0.1,0.2-0.3,0.5-0.6,0.6c-0.6,0.4-1.2,0.5-1.8,0.4c-1.8-0.3-3.7-0.6-5.6-1.5c-5.3-2.6-11.9-3.4-17.7-3.8
			c-8.8-0.5-15.8-1-21-1.4c-1.5-0.1-2.9-0.6-4.1-1.4c-7.6-5.1,8.4-15.5,12.5-18.6c3.6-2.8,7.3-4.6,11.1-5.5c0.3-0.1,0.5-0.4,0.4-0.7
			c0,0,0-0.1,0-0.1l-0.1-0.2c-0.1-0.1-0.2-0.2-0.3-0.2c-3.8,0.8-7.3,2.4-10.4,4.8c-5.2,4-8.1,6.2-8.9,6.8c-3.2,2.4-7.2,6.4-7.5,10.6
			c0,0.5-0.2,0.9-0.3,1.1c-0.2,0.2-0.5,0.3-0.9,0.2c-0.3,0-0.6-0.2-0.8-0.5c-1.1-2-3.2-3-6.4-2.7c-2.8,0.2-5.2,0.5-7.3,1.1
			c-0.6,0.2-2.6,0-5.9-0.3c-0.3,0-0.4-0.2-0.1-0.4c2.4-1.9,6.9-5.1,10.1-8.3c2.7-2.7,9.3-7.5,10.7-13.5c0.8-3.3-2.1-7.3-4.3-9
			c-3-2.3-6.7-1.7-11.6-1.6c-2.1,0-4.2,0.5-6.2,1.3c-3.9,1.6-6.4,2.8-7.4,3.4c-6.2,3.9-10,5.6-12.8,9.2c-0.5,0.7-0.4,0.9,0.5,0.8
			c0.1,0,0.3-0.2,0.6-0.4c5.4-4.7,11.3-8.4,17.6-11.2c5.1-2.2,9.1-2.1,14.5-2c1.5,0,2.8,0.5,3.9,1.3c4.1,3.2,5.2,6.8,3.1,10.8
			c-1.9,3.6-8,8.7-10.6,11.3c-3.4,3.3-6.7,5.1-9.4,7.4c-0.3,0.2-0.6,0.3-0.9,0.3l-1.4-0.1c-0.3,0-0.5,0.1-0.6,0.5c0,0.1,0,0.2,0,0.3
			c0.1,0.2,0.2,0.3,0.5,0.4c3.1,0.6,5.9,0.9,8.4,0.9c4.3,0.1,11.3-3.1,14.2,1.5c0.5,0.7,0.2,1.7-0.5,2.1c0,0-0.1,0.1-0.1,0.1
			c-0.7,0.4-1.7,0.5-2.9,0.3c-0.3,0-0.6-0.2-0.8-0.4c-1.1-1.2-2.6-1.8-4.6-1.7c-0.1,0-0.1,0-0.1,0.1l-0.3,0.6
			C71.3,108.8,71.4,108.9,71.6,108.9z"/>
		<path class="st12" d="M149.2,59c-3-1.9-6.9-2.1-10.2-0.7c-0.4,0.2-0.6,0.1-0.4-0.4c1.5-3.4,9.4-2,11.1,0.4c0.1,0.2,0.1,0.4,0,0.6
			c-0.1,0.1-0.1,0.1-0.3,0.2S149.3,59,149.2,59z"/>
		<path class="st12" d="M168.3,58.7c-2.6-1.7-4.7-1-7.5-0.3c-2.7,0.8-2.9,0.4-0.6-1.2c2.6-1.8,8.9-1.7,9.8,2.9c0,0.2,0,0.4-0.2,0.5
			c-0.1,0.1-0.2,0.1-0.3,0.1c-0.1,0-0.1-0.1-0.2-0.1C169,59.8,168.8,59,168.3,58.7z"/>
		<ellipse transform="matrix(0.9085 -0.4179 0.4179 0.9085 -29.3424 83.9458)" class="st0" cx="177" cy="109" rx="3.7" ry="1.7"/>
		
			<ellipse transform="matrix(0.9608 -0.2773 0.2773 0.9608 -24.6388 46.6692)" class="st0" cx="152.7" cy="110.4" rx="3.8" ry="1.1"/>
		<path class="st0" d="M165.5,111.1l5.9-1.4c0.8-0.2,1.2,0.1,1.1,1l-0.1,0.8c-0.1,1.1-0.7,1.7-1.9,1.9c-2.5,0.4-4.3,0-5.4-1.1
			c-0.3-0.3-0.3-0.7,0-1C165.2,111.2,165.4,111.1,165.5,111.1z"/>
		<path class="st0" d="M163.8,111c0.2,0,0.3,0.1,0.3,0.3c0,0,0,0,0,0v0.2c0,1.4-1.1,2.5-2.6,2.6l-0.5,0c-1.5,0-2.7-1-2.8-2.4
			c0,0,0,0,0,0v-0.2c0-0.2,0.1-0.3,0.3-0.3L163.8,111z"/>
	</g>
</g>
<g id="_x37_" class="st1">
	<path class="st2" d="M720,0v480H0V0H720z"/>
	<g id="Frog_6_" class="st3">
		<path class="st12" d="M62.7,112c0.1,0.3,0.2,0.7,0.3,1.3c0.1,0.6,0.1,1.1-0.1,1.4c-0.3,0.5-0.8,0.7-1.5,0.7
			c-0.4,0-0.9-0.2-1.4-0.5c-4.2-2.8-6.6-5-11.6-4.8c-6.6,0.2-12.1,0.3-16.5,0.3c-0.9,0-1.8-0.4-2.6-1.2c-0.7-0.7-0.8-1.7-0.3-2.5
			l1.7-2.9c0.1-0.2,0.1-0.5,0-0.7c-3.3-4.9-2.8-8.3-1.2-13.8c1.7-6,7.6-12.7,12-16.2c0.8-0.7,3.3-2.4,7.4-5.3
			c8.7-6,18.8-10,28.7-12.6c7.5-2,14.4-3.1,20.6-3.3c3.9-0.1,7.2-0.2,9.8-0.2c7.2,0,14.1,1.8,20.7,4.1c1.9,0.7,2.8,0,3.5-1.8
			c1.5-3.6,6.7-5.5,10.2-5.8c2.8-0.3,5.4,0.6,7.6,2.6c1.5,1.3,1.3,3.3,2.6,4.9c0.4,0.5,1.2,0.6,1.7,0.2c0,0,0.1-0.1,0.1-0.1
			c3.3-3.6,5.8-6.4,10.5-6.2c4.4,0.1,8.3,3.8,8.7,8.4c0.1,0.8,0.7,1.4,1.4,1.5c5.1,0.5,8.7,0.7,13.2,3.4c1.1,0.6,2.4,1.7,4.1,3.3
			c4.1,3.9,14.1,11.9,10.8,18.3c-1.5,2.8-3.7,4.3-6.8,4.5c-0.4,0-0.6,0.2-0.9,0.5c-1.8,2.3-4.4,5.3-7.6,9c-2.1,2.4-4.8,4.3-6.6,6.4
			c-0.2,0.3-0.3,0.5-0.2,0.9c0.6,2.9-0.6,4.6-3.6,5.2c-2.7,0.5-4.5,1.3-5.4,2.3c-0.2,0.2-0.5,0.4-0.9,0.5c-1.8,0.3-3.6,0.1-5.4-0.5
			c-0.3-0.1-0.6-0.1-0.9,0c-2.8,1.1-7.7,2-8-2c0-0.2-0.2-0.3-0.3-0.3c0,0,0,0-0.1,0l-16.3,3.8c-0.3,0.1-0.5,0.2-0.7,0.5
			c-1.4,1.7-2.9,2.5-4.5,2.3c-4-0.5-7.4-2.9-11.5-3.8c-6.2-1.2-12.1-1.9-17.9-2.1c-5.2-0.1-9.6-0.8-15.4-1.1c-2.6-0.2-4.6-1.3-6-3.3
			c-0.2-0.3-0.6-0.4-1-0.2c-0.1,0.1-0.2,0.2-0.3,0.4c-0.3,0.9-0.8,1.6-1.4,2.3c-0.2,0.2-0.5,0.4-0.9,0.4c-3.7,0.3-5.6,1.9-9.8,1
			c-1.1-0.3-3.7-0.1-7.6,0.4C62.7,111.4,62.6,111.6,62.7,112z"/>
		<path class="st0" d="M71.6,107.9c1.3,0.1,2.5,0.3,3.4,0.8c0.3,0.2,0.5,0.4,0.3,0.8c-0.2,0.7-0.6,1-1.1,0.9
			c-3.6-0.6-7.5-0.6-11.6,0c-1.3,0.2-2.1-0.4-3.2-1c-0.1-0.1-0.3-0.1-0.4,0c0,0,0,0.1,0,0.1L59,110c0,0.1,0,0.2,0,0.2l2.3,2
			c0.5,0.4,0.7,0.9,0.6,1.4l-0.1,0.6c-0.1,0.5-0.3,0.6-0.7,0.4c-5.1-3.8-7.8-5.7-14.5-5.5c-6.7,0.2-11.5,0.3-14.4,0.3
			c-0.5,0-1-0.2-1.5-0.5c-1-0.8-1-1.6,0-2.6c3.4-3.3,5.8-5.8,7.2-7.4c5-6.1,8.7-10.4,11.7-13.5c3.8-4,8.6-6.2,14.3-6.9
			c0.4,0,0.6-0.3,0.5-0.6l-0.1-0.3c-0.1-0.3-0.2-0.4-0.5-0.3c-5.6,0.7-10.2,2.8-13.9,6.2c-3.6,3.4-8.2,8.6-13.6,15.6
			c-0.6,0.8-2,2-4.2,3.7c-0.3,0.2-0.5,0.2-0.6-0.2c-2-4.6-2.7-5.9-1.3-11.4c1.3-5.2,4.3-10,8.9-14.4c18.5-17.4,45.5-25.4,71.1-23.9
			c5.9,0.3,11.6,1.6,17.3,3.8c0.7,0.3,2.2,0.5,4.5,0.7c0.3,0,0.6-0.2,0.6-0.4c0.8-2.7,1.7-4.4,2.7-5c3-1.8,5.9-2.6,8.6-2.5
			c3.1,0.2,5.2,1.3,6.3,3.4c1.3,2.5,2.2,3.9,2.7,4.3c0.3,0.2,0.6,0.3,0.9,0.2c1.2-0.5,2.1-1.1,2.6-1.9c2.9-4.3,8.8-6.6,13.2-3.1
			c2.1,1.7,3.2,3.8,3.3,6.4c0,0.8,0.6,1.5,1.4,1.5c6.3,0.7,11.1,0.6,15.9,5c3.4,3.1,6.1,5.7,8,7.7c1.9,1.9,4.6,6,4.5,8.8
			c-0.1,2.6-3,5.9-6.2,5.5c-0.4,0-0.5-0.3-0.4-0.6c0.5-1.8-0.2-3.4-2-4.7c-3.6-2.6-6.9-2.8-12-3.3c-4.6-0.4-8.3-0.4-10.9,0.2
			C159,81.7,151.4,83.9,141,83c-5-0.4-10.1-1-15.2-1.7c-0.3,0-0.6,0.2-0.6,0.5c0,0.1,0,0.1,0,0.2l0.1,0.3c0,0.1,0.1,0.2,0.2,0.2
			c9.2,1.3,15.8,2,19.6,2.2c2.4,0.1,6-0.3,10.9-1.2c2.5-0.5,6.9-1.3,13.2-2.6c6.6-1.3,13.2-1.3,19.7,0.1c1.8,0.4,6.5,2.3,6.3,4.8
			c-0.2,2.3-1.1,4.3-2.7,6.1c-2.6,3-6,6.5-10.1,10.6c-1,1-2.2,1.7-3.6,2.2c-3.3,1.1-5.4,2.4-8.6,2.9c-1.1,0.2-2.6,0.6-4.6,1.4
			c-0.7,0.2-2.9,0.2-6.7-0.2c-0.3,0-0.6-0.2-0.8-0.4c-2.7-2.7-6.9-1.3-9.6,0.8c-0.3,0.2-0.6,0.3-0.9,0.2c-1.2-0.2-2.6-0.1-4.1,0.1
			c-1,0.1-2.3-0.1-4-0.8c-4.9-2-11.7-3.6-16.8-6.8c-0.2-0.1-0.3-0.4-0.2-0.6c0.1-0.1,0.1-0.2,0.3-0.2c3.2-1,6.2-2.8,9-5.3
			c0.1-0.1,0.1-0.2,0-0.3l-0.5-0.3c-0.1,0-0.2,0-0.3,0c-2.1,1.4-3.5,2.7-6,3.7c-3.2,1.3-5,2-5.4,2.2c-4.2,1.6-8.3,1-12.5,2.1
			c-0.1,0-0.2,0.2-0.2,0.3l0.1,0.3c0,0.2,0.2,0.3,0.4,0.3c2.5-0.5,4.9-0.8,7.4-0.8c2,0,3.2-0.4,4.9-0.9c0.3-0.1,0.7-0.1,1,0.1
			c4.8,2.4,10.4,4.5,16.7,6.4c0.9,0.3,1.5,1,1.8,2.3c0.1,0.3,0.2,0.4,0.5,0.3c2.4-0.5,4-0.8,5-0.9c3.6-0.5,3.9,0.2,0.7,2
			c0,0-0.8,0.2-2.2,0.5c-2.6,0.5-5.9-0.3-8.4-0.1c-1.5,0.1-1.5,0.4-0.1,1c0.5,0.2,1.4,0.3,2.6,0.4c0.3,0,0.6,0.3,0.5,0.6
			c0,0.1,0,0.2-0.1,0.2c-0.1,0.2-0.3,0.5-0.6,0.6c-0.6,0.4-1.2,0.5-1.8,0.4c-1.8-0.3-3.7-0.6-5.6-1.5c-5.3-2.6-11.9-3.4-17.7-3.8
			c-8.8-0.5-15.8-1-21-1.4c-1.5-0.1-2.9-0.6-4.1-1.4c-7.6-5.1,8.4-15.5,12.5-18.6c3.6-2.8,7.3-4.6,11.1-5.5c0.3-0.1,0.5-0.4,0.4-0.7
			c0,0,0-0.1,0-0.1l-0.1-0.2c-0.1-0.1-0.2-0.2-0.3-0.2c-3.8,0.8-7.3,2.4-10.4,4.8c-5.2,4-8.1,6.2-8.9,6.8c-3.2,2.4-7.2,6.4-7.5,10.6
			c0,0.5-0.2,0.9-0.3,1.1c-0.2,0.2-0.5,0.3-0.9,0.2c-0.3,0-0.6-0.2-0.8-0.5c-1.1-2-3.2-3-6.4-2.7c-2.8,0.2-5.2,0.5-7.3,1.1
			c-0.6,0.2-2.6,0-5.9-0.3c-0.3,0-0.4-0.2-0.1-0.4c2.4-1.9,6.9-5.1,10.1-8.3c2.7-2.7,9.3-7.5,10.7-13.5c0.8-3.3-2.1-7.3-4.3-9
			c-3-2.3-6.7-1.7-11.6-1.6c-2.1,0-4.2,0.5-6.2,1.3c-3.9,1.6-6.4,2.8-7.4,3.4c-6.2,3.9-10,5.6-12.8,9.2c-0.5,0.7-0.4,0.9,0.5,0.8
			c0.1,0,0.3-0.2,0.6-0.4c5.4-4.7,11.3-8.4,17.6-11.2c5.1-2.2,9.1-2.1,14.5-2c1.5,0,2.8,0.5,3.9,1.3c4.1,3.2,5.2,6.8,3.1,10.8
			c-1.9,3.6-8,8.7-10.6,11.3c-3.4,3.3-6.7,5.1-9.4,7.4c-0.3,0.2-0.6,0.3-0.9,0.3l-1.4-0.1c-0.3,0-0.5,0.1-0.6,0.5c0,0.1,0,0.2,0,0.3
			c0.1,0.2,0.2,0.3,0.5,0.4c3.1,0.6,5.9,0.9,8.4,0.9c4.3,0.1,11.3-3.1,14.2,1.5c0.5,0.7,0.2,1.7-0.5,2.1c0,0-0.1,0.1-0.1,0.1
			c-0.7,0.4-1.7,0.5-2.9,0.3c-0.3,0-0.6-0.2-0.8-0.4c-1.1-1.2-2.6-1.8-4.6-1.7c-0.1,0-0.1,0-0.1,0.1l-0.3,0.6
			C71.3,107.8,71.4,107.9,71.6,107.9z"/>
		<path class="st12" d="M149.2,58c-3-1.9-6.9-2.1-10.2-0.7c-0.4,0.2-0.6,0.1-0.4-0.4c1.5-3.4,9.4-2,11.1,0.4c0.1,0.2,0.1,0.4,0,0.6
			c-0.1,0.1-0.1,0.1-0.3,0.2S149.3,58,149.2,58z"/>
		<path class="st12" d="M168.3,57.7c-2.6-1.7-4.7-1-7.5-0.3c-2.7,0.8-2.9,0.4-0.6-1.2c2.6-1.8,8.9-1.7,9.8,2.9c0,0.2,0,0.4-0.2,0.5
			c-0.1,0.1-0.2,0.1-0.3,0.1c-0.1,0-0.1-0.1-0.2-0.1C169,58.8,168.8,58,168.3,57.7z"/>
		<ellipse transform="matrix(0.9085 -0.4179 0.4179 0.9085 -28.9245 83.8543)" class="st0" cx="177" cy="108" rx="3.7" ry="1.7"/>
		<ellipse transform="matrix(0.9608 -0.2773 0.2773 0.9608 -24.3615 46.63)" class="st0" cx="152.7" cy="109.4" rx="3.8" ry="1.1"/>
		<path class="st0" d="M165.5,110.1l5.9-1.4c0.8-0.2,1.2,0.1,1.1,1l-0.1,0.8c-0.1,1.1-0.7,1.7-1.9,1.9c-2.5,0.4-4.3,0-5.4-1.1
			c-0.3-0.3-0.3-0.7,0-1C165.2,110.2,165.4,110.1,165.5,110.1z"/>
		<path class="st0" d="M163.8,110c0.2,0,0.3,0.1,0.3,0.3c0,0,0,0,0,0v0.2c0,1.4-1.1,2.5-2.6,2.6l-0.5,0c-1.5,0-2.7-1-2.8-2.4
			c0,0,0,0,0,0v-0.2c0-0.2,0.1-0.3,0.3-0.3L163.8,110z"/>
	</g>
</g>
</svg>
