<svg id="Layer_1" data-name="Layer 1" xmlns="http://www.w3.org/2000/svg" viewBox="0 0 494.95 391.01"><defs><style>.cls-1{fill:none;}.cls-1,.cls-3{stroke:#000;stroke-linecap:round;stroke-linejoin:round;stroke-width:2px;}.cls-2,.cls-3{fill:#222222;}</style></defs><title>frog-outline</title><path class="cls-1" d="M355.32,41.32c-10.42,7.81-23.18,8.38-28.51,1.27s-1.2-19.2,9.21-27,23.18-8.37,28.51-1.26,1.2,19.2-9.21,27" transform="translate(1 2)"/><path class="cls-1" d="M202.29,39.57c10.41,7.81,23.17,8.38,28.5,1.27s1.21-19.2-9.21-27-23.18-8.38-28.52-1.27-1.2,19.2,9.22,27" transform="translate(1 2)"/><path class="cls-2" d="M164,83.29a1,1,0,0,1-.76-.35,1,1,0,0,1-.14-1.08,83.83,83.83,0,0,1,4.13-7.56,101.71,101.71,0,0,1,8.09-10.78c6-6.77,8.15-14.91,9.53-22.7a21.2,21.2,0,0,1,.67-3.84l.36-.94c1.83-4.86,3.57-9.45,1.71-14.9a4.74,4.74,0,0,1-.17-.53,8,8,0,0,1,5.07-9.8l.43-.67c.57-.88,1.15-1.78,1.66-2.69A1,1,0,0,1,195.2,7a27.64,27.64,0,0,1,7.93-1.18h.15c1.37.11,2.57.22,3.71.22a8.66,8.66,0,0,0,3.69-.65,37.7,37.7,0,0,1,15.48-3.66,31,31,0,0,1,6.74.75H233a2.57,2.57,0,0,0,.87-.15,1,1,0,0,1,.34-.06,1.07,1.07,0,0,1,.25,0l1.28.33c2.55.93,5.15,1.77,8,2.61,2.44.88,4.86,1.82,7.21,2.72,9.41,3.63,19.14,7.39,28.81,7.54a1,1,0,0,1,.93.69,20.6,20.6,0,0,0,2.72.18c5.39,0,10.26-2.11,15.18-4.45C306.31,8.23,314,4.52,322.11.58l2.37-1.15a1.18,1.18,0,0,1,.4-.1l3.64-.15c1.54-.06,3.09-.13,4.64-.18h.18c1.93.29,3.81.57,5.64.81,2.2.27,5.54.69,6.73,4.39a1,1,0,0,1-.95,1.31,1.09,1.09,0,0,1-.39-.08A30.86,30.86,0,0,0,332.43,3c-6.45,0-13.1,2.1-20.32,6.42-10.55,6.25-20.72,12.6-29.28,18a5.62,5.62,0,0,0-1.47,1.91c-.2.35-.41.71-.64,1a1,1,0,0,1-.83.44.94.94,0,0,1-.43-.1c-1-.46-2-.9-2.95-1.33a59.57,59.57,0,0,1-5.58-2.7c-.89-.52-1.77-1.06-2.65-1.59-3.76-2.3-7.31-4.47-11.56-4.47a13.07,13.07,0,0,0-4,.63,3.86,3.86,0,0,1-1.13.16A4.43,4.43,0,0,1,248.44,20,5.37,5.37,0,0,1,247,16.05a3.54,3.54,0,0,0-.65-2.61,2.46,2.46,0,0,0-1.52-.63l-1.45,3a1,1,0,0,1-.58.52,1.13,1.13,0,0,1-.32.05,1,1,0,0,1-.45-.11l-5.11-2.57a1,1,0,0,1-.5-.59,1,1,0,0,1,.07-.77l1.7-3.19c-4.31-2.7-8.29-4-12.12-4a18.8,18.8,0,0,0-10,3.09L220.69,11A28,28,0,0,1,234,29.25a14.53,14.53,0,0,1,.42,3.37,14.87,14.87,0,0,1-14.69,15h-.53c-7.26,0-13.52-2.94-18.17-5.51l-1.7-.95c0,.11,0,.22,0,.32a12,12,0,0,1-.17,3.68c-.6,2.29-1.31,4.63-2.92,5.87a1.73,1.73,0,0,1-1.07.33c-1.48,0-4-1.52-5-2.17A9.75,9.75,0,0,1,188,46.94C185.3,57,179.23,64.8,173.36,72.35c-2.44,3.13-5,6.37-7.17,9.69a.76.76,0,0,1-.11.14,4,4,0,0,1-1.76,1.07A.9.9,0,0,1,164,83.29ZM193.8,12.57c-4.06,5.13-4.11,10.51-.18,16.93a30.41,30.41,0,0,0,22.56,14.71,15.29,15.29,0,0,0,2,.14,12.24,12.24,0,0,0,10.5-5.6,12,12,0,0,0,.48-11.82,32.43,32.43,0,0,0-15.75-15.38,20.26,20.26,0,0,0-8.74-2.07A22.22,22.22,0,0,0,193.8,12.57Z" transform="translate(1 2)"/><path d="M333.19,0c1.94.29,3.82.57,5.66.81,2.55.32,5,.79,5.91,3.71A31.52,31.52,0,0,0,332.43,2c-7.21,0-14.12,2.55-20.83,6.56-9.85,5.83-19.6,11.89-29.3,18-1.06.67-1.64,2.1-2.41,3.25-2.83-1.35-5.77-2.45-8.46-4-4.74-2.72-9.13-6.19-14.71-6.19a14.35,14.35,0,0,0-4.29.67,2.92,2.92,0,0,1-.83.12A3.85,3.85,0,0,1,248,16.08c.08-2.37-.64-4.3-3.78-4.3l-1.74,3.64-5.11-2.57,2.14-4c-4.73-3.11-9.14-4.68-13.44-4.68A20.65,20.65,0,0,0,214.18,8.3l6,3.54a27,27,0,0,1,12.88,17.62,13.56,13.56,0,0,1,.4,3.17,13.85,13.85,0,0,1-13.7,14h-.52c-6.43,0-12.16-2.34-17.69-5.4l-3.23-1.79c0,2.3.31,4-.08,5.47-.5,1.92-1.15,4.24-2.56,5.33a.72.72,0,0,1-.46.12c-1.05,0-3.13-1.16-4.42-2s-2-2.09-3.34-3.57c-3.25,15.11-14.28,24.92-22.1,36.7a3,3,0,0,1-1.32.8,80.36,80.36,0,0,1,4.08-7.46,100.13,100.13,0,0,1,8-10.66c5.95-6.65,8.26-14.71,9.75-23.18a21.65,21.65,0,0,1,.66-3.75c2-5.3,4.13-10.3,2.05-16.42-.06-.16-.11-.33-.16-.49a7,7,0,0,1,4.76-8.68c.78-1.23,1.6-2.44,2.31-3.71a26.73,26.73,0,0,1,7.64-1.14h.15c1.29.11,2.53.22,3.71.22a9.78,9.78,0,0,0,4.11-.74,36.61,36.61,0,0,1,15.06-3.57,30.28,30.28,0,0,1,6.6.74H233a3.58,3.58,0,0,0,1.21-.21l1.28.33c2.66,1,5.32,1.82,8,2.6,11.87,4.3,24,10.11,36.28,10.3,0,.2,0,.37.11.58a21.87,21.87,0,0,0,3.55.29c5.66,0,10.64-2.18,15.62-4.55,8.42-4,16.85-8.11,25.85-12.47,2.75-.1,5.51-.24,8.27-.33m-115,45.35A12.93,12.93,0,0,0,230.06,26.5a33.38,33.38,0,0,0-16.24-15.86,21.11,21.11,0,0,0-9.16-2.16,23.18,23.18,0,0,0-11.52,3.31c-4.8,5.95-4.17,12-.37,18.23A31.21,31.21,0,0,0,216.06,45.2a15.44,15.44,0,0,0,2.12.15M333.19-2h-.07l-4.64.18-3.63.15a2,2,0,0,0-.8.2L321.73-.35c-8.15,4-15.83,7.68-23.52,11.35-4.81,2.29-9.57,4.35-14.76,4.35-.69,0-1.39,0-2.09-.11a2,2,0,0,0-1.54-.76c-9.49-.15-19.14-3.87-28.46-7.47-2.35-.91-4.78-1.85-7.17-2.71l-.12,0c-2.86-.83-5.43-1.67-7.87-2.56L236,1.64l-1.28-.33a2.07,2.07,0,0,0-.5-.06,1.89,1.89,0,0,0-.67.12,1.65,1.65,0,0,1-.54.09h0a32.1,32.1,0,0,0-6.86-.75,38.7,38.7,0,0,0-15.88,3.74A7.65,7.65,0,0,1,207,5c-1.09,0-2.28-.11-3.54-.21h-.32A28.62,28.62,0,0,0,194.91,6a2,2,0,0,0-1.17.93c-.49.89-1,1.74-1.62,2.64l-.25.38a9,9,0,0,0-5.37,10.91c.06.2.12.4.2.6,1.72,5.1.12,9.31-1.72,14.19l-.32.86-.06.18a22.79,22.79,0,0,0-.72,4c-1.34,7.62-3.4,15.57-9.25,22.11a102.7,102.7,0,0,0-8.19,10.9,83.19,83.19,0,0,0-4.2,7.68,2,2,0,0,0,1.8,2.87,2.1,2.1,0,0,0,.56-.08,5.08,5.08,0,0,0,2.2-1.33,3.11,3.11,0,0,0,.23-.28c2.18-3.3,4.69-6.52,7.12-9.64,5.59-7.18,11.35-14.57,14.27-24a7.19,7.19,0,0,0,1.32,1.07c1.6,1.05,3.88,2.32,5.48,2.32a2.75,2.75,0,0,0,1.68-.53c1.86-1.44,2.64-4,3.28-6.42a10.05,10.05,0,0,0,.26-2.51l.14.08c4.76,2.63,11.17,5.65,18.66,5.65h.56A15.87,15.87,0,0,0,235,29a29,29,0,0,0-13.83-18.9l-3.11-1.84a17.06,17.06,0,0,1,8-2.1,21.25,21.25,0,0,1,10.8,3.38l-1.26,2.36a2,2,0,0,0-.15,1.54,2.05,2.05,0,0,0,1,1.19l5.11,2.57a2,2,0,0,0,.9.21,2.06,2.06,0,0,0,.65-.11,2,2,0,0,0,1.15-1L245.41,14a.74.74,0,0,1,.24.17c.16.16.41.62.37,1.87a6.34,6.34,0,0,0,1.71,4.68,5.43,5.43,0,0,0,3.87,1.68,4.78,4.78,0,0,0,1.42-.21,12.45,12.45,0,0,1,3.7-.58c4,0,7.4,2.1,11,4.32.87.53,1.77,1.08,2.68,1.6a55.8,55.8,0,0,0,5.68,2.75c1,.43,2,.87,2.92,1.33a2,2,0,0,0,.86.19,2,2,0,0,0,1.66-.89c.25-.37.47-.74.68-1.1a5.34,5.34,0,0,1,1.14-1.57c8.54-5.38,18.7-11.73,29.25-18C319.69,6,326.17,4,332.43,4A29.86,29.86,0,0,1,344,6.36a1.9,1.9,0,0,0,.77.16,2,2,0,0,0,1.9-2.61c-1.38-4.31-5.25-4.79-7.56-5.08-1.87-.25-3.86-.55-5.61-.81l-.3,0ZM194.46,13.34a21.14,21.14,0,0,1,10.2-2.86,19.22,19.22,0,0,1,8.3,2,31.39,31.39,0,0,1,15.3,14.92,11.06,11.06,0,0,1-.42,10.85,11.29,11.29,0,0,1-9.66,5.13,14.64,14.64,0,0,1-1.85-.13A29.43,29.43,0,0,1,194.49,29c-3.66-6-3.67-11,0-15.67Z" transform="translate(1 2)"/><path class="cls-2" d="M485.46,257a1,1,0,0,1-1-.79c-.14-.63-.3-1.19-.45-1.7a6.67,6.67,0,0,1-.41-3.08,14.39,14.39,0,0,1,1.24-3.13c.3-.59.58-1.16.81-1.74,1.68-4.4.58-7.83-3.35-10.46a12.24,12.24,0,0,0-4.24-2.15c-8.8-1.69-13.52-6.5-14.78-15.14-.6-4.12-5.35-7.61-10.37-7.61a7.87,7.87,0,0,0-.84,0,71.9,71.9,0,0,0-14.77,3.1c-2.17.65-4.34,1.36-6.44,2-6.13,2-12.46,4.09-19.13,4.76-.74.07-1.48.11-2.2.11a23.55,23.55,0,0,1-11.77-3.42c-11-6.08-16.18-16.28-19.5-24.49l-.36-.91c-1.19-3.09-2.12-5-4.92-5h-.14a1,1,0,0,1-.73-.32,1,1,0,0,1-.26-.78s.29-2.93.36-3.65c-1-4.11-1.71-8.89.65-13.52.14-.28.27-.57.4-.86a5.08,5.08,0,0,1,2.06-2.75c3.22-1.55,4.35-4.34,5.66-7.58.44-1.09.89-2.2,1.44-3.3-5.69-2.07-5.4-6.83-4.45-10.83.6-2.52,1.11-5.12,1.6-7.64.77-3.89,1.57-7.93,2.71-11.81a28.81,28.81,0,0,1,3.16-6.48c.74-1.23,1.5-2.51,2.11-3.79a10.09,10.09,0,0,0,1.24-4.83c-.28-3-.79-6-1.32-9.14-.17-1.05-.35-2.11-.52-3.17l-.82.16a14.14,14.14,0,0,1-2.5.32,4.78,4.78,0,0,1-1.78-.32,8.87,8.87,0,0,1-3.32-3c-.33-.42-.66-.83-1-1.21-.49-.55-1-1.12-1.43-1.68-.61-.73-1.25-1.49-1.9-2.18-2.82-3-4.05-5.34-4-7.75s1.28-4.48,3.92-7.1l-5.07-8a1,1,0,0,1,.31-1.37l.94-.6a1,1,0,0,1,.54-.16,1,1,0,0,1,.78.37l13.23,16.36.19,0a1,1,0,0,1,.74.33A25.65,25.65,0,0,0,388,83.1c.45.4.91.8,1.39,1.25.17.15.32.31.48.47l.3.3a.93.93,0,0,1,.29.54,21.67,21.67,0,0,0,2.19,6.24c5.54,9.79,7.26,20.8,5.26,33.62a38.7,38.7,0,0,0-.41,6.72,1,1,0,0,1-.12.49,58.87,58.87,0,0,0-3,6.66,1,1,0,0,1-.93.64,1,1,0,0,1-.28,0h0c-1.34,3.24-2.93,6.41-4.47,9.48-3.52,7-7.15,14.21-7.71,22.35a1,1,0,0,1,.44,1,27,27,0,0,0-.42,2.82,1,1,0,0,1-.19.5c0,.17,0,.34.07.52a.91.91,0,0,1,0,.17,39.28,39.28,0,0,0,2.31,14.45l.11.34c1.09,3.26,2.31,7,4.28,9.83a.82.82,0,0,1,.11.23,24.3,24.3,0,0,0,22.73,15.7,23.78,23.78,0,0,0,4.83-.5,117,117,0,0,0,13.23-3.85c2.07-.69,4.21-1.41,6.34-2.06,1-.3,2-.62,3-.94,3-1,6.18-1.95,9.36-2.62a22.16,22.16,0,0,1,4.52-.49c8.78,0,15.26,5.95,16.51,15.15.56,4.09,3,5.74,6.67,7.07,1,.35,2,.64,3,.92a27.57,27.57,0,0,1,5,1.73c6.58,3.25,8.68,9.2,5.77,16.34a76.78,76.78,0,0,0-2.23,8,1,1,0,0,1-1,.78ZM393.34,104.39a15.93,15.93,0,0,0,1,5.91c.43-2.94.18-4.67-1.05-6.46C393.33,104,393.34,104.21,393.34,104.39Z" transform="translate(1 2)"/><path d="M370.87,65l13.71,16.94.49-.23c1.1,1.21,2.33,2.15,3.65,3.38.27.25.51.51.77.76a22.37,22.37,0,0,0,2.29,6.53c5.89,10.42,7,21.4,5.15,33a39.73,39.73,0,0,0-.42,6.89,59.86,59.86,0,0,0-3.09,6.77l-.87-.25c-4.42,11.16-12,21.12-12.63,33.7l.5.18a26.56,26.56,0,0,0-.44,2.93h-.27c.05.42.1.83.16,1.25a40.45,40.45,0,0,0,2.37,14.82c1.15,3.46,2.39,7.3,4.5,10.39,3.44,9.73,13.19,16.37,23.67,16.37a24.69,24.69,0,0,0,5-.52c6.66-1.38,13.1-3.93,19.66-5.93,4.08-1.24,8.13-2.66,12.3-3.54a20.44,20.44,0,0,1,4.31-.47c8.18,0,14.31,5.39,15.52,14.28.64,4.67,3.56,6.53,7.32,7.88,2.62.94,5.45,1.39,7.91,2.61,6.24,3.08,8,8.53,5.28,15.06a82.41,82.41,0,0,0-2.28,8.17c-.43-2-1.08-3.25-.86-4.38.37-1.63,1.39-3.11,2-4.7,1.84-4.82.61-8.75-3.72-11.65a13.16,13.16,0,0,0-4.53-2.28c-8.06-1.55-12.81-5.75-14.06-14.32-.7-4.79-6-8.47-11.36-8.47-.31,0-.61,0-.92,0a73.19,73.19,0,0,0-15,3.15c-8.36,2.5-16.51,5.88-25.36,6.76-.71.07-1.41.11-2.1.11a22.53,22.53,0,0,1-11.28-3.29c-9.75-5.41-15.06-14.11-19.06-24-1.2-3-2.12-6.5-6.21-6.5h-.14c.12-1.2.25-2.43.37-3.66h.06c-1.15-4.43-1.71-8.86.48-13.16.6-1.16,1.05-2.71,2-3.16,5.12-2.46,5.48-7.77,8.12-12.38-5.79-1.51-6-5.35-4.93-10,1.53-6.45,2.44-13.06,4.3-19.4,1.05-3.57,3.59-6.69,5.21-10.12a11,11,0,0,0,1.34-5.26c-.42-4.43-1.3-8.87-2-13.43-1.45.14-2.87.6-4.16.6a3.66,3.66,0,0,1-1.4-.25c-1.59-.65-2.68-2.58-3.95-4-1.14-1.27-2.18-2.64-3.36-3.88-5.07-5.3-5-8.87.49-14l-5.5-8.74.94-.6m24,48c1.32-6.34.87-8.47-2.88-12.19.74,3.94-.36,8.28,2.88,12.19m-24-50a2,2,0,0,0-1.08.31l-.94.6a2,2,0,0,0-.61,2.76L372.88,74c-2.45,2.56-3.58,4.83-3.65,7.2-.07,2.7,1.24,5.31,4.26,8.47.64.67,1.23,1.38,1.86,2.13.47.56.95,1.14,1.46,1.71.31.34.62.74.95,1.16a9.76,9.76,0,0,0,3.73,3.35,5.58,5.58,0,0,0,2.16.4,13.67,13.67,0,0,0,2.5-.3l.36,2.15c.52,3.13,1,6.09,1.3,9.07a9,9,0,0,1-1.09,4.21l-.06.11c-.58,1.23-1.3,2.43-2.06,3.7a29.78,29.78,0,0,0-3.26,6.71c-1.15,3.93-1.95,8-2.73,11.91-.49,2.5-1,5.09-1.6,7.59s-2.05,8.7,4.07,11.58c-.36.81-.69,1.61-1,2.41-1.28,3.16-2.29,5.67-5.17,7.05a5.91,5.91,0,0,0-2.53,3.24c-.12.27-.25.55-.38.8-2.48,4.87-1.83,9.81-.77,14.06-.06.67-.13,1.33-.2,2l-.15,1.49a2,2,0,0,0,2,2.2H373c2.1,0,2.8,1.25,4,4.33.12.31.24.62.37.92,3.38,8.36,8.7,18.76,19.94,25a24.51,24.51,0,0,0,12.25,3.54,22.29,22.29,0,0,0,2.3-.12c6.78-.67,13.17-2.77,19.34-4.8,2.1-.69,4.26-1.4,6.39-2a71.78,71.78,0,0,1,14.63-3.08c.21,0,.46,0,.72,0,4.55,0,8.85,3.1,9.38,6.76,1.31,9,6.4,14.19,15.58,16a10.88,10.88,0,0,1,3.76,1.91l.12.08c3.53,2.37,4.47,5.32,3,9.28a18.07,18.07,0,0,1-.76,1.65,14.84,14.84,0,0,0-1.32,3.32v.06a7.52,7.52,0,0,0,.43,3.56c.15.51.31,1,.44,1.63a2,2,0,0,0,1.95,1.57h0a2,2,0,0,0,2-1.56,79.15,79.15,0,0,1,2.21-7.91c3.1-7.66.82-14.05-6.27-17.55a28.66,28.66,0,0,0-5.17-1.81c-1-.28-2-.55-2.95-.89-3.44-1.24-5.52-2.66-6-6.27-1.32-9.73-8.19-16-17.5-16a22.81,22.81,0,0,0-4.73.51c-3.23.69-6.4,1.69-9.46,2.65l-3,.94c-2.14.65-4.29,1.36-6.36,2.06A117.08,117.08,0,0,1,415,215.94a22.37,22.37,0,0,1-4.62.48c-9.69,0-18.65-6.19-21.78-15a2,2,0,0,0-.24-.46c-1.88-2.76-3-6.22-4.14-9.56l-.11-.33a38.19,38.19,0,0,1-2.27-14.13,1.88,1.88,0,0,0,0-.34l0-.19a2,2,0,0,0,.15-.59,24.6,24.6,0,0,1,.41-2.71,2,2,0,0,0-.39-1.65c.64-7.72,4-14.42,7.57-21.5,1.45-2.89,2.95-5.87,4.24-8.93a2,2,0,0,0,1.49-1.25,58.33,58.33,0,0,1,3-6.54,1.89,1.89,0,0,0,.24-1,38.81,38.81,0,0,1,.4-6.55c2-13,.27-24.26-5.39-34.27a20.24,20.24,0,0,1-2.06-5.91,2,2,0,0,0-.58-1.08l-.29-.29-.51-.5q-.72-.66-1.41-1.26a24,24,0,0,1-2.12-2,2,2,0,0,0-1.18-.63l-12.95-16a2,2,0,0,0-1.55-.74Z" transform="translate(1 2)"/><path class="cls-2" d="M186.15,350.82c-3.87,0-7.81-.12-11.62-.24l-5.38-.15a6.05,6.05,0,0,1-4.32-2,1,1,0,0,1,.75-1.66h3l1.22,0c5.32.21,10.83.43,16.23.43a121.58,121.58,0,0,0,20.8-1.54,72.3,72.3,0,0,0,8.68-2.25c1.41-.43,2.81-.86,4.23-1.25l8.73-2.36c7.06-1.9,14.36-3.87,21.52-5.87a30.36,30.36,0,0,0,3.79-1.72l0-.53-24.55-9.48a1,1,0,0,1-.6-1.21l.07-.24c.09-.31.18-.62.28-.93a1,1,0,0,1,.95-.7.84.84,0,0,1,.27,0c1.32.36,2.72.67,4.07,1a37.49,37.49,0,0,1,9,2.81c10.37,5.27,21.94,8.82,37.51,11.53l.12,0a29.94,29.94,0,0,1,4.54,1.79,1,1,0,0,1,0,1.82,5.44,5.44,0,0,0-2.23,1.8,1,1,0,0,1-.81.42,1,1,0,0,1-.41-.09,19.24,19.24,0,0,0-3.85-1.25L278,339a39.89,39.89,0,0,0-15.21-3A40.37,40.37,0,0,0,245.2,340a1,1,0,0,1-.44.1h-.13a9.45,9.45,0,0,0-1.3-.08,9.83,9.83,0,0,0-1.62.13c-3.49,1-7,2-10.46,3-6.65,1.93-13.54,3.92-20.41,5.5a102.59,102.59,0,0,1-19.21,2.09C189.93,350.79,188.13,350.82,186.15,350.82Z" transform="translate(1 2)"/><path d="M230,320.13c4.33,1.19,9,1.71,12.93,3.71,12,6.08,24.7,9.35,37.79,11.63a27.61,27.61,0,0,1,4.39,1.73,6.48,6.48,0,0,0-2.64,2.14,20.62,20.62,0,0,0-4.05-1.32,41.11,41.11,0,0,0-33.63,1.1,11.31,11.31,0,0,0-3.26.06c-10.3,2.82-20.49,6.1-30.88,8.49a101.93,101.93,0,0,1-19,2.06c-1.82.07-3.63.09-5.46.09-5.65,0-11.33-.25-17-.39a5,5,0,0,1-3.59-1.7h3c5.82.23,11.64.48,17.45.48a123,123,0,0,0,21-1.56c4.41-.75,8.67-2.33,13-3.51,10.09-2.74,20.19-5.43,30.26-8.24a29.22,29.22,0,0,0,4.47-2.07l.15-1.8-25.25-9.75c.11-.38.22-.77.34-1.15m0-2a2,2,0,0,0-1.91,1.4c-.1.32-.2.66-.29,1l-.06.2a2,2,0,0,0,1.2,2.43l23,8.88q-1.12.54-2.28,1c-7.11,2-14.35,3.94-21.35,5.83l-8.82,2.39c-1.44.39-2.88.83-4.27,1.25a70.43,70.43,0,0,1-8.55,2.22A120.58,120.58,0,0,1,186,346.21c-5.38,0-10.87-.22-16.18-.43l-1.19,0h-3.08a2,2,0,0,0-1.5,3.32,7,7,0,0,0,5,2.38c1.82,0,3.62.1,5.42.15,3.81.12,7.76.24,11.64.24,2,0,3.79,0,5.53-.09a103.31,103.31,0,0,0,19.33-2.1c6.94-1.6,13.84-3.6,20.51-5.53,3.4-1,6.93-2,10.4-3a8.18,8.18,0,0,1,1.4-.11,9.18,9.18,0,0,1,1.17.07l.26,0a2.09,2.09,0,0,0,.88-.2,39.09,39.09,0,0,1,32-1.05,1.93,1.93,0,0,0,.34.11,18.41,18.41,0,0,1,3.66,1.19,2.1,2.1,0,0,0,.81.17,2,2,0,0,0,1.62-.83,4.47,4.47,0,0,1,1.83-1.48,2,2,0,0,0,.08-3.62,30.63,30.63,0,0,0-4.7-1.86l-.24-.05c-15.47-2.7-26.95-6.22-37.22-11.44a38.5,38.5,0,0,0-9.29-2.9c-1.34-.3-2.72-.6-4-1a2,2,0,0,0-.53-.07Z" transform="translate(1 2)"/><path class="cls-3" d="M163.74,82.47c-1.84,6.32-4.57,12.44-4.35,19.24.07,2.09,0,4.19,0,6.77,6.44-1,8.6,2.73,10.08,7.31,3,9.18,5.45,18.44,5.84,28.16.18,4.43-.08,8.62-4.42,11.27,3.07,11.35,4.36,22.49,1.61,33.56,7,3.57,8.64,8.26,4.84,14.65-3.21,5.38-7.21,10.13-15,9.79-.42-2.08-.83-4.05-1.24-6.09l-3.77.34.17.16c7.08-7.55,12.95-15.84,14.73-26.32a29.78,29.78,0,0,0,.25-8.84c-1.48-11.06-5.23-21.52-9.07-31.93A97,97,0,0,1,158,97.1c.5-5.15,1.66-10.57,5.89-14.47l-.15-.16" transform="translate(1 2)"/><path class="cls-2" d="M130.62,343.51a1,1,0,0,1-.69-.28,24.7,24.7,0,0,0-3.61-1.49,34.82,34.82,0,0,1-17.42-10c-6.19-6.39-12.6-13-15.39-22.24-2.38-7.88-.75-12.68,5.61-16.56l2.29-1.41c8.64-5.3,17.58-10.79,28.55-11.18a21.79,21.79,0,0,0,3.64-.83c-1.73-4.7-1.55-5.3,1.14-11.75a7.47,7.47,0,0,0,.42-2.67V265c.11-6.33.41-6.89,6.05-8.34,1.73-4.41,4.71-6.92,8.23-6.92,2.52,0,5.16,1.31,7.63,3.77,1.71,1.7,3.29,3.55,4.83,5.34,1.34,1.57,2.73,3.19,4.18,4.67a42.73,42.73,0,0,0,4.23,3.81l1.6,1.35c.06-.36.12-.7.18-1a22,22,0,0,0,.51-4c0-2.18-.09-4.41-.17-6.57-.1-2.46-.2-5-.17-7.52a7,7,0,0,1,1.07-3.15c.13-.23.26-.47.37-.71v-.16a1,1,0,0,1,.66-1,1,1,0,0,1,.34-.06,1,1,0,0,1,.78.38l.12.15a1,1,0,0,1,.14,1l0,.07c0,1.92.06,3.85.09,5.78.06,4.71.13,9.59.32,14.38.23,2.53.59,5.13,1.08,7.68a1,1,0,0,1,.31.7,1,1,0,0,1-.34.77l-.16.14a1,1,0,0,1-.66.25,1.13,1.13,0,0,1-.32-.05,1,1,0,0,1-.65-.73l-4.29-3.49c-3.89-3.16-7.92-6.44-11.81-9.76a38.23,38.23,0,0,1-3.29-3.2,27.82,27.82,0,0,0-4.48-4.08,5,5,0,0,0-2.66-1c-1.21,0-2.17,1-2.84,3a11.58,11.58,0,0,0,2.28,1.16c1.94.84,4.12,1.77,4.84,4.49a.91.91,0,0,1,.28.54,1,1,0,0,1-.25.85l-.14.15a1,1,0,0,1-.73.32.79.79,0,0,1-.3-.05,1,1,0,0,1-.59-.5l-1.07-.55c-1.08-.56-2.21-1.14-3.32-1.65a10.37,10.37,0,0,0-4.22-.95,4.59,4.59,0,0,0-3.53,1.2c-1,1.26-.48,4.15,2.53,7a17.77,17.77,0,0,0,2.11,1.62,18.43,18.43,0,0,1,2.42,1.87c1.26,1.37,2.45,2.77,3.54,4.21l.4.27a1,1,0,0,1,.43.78,1,1,0,0,1-.37.82l-.16.13a1,1,0,0,1-.63.22h-.13a1,1,0,0,1-.67-.39l-.26-.35-1.3-.86a52.32,52.32,0,0,1-4.33-3.06c-2-1.63-3.56-2.46-4.63-2.46a1.7,1.7,0,0,0-1.54,1c-.45.73-1.83,3,2.74,5.91,1.28.82,2.57,1.62,3.86,2.42a101.8,101.8,0,0,1,9,6.06c2.45,1.91,4.79,4,7.06,6.05,2.58,2.32,5.25,4.71,8,6.79,3.94,2.89,8.62,6.06,13.55,7.63a148.2,148.2,0,0,0,15.62,3.7c2.82.56,5.74,1.14,8.59,1.81,4.83,1.1,9.68,2.33,14.37,3.52l6.45,1.62a1,1,0,0,1,.74,1.14c-.08.46-.16.91-.25,1.37a1,1,0,0,1-1,.8,14.11,14.11,0,0,1-3.23-.38.45.45,0,0,1-.11,0,101.19,101.19,0,0,0-16.82-4c-2.21-.39-4.5-.79-6.74-1.25-14.34-2.94-29.29-6.82-40.53-18.91a56.52,56.52,0,0,0-11-9.35c-3.44-2.19-7-3.44-9.92-3.44h-.25c-8.44.23-15.4.74-21.76,4.84-2.24,1.45-4.63,2.72-7,3.95s-4.71,2.51-6.92,3.95c-4.86,3.18-5.27,5.53-4,10.94,1.83,8.08,7.33,14,12.65,19.65.62.67,1.25,1.33,1.86,2a32.18,32.18,0,0,0,16,9.18c1.2.3,4,1,3.91,4.31a1,1,0,0,1-1,1Z" transform="translate(1 2)"/><path d="M174.7,245.5l.12.15c0,.08-.07.17-.11.25v-.4m0,.4c.12,6.81.14,13.61.41,20.41a80.93,80.93,0,0,0,1.17,8.18c-5.47-4.48-11-8.88-16.36-13.47-2.71-2.25-4.87-5.35-7.87-7.35a5.91,5.91,0,0,0-3.21-1.21c-1.85,0-3.2,1.51-4,4.3,2.26,2.18,6.61,1.94,7.39,5.93-1.61-.81-3.2-1.67-4.82-2.42a11.33,11.33,0,0,0-4.64-1,5.5,5.5,0,0,0-4.31,1.57c-1.49,1.85-.57,5.33,2.62,8.36,1.38,1.31,3.17,2.18,4.52,3.49s2.43,2.76,3.55,4.22c-1.93-1.29-3.91-2.5-5.7-4-2.18-1.77-3.91-2.68-5.26-2.68a2.72,2.72,0,0,0-2.39,1.47c-1.54,2.5-.49,5,3.05,7.28,4.3,2.78,8.8,5.29,12.82,8.43,5.23,4.06,9.83,8.93,15.14,12.85,4.25,3.13,8.89,6.21,13.84,7.78,7.88,2.5,16.19,3.65,24.28,5.53,7,1.6,13.88,3.42,20.81,5.14-.08.45-.16.89-.25,1.34a13.15,13.15,0,0,1-3-.35c-7.69-2.78-15.76-3.65-23.7-5.27-14.63-3-29.13-6.93-40-18.61a57.23,57.23,0,0,0-11.2-9.51c-3.06-1.95-7-3.6-10.46-3.6h-.28c-7.62.21-15.41.57-22.27,5-4.47,2.89-9.43,5-13.88,7.9-5.18,3.4-5.81,6.09-4.47,12,2.11,9.29,8.71,15.55,14.76,22.11a33.12,33.12,0,0,0,16.48,9.47c1.85.47,3.18,1.19,3.14,3.32v-.05a26.39,26.39,0,0,0-4-1.67,34,34,0,0,1-17-9.76c-6.25-6.45-12.46-12.9-15.16-21.84-2.15-7.12-1.07-11.61,5.17-15.42,9.43-5.74,18.73-12,30.41-12.44a23.82,23.82,0,0,0,4.84-1.21c-2-5.36-2-5.35.78-12a8.45,8.45,0,0,0,.49-3.07c.11-6.13.09-6.13,5.8-7.58,1.59-4.42,4.33-6.76,7.48-6.76,2.19,0,4.58,1.13,6.92,3.48,3.18,3.15,5.87,6.79,9,10,1.86,2,4.06,3.6,7.24,6.37.49-3.16,1-5,1-6.93,0-4.69-.39-9.38-.34-14.08,0-1.21.88-2.42,1.45-3.65m-22.46,16.79.18.09-.14.15c0-.08,0-.16,0-.24m24,11.8.22.18-.16.14-.06-.32m-27.12,2.38.52.36-.16.13-.36-.49M174.7,243.5a2,2,0,0,0-2,1.95c-.08.16-.16.32-.25.47a7.74,7.74,0,0,0-1.19,3.63c0,2.52.07,5.08.17,7.55.08,2.15.17,4.37.17,6.53a17.88,17.88,0,0,1-.37,3.14l-.29-.23a46.06,46.06,0,0,1-4.12-3.71c-1.46-1.5-2.83-3.11-4.16-4.66-1.55-1.81-3.15-3.68-4.89-5.4-2.65-2.65-5.53-4.06-8.33-4.06-3.83,0-7.05,2.57-9,7.08-5.63,1.51-6.19,2.57-6.31,9.16v.15a6.41,6.41,0,0,1-.36,2.3c-2.57,6.17-2.92,7.33-1.5,11.44a20.1,20.1,0,0,1-2.43.49c-11.21.41-20.25,6-29,11.33l-2.28,1.4c-6.74,4.12-8.55,9.41-6,17.71,2.85,9.46,9.35,16.17,15.63,22.65a35.9,35.9,0,0,0,17.9,10.3,24.22,24.22,0,0,1,3.41,1.41,2,2,0,0,0,1.11.35h0a2,2,0,0,0,2-1.94c.08-4.1-3.48-5-4.65-5.3a31.08,31.08,0,0,1-15.52-8.91c-.6-.65-1.22-1.32-1.85-2C105.14,320.51,100,315,98.2,307.17c-1.23-5.44-.62-7.1,3.62-9.89,2.16-1.41,4.54-2.67,6.84-3.89s4.74-2.52,7-4c6.13-4,12.95-4.45,21.24-4.68h.22c2.68,0,6.1,1.2,9.39,3.29a55.24,55.24,0,0,1,10.79,9.17c11.46,12.31,26.58,16.25,41.08,19.22,2.26.46,4.55.87,6.77,1.26a100.17,100.17,0,0,1,16.65,3.93l.22.07a15.5,15.5,0,0,0,3.46.4h0a2,2,0,0,0,2-1.61c.09-.46.18-.92.26-1.38a2,2,0,0,0-1.49-2.29c-2.15-.53-4.29-1.08-6.43-1.62-4.7-1.19-9.56-2.42-14.41-3.53-2.86-.66-5.79-1.25-8.61-1.81a144.6,144.6,0,0,1-15.52-3.68c-4.79-1.52-9.39-4.63-13.25-7.48-2.77-2-5.42-4.42-8-6.73-2.28-2-4.64-4.16-7.12-6.09a100.7,100.7,0,0,0-9.12-6.11c-1.27-.79-2.58-1.6-3.84-2.42-3.75-2.41-2.83-3.91-2.44-4.55s.53-.52.69-.52c.38,0,1.53.22,4,2.23a51.57,51.57,0,0,0,4.42,3.13l1.14.76.15.2a2,2,0,0,0,1.36.79l.25,0a2,2,0,0,0,1.26-.45l.16-.13a2,2,0,0,0-.13-3.2l-.26-.18c-1.09-1.42-2.26-2.8-3.47-4.11l-.08-.08a18.46,18.46,0,0,0-2.54-2,16.49,16.49,0,0,1-2-1.53c-2.59-2.46-3.08-4.86-2.44-5.66a3.67,3.67,0,0,1,2.75-.82,9.43,9.43,0,0,1,3.81.86c1.09.5,2.16,1.06,3.29,1.64l.81.42a2,2,0,0,0,1,.69,2,2,0,0,0,2.05-.55l.14-.15a2,2,0,0,0,.51-1.71,2,2,0,0,0-.37-.85c-.91-3-3.45-4.1-5.35-4.92-.5-.21-1-.42-1.43-.65.37-.81.9-1.55,1.6-1.55a4.18,4.18,0,0,1,2.08.86,26.12,26.12,0,0,1,4.33,3.95,42.24,42.24,0,0,0,3.39,3.29c3.88,3.31,7.92,6.59,11.82,9.77l4.06,3.3a2,2,0,0,0,1.18,1.07,1.76,1.76,0,0,0,.64.11,2,2,0,0,0,1.32-.49l.16-.14a2,2,0,0,0,.3-2.68c-.45-2.41-.79-4.87-1-7.32-.19-4.76-.26-9.61-.32-14.3,0-1.87-.05-3.73-.09-5.59a2,2,0,0,0-.33-1.89l-.12-.15a2,2,0,0,0-1.56-.75Z" transform="translate(1 2)"/><path class="cls-3" d="M345.52,61.8C299.41,48,253.79,49,208.11,63.93a7.87,7.87,0,0,1,1.65-1.15c15.46-5.63,31-11,47.23-14a125.7,125.7,0,0,1,60.24,3.28c8.38,2.52,16.65,5.44,25,8.22a34.31,34.31,0,0,1,3.32,1.53" transform="translate(1 2)"/><path class="cls-2" d="M47.26,388a1.05,1.05,0,0,1-.71-.29l-.14-.14a1,1,0,0,1,.47-1.68c4.32-5.31,5.48-10.92,3.66-17.63-1.48-5.39,1.28-10.16,4.48-14.51,6.7-9.13,11.14-19.3,15.48-29.79.67-1.67,1.15-3.2,0-5.12-2.91-5.15-1.14-11.39,4.3-15.17,3.13-2.2,4.77-7.83,3.19-10.95-4.34-8.59-.15-15.83,3.38-20.53,1.56-2.07,2.56-3.55,2.17-5.34l-.09-.45c-1-4.53-2-9.21-3.84-13.34-2.11-4.59-5.45-6.92-9.92-6.92a15.79,15.79,0,0,0-4,.55,1.07,1.07,0,0,1-.25,0,1,1,0,0,1-.93-.63,1,1,0,0,1,.44-1.24,13.72,13.72,0,0,1,6.67-2c3.32,0,6.25,1.59,8.71,4.71a35,35,0,0,1,4.21,7.89l.34.78c.79,1.84,1.4,3.75,2.11,6,.2.62.4,1.27.62,1.95,6.36-6.48,13.71-10.73,20.83-14.85,2.52-1.45,5.12-3,7.61-4.53a1,1,0,0,1,.53-.15,1.12,1.12,0,0,1,.31.05,1,1,0,0,1,.62.58c1.19,3-1,4.12-2.39,4.81l-.43.23c-1.68.93-3.38,1.84-5.08,2.76-2.57,1.39-5.24,2.83-7.81,4.3a32.6,32.6,0,0,0-4.52,3.23c-9.7,8-9.78,8.38-11.85,19.28L85,282.26c-4.29,22.1-10.05,47.51-24.25,69.5-.68,1.05-1.41,2.07-2.12,3.05-.54.74-1.07,1.48-1.58,2.23a16.87,16.87,0,0,0-2.9,12.67,32.59,32.59,0,0,1,0,9.86c-.67,4.36-2.75,7.09-6.18,8.1a1,1,0,0,1-.71.34Z" transform="translate(1 2)"/><path d="M71.68,243.89c3,0,5.64,1.43,7.92,4.33,1.93,2.46,3.16,5.53,4.42,8.45,1.15,2.67,1.91,5.51,3.23,9.42,8.72-9.46,19.52-14.21,29.39-20.43,1,2.36-.91,3-2.37,3.79-4.29,2.37-8.65,4.64-12.91,7.07a33.35,33.35,0,0,0-4.67,3.34c-10.63,8.72-10,8.81-12.63,22.21C79.37,306.24,73.57,330.13,60,351.22c-1.16,1.8-2.49,3.49-3.69,5.26a18,18,0,0,0-3.06,13.4,31.14,31.14,0,0,1,0,9.54c-.52,3.35-2,6.4-5.76,7.37,4.63-5.54,6-11.6,4.06-18.78-1.39-5.1,1.41-9.69,4.33-13.66,6.76-9.22,11.28-19.57,15.59-30,.73-1.79,1.32-3.69,0-6-2.73-4.83-.82-10.5,4-13.85,3.43-2.41,5.39-8.51,3.51-12.22-3.73-7.38-1-13.77,3.29-19.48,1.56-2.06,2.84-3.88,2.35-6.15-1-4.73-2-9.63-4-14-2.19-4.75-5.8-7.5-10.83-7.5a17,17,0,0,0-4.24.58,12.65,12.65,0,0,1,6.18-1.84M47.44,386.79l-.18.22-.14-.14.32-.08m24.24-144.9a14.63,14.63,0,0,0-7.16,2.1,2,2,0,0,0,1,3.74,2.14,2.14,0,0,0,.5-.06,14.68,14.68,0,0,1,3.74-.52c4.05,0,7.08,2.13,9,6.34,1.85,4,2.82,8.65,3.77,13.13l.09.44c.28,1.28-.36,2.38-2,4.53-3.7,4.92-8.08,12.51-3.48,21.59,1.36,2.7-.14,7.76-2.88,9.68-5.87,4.09-7.76,10.86-4.59,16.47.81,1.42.61,2.5-.11,4.26-4.31,10.43-8.73,20.54-15.35,29.58-3.35,4.55-6.23,9.56-4.65,15.37,1.71,6.28.67,11.54-3.29,16.52a2,2,0,0,0-.57,3.22l.14.14a2,2,0,0,0,1.41.59h.08a2.05,2.05,0,0,0,1.19-.45c2.66-.87,5.77-3.12,6.65-8.84a33.22,33.22,0,0,0,0-10.15,15.87,15.87,0,0,1,2.71-11.93c.52-.77,1.06-1.52,1.58-2.24.73-1,1.47-2,2.16-3.1,14.3-22.13,20.09-47.66,24.39-69.85.17-.84.31-1.63.45-2.36,2.08-11,2.08-11,11.49-18.68a31.37,31.37,0,0,1,4.42-3.17c2.54-1.45,5.2-2.89,7.78-4.28,1.69-.91,3.39-1.83,5.08-2.76l.4-.21c1.31-.68,4.39-2.27,2.86-6.08a2,2,0,0,0-1.24-1.15,1.91,1.91,0,0,0-.62-.1,2,2,0,0,0-1.07.31c-2.47,1.55-5.06,3.06-7.57,4.51-6.75,3.9-13.7,7.93-19.87,13.86l-.13-.41c-.72-2.24-1.33-4.17-2.14-6.05l-.34-.78A35.06,35.06,0,0,0,81.17,247c-2.61-3.34-5.9-5.1-9.49-5.1Z" transform="translate(1 2)"/><path class="cls-2" d="M299.69,288.92a1,1,0,0,1-.66-1.75c1.35-1.19,2.61-2.25,3.84-3.27a56.72,56.72,0,0,0,6.28-5.77c4.66-5.16,9.27-10.52,13.72-15.71q3.63-4.23,7.28-8.44c1-1.16,2.1-2.29,3.13-3.38s2-2.11,3-3.19a13.44,13.44,0,0,0,2.83-3.74c.57-1.56.58-2.81,0-3.61a3.71,3.71,0,0,0-3.08-1.15,7.39,7.39,0,0,0-.92.05c-.84.08-1.67.24-2.54.41l-.77.14a.67.67,0,0,1-.21.09,1.75,1.75,0,0,1-.33,0,.89.89,0,0,1-.48-.13l-.11-.07a1,1,0,0,1-.44-1,1,1,0,0,1,.48-.66,5.53,5.53,0,0,1,5-2.73,15.38,15.38,0,0,1,3.75.61c3.57.92,3.87,4,4.12,6.51,0,.49.1,1,.16,1.41l1.16.55c2.75,1.28,6.14,2.86,5.31,7.26,5.51,1.87,6,2.55,5.83,7.91,3.09,1.1,4.66,1.85,5.27,3.3.69,1.62-.14,3.6-1.55,6.69a5.59,5.59,0,0,0-.09,2.4c.05.62.11,1.32.11,2.09a1,1,0,0,1-.7.95,32.86,32.86,0,0,1-4.51,1c-4.28.71-8.7,1.46-11,6.2V282a1,1,0,0,1-1,.78h-.05a1,1,0,0,1-.84-.46,1,1,0,0,1-.07-1l0-.07c.05-.3.08-.61.11-.93.13-1.17.25-2.38,1.12-3.11,2.56-2.18,5.34-4.18,8-6.12l2.19-1.58c.36-.26.73-.51,1.11-.76,1.8-1.2,3.26-2.17,3.18-4.48-4.67.17-7.88,2.83-11.27,5.64l-1.2,1a50.61,50.61,0,0,0-4.72,4.54c-1.11,1.17-2.25,2.37-3.46,3.48q-.33.3-.66.63c-1,1-2.22,2.22-4,2.22a4.2,4.2,0,0,1-1.41-.25.94.94,0,0,1-.68-.29l-.13-.14a1,1,0,0,1,.61-1.67l5.17-4.76q5.64-5.19,11.26-10.41c2.41-2.26,4.7-4.4,5.12-7.63a4.3,4.3,0,0,0-1.84-.44c-1.79,0-3.27,1.36-4.83,2.8l-.15.14c-4.83,4.41-9.71,8.92-14.42,13.29q-5.25,4.86-10.5,9.71a30.08,30.08,0,0,1-3.25,2.21v0a1,1,0,0,1-.73.56.55.55,0,0,1-.18,0,1,1,0,0,1-.71-.29l-.15-.15a1,1,0,0,1-.28-.85,1,1,0,0,1,.5-.73l0,0a18.3,18.3,0,0,1,2.13-3.24.24.24,0,0,1,.08-.09c3.75-3.57,7.6-7.17,11.32-10.64,4-3.69,8.05-7.51,12-11.3a20.72,20.72,0,0,0,4.43-5.66,3.9,3.9,0,0,0-.69-3.47,3.23,3.23,0,0,0-1.88-.43,5.46,5.46,0,0,0-1.69.25,9,9,0,0,0-3.44,2.8c-2.24,2.62-4.43,5.27-6.55,7.84-3.77,4.56-7.67,9.28-11.75,13.71-3.67,4-7.77,7.71-11.73,11.3-1.5,1.36-3,2.72-4.48,4.09a2.89,2.89,0,0,1-1.78.6c-.39,0-.89.12-1.54.24Z" transform="translate(1 2)"/><path d="M335.67,236a14.47,14.47,0,0,1,3.5.58c3.67.94,3.07,4.61,3.63,7.61,3.28,1.74,7.7,2.69,6.18,7.81,6.21,2.06,6.21,2.06,6,7.95,6.45,2.25,6.61,2.79,3.83,8.88-.53,1.17-.07,2.78-.07,4.9-5.21,1.67-12.78.66-16.19,7.81.24-1.26.14-2.92.91-3.57,3.22-2.75,6.73-5.16,10.16-7.66,2.29-1.67,5.31-2.84,4.6-7.05h-.42c-5.9,0-9.67,3.68-13.58,6.86-3,2.42-5.4,5.47-8.23,8.06-1.17,1.07-2.28,2.59-4,2.59a3.28,3.28,0,0,1-1.3-.28c5.6-5.17,11.23-10.31,16.8-15.51,2.63-2.46,5.29-5,5.5-8.94a5.8,5.8,0,0,0-2.9-.86c-2.25,0-4,1.65-5.66,3.2-8.34,7.62-16.59,15.34-24.92,23a29,29,0,0,1-3.34,2.24,16.87,16.87,0,0,1,2.14-3.33c7.74-7.36,15.62-14.57,23.35-21.94a21.62,21.62,0,0,0,4.67-6,4.92,4.92,0,0,0-.9-4.55,4,4,0,0,0-2.6-.73,6.58,6.58,0,0,0-2,.3,10,10,0,0,0-3.92,3.15C330.8,257.66,325,265.09,318.67,272c-5,5.45-10.71,10.28-16.15,15.34-.34.33-1.06.25-2.83.59,4-3.54,7.43-6,10.21-9.12,7.14-7.92,14-16.12,21-24.16,2-2.26,4.12-4.34,6.1-6.57a14.33,14.33,0,0,0,3-4c1.42-3.84-.19-6.16-4-6.16-.32,0-.66,0-1,.05-1.22.12-2.42.4-3.64.61a4.57,4.57,0,0,1,4.31-2.56m-4.31,2.56a.47.47,0,0,1-.05.1l-.11-.07.16,0m-.85,41.84.19.08-.06.06-.13-.14m12,1.14c0,.06,0,.13,0,.19h-.05l.09-.19m-26.37,2.07-.15.32-.15-.15.3-.17M335.67,234a6.46,6.46,0,0,0-5.71,3,2,2,0,0,0,.17,3.26l.11.07a2,2,0,0,0,1.07.31,1.79,1.79,0,0,0,.51-.07,2,2,0,0,0,.41-.15l.52-.1c.85-.17,1.65-.32,2.45-.4a7.75,7.75,0,0,1,.82,0,2.78,2.78,0,0,1,2.26.72,3.17,3.17,0,0,1-.12,2.64,11.94,11.94,0,0,1-2.53,3.34l-.13.13c-.95,1.08-2,2.14-2.95,3.18s-2.11,2.22-3.15,3.39c-2.45,2.82-4.91,5.68-7.29,8.45-4.45,5.19-9.05,10.55-13.7,15.7a56.84,56.84,0,0,1-6.18,5.67c-1.23,1-2.51,2.09-3.87,3.29a2,2,0,0,0,1.33,3.5,1.69,1.69,0,0,0,.38,0c.61-.11,1.09-.18,1.48-.23a3.77,3.77,0,0,0,2.36-.88c1.45-1.35,3-2.73,4.45-4.07,4-3.6,8.09-7.33,11.78-11.36,4.1-4.45,8-9.18,11.79-13.75,2.12-2.56,4.31-5.21,6.5-7.77a.44.44,0,0,0,.08-.11,8,8,0,0,1,3-2.47,4.63,4.63,0,0,1,1.29-.17,3.22,3.22,0,0,1,1.19.18,2.89,2.89,0,0,1,.44,2.35,19.39,19.39,0,0,1-4.14,5.26l0,0c-4,3.8-8.08,7.63-12.05,11.33-3.71,3.46-7.55,7-11.3,10.61l-.17.18a18.75,18.75,0,0,0-2.11,3.19,2,2,0,0,0-.19,3l.15.15a2,2,0,0,0,1.41.59,2.07,2.07,0,0,0,.35,0,2,2,0,0,0,1.31-.86,30.57,30.57,0,0,0,3.06-2.09l.12-.11,10.54-9.73c4.7-4.36,9.57-8.87,14.38-13.26l.15-.15c1.42-1.3,2.76-2.53,4.16-2.53a2.86,2.86,0,0,1,.7.09c-.61,2.46-2.51,4.24-4.67,6.25-3.72,3.47-7.53,7-11.22,10.38l-5,4.6a2,2,0,0,0-1,.74,2,2,0,0,0,.15,2.53l.13.14a2,2,0,0,0,1.35.64,5.53,5.53,0,0,0,1.48.22c2.2,0,3.66-1.45,4.72-2.51.21-.21.41-.41.62-.6,1.24-1.14,2.39-2.35,3.51-3.53a49.42,49.42,0,0,1,4.63-4.45l1.21-1c2.95-2.45,5.76-4.78,9.51-5.3-.32,1-1.2,1.6-2.61,2.54-.39.26-.78.51-1.15.78l-2.18,1.58c-2.7,2-5.5,4-8.1,6.18-1.16,1-1.32,2.52-1.45,3.76,0,.26-.06.51-.09.73a2,2,0,0,0,1.84,2.79,2.07,2.07,0,0,0,2-1.54c2.11-4.18,6.06-4.85,10.23-5.55a34.13,34.13,0,0,0,4.66-1,2,2,0,0,0,1.39-1.91c0-.81-.06-1.54-.11-2.18a6.1,6.1,0,0,1,0-1.89c1.53-3.34,2.42-5.5,1.56-7.5-.73-1.71-2.46-2.61-5.17-3.61.07-5-.72-6.1-5.75-7.88.4-4.52-3.39-6.28-6-7.5l-.65-.3-.09-.85c-.25-2.51-.63-6.29-4.87-7.38a16.55,16.55,0,0,0-4-.64Z" transform="translate(1 2)"/><path class="cls-3" d="M412.46,277.79c1.21,3.95,2.37,7,3,10.09a21.72,21.72,0,0,1,.07,5.16c-3.11-8.73-6.67-18.53-10.1-28.36-2.23-6.38-2.28-13-1.57-19.62.2-1.84.32-3.68.5-5.7-5.87-1.85-11.78-2.22-17.71-6.79,7.86,1.34,13.67,6.1,20.76,3.81,4,2.45,4.58,6.32,4.47,10.87-.09,3.53.9,7.09,1.54,10.62.9,5,1.95,10,2.85,15,.49,2.74-.71,4.49-3.82,4.89" transform="translate(1 2)"/><path class="cls-3" d="M5.5,274.94c11,5,15,2.21,14.12-9.77-.51-6.9,2.5-11,8.49-11a8.4,8.4,0,0,1,5.65,2.22c8.94,10,14.48,30.17,4.8,44.8a17.1,17.1,0,0,1-18.71,6.63c-4.84-1.55-6.18-8-2.51-12.1,5-5.59,3.25-13.15-3.51-15.4-4.2-1.4-8.72,0-10.82,3.3A9.55,9.55,0,0,0,4.25,295a38.41,38.41,0,0,0,2.91,2.65v10.21l.14-.15c-2.15-5-4.45-9.95-6.4-15-2.1-5.51-.63-9.09,5.53-14.4-.24-1-.52-2.25-.79-3.45Zm11.76,4.32c5.85,6,6.39,11.87,1.45,18.54-3.26,4.39-1.2,8.21,4.24,9.12,4,.66,7.94,0,10.73-2.95,2.59-2.77,5.34-5.91,6.49-9.39,4.39-13.22,1.4-25.32-7.14-36.09-2.27-2.87-4.94-3.27-8-1.91s-4,3.68-3.74,6.76a12.41,12.41,0,0,0,.22,1.92c1.27,5.33.79,10.19-4.25,14" transform="translate(1 2)"/><path class="cls-2" d="M406.2,323.67a1,1,0,0,1-.87-.52l-.16-.29a1,1,0,0,1,.28-1.28l.4-.31.42-.75c.61-1.08,1.24-2.21,1.91-3.29,3.23-5.27,3-11.21-.7-15.51l-2.64-3.12c-4.14-4.93-8.43-10-13.31-14.17a43.25,43.25,0,0,0-23.24-10.21c-.9-.1-1.81-.18-2.78-.26l-1.84-.15a1,1,0,0,1-.56-1.76c3.95-3.42,3.95-3.42,1.81-7.8-3.16-6.5-3.8-12.43-1.88-17.62,4.47-12.11,1.63-22.55-9.2-33.85a15,15,0,0,1-2.25-2.44c-1.64-2.71-3.47-3.88-6-3.88a10.47,10.47,0,0,0-1.09.07h-.12a1,1,0,0,1-.57-1.82l9.13-6.31a1,1,0,0,1,.57-.18,1,1,0,0,1,.62.22l.79.63a1,1,0,0,1,.18,1.39l-3.18,4.18,2,2.4c2.11,2.55,4.3,5.19,6.38,7.87,3.83,5,7.49,10.57,8.3,17.66a31.85,31.85,0,0,1-2.17,14.87,15.72,15.72,0,0,0,.77,12.8,53.27,53.27,0,0,1,2.43,6.57c.32,1,.66,2,1,3.12l2,.72c2.58.95,5.51,2,8.46,3.19,9.88,3.92,16.92,11.5,23.73,18.83l.39.42a71,71,0,0,1,5.32,6.57c6,8.31,4.9,16.44-3.15,22.92l-.32.58a1,1,0,0,1-.87.5Z" transform="translate(1 2)"/><path d="M353.52,199.23l.79.63-3.66,4.81c3,3.65,6,7.17,8.86,10.86,3.93,5.11,7.33,10.44,8.1,17.16a30.59,30.59,0,0,1-2.11,14.38,16.74,16.74,0,0,0,.81,13.64c1.42,3,2.24,6.25,3.56,10,3,1.11,6.95,2.51,10.87,4.07,9.86,3.91,16.8,11.51,23.76,19a70.84,70.84,0,0,1,5.24,6.47c5.79,8,4.68,15.5-3.11,21.68.79-1.4,1.56-2.81,2.4-4.18,3.34-5.44,3.27-11.91-.79-16.68-5.12-6-10.09-12.33-16.06-17.4a44.34,44.34,0,0,0-23.77-10.44c-1.46-.17-2.92-.26-4.65-.42,4.26-3.69,4.5-4,2.06-9-2.66-5.46-3.88-11.31-1.84-16.83,5.2-14.09.07-25-9.42-34.89a14.65,14.65,0,0,1-2.17-2.35c-1.61-2.67-3.67-4.28-6.79-4.28a10.37,10.37,0,0,0-1.21.08l9.13-6.31m53.11,122.7-.42.74-.16-.29.58-.45m-53.11-124.7a2.06,2.06,0,0,0-1.14.35l-9.13,6.31a2,2,0,0,0,1.14,3.65h.24a6.71,6.71,0,0,1,1-.07c2.16,0,3.68,1,5.08,3.31,0,.06.07.11.1.16a17.45,17.45,0,0,0,2.4,2.61c10.48,11,13.24,21.06,8.92,32.75-2,5.45-1.37,11.64,1.92,18.4.59,1.21,1.49,3,1.34,3.63s-1.49,1.75-2.91,3a2,2,0,0,0,1.13,3.5l1.86.16c1,.08,1.86.15,2.74.26a42.19,42.19,0,0,1,22.7,10c4.82,4.09,9.08,9.16,13.2,14.05l2.64,3.13c3.37,4,3.6,9.45.61,14.33-.69,1.11-1.32,2.25-1.94,3.35l-.31.55-.23.18a2,2,0,0,0-.55,2.57l.16.29a2,2,0,0,0,1.73,1h0a2,2,0,0,0,1.74-1l.23-.41c8.39-6.84,9.52-15.42,3.18-24.17a73,73,0,0,0-5.38-6.65l-.41-.44c-6.88-7.4-14-15.07-24.09-19.07-3-1.18-5.91-2.25-8.51-3.2l-1.52-.56c-.31-.91-.59-1.79-.87-2.65a54.73,54.73,0,0,0-2.46-6.66.21.21,0,0,0,0-.06,14.77,14.77,0,0,1-.71-12,32.74,32.74,0,0,0,2.23-15.28c-.84-7.37-4.59-13.09-8.5-18.19-2.1-2.7-4.29-5.34-6.42-7.9l-1.48-1.79,2.7-3.55a2,2,0,0,0-.34-2.77l-.79-.63a2,2,0,0,0-1.25-.44Zm53.11,126.7Z" transform="translate(1 2)"/><path class="cls-3" d="M406.06,322.49a21.83,21.83,0,0,1-3,2.43c-8.91,5-17.73,10.16-26.85,14.74-3.51,1.76-7.69,2.23-11.61,3.11-18.16,4.12-36.55,2.61-54.87,2-7.63-.27-14.7-3.19-23.39-5.37,3.3-2.28,5.4-1.58,7.27-1.22,4.8.94,9.59,2,14.33,3.23,8.84,2.33,17.8,1.82,26.78,1.46,8.52-.35,17-.53,25.55-.91,10.89-.49,19.9-5.9,28.78-11.44,5.4-3.37,10.7-6.81,17.12-7.89l-.14-.12" transform="translate(1 2)"/><path class="cls-2" d="M368.76,61.36A1,1,0,0,1,368,61a13.43,13.43,0,0,1-2-5.89,20.31,20.31,0,0,0-.74-3.27c-3,1.69-4.94,2.41-6.47,2.41-3.92,0-4.58-4.65-4.67-9.81L345,48a.92.92,0,0,1-.36.07,1,1,0,0,1-.4-1.92c8.39-3.67,14.33-10.3,19.49-16.94,0-.14.07-.27.11-.4a1,1,0,0,1,.82-.71h.14a1,1,0,0,1,.84.46l.13.2a1,1,0,0,1-.05,1.15l-.15.19a11.18,11.18,0,0,0,.81,7.16,39.71,39.71,0,0,1,2.35,9.89c.1.73.21,1.46.33,2.18a64.64,64.64,0,0,1,.75,11.11,1,1,0,0,1-.7.93A.79.79,0,0,1,368.76,61.36Z" transform="translate(1 2)"/><path d="M364.75,29l.13.2-.28.36c0-.19.1-.37.15-.56m-.15.56a12.1,12.1,0,0,0,.83,8c1.56,3.63,1.95,7.81,2.59,11.8a63.49,63.49,0,0,1,.74,10.93c-2.11-2.92-1.48-6.87-3.07-10-3.09,1.83-5.34,2.84-6.95,2.84-2.79,0-3.66-3.06-3.69-10.27L344.59,47c8.55-3.75,14.51-10.32,20-17.42m.15-2.56-.29,0a2,2,0,0,0-1.63,1.42l-.06.22c-5.81,7.46-11.3,13.12-19,16.49a2,2,0,0,0,.8,3.83,1.89,1.89,0,0,0,.73-.14l7.78-3c.17,4.46,1,9.36,5.64,9.36,1.52,0,3.3-.57,5.85-1.93.15.63.26,1.28.37,1.95a14.42,14.42,0,0,0,2.18,6.31,2,2,0,0,0,1.62.83,2.08,2.08,0,0,0,.6-.09,2,2,0,0,0,1.4-1.87A66.56,66.56,0,0,0,370,49.12c-.12-.72-.23-1.45-.33-2.17a40.69,40.69,0,0,0-2.4-10.11l0-.07a10.07,10.07,0,0,1-.78-6.3h0a2,2,0,0,0,.1-2.31l-.13-.2a2,2,0,0,0-1.68-.91Z" transform="translate(1 2)"/><path class="cls-3" d="M344.43,108.67l5.3-8.61c-7.66,3.16-13.69,9.41-22.36,10.48,15.07-8,26.75-19.62,36.67-34.75-.73,11.7-10.87,28.65-19.61,32.88" transform="translate(1 2)"/><path class="cls-3" d="M221.49,108.81c-8.74-.92-14.8-6.94-22.68-10.7l4.84,8.47c-7.59-2.92-17.81-19.8-19.32-32.49,10.48,14.9,21.42,27.4,37.16,34.72" transform="translate(1 2)"/><path class="cls-2" d="M444.48,364.47c-4.91,0-8.7-3.61-10.12-9.65-1.94-8.28-3.95-16.84-7.49-24.89-1.83-4.16-3.42-8.49-5-12.69-.62-1.7-1.25-3.41-1.89-5.11l-.15-.16a1,1,0,0,1-.13-1.13l.09-.17a1,1,0,0,1,.88-.53h.06a1,1,0,0,1,.87.64l.1.27.64.62a9.25,9.25,0,0,1,2.24,2.81c2.33,5.47,4.78,11.3,6.8,17.25,1.17,3.48,2.1,7.08,3,10.57.47,1.81.93,3.61,1.43,5.41a69.45,69.45,0,0,0,2.74,9.11,7.2,7.2,0,0,0,9.57,3.29c.16-.08.32-.16.47-.25,2.59-1.48,3.24-3.53,2-6.25l-.35-.78a14.6,14.6,0,0,0-2.64-4.41,43.1,43.1,0,0,1-10.08-16c-1.32-3.39-2.39-7-3.44-10.42q-.69-2.31-1.41-4.61a1,1,0,0,1,.64-1.25l1.54-.51a1.06,1.06,0,0,1,.31-.05,1,1,0,0,1,.49.13,1,1,0,0,1,.49.65c.13.59.25,1.18.37,1.77.25,1.19.51,2.43.85,3.59.41,1.37.92,2.74,1.42,4.06.24.63.47,1.25.7,1.88a51.44,51.44,0,0,0,9.82,17.38c3.45,3.89,5.36,8.62,7.21,13.19l.84,2.05a1,1,0,0,1,.14,1.57l-.14.13a1,1,0,0,1-.68.27l-.21,0a1,1,0,0,1-.71-.59,3.34,3.34,0,0,0-1.69-.67,3.17,3.17,0,0,0-1.68.68A14.21,14.21,0,0,1,444.48,364.47Z" transform="translate(1 2)"/><path d="M420.71,311.14c.06.15.12.3.17.46l-.26-.29.09-.17m.17.46c1,1.06,2.28,2,2.82,3.28,2.42,5.66,4.8,11.35,6.77,17.17,1.76,5.21,2.94,10.62,4.42,15.93a70.35,70.35,0,0,0,2.76,9.19A8.19,8.19,0,0,0,448.59,361c.18-.08.36-.18.54-.28,3-1.72,3.89-4.3,2.39-7.54-.89-1.92-1.74-4.07-3.21-5.49a42,42,0,0,1-9.83-15.6c-1.89-4.89-3.25-10-4.84-15l1.54-.51c.41,1.81.72,3.65,1.24,5.42.61,2.05,1.42,4,2.14,6a52.59,52.59,0,0,0,10,17.69c3.93,4.43,5.79,9.95,8,15.27a4.75,4.75,0,0,0-2.49-1,4,4,0,0,0-2.25.86,13.16,13.16,0,0,1-7.35,2.63c-4.32,0-7.78-3.08-9.15-8.88-2-8.53-4-17-7.54-25.06-2.57-5.85-4.64-11.95-6.91-17.93M456.57,361l.26.16-.14.13-.12-.29m-35.86-51.83a2,2,0,0,0-1.77,1.06l-.09.17a2,2,0,0,0,.28,2.27l0,0c.62,1.63,1.22,3.27,1.82,4.92,1.55,4.21,3.15,8.56,5,12.75,3.5,8,5.49,16.47,7.42,24.71,1.54,6.53,5.69,10.42,11.1,10.42a15.22,15.22,0,0,0,8.49-3,2.29,2.29,0,0,1,1.11-.51,2.24,2.24,0,0,1,.95.39,2,2,0,0,0,1.24.84,1.51,1.51,0,0,0,.42.05,2,2,0,0,0,1.36-.53l.14-.13a2,2,0,0,0,0-2.93c-.24-.6-.49-1.2-.73-1.81-1.88-4.64-3.82-9.45-7.4-13.49a50.09,50.09,0,0,1-9.6-17l0-.05c-.23-.64-.47-1.27-.7-1.9-.52-1.36-1-2.65-1.4-4-.33-1.12-.57-2.28-.83-3.51-.12-.59-.25-1.19-.38-1.78a2,2,0,0,0-1.95-1.56,2,2,0,0,0-.63.1l-1.54.51a2,2,0,0,0-1.28,2.51c.49,1.51,1,3.07,1.41,4.58,1.05,3.47,2.13,7,3.46,10.5a44.34,44.34,0,0,0,10.29,16.32,13.77,13.77,0,0,1,2.46,4.14l.36.78c1,2.25.57,3.74-1.57,5l-.41.22a6.11,6.11,0,0,1-2.68.61,6.24,6.24,0,0,1-5.56-3.44,68.53,68.53,0,0,1-2.65-8.84s0-.07,0-.1c-.5-1.79-1-3.62-1.43-5.4-.91-3.5-1.84-7.12-3-10.63-2-6-4.48-11.84-6.82-17.32a10.13,10.13,0,0,0-2.47-3.14l-.47-.46,0-.06a2,2,0,0,0-1.75-1.29Z" transform="translate(1 2)"/><path class="cls-2" d="M256.69,317a6.23,6.23,0,0,1-3.87-1,34.53,34.53,0,0,1-13.3-20.27l-.16-.21a1,1,0,0,1-.18-.75,1,1,0,0,1,.41-.66l.17-.12a1,1,0,0,1,.58-.18,1,1,0,0,1,.37.07,1,1,0,0,1,.61.73l.06.28c1.4,1.92,2.8,3.87,4.36,6l.66.92c11-6,21.28-11.87,26.49-23.79,1.75-4,3.72-8.5,9.07-10.33a1.13,1.13,0,0,1,.32-.05,1,1,0,0,1,.78.38,1,1,0,0,1,.07,1.15c-1.15,1.85-2.26,3.74-3.33,5.57a99,99,0,0,1-8,12.27c-3.24,4-7.4,7.24-11.42,10.39l-2,1.59a66.46,66.46,0,0,1-7,4.66c-.86.53-1.73,1-2.58,1.59,2,5.54,4.06,7,9.55,7.2l1.14,0c2.59,0,5.26-.24,7.85-.47,1.22-.11,2.44-.22,3.66-.31a32.76,32.76,0,0,1,9.37.21,1,1,0,0,1,.83.82,1,1,0,0,1-.51,1.05,13.09,13.09,0,0,1-3.06,1.18l-.13,0c-6.07.68-12.6,1.38-19.14,1.92C257.8,317,257.25,317,256.69,317Z" transform="translate(1 2)"/><path d="M282.28,268.71h0m0,0c-3.83,6.16-7,12.44-11.28,17.74-3.7,4.55-8.64,8.14-13.29,11.83-3.15,2.49-6.76,4.42-10.16,6.61,2.15,6.4,4.38,8.44,10.72,8.62l1.17,0c3.85,0,7.72-.51,11.58-.78a31.45,31.45,0,0,1,3.88-.24,32,32,0,0,1,5.26.44,11.94,11.94,0,0,1-2.82,1.09c-6.36.71-12.73,1.39-19.11,1.91-.48,0-1,.07-1.54.07a5.51,5.51,0,0,1-3.26-.77,33.55,33.55,0,0,1-13-19.9l5.66,7.83c11.35-6.22,22.25-12.23,27.7-24.69,1.75-4,3.59-8.11,8.47-9.78m-41.94,26.14c0,.17.07.33.11.5l-.28-.38.17-.12m41.94-28.14h-.18a1.72,1.72,0,0,0-.51.11c-5.73,2-7.88,6.9-9.61,10.86-5,11.33-14.74,17.09-25.28,22.89l0-.05-4.36-6v-.07a2,2,0,0,0-1.22-1.46,2.11,2.11,0,0,0-.74-.14,1.92,1.92,0,0,0-1.15.37l-.17.12a2,2,0,0,0-.82,1.3,2,2,0,0,0,.35,1.51l0,0a35.52,35.52,0,0,0,13.66,20.67,7.16,7.16,0,0,0,4.44,1.16c.51,0,1.07,0,1.7-.08,6.54-.53,13.08-1.23,19.17-1.91l.25,0a14,14,0,0,0,3.31-1.27,2,2,0,0,0-.63-3.73,33.83,33.83,0,0,0-5.59-.47,34.47,34.47,0,0,0-4.07.25c-1.22.08-2.44.19-3.63.3-2.56.23-5.21.47-7.76.47l-1.11,0c-4.87-.14-6.61-1.22-8.36-5.78l1.88-1.15a68.94,68.94,0,0,0,7.1-4.73c.67-.54,1.35-1.07,2-1.6,4.06-3.18,8.27-6.47,11.57-10.54a97,97,0,0,0,8.11-12.4c1.06-1.8,2.15-3.66,3.28-5.48a2,2,0,0,0,.34-1.12,2,2,0,0,0-2-2Zm0,4h0Z" transform="translate(1 2)"/><path class="cls-3" d="M7.16,307.82c5.52,8.14,13.6,9.52,22.57,8.63,1.48-.15,3-.26,4.46-.29.35,0,.71.39,1.81,1a64.2,64.2,0,0,1-2.29,6.11,29.3,29.3,0,0,0-3.09,16.09c.61,6.49-2.6,12.15-6.79,16.7-3.42,3.71-7.84,6.58-12.08,9.4s-7.17,6-6.51,11.94c-2.17-5.59-1.73-7.43,2.92-11.25A81.6,81.6,0,0,1,17,359.73c8.83-5.51,12.91-13.35,12.18-23.72a19,19,0,0,1,2.07-10.54c1.17-2.19,1.71-4.71,2.72-7.65-3.56.22-6.48.69-9.36.51a38,38,0,0,1-8.17-1.6c-4.6-1.37-9.09-3-9.12-9.09l-.13.14" transform="translate(1 2)"/><path class="cls-3" d="M336.46,35.86c.47-8.68,8.63-15.75,16.21-14.39,2.11.38,2.85,1.73,2.26,3.72-1.88,6.32-11.4,12-18.47,10.67" transform="translate(1 2)"/><path class="cls-3" d="M363.44,301.21c-3.13,0-6.26.08-9.39,0-10.47-.32-20.22,2.88-29.81,6.38-9.94,3.62-20.23,5.24-30.61,6.59a34.39,34.39,0,0,1-5.83-.22c.63-.86.87-1.44,1.09-1.43,14.58.21,28.1-4.62,41.79-8.67,8.6-2.55,17.13-5.5,26.31-4.42,2.21.26,4.38.81,6.57,1.23l-.12.56" transform="translate(1 2)"/><path class="cls-3" d="M456.72,361.3l10-.17c2.09-3.58,1.71-6.21-.1-8.62-1.53-2-2.88-4.58-5-5.78-7.88-4.56-11.23-12-13.72-20.1-1.61-5.19-4-10.27-3.66-15.59,2.73,7.49,5.3,15.28,8.46,22.82a23.41,23.41,0,0,0,5.87,8.12c4.64,4.14,9.35,8,11.94,13.95,1.58,3.65,5.29,3.92,8.86,3.75l5.55-.31v-.08c-4.4,1.69-8.8,3.43-13.42.07-4.52,3.86-9.22,6.32-14.62,1.8l-.16.14" transform="translate(1 2)"/><path class="cls-2" d="M251.84,125.1a1.86,1.86,0,0,1-1-.22c-2.43-1.62-4.79-3.26-7.29-5L241,118.07a1,1,0,0,1-.37-1.16,1,1,0,0,1,.94-.66h.09c2.36.21,4.69.37,7,.53,5.13.36,10,.69,14.85,1.48a42.63,42.63,0,0,0,6.91.53h0a108.84,108.84,0,0,0,11-.75c2-.2,4-.4,6.07-.55a38.44,38.44,0,0,0,7-1.36c1-.26,2.05-.52,3.09-.76a1.22,1.22,0,0,1,.38-.13h.14a1,1,0,0,1,.92.62,1,1,0,0,1,0,.67,4.44,4.44,0,0,1-4.5,4.31c-3.1.24-6.25.62-9.3,1-4.8.58-9.76,1.17-14.76,1.28h-.56a49.83,49.83,0,0,1-8.08-.87,52.37,52.37,0,0,0-8.24-.87h-.79l1.18,2.16a1,1,0,0,1,0,1,1,1,0,0,1-.86.49,5.65,5.65,0,0,0-.59,0A5.58,5.58,0,0,1,251.84,125.1Z" transform="translate(1 2)"/><path d="M298.06,116.23l0,0h0v-.06m0,.06c-.25,2.13-1.18,3.35-3.6,3.54-8,.63-15.88,2.09-24,2.26h-.54c-5.43,0-10.56-1.74-16.32-1.74-.79,0-1.6,0-2.42.11L253.1,124c-.45,0-.9.09-1.26.09a.92.92,0,0,1-.46-.09c-3.15-2.1-6.24-4.28-9.82-6.76,7.55.66,14.73.86,21.76,2a43.42,43.42,0,0,0,7.07.54c5.75,0,11.44-.89,17.16-1.3,3.54-.25,7-1.44,10.5-2.2m0-2.06-.27,0a2.08,2.08,0,0,0-.6.18c-1,.23-2,.48-3,.73a37.15,37.15,0,0,1-6.79,1.33c-2.05.15-4.11.36-6.1.56-3.59.36-7.3.74-10.92.74a41.82,41.82,0,0,1-6.75-.51c-4.92-.8-9.78-1.14-14.94-1.5-2.27-.15-4.62-.32-7-.52h-.17a2,2,0,0,0-1.14,3.64l2.61,1.82c2.5,1.74,4.87,3.38,7.24,5l.12.08a2.86,2.86,0,0,0,1.45.35c.28,0,.55,0,.78,0s.35,0,.48,0a2,2,0,0,0,1.72-1,2,2,0,0,0,0-2l-.37-.67a55.9,55.9,0,0,1,7.18.84,51.32,51.32,0,0,0,8.24.88h.58c5.05-.11,10-.7,14.86-1.28,3-.37,6.17-.74,9.26-1a5.38,5.38,0,0,0,5.4-5,2,2,0,0,0-.07-1.24l0-.05a2,2,0,0,0-1.86-1.26Z" transform="translate(1 2)"/><path class="cls-3" d="M240,239.25c-1.32,0-2.91.44-4.07-.08-3.93-1.79-8.32-12.83-7.05-17.24.09-.33.57-.57.87-.85,7.47,3.09,11.74,10.44,10.25,18.17" transform="translate(1 2)"/><path class="cls-2" d="M466.13,301.5a1,1,0,0,1-.74-.33l-.12-.13c-5.73-2-7.83-7.05-9.7-11.56-.23-.57-.46-1.13-.7-1.69-5.57-12.94-5.51-26.69-4.63-39.62A17.72,17.72,0,0,1,454.79,238a8,8,0,0,1,5.93-2.57,13.32,13.32,0,0,1,6.66,2.1h.16a1,1,0,0,1,.95.67,1,1,0,0,1-.33,1.12l-.19.15a1,1,0,0,1-.62.21,1,1,0,0,1-.53-.15H465c-1.12-.07-2-.1-2.83-.1-5.46,0-7.5,1.28-8.08,8.51a133.2,133.2,0,0,0,.55,25.8A46.43,46.43,0,0,0,466.4,299.3l.09,0a1,1,0,0,1,.65,1.35l-.09.21a1,1,0,0,1-.76.6Z" transform="translate(1 2)"/><path d="M460.72,236.38a12.71,12.71,0,0,1,6.39,2.1H465c-1-.07-2-.1-2.82-.1-6.34,0-8.49,2-9.09,9.43a133.69,133.69,0,0,0,.56,26,47.53,47.53,0,0,0,12.21,26.37c-6.17-2-7.88-7.73-10-12.78-5.39-12.53-5.46-25.88-4.55-39.16a16.48,16.48,0,0,1,4.29-9.61,7,7,0,0,1,5.19-2.25m6.82,2.1-.19.15-.24-.15h.43m-1.7,61.7.38.11-.09.21c-.1-.11-.19-.22-.29-.32m-5.12-65.8h0a8.94,8.94,0,0,0-6.62,2.86l0,0a18.56,18.56,0,0,0-4.81,10.77v0c-.89,13.06-.94,27,4.71,40.09.24.55.47,1.11.7,1.67,1.92,4.64,4.08,9.89,10.05,12a2,2,0,0,0,1.43.6l.33,0a2,2,0,0,0,1.51-1.18l.09-.21a2.06,2.06,0,0,0,0-1.65,2,2,0,0,0-1.06-1,45.38,45.38,0,0,1-11.35-24.86,132.16,132.16,0,0,1-.56-25.62c.54-6.64,2-7.58,7.1-7.58.78,0,1.66,0,2.69.1h1.74a2,2,0,0,0,2-.28l.19-.15a2,2,0,0,0-1.12-3.57,14.17,14.17,0,0,0-6.94-2.1Zm6.82,6.1h0Z" transform="translate(1 2)"/><path class="cls-3" d="M152.33,263c1.25,1.39,3.23,2.6,3.62,4.2,1.72,7.17,7.06,11.44,12.1,16a100.15,100.15,0,0,0,32,19.57,17.78,17.78,0,0,1,2.85,1.37c.23.14.24.67.62,1.83-2.79-1-5.19-1.61-7.44-2.61-13.79-6.15-26.35-14.27-36.23-25.74-3.46-4-5-9.72-7.37-14.66l-.14.14" transform="translate(1 2)"/><path class="cls-3" d="M484.67,346.06c-5.07-.38-10.19-.47-15.21-1.24a6.08,6.08,0,0,1-5.53-6.15,9.27,9.27,0,0,0-3.88-7.77c-4-2.71-5.42-6.9-5.86-11-.65-6.12-.18-12.36-.1-18.55,0-.69.62-1.36,1.4-2.93,1.05,3,1.79,5.17,2.59,7.47-3.79,2.19-2.45,5.92-2.72,9.1-.48,5.6,1.12,10.65,5.3,14.54,2.77,2.57,5,5.21,5,9.26,0,2.52,1.81,3.81,4.07,4.31,2.08.46,4.24.58,6.33,1,2.86.6,5.69,1.37,8.52,2.09l.08-.13" transform="translate(1 2)"/><path class="cls-3" d="M5.64,274.79c-4.63-5.92-4.56-12.21.29-17.69A28.81,28.81,0,0,1,21,248a29.89,29.89,0,0,0,15.66-9.21c2.67-2.9,6.4-4.82,9.66-7.18l-.11-.11c-6.27,6.78-11.87,14.37-21.21,17.36a52.18,52.18,0,0,0-5.51,1.66c-6.66,3-12.9,6.18-15.55,14-1.4,4.15,1.56,6.91,1.56,10.43l.14-.14" transform="translate(1 2)"/><path class="cls-2" d="M174.85,246.73a1,1,0,0,1-.77-.37l-.14-.17a1,1,0,0,1-.19-.91l0-.07c-.23-1.66-.48-3.4-.8-5.63l-1.22-.13a41,41,0,0,0-4.33-.31h-1a138.86,138.86,0,0,0-43.27,6.9,14,14,0,0,1-4.5.5c-.65,0-1.31,0-2,.06h-.07a1,1,0,0,1-1-.82,1,1,0,0,1,.69-1.14c2-.6,4-1.25,6-1.89a119.9,119.9,0,0,1,14.24-4c8.52-1.63,19.76-3.49,31.16-3.49,3.14,0,6.24.14,9.21.42a.75.75,0,0,1,.29-.09h.13a1,1,0,0,1,.86.48l.09.15a1,1,0,0,1,0,1l-.15.19-.78,2.62q-.78,2.63-1.54,5.26l0,.24a1,1,0,0,1-.59,1.05A1.14,1.14,0,0,1,174.85,246.73Z" transform="translate(1 2)"/><path d="M167.7,236.29c3.2,0,6.39.14,9.6.46-.84,2.86-1.69,5.67-2.51,8.53-.26-1.92-.55-3.91-.94-6.63-2-.16-4.2-.51-6.43-.51h-1a140,140,0,0,0-43.57,7c-1.91.64-4.12.36-6.21.51,6.69-2,13.3-4.53,20.14-5.84,10.23-1.95,20.56-3.47,31-3.47m9.64.32.09.15h-.13l0-.14m-2.55,8.67.06.45-.14-.17.08-.28m-7.09-11c-11.48,0-22.77,1.87-31.34,3.51a120.32,120.32,0,0,0-14.36,4c-2,.63-4,1.29-6,1.88a2,2,0,0,0,.57,3.92h.14c.6,0,1.23,0,1.89-.05a15.38,15.38,0,0,0,4.82-.55,137.52,137.52,0,0,1,42.93-6.85h1a39.53,39.53,0,0,1,4.23.3l.45.05c.26,1.79.47,3.26.66,4.66a2,2,0,0,0,.42,1.68l.14.17a2,2,0,0,0,1.54.73,1.89,1.89,0,0,0,.8-.17,2,2,0,0,0,1.18-2.1v0c.49-1.69,1-3.37,1.49-5.06.23-.8.47-1.6.71-2.4l.09-.14a2,2,0,0,0,0-2.1l-.09-.15a2,2,0,0,0-1.72-1l-.25,0a1.55,1.55,0,0,0-.31.06c-2.93-.27-6-.4-9.08-.4Z" transform="translate(1 2)"/><path class="cls-3" d="M198.68,202.43c.74-2.63,0-4.83-1.24-7.27-3.31-6.45-6.71-12.89-6.69-20.54,0-4.51,1.27-8.51,2.92-13.14-.29,6.15-1.6,11.81-.51,17,1.28,6.13,4.37,12,7.24,17.61.76,1.5,3.49,2.44,5.46,2.77,4.63.76,9.34,1,14,1.43,1.79.16,3.59.27,5.39.41,0,.47-.08.94-.11,1.4-5.58-.43-11.17-.73-16.72-1.35a16.57,16.57,0,0,0-9.89,1.56l.14.15" transform="translate(1 2)"/><path class="cls-3" d="M339.21,47.37c-12.38,1.88-19.81-6.87-16-18.48,3.33-10.1,10.39-16.45,21.58-18.64a27.91,27.91,0,0,1-3,1.94,33.46,33.46,0,0,0-14.38,12.42,21,21,0,0,0-3.17,9.5c-.48,6.5,2.33,9.81,8.64,11.61,2,.58,4.09,1.07,6.36,1.65" transform="translate(1 2)"/><path class="cls-3" d="M47.13,386.87c-.35.24-.75.74-1,.68-5.15-1.1-10.23,0-15.34.12-3.2.1-6.48-2.38-9.59-4.14-3.85-.13-7.57,3.27-11.93.69,6.78-.2,12.07-2.79,15.51-8.74.29-.49,1.49-.46,2.27-.66h0l-3.78,6.36c3.16,4.71,7,6,11.8,4s6.89-5.66,6.09-10.5A41.89,41.89,0,0,0,40,370.42l-.1.12c5.34,4,2.54,8.93,1.09,14.38,2.16.73,4.22,1.41,6.29,2.12l-.12-.14" transform="translate(1 2)"/><path class="cls-2" d="M210.5,293.23l-.67,0a20.28,20.28,0,0,1-7.05-2c-6.37-3.07-13.78-6.67-21-10.58a19.46,19.46,0,0,1-4.2-3.47c-.35-.36-.71-.72-1.08-1.07l-.58-.29a1,1,0,0,1-.55-.77,1,1,0,0,1,.33-.88l.17-.15a1,1,0,0,1,1.32,0c.16.14.32.28.47.43l6.49,3.2,8.55,4.22c1.54.77,3.07,1.56,4.59,2.34,2.59,1.34,5.28,2.72,7.95,4a10.5,10.5,0,0,0,5.12,1.34,10.09,10.09,0,0,0,2.33-.26l-.52-.88a16.8,16.8,0,0,0-2.2-3.16c-1.26-1.29-2.66-2.52-4-3.7-1.18-1-2.39-2.08-3.53-3.2A21,21,0,0,1,200.1,275l0,0a1,1,0,0,1-.41-1,1,1,0,0,1,.76-.79l.13,0,.22,0a1,1,0,0,1,.87.51c5.4,3.8,12,8.54,16.28,17.08a1,1,0,0,1-.74,1.43c-.92.15-1.76.33-2.55.5A19.81,19.81,0,0,1,210.5,293.23Z" transform="translate(1 2)"/><path d="M200.75,274.11l.11.2-.24-.17.13,0m.11.2c6.13,4.3,12.14,8.75,16.14,16.83-2.62.44-4.6,1.09-6.5,1.09l-.59,0a19.27,19.27,0,0,1-6.69-1.88c-7-3.37-14.07-6.83-20.94-10.56-2-1.06-3.5-2.9-5.18-4.49,5.05,2.5,10.12,5,15.18,7.49,4.19,2.1,8.32,4.32,12.55,6.33a11.41,11.41,0,0,0,9.43.76c-1.35-2.06-2.2-3.93-3.55-5.32-2.38-2.44-5.12-4.52-7.56-6.91a20.41,20.41,0,0,1-2.29-3.32m-24.31.46c.19.17.37.33.55.51l-.72-.36.17-.15m24.2-2.66a2.3,2.3,0,0,0-.45.05l-.13,0a2,2,0,0,0-.84,3.48,23.17,23.17,0,0,0,2.29,3.25l.13.14c1.16,1.14,2.39,2.2,3.57,3.24,1.4,1.22,2.73,2.37,4,3.64a13.82,13.82,0,0,1,1.82,2.58l-.72,0a9.35,9.35,0,0,1-4.57-1.19l-.12-.06c-2.66-1.26-5.33-2.63-7.91-4-1.53-.79-3.06-1.58-4.6-2.35l-8.59-4.24-6.34-3.12-.37-.34a2,2,0,0,0-2.65,0l-.17.15a2,2,0,0,0,.43,3.29l.45.22,1,.95a19.87,19.87,0,0,0,4.42,3.65c7.23,3.92,14.65,7.53,21,10.6a21.23,21.23,0,0,0,7.38,2.07l.77,0a20.65,20.65,0,0,0,4.32-.62c.79-.17,1.61-.35,2.51-.5a2,2,0,0,0,1.45-1.06,2,2,0,0,0,0-1.8c-4-8.06-9.8-12.66-16.44-17.34a2,2,0,0,0-1.6-.8Z" transform="translate(1 2)"/><path class="cls-3" d="M149.55,277.38c4.4,0,6.54,3.56,9.25,6.14,2.47,2.35,4.6,5.08,7.14,7.34,7.66,6.82,17.18,10.09,26.59,13.54a8.91,8.91,0,0,1,3.21,1.68,68.16,68.16,0,0,1-20.27-6.4,52.67,52.67,0,0,1-17.34-13.89c-2.52-3.09-5.61-5.73-8.44-8.56l-.14.15" transform="translate(1 2)"/><path class="cls-3" d="M27.06,374.82c-1.19-4.26-.41-8.3,2.6-11.35,10.49-10.66,13.57-24.34,16.16-38.27a74.3,74.3,0,0,1,2-9.07c0,9.37-2.24,18.3-4.76,27.25a50.06,50.06,0,0,1-11.18,19.88,19.09,19.09,0,0,0-4.87,11.5v.06" transform="translate(1 2)"/><path class="cls-2" d="M471.93,303.36a11.44,11.44,0,0,1-5.71-1.93h-.14a1,1,0,0,1-.83-.52,1,1,0,0,1,0-1l.09-.16a1,1,0,0,1,.62-.48,1.07,1.07,0,0,1,.25,0,1,1,0,0,1,.53.15l.1.06,1,.11a15.43,15.43,0,0,0,2,.17,4.31,4.31,0,0,0,1.14-.13,7.77,7.77,0,0,0,4.22-2.36c1.16-1.63.65-3.49-.61-6.15-2.86-6-5.49-12.87-.77-19.38a11.41,11.41,0,0,0-1.33-2.15c-1.25-1.71-2.79-3.83-.92-6.62a1,1,0,0,1,.35-.78,1,1,0,0,1,.65-.24.94.94,0,0,1,.43.1l.19.09a1,1,0,0,1,.54.68.87.87,0,0,1,0,.48c1.53,5,1.67,5,7,5.58.79.08,1.58.21,2.34.33l.33.05.21,0a1,1,0,0,1,.54.16l.14.09a1,1,0,0,1-.54,1.84h-.06a19.64,19.64,0,0,1-3.07,1.27l-.1,0c-4.38.9-6.44,3.7-5.79,7.87a29.35,29.35,0,0,0,1.61,5.22c.38,1,.79,2,1.18,3s.82,1.95,1.18,3c1.38,3.9.64,7.29-2.14,9.8A6.7,6.7,0,0,1,471.93,303.36Z" transform="translate(1 2)"/><path d="M472.52,262.94l.19.09-.12.15-.07-.24m.07.24c1.83,6,2,6.05,8,6.68,1,.1,1.93.27,2.89.42a18.65,18.65,0,0,1-3.19,1.36c-4.85,1-7.32,4.23-6.58,9a30.41,30.41,0,0,0,1.68,5.45c.72,2,1.62,3.9,2.34,5.89,1.16,3.27.78,6.33-1.87,8.72a5.68,5.68,0,0,1-3.92,1.66,11,11,0,0,1-5.4-1.91c1.08.09,2.2.3,3.26.3a5.81,5.81,0,0,0,1.39-.16,8.8,8.8,0,0,0,4.75-2.7c1.63-2.24.67-4.77-.49-7.21-3-6.27-5.32-12.66-.55-18.77-.92-3.2-5.07-5.12-2.3-8.73m11,7.05.14.09-.24,0,.1,0m-17.35,30,.31.19-.4,0,.09-.16m6.3-39.32a2,2,0,0,0-1.31.49,2,2,0,0,0-.67,1.2c-2,3.25-.17,5.81,1.09,7.54a14.43,14.43,0,0,1,1,1.47c-4.57,6.79-1.89,13.81,1,19.9,1.27,2.69,1.47,4,.73,5.09a6.71,6.71,0,0,1-3.59,2l-.1,0a3.26,3.26,0,0,1-.89.1,16,16,0,0,1-1.84-.16l-.78-.09a2,2,0,0,0-.95-.24,2.14,2.14,0,0,0-.5.06,2,2,0,0,0-1.24,1l-.09.16a2,2,0,0,0,1.53,3,12.15,12.15,0,0,0,6,1.95,7.67,7.67,0,0,0,5.26-2.17c3.06-2.77,3.92-6.63,2.41-10.88-.37-1-.79-2-1.19-3s-.8-1.92-1.15-2.89l0-.08a28.91,28.91,0,0,1-1.56-5.05c-.55-3.63,1.14-5.88,5-6.68l.21-.06a20.78,20.78,0,0,0,3-1.23,2,2,0,0,0,.88-3.67l-.14-.09a2,2,0,0,0-1.08-.32h-.2l-.18,0c-.78-.12-1.58-.25-2.4-.34-2.36-.25-3.92-.41-4.49-.88s-1-1.71-1.6-3.76a2,2,0,0,0,0-.64,2,2,0,0,0-1.09-1.37l-.19-.09a2,2,0,0,0-.86-.19Z" transform="translate(1 2)"/><path class="cls-3" d="M157.37,207.47c-2.08,2.25-3.89,4.85-6.28,6.7-9.52,7.38-20.63,11.5-32,14.93-3.2,1-6.5,1.59-9.75,2.37l.1.06c2.16-1.11,4.21-2.73,6.52-3.27a95.31,95.31,0,0,0,39.88-19.83,7.18,7.18,0,0,1,1.71-.79l-.16-.17" transform="translate(1 2)"/><path class="cls-2" d="M357.33,192.64l-.18,0a1,1,0,0,1-.76-.63c-.14-.37-.27-.74-.38-1.12s-.38-.79-.58-1.19a25.23,25.23,0,0,1-2.12-5.37c-2-8.94-1.45-18-.87-26.75.1-1.51.19-3,.28-4.53a1,1,0,0,1,.93-.94L355,152a1,1,0,0,1,1,.94l.09,1.37c.08,1,.16,2.12.16,3.22,0,3,0,6.05-.06,9.08,0,3.75-.07,7.63,0,11.44,0,.22,0,.43,0,.65,0,.85,0,1.9.32,2.28a1.19,1.19,0,0,0,.84.23h.11a1,1,0,0,1,.65-.29h.05a1,1,0,0,1,.72.31l.18.19a1,1,0,0,1-.5,1.67c-1.29,2-1.47,4.18-.59,7.06.16.33.31.67.46,1a1,1,0,0,1-.17,1.06l-.08.09A1,1,0,0,1,357.33,192.64Z" transform="translate(1 2)"/><path d="M355,153c.09,1.51.25,3,.25,4.53,0,6.85-.15,13.69-.11,20.53,0,1.79-.37,4.15,2.15,4.15.19,0,.4,0,.63,0-1.92,2.65-1.84,5.46-.94,8.34a32.38,32.38,0,0,1-2.66-6.42c-2.35-10.31-1.15-20.67-.56-31L355,153m3.1,28.92.18.19-.36.06.18-.25m-1.12,8.59c.16.35.32.69.47,1l-.08.09c-.14-.38-.27-.75-.39-1.13M355,151h-.14l-1.24.09a2,2,0,0,0-1.86,1.88c-.08,1.5-.18,3-.28,4.52-.58,8.82-1.18,17.95.89,27a26,26,0,0,0,2.2,5.59c.18.37.37.75.54,1.12s.25.73.39,1.11a2,2,0,0,0,1.51,1.26l.36,0a2,2,0,0,0,1.49-.67l.08-.09a2,2,0,0,0,.35-2.12c-.14-.33-.29-.65-.44-1-.74-2.43-.65-4.24.32-5.89a2,2,0,0,0,.56-3.17l-.18-.19a2,2,0,0,0-1.45-.62H358a2.14,2.14,0,0,0-.83.23,9.53,9.53,0,0,1,0-1.43c0-.22,0-.45,0-.66,0-3.82,0-7.7,0-11.45,0-3,.06-6.05.06-9.08,0-1.14-.08-2.24-.16-3.3,0-.45-.07-.9-.09-1.35a2,2,0,0,0-2-1.88Z" transform="translate(1 2)"/><path class="cls-3" d="M109.32,231.46c-10.22,2.06-20.4,4.36-30.67,6.07-4.23.7-8.66.11-13-.83,5.17-.37,10.38-.45,15.5-1.19,7.36-1.08,14.63-2.72,22-3.95a37.75,37.75,0,0,1,6.29-.05h-.07" transform="translate(1 2)"/><path class="cls-3" d="M44.25,355.55c1.33-3.07,2.32-6.35,4.06-9.16a67.12,67.12,0,0,0,9.42-25.28c.11-.7.9-1.3,1.37-1.95l-.08-.1c-.11,12.94-6.16,23.68-12.71,34.22a12.56,12.56,0,0,1-2.21,2.1l.15.17" transform="translate(1 2)"/><path class="cls-3" d="M177.44,236.72c.08-2-.45-4.33.35-6a88.29,88.29,0,0,1,20.89-28.27l-.14-.15c-2.8,3.92-5.53,7.9-8.42,11.75-5.24,7-10.26,14-12.8,22.54l.12.14" transform="translate(1 2)"/><path class="cls-3" d="M331.15,238.49c-4.22,7.34-8.31,14.77-12.74,22-1.74,2.84-4.25,5.2-6.41,7.78l.17.15c2.64-4.54,5.31-9.06,7.9-13.63,1.87-3.29,3.67-6.62,5.45-10,1.38-2.59,2.27-5.61,5.79-6.18l-.16-.15" transform="translate(1 2)"/><path class="cls-2" d="M264.3,303.86a1,1,0,0,1-.82-.43c-.31-.45-.62-.89-.94-1.32a1,1,0,0,1,.1-1.3l5-5,3.21-3.24,1.21-1.23a1,1,0,0,1,.56-.85,1,1,0,0,1,.44-.1,1,1,0,0,1,.71.29l.18.18a1,1,0,0,1,.19,1.15c0,.36.09.76.15,1.25l8.18-3.26a1,1,0,0,1,.37-.07,1,1,0,0,1,.88,1.48,9.16,9.16,0,0,1-5,4.16,10.24,10.24,0,0,0-1.69.85c-1.89,1.28-3.91,2.64-5.94,3.85-1.35.81-2.79,1.58-4.17,2.33l-2.1,1.14A1,1,0,0,1,264.3,303.86Z" transform="translate(1 2)"/><path d="M282.84,290.93h0m0,0c-1.82,3.3-4.56,3.4-6.41,4.66s-3.88,2.62-5.89,3.82-4.16,2.3-6.24,3.45c-.31-.45-.63-.9-.95-1.34l5-5c1.58-1.59,3.17-3.2,4.75-4.81.09.74.18,1.55.34,3l9.4-3.74m-9.78.46.18.18-.14.14,0-.32m9.78-2.46h-.18a2,2,0,0,0-.6.15l-6.83,2.72a2,2,0,0,0-.58-1.65l-.18-.18a2,2,0,0,0-1.41-.59,2,2,0,0,0-1.93,1.47l-.94,1c-1.09,1.1-2.17,2.2-3.26,3.29l-1.66,1.66-3.33,3.34a2,2,0,0,0-.21,2.59c.31.42.62.86.92,1.29a2,2,0,0,0,2.62.62l2.07-1.13c1.4-.75,2.85-1.53,4.23-2.35,2-1.23,4.08-2.59,6-3.89a9,9,0,0,1,1.52-.75,10.24,10.24,0,0,0,5.47-4.51,2.09,2.09,0,0,0,.29-1.05,2,2,0,0,0-2-2Zm0,4h0Z" transform="translate(1 2)"/><path class="cls-3" d="M483.71,270.35c.75-.42,1.52-.8,2.24-1.25,6-3.76,6-3.76,3.34-9.81,4.63,3.59,4.63,3.59,1.35,9.91,3.35,5.36,1.84,10.27-2.22,14.84,1.52-4.39,4.75-8.67.62-13.48-1.7-.09-3.57-.19-5.45-.31l.12.1" transform="translate(1 2)"/><path class="cls-3" d="M69.06,251.24c5.54.11,9.47,2.31,10.35,8.4.37,2.61,1.16,5.15,1.76,7.72l-1.55.55a57.63,57.63,0,0,1-2.89-7.05c-1.76-6.58-1.65-6.61-7.67-9.62" transform="translate(1 2)"/><path class="cls-2" d="M375.23,227.42a1,1,0,0,1-.34-.06,1,1,0,0,1-.64-.73l0-.12c-1.24-1.77-2.49-3.53-3.74-5.3-3.35-4.74-6.82-9.64-10.08-14.57a13.1,13.1,0,0,1-1.57-4.33c-.1-.42-.2-.84-.31-1.25l-.07-.07a1,1,0,0,1,0-1.41l.14-.15a1,1,0,0,1,.71-.29l.24,0a1,1,0,0,1,.71.67.56.56,0,0,1,0,.12l.38.33a6.59,6.59,0,0,1,1.87,2.11,79.72,79.72,0,0,0,12.52,19.45,5.46,5.46,0,0,1,1,3.14c0,.25.05.5.08.75l0,0a1,1,0,0,1-.19,1.35l-.1.08A1,1,0,0,1,375.23,227.42Z" transform="translate(1 2)"/><path d="M359.31,200.14c0,.13.08.25.11.38l-.25-.24.14-.14m.11.38a8.69,8.69,0,0,1,2.23,2.31,80.51,80.51,0,0,0,12.67,19.68c.72.82.65,2.34.85,3.61-4.67-6.67-9.44-13.26-13.93-20-1-1.57-1.28-3.67-1.82-5.57m15.75,25.6.16.22-.1.08-.06-.3m-15.86-28a2,2,0,0,0-1.41.59l-.14.14a2,2,0,0,0-.13,2.68q.12.48.24,1a13.55,13.55,0,0,0,1.7,4.65c3.28,4.95,6.76,9.87,10.12,14.62,1.2,1.7,2.41,3.4,3.6,5.11a2,2,0,0,0,1.27,1.38,1.93,1.93,0,0,0,.67.12,2,2,0,0,0,1.25-.44l.1-.08a2,2,0,0,0,.51-2.5c0-.17,0-.34,0-.51a6.32,6.32,0,0,0-1.22-3.7A78.36,78.36,0,0,1,363.47,202a7.42,7.42,0,0,0-2.15-2.48l-.16-.14a2,2,0,0,0-1.37-1.18,2,2,0,0,0-.48-.06Z" transform="translate(1 2)"/><path class="cls-3" d="M200.75,274.08c-.64,0-1.38.26-1.9,0-3.42-1.52-4.84-3.63-3.89-5.58s3.23-2.37,6.64-.25c4.33,2.68,8.61,5.51,11,10.3l.16-.17c-2.53-1.85-5-3.77-7.61-5.54-2.34-1.6-4.8-3-7.92-5-.32,3.84,1.11,5.29,3.33,6.29l.17-.08" transform="translate(1 2)"/><path class="cls-3" d="M130.63,342.53c3.17-1.71,6.19-.25,9.28.38,6.81,1.38,13.64,2.64,20.3,5-4.45-.68-8.93-1.21-13.35-2-5.4-1-10.75-2.32-16.16-3.46a.27.27,0,0,0-.07.08" transform="translate(1 2)"/><path class="cls-2" d="M472.73,264.12a.94.94,0,0,1-.43-.1l-.19-.09a1,1,0,0,1-.55-.71,1,1,0,0,1,.25-.87l.23-.25a53.92,53.92,0,0,1,2.18-5.06c2.88-5.18,2.2-9.34-2.11-13.12-1.27-1.11-2.52-2.23-3.78-3.35l-1-.89-.11,0a1,1,0,0,1-.4-1.84l.21-.13a1,1,0,0,1,.53-.15,1,1,0,0,1,.66.25h0c4.43.89,7.23,4.18,9.4,7.3,2.88,4.09,2.78,8.94-.26,13.63a54.25,54.25,0,0,1-3.6,4.43l-.11.3a1,1,0,0,1-.56.58A1,1,0,0,1,472.73,264.12Z" transform="translate(1 2)"/><path d="M467.56,238.54l.22.2-.43-.07.21-.13m.22.2c4.18.73,6.83,3.76,9,6.93,2.81,4,2.36,8.45-.28,12.52a51.64,51.64,0,0,1-3.63,4.44,51.81,51.81,0,0,1,2.21-5.15c3.06-5.5,2.35-10.19-2.35-14.31-1.68-1.47-3.32-2.95-5-4.43m5.13,23.89-.18.49-.19-.09c.12-.13.25-.26.37-.4m-5.35-26.09a2,2,0,0,0-1.05.3l-.21.13a2,2,0,0,0,.58,3.64l.78.7,3.79,3.37c4,3.46,4.55,7.11,1.92,11.83l0,.09c-.8,1.61-1.52,3.28-2.16,5l-.09.1a2,2,0,0,0-.5,1.74,2,2,0,0,0,1.1,1.43l.19.09a2,2,0,0,0,2.74-1.14l0-.11a53.65,53.65,0,0,0,3.51-4.31l.06-.09c3.28-5.06,3.37-10.3.24-14.76-2.24-3.22-5.16-6.63-9.8-7.65a2,2,0,0,0-1.1-.33Z" transform="translate(1 2)"/><path class="cls-3" d="M358.28,182.1V170.84l1-.08.72,8.44c1.39.15,3.74-.18,4.11.54,1,1.86,1.08,4.17,1.53,6.3l-1.15.54-6.43-4.66.18.18" transform="translate(1 2)"/><path class="cls-2" d="M482.78,311.41a1,1,0,0,1-.73-.32l-.15-.16a1,1,0,0,1-.26-.8,1,1,0,0,1,.25-.56c.62-4.32.71-7.77-.63-11.39-1.78-4.8-.43-9,3.71-11.46a1,1,0,0,1,.51-.14,1,1,0,0,1,.74.33,1,1,0,0,1,.06,1.27c-2.65,3.53-2,7.26-1.26,11.21.17.89.33,1.78.45,2.66,0,.28.09.56.13.84.42,2.63.89,5.59-1.86,7.79a1,1,0,0,1-.66.69A1,1,0,0,1,482.78,311.41Z" transform="translate(1 2)"/><path d="M485.48,287.58c-3.55,4.72-1.68,9.73-1,14.61.43,2.94,1.24,5.87-1.66,7.93.62-4.13.92-8.11-.62-12.29-1.41-3.8-.89-7.75,3.28-10.25m-2.66,22.54c0,.1,0,.19,0,.29l-.15-.16.19-.13m2.66-24.54a2,2,0,0,0-1,.28c-4.52,2.71-6.06,7.45-4.13,12.67,1.24,3.35,1.18,6.6.62,10.65a2.08,2.08,0,0,0-.3.83,2,2,0,0,0,.53,1.61l.15.16a2,2,0,0,0,1.46.63,2,2,0,0,0,.59-.09,2,2,0,0,0,1.21-1c3-2.54,2.42-6,2-8.55,0-.28-.09-.55-.13-.83-.13-.9-.29-1.81-.45-2.69-.71-3.89-1.32-7.25,1.07-10.43a2,2,0,0,0-1.6-3.2Zm0,4h0Zm-2.66,22.54h0Z" transform="translate(1 2)"/><path class="cls-3" d="M363.82,12.55a64.3,64.3,0,0,0-7.09-2,60.8,60.8,0,0,0-7.13-.45C347.86,8,346.43,6.26,345,4.54l-.18.16c.4-.09.91-.4,1.22-.26,5.93,2.7,11.84,5.46,17.74,8.23l.07-.11" transform="translate(1 2)"/><path class="cls-3" d="M482.65,310.25c-.41,4.22-3.54,5.49-7,6.24-6,1.3-10.84-1.13-15-5.08,14,5.32,14.84,5.29,22.15-1l-.14-.17" transform="translate(1 2)"/><path class="cls-3" d="M46.32,231.59c10-1.43,14,1.29,14.84,10.83-2.2-3.13-3.56-6.39-6-8.15s-5.89-1.9-8.92-2.77l.09.09" transform="translate(1 2)"/><path class="cls-3" d="M191.51,222.57c2.88,3,5.06,5.29,3.49,9.14-4.75-2.18-5.29-3.4-3.49-9.14" transform="translate(1 2)"/><path class="cls-3" d="M342.46,281.67c-1.37,1.18-2.83,2.26-4.09,3.54-3,3.11-6,6.31-9.72,8.74,3.12-3.53,6.12-7.18,9.44-10.52,1-1,2.89-1.21,4.4-1.77h0" transform="translate(1 2)"/><path class="cls-3" d="M315.43,295.74l-11,6.42-.72-1.21,10.67-6.46,1.07,1.25" transform="translate(1 2)"/><path class="cls-3" d="M240.34,294.85l-13.56-8.35.8-1.17A27.29,27.29,0,0,1,240.16,295l.18-.13" transform="translate(1 2)"/><path class="cls-3" d="M364.88,29.21c1.55-5.67-.12-11.12-1.08-16.64l-.05.09c3.15,5.27,5.05,10.64,1,16.37l.14.18" transform="translate(1 2)"/><path class="cls-3" d="M40,370.39c-3.42-6.35.16-10.67,4.28-14.84l-.15-.17c-.15.8,0,1.82-.48,2.39-2.94,3.76-3.61,8.14-3.73,12.72l.08-.1" transform="translate(1 2)"/><path class="cls-3" d="M420.73,311.18c-2.05-3.87-5.06-7.36-4.53-12.24,1.48,4.11,4.95,7.45,4.44,12.35l.09-.11" transform="translate(1 2)"/><path class="cls-3" d="M212.62,278.57l10.24,4.59c-5,0-7.25-1.17-10.08-4.76l-.16.17" transform="translate(1 2)"/><path class="cls-3" d="M298.06,116.25l9.75-.69-2.57,4.63-7.18-4h0" transform="translate(1 2)"/><path class="cls-3" d="M286.74,277.25c.46-3.33.82-5.88,1.15-8.29,2.62,2,2.54,3.34-1.15,8.29" transform="translate(1 2)"/><path class="cls-2" d="M431.61,230a1,1,0,0,1-.34-.06l-1.22-.45a21.5,21.5,0,0,0-7.28-1.81,9,9,0,0,0-3.85.85,1,1,0,0,1-.52.15h0a1,1,0,0,1-.82-1.57,4.17,4.17,0,0,1,4-2.71,12,12,0,0,1,2.47.34c.38.08.75.16,1.1.21a15.8,15.8,0,0,1,7.07,3.27,1,1,0,0,1-.63,1.78Z" transform="translate(1 2)"/><path d="M421.6,225.39a23.82,23.82,0,0,1,3.43.54,14.81,14.81,0,0,1,6.58,3.06c-3-1.07-5.84-2.32-8.84-2.32a10,10,0,0,0-4.37,1,3.22,3.22,0,0,1,3.2-2.27m-3.2,2.27h0m3.2-4.27h0a5.18,5.18,0,0,0-5,3.33,2,2,0,0,0,1.75,2.95,2.1,2.1,0,0,0,1-.24,8,8,0,0,1,3.43-.76,20.73,20.73,0,0,1,6.93,1.75l1.23.45a2,2,0,0,0,1.94-3.43A16.79,16.79,0,0,0,425.4,224h-.08c-.32,0-.67-.12-1.05-.2a13,13,0,0,0-2.67-.36Z" transform="translate(1 2)"/><path class="cls-3" d="M263.7,28.94l-6.26-3.55c4.51-2.13,5.95-.16,7.46,1.64l-1.2,1.91" transform="translate(1 2)"/><path class="cls-3" d="M315.85,283.67c-2.32,3-5,5.57-8.54,6.82l-.75-1.11,9.44-5.57-.15-.14" transform="translate(1 2)"/><path class="cls-3" d="M330.48,280.34c-.18,1.12-.05,2.45-.62,3.32a18.19,18.19,0,0,1-5.66,5.82c.91-4,4-6.25,6.43-9l-.15-.17" transform="translate(1 2)"/><path class="cls-3" d="M375.11,153.24c1,3.12,1.3,5.15-1.64,6.79-1.63-2.63-1.22-4.47,1.64-6.79" transform="translate(1 2)"/><path class="cls-3" d="M295.91,36.78l-4.85,3.72c-.87-4.37,2.33-3.77,3.5-5.22l1.38,1.5" transform="translate(1 2)"/><path class="cls-3" d="M373.22,182.72c-3.56-.32-2.78,3.1-4.68,5.84-.56-2.92-.93-4.89-1.52-8l6.24,2.16h0" transform="translate(1 2)"/><path class="cls-3" d="M198.06,137.67c-.23,1.74-.46,3.47-.87,6.53-2.66-3.25-2-5-.78-6.75l1.65.22" transform="translate(1 2)"/><path class="cls-3" d="M318.3,301.35l7.36-5c-1.52,4.34-4.13,5.09-7.36,5" transform="translate(1 2)"/><path class="cls-3" d="M197,73.08l4.48,5.8c-3.82.3-3.82.3-4.48-5.8" transform="translate(1 2)"/><path class="cls-3" d="M268.48,37.67,274,39.78l-.58,1.6-5.5-2,.6-1.66" transform="translate(1 2)"/><path class="cls-3" d="M305.88,275c-.18-4.36,3.12-5.42,6.28-6.62l-.16-.14-6.28,6.62.16.14" transform="translate(1 2)"/><path class="cls-3" d="M367.06,178.67c.85-2.18,1.43-3.68,2-5.18.34.18.94.34.95.54.26,3.73.24,3.73-3,4.64" transform="translate(1 2)"/><path class="cls-3" d="M59.06,319.16c-.94-3.21-.87-6.33,1.34-9.24-.49,3-1,6.05-1.45,9.11l.11.13" transform="translate(1 2)"/><path class="cls-3" d="M485,359.38q-.15-6.64-.31-13.3c-.16-6.65-.08.13-.06.11,3.42,4.26,2.25,8.63.31,13.07l.06.12" transform="translate(1 2)"/><path class="cls-2" d="M286.9,289a1,1,0,0,1-.92-.62,1,1,0,0,1,.35-1.2l6.12-4.22,0,0a1,1,0,0,1,.74-.61.75.75,0,0,1,.21,0,1,1,0,0,1,.7.27l.15.16a1,1,0,0,1,.29.79,1,1,0,0,1-.43.73l-.07,0c-1.56,3.63-2.15,3.84-7,4.7A.55.55,0,0,1,286.9,289Z" transform="translate(1 2)"/><path d="M293.41,283.26l.15.15-.3.21.15-.36m-.15.36c-1.48,3.49-1.63,3.53-6.36,4.38l6.36-4.38m.15-2.36a1.58,1.58,0,0,0-.38,0,2,2,0,0,0-1.37,1l-5.89,4.06a2,2,0,0,0,1.48,3.62c5.05-.91,6-1.29,7.63-5.05a2,2,0,0,0,.67-1.33A2,2,0,0,0,295,282l-.15-.15a2,2,0,0,0-1.41-.59Zm-.15,4.36Z" transform="translate(1 2)"/><path class="cls-3" d="M321.2,9l3.86-3.36c.39,1,.89,1.75.74,1.89-1.08,1-2.29,2-3.46,2.94L321.19,9" transform="translate(1 2)"/><path class="cls-3" d="M365.47,174.13c-.29-1.45-.57-2.89-.87-4.45a5.92,5.92,0,0,1,1.33,0c.34,1.38.62,2.79.91,4.18l-1.37.26" transform="translate(1 2)"/><path class="cls-3" d="M418.38,227.67l-8.17,3.75c1.73-4.15,4.66-4.59,8.18-3.75h0" transform="translate(1 2)"/><path class="cls-3" d="M432.71,276.38l-1.27,1.45a15.72,15.72,0,0,1-1.64-2c-.07-.11,1-1.14,1.09-1.07a12.91,12.91,0,0,1,1.82,1.64" transform="translate(1 2)"/><path class="cls-3" d="M359.31,200.14c-2.68-2.4-2.39-5.45-1.88-8.57l-.06.07q.93,4.29,1.8,8.63l.14-.13" transform="translate(1 2)"/><path class="cls-3" d="M362,170.07c.31,1.69.61,3.37.92,5.06l-1.41.3-1-5.1,1.51-.26" transform="translate(1 2)"/><path class="cls-3" d="M273.23,291.55c1.17-2.28,2.33-4.56,3.5-6.83l1.16.73a9.19,9.19,0,0,1-4.82,5.94l.16.16" transform="translate(1 2)"/><path class="cls-3" d="M426.23,287.72c.23,1.25.45,2.5.68,3.75l-1.31.32-1.21-3.6,1.84-.47" transform="translate(1 2)"/><path class="cls-3" d="M279.71,29.92,284,32l-.39,1a6.34,6.34,0,0,1-2.26-.86,9.42,9.42,0,0,1-1.48-2.4l-.17.17" transform="translate(1 2)"/><path class="cls-3" d="M375.23,226.42l6.25,1.35-.62,1.62c-1.82-1-3.63-2.07-5.49-3.08l-.14.11" transform="translate(1 2)"/><path class="cls-3" d="M245.87,23.67c-1,.93-1.5,1.79-2.06,1.81s-1.14-.81-1.75-1.23c.48-.55.86-1.39,1.45-1.57s1.21.48,2.33,1" transform="translate(1 2)"/><path class="cls-3" d="M218,242.35c-.65-.77-1.33-1.53-1.92-2.35-.05-.08.64-.83.66-.82.84.61,1.65,1.26,2.46,1.9l-1.2,1.27" transform="translate(1 2)"/><path class="cls-3" d="M329.54,87.22l-1.46-.66a16.4,16.4,0,0,1,1.36-1.86c.09-.1.69.29,1.06.46l-1,2.06" transform="translate(1 2)"/><path class="cls-3" d="M293.56,283.41l4-3.44c-.26,2.87-1.63,4-4.14,3.3l.14.14" transform="translate(1 2)"/><path class="cls-3" d="M305.72,274.88l-3.66,3.22c.15-3.17,1.75-3.44,3.79-3.09l-.15-.13" transform="translate(1 2)"/><path class="cls-3" d="M219,34.44c-6.82,1.2-16.78-4.89-18.34-10.91-.52-2,.24-3.26,2.37-3.64,7.25-1.32,15.86,6.31,16,14.55" transform="translate(1 2)"/></svg>