<svg id="Layer_1" data-name="Layer 1" xmlns="http://www.w3.org/2000/svg" viewBox="0 0 492.96 387.67"><defs><style>.cls-1{fill:#f8c755;}.cls-2{fill:#fff;}</style></defs><title>frog1</title><path class="cls-1" d="M497.59,331.76s7.06-2.65,3.73-7.27-7-4.86-5.9-10.08,6.53-11-.81-16.73-9.71-.79-15.41-8-2.73-15.14-11.72-17.12-18.39,1.2-24.77,3.14-23,10.45-32.26,4.07-13.59-8.12-16.82-18.25-9.52-24.78-1.88-39.14,25.72-45.84,7.56-69.12S377.78,124,376,108.89s-3.09-13.79-3.09-13.79S380,84.37,373.69,75l-12.16-4.57-10.47-5.6-13.13-2.28s-18.62,7.74-28.75,14.11a102.24,102.24,0,0,1-19.7,9.56l-19-7.74L246.59,68s-12.64-6.49-25,2.15l-14.6.23s-8.09,6-7.82,11.68,2,8.39-.1,16.27c0,0-3.87,18.68-13,29.74s-18.63,23.38-17.75,37.79,11.14,50.72,11.14,50.72,7.84,18.72,2.92,31.12-15.64,24.43-23.56,29.36-30.28,15.9-47,18.28-31.78,5.92-43.06,3.24c0,0-9.73-11.18-20.66,2.09s-16.24,6.56-25,13.79-15.81,16-4,25.25c0,0-9.66,5.33-8.28,11.78a44.57,44.57,0,0,0,4.68,12s1.61,10.08,4.72,11.79,8.26,5.47,17.81,4.62c0,0,8.7-2.17,6,2.89s-4.52,9.74-4.29,13.09,2.08,14.51-5.46,21.16S7.62,428.35,17.19,444.26c0,0,1.27,3.79,6.36,2.85a18.37,18.37,0,0,0,8.06-3.49s2.82,5.49,9,5.72,8.48-1.57,8.48-1.57,7.31,4.15,10,0,4.39-7.12,3.59-13.67-1.61-9.66,2.4-15.17,9.66-14.14,12.63-21,5.8-16.92,7.78-23.24a222.86,222.86,0,0,0,6.07-23.14c2.31-10.84,4.72-21.29,4.72-21.29s27.57-35.12,89-30.07l-.66,9.16-.39,25.35-16.7-14.86s-6.15-7.82-9.72-5.93a9.26,9.26,0,0,0-4.33,6s-8.46,1.13-6.49,8.56c0,0-4.51,8.84-1.13,13.73l.47,1.32s-19.1,2-30.47,9.88-15,11.09-9.59,20.4,14.29,28.54,45,33.28,27.08,4.76,36.11,4.91,26.71-.85,38.65-4.42,31.42-8.09,31.42-8.09l22.39-3.13s21.15,6.27,30.77,7.59,26,4.67,50,2,22.12-2.14,55.52-21.17c0,0,10.51-11.13,4.59-19.24s-19.05-26.63-43.14-31.6c0,0,1.6-3.57-2.32-11.34s.08-13.53,1.33-19.23-.36-17.3-8.8-26.92-8.8-9.91-8.8-9.91l9.29-8.32S381,295,408.78,299.63l7,.65s-2,15,1.66,25.88,8.24,33.8,10.17,39.59,7.39,14.52,9.24,21.46,5.6,12.87,7,21.31,2.95,16.51,10.32,16.62,8.15-4,8.92-4.87,2.27,4.82,8.52,4.43,7.29-2.42,8.07-4.43c0,0,1.51,2.3,6.64,2.44s9.15,1.26,9.28-5.53-1.87-10.11-9.61-10.75-10.65.13-11.46-7.39-2.21-3.54-5.44-8-6.33-13.2-4-23.63c0,0,4.12,7.89,11,9.8s22.05,3.54,16.66-18.69c0,0-.92-5.35,6.5-13.55S497.59,331.76,497.59,331.76ZM29.77,369.31c-3.77-1.11-3.77-5.55-1.58-7.58a4,4,0,0,1,1.95-2.37,7.59,7.59,0,0,0,2.79-2.87c.07-4.25.7-8.62-1.66-9.93-3-1.66-2.56-5.72-.19-7.39,0-4.2,2-10,.32-13.67-.91-2-.72-4.9,1.56-6,5.59-2.62,9.92-1,12.42,4.71,1.21,2.77,2.46,5.88,3.54,9.09a33.47,33.47,0,0,1,2.39,9.27,33.53,33.53,0,0,1,.49,5.17C51.9,360.29,43.61,373.38,29.77,369.31Zm450.57-7.38a4.82,4.82,0,0,1-6.06-1.4l-1.41-2a3.47,3.47,0,0,1-.65-1.94c-1.83-2.32-4.5-4.26-5.85-6.82-1.83-3.47-2.53-7.88-3-11.7-1.1-8.52-1.63-18.94-.54-27.51.66-5.23,3.71-7.7,6.75-8.05a9.79,9.79,0,0,1,9.36-.33,9.52,9.52,0,0,1,5.24,5.94c1.87,2,2.32,5.56,1.92,9.23a4.52,4.52,0,0,1-2.62,3.69c-.19.85-.38,1.68-.55,2.47-1.19,5.69.62,11.51-2,15.25a44.86,44.86,0,0,0,3.34,10.28c1.06,2.49,2.19,3.08,2.52,5.84C487.57,361.44,484.31,362.58,480.34,361.93Z" transform="translate(-9.94 -62.33)"/><path class="cls-2" d="M365.26,103.65c-10.42,7.81-23.18,8.38-28.51,1.27s-1.2-19.2,9.21-27,23.18-8.37,28.51-1.26,1.2,19.2-9.21,27" transform="translate(-9.94 -62.33)"/><path class="cls-2" d="M212.23,101.9c10.41,7.81,23.17,8.38,28.5,1.27s1.21-19.2-9.21-27S208.34,67.79,203,74.9s-1.2,19.2,9.22,27" transform="translate(-9.94 -62.33)"/><path d="M348.79,63.14c-1.84-.24-3.72-.52-5.66-.81-2.76.09-5.52.23-8.27.33-9,4.36-17.43,8.45-25.85,12.47-6,2.86-12,5.43-19.17,4.26-.06-.21-.07-.38-.11-.58-12.3-.19-24.41-6-36.28-10.3-2.68-.78-5.34-1.63-8-2.6l-1.28-.33a3.58,3.58,0,0,1-1.47.2c-7.58-1.69-14.53-.36-21.66,2.83-2.17,1-4.88.77-7.82.52-.06,0-.09,0-.15,0a26.57,26.57,0,0,0-7.64,1.14c-.71,1.27-1.53,2.48-2.31,3.71a7,7,0,0,0-4.6,9.17c2.08,6.12-.06,11.12-2.05,16.42a21,21,0,0,0-.66,3.75c-1.49,8.47-3.8,16.53-9.75,23.18a100.82,100.82,0,0,0-8,10.66,80.14,80.14,0,0,0-4.08,7.46,3,3,0,0,0,1.32-.8c7.82-11.78,18.85-21.59,22.1-36.7,1.35,1.48,2.16,2.83,3.34,3.57,1.53,1,4.15,2.45,4.88,1.89,1.41-1.09,2.06-3.41,2.56-5.33.39-1.49.08-3.17.08-5.47l3.23,1.79c5.68,3.14,11.57,5.52,18.21,5.39A13.85,13.85,0,0,0,243,91.79a27,27,0,0,0-12.88-17.62l-6-3.54c8.22-5.7,16.19-5.48,25.35.55l-2.14,4,5.11,2.57,1.74-3.64c3.14,0,3.86,1.93,3.78,4.3-.1,3.16,2.48,4.77,4.41,4.17,7.76-2.4,13.11,2.14,19,5.52,2.69,1.55,5.63,2.65,8.46,4,.77-1.15,1.35-2.58,2.41-3.25,9.7-6.11,19.45-12.17,29.3-18,10.44-6.24,21.38-8.94,33.16-4C353.76,63.93,351.34,63.46,348.79,63.14ZM240,88.83c4.72,9.89-3,20.2-14,18.7a31.22,31.22,0,0,1-23.29-15.18c-3.8-6.19-4.43-12.28.37-18.23,6.69-3.8,13.58-4.52,20.68-1.15A33.35,33.35,0,0,1,240,88.83Z" transform="translate(-9.94 -62.33)"/><path d="M492.4,295.06c-2.46-1.22-5.29-1.67-7.91-2.61-3.76-1.35-6.68-3.21-7.32-7.88-1.41-10.39-9.55-16-19.83-13.81-4.17.88-8.22,2.3-12.3,3.54-6.56,2-13,4.55-19.66,5.93-12.26,2.55-24.71-4.58-28.7-15.85-2.11-3.09-3.35-6.93-4.5-10.39a40.4,40.4,0,0,1-2.37-14.82c-.06-.42-.11-.83-.16-1.25h.27a26.92,26.92,0,0,1,.44-2.93l-.5-.18c.59-12.58,8.21-22.54,12.63-33.7l.87.25a58.92,58.92,0,0,1,3.09-6.77,40.43,40.43,0,0,1,.42-6.89c1.81-11.6.74-22.58-5.15-33a22.51,22.51,0,0,1-2.29-6.53c-.26-.25-.5-.51-.77-.76-1.32-1.23-2.55-2.17-3.65-3.38l-.49.23-13.71-16.94-.94.6,5.5,8.74c-5.47,5.13-5.56,8.7-.49,14,1.18,1.24,2.22,2.61,3.36,3.88,1.27,1.42,2.36,3.35,3.95,4s3.56-.16,5.56-.35c.7,4.56,1.58,9,2,13.43a10.92,10.92,0,0,1-1.34,5.26c-1.62,3.43-4.16,6.55-5.21,10.12-1.86,6.34-2.77,12.95-4.3,19.4-1.1,4.65-.86,8.49,4.93,10-2.64,4.61-3,9.92-8.12,12.38-.95.45-1.4,2-2,3.16-2.19,4.3-1.63,8.73-.48,13.16l-.06,0c-.12,1.23-.25,2.46-.37,3.66,4.21-.08,5.14,3.51,6.35,6.5,4,9.89,9.31,18.59,19.06,24,4.3,2.41,8.45,3.68,13.38,3.18,8.85-.88,17-4.26,25.36-6.76a73.27,73.27,0,0,1,15-3.15c5.7-.45,11.54,3.37,12.28,8.43,1.25,8.57,6,12.77,14.06,14.32a13.08,13.08,0,0,1,4.53,2.28c4.33,2.9,5.56,6.83,3.72,11.65-.61,1.59-1.63,3.07-2,4.7-.22,1.13.43,2.42.86,4.38a80.48,80.48,0,0,1,2.28-8.17C500.35,303.59,498.64,298.14,492.4,295.06ZM404.83,175.34c-3.24-3.91-2.14-8.25-2.88-12.19C405.7,166.87,406.15,169,404.83,175.34Z" transform="translate(-9.94 -62.33)"/><path d="M292.38,401.67a6.47,6.47,0,0,1,2.64-2.14,28.44,28.44,0,0,0-4.39-1.73c-13.09-2.28-25.82-5.55-37.79-11.63-3.93-2-8.6-2.52-12.93-3.71-.12.38-.23.77-.34,1.15l25.25,9.75-.15,1.8a29.53,29.53,0,0,1-4.47,2.07c-10.07,2.81-20.17,5.5-30.26,8.24-4.33,1.18-8.59,2.76-13,3.51-12.73,2.19-25.59,1.59-38.42,1.08-1,0-2,0-3,0a5,5,0,0,0,3.59,1.7c7.48.18,15,.57,22.45.3a101.26,101.26,0,0,0,19-2.06c10.39-2.39,20.58-5.67,30.88-8.49a11,11,0,0,1,3.26-.06,41.16,41.16,0,0,1,33.63-1.1A20.59,20.59,0,0,1,292.38,401.67Z" transform="translate(-9.94 -62.33)"/><path d="M173.68,144.8c-1.84,6.32-4.57,12.44-4.35,19.24.07,2.09,0,4.19,0,6.77,6.44-1,8.6,2.73,10.08,7.31,3,9.18,5.45,18.44,5.84,28.16.18,4.43-.08,8.62-4.42,11.27,3.07,11.35,4.36,22.49,1.61,33.56,7,3.57,8.64,8.26,4.84,14.65-3.21,5.38-7.21,10.13-15,9.79-.42-2.08-.83-4.05-1.24-6.09l-3.77.34.17.16c7.08-7.55,12.95-15.84,14.73-26.32a29.8,29.8,0,0,0,.25-8.84c-1.48-11.06-5.23-21.52-9.07-31.93a97,97,0,0,1-5.44-43.44c.5-5.15,1.66-10.57,5.89-14.47,0,0-.15-.16-.15-.16" transform="translate(-9.94 -62.33)"/><path d="M159.63,339.56c-2.08-1.43-4.27-2.73-6.22-4.32-3.77-3.07-6.21-3.54-7.65-1.21-1.54,2.5-.49,5,3.05,7.28,4.3,2.78,8.8,5.29,12.82,8.43,5.23,4.06,9.83,8.93,15.14,12.85,4.25,3.13,8.89,6.21,13.84,7.78,7.88,2.5,16.19,3.65,24.28,5.53,7,1.6,13.88,3.42,20.81,5.14-.08.45-.16.89-.25,1.34a13.09,13.09,0,0,1-3-.35c-7.69-2.78-15.76-3.65-23.7-5.27-14.63-3-29.13-6.93-40-18.61a57.42,57.42,0,0,0-11.2-9.51c-3.14-2-7.16-3.69-10.74-3.6-7.62.21-15.41.57-22.27,5-4.47,2.89-9.43,5-13.88,7.9-5.18,3.4-5.81,6.09-4.47,12,2.11,9.29,8.71,15.55,14.76,22.11a33.2,33.2,0,0,0,16.48,9.47c1.85.47,3.18,1.19,3.14,3.32l0-.05a26.27,26.27,0,0,0-4-1.67,34,34,0,0,1-17-9.76c-6.25-6.45-12.46-12.9-15.16-21.84-2.15-7.12-1.07-11.61,5.17-15.42,9.43-5.74,18.73-12.05,30.41-12.44a23.81,23.81,0,0,0,4.84-1.21c-2-5.36-2-5.35.78-12a8.52,8.52,0,0,0,.49-3.07c.11-6.13.09-6.13,5.8-7.58,2.7-7.5,8.69-9,14.4-3.28,3.18,3.15,5.87,6.79,9,10,1.86,2,4.06,3.6,7.24,6.37.49-3.16,1-5,1-6.93,0-4.69-.39-9.38-.34-14.08,0-1.29,1-2.59,1.56-3.9l-.12-.15c.13,6.94.14,13.88.42,20.81a79.46,79.46,0,0,0,1.23,8.5l.16-.14c-5.54-4.54-11.14-9-16.58-13.65C167.16,321.1,165,318,162,316c-3.53-2.41-6-1.13-7.2,3.09,2.3,2.22,6.78,1.93,7.43,6.17l.14-.15c-1.67-.84-3.32-1.73-5-2.51-3.45-1.58-7.46-1.32-8.95.53s-.57,5.33,2.62,8.36c1.38,1.31,3.17,2.18,4.52,3.49a55.48,55.48,0,0,1,3.91,4.71Z" transform="translate(-9.94 -62.33)"/><path d="M355.46,124.13c-46.11-13.83-91.73-12.8-137.41,2.13a7.79,7.79,0,0,1,1.65-1.15c15.46-5.63,31-11,47.23-14a125.72,125.72,0,0,1,60.24,3.28c8.38,2.52,16.65,5.44,25,8.22a32.07,32.07,0,0,1,3.32,1.53" transform="translate(-9.94 -62.33)"/><path d="M57.2,449.34c4.77-5.6,6.22-11.73,4.24-19-1.39-5.1,1.41-9.69,4.33-13.66,6.76-9.22,11.28-19.57,15.59-30,.73-1.79,1.32-3.69,0-6-2.73-4.83-.82-10.5,4-13.85,3.43-2.41,5.39-8.51,3.51-12.22-3.73-7.38-1-13.77,3.29-19.48,1.56-2.06,2.84-3.88,2.35-6.15-1-4.73-2-9.63-4-14-2.76-6-7.79-8.8-15.07-6.92,5.45-3.07,10.32-2.32,14.1,2.49,1.93,2.46,3.16,5.53,4.42,8.45,1.15,2.67,1.91,5.51,3.23,9.42,8.72-9.46,19.52-14.21,29.39-20.43h0c.95,2.36-.91,3-2.37,3.79-4.29,2.37-8.65,4.64-12.91,7.07a33.11,33.11,0,0,0-4.67,3.34C96,330.91,96.58,331,94,344.4c-4.69,24.17-10.49,48.06-24.11,69.15-1.16,1.8-2.49,3.49-3.69,5.26a18,18,0,0,0-3.06,13.4,31.14,31.14,0,0,1,0,9.54c-.53,3.44-2.1,6.57-6.08,7.45Z" transform="translate(-9.94 -62.33)"/><path d="M341.25,301c1.87-3.49,5.11-2.78,7.86-2.08,3.67.94,3.07,4.61,3.63,7.61,3.28,1.74,7.7,2.69,6.18,7.81,6.21,2.06,6.21,2.06,6,7.95,6.45,2.25,6.61,2.79,3.83,8.88-.53,1.17-.07,2.78-.07,4.9-5.26,1.68-12.91.64-16.28,8h.05c.29-1.28.14-3.08.95-3.76,3.22-2.75,6.73-5.16,10.16-7.66,2.29-1.67,5.31-2.84,4.6-7.05-6.14-.18-10,3.6-14,6.85-3,2.42-5.4,5.47-8.23,8.06-1.48,1.35-2.87,3.43-5.48,2.23l.13.14c5.62-5.19,11.27-10.35,16.86-15.57,2.63-2.46,5.29-4.95,5.5-8.94-3.79-2.17-6.21.18-8.56,2.34-8.34,7.62-16.59,15.34-24.92,23a28.33,28.33,0,0,1-3.64,2.41l.15.15a17.08,17.08,0,0,1,2.29-3.65c7.74-7.36,15.62-14.57,23.35-21.94a21.62,21.62,0,0,0,4.67-6,4.92,4.92,0,0,0-.9-4.55c-.93-.86-3.21-.9-4.61-.43a10,10,0,0,0-3.92,3.15c-6.11,7.14-11.88,14.57-18.24,21.47-5,5.45-10.71,10.28-16.15,15.34-.34.33-1.06.25-2.83.59,4-3.54,7.43-6,10.21-9.12,7.14-7.92,14-16.12,21-24.16,2-2.26,4.12-4.34,6.1-6.57a14.28,14.28,0,0,0,3-4c1.54-4.17-.49-6.55-5-6.11-1.28.13-2.53.42-3.8.64Z" transform="translate(-9.94 -62.33)"/><path d="M422.4,340.12c1.21,3.95,2.37,7,3,10.09a22,22,0,0,1,.07,5.16c-3.11-8.73-6.67-18.53-10.1-28.36-2.23-6.38-2.28-13-1.57-19.62.2-1.84.32-3.68.5-5.7-5.87-1.85-11.78-2.22-17.71-6.79,7.86,1.34,13.67,6.1,20.76,3.81,4,2.45,4.58,6.32,4.47,10.87-.09,3.53.9,7.09,1.54,10.62.9,5,1.95,10,2.85,15,.49,2.74-.71,4.49-3.82,4.89" transform="translate(-9.94 -62.33)"/><path d="M15.44,337.27c11,5,15,2.21,14.12-9.77-.51-6.9,2.5-11,8.49-10.95a8.4,8.4,0,0,1,5.65,2.22c8.94,10,14.48,30.17,4.8,44.8a17.1,17.1,0,0,1-18.71,6.63c-4.84-1.55-6.18-8-2.51-12.1,5-5.59,3.25-13.15-3.51-15.4-4.2-1.4-8.72,0-10.82,3.3a9.56,9.56,0,0,0,1.24,11.29,38.34,38.34,0,0,0,2.91,2.65v10.21l.14-.15c-2.15-5-4.45-9.95-6.4-15-2.1-5.51-.63-9.09,5.53-14.4-.24-1.05-.52-2.25-.79-3.45Zm11.76,4.32c5.85,6,6.39,11.87,1.45,18.54-3.26,4.39-1.2,8.21,4.24,9.12,4,.66,7.94,0,10.73-2.95,2.59-2.77,5.34-5.91,6.49-9.39,4.39-13.22,1.4-25.32-7.14-36.09-2.27-2.87-4.94-3.27-8-1.91s-4,3.68-3.74,6.76a12.41,12.41,0,0,0,.22,1.92c1.27,5.33.79,10.19-4.25,14" transform="translate(-9.94 -62.33)"/><path d="M416.15,385c.94-1.64,1.83-3.31,2.82-4.92,3.34-5.44,3.27-11.91-.79-16.68-5.12-6-10.09-12.33-16.06-17.4a44.36,44.36,0,0,0-23.77-10.44c-1.46-.17-2.92-.26-4.65-.42,4.26-3.69,4.5-4,2.06-9-2.66-5.46-3.88-11.31-1.84-16.83,5.2-14.09.07-25-9.42-34.89a15,15,0,0,1-2.17-2.35c-1.81-3-4.19-4.66-8-4.2l9.13-6.31.79.63L360.59,267c3,3.65,6,7.17,8.86,10.86,3.93,5.11,7.33,10.44,8.1,17.16a30.66,30.66,0,0,1-2.11,14.38,16.75,16.75,0,0,0,.81,13.64c1.42,3,2.24,6.25,3.56,10,3,1.11,6.95,2.51,10.87,4.07,9.86,3.91,16.8,11.51,23.76,19a70.84,70.84,0,0,1,5.24,6.47c5.93,8.19,4.62,15.86-3.69,22.13Z" transform="translate(-9.94 -62.33)"/><path d="M416,384.82a21.91,21.91,0,0,1-3,2.43c-8.91,5-17.73,10.16-26.85,14.74-3.51,1.76-7.69,2.23-11.61,3.11-18.16,4.12-36.55,2.61-54.87,2-7.63-.27-14.7-3.19-23.39-5.37,3.3-2.28,5.4-1.58,7.27-1.22,4.8.94,9.59,2,14.33,3.23,8.84,2.33,17.8,1.82,26.78,1.46,8.52-.35,17-.53,25.55-.91,10.89-.49,19.9-5.9,28.78-11.44,5.4-3.37,10.7-6.81,17.12-7.89l-.14-.12" transform="translate(-9.94 -62.33)"/><path d="M374.69,91.37a12.08,12.08,0,0,0,.68,8.59c1.56,3.63,1.95,7.81,2.59,11.8a63.47,63.47,0,0,1,.74,10.93c-2.11-2.92-1.48-6.87-3.07-10-8.46,5-10.6,3.93-10.64-7.43l-10.46,4.09c8.7-3.81,14.71-10.54,20.29-17.78Z" transform="translate(-9.94 -62.33)"/><path d="M354.37,171l5.3-8.61c-7.66,3.16-13.69,9.41-22.36,10.48,15.07-8,26.75-19.62,36.67-34.75-.73,11.7-10.87,28.65-19.61,32.88" transform="translate(-9.94 -62.33)"/><path d="M231.43,171.14c-8.74-.92-14.8-6.94-22.68-10.7l4.84,8.47c-7.59-2.92-17.81-19.8-19.32-32.49,10.48,14.9,21.42,27.4,37.16,34.72" transform="translate(-9.94 -62.33)"/><path d="M430.56,373.64c1.05,1.18,2.49,2.2,3.08,3.57,2.42,5.66,4.8,11.35,6.77,17.17,1.76,5.21,2.94,10.62,4.42,15.93a69.59,69.59,0,0,0,2.76,9.19,8.2,8.2,0,0,0,11.48,3.56c3-1.72,3.89-4.3,2.39-7.54-.89-1.92-1.74-4.07-3.21-5.49a41.91,41.91,0,0,1-9.83-15.6c-1.89-4.89-3.25-10-4.84-15l1.54-.51c.41,1.81.72,3.65,1.24,5.42.61,2.05,1.42,4,2.14,6a52.48,52.48,0,0,0,10,17.69c4,4.51,5.86,10.15,8.13,15.56l.14-.13c-1.61-1-2.77-1.84-5-.29-7.42,5.13-14.41,2.61-16.5-6.25-2-8.53-4-17-7.54-25.06-2.64-6-4.74-12.26-7.08-18.39Z" transform="translate(-9.94 -62.33)"/><path d="M250.11,357.3c1.87,2.57,3.73,5.15,5.94,8.21,11.35-6.22,22.25-12.23,27.7-24.69,1.75-4,3.59-8.11,8.47-9.78-3.83,6.16-7,12.44-11.28,17.74-3.7,4.55-8.64,8.14-13.29,11.83-3.15,2.49-6.76,4.42-10.16,6.61,2.15,6.4,4.38,8.44,10.72,8.62,4.24.12,8.5-.46,12.75-.76a32,32,0,0,1,9.14.2,11.65,11.65,0,0,1-2.82,1.09c-6.36.71-12.73,1.39-19.11,1.91-1.59.13-3.67.17-4.8-.7a33.59,33.59,0,0,1-13.09-20.4Z" transform="translate(-9.94 -62.33)"/><path d="M17.1,370.15c5.52,8.14,13.6,9.52,22.57,8.63,1.48-.15,3-.26,4.46-.29.35,0,.71.39,1.81,1a63.84,63.84,0,0,1-2.29,6.11,29.36,29.36,0,0,0-3.09,16.09c.61,6.49-2.6,12.15-6.79,16.7-3.42,3.71-7.84,6.58-12.08,9.4s-7.17,6-6.51,11.94c-2.17-5.59-1.73-7.43,2.92-11.25a82.22,82.22,0,0,1,8.81-6.42c8.83-5.51,12.91-13.35,12.18-23.72a18.9,18.9,0,0,1,2.07-10.54c1.17-2.19,1.71-4.71,2.72-7.65-3.56.22-6.48.69-9.36.51a37.51,37.51,0,0,1-8.17-1.6c-4.6-1.37-9.09-3-9.12-9.09l-.13.14" transform="translate(-9.94 -62.33)"/><path d="M346.4,98.19c.47-8.68,8.63-15.75,16.21-14.39,2.11.38,2.85,1.73,2.26,3.72-1.88,6.32-11.4,12-18.47,10.67" transform="translate(-9.94 -62.33)"/><path d="M373.38,363.54c-3.13,0-6.26.08-9.39,0-10.47-.32-20.22,2.88-29.81,6.38-9.94,3.62-20.23,5.24-30.61,6.59a35,35,0,0,1-5.83-.22c.63-.86.87-1.44,1.09-1.43,14.58.21,28.1-4.62,41.79-8.67,8.6-2.55,17.13-5.5,26.31-4.42,2.21.26,4.38.81,6.57,1.23l-.12.56" transform="translate(-9.94 -62.33)"/><path d="M466.66,423.63l10-.17c2.09-3.58,1.71-6.21-.1-8.62-1.53-2-2.88-4.58-5-5.78-7.88-4.56-11.23-12-13.72-20.1-1.61-5.19-4-10.27-3.66-15.59,2.73,7.49,5.3,15.28,8.46,22.82a23.47,23.47,0,0,0,5.87,8.12c4.64,4.14,9.35,8,11.94,13.95,1.58,3.65,5.29,3.92,8.86,3.75l5.55-.31,0-.08c-4.4,1.69-8.8,3.43-13.42.07-4.52,3.86-9.22,6.32-14.62,1.8l-.16.14" transform="translate(-9.94 -62.33)"/><path d="M308,178.56c-.24,2.17-1.17,3.41-3.61,3.6-8,.63-15.88,2.09-24,2.26-6.38.14-12.32-2.26-19.28-1.62l1.93,3.54c-.67,0-1.35.21-1.72,0-3.15-2.1-6.24-4.28-9.82-6.76,7.55.66,14.73.86,21.76,2,8.2,1.34,16.18-.19,24.23-.76,3.55-.25,7-1.45,10.53-2.21Z" transform="translate(-9.94 -62.33)"/><path d="M249.91,301.58c-1.32,0-2.91.44-4.07-.08-3.93-1.79-8.32-12.83-7.05-17.24.09-.33.57-.57.87-.85,7.47,3.09,11.74,10.44,10.25,18.17" transform="translate(-9.94 -62.33)"/><path d="M476.16,362.62c-6.48-1.84-8.22-7.74-10.43-12.89-5.39-12.53-5.46-25.88-4.55-39.16a16.51,16.51,0,0,1,4.29-9.61c3.38-3.48,7.86-2.48,11.82,0l.19-.15c-.85,0-1.71,0-2.56,0-8.55-.55-11.23.9-11.91,9.33a133.62,133.62,0,0,0,.56,26c1.16,10.09,5.62,19.06,12.5,26.69Z" transform="translate(-9.94 -62.33)"/><path d="M162.27,325.28c1.25,1.39,3.23,2.6,3.62,4.2,1.72,7.17,7.06,11.44,12.1,15.95A100.1,100.1,0,0,0,210,365a17.78,17.78,0,0,1,2.85,1.37c.23.14.24.67.62,1.83-2.79-1-5.19-1.61-7.44-2.61-13.79-6.15-26.35-14.27-36.23-25.74-3.46-4-5-9.72-7.37-14.66l-.14.14" transform="translate(-9.94 -62.33)"/><path d="M494.61,408.39c-5.07-.38-10.19-.47-15.21-1.24a6.08,6.08,0,0,1-5.53-6.15,9.26,9.26,0,0,0-3.88-7.77c-4-2.71-5.42-6.9-5.86-11-.65-6.12-.18-12.36-.1-18.55,0-.69.62-1.36,1.4-2.93,1.05,3,1.79,5.17,2.59,7.47-3.79,2.19-2.45,5.92-2.72,9.1-.48,5.6,1.12,10.65,5.3,14.54,2.77,2.57,5,5.21,5,9.26,0,2.52,1.81,3.81,4.07,4.31,2.08.46,4.24.58,6.33,1,2.86.6,5.69,1.37,8.52,2.09a1.17,1.17,0,0,1,.08-.13" transform="translate(-9.94 -62.33)"/><path d="M15.58,337.12c-4.63-5.92-4.56-12.21.29-17.69a28.83,28.83,0,0,1,15.07-9.12A29.84,29.84,0,0,0,46.6,301.1c2.67-2.9,6.4-4.82,9.66-7.18l-.11-.11c-6.27,6.78-11.87,14.37-21.21,17.36a52.41,52.41,0,0,0-5.51,1.66c-6.66,3-12.9,6.18-15.55,14-1.4,4.15,1.56,6.91,1.56,10.43l.14-.14" transform="translate(-9.94 -62.33)"/><path d="M187.28,298.94c-.88,3-1.77,5.95-2.63,8.95l.14.17c-.28-2.06-.58-4.15-1-7.08-2-.16-4.2-.51-6.43-.51a140,140,0,0,0-44.61,6.95c-1.91.64-4.12.36-6.21.51,0,0,0,0,0,0,6.69-2,13.3-4.53,20.14-5.84,13.41-2.56,27-4.38,40.69-3Z" transform="translate(-9.94 -62.33)"/><path d="M208.62,264.76c.74-2.63,0-4.83-1.24-7.27-3.31-6.45-6.71-12.89-6.69-20.54,0-4.51,1.27-8.51,2.92-13.14-.29,6.15-1.6,11.81-.51,17,1.28,6.13,4.37,11.95,7.24,17.61.76,1.5,3.49,2.44,5.46,2.77,4.63.76,9.34,1,14,1.43,1.79.16,3.59.27,5.39.41,0,.47-.08.94-.11,1.4-5.58-.43-11.17-.73-16.72-1.35a16.57,16.57,0,0,0-9.89,1.56l.14.15" transform="translate(-9.94 -62.33)"/><path d="M349.15,109.7c-12.38,1.88-19.81-6.87-16-18.48,3.33-10.1,10.39-16.45,21.58-18.64a26.45,26.45,0,0,1-3,1.94,33.47,33.47,0,0,0-14.38,12.42,21,21,0,0,0-3.17,9.5c-.48,6.5,2.33,9.81,8.64,11.61,2,.58,4.09,1.07,6.36,1.65" transform="translate(-9.94 -62.33)"/><path d="M57.07,449.2c-.35.24-.75.74-1,.68-5.15-1.1-10.23,0-15.34.12-3.2.1-6.48-2.38-9.59-4.14-3.85-.13-7.57,3.27-11.93.69,6.78-.2,12.07-2.79,15.51-8.74.29-.49,1.49-.46,2.27-.66v0l-3.78,6.36c3.16,4.71,7,6,11.8,4,4.66-1.9,6.89-5.66,6.09-10.5a43.35,43.35,0,0,0-1.16-4.26l-.1.12c5.34,4,2.54,8.93,1.09,14.38,2.16.73,4.22,1.41,6.29,2.12a1.49,1.49,0,0,0-.12-.14" transform="translate(-9.94 -62.33)"/><path d="M210.56,336.47c6.21,4.36,12.33,8.82,16.38,17-2.89.48-5,1.23-7.09,1.07a19.24,19.24,0,0,1-6.69-1.88c-7-3.37-14.07-6.83-20.94-10.56-2.17-1.18-3.83-3.31-5.73-5l-.17.15c5.29,2.62,10.6,5.22,15.9,7.85,4.19,2.1,8.32,4.32,12.55,6.33a11.37,11.37,0,0,0,9.43.76c-1.35-2.06-2.2-3.93-3.55-5.32-2.38-2.44-5.12-4.52-7.56-6.91a20.39,20.39,0,0,1-2.4-3.52Z" transform="translate(-9.94 -62.33)"/><path d="M159.49,339.71c4.4,0,6.54,3.56,9.25,6.14,2.47,2.35,4.6,5.08,7.14,7.34,7.66,6.82,17.18,10.09,26.59,13.54a8.93,8.93,0,0,1,3.21,1.68,67.88,67.88,0,0,1-20.27-6.4,52.67,52.67,0,0,1-17.34-13.89c-2.52-3.09-5.61-5.73-8.44-8.56l-.14.15" transform="translate(-9.94 -62.33)"/><path d="M37,437.15c-1.19-4.26-.41-8.3,2.6-11.35,10.49-10.66,13.57-24.34,16.16-38.27a74.3,74.3,0,0,1,2.05-9.07c-.05,9.37-2.24,18.3-4.76,27.25a50,50,0,0,1-11.18,19.88A19.11,19.11,0,0,0,37,437.09a.18.18,0,0,1,0,.06" transform="translate(-9.94 -62.33)"/><path d="M493.51,332.56a18.84,18.84,0,0,1-3.29,1.41c-4.85,1-7.32,4.23-6.58,9a30.6,30.6,0,0,0,1.68,5.45c.72,2,1.62,3.9,2.34,5.89,1.16,3.27.78,6.33-1.87,8.72s-5.41,2.17-9.63-.44l-.09.16c1.69.09,3.49.57,5.05.17a8.81,8.81,0,0,0,4.75-2.7c1.63-2.24.67-4.77-.49-7.21-3-6.27-5.32-12.66-.55-18.77-.93-3.24-5.18-5.17-2.18-8.88l-.19-.09c1.9,6.24,2,6.28,8.06,6.92,1.05.11,2.09.3,3.13.46Z" transform="translate(-9.94 -62.33)"/><path d="M167.31,269.8c-2.08,2.25-3.89,4.85-6.28,6.7-9.52,7.38-20.63,11.5-32,14.93-3.2,1-6.5,1.59-9.75,2.37l.1.06c2.16-1.11,4.21-2.73,6.52-3.27a95.25,95.25,0,0,0,39.88-19.83,7.05,7.05,0,0,1,1.71-.79s-.16-.17-.16-.17" transform="translate(-9.94 -62.33)"/><path d="M368,244.25c-2.37,3.07-2,6.35-.73,9.72l.08-.09c-1.07-2.48-2.54-4.87-3.13-7.46-2.35-10.31-1.15-20.67-.56-31l1.24-.09c.09,1.51.25,3,.25,4.53,0,6.85-.15,13.69-.11,20.53,0,2-.46,4.7,3.14,4.05Z" transform="translate(-9.94 -62.33)"/><path d="M119.26,293.79c-10.22,2.06-20.4,4.36-30.67,6.07-4.23.7-8.66.11-13-.83,5.17-.37,10.38-.45,15.5-1.19,7.36-1.08,14.63-2.72,22-3.95a37.67,37.67,0,0,1,6.29-.05l-.07,0" transform="translate(-9.94 -62.33)"/><path d="M54.19,417.88c1.33-3.07,2.32-6.35,4.06-9.16a67.14,67.14,0,0,0,9.42-25.28c.11-.7.9-1.3,1.37-1.95l-.08-.1c-.11,12.94-6.16,23.68-12.71,34.22a12.29,12.29,0,0,1-2.21,2.1s.15.17.15.17" transform="translate(-9.94 -62.33)"/><path d="M187.38,299.05c.08-2-.45-4.33.35-6a88.36,88.36,0,0,1,20.89-28.27l-.14-.15c-2.8,3.92-5.53,7.9-8.42,11.75-5.24,7-10.26,14-12.8,22.54l.12.14" transform="translate(-9.94 -62.33)"/><path d="M341.09,300.82c-4.22,7.34-8.31,14.77-12.74,22-1.74,2.84-4.25,5.2-6.41,7.78l.17.15c2.64-4.54,5.31-9.06,7.9-13.63,1.87-3.29,3.67-6.62,5.45-10,1.38-2.59,2.27-5.61,5.79-6.18l-.16-.15" transform="translate(-9.94 -62.33)"/><path d="M283,353.72c.1.83.2,1.66.38,3.28l9.4-3.74c-1.82,3.3-4.56,3.4-6.41,4.66s-3.88,2.62-5.89,3.82-4.16,2.3-6.24,3.45c-.31-.45-.63-.9-.95-1.34q2.5-2.5,5-5c1.63-1.64,3.26-3.3,4.89-4.95Z" transform="translate(-9.94 -62.33)"/><path d="M493.65,332.68c.75-.42,1.52-.8,2.24-1.25,6-3.76,6-3.76,3.34-9.81,4.63,3.59,4.63,3.59,1.35,9.91,3.35,5.36,1.84,10.27-2.22,14.84,1.52-4.39,4.75-8.67.62-13.48-1.7-.09-3.57-.19-5.45-.31l.12.1" transform="translate(-9.94 -62.33)"/><path d="M79,313.57c5.54.11,9.47,2.31,10.35,8.4.37,2.61,1.16,5.15,1.76,7.72l-1.55.55a57.71,57.71,0,0,1-2.89-7.05c-1.76-6.58-1.65-6.61-7.67-9.62" transform="translate(-9.94 -62.33)"/><path d="M385.27,288.67c-4.72-6.74-9.55-13.4-14.09-20.25-1.11-1.68-1.31-3.95-1.93-5.95l-.14.14c.84.84,2,1.53,2.48,2.55a80.51,80.51,0,0,0,12.67,19.68c.78.89.63,2.59.91,3.91Z" transform="translate(-9.94 -62.33)"/><path d="M210.69,336.41c-.64,0-1.38.26-1.9,0-3.42-1.52-4.84-3.63-3.89-5.58s3.23-2.37,6.64-.25c4.33,2.68,8.61,5.51,11,10.3l.16-.17c-2.53-1.85-5-3.77-7.61-5.54-2.34-1.6-4.8-3-7.92-5-.32,3.84,1.11,5.29,3.33,6.29l.17-.08" transform="translate(-9.94 -62.33)"/><path d="M140.57,404.86c3.17-1.71,6.19-.25,9.28.38,6.81,1.38,13.64,2.64,20.3,5.05-4.45-.68-8.93-1.21-13.35-2.05-5.4-1-10.75-2.32-16.16-3.46a.21.21,0,0,0-.07.08" transform="translate(-9.94 -62.33)"/><path d="M477.29,301c4.43.59,7.19,3.72,9.47,7,2.81,4,2.36,8.45-.28,12.52a52.35,52.35,0,0,1-4,4.84l.19.09a53.87,53.87,0,0,1,2.39-5.64c3.06-5.5,2.35-10.19-2.35-14.31-1.75-1.53-3.47-3.08-5.21-4.63Z" transform="translate(-9.94 -62.33)"/><path d="M368.22,244.43V233.17l1-.08.72,8.44c1.39.15,3.74-.18,4.11.54,1,1.86,1.08,4.17,1.53,6.3l-1.15.54L368,244.25l.18.18" transform="translate(-9.94 -62.33)"/><path d="M492.72,372.74c.64-4.23,1-8.3-.58-12.58-1.41-3.8-.89-7.75,3.28-10.25-3.55,4.72-1.68,9.73-1,14.61.44,3,1.28,6-1.85,8.06Z" transform="translate(-9.94 -62.33)"/><path d="M373.76,74.88a64,64,0,0,0-7.09-2,59.17,59.17,0,0,0-7.13-.45c-1.74-2.1-3.17-3.84-4.63-5.56l-.18.16c.4-.09.91-.4,1.22-.26,5.93,2.7,11.84,5.46,17.74,8.23l.07-.11" transform="translate(-9.94 -62.33)"/><path d="M492.59,372.58c-.41,4.22-3.54,5.49-7,6.24-6.05,1.3-10.84-1.13-15-5.08,14,5.32,14.84,5.29,22.15-1l-.14-.17" transform="translate(-9.94 -62.33)"/><path d="M56.26,293.92c10-1.43,14,1.29,14.84,10.83-2.2-3.13-3.56-6.39-6-8.15s-5.89-1.9-8.92-2.77l.09.09" transform="translate(-9.94 -62.33)"/><path d="M201.45,284.9c2.88,3,5.06,5.29,3.49,9.14-4.75-2.18-5.29-3.4-3.49-9.14" transform="translate(-9.94 -62.33)"/><path d="M352.4,344c-1.37,1.18-2.83,2.26-4.09,3.54-3,3.11-6,6.31-9.72,8.74,3.12-3.53,6.12-7.18,9.44-10.52,1-1,2.89-1.21,4.4-1.77h0" transform="translate(-9.94 -62.33)"/><path d="M325.37,358.07l-11,6.42-.72-1.21,10.67-6.46,1.07,1.25" transform="translate(-9.94 -62.33)"/><path d="M250.28,357.18l-13.56-8.35.8-1.17a27.28,27.28,0,0,1,12.58,9.65l.18-.13" transform="translate(-9.94 -62.33)"/><path d="M374.82,91.54c1.55-5.67-.12-11.12-1.08-16.64l-.05.09c3.15,5.27,5.05,10.64,1,16.37l.14.18" transform="translate(-9.94 -62.33)"/><path d="M49.91,432.72c-3.42-6.35.16-10.67,4.28-14.84,0,0-.15-.16-.15-.17-.15.8,0,1.82-.48,2.39-2.94,3.76-3.61,8.14-3.73,12.72l.08-.1" transform="translate(-9.94 -62.33)"/><path d="M430.67,373.51c-2.05-3.87-5.06-7.36-4.53-12.24,1.48,4.11,4.95,7.45,4.44,12.35l.09-.11" transform="translate(-9.94 -62.33)"/><path d="M222.56,340.9l10.24,4.59c-5,0-7.25-1.17-10.08-4.76l-.16.17" transform="translate(-9.94 -62.33)"/><path d="M308,178.58l9.75-.69-2.57,4.63-7.18-4v0" transform="translate(-9.94 -62.33)"/><path d="M296.68,339.58c.46-3.33.82-5.88,1.15-8.29,2.62,2,2.54,3.34-1.15,8.29" transform="translate(-9.94 -62.33)"/><path d="M428.34,290c1.43-3.42,4.36-2.07,6.63-1.74a14.76,14.76,0,0,1,6.58,3.06c-4.36-1.58-8.56-3.55-13.23-1.32Z" transform="translate(-9.94 -62.33)"/><path d="M273.64,91.27l-6.26-3.55c4.51-2.13,5.95-.16,7.46,1.64l-1.2,1.91" transform="translate(-9.94 -62.33)"/><path d="M325.79,346c-2.32,3-5,5.57-8.54,6.82l-.75-1.11,9.44-5.57-.15-.14" transform="translate(-9.94 -62.33)"/><path d="M340.42,342.67c-.18,1.12-.05,2.45-.62,3.32a18.07,18.07,0,0,1-5.66,5.82c.91-4,4-6.25,6.43-9l-.15-.17" transform="translate(-9.94 -62.33)"/><path d="M385.05,215.57c1,3.12,1.3,5.15-1.64,6.79-1.63-2.63-1.22-4.47,1.64-6.79" transform="translate(-9.94 -62.33)"/><path d="M305.85,99.11,301,102.83c-.87-4.37,2.33-3.77,3.5-5.22l1.38,1.5" transform="translate(-9.94 -62.33)"/><path d="M383.16,245.05c-3.56-.32-2.78,3.1-4.68,5.84-.56-2.92-.93-4.89-1.52-8l6.24,2.16,0,0" transform="translate(-9.94 -62.33)"/><path d="M208,200c-.23,1.74-.46,3.47-.87,6.53-2.66-3.25-2-5-.78-6.75L208,200" transform="translate(-9.94 -62.33)"/><path d="M328.24,363.68l7.36-5c-1.52,4.34-4.13,5.09-7.36,5" transform="translate(-9.94 -62.33)"/><path d="M206.94,135.41l4.48,5.8c-3.82.3-3.82.3-4.48-5.8" transform="translate(-9.94 -62.33)"/><path d="M278.42,100l5.48,2.11-.58,1.6-5.5-2,.6-1.66" transform="translate(-9.94 -62.33)"/><path d="M315.82,337.35c-.18-4.36,3.12-5.42,6.28-6.62l-.16-.14-6.28,6.62.16.14" transform="translate(-9.94 -62.33)"/><path d="M377,241c.85-2.18,1.43-3.68,2-5.18.34.18.94.34.95.54.26,3.73.24,3.73-3,4.64" transform="translate(-9.94 -62.33)"/><path d="M69,381.49c-.94-3.21-.87-6.33,1.34-9.24-.49,3-1,6.05-1.45,9.11l.11.13" transform="translate(-9.94 -62.33)"/><path d="M494.9,421.71q-.15-6.65-.31-13.3s-.08.13-.06.11c3.42,4.26,2.25,8.63.31,13.07a1.29,1.29,0,0,1,.06.12" transform="translate(-9.94 -62.33)"/><path d="M303.35,345.59c-1.63,3.85-1.62,3.86-6.51,4.74l6.66-4.59Z" transform="translate(-9.94 -62.33)"/><path d="M331.14,71.36,335,68c.39.95.89,1.75.74,1.89-1.08,1-2.29,2-3.46,2.94l-1.15-1.48" transform="translate(-9.94 -62.33)"/><path d="M375.41,236.46c-.29-1.45-.57-2.89-.87-4.45a5.86,5.86,0,0,1,1.33,0c.34,1.38.62,2.79.91,4.18l-1.37.26" transform="translate(-9.94 -62.33)"/><path d="M428.32,290l-8.17,3.75c1.73-4.15,4.66-4.59,8.18-3.75h0" transform="translate(-9.94 -62.33)"/><path d="M442.65,338.71l-1.27,1.45a14.94,14.94,0,0,1-1.64-2c-.07-.11,1-1.14,1.09-1.07a12.51,12.51,0,0,1,1.82,1.64" transform="translate(-9.94 -62.33)"/><path d="M369.25,262.47c-2.68-2.4-2.39-5.45-1.88-8.57l-.06.07q.93,4.29,1.8,8.63l.14-.13" transform="translate(-9.94 -62.33)"/><path d="M371.91,232.4c.31,1.69.61,3.37.92,5.06l-1.41.3-1-5.1,1.51-.26" transform="translate(-9.94 -62.33)"/><path d="M283.17,353.88c1.17-2.28,2.33-4.56,3.5-6.83l1.16.73a9.18,9.18,0,0,1-4.82,5.94l.16.16" transform="translate(-9.94 -62.33)"/><path d="M436.17,350.05c.23,1.25.45,2.5.68,3.75l-1.31.32-1.21-3.6,1.84-.47" transform="translate(-9.94 -62.33)"/><path d="M289.65,92.25l4.3,2.1-.39,1a6.49,6.49,0,0,1-2.26-.86,9.5,9.5,0,0,1-1.48-2.4s-.17.17-.17.17" transform="translate(-9.94 -62.33)"/><path d="M385.17,288.75l6.25,1.35-.62,1.62c-1.82-1-3.63-2.07-5.49-3.08l-.14.11" transform="translate(-9.94 -62.33)"/><path d="M255.81,86c-1,.93-1.5,1.79-2.06,1.81S252.61,87,252,86.58c.48-.55.86-1.39,1.45-1.57s1.21.48,2.33,1" transform="translate(-9.94 -62.33)"/><path d="M227.94,304.68c-.65-.77-1.33-1.53-1.92-2.35-.05-.08.64-.83.66-.82.84.61,1.65,1.26,2.46,1.9l-1.2,1.27" transform="translate(-9.94 -62.33)"/><path d="M339.48,149.55l-1.46-.66a16.73,16.73,0,0,1,1.36-1.86c.09-.1.69.29,1.06.46l-1,2.06" transform="translate(-9.94 -62.33)"/><path d="M303.5,345.74q2-1.71,4-3.44c-.26,2.87-1.63,4-4.14,3.3l.14.14" transform="translate(-9.94 -62.33)"/><path d="M315.66,337.21,312,340.43c.15-3.17,1.75-3.44,3.79-3.09l-.15-.13" transform="translate(-9.94 -62.33)"/><path d="M228.9,96.77c-6.82,1.2-16.78-4.89-18.34-10.91-.52-2,.24-3.26,2.37-3.64,7.25-1.32,15.86,6.31,16,14.55" transform="translate(-9.94 -62.33)"/></svg>