<svg xmlns="http://www.w3.org/2000/svg" viewBox="0 0 63.62 165.9"><defs><style>.cls-1{isolation:isolate;}.cls-2{opacity:0.53;}.cls-2,.cls-3{mix-blend-mode:multiply;}.cls-4{mix-blend-mode:screen;}</style></defs><title>log</title><g class="cls-1"><g id="Layer_1" data-name="Layer 1"><path d="M397.06,382.26l3.06.21c1,.06,2,.15,3.06.19h0a30.76,30.76,0,0,0,1.81-6.38c0-.17.26-.19.36-.09s.09.28.12.4l.07.83.16,1.65a26,26,0,0,0,.52,3.28l0,0,2.94-.41c.49-.06,1-.12,1.47-.15a10.41,10.41,0,0,1,1.48.07c1,.1,2,.23,2.95.3s2,0,2.95-.07c2-.13,4-.15,5.92-.21l5.93-.16-.07.07c0-3.11-.06-6.23,0-9.35s.17-6.23.35-9.34l1.24-18.65h0l-.05-1h0v0a33.7,33.7,0,0,0,.2-3.76c0-1.26,0-2.52,0-3.78q0-3.78-.18-7.55c-.3-5-.48-10.08-.58-15.12-.21-10.08-.29-20.16-.34-30.24s-.06-20.17.23-30.25c.15-5-.17-10.05-.38-15.09s-.51-10.06-.77-15.09l.29.29a1.43,1.43,0,0,1-.56-.28l-.38-.29-.73-.6-.72-.59-.35-.26-.14-.08-.15,0a14.79,14.79,0,0,0-3.64.08c-1.22.16-2.45.41-3.72.52a16.07,16.07,0,0,1-3.8-.12l.4-.37a6,6,0,0,1-.36,2c-.05.06,0,.1-.24.28a.4.4,0,0,1-.35,0L415,223l0,0,0,0-.15-.16-.34-.32-.69-.65c-.46-.43-.93-.87-1.38-1.32-.22-.23-.45-.46-.67-.71a3.38,3.38,0,0,1-.62-.88l.3.24a7.53,7.53,0,0,0-2.12,0,18.34,18.34,0,0,0-2.12.54,9.67,9.67,0,0,1-2.28.35c-.78,0-1.5,0-2.24,0-2.95,0-5.9.19-8.86.43a55.65,55.65,0,0,1-9,.24,10.68,10.68,0,0,0-4.27.37l-.12,0s.08-.05.09-.1,0-.11,0,0l0,.14a5.62,5.62,0,0,1,.09.57,11.11,11.11,0,0,1,.08,1.14c0,.76,0,1.51,0,2.25a.32.32,0,0,1-.34.32.33.33,0,0,1-.3-.2,15.3,15.3,0,0,0-1.86-3.73,3.9,3.9,0,0,0-.76-.7l-.83-.66-1.64-1.31.18.06a.91.91,0,0,0-.65.2,2.13,2.13,0,0,0-.39.71,2.73,2.73,0,0,1-.53.92,1.66,1.66,0,0,1-1,.49l.28-.31.12,5.1c0,1.7.09,3.41,0,5.12-.07,3.42-.36,6.81-.41,10.21-.12,6.8,0,13.62.11,20.42.1,3.4.16,6.81.51,10.19l.53,5.07c.18,1.67.36,3.41.4,5.11.27,6.81.42,13.62.56,20.43s.26,13.62.33,20.43c0,3.41.06,6.81,0,10.22,0,1.71,0,3.41-.11,5.12s-.22,3.39-.25,5.09c-.07,3.4,0,6.81-.18,10.22a66.41,66.41,0,0,1-1.33,10.13c-.32,1.68-.64,3.35-.91,5-.13.84-.26,1.68-.35,2.52a8.91,8.91,0,0,1-.57,2.5,38.27,38.27,0,0,0-1.92,4.72,5.27,5.27,0,0,0-.14,1.25c-.1.47.29.71.63,1s.73.44,1.09.66a4.6,4.6,0,0,1,.53.37.89.89,0,0,1,.39.53l0-.05,3.64,0,3.63-.07c.61,0,1.22,0,1.82-.07a1.3,1.3,0,0,0,.8-.32.67.67,0,0,0,.16-.41l.09-.44c.05-.3.14-.59.2-.89l.11-.44.05-.22s0-.07.05-.13.09.05.12.07a9.53,9.53,0,0,1,.79,1.64c.17.56.44,1.21,1.06,1.35a6,6,0,0,0,1.8,0c1.21-.11,2.41-.26,3.62-.41a13.31,13.31,0,0,1,3.62.07Zm0,0-3.63-.3a13.72,13.72,0,0,0-3.62-.06c-1.2.16-2.41.31-3.62.42a5.78,5.78,0,0,1-1.81,0c-.65-.15-.92-.82-1.1-1.37a9.4,9.4,0,0,0-.78-1.63c-.07-.08-.05-.05-.08,0l-.05.22-.1.44c-.07.3-.15.59-.2.89l-.09.45a.7.7,0,0,1-.17.43,1.33,1.33,0,0,1-.84.34c-.61.08-1.22.06-1.82.08l-3.64.08h-3.64a.07.07,0,0,1-.05,0h0c-.11-.37-.55-.59-.88-.82s-.74-.42-1.09-.66a2.48,2.48,0,0,1-.51-.41.62.62,0,0,1-.16-.3v-.33a5,5,0,0,1,.13-1.28,39,39,0,0,1,1.91-4.73,8.42,8.42,0,0,0,.55-2.47c.1-.85.22-1.69.35-2.54.26-1.68.58-3.35.89-5a67.54,67.54,0,0,0,1.3-10.11c.16-3.4.08-6.8.14-10.21,0-1.71.1-3.41.23-5.11s.1-3.4.1-5.1c0-3.4,0-6.81-.07-10.21q-.13-10.21-.39-20.43c-.17-6.81-.34-13.62-.63-20.42-.05-1.71-.23-3.36-.42-5.07l-.55-5.09c-.36-3.4-.43-6.81-.54-10.22-.12-6.81-.28-13.62-.17-20.44,0-3.42.31-6.82.37-10.21,0-1.7,0-3.39-.06-5.1l-.13-5.11a.3.3,0,0,1,.25-.31h0a1.07,1.07,0,0,0,.65-.3,2.22,2.22,0,0,0,.4-.72,2.37,2.37,0,0,1,.54-.93,1.5,1.5,0,0,1,1.1-.38.35.35,0,0,1,.18.06l1.7,1.35.85.68a3.54,3.54,0,0,1,.8.75,15.43,15.43,0,0,1,2,3.88L380,225c0-.75,0-1.49,0-2.21a9.46,9.46,0,0,0-.08-1.08c0-.18-.05-.36-.08-.54l0-.13a.5.5,0,0,1,.3-.61l.14,0a11.36,11.36,0,0,1,4.54-.42,54.63,54.63,0,0,0,8.85-.27c3-.24,5.93-.48,8.93-.46.74,0,1.51.05,2.21.05a8.91,8.91,0,0,0,2.11-.32,17.68,17.68,0,0,1,2.2-.55,8.2,8.2,0,0,1,2.32,0,.38.38,0,0,1,.29.21v0a3.42,3.42,0,0,0,.47.65c.2.23.42.45.64.67.44.45.9.88,1.35,1.31l.7.65.34.34.18.18,0,0,0,0s0,0-.06-.06a.34.34,0,0,0-.31,0c-.21.13-.11.1-.12.08a5.72,5.72,0,0,0,.3-1.69v0a.34.34,0,0,1,.34-.34h.05a15.43,15.43,0,0,0,3.65.13c1.22-.1,2.44-.35,3.69-.51a15.17,15.17,0,0,1,3.81-.06.85.85,0,0,1,.3.05,1.53,1.53,0,0,1,.27.15c.15.1.27.2.4.3l.73.59.71.6.36.27c.09.08.3.18.25.17l.29.29c.24,5,.55,10.09.73,15.12s.49,10.08.33,15.14c-.33,10.07-.31,20.15-.33,30.23s.06,20.16.24,30.24q.12,7.56.53,15.1c.11,2.52.16,5.05.16,7.57,0,1.26,0,2.52,0,3.78a32.1,32.1,0,0,1-.21,3.79v0l0,1h0l-1.3,18.65q-.29,4.67-.38,9.34c-.07,3.11-.06,6.23,0,9.34a.08.08,0,0,1-.07.07l-5.92.14c-2,.06-3.95.07-5.92.19-1,.06-2,.07-3,.06s-2-.21-2.94-.31a10.41,10.41,0,0,0-1.47-.07c-.5,0-1,.09-1.48.14l-2.93.4s0,0,0,0a28.48,28.48,0,0,1-.52-3.29l-.15-1.66-.07-.82c0-.14,0-.3-.09-.38s-.28-.07-.3.07a30.81,30.81,0,0,1-1.83,6.38h0c-1,0-2-.14-3.06-.21Z" transform="translate(-368.44 -217.04)"/><path d="M369,379.63c2.67-6.6,3.36-13.79,4.66-20.8.12-.89.23-1.77.31-2.66s.07-1.78.11-2.68l.15-5.35c0-1.78,0-3.57.07-5.36s.16-3.57.25-5.35c.15-7.14,0-14.29-.13-21.43s-.29-14.28-.48-21.42-.27-14.27-1.25-21.38l-.28-2.67-.16-2.67c-.1-1.79-.16-3.58-.21-5.36-.1-3.58-.14-7.15-.19-10.72s-.08-7.15,0-10.72.36-7.15.39-10.71c0-1.78-.08-3.56-.12-5.35l-.06-2.68,0-1.34v-.18a.46.46,0,0,1,.16-.33.59.59,0,0,1,.29-.12.61.61,0,0,0,.13,0,.76.76,0,0,0,.43-.26,8.88,8.88,0,0,0,.56-1.15,1.56,1.56,0,0,1,1.24-.88H375a.8.8,0,0,1,.26,0,.54.54,0,0,1,.22.12l.13.11.53.42,1.06.84a7.65,7.65,0,0,1,2,1.89,14.25,14.25,0,0,1,1.22,2.44l-.53.1a15.61,15.61,0,0,0-.12-2.47l-.05-.3,0-.16a.57.57,0,0,1,0-.26.64.64,0,0,1,.31-.44c.17-.08.23-.08.34-.13a7.16,7.16,0,0,1,1.27-.32,29.81,29.81,0,0,1,5.09,0c3.33.05,6.68-.38,10-.6,1.69-.11,3.37-.2,5.06-.21.85,0,1.7,0,2.54,0a8.55,8.55,0,0,0,2.41-.28,19.52,19.52,0,0,1,2.48-.63,8.16,8.16,0,0,1,1.31-.06c.22,0,.44,0,.65,0l.16,0a.9.9,0,0,1,.23,0,.53.53,0,0,1,.3.25l.07.14a12.8,12.8,0,0,0,1.64,1.78l1.84,1.74-.57.15a5.6,5.6,0,0,0,.23-1.47v0a.53.53,0,0,1,.28-.55.51.51,0,0,1,.3-.07l.14,0,.47.05c.32,0,.62.07.94.09a12.83,12.83,0,0,0,1.86,0c1.25-.09,2.49-.35,3.78-.52a15.42,15.42,0,0,1,3.9-.11l.25,0a1,1,0,0,1,.35.12,4.19,4.19,0,0,1,.44.3c.27.2.51.4.76.61l.74.6.36.29.18.13s.15.09.08.06h0a.56.56,0,0,1,.49.39,1.88,1.88,0,0,1,0,.2v.12l0,.47.05.95.1,1.89.2,3.8c.11,2.52.28,5.06.35,7.58.17,5,.49,10.1.34,15.17-.33,10.1-.31,20.21-.33,30.32s.06,20.21.24,30.31c.08,5.06.24,10.1.53,15.15q.15,3.8.16,7.59c0,1.26,0,2.53,0,3.79a34.43,34.43,0,0,1-.21,3.8v0l0,1v0l-1.18,16.91c-.39,5.63-.56,11.28-.55,16.92v3.45a.33.33,0,0,1-.15.33.33.33,0,0,1-.19.06h-.4l-4.23.1c-2.82.06-5.64.12-8.47.27s-5.62-.79-8.43-.12l-2.11.28a.29.29,0,0,1-.27-.22l-.06-.26-.1-.52c-.07-.35-.12-.7-.17-1-.21-1.4-.31-2.81-.43-4.22l0,0,0,0,.11-.06a24.11,24.11,0,0,1-.86,3.57c-.18.59-.37,1.16-.58,1.74l-.32.86-.08.21a.26.26,0,0,1-.22.18l-.47,0c-2.43-.17-4.87-.32-7.3-.53l-3.65-.31-.91,0a5.69,5.69,0,0,0-.91.08c-.6.07-1.21.13-1.81.22s-1.22.13-1.82.2a7.55,7.55,0,0,1-1.84,0,1.6,1.6,0,0,1-1.3-1.18c-.22-.57-.48-1.12-.72-1.68h.05c-.17.68-.26,1.37-.46,2.05a1.18,1.18,0,0,1-.87.55,7.18,7.18,0,0,1-1,.09l-4.18.09-4.18,0a.21.21,0,0,1-.16-.2.49.49,0,0,0-.14-.21,3.32,3.32,0,0,0-.42-.32c-.29-.19-.59-.36-.89-.54a5.53,5.53,0,0,1-.86-.6,1,1,0,0,1-.3-.41A3,3,0,0,1,369,379.63Zm0,0a2.85,2.85,0,0,0,0,.51,1.07,1.07,0,0,0,.31.42,5.69,5.69,0,0,0,.86.59c.3.18.6.35.89.55a3,3,0,0,1,.42.31c.17.1.1.36.29.41l4.18,0,4.18-.1a6,6,0,0,0,1-.1,1.1,1.1,0,0,0,.83-.52c.19-.66.28-1.36.45-2,0,0,0,0,0,0h0c.24.57.51,1.12.73,1.69a1.56,1.56,0,0,0,1.25,1.14,7.39,7.39,0,0,0,1.82,0c.61-.07,1.22-.11,1.82-.21s1.21-.15,1.82-.22a6.84,6.84,0,0,1,.91-.09l.92,0,3.65.3c2.43.2,4.86.35,7.3.51l.44,0c.12,0,.14-.17.2-.32l.32-.85q.3-.87.57-1.74a24.09,24.09,0,0,0,.84-3.55.06.06,0,0,1,.08-.06h0l0,0a.05.05,0,0,1,0,0c.12,1.4.23,2.81.44,4.21,0,.34.1.69.17,1l.11.51.05.26a.13.13,0,0,0,.12.09l2.08-.29c2.8-.68,5.66.28,8.45.09s5.64-.23,8.46-.29l4.24-.12h.46c.06,0,0-.23,0-.4v-1.06l0-2.12q0-8.47.49-16.94l1.14-16.91v0l-.05-1h0v0a31.46,31.46,0,0,0,.19-3.76c0-1.27,0-2.53,0-3.79,0-2.52-.07-5.05-.18-7.57-.3-5-.48-10.11-.58-15.16-.21-10.1-.29-20.21-.34-30.32s-.07-20.22.24-30.34c.13-5-.21-10.07-.39-15.13-.09-2.53-.26-5-.38-7.56l-.2-3.78-.1-1.89-.05-.95,0-.47v-.12c0-.05,0-.08,0,0a.18.18,0,0,0,.13.11h0a1,1,0,0,1-.33-.17l-.21-.15-.39-.31-.74-.61c-.24-.2-.48-.41-.73-.59a2.19,2.19,0,0,0-.35-.24l-.09,0-.24,0a15.05,15.05,0,0,0-3.73.09c-1.25.17-2.51.43-3.81.52a14.25,14.25,0,0,1-2,0c-.33,0-.66-.05-1-.09l-.47-.06h-.1l.07,0s.07,0,.06-.15h0v0a4.6,4.6,0,0,1-.08.87,8.27,8.27,0,0,1-.19.83.34.34,0,0,1-.42.23.29.29,0,0,1-.13-.08h0l-1.83-1.73a13.26,13.26,0,0,1-1.75-1.94l-.05-.1,0-.06v0a.18.18,0,0,0,.07,0h-.24c-.21,0-.41,0-.61,0a6,6,0,0,0-1.2.06,20.59,20.59,0,0,0-2.41.59,9,9,0,0,1-2.59.3c-.85,0-1.67-.06-2.51-.05-1.67,0-3.35.09-5,.2-3.35.2-6.7.63-10.1.57a28.74,28.74,0,0,0-5,0,7.69,7.69,0,0,0-1.17.29l-.25.09a.13.13,0,0,0,0,.06s0,0,0,0l0,.16.05.32a15.79,15.79,0,0,1,.12,2.56.28.28,0,0,1-.28.27.27.27,0,0,1-.25-.17,14.26,14.26,0,0,0-1.16-2.35,7,7,0,0,0-1.88-1.8l-1-.83-.52-.41c-.24-.19-.14-.15-.41-.14a1,1,0,0,0-.84.59,7.26,7.26,0,0,1-.63,1.24,1.24,1.24,0,0,1-.69.43l-.19,0c-.09,0,0,0,0,0s0,0,0,0V221l0,1.34.05,2.67c0,1.78.13,3.57.1,5.36,0,3.59-.37,7.15-.42,10.72s-.06,7.13,0,10.7.06,7.15.15,10.72c0,1.78.1,3.56.19,5.35l.15,2.67.28,2.66.55,5.32c.2,1.79.25,3.58.32,5.36l.3,10.72q.27,10.71.42,21.43c.08,7.14.23,14.29.06,21.44-.1,1.78-.25,3.56-.27,5.34s0,3.57-.09,5.36l-.16,5.36c-.05.89,0,1.79-.12,2.68s-.2,1.77-.33,2.66C372.4,365.85,371.69,373,369,379.63Z" transform="translate(-368.44 -217.04)"/><path d="M375.11,332.15c0,2.16-.05,4.32-.12,6.48s-.21,4.31-.22,6.47a109.7,109.7,0,0,1-.5,12.95c-.55,4.29-1.59,8.5-2.12,12.78-.07.54-.1,1.08-.21,1.62a9.27,9.27,0,0,1-.48,1.55c-.4,1-.91,2-1.32,3a6.1,6.1,0,0,0-.6,3.07,5.35,5.35,0,0,0,1.28.91,3.28,3.28,0,0,1,1.28,1l-.07-.05c1.45,0,2.91,0,4.36,0s2.91-.05,4.36-.13c.34,0,.76-.08.86-.35l.22-1.05.25-1.08c0-.13.16-.51.48-.38a1.32,1.32,0,0,1,.4.46,14.59,14.59,0,0,1,.87,2c.27.72,1.1.65,1.8.63s1.44-.14,2.16-.22,1.45-.19,2.17-.28a9,9,0,0,1,2.2,0l2.18.17c2.9.25,5.8.44,8.7.62l-.13.09c.39-1,.76-2.11,1.07-3.18.15-.54.29-1.08.41-1.63l.16-.82.07-.41a.66.66,0,0,1,.23-.47.6.6,0,0,1,.91.34c.05.33.05.57.08.86l.16,1.68a28.27,28.27,0,0,0,.5,3.32l-.18-.13c1-.14,1.92-.28,2.89-.39.48-.06,1-.12,1.46-.15a13.94,13.94,0,0,1,1.47.1l2.9.27c1,0,1.92,0,2.89-.06,1.94-.13,3.89-.15,5.83-.21l5.83-.16-.2.2c-.09-6.19,0-12.4.36-18.6L431,344.42v0l-.05-1h0v0a33.52,33.52,0,0,0,.2-3.75c0-1.25,0-2.51,0-3.77,0-2.51-.07-5-.18-7.54-.3-5-.48-10.07-.57-15.1-.22-10.07-.3-20.14-.34-30.21s0-20.14.28-30.21c.17-5-.14-10-.31-15.08s-.49-10-.73-15.07l.17.24a4.48,4.48,0,0,1-.75-.52l-.66-.55-.65-.54-.33-.25-.25-.18h0a17.59,17.59,0,0,0-5.45.3,26.06,26.06,0,0,1-2.8.31,15.6,15.6,0,0,1-2.82-.16l.3-.25a8.28,8.28,0,0,1-.13,1,2.37,2.37,0,0,1-.41,1.05.48.48,0,0,1-.5.1.52.52,0,0,1-.21-.14l-.08-.09-.35-.33-.69-.67c-.47-.44-1-.89-1.41-1.35a8.38,8.38,0,0,1-1.31-1.55l.2.14a8.34,8.34,0,0,0-3.72.45,10.37,10.37,0,0,1-3.91.42,77,77,0,0,0-7.74.24c-2.58.18-5.16.46-7.76.51s-5.25-.59-7.64.3l.13-.24a15.9,15.9,0,0,1,.2,3.29l0,.82a.41.41,0,0,1-.54.39.43.43,0,0,1-.26-.25l-.08-.19c-.2-.5-.4-1-.62-1.5a6.37,6.37,0,0,0-1.78-2.6l-2.53-2,.12,0a.7.7,0,0,0-.62.28,4,4,0,0,0-.35.75,2.5,2.5,0,0,1-.5.8,1.69,1.69,0,0,1-.85.46l.14-.18c.05,2.32.08,4.63.16,6.95s0,4.64-.14,7c-.29,4.62-.34,9.25-.31,13.89s.07,9.27.18,13.9c.06,2.31.14,4.63.28,6.94s.46,4.61.69,6.91c.11,1.16.25,2.3.34,3.47s.12,2.31.16,3.47l.21,6.95.32,13.9C375,313.61,375.11,322.88,375.11,332.15Zm0,0c0-9.27-.22-18.54-.43-27.8l-.36-13.9-.24-6.95c0-1.16-.09-2.32-.16-3.47s-.24-2.3-.36-3.45c-.23-2.31-.53-4.61-.71-6.93s-.24-4.63-.31-6.94c-.12-4.64-.16-9.27-.22-13.91s0-9.28.26-13.91c.11-2.31.19-4.62.12-6.93s-.12-4.64-.18-7a.17.17,0,0,1,.13-.17h0a1.28,1.28,0,0,0,.67-.35,2.28,2.28,0,0,0,.42-.69,4.39,4.39,0,0,1,.39-.83,1.1,1.1,0,0,1,.92-.43h0a.18.18,0,0,1,.1,0l2.57,2a6.89,6.89,0,0,1,1.87,2.71c.22.5.43,1,.63,1.51l.08.19s0,0,0,0,0,0,0,0v-.81a14.94,14.94,0,0,0-.2-3.21.21.21,0,0,1,.13-.23,9.5,9.5,0,0,1,3.91-.46c1.31.06,2.58.15,3.87.11,2.57-.06,5.15-.34,7.74-.53a74.72,74.72,0,0,1,7.78-.27,9.93,9.93,0,0,0,3.76-.41,13.13,13.13,0,0,1,1.92-.47,8.37,8.37,0,0,1,2,0,.25.25,0,0,1,.19.12h0a8.37,8.37,0,0,0,1.22,1.42c.45.45.93.9,1.4,1.34l.71.68.36.35.09.08h0s0,0-.05,0a2.38,2.38,0,0,0,.25-.77,7.64,7.64,0,0,0,.12-.93.28.28,0,0,1,.28-.26h0a15.62,15.62,0,0,0,2.73.14,23.32,23.32,0,0,0,2.73-.32,18.78,18.78,0,0,1,5.61-.32h0a2,2,0,0,1,.47.27l.34.27.66.54.65.54a5.09,5.09,0,0,0,.64.45h0a.25.25,0,0,1,.15.23c.26,5,.57,10.07.78,15.1s.51,10.06.36,15.12c-.3,10-.23,20.13-.26,30.19s.06,20.14.25,30.2c.08,5,.24,10,.52,15.09.1,2.52.16,5,.16,7.56,0,1.26,0,2.52,0,3.78a34.25,34.25,0,0,1-.21,3.79v0l.05,1v0L430.21,363c-.38,6.18-.49,12.37-.42,18.57a.2.2,0,0,1-.2.2l-5.82.14c-1.94.05-3.88.07-5.82.19-1,.06-2,.07-2.93.05l-2.9-.28a11.87,11.87,0,0,0-1.43-.1c-.48,0-1,.08-1.44.14-1,.11-1.93.24-2.89.38a.16.16,0,0,1-.18-.13,29.07,29.07,0,0,1-.49-3.35l-.15-1.68-.07-.81a.31.31,0,0,0-.44-.18c-.13.07-.11.43-.18.69l-.17.83c-.12.56-.26,1.1-.42,1.65-.32,1.08-.69,2.15-1.09,3.2a.14.14,0,0,1-.14.09c-2.91-.19-5.81-.39-8.71-.64a23.36,23.36,0,0,0-4.33-.18c-.72.08-1.44.16-2.17.27s-1.45.15-2.18.21a4.61,4.61,0,0,1-1.11,0,1.16,1.16,0,0,1-.89-.71,17.19,17.19,0,0,0-.86-2,1.29,1.29,0,0,0-.31-.37s-.08,0-.12,0-.05.12-.07.21l-.25,1.05-.23,1.09a.68.68,0,0,1-.48.38,2.65,2.65,0,0,1-.55.1c-1.46.07-2.92.07-4.38.12s-2.91,0-4.36,0a.08.08,0,0,1-.08,0h0a3.48,3.48,0,0,0-1.21-1,5.09,5.09,0,0,1-1.34-1,6.06,6.06,0,0,1,.6-3.21c.42-1,.93-1.95,1.33-2.95a9.35,9.35,0,0,0,.48-1.53c.11-.52.14-1.07.22-1.6.54-4.29,1.59-8.5,2.15-12.78a107.37,107.37,0,0,0,.54-12.94c0-2.16.08-4.32.25-6.47S375.06,334.31,375.11,332.15Z" transform="translate(-368.44 -217.04)"/><path d="M397.06,382.26h0Zm0,0h0Z" transform="translate(-368.44 -217.04)"/><path d="M382.89,218.32a14.81,14.81,0,0,0-4.88.21c-.19.05-.39.12-.58.19s-.09.16-.07.26l.06.3q.09.61.12,1.23c0,.81,0,1.63,0,2.45,0,0,0,0,0,0h0c-.34-.82-.65-1.65-1.06-2.44a8.23,8.23,0,0,0-.69-1.14,5.13,5.13,0,0,0-.9-1h0a34.64,34.64,0,0,0-5.19.35l0,0,.13,5.05c0,1.68.11,3.37.07,5.06-.05,3.37-.33,6.73-.37,10.1-.12,6.73,0,13.47.16,20.21.09,3.36.18,6.73.49,10.08l.54,5c.16,1.67.4,3.35.45,5,.3,6.74.47,13.48.64,20.21s.3,13.48.4,20.22c0,3.36.08,6.73.09,10.11,0,1.68,0,3.37-.05,5.06s-.23,3.35-.25,5c-.1,3.36,0,6.73-.12,10.11a59.66,59.66,0,0,1-1.09,10.07c-.59,3.32-1.28,6.62-1.6,10a49.59,49.59,0,0,0,.15,10l-.29-.28c3,0,6.1,0,9.09-.14.35-.05.62-.16.66-.37.07-.36.12-.68.22-1.07l.27-1.15v0c0-.11.25-.29.32-.25a.57.57,0,0,1,.24.09l.05.06a1.1,1.1,0,0,1,.12.16c.06.09.11.18.16.27s.18.35.26.52a11.29,11.29,0,0,1,.44,1.09,1.5,1.5,0,0,0,.5.77,1.91,1.91,0,0,0,.93.17,10.5,10.5,0,0,0,1.11-.07c1.49-.13,3-.36,4.56-.53.83,0,1.55.11,2.31.15l2.28.19,4.56.33c1.51.11,3,.21,4.53.23l-.1,0,.4-.15-.21.22c.57-1.88,1.36-3.65,2-5.46l.11-.34v0l0-.07a.38.38,0,0,1,.34-.19.29.29,0,0,1,.14,0h0l.06,0a.3.3,0,0,1,.08.08l0,0,0,0,.05.11.07.18c.08.24.16.47.23.71.15.47.28.94.4,1.41a17.21,17.21,0,0,1,.55,2.91l-.45-.34a18.23,18.23,0,0,1,5.48.12c.44.05.88.1,1.32.13s.88,0,1.32,0c.87,0,1.78-.08,2.68-.11,1.79-.09,3.59-.1,5.38-.15l5.39-.13-.33.34c0-3.11,0-6.23,0-9.35s.19-6.24.38-9.35l1.3-18.65v0l0-1h0v0a33.27,33.27,0,0,0,.2-3.75c0-1.25,0-2.51,0-3.77,0-2.52-.05-5-.16-7.55-.28-5-.44-10.08-.52-15.12-.19-10.08-.23-20.16-.25-30.24s0-20.17.33-30.25c.16-5-.14-10.07-.33-15.1s-.48-10.07-.72-15.1l.07.07-14.18-1.69.06-.06a5.46,5.46,0,0,1-.13,1.14,5.54,5.54,0,0,1-.14.55,1.24,1.24,0,0,1-.11.28s0,0,0,0-.1,0-.09,0l-.05,0-.09-.11a6.44,6.44,0,0,1-1.07-2l0,0c-2.34-.29-4.69-.59-7-.78a54.12,54.12,0,0,0-7.09-.19c-2.36.08-4.71.28-7.07.46A54.14,54.14,0,0,1,382.89,218.32Zm0,0a52.46,52.46,0,0,0,7.09-.25c2.35-.19,4.71-.4,7.07-.49a55.87,55.87,0,0,1,7.09.17c2.36.19,4.71.47,7.06.76a0,0,0,0,1,0,0,6.23,6.23,0,0,0,1.07,2l.09.11,0,0s0,0,0,0h0a1.86,1.86,0,0,0,.1-.25c.05-.18.09-.36.13-.54a4.72,4.72,0,0,0,.12-1.11.06.06,0,0,1,.05-.06h0L427,220.34a.08.08,0,0,1,.07.07c.26,5,.58,10.07.78,15.11s.52,10.07.37,15.12c-.29,10.07-.23,20.16-.22,30.24s.12,20.16.34,30.23c.1,5.05.28,10.07.58,15.11q.16,3.78.18,7.57c0,1.26,0,2.52,0,3.78a34.54,34.54,0,0,1-.19,3.8v-.05l.05,1v0L427.69,361q-.27,4.66-.35,9.33c-.06,3.11,0,6.22,0,9.34a.33.33,0,0,1-.32.34h0l-5.38.14c-1.79.06-3.58.08-5.37.17-.9,0-1.77.12-2.7.12-.46,0-.92,0-1.38,0l-1.35-.12a17.79,17.79,0,0,0-5.24-.12.38.38,0,0,1-.45-.3v0a18.38,18.38,0,0,0-.53-2.78c-.12-.46-.25-.92-.38-1.37l-.22-.68-.06-.15,0-.05h0a.16.16,0,0,0,.07.07l0,0h0a.23.23,0,0,0,.13,0,.36.36,0,0,0,.33-.19l0-.06v0l-.11.35c-.63,1.85-1.42,3.61-2,5.43h0a.36.36,0,0,1-.2.22l-.47.17a.14.14,0,0,1-.09,0h0c-1.55,0-3.07-.13-4.59-.25l-4.56-.34-2.28-.19c-.75,0-1.55-.17-2.24-.17-1.49.17-3,.39-4.53.52a11,11,0,0,1-1.17.07,2.53,2.53,0,0,1-1.28-.28,2.22,2.22,0,0,1-.75-1.09c-.12-.37-.26-.69-.41-1l-.24-.5-.13-.22-.05-.07h0a.26.26,0,0,0,.18.06.54.54,0,0,0,.16-.05.25.25,0,0,0,.11-.15v0l-.25,1.08c-.09.34-.16.77-.25,1.16a1,1,0,0,1-.52.59,1.82,1.82,0,0,1-.64.18c-3.09.15-6.13.17-9.19.13a.31.31,0,0,1-.29-.27h0a50.51,50.51,0,0,1-.12-10.14c.34-3.37,1-6.68,1.64-10a60,60,0,0,0,1.12-10c.1-3.36,0-6.73.15-10.1,0-1.69.21-3.39.27-5.05s.06-3.36.06-5c0-3.36,0-6.73-.06-10.1q-.1-10.11-.33-20.21c-.15-6.74-.29-13.47-.57-20.2-.05-1.68-.27-3.34-.44-5l-.52-5c-.3-3.36-.38-6.73-.46-10.1-.09-6.74-.23-13.48-.1-20.22.06-3.37.35-6.73.41-10.1,0-1.68,0-3.36-.05-5.05l-.12-5.05a0,0,0,0,1,0,0,34.85,34.85,0,0,1,5.2-.34h0a5.29,5.29,0,0,1,.91,1,9.33,9.33,0,0,1,.69,1.14c.4.79.72,1.62,1.05,2.45h0c0-.82.05-1.64,0-2.45,0-.41-.06-.82-.12-1.22l0-.31c0-.09,0-.23.08-.27a5.66,5.66,0,0,1,.58-.2A14.8,14.8,0,0,1,382.89,218.32Z" transform="translate(-368.44 -217.04)"/><path d="M368.51,374.19c-.09-6.54,1.87-12.84,2.58-19.29.2-1.61.15-3.24.22-4.86l.14-4.87c0-3.25.05-6.51.29-9.74.15-6.49,0-13-.09-19.49l-.41-19.49-.28-9.74c-.12-3.24-.17-6.5-.44-9.71s-.75-6.47-1-9.71-.29-6.5-.36-9.75c-.08-6.49-.26-13-.1-19.49.06-3.26.34-6.5.36-9.74,0-1.62-.06-3.23-.1-4.86l-.11-4.88a.25.25,0,0,1,.22-.25h0a36,36,0,0,1,5.51-.38h0a.19.19,0,0,1,.13.05,5.57,5.57,0,0,1,.85.83,7.6,7.6,0,0,1,.65,1,14.22,14.22,0,0,1,1,2l-.52.1a16.11,16.11,0,0,0-.1-2.31,5.43,5.43,0,0,0-.09-.56.69.69,0,0,1,.39-.8,7.19,7.19,0,0,1,1.18-.34,19,19,0,0,1,4.76-.07,86.68,86.68,0,0,0,9.36-.48,69.11,69.11,0,0,1,9.44-.25c3.15.16,6.27.54,9.39.92a.33.33,0,0,1,.27.22,6.16,6.16,0,0,0,1,1.87l-.59.11a6.11,6.11,0,0,0,.18-.85c0-.15,0-.29,0-.42a3.39,3.39,0,0,0,0-.43.35.35,0,0,1,.32-.36h.06l14.6,1.69h0a.34.34,0,0,1,.31.33c.28,5,.57,10.1.77,15.14s.48,10.1.33,15.17c-.33,10.08-.31,20.18-.33,30.28s.07,20.2.25,30.29c.08,5.05.24,10.08.52,15.14.1,2.52.16,5,.16,7.58,0,1.26,0,2.52,0,3.79a34.38,34.38,0,0,1-.21,3.79v0l.05,1v0l-1.31,18.76c-.19,3.12-.31,6.25-.38,9.38s-.05,6.27,0,9.4a.13.13,0,0,1-.12.13l-5.48.12c-1.83.05-3.66.07-5.49.15-.91,0-1.82.12-2.74.11-.46,0-.92,0-1.38,0l-1.37-.13a16.78,16.78,0,0,0-5.43-.07.09.09,0,0,1-.1-.07h0a14.55,14.55,0,0,0-.4-2.45c-.2-.81-.42-1.61-.67-2.4h.15c-.67,1.78-1.31,3.57-1.94,5.36a.1.1,0,0,1,0,.05l-.55.21h-.08c-2,0-3.95-.21-5.92-.35s-3.94-.31-5.91-.47c-2-.31-3.92.17-5.89.34-.49,0-1,.11-1.48.11a2.53,2.53,0,0,1-1.45-.29,2.58,2.58,0,0,1-.77-1.27l-.59-1.35h.05c-.12.52-.22,1-.32,1.55a1.15,1.15,0,0,1-.31.73,1.43,1.43,0,0,1-.73.33c-1.05.14-2.11.08-3.17.13s-2.11.06-3.17,0l-3.17,0h0c-.07-1-.19-2.05-.21-3.09Zm0,0,.14,3.09c0,1,.15,2.06.22,3.09h0l3.17,0c1.06,0,2.11,0,3.17-.05s2.12,0,3.16-.14a1.37,1.37,0,0,0,.7-.32,1.08,1.08,0,0,0,.29-.7c.11-.51.21-1,.32-1.55,0,0,0,0,0,0l0,0,.6,1.36a2.48,2.48,0,0,0,.75,1.23,2.51,2.51,0,0,0,1.41.28c.49,0,1-.08,1.47-.12,2-.17,3.93-.67,5.91-.36,2,.15,3.93.33,5.9.45s4,.31,5.92.33h0l.53-.2,0,0q.94-2.7,1.93-5.37a.07.07,0,0,1,.1-.05s0,0,.05.05c.26.79.49,1.6.68,2.41a13.8,13.8,0,0,1,.41,2.48l-.1-.08c1.82-.46,3.67-.09,5.48,0l1.36.13c.46,0,.91,0,1.37,0,.9,0,1.82-.08,2.73-.12,1.83-.09,3.66-.11,5.49-.17l5.49-.14-.13.12c0-3.13-.06-6.27,0-9.4s.17-6.27.35-9.4l1.24-18.76v0l-.05-1h0v0a36.27,36.27,0,0,0,.19-3.76q0-1.89,0-3.78,0-3.8-.19-7.57c-.3-5-.47-10.09-.57-15.14-.21-10.1-.3-20.2-.34-30.3s-.07-20.2.23-30.3c.13-5-.2-10.07-.38-15.12l-.77-15.11.32.33-14.6-1.74.38-.36c0,.14,0,.32,0,.5s0,.33-.05.49a7.88,7.88,0,0,1-.2.94.34.34,0,0,1-.42.23.3.3,0,0,1-.17-.12,6.75,6.75,0,0,1-1.07-2.06l.28.22c-3.12-.39-6.22-.78-9.34-.95a71.56,71.56,0,0,0-9.37.22,84.36,84.36,0,0,1-9.43.45,18.75,18.75,0,0,0-4.62.05,5.79,5.79,0,0,0-1.08.31c-.06,0-.08,0-.06.17s.07.4.1.6a16,16,0,0,1,.09,2.39.27.27,0,0,1-.27.27.27.27,0,0,1-.25-.17,15.11,15.11,0,0,0-.94-2,7.7,7.7,0,0,0-.6-.89,6.54,6.54,0,0,0-.75-.74l.15.06a35.58,35.58,0,0,0-5.44.35l.22-.25.09,4.86c0,1.62.12,3.26.09,4.89,0,3.26-.32,6.5-.4,9.74-.18,6.48,0,13,0,19.48.06,3.24.14,6.49.33,9.73s.65,6.45,1,9.68.3,6.5.42,9.76l.24,9.74.35,19.49c.07,6.49.2,13,0,19.49-.25,3.24-.32,6.49-.33,9.74l-.15,4.87c-.07,1.62,0,3.25-.24,4.87C370.42,361.36,368.45,367.65,368.51,374.19Z" transform="translate(-368.44 -217.04)"/><path d="M372.3,330.09l-.1,6.26c-.17,2.08-.22,4.17-.24,6.26a124.38,124.38,0,0,1-.4,12.51c-.46,4.16-1.44,8.23-2,12.35a43.5,43.5,0,0,0-.51,6.23,59.14,59.14,0,0,0,.33,6.24l-.09-.07h3.08c1,0,2,0,3.07-.05l1.53,0a7.45,7.45,0,0,0,1.51-.13.47.47,0,0,0,.41-.46c0-.24.09-.49.14-.75.12-.5.23-1,.37-1.5a.08.08,0,0,1,.08-.07l.18,0h0a.58.58,0,0,1,.37.27,3.53,3.53,0,0,1,.21.32c.12.23.23.45.33.68.21.45.33,1,.56,1.37a.84.84,0,0,0,.5.41,2.76,2.76,0,0,0,.71.08,12.26,12.26,0,0,0,1.48-.1c2-.15,3.95-.69,6-.39s4,.34,5.95.46,4,.31,5.95.34h0l.28-.1-.08.09,2.1-5.9h0a.14.14,0,0,1,.16-.1h.17a.43.43,0,0,1,.24.17,2.26,2.26,0,0,1,.18.34c.09.23.17.45.24.68.14.45.27.9.38,1.36.22.91.43,1.82.57,2.76l-.19-.14a21.41,21.41,0,0,1,5.31.16l1.3.12c.44,0,.88,0,1.31,0,.87,0,1.76-.08,2.63-.11,1.76-.1,3.53-.11,5.29-.17l5.28-.15-.19.2c-.1-6.2,0-12.4.36-18.6l1.23-18.55v0l-.05-1h0v0a33.52,33.52,0,0,0,.2-3.75c0-1.25,0-2.51,0-3.77q0-3.76-.18-7.53c-.3-5-.47-10.07-.57-15.1-.21-10.06-.3-20.13-.34-30.2s-.05-20.13.28-30.21c.17-5-.14-10-.31-15.07s-.49-10-.72-15.06l.26.27L413,219.26l.3-.25a6.91,6.91,0,0,1-.16,1.11,3.92,3.92,0,0,1-.16.56,1,1,0,0,1-.16.31l-.09.09-.12.08-.13.05a.26.26,0,0,1-.28-.05h0a3.72,3.72,0,0,1-.45-.53,5.65,5.65,0,0,1-.38-.57,7.06,7.06,0,0,1-.56-1.22l.21.17c-2.78-.35-5.55-.69-8.34-.87a61.39,61.39,0,0,0-8.36.06c-2.79.17-5.58.47-8.39.57a39.52,39.52,0,0,1-4.22-.09,9.71,9.71,0,0,0-4.06.41l.13-.24a26.9,26.9,0,0,1,.17,5.14.21.21,0,0,1-.21.2.19.19,0,0,1-.18-.13c-.4-.94-.77-1.91-1.18-2.84a7,7,0,0,0-1.68-2.45l.11,0a33.42,33.42,0,0,0-4.88.32l.16-.18c.05,2.31.08,4.62.16,6.94s0,4.65-.14,7c-.29,4.63-.34,9.26-.31,13.89s.07,9.27.18,13.9c.06,2.32.15,4.63.29,6.94s.46,4.61.68,6.92c.11,1.15.25,2.29.34,3.46s.12,2.32.16,3.47l.21,6.95.32,13.9C372.14,311.55,372.3,320.82,372.3,330.09Zm0,0c0-9.27-.22-18.54-.43-27.8l-.36-13.9-.24-6.95c0-1.16-.1-2.31-.17-3.47s-.24-2.3-.35-3.45c-.23-2.31-.53-4.61-.71-6.92s-.24-4.63-.31-7c-.12-4.64-.17-9.27-.23-13.9s0-9.28.27-13.91c.11-2.31.19-4.63.12-6.94s-.12-4.63-.18-7a.17.17,0,0,1,.15-.18h0a35.2,35.2,0,0,1,4.93-.34.21.21,0,0,1,.11,0,7.17,7.17,0,0,1,1.8,2.59c.43.95.8,1.9,1.2,2.85l-.39.08a26.58,26.58,0,0,0-.17-5.06.2.2,0,0,1,.13-.23,10.19,10.19,0,0,1,4.23-.45,38.93,38.93,0,0,0,4.18.08c2.79-.11,5.58-.42,8.38-.6a59.15,59.15,0,0,1,8.42-.09c2.81.17,5.6.51,8.38.85a.25.25,0,0,1,.21.17,7.3,7.3,0,0,0,.53,1.13,4.72,4.72,0,0,0,.35.52,2.93,2.93,0,0,0,.4.46l-.29-.05.12-.05s0,0,0,0a.52.52,0,0,0,.09-.17,3.36,3.36,0,0,0,.13-.48,6.09,6.09,0,0,0,.15-1,.28.28,0,0,1,.29-.26h0l13.77,1.6h0a.28.28,0,0,1,.25.27c.26,5,.57,10.07.78,15.09s.51,10.06.36,15.12c-.29,10.05-.23,20.12-.26,30.18s.06,20.13.24,30.19c.08,5,.24,10.05.53,15.08q.15,3.78.15,7.56,0,1.89,0,3.78a36.87,36.87,0,0,1-.21,3.79v0l0,1v0l-1.29,18.55c-.38,6.18-.49,12.37-.42,18.57a.21.21,0,0,1-.2.2l-5.27.12c-1.76.05-3.52.07-5.28.15-.88,0-1.75.11-2.64.11-.45,0-.9,0-1.34,0l-1.32-.13a21.3,21.3,0,0,0-5.22-.17.16.16,0,0,1-.18-.13h0c-.13-.91-.33-1.83-.55-2.73-.11-.45-.23-.9-.37-1.34-.07-.22-.15-.44-.23-.65a2.23,2.23,0,0,0-.14-.27c0-.06,0,0,0-.06H404l.16-.11-2.12,5.89h0a.11.11,0,0,1-.07.08l-.31.11h0c-2,0-4-.22-6-.36s-4-.32-5.95-.48-3.93.23-5.92.37a12.46,12.46,0,0,1-1.5.1,2.94,2.94,0,0,1-.77-.09,1.06,1.06,0,0,1-.62-.51c-.26-.47-.36-.94-.58-1.39-.09-.23-.2-.45-.31-.67s-.28-.46-.4-.48h0l-.17,0,.08-.07c-.14.49-.24,1-.36,1.48-.05.24-.1.5-.16.76a.63.63,0,0,1-.16.39.8.8,0,0,1-.38.21,7.43,7.43,0,0,1-1.55.13l-1.54,0c-1,0-2,.06-3.07.05l-3.08,0a.08.08,0,0,1-.08-.07,62.32,62.32,0,0,1-.31-6.26,44.91,44.91,0,0,1,.54-6.24c.61-4.14,1.6-8.2,2.08-12.35s.38-8.33.44-12.51c0-2.08.08-4.17.26-6.25Z" transform="translate(-368.44 -217.04)"/><path d="M382.89,218.32a14.81,14.81,0,0,0-4.88.21c-.19.05-.39.12-.58.19s-.09.16-.07.26l.06.3q.09.61.12,1.23c0,.81,0,1.63,0,2.45,0,0,0,0,0,0h0c-.34-.82-.65-1.65-1.06-2.44a8.23,8.23,0,0,0-.69-1.14,5.13,5.13,0,0,0-.9-1h0a34.64,34.64,0,0,0-5.19.35l0,0,.13,5.05c0,1.68.11,3.37.07,5.06-.05,3.37-.33,6.73-.37,10.1-.12,6.73,0,13.47.16,20.21.09,3.36.18,6.73.49,10.08l.54,5c.16,1.67.4,3.35.45,5,.3,6.74.47,13.48.64,20.21s.3,13.48.4,20.22c0,3.36.08,6.73.09,10.11,0,1.68,0,3.37-.05,5.06s-.23,3.35-.25,5c-.1,3.36,0,6.73-.12,10.11a59.66,59.66,0,0,1-1.09,10.07c-.59,3.32-1.28,6.62-1.6,10a49.59,49.59,0,0,0,.15,10l-.29-.28c3,0,6.1,0,9.09-.14.35-.05.62-.16.66-.37.07-.36.12-.68.22-1.07l.27-1.15v0c0-.11.25-.29.32-.25a.57.57,0,0,1,.24.09l.05.06a1.1,1.1,0,0,1,.12.16c.06.09.11.18.16.27s.18.35.26.52a11.29,11.29,0,0,1,.44,1.09,1.5,1.5,0,0,0,.5.77,1.91,1.91,0,0,0,.93.17,10.5,10.5,0,0,0,1.11-.07c1.49-.13,3-.36,4.56-.53.83,0,1.55.11,2.31.15l2.28.19,4.56.33c1.51.11,3,.21,4.53.23l-.1,0,.4-.15-.21.22c.57-1.88,1.36-3.65,2-5.46l.11-.34v0l0-.07a.38.38,0,0,1,.34-.19.29.29,0,0,1,.14,0h0l.06,0a.3.3,0,0,1,.08.08l0,0,0,0,.05.11.07.18c.08.24.16.47.23.71.15.47.28.94.4,1.41a17.21,17.21,0,0,1,.55,2.91l-.45-.34a18.23,18.23,0,0,1,5.48.12c.44.05.88.1,1.32.13s.88,0,1.32,0c.87,0,1.78-.08,2.68-.11,1.79-.09,3.59-.1,5.38-.15l5.39-.13-.33.34c0-3.11,0-6.23,0-9.35s.19-6.24.38-9.35l1.3-18.65v0l0-1h0v0a33.27,33.27,0,0,0,.2-3.75c0-1.25,0-2.51,0-3.77,0-2.52-.05-5-.16-7.55-.28-5-.44-10.08-.52-15.12-.19-10.08-.23-20.16-.25-30.24s0-20.17.33-30.25c.16-5-.14-10.07-.33-15.1s-.48-10.07-.72-15.1l.07.07-14.18-1.69.06-.06a5.46,5.46,0,0,1-.13,1.14,5.54,5.54,0,0,1-.14.55,1.24,1.24,0,0,1-.11.28s0,0,0,0-.1,0-.09,0l-.05,0-.09-.11a6.44,6.44,0,0,1-1.07-2l0,0c-2.34-.29-4.69-.59-7-.78a54.12,54.12,0,0,0-7.09-.19c-2.36.08-4.71.28-7.07.46A54.14,54.14,0,0,1,382.89,218.32Zm0,0a52.46,52.46,0,0,0,7.09-.25c2.35-.19,4.71-.4,7.07-.49a55.87,55.87,0,0,1,7.09.17c2.36.19,4.71.47,7.06.76a0,0,0,0,1,0,0,6.23,6.23,0,0,0,1.07,2l.09.11,0,0s0,0,0,0h0a1.86,1.86,0,0,0,.1-.25c.05-.18.09-.36.13-.54a4.72,4.72,0,0,0,.12-1.11.06.06,0,0,1,.05-.06h0L427,220.34a.08.08,0,0,1,.07.07c.26,5,.58,10.07.78,15.11s.52,10.07.37,15.12c-.29,10.07-.23,20.16-.22,30.24s.12,20.16.34,30.23c.1,5.05.28,10.07.58,15.11q.16,3.78.18,7.57c0,1.26,0,2.52,0,3.78a34.54,34.54,0,0,1-.19,3.8v-.05l.05,1v0L427.69,361q-.27,4.66-.35,9.33c-.06,3.11,0,6.22,0,9.34a.33.33,0,0,1-.32.34h0l-5.38.14c-1.79.06-3.58.08-5.37.17-.9,0-1.77.12-2.7.12-.46,0-.92,0-1.38,0l-1.35-.12a17.79,17.79,0,0,0-5.24-.12.38.38,0,0,1-.45-.3v0a18.38,18.38,0,0,0-.53-2.78c-.12-.46-.25-.92-.38-1.37l-.22-.68-.06-.15,0-.05h0a.16.16,0,0,0,.07.07l0,0h0a.23.23,0,0,0,.13,0,.36.36,0,0,0,.33-.19l0-.06v0l-.11.35c-.63,1.85-1.42,3.61-2,5.43h0a.36.36,0,0,1-.2.22l-.47.17a.14.14,0,0,1-.09,0h0c-1.55,0-3.07-.13-4.59-.25l-4.56-.34-2.28-.19c-.75,0-1.55-.17-2.24-.17-1.49.17-3,.39-4.53.52a11,11,0,0,1-1.17.07,2.53,2.53,0,0,1-1.28-.28,2.22,2.22,0,0,1-.75-1.09c-.12-.37-.26-.69-.41-1l-.24-.5-.13-.22-.05-.07h0a.26.26,0,0,0,.18.06.54.54,0,0,0,.16-.05.25.25,0,0,0,.11-.15v0l-.25,1.08c-.09.34-.16.77-.25,1.16a1,1,0,0,1-.52.59,1.82,1.82,0,0,1-.64.18c-3.09.15-6.13.17-9.19.13a.31.31,0,0,1-.29-.27h0a50.51,50.51,0,0,1-.12-10.14c.34-3.37,1-6.68,1.64-10a60,60,0,0,0,1.12-10c.1-3.36,0-6.73.15-10.1,0-1.69.21-3.39.27-5.05s.06-3.36.06-5c0-3.36,0-6.73-.06-10.1q-.1-10.11-.33-20.21c-.15-6.74-.29-13.47-.57-20.2-.05-1.68-.27-3.34-.44-5l-.52-5c-.3-3.36-.38-6.73-.46-10.1-.09-6.74-.23-13.48-.1-20.22.06-3.37.35-6.73.41-10.1,0-1.68,0-3.36-.05-5.05l-.12-5.05a0,0,0,0,1,0,0,34.85,34.85,0,0,1,5.2-.34h0a5.29,5.29,0,0,1,.91,1,9.33,9.33,0,0,1,.69,1.14c.4.79.72,1.62,1.05,2.45h0c0-.82.05-1.64,0-2.45,0-.41-.06-.82-.12-1.22l0-.31c0-.09,0-.23.08-.27a5.66,5.66,0,0,1,.58-.2A14.8,14.8,0,0,1,382.89,218.32Z" transform="translate(-368.44 -217.04)"/><path d="M368.51,374.19c-.09-6.54,1.87-12.84,2.58-19.29.2-1.61.15-3.24.22-4.86l.14-4.87c0-3.25.05-6.51.29-9.74.15-6.49,0-13-.09-19.49l-.41-19.49-.28-9.74c-.12-3.24-.17-6.5-.44-9.71s-.75-6.47-1-9.71-.29-6.5-.36-9.75c-.08-6.49-.26-13-.1-19.49.06-3.26.34-6.5.36-9.74,0-1.62-.06-3.23-.1-4.86l-.11-4.88a.25.25,0,0,1,.22-.25h0a36,36,0,0,1,5.51-.38h0a.19.19,0,0,1,.13.05,5.57,5.57,0,0,1,.85.83,7.6,7.6,0,0,1,.65,1,14.22,14.22,0,0,1,1,2l-.52.1a16.11,16.11,0,0,0-.1-2.31,5.43,5.43,0,0,0-.09-.56.69.69,0,0,1,.39-.8,7.19,7.19,0,0,1,1.18-.34,19,19,0,0,1,4.76-.07,86.68,86.68,0,0,0,9.36-.48,69.11,69.11,0,0,1,9.44-.25c3.15.16,6.27.54,9.39.92a.33.33,0,0,1,.27.22,6.16,6.16,0,0,0,1,1.87l-.59.11a6.11,6.11,0,0,0,.18-.85c0-.15,0-.29,0-.42a3.39,3.39,0,0,0,0-.43.35.35,0,0,1,.32-.36h.06l14.6,1.69h0a.34.34,0,0,1,.31.33c.28,5,.57,10.1.77,15.14s.48,10.1.33,15.17c-.33,10.08-.31,20.18-.33,30.28s.07,20.2.25,30.29c.08,5.05.24,10.08.52,15.14.1,2.52.16,5,.16,7.58,0,1.26,0,2.52,0,3.79a34.38,34.38,0,0,1-.21,3.79v0l.05,1v0l-1.31,18.76c-.19,3.12-.31,6.25-.38,9.38s-.05,6.27,0,9.4a.13.13,0,0,1-.12.13l-5.48.12c-1.83.05-3.66.07-5.49.15-.91,0-1.82.12-2.74.11-.46,0-.92,0-1.38,0l-1.37-.13a16.78,16.78,0,0,0-5.43-.07.09.09,0,0,1-.1-.07h0a14.55,14.55,0,0,0-.4-2.45c-.2-.81-.42-1.61-.67-2.4h.15c-.67,1.78-1.31,3.57-1.94,5.36a.1.1,0,0,1,0,.05l-.55.21h-.08c-2,0-3.95-.21-5.92-.35s-3.94-.31-5.91-.47c-2-.31-3.92.17-5.89.34-.49,0-1,.11-1.48.11a2.53,2.53,0,0,1-1.45-.29,2.58,2.58,0,0,1-.77-1.27l-.59-1.35h.05c-.12.52-.22,1-.32,1.55a1.15,1.15,0,0,1-.31.73,1.43,1.43,0,0,1-.73.33c-1.05.14-2.11.08-3.17.13s-2.11.06-3.17,0l-3.17,0h0c-.07-1-.19-2.05-.21-3.09Zm0,0,.14,3.09c0,1,.15,2.06.22,3.09h0l3.17,0c1.06,0,2.11,0,3.17-.05s2.12,0,3.16-.14a1.37,1.37,0,0,0,.7-.32,1.08,1.08,0,0,0,.29-.7c.11-.51.21-1,.32-1.55,0,0,0,0,0,0l0,0,.6,1.36a2.48,2.48,0,0,0,.75,1.23,2.51,2.51,0,0,0,1.41.28c.49,0,1-.08,1.47-.12,2-.17,3.93-.67,5.91-.36,2,.15,3.93.33,5.9.45s4,.31,5.92.33h0l.53-.2,0,0q.94-2.7,1.93-5.37a.07.07,0,0,1,.1-.05s0,0,.05.05c.26.79.49,1.6.68,2.41a13.8,13.8,0,0,1,.41,2.48l-.1-.08c1.82-.46,3.67-.09,5.48,0l1.36.13c.46,0,.91,0,1.37,0,.9,0,1.82-.08,2.73-.12,1.83-.09,3.66-.11,5.49-.17l5.49-.14-.13.12c0-3.13-.06-6.27,0-9.4s.17-6.27.35-9.4l1.24-18.76v0l-.05-1h0v0a36.27,36.27,0,0,0,.19-3.76q0-1.89,0-3.78,0-3.8-.19-7.57c-.3-5-.47-10.09-.57-15.14-.21-10.1-.3-20.2-.34-30.3s-.07-20.2.23-30.3c.13-5-.2-10.07-.38-15.12l-.77-15.11.32.33-14.6-1.74.38-.36c0,.14,0,.32,0,.5s0,.33-.05.49a7.88,7.88,0,0,1-.2.94.34.34,0,0,1-.42.23.3.3,0,0,1-.17-.12,6.75,6.75,0,0,1-1.07-2.06l.28.22c-3.12-.39-6.22-.78-9.34-.95a71.56,71.56,0,0,0-9.37.22,84.36,84.36,0,0,1-9.43.45,18.75,18.75,0,0,0-4.62.05,5.79,5.79,0,0,0-1.08.31c-.06,0-.08,0-.06.17s.07.4.1.6a16,16,0,0,1,.09,2.39.27.27,0,0,1-.27.27.27.27,0,0,1-.25-.17,15.11,15.11,0,0,0-.94-2,7.7,7.7,0,0,0-.6-.89,6.54,6.54,0,0,0-.75-.74l.15.06a35.58,35.58,0,0,0-5.44.35l.22-.25.09,4.86c0,1.62.12,3.26.09,4.89,0,3.26-.32,6.5-.4,9.74-.18,6.48,0,13,0,19.48.06,3.24.14,6.49.33,9.73s.65,6.45,1,9.68.3,6.5.42,9.76l.24,9.74.35,19.49c.07,6.49.2,13,0,19.49-.25,3.24-.32,6.49-.33,9.74l-.15,4.87c-.07,1.62,0,3.25-.24,4.87C370.42,361.36,368.45,367.65,368.51,374.19Z" transform="translate(-368.44 -217.04)"/><path d="M372.3,330.09l-.1,6.26c-.17,2.08-.22,4.17-.24,6.26a124.38,124.38,0,0,1-.4,12.51c-.46,4.16-1.44,8.23-2,12.35a43.5,43.5,0,0,0-.51,6.23,59.14,59.14,0,0,0,.33,6.24l-.09-.07h3.08c1,0,2,0,3.07-.05l1.53,0a7.45,7.45,0,0,0,1.51-.13.47.47,0,0,0,.41-.46c0-.24.09-.49.14-.75.12-.5.23-1,.37-1.5a.08.08,0,0,1,.08-.07l.18,0h0a.58.58,0,0,1,.37.27,3.53,3.53,0,0,1,.21.32c.12.23.23.45.33.68.21.45.33,1,.56,1.37a.84.84,0,0,0,.5.41,2.76,2.76,0,0,0,.71.08,12.26,12.26,0,0,0,1.48-.1c2-.15,3.95-.69,6-.39s4,.34,5.95.46,4,.31,5.95.34h0l.28-.1-.08.09,2.1-5.9h0a.14.14,0,0,1,.16-.1h.17a.43.43,0,0,1,.24.17,2.26,2.26,0,0,1,.18.34c.09.23.17.45.24.68.14.45.27.9.38,1.36.22.91.43,1.82.57,2.76l-.19-.14a21.41,21.41,0,0,1,5.31.16l1.3.12c.44,0,.88,0,1.31,0,.87,0,1.76-.08,2.63-.11,1.76-.1,3.53-.11,5.29-.17l5.28-.15-.19.2c-.1-6.2,0-12.4.36-18.6l1.23-18.55v0l-.05-1h0v0a33.52,33.52,0,0,0,.2-3.75c0-1.25,0-2.51,0-3.77q0-3.76-.18-7.53c-.3-5-.47-10.07-.57-15.1-.21-10.06-.3-20.13-.34-30.2s-.05-20.13.28-30.21c.17-5-.14-10-.31-15.07s-.49-10-.72-15.06l.26.27L413,219.26l.3-.25a6.91,6.91,0,0,1-.16,1.11,3.92,3.92,0,0,1-.16.56,1,1,0,0,1-.16.31l-.09.09-.12.08-.13.05a.26.26,0,0,1-.28-.05h0a3.72,3.72,0,0,1-.45-.53,5.65,5.65,0,0,1-.38-.57,7.06,7.06,0,0,1-.56-1.22l.21.17c-2.78-.35-5.55-.69-8.34-.87a61.39,61.39,0,0,0-8.36.06c-2.79.17-5.58.47-8.39.57a39.52,39.52,0,0,1-4.22-.09,9.71,9.71,0,0,0-4.06.41l.13-.24a26.9,26.9,0,0,1,.17,5.14.21.21,0,0,1-.21.2.19.19,0,0,1-.18-.13c-.4-.94-.77-1.91-1.18-2.84a7,7,0,0,0-1.68-2.45l.11,0a33.42,33.42,0,0,0-4.88.32l.16-.18c.05,2.31.08,4.62.16,6.94s0,4.65-.14,7c-.29,4.63-.34,9.26-.31,13.89s.07,9.27.18,13.9c.06,2.32.15,4.63.29,6.94s.46,4.61.68,6.92c.11,1.15.25,2.29.34,3.46s.12,2.32.16,3.47l.21,6.95.32,13.9C372.14,311.55,372.3,320.82,372.3,330.09Zm0,0c0-9.27-.22-18.54-.43-27.8l-.36-13.9-.24-6.95c0-1.16-.1-2.31-.17-3.47s-.24-2.3-.35-3.45c-.23-2.31-.53-4.61-.71-6.92s-.24-4.63-.31-7c-.12-4.64-.17-9.27-.23-13.9s0-9.28.27-13.91c.11-2.31.19-4.63.12-6.94s-.12-4.63-.18-7a.17.17,0,0,1,.15-.18h0a35.2,35.2,0,0,1,4.93-.34.21.21,0,0,1,.11,0,7.17,7.17,0,0,1,1.8,2.59c.43.95.8,1.9,1.2,2.85l-.39.08a26.58,26.58,0,0,0-.17-5.06.2.2,0,0,1,.13-.23,10.19,10.19,0,0,1,4.23-.45,38.93,38.93,0,0,0,4.18.08c2.79-.11,5.58-.42,8.38-.6a59.15,59.15,0,0,1,8.42-.09c2.81.17,5.6.51,8.38.85a.25.25,0,0,1,.21.17,7.3,7.3,0,0,0,.53,1.13,4.72,4.72,0,0,0,.35.52,2.93,2.93,0,0,0,.4.46l-.29-.05.12-.05s0,0,0,0a.52.52,0,0,0,.09-.17,3.36,3.36,0,0,0,.13-.48,6.09,6.09,0,0,0,.15-1,.28.28,0,0,1,.29-.26h0l13.77,1.6h0a.28.28,0,0,1,.25.27c.26,5,.57,10.07.78,15.09s.51,10.06.36,15.12c-.29,10.05-.23,20.12-.26,30.18s.06,20.13.24,30.19c.08,5,.24,10.05.53,15.08q.15,3.78.15,7.56,0,1.89,0,3.78a36.87,36.87,0,0,1-.21,3.79v0l0,1v0l-1.29,18.55c-.38,6.18-.49,12.37-.42,18.57a.21.21,0,0,1-.2.2l-5.27.12c-1.76.05-3.52.07-5.28.15-.88,0-1.75.11-2.64.11-.45,0-.9,0-1.34,0l-1.32-.13a21.3,21.3,0,0,0-5.22-.17.16.16,0,0,1-.18-.13h0c-.13-.91-.33-1.83-.55-2.73-.11-.45-.23-.9-.37-1.34-.07-.22-.15-.44-.23-.65a2.23,2.23,0,0,0-.14-.27c0-.06,0,0,0-.06H404l.16-.11-2.12,5.89h0a.11.11,0,0,1-.07.08l-.31.11h0c-2,0-4-.22-6-.36s-4-.32-5.95-.48-3.93.23-5.92.37a12.46,12.46,0,0,1-1.5.1,2.94,2.94,0,0,1-.77-.09,1.06,1.06,0,0,1-.62-.51c-.26-.47-.36-.94-.58-1.39-.09-.23-.2-.45-.31-.67s-.28-.46-.4-.48h0l-.17,0,.08-.07c-.14.49-.24,1-.36,1.48-.05.24-.1.5-.16.76a.63.63,0,0,1-.16.39.8.8,0,0,1-.38.21,7.43,7.43,0,0,1-1.55.13l-1.54,0c-1,0-2,.06-3.07.05l-3.08,0a.08.08,0,0,1-.08-.07,62.32,62.32,0,0,1-.31-6.26,44.91,44.91,0,0,1,.54-6.24c.61-4.14,1.6-8.2,2.08-12.35s.38-8.33.44-12.51c0-2.08.08-4.17.26-6.25Z" transform="translate(-368.44 -217.04)"/><g class="cls-2"><path d="M399.59,233.42l.3,4.91.08,1.22.16,1.22.32,2.44,1.37,9.73-.43,0c0-2.95-.06-5.9,0-8.85v-2.21l-.1-2.21-.17-4.41-.27-8.85-.19-8.85.16.16-.52,0,.16-.15-.5,7.92C399.76,228.14,399.7,230.78,399.59,233.42Zm0,0c.08-2.64.1-5.28.24-7.92l.29-7.93a.16.16,0,0,1,.16-.15h.52a.16.16,0,0,1,.16.16h0l.47,8.83.39,8.84.15,4.43.07,2.21,0,2.22c0,2.95-.14,5.9-.2,8.85h0a.21.21,0,0,1-.42,0l-1.07-9.78-.29-2.44-.14-1.22-.06-1.23Z" transform="translate(-368.44 -217.04)"/></g><g class="cls-2"><path d="M416.59,328.25c0-2.38-.15-4.76-.1-7.13l.08-7.14,0-3.56c0-1.19-.06-2.38-.13-3.56a49,49,0,0,0-.87-7.05h.54c-.69,3.5-.36,7.11-.26,10.72s-.15,7.22-.16,10.83c0,1.8,0,3.61,0,5.4s-.08,3.61.1,5.4.21,3.59.38,5.39l.5,5.39h-.19l.28-7.35c.09-1.22,0-2.45,0-3.67Zm0,0,.15,3.68c0,1.22.16,2.45.09,3.67l-.17,7.36a.09.09,0,0,1-.1.1.09.09,0,0,1-.09-.09h0l-.65-5.38c-.21-1.79-.34-3.59-.52-5.39s-.16-3.61-.24-5.41,0-3.62,0-5.42c0-3.61.07-7.23.13-10.81s-.4-7.26.43-10.86h0a.28.28,0,0,1,.33-.21.29.29,0,0,1,.21.22,50.34,50.34,0,0,1,.7,7.13c0,1.19.05,2.38,0,3.57l-.12,3.57-.19,7.14C416.49,323.5,416.58,325.87,416.59,328.25Z" transform="translate(-368.44 -217.04)"/></g><g class="cls-3"><path d="M384.28,269.9l-.59-9.64c-.13-1.6-.35-3.2-.58-4.79s-.51-3.17-.82-4.75l.4,0a47.57,47.57,0,0,0-1.15,8.89,70.79,70.79,0,0,0,.26,9c.24,3,.64,6,1.07,8.95l1.35,8.94-.33,0,.2-4.15.1-2.08,0-2.08Zm0,0,0,8.32v2.08l0,2.07-.08,4.16a.18.18,0,0,1-.17.17.17.17,0,0,1-.16-.14h0l-1.62-8.89c-.5-3-.92-6-1.2-9a65.52,65.52,0,0,1-.19-9.08,44.37,44.37,0,0,1,1.41-9h0a.21.21,0,0,1,.41,0c.26,1.59.48,3.19.67,4.79s.36,3.2.43,4.81Z" transform="translate(-368.44 -217.04)"/></g><g class="cls-2"><path d="M424.39,225.61a28.68,28.68,0,0,1,.46,4.8,40.54,40.54,0,0,1-.43,4.81c-.42,3.2-1,6.36-1.53,9.54a87.25,87.25,0,0,0-1,19.24c.61,12.84,2.94,25.6,2.53,38.53l-.84,19.3c-.21,6.43-.29,12.87-.31,19.3s.05,12.87.18,19.31l.54,19.3-.36-.34,3.33,0-.36.36c0-3.11-.06-6.23,0-9.35s.19-6.24.38-9.35l1.32-18.65v0l-.05-1h0v0a31.08,31.08,0,0,0,.21-3.75c0-1.25,0-2.51,0-3.77,0-2.52-.05-5-.15-7.55-.28-5-.44-10.08-.52-15.12-.17-10.08-.21-20.16-.22-30.24s0-20.17.35-30.25c.16-5-.14-10.07-.32-15.1s-.48-10.07-.71-15.11v0l-3.34-.41h0A43.85,43.85,0,0,0,424.39,225.61Zm0,0a43.67,43.67,0,0,1-.76-5.59s0,0,0,0h0l3.35.39,0,0c.25,5,.58,10.06.78,15.1s.53,10.07.39,15.12c-.29,10.07-.23,20.16-.21,30.24s.14,20.16.36,30.23c.1,5.05.29,10.07.59,15.11q.18,3.78.19,7.57c0,1.26,0,2.52,0,3.78a34.55,34.55,0,0,1-.2,3.8v-.05l.05,1v0l-1.23,18.66c-.36,6.21-.42,12.43-.36,18.66a.36.36,0,0,1-.36.36l-3.33,0h0a.36.36,0,0,1-.36-.35l-.45-19.31q-.15-9.66-.09-19.32c.05-6.44.15-12.88.4-19.32l.93-19.29c.47-12.88-1.81-25.65-2.36-38.52a88.08,88.08,0,0,1,1.06-19.26c.52-3.17,1.14-6.33,1.58-9.52a40.94,40.94,0,0,0,.44-4.81A27.64,27.64,0,0,0,424.39,225.61Z" transform="translate(-368.44 -217.04)"/></g><g class="cls-4"><path d="M422.76,274.18l-.25-9.27-.14-4.64-.07-4.64v-1.16l0-1.16.13-2.32c.08-1.55.15-3.1.33-4.64.33-3.08.75-6.14.95-9.21l.72.08c-.48,3.29-1.16,6.54-1.64,9.81a88,88,0,0,0-.88,9.87c-.11,3.3,0,6.62.12,9.93s.46,6.61.76,9.91h0Zm0,0,.07,2.56,0,0h0c-.35-3.3-.64-6.6-.9-9.91s-.42-6.63-.4-9.95a72,72,0,0,1,.67-9.95c.46-3.3,1.05-6.57,1.59-9.83h0a.36.36,0,0,1,.41-.3.35.35,0,0,1,.3.38c-.25,3.1-.68,6.17-1.07,9.23-.23,1.53-.34,3.07-.46,4.6l-.19,2.31-.1,1.15v1.16c-.05,3.09-.11,6.18,0,9.27Z" transform="translate(-368.44 -217.04)"/></g><g class="cls-4"><path d="M423.88,351.22l.48-10.27c.06-1.71.22-3.42.18-5.13l-.09-5.13c-.08-3.43-.52-6.84-.59-10.27s-.09-6.85-.29-10.26h.65l-.52,13.17q-.22,6.59-.32,13.18t-.17,13.18c0,4.39,0,8.79.05,13.18h-.09Zm0,0-.62,11.66s0,.05-.05,0a.07.07,0,0,1,0,0l-.29-13.19q-.12-6.6-.11-13.19t.2-13.19c.17-4.4.41-8.79.61-13.18a.32.32,0,0,1,.34-.31.32.32,0,0,1,.31.31c.19,3.43.08,6.87.11,10.28s.36,6.84.38,10.27l0,5.14c0,1.71-.17,3.42-.24,5.13Z" transform="translate(-368.44 -217.04)"/></g><g class="cls-2"><path d="M409.39,220.21l.75,3.52c.26,1.17.55,2.33.73,3.52a57.4,57.4,0,0,1,.69,7.18l-.7-.07c.14-1.21.33-2.41.46-3.62s.17-2.46.27-3.68.27-2.46.32-3.68a10.09,10.09,0,0,0-.08-1.82l-.21-1.83v0l-.48-1.18,0,0-2.08-.29h0Zm0,0-.3-1.91s0,0,0,0h0l2.1.22,0,0h0l.54,1.13h0v0l.33,1.83a10.37,10.37,0,0,1,.2,1.85c0,1.26-.07,2.48-.09,3.71s-.09,2.47-.17,3.71-.33,2.47-.5,3.7a.35.35,0,0,1-.69-.05h0c0-2.39,0-4.78-.27-7.15-.11-1.19-.3-2.37-.52-3.55Z" transform="translate(-368.44 -217.04)"/></g><g class="cls-2"><path d="M404.08,369.82c0-2.26,0-4.52-.13-6.78l-.3-6.78.46.05c-.27,1.9-.6,3.78-.85,5.67s-.31,3.81-.42,5.72-.11,3.83-.16,5.75v5.76l-.28,0c.56-1.45,1.16-2.89,1.7-4.34v0l0-1.26c0-.42-.05-.84,0-1.26Zm0,0v2.51c0,.42,0,.84.05,1.26l.07,1.25v0c-.54,1.46-1,2.93-1.52,4.4a.15.15,0,0,1-.18.09.17.17,0,0,1-.1-.13l-.27-5.77c-.07-1.92,0-3.85,0-5.78s.22-3.85.45-5.77.71-3.8,1.08-5.69a.23.23,0,0,1,.27-.19.25.25,0,0,1,.19.24l0,6.78,0,3.39Z" transform="translate(-368.44 -217.04)"/></g><g class="cls-2"><path d="M380.55,379a2.34,2.34,0,0,0,.52.92,1,1,0,0,0,.46.26l.52.08h0c-.17-6.68.7-13.35.14-20h.08c-1.07,3.77-1.92,7.61-2.8,11.43-.45,1.91-.9,3.82-1.4,5.72l-.1.35c0,.1-.05.3-.23.35a6.34,6.34,0,0,1-.76,0,3.15,3.15,0,0,1-1.46-.33,1,1,0,0,1-.35-.69c0-.25-.06-.49-.08-.74,0-.47-.12-1-.18-1.45-1-7.82-.36-15.71.19-23.52s.67-15.67.53-23.51-.46-15.69-.22-23.55c0-2,.18-3.93.25-5.88s.12-3.92.13-5.88c0-3.92-.07-7.84-.24-11.75-.34-7.84-1-15.66-1.4-23.5a212.84,212.84,0,0,1-.09-23.56c.15-3.92.31-7.84.39-11.76v-.91a.68.68,0,0,1,.09-.37.58.58,0,0,1,.87-.11.7.7,0,0,1,.19.32l.05.17.11.35.22.71.87,2.81c.56,1.89,1.09,3.79,1.51,5.72l-.73,0c.6-4,.36-8.15.39-12.28l.43.34-.6.18-.29.08a.17.17,0,0,0,.11-.15c0-.07,0,0,0,.06a12.31,12.31,0,0,1,.16,1.36c.06.9,0,1.79,0,2.67a.35.35,0,0,1-.35.33.33.33,0,0,1-.3-.21c-.35-.83-.66-1.65-1.05-2.42a7.53,7.53,0,0,0-.66-1.09,4.88,4.88,0,0,0-.84-.91l.19.07a34.23,34.23,0,0,0-5.14.34l.28-.32.11,5.05c0,1.67.09,3.37.05,5.06-.06,3.39-.36,6.74-.41,10.1-.14,6.73,0,13.47.09,20.2.08,3.37.16,6.74.46,10.08l.52,5c.16,1.66.39,3.36.44,5.05.28,6.74.42,13.47.57,20.21s.25,13.48.33,20.22c0,3.37.06,6.73,0,10.11,0,1.68,0,3.37-.06,5.05s-.24,3.36-.27,5c-.11,3.36-.05,6.73-.16,10.1a60.5,60.5,0,0,1-1.11,10.05c-.61,3.31-1.31,6.61-1.65,10a51.55,51.55,0,0,0,.12,10.09l0,0,3.68,0,3.68-.07c.61,0,1.23,0,1.83-.08a1.08,1.08,0,0,0,.79-.41,6.77,6.77,0,0,0,.21-.89l.21-.9.1-.45c0-.06,0-.18.09-.19a.79.79,0,0,1,.14.18A9.4,9.4,0,0,1,380.55,379Zm0,0a11.53,11.53,0,0,0-.76-1.68.58.58,0,0,0-.14-.17c-.06,0,0,.13-.08.19l-.1.44-.21.9a5.6,5.6,0,0,1-.21.9,1.11,1.11,0,0,1-.79.42c-.61.08-1.23.06-1.84.09l-3.68.08h-3.68a0,0,0,0,1,0,0,50.78,50.78,0,0,1-.16-10.09c.33-3.36,1-6.67,1.61-10a60.45,60.45,0,0,0,1.08-10c.1-3.37,0-6.74.12-10.11,0-1.68.2-3.37.25-5.05s.05-3.36.05-5c0-3.36-.05-6.73-.1-10.1q-.15-10.11-.4-20.21c-.17-6.73-.34-13.47-.64-20.2-.06-1.67-.28-3.33-.45-5l-.55-5c-.3-3.36-.4-6.74-.49-10.11-.11-6.74-.28-13.47-.16-20.22,0-3.38.32-6.75.37-10.1s-.14-6.73-.2-10.1a.31.31,0,0,1,.27-.32h0a36.42,36.42,0,0,1,5.24-.36h0a.36.36,0,0,1,.17.07,5.34,5.34,0,0,1,1,1,8.85,8.85,0,0,1,.72,1.18c.41.81.73,1.65,1.07,2.46l-.65.13c0-.89,0-1.76,0-2.62a8.81,8.81,0,0,0-.15-1.27.83.83,0,0,1,0-.27.52.52,0,0,1,.3-.4l.35-.11.67-.2a.34.34,0,0,1,.41.22.38.38,0,0,1,0,.1v0c0,4.1.25,8.25-.36,12.39a.37.37,0,0,1-.42.32.39.39,0,0,1-.3-.29q-.66-2.85-1.5-5.67l-.85-2.81-.22-.7-.11-.35c0-.08-.12-.33,0-.18a.14.14,0,0,0,.22,0c0-.18,0,.08,0,.17l0,.74c-.09,3.93-.27,7.85-.43,11.77a214.21,214.21,0,0,0,0,23.5c.42,7.83,1,15.66,1.32,23.5.16,3.93.25,7.86.2,11.78q0,3-.15,5.89c-.08,2-.21,3.92-.27,5.88-.27,7.84.05,15.68.14,23.53s0,15.71-.62,23.54-1.25,15.68-.27,23.48c.05.49.14,1,.17,1.46,0,.25,0,.49.08.72a.78.78,0,0,0,.28.59A3.14,3.14,0,0,0,377,378c.23,0,.51,0,.71,0s.1-.12.13-.25l.1-.35c.51-1.9,1-3.8,1.42-5.71.9-3.82,1.76-7.65,2.85-11.42a0,0,0,0,1,.05,0s0,0,0,0c.53,6.68-.36,13.35-.21,20h0l-.53-.07a1.08,1.08,0,0,1-.46-.27A2.32,2.32,0,0,1,380.55,379Z" transform="translate(-368.44 -217.04)"/></g><g class="cls-4"><path d="M375.28,317.66l-.24,4.28-.11,2.14,0,2.14.22,8.56.22,8.57.13,8.57-.71,0c.19-3.1.44-6.18.55-9.28s.2-6.19.24-9.29,0-6.2,0-9.3-.09-6.21-.1-9.31h0Zm0,0,.26-2.94a0,0,0,0,1,0,0s0,0,0,0c.07,3.1.14,6.2.25,9.3s.21,6.21.26,9.31a172.76,172.76,0,0,1-.54,18.62h0a.36.36,0,0,1-.71,0v-8.57l0-8.57v-8.57l0-2.14.14-2.14Z" transform="translate(-368.44 -217.04)"/></g><g class="cls-4"><path d="M374.24,236.76l-.39,7.12c-.12,2.37-.24,4.75-.14,7.12a70,70,0,0,0,.63,7.08l.94,7.06-.73.08-.38-7.32c-.11-2.44-.22-4.88-.24-7.33s0-4.89.12-7.33.15-4.88.26-7.32h0Zm0,0,.07-.84h0c-.07,2.44-.13,4.88-.14,7.32s.05,4.88.16,7.32.34,4.87.49,7.3l.45,7.31h0a.37.37,0,0,1-.34.39.37.37,0,0,1-.39-.33l-.84-7.09a71,71,0,0,1-.35-7.15c0-2.38.21-4.76.39-7.13Z" transform="translate(-368.44 -217.04)"/></g><g class="cls-2"><path d="M396.43,353.75c1.45-4.43,1.89-9.09,2.33-13.7a92.25,92.25,0,0,0,.55-13.9,51.59,51.59,0,0,0-.92-6.89l-1.16-6.87c-.39-2.28-.76-4.58-1.17-6.86l-1.33-6.83c-.23-1.14-.44-2.29-.57-3.45-.07-.57-.12-1.16-.15-1.74l0-.43a.55.55,0,0,0-.16-.31c-.09-.08-.21-.13-.27-.1s-.11.18-.16.31a19.11,19.11,0,0,0-1,3.32c-.12.57-.23,1.14-.32,1.71l-.2,1.73-1.55,13.84c-.55,4.6-1.53,9.21-.89,13.81a51.16,51.16,0,0,0,1.41,6.79c.62,2.23,1.14,4.5,1.71,6.75s1,4.53,1.53,6.79a3.59,3.59,0,0,0,.1.39.4.4,0,0,0,.17.19,2.75,2.75,0,0,0,.31-.48,6.35,6.35,0,0,0,.62-1.56,16.07,16.07,0,0,0,.43-3.4c0-4.64.58-9.29.79-13.91a90.4,90.4,0,0,0-.69-13.85,53.89,53.89,0,0,0-1-6.85c-.14-.56-.29-1.11-.46-1.65l-.14-.41a1.75,1.75,0,0,0-.11-.29s-.09,0,0,0,0-.05,0,0l0,.22a24,24,0,0,1-.88,3.41c-1.5,4.37-1.66,9.06-1.74,13.67a63.71,63.71,0,0,0,.36,6.91,20,20,0,0,0,.57,3.36,4.18,4.18,0,0,0,.74,1.42l.12.13s0,0,0,0h-.08s-.1.08-.1.1l.08-.19a6.58,6.58,0,0,0,.29-.78,16.1,16.1,0,0,0,.6-3.35,28,28,0,0,0,.12-3.43c0-1.14-.1-2.34,0-3.51s.17-2.32.12-3.44a5.17,5.17,0,0,0-1-3.05.34.34,0,0,0-.16-.12s0,0,0,0,.08-.07.08-.07l-.07.78c-.05.59-.13,1.17-.23,1.75s-.21,1.16-.34,1.73l-.1.43a.29.29,0,0,1,0,.08v0a.15.15,0,0,0,0,.05c0,.06.15.09,0,.07s-.17.12-.16.11l0-.18.72-3.39h0a.35.35,0,0,1,.42-.27.36.36,0,0,1,.27.25,14.05,14.05,0,0,1,.13,4.08,34.88,34.88,0,0,0,0,4l.09,4a12.09,12.09,0,0,1-.69,4h0a.32.32,0,0,1-.41.19.32.32,0,0,1-.16-.14,9.68,9.68,0,0,1-.89-3.48c-.16-1.16-.26-2.31-.35-3.47-.17-2.34-.13-4.66-.07-7a49.27,49.27,0,0,1,.69-7c.36-2.32,1.29-4.5,1.8-6.72a.28.28,0,0,1,.33-.21.29.29,0,0,1,.2.2,28.87,28.87,0,0,1,.73,5.05l.38,5a94.64,94.64,0,0,1,.53,10.1c-.06,3.38-.34,6.74-.49,10.1-.09,1.69-.11,3.36-.12,5.05a11.57,11.57,0,0,1-.93,5h0a.2.2,0,0,1-.27.09.21.21,0,0,1-.1-.14c-.41-2.18-.79-4.38-1.24-6.52l-.66-3.24-.84-3.21a53,53,0,0,1-1.37-6.51,29.58,29.58,0,0,1,0-6.65c.46-4.41,1.24-8.77,1.69-13.16l.59-6.61c.13-1.1.16-2.21.39-3.3s.47-2.17.76-3.23a.11.11,0,0,1,.13-.08.12.12,0,0,1,.08.09c.34,2.46.9,4.89,1.38,7.33s.83,4.92,1.25,7.37c.77,4.92,1.67,9.82,2.11,14.79a84.51,84.51,0,0,1-.43,14.92c-.21,2.48-.46,5-.78,7.43-.17,1.24-.35,2.47-.57,3.69l-.34,1.84-.19.92c0,.15-.1.3,0,.45S396.37,354,396.43,353.75Zm0,0c-.06.2-.29,0-.33-.09s0-.3,0-.45l.19-.92.33-1.84c.21-1.22.39-2.46.55-3.69.32-2.47.55-4.95.76-7.43a84.45,84.45,0,0,0,.37-14.91c-.45-5-1.37-9.86-2.16-14.77-.43-2.45-.77-4.93-1.27-7.36s-1.06-4.87-1.41-7.34h.21c-.29,1.07-.55,2.14-.75,3.22s-.25,2.19-.37,3.29l-.57,6.61c-.44,4.4-1.2,8.77-1.64,13.16a29,29,0,0,0,.05,6.58,51.64,51.64,0,0,0,1.39,6.46l.85,3.2.67,3.26c.47,2.18.85,4.34,1.26,6.51l-.37-.05a11.29,11.29,0,0,0,.87-4.84c0-1.68,0-3.37.1-5.06.14-3.37.4-6.73.45-10.08a94.4,94.4,0,0,0-.56-10.07l-.4-5a29.11,29.11,0,0,0-.73-4.95h.54c-.53,2.3-1.44,4.43-1.77,6.71a47.7,47.7,0,0,0-.66,6.87,66.34,66.34,0,0,0,.09,6.91c.09,1.15.2,2.3.36,3.44a9.35,9.35,0,0,0,.8,3.21l-.58.06a11.57,11.57,0,0,0,.64-3.8l-.11-4a35.76,35.76,0,0,1,0-4,13.72,13.72,0,0,0-.12-3.86l.68,0-.71,3.43a2.08,2.08,0,0,1,0,.24.53.53,0,0,1-.46.38.83.83,0,0,1-.69-.36,1.12,1.12,0,0,1-.15-.35.59.59,0,0,1,0-.23.63.63,0,0,1,0-.13l.09-.42c.13-.56.24-1.12.33-1.69s.17-1.13.22-1.7l0-.43a2,2,0,0,1,.06-.52.59.59,0,0,1,.36-.38.67.67,0,0,1,.44,0,1,1,0,0,1,.54.37,5.71,5.71,0,0,1,1.12,3.47c.05,1.21-.07,2.37-.13,3.52s0,2.27,0,3.45a29.58,29.58,0,0,1-.12,3.52,17.69,17.69,0,0,1-.64,3.49,8.78,8.78,0,0,1-.33.85l-.09.21a.44.44,0,0,1-.26.24.48.48,0,0,1-.28,0,.74.74,0,0,1-.39-.18l-.16-.19a4.61,4.61,0,0,1-.87-1.65,19.52,19.52,0,0,1-.58-3.5,62.68,62.68,0,0,1-.34-7c.09-4.63.27-9.38,1.81-13.84a23.19,23.19,0,0,0,.87-3.32l0-.21a.55.55,0,0,1,.18-.37.57.57,0,0,1,.79.09,1.63,1.63,0,0,1,.24.5l.13.42c.18.56.33,1.13.47,1.7a52.51,52.51,0,0,1,1,6.92A90.1,90.1,0,0,1,397,329c-.23,4.66-.84,9.24-.84,13.9a16,16,0,0,1-.45,3.49,6.8,6.8,0,0,1-.67,1.66,3,3,0,0,1-.24.38.87.87,0,0,1-.17.22.42.42,0,0,1-.41.07.82.82,0,0,1-.42-.42,4.11,4.11,0,0,1-.11-.45c-.51-2.27-1-4.55-1.51-6.81s-1.08-4.51-1.69-6.75a52.82,52.82,0,0,1-1.4-6.84c-.62-4.67.38-9.31.94-13.89l1.6-13.84.21-1.73c.1-.57.2-1.15.32-1.72a20.75,20.75,0,0,1,1-3.35c.06-.12.07-.29.27-.42a.46.46,0,0,1,.52.14.7.7,0,0,1,.23.44l0,.44c0,.58.07,1.15.14,1.73.13,1.15.33,2.29.56,3.43l1.3,6.84c.41,2.29.76,4.58,1.15,6.87l1.13,6.87a51.63,51.63,0,0,1,.9,6.91,93.55,93.55,0,0,1-.6,13.9C398.35,344.66,397.9,349.33,396.43,353.75Z" transform="translate(-368.44 -217.04)"/></g><g class="cls-2"><path d="M394.64,356.6c-.78-2.34-1.62-4.67-2.34-7L391.18,346l-1.22-3.5a72.62,72.62,0,0,1-2.19-7.09,42.44,42.44,0,0,1-1.07-7.35c-.29-5,.2-9.92.26-14.84.05-2.46,0-4.94.21-7.44.12-1.24.31-2.46.43-3.68,0-.61.09-1.21.09-1.82q0-.45,0-.9c0-.05,0-.08,0,0v0s0,0,0,0a.25.25,0,0,0,.22-.06.25.25,0,0,0,.1-.15v.21a30.77,30.77,0,0,1-.33,3.73l-.25,1.84-.15,1.83c-.21,2.45-.4,4.91-.55,7.38-.29,4.93-.93,9.86-.58,14.78a51.73,51.73,0,0,0,3.25,14.38c.85,2.32,1.57,4.69,2.37,7,.39,1.17.76,2.35,1.2,3.51.22.57.46,1.14.73,1.7.13.28.27.55.42.82s.13.29.26.38S394.73,356.78,394.64,356.6Zm0,0c.09.18-.16.29-.28.19s-.17-.26-.26-.38c-.15-.27-.3-.55-.43-.82-.27-.56-.52-1.13-.74-1.7-.45-1.16-.83-2.33-1.23-3.5-.82-2.34-1.55-4.7-2.43-7A52.81,52.81,0,0,1,385.75,329c-.44-5,.09-9.91.31-14.84.14-2.46.31-4.94.5-7.42l.14-1.86.24-1.83a30.26,30.26,0,0,0,.3-3.66v-.26a.53.53,0,0,1,.18-.35.46.46,0,0,1,.44-.09.77.77,0,0,1,.39.26.82.82,0,0,1,.11.23.74.74,0,0,1,0,.2c0,.31,0,.63,0,.95a16.79,16.79,0,0,1-.11,1.88c-.12,1.25-.32,2.47-.45,3.68-.26,2.43-.19,4.9-.26,7.38-.14,5-.73,9.88-.52,14.81a42,42,0,0,0,.92,7.32,67.9,67.9,0,0,0,2.06,7.11l1.19,3.51,1.1,3.54C393.06,351.92,393.88,354.25,394.64,356.6Z" transform="translate(-368.44 -217.04)"/></g><g class="cls-2"><path d="M402.73,342.35a67.78,67.78,0,0,0,1.86-14.86c0-2.51-.06-5-.26-7.5s-.62-5-.92-7.45c-.49-5-1.62-9.86-2.53-14.78a128.32,128.32,0,0,1-2.15-14.87c-.88-10-1.24-20-1.81-30-.24-5-.59-10-.9-15-.12-2.5-.42-5-.61-7.48a29.91,29.91,0,0,1-.06-3.79,15.71,15.71,0,0,1,.21-1.91c.06-.32.13-.63.21-.94l.13-.47,0-.12,0-.05s0,.2,0,.22a.35.35,0,0,0,.1.11.33.33,0,0,0,.35,0c.17-.16.13-.2.12-.14v0a21,21,0,0,0-.81,7.3l.37,7.48c.25,5,.46,10,.66,15l.62,15c.26,5,.51,10,.94,15,.64,10,3.44,19.69,4.58,29.65a85.13,85.13,0,0,1,1.19,15q-.09,3.75-.52,7.49c-.14,1.24-.32,2.48-.52,3.71l-.35,1.85-.18.92c0,.15-.06.31-.08.46a.28.28,0,0,0,.12.19C402.6,342.45,402.72,342.44,402.73,342.35Zm0,0c0,.09-.13.1-.18,0a.25.25,0,0,1-.12-.19,3.4,3.4,0,0,1,.08-.46l.17-.92L403,339q.3-1.86.51-3.72.41-3.74.46-7.49a83,83,0,0,0-1.28-14.92c-.78-4.95-1.45-9.91-2.56-14.79a121.82,121.82,0,0,1-2.2-14.86c-.46-5-.75-10-1-15l-.71-15c-.24-5-.48-10-.76-15l-.41-7.5a21.26,21.26,0,0,1,.8-7.55v-.06s0-.07.18-.24a.4.4,0,0,1,.46,0,.5.5,0,0,1,.18.2.47.47,0,0,1,0,.33v.05l0,.11-.12.44a8.63,8.63,0,0,0-.2.88,15.86,15.86,0,0,0-.22,1.82,30.64,30.64,0,0,0,0,3.71c.17,2.47.46,5,.56,7.49.28,5,.6,10,.81,15,.51,10,.81,20,1.62,30a128.37,128.37,0,0,0,2.06,14.85c.87,4.92,2,9.82,2.44,14.81.28,2.49.62,5,.87,7.46s.26,5,.22,7.51A68.35,68.35,0,0,1,402.73,342.35Z" transform="translate(-368.44 -217.04)"/></g><g class="cls-2"><path d="M389.52,367.09a107.35,107.35,0,0,1-4.15-12.52c-1.16-4.25-1.94-8.59-2.87-12.88a65.37,65.37,0,0,1-1.2-6.51q-.41-3.29-.55-6.59c-.11-2.2-.14-4.4-.19-6.6l-.09-3.29-.07-1.64,0-.82s0,0,0,0a.24.24,0,0,0,.18,0,.23.23,0,0,0,.13-.15c0-.07,0,.07,0,.12l-.17,6.58-.08,3.29c0,1.1,0,2.19.06,3.29.08,2.19.22,4.38.47,6.55s.67,4.33,1.11,6.48c.92,4.31,1.59,8.66,2.8,12.89.6,2.11,1.3,4.2,2.07,6.26.39,1,.79,2.05,1.21,3.07l.63,1.52.33.76a1.24,1.24,0,0,0,.19.36.17.17,0,0,0,.19,0C389.55,367.24,389.54,367.15,389.52,367.09Zm0,0c0,.06,0,.15,0,.19a.18.18,0,0,1-.2,0,1.55,1.55,0,0,1-.19-.36l-.33-.76-.65-1.51q-.63-1.53-1.23-3.06-1.18-3.09-2.12-6.25c-.62-2.11-1.17-4.25-1.65-6.4s-.92-4.29-1.42-6.44-.95-4.3-1.25-6.49-.5-4.39-.6-6.6c-.05-1.1-.09-2.2-.09-3.3l.06-3.31.12-6.61a.92.92,0,0,1,0-.29.47.47,0,0,1,.25-.31.51.51,0,0,1,.38,0,.8.8,0,0,1,.34.24.68.68,0,0,1,.11.19.73.73,0,0,1,0,.21l0,.83.06,1.65.07,3.31c0,2.2,0,4.39.13,6.58s.19,4.39.42,6.57a64.79,64.79,0,0,0,1.06,6.48c.84,4.32,1.51,8.68,2.6,12.93A108.56,108.56,0,0,0,389.52,367.09Z" transform="translate(-368.44 -217.04)"/></g><g class="cls-2"><path d="M384,304.17c.31-1.48.3-3,.57-4.48a37.53,37.53,0,0,1,1-4.41c.43-1.44.88-2.89,1.4-4.31q.41-1.05.84-2.1l.45-1.05.11-.25.06-.13c0-.12,0,.11,0,.12s0,0,0,.06a.17.17,0,0,0,.12.05.31.31,0,0,0,.29-.11c.05-.09,0,0,0,0l0,.06-.06.13a65.2,65.2,0,0,0-3.92,8.07,27,27,0,0,0-1.17,4.34,15.22,15.22,0,0,0-.25,2.23,8.53,8.53,0,0,0,0,1.13,2.53,2.53,0,0,0,.09.55.41.41,0,0,0,.2.19A.14.14,0,0,0,384,304.17Zm0,0a.14.14,0,0,1-.21.1.55.55,0,0,1-.22-.18,3.45,3.45,0,0,1-.1-.56,10.55,10.55,0,0,1-.06-1.13,17.09,17.09,0,0,1,.2-2.25,30.21,30.21,0,0,1,2.52-8.69c.64-1.37,1.34-2.71,2-4l.07-.12,0-.06c0-.05,0,0,.07-.12a.46.46,0,0,1,.41-.17.39.39,0,0,1,.24.12.55.55,0,0,1,.2.29.56.56,0,0,1-.05.39l-.06.13-.12.25-.47,1c-.3.69-.59,1.37-.88,2.07-.58,1.38-1.13,2.77-1.63,4.19a32.27,32.27,0,0,0-1.27,4.31C384.34,301.18,384.31,302.7,384,304.17Z" transform="translate(-368.44 -217.04)"/></g><g class="cls-2"><path d="M389,262.08a31.87,31.87,0,0,0-.81-7.66,22.72,22.72,0,0,1-.36-3.86c0-1.3.08-2.59.13-3.87a38.08,38.08,0,0,0,0-3.85l-.14-3.86-.2-3.86-.1-1.93-.05-1,0-.48c0-.12,0,.11.06.12s0,.1.28.07a.37.37,0,0,0,.23-.26h0v.12l-.15,7.74-.12,3.86c-.06,1.29-.2,2.57-.3,3.86s-.26,2.58-.27,3.85a24.69,24.69,0,0,0,.36,3.83c.2,1.27.44,2.54.66,3.81.12.63.22,1.27.31,1.91l.12,1a2.54,2.54,0,0,0,.07.47C388.72,262.23,389,262.29,389,262.08Zm0,0c0,.22-.29.16-.35,0a1.85,1.85,0,0,1-.08-.47l-.14-1c-.1-.64-.21-1.27-.33-1.9-.24-1.27-.5-2.53-.72-3.8a26.14,26.14,0,0,1-.48-3.85c0-1.3.09-2.58.13-3.87s.14-2.57.16-3.85v-3.87l0-7.73v-.12s0,0,0-.11a.44.44,0,0,1,.29-.35.48.48,0,0,1,.5.16.55.55,0,0,1,.12.35l0,.49,0,1,.07,1.93.14,3.86v3.87a38.66,38.66,0,0,1-.09,3.88c-.09,1.29-.22,2.57-.27,3.85a21.48,21.48,0,0,0,.24,3.84A31.53,31.53,0,0,1,389,262.08Z" transform="translate(-368.44 -217.04)"/></g><g class="cls-2"><path d="M407.07,370.41a133.64,133.64,0,0,1,1.43-17.3c.41-2.87.86-5.72,1.39-8.57s1-5.69,1.34-8.57a55.3,55.3,0,0,0,.28-8.63c-.14-2.88-.5-5.74-.91-8.6s-.89-5.71-1.35-8.57l-.66-4.3-.29-2.15-.14-1.08-.06-.54,0-.26c0,.17.09.16.13.19a.25.25,0,0,0,.17,0c.13,0,.27-.21.24-.28l2,17.17a84,84,0,0,1,.59,8.69,60.13,60.13,0,0,1-.58,8.69c-.37,2.88-1,5.71-1.53,8.55s-1,5.69-1.39,8.56-.58,5.76-.73,8.65c-.07,1.44-.12,2.89-.15,4.34l0,2.17v1.63a.27.27,0,0,0,.08.24C406.93,370.52,407.08,370.52,407.07,370.41Zm0,0c0,.11-.14.12-.19,0a.24.24,0,0,1-.08-.24v-3.8c0-1.45,0-2.9.12-4.34q.19-4.33.67-8.66c.33-2.88.77-5.74,1.26-8.59s1.07-5.69,1.4-8.56a60.79,60.79,0,0,0,.44-8.63c-.07-2.88-.37-5.75-.72-8.62l-1.06-8.62-1-8.7a.42.42,0,0,1,.32-.37.51.51,0,0,1,.3,0,.5.5,0,0,1,.31.38l0,.29.06.54.12,1.07.29,2.15.63,4.29c.44,2.86.9,5.72,1.29,8.59a86.45,86.45,0,0,1,.79,8.67,56.17,56.17,0,0,1-.42,8.7c-.35,2.88-.89,5.73-1.48,8.56s-1.09,5.68-1.52,8.55A136.93,136.93,0,0,0,407.07,370.41Z" transform="translate(-368.44 -217.04)"/></g><g class="cls-2"><path d="M414.6,279.17c-.36-2.84-.5-5.71-.62-8.58l-.22-4.29-.15-4.31-.29-8.6-.11-4.3,0-2.15,0-1.08,0-.53c0,.15.07.17.12.2a.27.27,0,0,0,.23,0,.33.33,0,0,0,.23-.27v.24c-.1,2.87-.28,5.74-.33,8.6l-.14,4.29c0,1.44,0,2.87,0,4.3l.06,8.6c0,1.44.07,2.87.22,4.3.08.71.19,1.42.33,2.12q.1.52.24,1.05c.07.16.06.36.19.49a.3.3,0,0,0,.23.11C414.59,279.37,414.61,279.25,414.6,279.17Zm0,0c0,.08,0,.2-.11.22a.33.33,0,0,1-.24-.1c-.12-.14-.12-.34-.19-.5-.1-.35-.18-.69-.26-1.05-.15-.7-.26-1.41-.35-2.12-.17-1.42-.25-2.86-.28-4.29l-.33-8.6c-.32-5.74-.07-11.49.09-17.21v-.3a.44.44,0,0,1,.3-.38.48.48,0,0,1,.36,0,.51.51,0,0,1,.26.43v.53l0,1.08,0,2.15.06,4.3,0,8.6v4.3l.1,4.31C414.17,273.45,414.27,276.32,414.6,279.17Z" transform="translate(-368.44 -217.04)"/></g><g class="cls-4"><path d="M414,278.67a35.29,35.29,0,0,1-.7-4.09c-.1-1.39-.08-2.77-.12-4.15s-.13-2.76-.22-4.14c-.06-.69-.05-1.4-.08-2.07,0-.34,0-.68-.07-1l-.06-.5,0-.24,0-.06s-.08-.12.1.14c.07.05.12.14.38.06a.33.33,0,0,0,.2-.37l0,.07a30.89,30.89,0,0,1-.07,4.21c0,1.37-.12,2.76-.23,4.14a23.73,23.73,0,0,0,0,4.13c.09.68.19,1.36.33,2,.07.34.15.68.24,1l.14.5.08.24s0,.09.05.12S414,278.72,414,278.67Zm0,0c0,.05-.06.07-.09,0s0-.08-.05-.11l-.08-.25-.15-.5c-.1-.33-.18-.67-.26-1-.15-.68-.29-1.35-.4-2a24,24,0,0,1-.25-4.15c0-1.39,0-2.77-.05-4.16a39.23,39.23,0,0,0,0-4.07v-.06a.39.39,0,0,1,.66-.35c.2.29.09.22.13.26v.07l0,.26a5,5,0,0,1,.06.54c0,.35.05.71.06,1.06,0,.7,0,1.39,0,2.08,0,1.38.06,2.76,0,4.15s-.18,2.76-.15,4.14A24.86,24.86,0,0,0,414,278.67Z" transform="translate(-368.44 -217.04)"/></g><g class="cls-4"><path d="M415.44,317.62l.05-4.25,0-2.13c0-.7-.08-1.41-.12-2.12-.11-1.4-.15-2.83-.19-4.26,0-.71.06-1.42.09-2.13l.08-1.07,0-.53,0-.27v-.08h0a.37.37,0,0,0,0,.11.38.38,0,0,0,.19.22.37.37,0,0,0,.29,0,.28.28,0,0,0,.17-.17v0l0,0a12.19,12.19,0,0,0-.61,4.05c0,.71-.1,1.41-.1,2.11v2.12c0,1.41-.05,2.84-.07,4.26v4C415.27,317.62,415.43,317.74,415.44,317.62Zm0,0c0,.12-.17,0-.15-.08v-.79l0-1.07-.06-2.12c-.06-1.42-.09-2.82-.2-4.24l-.15-2.13c0-.71,0-1.43,0-2.14a11.55,11.55,0,0,1,.57-4.32l0-.07v0a.45.45,0,0,1,.2-.2.39.39,0,0,1,.32,0,.41.41,0,0,1,.23.27.37.37,0,0,1,0,.12v0h0v.07l0,.26,0,.53-.1,1c0,.7-.18,1.4-.16,2.11,0,1.4-.11,2.81-.09,4.24,0,.71,0,1.42,0,2.12l-.15,2.13C415.5,314.79,415.48,316.2,415.44,317.62Z" transform="translate(-368.44 -217.04)"/></g><g class="cls-4"><path d="M408,350.31c.56-3.61,1.31-7.18,1.75-10.8.27-1.81.54-3.61.71-5.42.09-.9.16-1.8.19-2.7,0-.45,0-.9,0-1.35l0-.67,0-.34v-.23s0,.07,0,.09a.36.36,0,0,0,.05.09.37.37,0,0,0,.13.11.43.43,0,0,0,.22,0,.4.4,0,0,0,.25-.2.28.28,0,0,0,0-.13v0l-.27,2.73-.13,1.37-.24,1.35-1,5.39-1,5.38c-.15.9-.27,1.8-.41,2.71L408,349.1l-.1.67-.05.34c0,.06,0,.12,0,.17S408,350.38,408,350.31Zm0,0c0,.07-.11,0-.13,0s0-.11,0-.17l.05-.34.09-.68.17-1.35c.12-.91.23-1.81.36-2.72l.74-5.42.75-5.42.2-1.34.11-1.36.21-2.72v0h0a.27.27,0,0,1,0-.15.38.38,0,0,1,.26-.21.36.36,0,0,1,.23,0,.35.35,0,0,1,.17.13.29.29,0,0,1,.06.11.62.62,0,0,1,0,.11V330c0,.47,0,.93,0,1.39-.05.92-.14,1.83-.25,2.75-.24,1.82-.61,3.61-1,5.4l-.52,2.68-.57,2.68c-.18.9-.39,1.79-.53,2.69S408.22,349.42,408,350.31Z" transform="translate(-368.44 -217.04)"/></g><g class="cls-4"><path d="M400.75,244.68c-.21-1.49-.53-3-.65-4.46l-.27-2.24c0-.75-.06-1.5-.09-2.26,0-1.5-.17-3-.23-4.49,0-.75,0-1.52,0-2.28l0-1.13c0-.19,0-.39.05-.58l0-.3v-.11a.35.35,0,0,0,.07.28.31.31,0,0,0,.09.07.35.35,0,0,0,.32,0,.34.34,0,0,0,.2-.25v0l0,.07a18.43,18.43,0,0,0-.47,4.4l-.15,4.5a22.25,22.25,0,0,0,.19,4.47l.39,2.22.2,1.11.1.55.05.28c0,.05,0,.1,0,.13S400.76,244.75,400.75,244.68Zm0,0c0,.07-.08,0-.11,0s0-.08,0-.13l-.06-.27-.11-.55-.22-1.11-.45-2.21a24.17,24.17,0,0,1-.46-4.49c-.05-1.5-.1-3-.11-4.51a18.83,18.83,0,0,1,.38-4.54v-.09a.38.38,0,0,1,.21-.27.37.37,0,0,1,.36,0,.53.53,0,0,1,.11.09.4.4,0,0,1,.1.35v.09l0,.27q0,.25-.06.54l-.06,1.11c0,.75-.05,1.48,0,2.23,0,1.5,0,3,0,4.51A44.9,44.9,0,0,0,400.75,244.68Z" transform="translate(-368.44 -217.04)"/></g><g class="cls-4"><path d="M398.58,287.12a20.39,20.39,0,0,0-.32-4c-.16-1.33-.34-2.65-.53-4s-.34-2.64-.5-4a12.52,12.52,0,0,1-.09-2,7.31,7.31,0,0,0,0-.95,3.26,3.26,0,0,0-.09-.45l-.06-.21,0-.05v0a.34.34,0,0,0,.13.16.33.33,0,0,0,.22.05c.11,0,.31-.17.3-.29a.24.24,0,0,0,0-.12v.05a7,7,0,0,1-.06,2.1,11.41,11.41,0,0,0,0,1.94l.08,2,.16,2,.33,4c.07.67.19,1.32.28,2,0,.33.08.66.09,1a4.21,4.21,0,0,1,0,.5v.25C398.42,287.15,398.57,287.24,398.58,287.12Zm0,0c0,.12-.17,0-.16-.05v-.25c0-.16,0-.33,0-.5,0-.33-.06-.66-.11-1-.1-.66-.26-1.31-.35-2l-.6-4-.31-2c-.07-.67-.15-1.33-.2-2a10.12,10.12,0,0,1,0-2.06,6.3,6.3,0,0,0,0-1.88v0a.35.35,0,0,1,0-.15.41.41,0,0,1,.35-.33.47.47,0,0,1,.28.06.41.41,0,0,1,.16.21v0l0,.06a2.68,2.68,0,0,1,.07.27,3.41,3.41,0,0,1,.1.54,7.45,7.45,0,0,1,0,1.05,13,13,0,0,0,0,2c.09,1.32.12,2.67.23,4l.26,4A25.49,25.49,0,0,1,398.58,287.12Z" transform="translate(-368.44 -217.04)"/></g><g class="cls-4"><path d="M396,326.52a3.39,3.39,0,0,1,0-1.23,10.1,10.1,0,0,0,0-1.23l0-1.23c0-.41-.05-.82-.09-1.23-.1-.82-.14-1.64-.2-2.46s-.18-1.63-.26-2.45l-.57-4.9c-.08-.82-.15-1.63-.29-2.42a8.79,8.79,0,0,0-.29-1.15q-.09-.27-.21-.54l-.12-.26-.07-.12s0,.05.05.06a.18.18,0,0,0,.07.05.32.32,0,0,0,.16,0,.37.37,0,0,0,.29-.24c0-.1,0-.13,0-.15v0l0,.07,0,.16.06.3.12.61c.07.41.14.82.2,1.23.12.83.17,1.66.23,2.48l.3,4.93c.12,1.65.14,3.28.26,4.93a22.44,22.44,0,0,1,.05,2.46c0,.42,0,.83,0,1.24a3.13,3.13,0,0,0,0,.61,1.59,1.59,0,0,0,.06.3c0,.05,0,.1.05.14S396,326.59,396,326.52Zm0,0c0,.07-.07.07-.1,0a.88.88,0,0,1-.05-.15,1.67,1.67,0,0,1-.08-.3,4.18,4.18,0,0,1-.05-.61c0-.42,0-.83,0-1.24a22.5,22.5,0,0,0-.11-2.46c-.19-1.62-.32-3.28-.53-4.9l-.56-4.9c-.08-.83-.14-1.64-.28-2.43-.06-.4-.14-.8-.22-1.2l-.13-.6-.07-.3,0-.15,0-.07v0a.62.62,0,0,1,0-.23.42.42,0,0,1,.34-.28.42.42,0,0,1,.37.13s.11.13.09.12l.08.15.14.3c.08.2.15.41.22.61a11.22,11.22,0,0,1,.28,1.25c.14.84.18,1.67.25,2.48l.3,4.93c0,.82.1,1.65.12,2.47s0,1.65.07,2.46c0,.41.07.83.07,1.24l-.07,1.23c0,.41,0,.83,0,1.24A3.13,3.13,0,0,0,396,326.52Z" transform="translate(-368.44 -217.04)"/></g><g class="cls-4"><path d="M394,345.49c-.46-2.65-1.18-5.25-1.87-7.85-.33-1.31-.77-2.58-1.15-3.86a16.11,16.11,0,0,1-.51-2c-.06-.34-.11-.68-.15-1l0-.51v-.13s0-.05,0,0a.12.12,0,0,0,0,.07s0,.06.19.08a.3.3,0,0,0,.27-.16c0-.05,0-.12,0-.08a11.68,11.68,0,0,0,.58,3.84l.47,2,.3,2c.18,1.34.46,2.65.71,4l.43,2,.31,1,.15.48.08.24C393.87,345.58,394,345.61,394,345.49Zm0,0c0,.12-.16.09-.16,0l-.08-.24-.16-.48-.33-.95-.51-2c-.31-1.31-.7-2.6-1-3.92l-.43-2-.6-1.92a10.74,10.74,0,0,1-.69-4.08.53.53,0,0,1,.06-.2.45.45,0,0,1,.38-.23.54.54,0,0,1,.4.21.67.67,0,0,1,.09.19.84.84,0,0,1,0,.14v.13l0,.49a8,8,0,0,0,.12,1,17.28,17.28,0,0,0,.42,1.94c.31,1.31.65,2.62.89,3.95l.76,4C393.52,342.85,393.81,344.16,394,345.49Z" transform="translate(-368.44 -217.04)"/></g><g class="cls-4"><path d="M385.54,355c-.74-3.32-1.39-6.65-2.3-9.93-.42-1.65-.81-3.31-1.08-5-.12-.85-.23-1.68-.39-2.51-.07-.41-.15-.83-.24-1.24l-.15-.61-.07-.31,0-.07v0s0,0,0,0a.15.15,0,0,0,0,.06.21.21,0,0,0,.1.08.27.27,0,0,0,.22,0,.32.32,0,0,0,.22-.26c.11,1.48.47,3.31.62,4.95l.27,2.53c.11.84.31,1.66.46,2.5.32,1.66.66,3.33,1,5,.18.83.42,1.65.63,2.47l.32,1.23.16.62.08.31,0,.15C385.45,355,385.53,355.06,385.54,355Zm0,0c0,.09-.09,0-.08-.05l0-.15-.08-.31-.18-.61-.35-1.22c-.22-.82-.48-1.64-.68-2.46l-1.27-4.94c-.2-.83-.44-1.65-.6-2.49l-.39-2.53c-.13-.85-.23-1.68-.38-2.51l-.21-1.27-.08-.64,0-.32v-.29a.26.26,0,0,1,0-.11.41.41,0,0,1,.26-.34.4.4,0,0,1,.3,0,.44.44,0,0,1,.23.17.26.26,0,0,1,.05.09.23.23,0,0,1,0,.08v0l0,.08.07.31.13.64c.09.42.16.84.23,1.26.14.85.24,1.7.34,2.54.19,1.68.47,3.35.8,5l.51,2.5.45,2.51Z" transform="translate(-368.44 -217.04)"/></g><g class="cls-4"><path d="M378.5,298.44c0-1.95.05-3.9,0-5.85a34.14,34.14,0,0,0-.48-5.8,32.93,32.93,0,0,1-.38-5.85c0-1-.13-1.94-.19-2.9l-.11-1.47c0-.24,0-.5,0-.75v-.53h0v.07a.62.62,0,0,0,0,.1c.08.08.06.18.38.14a.33.33,0,0,0,.22-.27v0a52.86,52.86,0,0,0-.18,5.79l-.07,2.93a25.52,25.52,0,0,0,.21,2.88c.06.49.12,1,.16,1.46l.05,1.47.11,2.93,0,2.92,0,1.46v1.1a.18.18,0,0,0,.05.16C378.4,298.52,378.5,298.52,378.5,298.44Zm0,0c0,.08-.1.08-.13,0s-.05-.11-.05-.17l0-.37,0-.73,0-1.46-.11-2.92-.24-2.91-.12-1.45c-.06-.48-.14-1-.22-1.44a23.91,23.91,0,0,1-.35-2.93l-.06-2.92a52.75,52.75,0,0,1,.08-5.89v-.06a.42.42,0,0,1,.27-.34.48.48,0,0,1,.53.22.53.53,0,0,1,.05.15v.09h0v.48c0,.23,0,.47,0,.71l.08,1.45c.05,1,.14,1.94.14,2.94a34.1,34.1,0,0,0,.11,5.81,36.89,36.89,0,0,1,.21,5.85C378.62,294.54,378.53,296.49,378.5,298.44Z" transform="translate(-368.44 -217.04)"/></g><g class="cls-4"><path d="M382.78,234.28a12.4,12.4,0,0,0-.15-3.33c-.16-1.11-.33-2.21-.42-3.33l-.34-3.36a10.83,10.83,0,0,1,0-1.71,8.58,8.58,0,0,1,.1-.87c0-.14.06-.29.1-.43l0-.11v0a.33.33,0,0,0,0,.17.3.3,0,0,0,.12.18.27.27,0,0,0,.16,0,.33.33,0,0,0,.29-.12c.07-.08.07-.11.06-.09v0l0,.09a8.73,8.73,0,0,0-.43,1.55,12.41,12.41,0,0,0-.1,1.63,26.29,26.29,0,0,0,0,3.32l.14,3.35.06,1.68.06.83.05.42C382.51,234.3,382.73,234.46,382.78,234.28Zm0,0c0,.19-.27,0-.31-.08s0-.28-.05-.42l-.08-.83c0-.56-.08-1.12-.14-1.67l-.41-3.33a23.57,23.57,0,0,1-.29-3.37,11,11,0,0,1,0-1.72,9.51,9.51,0,0,1,.43-1.69l0-.1v0a.31.31,0,0,1,.07-.14.41.41,0,0,1,.34-.14.46.46,0,0,1,.21.08.4.4,0,0,1,.18.25.45.45,0,0,1,0,.23v0l0,.09a2.62,2.62,0,0,0-.09.38,6.84,6.84,0,0,0-.12.79,14.89,14.89,0,0,0-.06,1.64l.07,3.34c0,1.12.07,2.23.15,3.35A14.93,14.93,0,0,1,382.78,234.28Z" transform="translate(-368.44 -217.04)"/></g></g></g></svg>