<svg xmlns="http://www.w3.org/2000/svg" viewBox="0 0 236.45 230.93"><defs><style>.cls-1{isolation:isolate;}.cls-2,.cls-3{fill:none;}.cls-2,.cls-3,.cls-4,.cls-5,.cls-6,.cls-7{stroke:#231f20;stroke-miterlimit:10;stroke-width:0.5px;}.cls-3{mix-blend-mode:multiply;}.cls-4{fill:#424242;}.cls-6{fill:#282828;}.cls-7{fill:#141414;}.cls-8{mix-blend-mode:screen;}</style></defs><title>reeds</title><g class="cls-1"><g id="Layer_1" data-name="Layer 1"><ellipse class="cls-2" cx="132.2" cy="217.43" rx="92.28" ry="13.24"/><ellipse class="cls-3" cx="128.83" cy="216.97" rx="78.89" ry="11.32"/><path class="cls-4" d="M169.92,223.13l2.47-.29c5.91-55.33,2-133.25,2-134.06L172,88.9C172,89.72,175.9,168,169.92,223.13Z" transform="translate(-3.22 -3.31)"/><path class="cls-5" d="M170.1,219.66C167.62,168.19,190,50.15,190.23,49l2.38.45c-.23,1.18-22.56,119-20.09,170.13Z" transform="translate(-3.22 -3.31)"/><path class="cls-6" d="M175.12,222.53C195.43,178,212.89,81.63,213.06,80.66l-2.39-.43c-.17,1-17.66,97.57-37.91,141.63l1.64.74Z" transform="translate(-3.22 -3.31)"/><path class="cls-7" d="M198.36,3.61a4.85,4.85,0,0,0-5.48,4.07l-6.23,42.16a4.83,4.83,0,0,0,9.56,1.4l6.23-42.16a4.2,4.2,0,0,0,.05-.7A4.84,4.84,0,0,0,198.36,3.61Zm-4.44,16.77-.12.16-.11.15a.83.83,0,0,1-.18.13l-.18.12c-.1,0-.33.11-.41,0a1.23,1.23,0,0,1-.17-.83,1.52,1.52,0,0,1,.51-1.27,1.05,1.05,0,0,1,.29-.17.78.78,0,0,1,.21-.09c.08,0,.21,0,.26.07A1.69,1.69,0,0,1,193.92,20.38ZM198,7.88c-.11,2.44-.54,5.25-2.11,7.22-.48.6-1.5,1.54-2.27.81a3.65,3.65,0,0,1-.71-2.57,19.87,19.87,0,0,1,.63-4.54c.26-1,.72-2.8,1.87-3.24a1.23,1.23,0,0,1,1.41-.3C197.88,5.7,198,6.86,198,7.88Z" transform="translate(-3.22 -3.31)"/><path class="cls-7" d="M173.4,45.08a4.84,4.84,0,0,0-4.91,4.74l-.68,42.61a4.83,4.83,0,0,0,9.66.15L178.15,50V49.9A4.83,4.83,0,0,0,173.4,45.08Zm-1,11.7c-.4.66-1.28,1.73-2.14,1.11a3.65,3.65,0,0,1-1-2.46,19.58,19.58,0,0,1,0-4.59c.12-1,.35-2.86,1.43-3.45a1.24,1.24,0,0,1,1.36-.48c1.13.3,1.43,1.43,1.51,2.45C173.78,51.79,173.73,54.63,172.42,56.78Z" transform="translate(-3.22 -3.31)"/><path class="cls-7" d="M221.38,33a4.83,4.83,0,0,0-5.71,3.73l-8.76,41.71a4.83,4.83,0,0,0,9.45,2l8.76-41.71a4.75,4.75,0,0,0,.1-1A4.81,4.81,0,0,0,221.38,33Zm-5.45,16.47-.12.15a1.74,1.74,0,0,1-.12.14.62.62,0,0,1-.19.12,1.18,1.18,0,0,1-.19.11c-.1,0-.34.09-.41,0a1.3,1.3,0,0,1-.12-.84,1.56,1.56,0,0,1,.59-1.24,1.05,1.05,0,0,1,.3-.15.58.58,0,0,1,.22-.08c.08,0,.21,0,.25.09A1.69,1.69,0,0,1,215.93,49.48Zm4.81-12.24c-.25,2.43-.85,5.21-2.54,7.08-.51.57-1.59,1.45-2.31.68a3.66,3.66,0,0,1-.56-2.61,19.75,19.75,0,0,1,.91-4.5c.32-1,.89-2.74,2.06-3.12a1.21,1.21,0,0,1,1.42-.21C220.77,35.06,220.85,36.22,220.74,37.24Z" transform="translate(-3.22 -3.31)"/><path class="cls-4" d="M189.85,202.61a254.48,254.48,0,0,1,13.05-24.37,219.49,219.49,0,0,1,13.24-19.48,141.93,141.93,0,0,1,15.27-17,96.15,96.15,0,0,1,8.11-6.84c-10.56,5.24-19.63,13-27.42,21.81a171.45,171.45,0,0,0-23.32,34.17c-2.08,4-4,8-5.81,12.11,1.52-5.3,2.87-10.66,4.28-16,1.16-4.39,2.38-8.76,3.41-13.18.92-3.92,1.8-7.86,2.59-11.81.66-3.26,1.34-7,.2-10.27l-.3.75c-2.19,5.59-3.44,11.47-5.25,17.18-2.07,6.52-3.55,13.21-5.75,19.69a.45.45,0,0,1-.15.22c-1.55,5.09-3.07,10.18-5,15.15-.85,2.17-1.67,4.3-2.33,6.53a26.57,26.57,0,0,1-1,2.85l-.29.65c1.6-7,2.94-14.06,3.84-21.19a145.52,145.52,0,0,0,1.16-23,112.55,112.55,0,0,0-.94-11.45c-.51-3.77-1.26-7.5-2-11.23-.9-4.54-1.89-9.09-3.15-13.55-.54-1.37-1.08-2.73-1.63-4.09a77.89,77.89,0,0,0-6.2-12.43c-1.23-1.93-2.61-3.72-4-5.54-1-1.41-2-2.88-3.09-4.3l-.11-.15c2.71,5.06,5.44,10.13,7,15.68a166.27,166.27,0,0,1,4.77,21.72,169.17,169.17,0,0,1,1.55,22.15A140.67,140.67,0,0,1,169.3,190c-.78,5.27-1.92,10.47-3.17,15.65-.23.07-.46.21-.49.39a32.57,32.57,0,0,1-2.25,6c-.14.33-.27.66-.4,1a.39.39,0,0,0-.17.22c0,.18-.08.38-.12.57-.14.37-.27.75-.37,1.12a11.6,11.6,0,0,0-.31,1.42c0,.27-.23.85,0,1.05s.65,0,.85-.18.21-.19-.06-.07a.85.85,0,0,0,.21-.14,3.75,3.75,0,0,0,.82.54,19.77,19.77,0,0,0,2.72,1,26.3,26.3,0,0,0,12.31,1.23,11.54,11.54,0,0,0,4.19-1.54C185.21,213,187.44,207.76,189.85,202.61Z" transform="translate(-3.22 -3.31)"/><path class="cls-6" d="M150.6,139.7a199.05,199.05,0,0,1,8,24.76,165.71,165.71,0,0,1,4.84,26.14c.6,6.22.77,12.45.8,18.69-.24.14-.46.37-.45.58a37.6,37.6,0,0,1-.86,7.47c-.06.42-.12.83-.17,1.25a.5.5,0,0,0-.13.31c0,.21,0,.44,0,.68,0,.46-.09.92-.1,1.38a13.83,13.83,0,0,0,0,1.7c0,.32,0,1,.34,1.18s.76-.15.93-.45.18-.27-.1-.06a.82.82,0,0,0,.2-.22,4.65,4.65,0,0,0,1.08.39c.28.06.57.09.86.13,5.7-.72,11.4-1.41,17.12-1.88a13.85,13.85,0,0,0,4.09-2.81c.91-6.59,2-13.17,3.27-19.7a294.7,294.7,0,0,1,8-31.37A255.42,255.42,0,0,1,207.94,142a166.9,166.9,0,0,1,12.57-23.66,110.57,110.57,0,0,1,7.3-10.06c-10.54,8.92-18.67,20.28-25.05,32.48a201.18,201.18,0,0,0-16.9,45.39c-1.25,5.1-2.3,10.24-3.2,15.41.24-6.46.27-12.92.37-19.39.08-5.31.23-10.62.17-15.94-.06-4.72-.17-9.44-.39-14.15-.17-3.9-.45-8.38-2.66-11.75-.05.31-.1.63-.14.95-.91,7-.68,14-1.13,21-.51,8-.31,16-1,24a.54.54,0,0,1-.11.29c-.33,6.22-.63,12.44-1.42,18.63-.35,2.7-.69,5.36-.81,8.08a31.75,31.75,0,0,1-.3,3.51c0,.26-.09.54-.15.83-.15-8.41-.61-16.82-1.6-25.18a170.94,170.94,0,0,0-5.16-26.54c-1.23-4.32-2.66-8.58-4.31-12.75S160.49,145,158.6,141c-2.3-4.92-4.71-9.81-7.4-14.54q-1.5-2.1-3-4.19a91.81,91.81,0,0,0-10.55-12.4c-1.94-1.86-4-3.5-6.09-5.2-1.6-1.31-3.12-2.71-4.72-4l-.18-.14c4.52,5,9,10,12.41,15.87A194.21,194.21,0,0,1,150.6,139.7Z" transform="translate(-3.22 -3.31)"/><path class="cls-5" d="M56.34,220.83c.51.61,1,1.24,1.47,1.86,7.83,2.73,16.41,3.38,24.63,3.78,14.84.72,29.64,1.12,44.43.64a86.05,86.05,0,0,1,12.24-26.76c4-5.75,9.13-11.62,15.5-15a56,56,0,0,0-14.91,4.38,57.47,57.47,0,0,0-7.26,3.57c-1.17.7-2.33,1.44-3.43,2.24a15.28,15.28,0,0,1-2.6,1.87c3.53-8.91,10.28-16,15-24.27.29-.51-.3-.65-.69-.52-5.64,1.88-10.59,5.2-15.67,8.21A90.87,90.87,0,0,0,111,191.56c-2.18,1.94-4.38,3.84-6.66,5.65.06-4.66,2.46-9.25,4.3-13.39,2.49-5.59,4.71-11.29,7.19-16.87.27-.62-.47-.69-.88-.44-4.7,2.79-8.49,6.85-12,11-1.76,2.1-3.55,4.23-5.14,6.47a60.74,60.74,0,0,0-4.71,8.36c-1.22,2.49-2.42,5-3.83,7.36-.3-5.48,1.2-10.95,2.65-16.19,1.8-6.53,3.25-13.15,5-19.68.47-1.74,1-3.44,1.6-5.13a12.69,12.69,0,0,0,1.09-4.56c0-.58-.93-.2-1.14,0-11,7.8-16.41,20.59-20.35,33-.69,2.17-1.34,4.35-2,6.54-.27-6.29.22-12.59.09-18.88a100.75,100.75,0,0,1,.19-11.26,44.82,44.82,0,0,1,.87-5.65,31.24,31.24,0,0,0,.84-5.44c0-.74-1.23,0-1.39.24a69.06,69.06,0,0,0-9.3,17.76,64.82,64.82,0,0,0-4.11,20.73,40.82,40.82,0,0,0,.51,7.24C58.8,191.54,52.36,184.8,44,182.76c-.4-.1-1.72.56-1.11,1,8,5.89,17.13,14.37,17.9,24.89-7.73-5-15.59-9.94-24.34-13C29.63,193.29,22.27,191.35,15,191A23,23,0,0,0,4,192.8a1,1,0,0,0-.35.31c1.77.47,3.52,1,5.3,1.37a104.6,104.6,0,0,1,12.74,3,69.23,69.23,0,0,1,20.37,9.9A80.4,80.4,0,0,1,56.34,220.83Z" transform="translate(-3.22 -3.31)"/><path class="cls-4" d="M69.19,192a69.11,69.11,0,0,1,20.37,9.9,79.73,79.73,0,0,1,14.28,13.49,91.1,91.1,0,0,1,8.33,11.93,348.12,348.12,0,0,0,40.15-2c7.27-.83,14.53-1.86,21.8-2.69a86.41,86.41,0,0,1,12.5-27.74c4-5.75,9.12-11.62,15.5-15a56.1,56.1,0,0,0-14.92,4.38,58.14,58.14,0,0,0-7.26,3.57c-1.17.7-2.32,1.44-3.43,2.24a15.21,15.21,0,0,1-2.59,1.87c3.52-8.91,10.27-16,15-24.27.3-.51-.3-.65-.69-.52-5.64,1.88-10.59,5.2-15.67,8.21a90.87,90.87,0,0,0-14.08,10.7c-2.17,1.94-4.37,3.84-6.65,5.65.06-4.66,2.45-9.25,4.29-13.39,2.49-5.59,4.71-11.29,7.19-16.87.28-.62-.47-.69-.88-.44-4.69,2.79-8.48,6.85-12,11-1.76,2.1-3.55,4.23-5.13,6.47a59.78,59.78,0,0,0-4.72,8.36c-1.21,2.49-2.42,5-3.83,7.36-.29-5.48,1.21-11,2.65-16.19,1.8-6.53,3.25-13.15,5-19.68.47-1.74,1-3.44,1.59-5.13a12.69,12.69,0,0,0,1.09-4.56c0-.58-.92-.2-1.14-.05-11,7.8-16.41,20.59-20.35,33-.69,2.17-1.34,4.35-2,6.54-.27-6.29.21-12.59.08-18.88A103.2,103.2,0,0,1,124,158a44.82,44.82,0,0,1,.87-5.65,30.32,30.32,0,0,0,.84-5.44c0-.74-1.23,0-1.39.24a69.06,69.06,0,0,0-9.3,17.76,65.09,65.09,0,0,0-4.11,20.73,40.83,40.83,0,0,0,.52,7.24c-5.1-6.82-11.54-13.56-19.9-15.6-.4-.1-1.72.56-1.11,1,8,5.89,17.13,14.37,17.9,24.89-7.73-5-15.59-9.94-24.34-13-6.81-2.38-14.17-4.33-21.41-4.66a23,23,0,0,0-11,1.79,1.1,1.1,0,0,0-.35.31c1.77.47,3.53,1,5.3,1.37A104.6,104.6,0,0,1,69.19,192Z" transform="translate(-3.22 -3.31)"/><path class="cls-7" d="M103.84,215.37a91.1,91.1,0,0,1,8.33,11.93,348.12,348.12,0,0,0,40.15-2c7.27-.83,14.53-1.86,21.8-2.69a86.41,86.41,0,0,1,12.5-27.74c4-5.75,9.12-11.62,15.5-15a56.1,56.1,0,0,0-14.92,4.38,58.14,58.14,0,0,0-7.26,3.57c-1.17.7-2.32,1.44-3.43,2.24a15.21,15.21,0,0,1-2.59,1.87c2.46-6.23,6.5-11.59,10.33-17.06a103.21,103.21,0,0,0-16.92,14.14,255.77,255.77,0,0,0-20.11,23.86.61.61,0,0,1-1-.17,21.63,21.63,0,0,1-.56-6.85c.54-7.78,4.51-15,4.91-22.79-6.2,8.58-8.77,19.06-12.86,28.7-.26.6-1,.35-1.16-.19-2.36-10.1-.16-20.32.27-30.51-4.69,9.48-5.54,20.29-9.09,30.21a.62.62,0,0,1-1.12,0c-2-7.78-1.51-15.85-2.7-23.73l-.18.6c0-.18,0-.35,0-.52a33.72,33.72,0,0,0-2.5,11.18c-.39,4.68-.27,9.39-.25,14.08a.61.61,0,0,1-1.17.29c-2.2-4.91-4.45-10.07-8.16-14,1.11,2.58,2.2,5.17,3.07,7.84,1.13,3.48,2.1,7.33,1.4,11a.62.62,0,0,1-1.09.26,78.87,78.87,0,0,0-11-9.65,89.31,89.31,0,0,0-22.1-11.53l-.49-.18a59.88,59.88,0,0,1,8.17,5A79.73,79.73,0,0,1,103.84,215.37Z" transform="translate(-3.22 -3.31)"/><path class="cls-5" d="M143.28,210.72c5.6,1.28,10.13,4.47,14.36,8.21a43.11,43.11,0,0,1,5,5.12c8.22-1.05,16.44-2.11,24.71-2.61,4.14-.26,8.31-.43,12.48-.7,2.72-.62,5.43-1.29,8.12-2a56.9,56.9,0,0,1,3.82-6.49,31.11,31.11,0,0,1,6.8-6.8,36.5,36.5,0,0,1,8-4.67,14.53,14.53,0,0,0-4.74-.25,41.8,41.8,0,0,0-6.68,1c-4.41,1.09-8.41,3.28-12.62,4.92a57.94,57.94,0,0,1,8.34-6.71c2.28-1.54,5-2.6,7.13-4.35a36.4,36.4,0,0,0-9.83-.16l-.54.07c-.66.23-1.31.46-2,.7a88,88,0,0,0-13.6,5.78,53,53,0,0,0-5.43,3.58,56.89,56.89,0,0,1,6-7q3.49-5.43,7.06-10.82c-4.24.47-8,3.05-11.35,5.56-1.77,1.34-3.57,2.69-5.2,4.2a35.63,35.63,0,0,0-4.59,5.29c-1.25,1.74-2.39,3.56-3.54,5.37a30.81,30.81,0,0,1,.88-6.47c.54-2.31,1.07-4.65,1.67-6.94.08-.31.17-.61.26-.91.28-2.81.62-5.62,1-8.43a36.73,36.73,0,0,0-4,5.32,31.52,31.52,0,0,0-3.26,6.12c-.93,2.48-1.55,5.05-2.38,7.57a.46.46,0,0,1-.16.24c-.12.59-.25,1.17-.34,1.76a27,27,0,0,0-.29,2.69,11.76,11.76,0,0,1-.21,1.89c-.83-.86-1.55-1.82-2.36-2.71a10.53,10.53,0,0,0-3.59-2.64c-3.14-1.38-6.64-1.43-10-1.5-.36,0-1.13.75-.53.9a20.09,20.09,0,0,1,7.11,3.45,10.27,10.27,0,0,1,3.92,5.21c-3.52-2-6.77-4.49-10.91-5.08a30.47,30.47,0,0,0-11.64.81,25.34,25.34,0,0,0-3.2,1A26.57,26.57,0,0,1,143.28,210.72Z" transform="translate(-3.22 -3.31)"/><path class="cls-6" d="M112.14,227.3c-4.73-52.69-17.59-113.93-17.74-114.65l-2.38.5c.15.71,13,61.67,17.69,114.15Z" transform="translate(-3.22 -3.31)"/><path class="cls-5" d="M110.6,227.3c-7.4-55.61-4.4-155.27-4.37-156.37l-2.42-.08c0,1.1-3,100.5,4.34,156.44Z" transform="translate(-3.22 -3.31)"/><path class="cls-4" d="M120.05,227.26C129.62,177,131.31,99.48,131.33,98.61l-2.43,0c0,.88-1.72,78.74-11.33,128.74C118.4,227.3,119.22,227.27,120.05,227.26Z" transform="translate(-3.22 -3.31)"/><path class="cls-7" d="M109.62,29.56a4.83,4.83,0,0,0-4.82-4.76h-.06A4.84,4.84,0,0,0,100,29.67l.46,42.61a4.83,4.83,0,0,0,9.66-.1ZM103,42.05a.76.76,0,0,1-.09.18,1.19,1.19,0,0,1-.08.16.57.57,0,0,1-.16.15.75.75,0,0,1-.16.15c-.09.07-.31.17-.41.05a1.38,1.38,0,0,1-.3-.79,1.54,1.54,0,0,1,.31-1.33.78.78,0,0,1,.26-.22.82.82,0,0,1,.2-.12c.07,0,.2-.05.26,0A1.66,1.66,0,0,1,103,42.05Zm1.11-5.52c-.38.66-1.24,1.76-2.12,1.16a3.67,3.67,0,0,1-1.1-2.44,19.49,19.49,0,0,1-.09-4.58c.09-1.05.27-2.87,1.34-3.49a1.21,1.21,0,0,1,1.34-.51c1.14.26,1.46,1.38,1.58,2.4C105.31,31.5,105.32,34.34,104.08,36.53Z" transform="translate(-3.22 -3.31)"/><path class="cls-7" d="M98,115.93l-6-42.2a4.85,4.85,0,0,0-4.79-4.14,5.16,5.16,0,0,0-.67,0,4.84,4.84,0,0,0-4.11,5.45l6,42.19A4.83,4.83,0,0,0,98,115.93ZM87.45,81.36c-.29.71-1,1.9-2,1.42a3.66,3.66,0,0,1-1.41-2.27A19.31,19.31,0,0,1,83.41,76c0-1.06-.11-2.88.87-3.63a1.22,1.22,0,0,1,1.27-.69c1.15.12,1.63,1.19,1.87,2.18C88,76.21,88.4,79,87.45,81.36Z" transform="translate(-3.22 -3.31)"/><path class="cls-7" d="M130.72,61.91c-.43.65-1.35,1.69-2.18,1a3.58,3.58,0,0,1-1-2.49,19.52,19.52,0,0,1,.19-4.58c.15-1,.44-2.85,1.54-3.4a1.24,1.24,0,0,1,1.38-.44c1.11.34,1.37,1.48,1.43,2.5C132.25,57,132.09,59.81,130.72,61.91Zm1.36-11.66A4.83,4.83,0,0,0,127,54.82L124.9,97.38a4.84,4.84,0,0,0,9.66.48l2.11-42.56c0-.08,0-.16,0-.24A4.84,4.84,0,0,0,132.08,50.25Z" transform="translate(-3.22 -3.31)"/><path class="cls-5" d="M126.31,227.13c.4-1.48.78-3,1.2-4.45a253.24,253.24,0,0,1,9.07-26.1,220,220,0,0,1,10-21.31A142.12,142.12,0,0,1,159,156.06a96.24,96.24,0,0,1,6.94-8c-9.61,6.82-17.35,15.9-23.67,25.81a171.88,171.88,0,0,0-17.68,37.38c-1.43,4.25-2.7,8.54-3.84,12.87.67-5.47,1.17-11,1.73-16.46.45-4.51,1-9,1.3-13.54.29-4,.55-8.05.71-12.07.13-3.33.22-7.16-1.42-10.18l-.18.79c-1.28,5.86-1.6,11.87-2.49,17.78-1,6.77-1.44,13.61-2.59,20.35a.46.46,0,0,1-.12.24c-.73,5.27-1.44,10.54-2.57,15.74,0,.19-.07.38-.11.57C118.79,227.29,122.55,227.25,126.31,227.13Z" transform="translate(-3.22 -3.31)"/><path class="cls-5" d="M98,169.16a170.5,170.5,0,0,1,5,21.64,141.34,141.34,0,0,1,2.21,22.58c0,4.62-.19,9.24-.52,13.85q4.46.08,8.91.07c.11-3.87.15-7.74,0-11.62a146,146,0,0,0-2.46-22.94c-.73-3.76-1.64-7.49-2.74-11.16s-2.41-7.21-3.72-10.78c-1.61-4.34-3.29-8.68-5.24-12.89q-1.12-1.91-2.26-3.79a76.72,76.72,0,0,0-8.07-11.31c-1.51-1.72-3.15-3.27-4.79-4.86-1.27-1.23-2.46-2.53-3.73-3.76l-.13-.13c3.47,4.58,7,9.15,9.39,14.39A167.77,167.77,0,0,1,98,169.16Z" transform="translate(-3.22 -3.31)"/><path class="cls-6" d="M63.82,145.36a195.31,195.31,0,0,1,15.07,21.29,201.45,201.45,0,0,1,11.79,23.21,167.69,167.69,0,0,1,8.88,25.06c1,4.06,1.9,8.15,2.65,12.26q5.28.12,10.56.12c-.9-4.06-1.87-8.11-3-12.12a168.81,168.81,0,0,0-9.26-25.4,132.68,132.68,0,0,0-6.25-11.93C92,174,89.49,170.32,87,166.64c-3-4.5-6.18-9-9.58-13.21q-1.82-1.85-3.64-3.67A90.59,90.59,0,0,0,61.4,139.15c-2.2-1.53-4.51-2.83-6.82-4.18-1.79-1.05-3.51-2.19-5.3-3.24l-.19-.11C54.33,135.86,59.58,140.09,63.82,145.36Z" transform="translate(-3.22 -3.31)"/><path class="cls-6" d="M110.36,184.55c.74,8,2.2,15.87,2.78,23.87a.58.58,0,0,1-.06.3c.65,6.19,1.33,12.36,1.51,18.59q6.38,0,12.76-.22c0-2.61.07-5.22.17-7.83a294.68,294.68,0,0,1,3-32.22,256.81,256.81,0,0,1,5.41-27,166.32,166.32,0,0,1,8.7-25.32,110.61,110.61,0,0,1,5.63-11.07c-9,10.45-15.26,22.94-19.65,36A200.73,200.73,0,0,0,121,207.05c-.43,5.22-.67,10.47-.74,15.71-.78-6.42-1.77-12.81-2.68-19.2-.75-5.27-1.43-10.54-2.33-15.78-.8-4.65-1.64-9.3-2.59-13.92-.79-3.82-1.77-8.2-4.48-11.19,0,.32,0,.64,0,1C108.38,170.65,109.71,177.57,110.36,184.55Z" transform="translate(-3.22 -3.31)"/><g class="cls-8"><path class="cls-2" d="M59.47,224.42A27.44,27.44,0,0,0,63,226.17a30.7,30.7,0,0,0,4.51,1.43,21.56,21.56,0,0,0,2.26.32c1.83.14,3.66.39,5.49.6,2.67.32,5.36.56,8,.75a153.55,153.55,0,0,0,16.89-.52l-2.49-.19c-1.57-.13-3.2-.25-4.77-.25-1.72,0-3.43-.23-5.15-.25-3.33-.05-6.62-.43-9.94-.67-1.76-.12-3.52-.41-5.27-.62s-3.69-.38-5.52-.77a43.7,43.7,0,0,1-6-1.4l-2.7-.95-.21-.07Q58.81,224,59.47,224.42Z" transform="translate(-3.22 -3.31)"/><path class="cls-2" d="M210,219.88v0l-.09-.18c-.06-.12-.14-.23-.21-.35l0-.07-.11-.12a4.54,4.54,0,0,0-.38-.38l-.19-.15-.15-.1a1.25,1.25,0,0,1,.28.37c.25.56-.19,1.15-.6,1.53a10.61,10.61,0,0,1-4.69,2.06c-3.69.88-7.46,1.45-11.2,2.07-7.54,1.24-15.2,1.77-22.81,2.48-4,.37-8,.36-12,.61a41.29,41.29,0,0,0,6.86.64c1.69.06,3.36.1,5,.12,4.24-.4,8.48-.84,12.72-1.24s8.52-1,12.77-1.7c2-.33,4.06-.7,6.08-1.11a24.25,24.25,0,0,0,5.35-1.47,7.61,7.61,0,0,0,3.49-2.71C210,220.06,210,220,210,219.88Z" transform="translate(-3.22 -3.31)"/><path class="cls-2" d="M131.35,230.44c.68,0,1.36-.06,2-.13,1-.1,2-.08,3-.17.27,0,.54,0,.81,0a15.7,15.7,0,0,0,2.71-1.06.43.43,0,0,0-.59-.45,4.58,4.58,0,0,1-1.43.1,12.56,12.56,0,0,0-1.5.08c-.93.09-1.86.06-2.8.14a32.36,32.36,0,0,1-5.74,0,.55.55,0,0,0-.33.09A10.25,10.25,0,0,0,131.35,230.44Z" transform="translate(-3.22 -3.31)"/></g></g></g></svg>