<svg id="Layer_1" data-name="Layer 1" xmlns="http://www.w3.org/2000/svg" viewBox="0 0 720 480"><defs><style>.cls-1{fill:#cfc3b4;}.cls-2{fill:#0c0d0c;}</style></defs><title>7</title><g id="_3" data-name="3"><path class="cls-1" d="M720,1V481H0V1Z" transform="translate(0 -1)"/><g id="Frog"><path class="cls-2" d="M605.05,357.68a67.75,67.75,0,0,1,5.43,12.18,4.49,4.49,0,0,1-.34,3.95,1.21,1.21,0,0,1-1.61.43c-2.3-1.25-4.13-4.46-5-6.86q-1.56-4.22-3.41-8.27a1.37,1.37,0,0,0-1.34-.86h-.31a.34.34,0,0,0-.34.34.2.2,0,0,0,0,.11A28.06,28.06,0,0,1,599.71,370a4.6,4.6,0,0,1-1.87,2.75.43.43,0,0,1-.72-.11,11.69,11.69,0,0,1-1.57-3.09q-2.12-8.17-4.83-15.84a133.06,133.06,0,0,0-6.7-15.16q-4-7.89-13.55-26.4c-.8-1.55-1.94-4.08-3.4-7.6a.56.56,0,0,0-.68-.37,123.06,123.06,0,0,1-24.93,2.06.82.82,0,0,0-.84.81.8.8,0,0,0,.06.3,208.12,208.12,0,0,0,12.24,26.18c2.1,3.8,7.32,9.51,10.21,15a26.77,26.77,0,0,0,3.4,5.14A129.7,129.7,0,0,0,581.14,368c2.35,2,3.29,4.53,4.74,7a.41.41,0,0,1-.21.66c-4.78,2.26-6-5.4-10.44-7q-.53-.19-.21.27a29.69,29.69,0,0,1,5.08,15.92c.08,2.14-.63,3.74-2.94,3.34a1.18,1.18,0,0,1-.79-.52,25.9,25.9,0,0,1-3.26-6c-1.56-5.21-2.39-8.44-5.26-12a.57.57,0,0,0-.79-.16c-.32.16-.43.36-.33.61a23.82,23.82,0,0,1,1.83,7.07c.17,2.8.31,4.53.43,5.19a2.39,2.39,0,0,1-.32,1.87q-1,1.29-1.53,1.38a2.41,2.41,0,0,1-2.77-2,.88.88,0,0,1,0-.17q-.74-6.27-1.87-12.49a27.36,27.36,0,0,0-2.49-7.47,65.25,65.25,0,0,0-4.55-6.36,34.88,34.88,0,0,1-4.29-7.13,34.88,34.88,0,0,0-5.87-9.56q-8.16-9.51-9.56-11.68c-2.47-3.77-5.64-8.82-9.4-12.85q-1.83-1.94-6-6.75c-3-3.49-4.91-7.1-7.74-11.54-1.35-2.12-5.33-4.4-8.42-6a60.59,60.59,0,0,1-10.75-6.59q-1.87-1.58-7-7.14a66.72,66.72,0,0,1-6.06-7.84c-3.3-4.89-7.48-9.54-10.64-14.81-1.49-2.49-2.2-5.4-3.55-8.05-2.16-4.25-3.27-10.47-4.12-15a6.18,6.18,0,0,0-1.88-3.54,19.69,19.69,0,0,0-4.26-3.2q-7.11-3.23-16-7.4a72.35,72.35,0,0,1-9.58-5.32q-4.86-3.25-9.57-6.46A103.82,103.82,0,0,1,398,184.89q-6.31-7.92-9.47-10.18-5.4-3.87-8.92-6.56a58.6,58.6,0,0,0-7.05-4.12c-2-1.16-6-1-8.81-.46q-8.34,1.63-14.3,2.26a10.17,10.17,0,0,1-4.21-.59.72.72,0,0,1-.54-.74v-2.42a.73.73,0,0,1,.44-.67c1.94-.87,2.61-1.31,4.34-1.36,3.88-.12,8-.22,11.65-1.79,1-.41.92-.67-.12-.77a20.89,20.89,0,0,1-6.55-1.26A68.86,68.86,0,0,1,340.88,149c-1.06-.73-1.21-1.74-.43-3.05a3.83,3.83,0,0,1,.4-.43,2.53,2.53,0,0,1,2.93-.51q4.25,2.1,9,4.67a26.59,26.59,0,0,0,8.25,2.85c1.11.19,1.25-.09.42-.86q-5.32-4.89-8.28-7.63a6.45,6.45,0,0,1-1.49-2.23,2,2,0,0,1,1.05-2.63,2.15,2.15,0,0,1,.8-.16h3.33a.93.93,0,0,1,.71.31q7.31,7.75,9.47,9c2.33,1.33,4.65,2.67,7,4q1.8,1.08,7.32,3.79a33.66,33.66,0,0,1,9.45,7c5.61,5.82,10.45,10.76,17.07,15,5.89,3.74,12.45,9.79,18.59,12.12a95.51,95.51,0,0,0,29.38,6.19.57.57,0,0,0,.6-.53v-.13a3.83,3.83,0,0,0-.2-.85,145.24,145.24,0,0,0-11.26-17.84c-3.53-4.69-13.2-10.34-17.5-13.36-4-2.79-7.59-4.45-11.09-7a22.2,22.2,0,0,1-3.7-3.65,60.12,60.12,0,0,0-11.93-10.94c-2.06-1.42-5.47-4.49-4.88-7.14.87-3.84,5.36-1.88,7.1.14q3.82,4.44,5.93,6.56a.25.25,0,0,0,.35,0,.3.3,0,0,0,.05-.27,44.06,44.06,0,0,0-4-6.27,20.69,20.69,0,0,1-3.65-8.34.66.66,0,0,1,.6-.88q2.74-.5,4.06,1.25a72.45,72.45,0,0,1,7.41,12.46.34.34,0,0,0,.55.08l.27-.29a.24.24,0,0,0,0-.2q-1.47-4.55-3.49-9.75a5.84,5.84,0,0,1-.25-4.26,1.31,1.31,0,0,1,1.53-.92,3.36,3.36,0,0,1,2.58,2.16q3.3,8.32,5.74,15.9a30.42,30.42,0,0,0,3.17,7.38c1.53,2.23,4.64,6.48,7.39,7q16.56,3.28,26.91,11.37c5.73,4.47,13.07,10.52,20.54,16a39.63,39.63,0,0,1,6.94,6.57c1.39,1.67,5.13,3.28,8.21,3.85a73.34,73.34,0,0,1,18.57,6.15q1.5.73,9,4.07a43.82,43.82,0,0,1,23.1,24.1q2.73,7.19,3.74,10.17a1,1,0,0,0,.65.65c4.55,1.51,8.13,3,9.72,7.79a.48.48,0,0,0,.6.31l.15-.08c1.74-1.34,3.83-3.65,6.33-4.42q6.24-1.94,9.76,4.09c1.55,2.64.5,5.06.69,8a1.2,1.2,0,0,1-.34.89,1.7,1.7,0,0,0-.53.83.86.86,0,0,0,.3.86c1.12.92,2.71,1.44,3.87,2.52,2.48,2.31,6.81,5.86,10.19,10,.72.89,2,2.46,3.89,4.71,2.78,3.33,5.61,10,3.58,14.18-1.83,3.8-5.63,1.76-9.12,1.7a.77.77,0,0,0-.76.45,15.31,15.31,0,0,1-2.83,4.29,45.81,45.81,0,0,1-15.69,7.79c-.53.14-.68.46-.44.95q6.63,14.17,14.59,28.86a124.68,124.68,0,0,1,7.71,16.27q4,11.52,6.51,20.59a.73.73,0,0,0,.56.52c.76.14,1.14-.33,1.14-1.4A53.24,53.24,0,0,0,596.94,358c-.32-1.3.18-1.72,1.49-1.26l.62.22a4.32,4.32,0,0,1,2.58,2.51c1.73,4.53,3.34,10.1,6,12.77q2.15,2.13,2.07-.89a5.43,5.43,0,0,0-.56-1.89c-.36-.78-.61-1.38-.77-1.81a50.78,50.78,0,0,0-5.84-11.44q-1.59-2.3,1-1.25a40.36,40.36,0,0,1,8.14,4.79,4.87,4.87,0,0,1,1.37,1.89c.64,1.67,1.11,1.63,1.41-.14a3.24,3.24,0,0,0-.43-2.2,1.47,1.47,0,0,0-.7-.63,31.46,31.46,0,0,1-6.48-3.45,39.28,39.28,0,0,1-11-14.94q-2.19-5.37-4-10.52A187.54,187.54,0,0,1,584,300.55a7.21,7.21,0,0,1,.13-3.15.21.21,0,0,1,.23-.18h.31a.38.38,0,0,1,.38.37v0a19,19,0,0,0,.06,3.33,219.81,219.81,0,0,0,10.42,36.17c1.37,3.62,3.75,6.9,5.57,10.54a32.34,32.34,0,0,0,3.54,4.36,13.64,13.64,0,0,0,4.39,3.12c.54.26,2.25,1.3,5.15,3.13a1.67,1.67,0,0,1,.64.77,12.12,12.12,0,0,1,.65,6.1.42.42,0,0,1-.59.4,1.72,1.72,0,0,1-1.25-1.77,1.58,1.58,0,0,0-.41-.93,23.43,23.43,0,0,0-7.91-5.49C604.9,357.15,604.8,357.26,605.05,357.68Z" transform="translate(0 -1)"/><path class="cls-1" d="M411.69,143.67a18.53,18.53,0,0,0-.88-2.39c-3.7-5.79-6.66-9.51-7.74-13.34a.63.63,0,0,1,.43-.78.65.65,0,0,1,.34,0,3.43,3.43,0,0,1,1.94,1.47,124.8,124.8,0,0,1,7,11.81,1.88,1.88,0,0,0,1.28,1,1.29,1.29,0,0,0,1.32-.26c.35-.37.51-.61.48-.7l-3.73-11.72a4,4,0,0,1-.24-2.15c.08-.36.2-.58.35-.65a.75.75,0,0,1,1.16.42q3.39,7.69,6.56,17.29A26.65,26.65,0,0,0,426.8,155a10.27,10.27,0,0,0,5.18,3.19c3.42.67,6.81,1.11,9.34,2.07a69.37,69.37,0,0,1,19.21,11.06c6.51,5.27,12,9.75,18.06,14a27.89,27.89,0,0,1,6.18,6,13.61,13.61,0,0,0,3.34,2.55,11.48,11.48,0,0,0,4,1.47,83.4,83.4,0,0,1,20.72,6.51c5.56,2.66,10.55,4.55,14.44,7.24a44.8,44.8,0,0,1,13.45,14.21q2.67,4.57,6.51,16.47a.43.43,0,0,1-.33.62q-8.85,2.42-10.26,11.55a1.22,1.22,0,0,0,.39,1.11l.43.38a.2.2,0,0,0,.29,0,.26.26,0,0,0,.06-.13c.31-8.33,8.24-15.33,16.1-10.29,2.28,1.45,3.42,4.08,4.34,6.33a.62.62,0,0,0,.8.35.64.64,0,0,0,.25-.18c3.79-4.43,10.15-8.54,14.76-2.3a5.27,5.27,0,0,1,1.08,3.36c0,.73-.31.83-.82.31-2.82-2.83-5.84-4.57-9.4-2a5.49,5.49,0,0,0,.3,9.21q4.41,2.94,8.55,1a1.08,1.08,0,0,1,1,0,31.37,31.37,0,0,1,3.74,2,85.55,85.55,0,0,1,14.6,15.36,38,38,0,0,1,2.72,5.18c1.64,3.53,1.72,10.57-4.74,8.87-3.37-.89-7-1-10.55-1.56-1.9-.27-4.32-.54-7.28-.81a85.73,85.73,0,0,1-17.34-3q-8.68-2.72-15.15-4.79A13.33,13.33,0,0,1,537.1,278l-10.62-8.54a.19.19,0,0,0-.27,0,.14.14,0,0,0,0,.12v.5a.65.65,0,0,0,.26.55q8,6.49,10.53,8.46a22.94,22.94,0,0,0,6.33,3.13q9.21,3.22,15.89,4.91a110.56,110.56,0,0,0,17,2.43c3.41.28,6.41.81,9.8,1.29a.38.38,0,0,1,.32.43.4.4,0,0,1-.07.18,19.56,19.56,0,0,1-4.38,4.7,42.49,42.49,0,0,1-14.2,6.51,135.6,135.6,0,0,1-20.46,2.43,17.43,17.43,0,0,1-9.76-1.89.35.35,0,0,0-.48.07l-.24.28a.14.14,0,0,0,0,.24l2.65,1.87a.89.89,0,0,1,.4.86,3.21,3.21,0,0,0,.08,1.56q3.18,8.46,9.5,21.21A72.31,72.31,0,0,0,558,342.56c3,3.79,4.76,8.44,8,12s7,7.43,11.61,11.95c1.65,1.62,3.54,2.5,4.72,4.59a28.68,28.68,0,0,0,2.24,3.23c.21.28.15.47-.18.58l-.72.23a.29.29,0,0,1-.33-.1q-4.42-5.13-5.82-6.62a13.5,13.5,0,0,0-2.88-1.91.65.65,0,0,0-.87.14,1.32,1.32,0,0,0-.26,1.76,34.15,34.15,0,0,1,5.7,16.85,1.3,1.3,0,0,1-.92,1.31,1.51,1.51,0,0,1-2-.91A74.7,74.7,0,0,1,572,374.27a20.92,20.92,0,0,0-2.63-4.76,3.24,3.24,0,0,0-3.47-1.7.51.51,0,0,0-.47.62,19,19,0,0,0,.31,2.64,29.37,29.37,0,0,1,1.78,12.5.7.7,0,0,1-.48.63,1.46,1.46,0,0,1-1,0,.86.86,0,0,1-.55-.72q-.87-6.35-2.14-14.19a38.65,38.65,0,0,0-2.14-5.67,25.33,25.33,0,0,0-3.37-5.17,74.36,74.36,0,0,1-7.55-12,40,40,0,0,0-3.74-6.19c-2-2.49-5-5.54-7-8.16q-3.36-4.51-5.67-8.09c-3.86-6-8.05-10.21-13.16-16-3.09-3.5-4.76-7-6.73-10.23-2.29-3.81-8.66-6.9-13.32-8.82q-2.49-1-8.24-6.23A72.22,72.22,0,0,1,482,270.92c-3.38-5-8.65-11.07-11.57-16.71a72.67,72.67,0,0,1-7.66-24.05,1.29,1.29,0,0,0-.38-.75q-4.31-4.18-7-5.37-7.26-3.18-13.12-6.17a12.28,12.28,0,0,0-2.57-.93,11.92,11.92,0,0,1-2.29-.71q-3.42-2.49-14-9.38a104.65,104.65,0,0,1-26.18-24.48,59.1,59.1,0,0,0-10.16-9.93c-5.45-4.33-9.46-7.49-15.26-9.88a10.61,10.61,0,0,0-5.13-.51,130,130,0,0,0-13.92,2.26,20.62,20.62,0,0,1-5.47.33,1.62,1.62,0,0,1-1.53-1.69.83.83,0,0,1,.42-.77,11.86,11.86,0,0,1,5.44-1.07,48,48,0,0,0,9.29-1.2,1.64,1.64,0,0,0,1.24-1.93,2.29,2.29,0,0,0-2.33-1.91,13.2,13.2,0,0,1-5-1,99.77,99.77,0,0,1-13.21-7.34c-.54-.36-.55-.78,0-1.27a1.69,1.69,0,0,1,.37-.18,2.19,2.19,0,0,1,2,.18,54.11,54.11,0,0,0,17.5,7.45,9,9,0,0,0,5.08-.4c.7-.27.68-.44-.06-.53L365,152.8a.92.92,0,0,1-.5-.23l-10.86-9.82a.13.13,0,0,1-.06-.07c-.82-1.89-.16-2.58,2-2.09a5.8,5.8,0,0,1,2.85,1.6c7.15,7.35,15.25,11.76,24.8,16.24a20.66,20.66,0,0,1,3.92,3.09q6.3,5.8,11.62,11a66.76,66.76,0,0,0,9.09,6.82q2.43,1.62,8.25,5.86a46.81,46.81,0,0,0,10.79,6.21,98.79,98.79,0,0,0,26.8,6,15.08,15.08,0,0,0,3.94-.14.36.36,0,0,0,.32-.53,45.87,45.87,0,0,0-4.21-8.59c-3.82-6.33-7.83-12.89-13.49-17q-3.84-2.77-11.77-8.11c-4.7-3.16-11.77-6.29-15.32-11.1-3.77-5.1-8.95-8.46-13.05-11.86a7.43,7.43,0,0,1-2.82-4.15,1.63,1.63,0,0,1,1.28-1.92,1.59,1.59,0,0,1,.75,0,6.68,6.68,0,0,1,3.42,2.4,64,64,0,0,0,6.4,7,4,4,0,0,0,2.16.72C411.67,144.24,411.81,144.08,411.69,143.67Z" transform="translate(0 -1)"/><path class="cls-2" d="M554.37,257.17a6.76,6.76,0,0,1-9.53.57h0a6.76,6.76,0,0,1-1.3-9.47h0a6.75,6.75,0,0,1,9.53-.56h0A6.75,6.75,0,0,1,554.37,257.17Z" transform="translate(0 -1)"/><path class="cls-1" d="M548.45,255a4.53,4.53,0,0,0-.15,2.09.69.69,0,0,1-.61.76.7.7,0,0,1-.29,0c-3.72-1.3-6-5.93-2.62-8.83,2.59-2.22,7-2.69,8.72.8a7.78,7.78,0,0,1,.77,4.83c-.3,1.69-.85,1.86-1.66.49-.34-.55-1.47-.77-3.39-.67A.81.81,0,0,0,548.45,255Z" transform="translate(0 -1)"/><path class="cls-1" d="M567.2,255.94l-.39,1a.48.48,0,0,1-.7.31c-6-2.42-.22-11.75,5.75-7.24a7,7,0,0,1,2.63,6.31,1.5,1.5,0,0,1-.33.87,4.12,4.12,0,0,1-4.7,1.23.38.38,0,0,1-.1-.68l.24-.15a1.1,1.1,0,0,0,.47-.55c.28-.82-.11-1.46-1.19-1.91Q567.71,254.64,567.2,255.94Z" transform="translate(0 -1)"/></g></g></svg>