<svg id="Layer_1" data-name="Layer 1" xmlns="http://www.w3.org/2000/svg" viewBox="0 0 720.34 480"><defs><style>.cls-1{fill:#cfc3b4;}.cls-2{fill:#484846;}</style></defs><title>9</title><g id="_4" data-name="4"><path class="cls-1" d="M719.91,0V480H-.09V0Z" transform="translate(0.09)"/><g id="Frog"><path class="cls-2" d="M693,456.16q3.22,2.34,10.73,9.06a18.94,18.94,0,0,1,3.67,4.12c1.89,3.22,4.71,6.8,6.77,10.66h1.29c-1.38-3.19-4.06-6.64-6-9.64a24.93,24.93,0,0,0-3.18-4.13,127.24,127.24,0,0,0-11.42-10.49,3.33,3.33,0,0,1-1.06-3.88q2.1-4.67,3.86-8.6.83-1.89.78-7.09c0-2.87-1.59-5.71-1.75-8.59-.07-1.13.39-1.41,1.38-.85l.84.49a2.83,2.83,0,0,1,1.43,2.16l.87,7.88c.14,1.3.48,1.35,1,.15q1.85-4.23,4.23-10.66a3.34,3.34,0,0,1,1-1.48,1.06,1.06,0,0,1,1.19-.26.86.86,0,0,1,.5.79,18.43,18.43,0,0,1-3.75,10.9,1.64,1.64,0,0,0,.12,2.15c.11.11.34,0,.7-.23a1.43,1.43,0,0,0,.43-.54,30.45,30.45,0,0,1,4.09-6.84c1.31-1.66.24-4.15-.49-6.36a2.24,2.24,0,0,0-1-1.37c-3.75-1.87-5.93,6.51-6.46,8.84a.46.46,0,0,1-.56.39l-.29,0c-.07,0-.1-.05-.09-.11q.65-6.79-5.7-8a.54.54,0,0,0-.7.44c-1.33,4.85,2.18,9,1.41,13.77A25,25,0,0,1,695,445.7c-1.81,3.61-3.35,6.15-2.65,9.56A1.53,1.53,0,0,0,693,456.16Z" transform="translate(0.09)"/><path class="cls-2" d="M606.5,426.58c-3.6-2.1-5.61-3.77-8.86-3.38q-4,.49-3.31,4.36a.94.94,0,0,0,.56.74c3.38,1.61,4.83,2.74,8.1,2.64,6.1-.18,13.54-.14,18.68,2.4a69.34,69.34,0,0,1,6.06,4c4.1,2.88,5.38,7.87,7.41,13.14,2.5,6.48,4.29,13.78,6.4,19.58a97.42,97.42,0,0,1,2.79,10h1.56a52.54,52.54,0,0,0-1.56-6.53c-1.07-3.24-2.35-6.23-3.39-10.11a146.94,146.94,0,0,0-8.12-22.45,13,13,0,0,0-4-5,35.29,35.29,0,0,0-10.14-5.62,17.69,17.69,0,0,0-6.58-1c-2.84.1-5.09.19-6.73.28a15.66,15.66,0,0,1-9-2.5c-.78-.47-.74-1.1.12-1.88a5.36,5.36,0,0,1,1.23-.37,4.62,4.62,0,0,1,3.22.43c3.09,1.66,6,3.67,8.66,2.52a1.24,1.24,0,0,0,.53-.43,1.25,1.25,0,0,0-.32-1.74,80.5,80.5,0,0,1-10.53-8.8c-1.28-1.25-1.75-3-2.92-4.48a.67.67,0,0,1-.13-.66.47.47,0,0,1,.2-.29.6.6,0,0,1,.8,0l16.27,13.72a1.41,1.41,0,0,0,2.23-1.61,5.74,5.74,0,0,0-.61-1q-5.12-7.14-5.22-7.33a27.44,27.44,0,0,1-2.52-5.87q-.75-2.76,1.54-.94a5.05,5.05,0,0,1,.78,1.34,48.14,48.14,0,0,0,11.61,15.34,10.4,10.4,0,0,0,2.74,2A28.88,28.88,0,0,1,640.7,442c3.37,7,5.45,14.06,8.85,20.74a81.71,81.71,0,0,1,4.55,10.61A43.72,43.72,0,0,0,657,480h1.95c0-.08-.09-.16-.13-.25q-4.32-8.24-14.38-34.16-2.1-5.43-8.93-13.37c-3-3.47-6.35-4.56-11.77-7.45a10.94,10.94,0,0,1-3.18-2.51c-2.58-2.94-6-6.36-7.77-9.89q-1.18-2.36-2.81-5a3,3,0,0,0-2.76-1.57,1.19,1.19,0,0,0-1.29,1.28,11.92,11.92,0,0,0,2,7.47q2.86,4.51,4.85,7.19c.1.13.06.22-.1.26l-.46.11a.74.74,0,0,1-.77-.21,123.73,123.73,0,0,0-10.6-9.56c-1.22-1-3.19-1.68-4.36-3.31a.78.78,0,0,0-1.26,0c-1.14,1.75,0,2-.09,3.59a1.54,1.54,0,0,0,.29,1c1.47,2.13,2.45,4.21,4.61,6q4.28,3.56,6.63,5.4a1.24,1.24,0,0,1,.41.62l.11.45a.41.41,0,0,1,0,.32A.42.42,0,0,1,606.5,426.58Z" transform="translate(0.09)"/><path class="cls-2" d="M720.18,467.5V467c-.34-.33-.65-.64-.91-.92-4-4.27-8.49-7-13.44-9.56-2.11-1.11-5.22-2.77-3.85-5.93,2.32-5.35,6.33-10.16,10.14-15.5a4.37,4.37,0,0,0,.8-3.12.65.65,0,0,0-.48-.54,1,1,0,0,0-.26-.05.45.45,0,0,0-.54.41,9.58,9.58,0,0,1-1.68,4.59c-2.69,3.12-10.55,12.36-9.76,16.49a3.54,3.54,0,0,0,1.38,2,23.2,23.2,0,0,0,2.93,2.16,90.73,90.73,0,0,1,10.85,6.81c.69.54,2.33,2.08,4.89,4.6C720.22,468.14,720.2,467.82,720.18,467.5Z" transform="translate(0.09)"/></g></g></svg>