<svg id="Layer_1" data-name="Layer 1" xmlns="http://www.w3.org/2000/svg" viewBox="0 0 720 480"><defs><style>.cls-1{fill:#cfc3b4;}.cls-2{fill:#202020;}.cls-3{fill:#fff;}.cls-4{fill:none;}</style></defs><title>0A</title><g id="_0A" data-name="0A"><path class="cls-1" d="M720,1V481H0L.1,1Z" transform="translate(0 -1)"/><g id="_Group_" data-name="&lt;Group&gt;"><path class="cls-2" d="M59.58,60.1c.2-.5.4-1,.6-1.6,0,.2.1.4.1.7A5.5,5.5,0,0,0,59.58,60.1Z" transform="translate(0 -1)"/><path class="cls-2" d="M59.47,60.1Z" transform="translate(0 -1)"/><path d="M50.89,59c-.3-.2-.3-.3-.3-.6a1.66,1.66,0,0,1,.91-1.1c.3-.1.1-.1.4-.1a1.37,1.37,0,0,1,.91.2c.2.2.3.2.3.7a1.5,1.5,0,0,1-1.21,1.2A2.37,2.37,0,0,1,50.89,59Z" transform="translate(0 -1)"/><path d="M50.59,58.3c.1.4,0,.4.3.6a1.36,1.36,0,0,0,.91.2A1.64,1.64,0,0,0,53,57.9c0-.5-.1-.4-.3-.7a1.37,1.37,0,0,0-.91-.2c-.3,0-.1,0-.41.1S50.59,57.9,50.59,58.3Zm-.71.1a2.16,2.16,0,0,1,2-2,1.54,1.54,0,0,1,2,1.4,2.16,2.16,0,0,1-2,2C50.79,60,49.88,59.5,49.88,58.4Z" transform="translate(0 -1)"/><path d="M49.07,58.5a3.1,3.1,0,0,1,2.73-2.8,2.06,2.06,0,0,1,2,.5,2,2,0,0,1,.81,1.6,3.1,3.1,0,0,1-2,2.7,2,2,0,0,1-.71.2,2.4,2.4,0,0,1-2-.5A2.27,2.27,0,0,1,49.07,58.5Zm2.83-2.1a2.24,2.24,0,0,0-2,2,1.54,1.54,0,0,0,2,1.4,2.24,2.24,0,0,0,2-2A1.62,1.62,0,0,0,51.9,56.4Z" transform="translate(0 -1)"/><path class="cls-2" d="M61.49,82.6a1,1,0,0,1,0,1.4c0,.1-.1.1-.1.2a.9.9,0,0,0,.1-.5,1.27,1.27,0,0,0-.1-.6h0A.9.9,0,0,0,61.49,82.6Z" transform="translate(0 -1)"/><path class="cls-2" d="M60.48,84.1a.43.43,0,0,0,.11-.5h0a.76.76,0,0,0,.3-.8,1,1,0,0,0-.41-.5c.21.1.31.1.41.2a1.33,1.33,0,0,1,.5.6h0a2.51,2.51,0,0,1-.4.7c-.3.2-.4.4-.71.6C60.38,84.3,60.38,84.2,60.48,84.1Z" transform="translate(0 -1)"/><path class="cls-2" d="M60.59,83.7c-.21,0-.41-.3-.51-.4l-.3-.3c.2.1.3.1.4.2.41.1.51.3.41.5Z" transform="translate(0 -1)"/><path class="cls-2" d="M60.48,82.3a9.57,9.57,0,0,0-1.81-.5H59a4.33,4.33,0,0,1,1.11.2C60.18,82.1,60.38,82.2,60.48,82.3Z" transform="translate(0 -1)"/><path class="cls-2" d="M58.87,82.5c.3,0,.4.1.71.1.1,0,.2.1.3.2-.41-.1-.81-.2-1.31-.3C58.67,82.6,58.77,82.5,58.87,82.5Z" transform="translate(0 -1)"/><path class="cls-2" d="M58.67,81.8a9.57,9.57,0,0,1,1.81.5c.21.2.41.4.41.5.1.3,0,.8-.3.8h0a.88.88,0,0,0-.31-.6.6.6,0,0,1-.4-.1c-.1-.1-.2-.2-.3-.2a.85.85,0,0,0-.71-.1.37.37,0,0,0-.3.1c-.21,0-.51-.1-.71-.1h-.61c.2-.2.41-.3.51-.4a3.46,3.46,0,0,1,.91-.4Z" transform="translate(0 -1)"/><path class="cls-2" d="M59.58,85.5c.2,0,.3-.1.5-.2a3.93,3.93,0,0,0,1.21-1,.22.22,0,0,1-.2.2A2.17,2.17,0,0,1,59.58,85.5Z" transform="translate(0 -1)"/><path class="cls-2" d="M41.39,59.4a6,6,0,0,1-1.61,2.8c.3-1,.5-1.8.71-2.8a5.16,5.16,0,0,1,.2-1.1v-.6a7.77,7.77,0,0,0-.2-1.6c-.31-1-.41-1.7-.71-2.6a4.6,4.6,0,0,1,1.61,2.4,7.29,7.29,0,0,1,.21,1.7v.6A7.6,7.6,0,0,0,41.39,59.4Z" transform="translate(0 -1)"/><path class="cls-2" d="M59.58,85.5Z" transform="translate(0 -1)"/><path class="cls-2" d="M57.86,82.5c.2,0,.4.1.71.1-.11,0-.31.1-.41.1a1.48,1.48,0,0,0-.71.6c-.2.2-.4.5-.7.5a.5.5,0,0,1,0-.8,1.7,1.7,0,0,1,.6-.6C57.45,82.5,57.76,82.5,57.86,82.5Z" transform="translate(0 -1)"/><path class="cls-2" d="M61.29,84.3a3.93,3.93,0,0,1-1.21,1c-.2.1-.3.1-.5.2s-.21.1-.31.1h0c-.5,0-.81-.1-1.31-.1a5.31,5.31,0,0,0,2.42-1.1,4.05,4.05,0,0,0,.71-.6,1,1,0,0,0,.4-.7,1.17,1.17,0,0,1,.11.6c0,.2,0,.4-.11.5S61.39,84.2,61.29,84.3Z" transform="translate(0 -1)"/><path class="cls-3" d="M32.71,55a1.54,1.54,0,0,1,2,1.4,2.16,2.16,0,0,1-2,2,1.54,1.54,0,0,1-2-1.4A2.24,2.24,0,0,1,32.71,55Z" transform="translate(0 -1)"/><path d="M29.78,55c2.93-.9,6-.8,7.37,1.8.61,1.2.41,2-.2,3.4a8.08,8.08,0,0,1-3.84,3.7c-3,1.3-6.36,1.2-7.88-1.6a3.45,3.45,0,0,1,.1-3.4,8.61,8.61,0,0,1,3.84-3.7A1.42,1.42,0,0,0,29.78,55Zm4.85,1.4a1.54,1.54,0,0,0-2-1.4,2.24,2.24,0,0,0-2,2,1.54,1.54,0,0,0,2,1.4A2.08,2.08,0,0,0,34.63,56.4Z" transform="translate(0 -1)"/><path class="cls-2" d="M44.22,74.6a4.35,4.35,0,0,1-.6.7c-.31.1-.71.2-1.11.3C43.11,75.3,43.62,74.9,44.22,74.6Z" transform="translate(0 -1)"/><path class="cls-2" d="M54.93,82.4a17.44,17.44,0,0,0-3.43.3c-.91.1-.51.1-1.32.2a16.66,16.66,0,0,0-2.83.7,11.14,11.14,0,0,1-1.81.2,4.77,4.77,0,0,1-1.72-.4A7.92,7.92,0,0,1,42,81.5c-.3-.5-.5-.8-.61-1a8.17,8.17,0,0,0-1.81-1.9h.1A3.38,3.38,0,0,1,42.1,80c.1.2.41.5.71,1a6.3,6.3,0,0,0,1.61,1.7,4.18,4.18,0,0,0,2.93.1c.91-.3,2-.5,2.83-.7a6.08,6.08,0,0,1,1.42-.2,31.15,31.15,0,0,1,3.53-.3c.61,0,2.22.1,3,.1a1,1,0,0,1,.51.1l-.91.3a1,1,0,0,0-.51.4A20.57,20.57,0,0,0,54.93,82.4Z" transform="translate(0 -1)"/><path class="cls-2" d="M39.68,78.6Z" transform="translate(0 -1)"/><path class="cls-2" d="M53.11,84.5a13.62,13.62,0,0,1,2,0c.81,0,2.22.3,3,.4a4.52,4.52,0,0,0,1.72-.2,1.69,1.69,0,0,1,.5-.2c-.7.7-1.51.7-2.42,1.1.5,0,.81.1,1.31.1a5.37,5.37,0,0,1-1.31.1c-.81,0-2.22-.3-3-.4H53.11a18,18,0,0,0-2.12.3,17.62,17.62,0,0,0-3,1.1,10,10,0,0,0-1.21.7,13.64,13.64,0,0,0-1.82,1.3c.2-.3.4-.5.61-.8a6.53,6.53,0,0,0-.91.6,6.87,6.87,0,0,1,1.71-1.7c.21-.1.71-.4,1.32-.7A20.94,20.94,0,0,1,51,85,7.31,7.31,0,0,1,53.11,84.5Z" transform="translate(0 -1)"/><path class="cls-2" d="M54,101.2Z" transform="translate(0 -1)"/><path class="cls-2" d="M44.83,88.6a7.18,7.18,0,0,1-.91.6,5.58,5.58,0,0,1,.5-.8l.91-.6C45.13,88.2,44.93,88.4,44.83,88.6Z" transform="translate(0 -1)"/><path d="M37.15,56.8c-1.41-2.6-4.44-2.7-7.37-1.8a.81.81,0,0,0-.51.2A8.55,8.55,0,0,0,25.33,59c-.6,1.4-.7,2.3-.1,3.4,1.52,2.8,4.85,2.8,7.88,1.6A7.25,7.25,0,0,0,37,60.3C37.56,58.9,37.76,58,37.15,56.8ZM29,54.6c3.23-1.5,7.37-1.3,8.79,1.9s-1.11,6.5-4.45,8.1-7.37,1.3-8.78-1.9S25.74,56.2,29,54.6Z" transform="translate(0 -1)"/><path d="M28.77,54c3.84-1.6,8-1.3,9.9,2.2.81,1.5.5,2.8-.2,4.6a10.07,10.07,0,0,1-4.75,4.6l-.61.3c-3.84,1.2-7.47.9-9.29-2.5-.81-1.5-.61-2.8.2-4.5A8.72,8.72,0,0,1,28.77,54Zm9,2.5c-1.42-3.2-5.56-3.4-8.79-1.9s-5.86,4.9-4.44,8.1,5.55,3.4,8.78,1.9S39.17,59.7,37.76,56.5Z" transform="translate(0 -1)"/><path class="cls-2" d="M50,72.5a15.25,15.25,0,0,1-2.52,1.3,24.11,24.11,0,0,1-2.63,1.1c-.3.1-.71.3-1.11.4.2-.2.4-.5.6-.7-.6.4-1.11.7-1.61,1a26.29,26.29,0,0,1-3.54.9c-1.82.4-4.64.8-6.36,1-.81.1-1.62.2-1.92.2a16.89,16.89,0,0,1-3.23-.1A27.75,27.75,0,0,1,31,76.9c.41,0,1.11-.1,1.92-.2,1.72-.2,4.44-.6,6.26-1a56.16,56.16,0,0,0,5.66-1.6,16.46,16.46,0,0,0,2.52-1,20.35,20.35,0,0,0,2.43-1.3,33.2,33.2,0,0,0,4.64-3.5,21.61,21.61,0,0,0,3.84-4.8,10.85,10.85,0,0,1,.61-1.1,2.57,2.57,0,0,1,.2-.5,1.85,1.85,0,0,0,.2-.7c.1-.4.31-.8.41-1.2h0l.6-.9a5.83,5.83,0,0,1-.3,2.2,4.88,4.88,0,0,0-.3.7,3.27,3.27,0,0,0-.21.5c-.1.3-.4.7-.6,1.2a25.22,25.22,0,0,1-4,5.1A30.22,30.22,0,0,1,50,72.5Z" transform="translate(0 -1)"/><path class="cls-2" d="M33.52,51.9a22.88,22.88,0,0,0-5.16.7,26.88,26.88,0,0,0-3,1c-.8.3-.4.2-1.11.5s-1.51.8-2.22,1.2a26.39,26.39,0,0,0-4.44,3.5c-.61.6-.51.6-.91,1a8.63,8.63,0,0,0-.91,1.2,2,2,0,0,0-.4,1.3,2.14,2.14,0,0,1-.21-1.4,5.82,5.82,0,0,1,.81-1.5,10.19,10.19,0,0,1,1-1.1,24.89,24.89,0,0,1,4.65-3.7A19.5,19.5,0,0,1,24,53.3a7.41,7.41,0,0,1,1.21-.5,29.36,29.36,0,0,1,3.13-1,32.94,32.94,0,0,1,5.36-.7c.81,0,1.61.1,2,.1a7.18,7.18,0,0,1,3,.9c-1.21,0-1.92-.1-3.23-.2Z" transform="translate(0 -1)"/><path class="cls-2" d="M39.07,94.5a7,7,0,0,0,.3,1.4,3.74,3.74,0,0,1,.11,1.1c-.11-.1-.31-.1-.41-.2.1-.2.1-.4.2-.6a.78.78,0,0,1-.4.4,1.38,1.38,0,0,1-.3-.4,6.94,6.94,0,0,1-.41-1.6,5.28,5.28,0,0,1-.1-1.2,5,5,0,0,0-.2-1.2,4.7,4.7,0,0,0-.51-1.3,1.93,1.93,0,0,1-.3-1c.51.1.81.1,1.11.5a3.81,3.81,0,0,1,.61,1.5c.1.5.1.8.2,1.3A5.28,5.28,0,0,0,39.07,94.5Z" transform="translate(0 -1)"/><path class="cls-2" d="M39.07,96.8c-.1,0-.1-.1-.2-.1.1-.1.2-.3.4-.4A1.69,1.69,0,0,0,39.07,96.8Z" transform="translate(0 -1)"/><path class="cls-2" d="M31.5,88.7h.3c-.1,0-.3.1-.4.1Z" transform="translate(0 -1)"/><path class="cls-2" d="M28,83.9c.1.1.3.3.2.4a.1.1,0,0,1-.1.1c-.4.1-.71.2-1,.3v-.1l.3-.6A.64.64,0,0,1,28,83.9Z" transform="translate(0 -1)"/><path class="cls-2" d="M42,100.7a2.45,2.45,0,0,0,.51-1.5,1.56,1.56,0,0,0-.11-.7c-.1-.3-.1-.3-.3-.8s-.5-1.2-.71-1.8a10.27,10.27,0,0,1-.1-2.5A11.37,11.37,0,0,1,42,91.2a4.19,4.19,0,0,1,.71-1.2,9.11,9.11,0,0,1,1.71-1.7,5.58,5.58,0,0,0-.5.8,4.75,4.75,0,0,1,.91-.6c-.41.5-.81,1.1-1.31,1.8a7.65,7.65,0,0,0-.61,1.1,9.46,9.46,0,0,0-.61,2,5.45,5.45,0,0,0,.1,2.2A16.67,16.67,0,0,1,43,97.4a4.71,4.71,0,0,1,.3.9,2,2,0,0,1,.1.8,4.67,4.67,0,0,1-.6,1.9,3.25,3.25,0,0,1-1.21.9,4.25,4.25,0,0,1-1.52.2,3.17,3.17,0,0,1-2-1.2,2.47,2.47,0,0,1-.3-1.8A4.16,4.16,0,0,1,39,96.7c.1,0,.1.1.2.1-.2.7-.4,1.3-.6,2.2a3.64,3.64,0,0,0,.2,1.4,2.3,2.3,0,0,0,1.51.9A2,2,0,0,0,42,100.7Z" transform="translate(0 -1)"/><path class="cls-2" d="M28.06,84.4a1.85,1.85,0,0,0-.2.7v.8a.52.52,0,0,1-.2.4h-.1c-.21.1-.51,0-.51-.2a1.27,1.27,0,0,1-.1-.6V85a.6.6,0,0,1,.1-.4C27.35,84.7,27.66,84.5,28.06,84.4Z" transform="translate(0 -1)"/><path class="cls-2" d="M27,84c.91-.3,3.13-1,4.24-1.5a12.66,12.66,0,0,0,1.72-.8,5.93,5.93,0,0,0,.81-.4c.6-.3,1.82-.9,2.73-1.4a42.48,42.48,0,0,0,3.83-2.5c.61-.5.91-.7,1.11-.9l1.22-.9c.4-.1.7-.2,1.11-.3A9.24,9.24,0,0,1,42,77c-.2.1-.5.4-1.21.9a5.5,5.5,0,0,1-1,.7h-.1a.1.1,0,0,1,.1.1c-1,.7-2.32,1.5-2.93,1.9-.91.5-2.12,1.2-2.73,1.5a6.8,6.8,0,0,0-.81.4c-.5.3-1.21.5-1.71.8a21.08,21.08,0,0,1-3.34,1.2c0-.1,0-.1.1-.1a.29.29,0,0,0-.2-.4c-.1-.1-.5,0-.6.2l-.31.6v.1h0c-.91.3-1.71.5-2,.6a13.29,13.29,0,0,1-3.33.3,30.6,30.6,0,0,1,3.23-1.1A7.31,7.31,0,0,1,27,84Z" transform="translate(0 -1)"/><path class="cls-2" d="M24.63,88.7c.81-.6,2.12-1.5,2.83-2a.52.52,0,0,1,.4-.2,2.92,2.92,0,0,1,1-.3c-.4.5-.2.6-.91,1.1s-2,1.4-2.83,2S23,90.8,22.3,91.2c-.2.1-.3.2-.4.2s-.5-.1-.71-.1c.1-.3.21-.4.71-.7S23.82,89.3,24.63,88.7Z" transform="translate(0 -1)"/><path class="cls-2" d="M35.33,93.8c-.3.6-.9,1.9-1.41,2.9s-1.41,2.8-2,4.1a5.58,5.58,0,0,0-.61,2.1,1.87,1.87,0,0,0,.71,1.6,2.86,2.86,0,0,0,2,.2,11.64,11.64,0,0,0,2.22-.6c1.11-.3,3.24-1.1,3.94-1.3.41-.2.91-.3,1.32-.5h0c1-.4,1.81-.7,2.52-1,.91-.4.4-.1,1.21-.5s1.62-.7,2.63-1.3,2.22-1.4,3.53-2.3a13.35,13.35,0,0,1,4.55-2.5,3.74,3.74,0,0,1,2.73.3A2.79,2.79,0,0,1,60,96.9a4,4,0,0,1-.4,2.4,4.46,4.46,0,0,1-1.92,1.7,6.48,6.48,0,0,1-2.12.5,3.76,3.76,0,0,1-1.72-.3h0a3.06,3.06,0,0,1-1-1,5.1,5.1,0,0,0,1.31.5,7.28,7.28,0,0,0,1.52.1,3.57,3.57,0,0,0,1.71-.4,3.18,3.18,0,0,0,1.52-1.3,2.59,2.59,0,0,0,.3-1.9,2.08,2.08,0,0,0-1.11-1.5,3,3,0,0,0-2.12-.2,13.72,13.72,0,0,0-4.14,2.3c-.2.1-.3.2-.51.3-1.11.8-2.22,1.5-3.13,2.1-1.11.6-1.92,1-2.73,1.4a7.05,7.05,0,0,1-1.21.5c-1,.4-2.32,1-3.84,1.5-.8.3-2.82,1-4,1.3a14,14,0,0,1-2.42.6,4.69,4.69,0,0,1-2.63-.3,2.35,2.35,0,0,1-1-2.2,10,10,0,0,1,.71-2.4c.61-1.3,1.52-3.1,2-4.1s1.11-2.3,1.42-2.9a19.27,19.27,0,0,1,1.81-2.8A8.42,8.42,0,0,1,35.33,93.8Z" transform="translate(0 -1)"/><path class="cls-2" d="M38,109.4c.61-.5,1.21-.9,1.92-1.4a69.29,69.29,0,0,1,7.88-4.6c.6-.3,1.31-.6,1.72-.8a3.29,3.29,0,0,1,.6-.3,3.67,3.67,0,0,1,.71-.3,18.43,18.43,0,0,1,3.13-.9h0A16.19,16.19,0,0,1,51,102.6a4.59,4.59,0,0,1-.71.3,2,2,0,0,1-.6.2c-.41.2-1,.5-1.72.8a87,87,0,0,0-7.78,4.5A12.22,12.22,0,0,0,37,111.1a1.1,1.1,0,0,0-.2,1.3c.1.5.4.7.81,1a10.91,10.91,0,0,0,1.81,1.1,3.2,3.2,0,0,0,.81.4,6.8,6.8,0,0,0,.81.4,12,12,0,0,0,2.12.8,11.5,11.5,0,0,0,3.34.3,20.64,20.64,0,0,1,4.34-.1,4.25,4.25,0,0,1,2.12.8,2.36,2.36,0,0,1,1.21,1.7,2.44,2.44,0,0,1-.71,2.2,4.16,4.16,0,0,1-2,1.2,3.82,3.82,0,0,1-2.12,0,2.57,2.57,0,0,1-1.31-.9,3,3,0,0,1-.5-1.3l.9.9a4.62,4.62,0,0,0,1.22.6,2.93,2.93,0,0,0,1.61,0,4.7,4.7,0,0,0,1.52-.9,1.49,1.49,0,0,0,.4-1.5,3,3,0,0,0-2.73-1.9,19,19,0,0,0-4.14.1,9.81,9.81,0,0,1-3.53-.4,9.13,9.13,0,0,1-2.22-.9,6.56,6.56,0,0,0-.81-.4,7.91,7.91,0,0,1-.81-.5,14.11,14.11,0,0,1-1.82-1.2,3.07,3.07,0,0,1-1-1.2,2.23,2.23,0,0,1,.3-1.9C36.75,110.4,37.35,109.9,38,109.4Z" transform="translate(0 -1)"/><path class="cls-2" d="M21.09,91.4a1.75,1.75,0,0,1,.71.1c-.3.2-.51.1-1,.3C21,91.6,21.09,91.5,21.09,91.4Z" transform="translate(0 -1)"/><path class="cls-4" d="M25,89.3c.81-.6,2.12-1.5,2.83-2s.5-.5.91-1.1c-.51.2-.61.1-1,.3l-.1-.2c.1-.1.3-.3.2-.4s-.1-.6,0-.8a1.85,1.85,0,0,1,.2-.7c1-.3,2.43-.9,3.34-1.2a9,9,0,0,0,1.71-.8,6.12,6.12,0,0,1,.81-.4c.71-.3,1.82-1,2.73-1.5.6-.4,1.92-1.2,2.93-1.9a6.63,6.63,0,0,1,1.81,1.9,9.14,9.14,0,0,1,.61,1,6.27,6.27,0,0,0,1.82,1.9,3.34,3.34,0,0,0,1.72.4,11.14,11.14,0,0,0,1.81-.2c.91-.2,2-.5,2.83-.7a5.23,5.23,0,0,1,1.32-.2c.9-.1,2.22-.2,3.43-.3a20.57,20.57,0,0,1,2.32.1l-.6.6c-.21.3-.21.8,0,.8s.5-.3.7-.5a4.12,4.12,0,0,1,.71-.6.76.76,0,0,1,.4-.1l1.32.3.3.3a.66.66,0,0,0,.51.4,4,4,0,0,1-.11.5c-.1.1-.1.2-.2.2a.76.76,0,0,1-.5.2,3.28,3.28,0,0,1-1.72.2c-.71,0-2.22-.3-3-.4H53a21,21,0,0,0-2.22.4A31.81,31.81,0,0,0,47.46,86c-.61.3-1.12.6-1.32.7a5.58,5.58,0,0,0-1.72,1.7,6.83,6.83,0,0,0-1.71,1.7c-.1.2-.41.7-.71,1.2a9.48,9.48,0,0,0-.71,2.2,7,7,0,0,0,.1,2.5,12.25,12.25,0,0,0,.71,1.8c.2.5.2.5.3.8a1.36,1.36,0,0,1,.11.7,2.45,2.45,0,0,1-.51,1.5,2.22,2.22,0,0,1-1.72.7,2.58,2.58,0,0,1-1.51-.9,1.81,1.81,0,0,1-.2-1.4,7.09,7.09,0,0,1,.6-2.2c.1.1.2.1.41.2a2.08,2.08,0,0,0-.1-1.1,6.4,6.4,0,0,1-.31-1.4c0-.4-.1-.8-.1-1.2a6.88,6.88,0,0,0-.2-1.3,3.81,3.81,0,0,0-.61-1.5c-.3-.4-.6-.4-1.11-.5h0a3.15,3.15,0,0,0,.51-1,1.7,1.7,0,0,0,0-1c-.2-.3-.2-.5-.71-.8a3.19,3.19,0,0,0-2.22-.4,5.72,5.72,0,0,0-2.22,1.1,6,6,0,0,0-.81.9,6.67,6.67,0,0,0-3,.5,7.09,7.09,0,0,0-1.92,1,16.56,16.56,0,0,0-2.53,2.2,9.16,9.16,0,0,0-.91,1c-.2.3-.2.2-.4.4a2.18,2.18,0,0,1-.5.4,4.62,4.62,0,0,1-1.22.6A1.7,1.7,0,0,1,20,94.8c-.3-.2-.3-.6-.3-.9a1.7,1.7,0,0,1,.6-.8,5,5,0,0,1,2.83-.9l-.91-.3c.1-.1.21-.1.41-.2A6.14,6.14,0,0,1,25,89.3Z" transform="translate(0 -1)"/><path class="cls-2" d="M27,90.8a20.48,20.48,0,0,0-2.42,2l-1,1a2.51,2.51,0,0,1-.51.4,3.81,3.81,0,0,1-.6.5,6.28,6.28,0,0,1-1.62.8,2.08,2.08,0,0,1-1.11,0,2,2,0,0,1-.91-.5,1.42,1.42,0,0,1-.4-1.5,2.37,2.37,0,0,1,.9-1.2h0A3.52,3.52,0,0,1,21,91.6c-.1.1-.1.2-.2.3.5-.2.61-.1,1-.3a8.83,8.83,0,0,0,.91.3,4.34,4.34,0,0,0-2.83.9,3,3,0,0,0-.61.8.84.84,0,0,0,.31.9,1.7,1.7,0,0,0,1.21.3A4.56,4.56,0,0,0,22,94.2a2.51,2.51,0,0,0,.51-.4l.4-.4a9.92,9.92,0,0,0,.91-1,17,17,0,0,1,2.52-2.2,12.48,12.48,0,0,1,1.92-1,7.12,7.12,0,0,1,3-.5c0,.1-.1.1-.1.2h0a23.5,23.5,0,0,0-2.72,1C28.26,90,27.56,90.4,27,90.8Z" transform="translate(0 -1)"/><path class="cls-2" d="M6.55,72.5a15.25,15.25,0,0,0-.61,2c-.1.5-.1.7-.2,1.2v1.4a13.32,13.32,0,0,0,.5,1.9,3,3,0,0,0,.61.9l.91.9A3.12,3.12,0,0,0,9,81.3,2.9,2.9,0,0,1,6,80.4a4.37,4.37,0,0,1-.6-1,6.23,6.23,0,0,1-.61-2.1,7.5,7.5,0,0,1,0-1.5A6.88,6.88,0,0,1,5,74.5a17.31,17.31,0,0,1,.71-2.1,7,7,0,0,1,1-1.7,6.84,6.84,0,0,1,2.63-2.2,27.44,27.44,0,0,0-1.92,2.6A4.06,4.06,0,0,0,6.55,72.5Z" transform="translate(0 -1)"/><path class="cls-2" d="M17.86,105.5a16.34,16.34,0,0,0,6.77-3.6,23.36,23.36,0,0,0,1.71-1.8,4.92,4.92,0,0,0,.61-.8,21.05,21.05,0,0,0,1.62-2.8,24.41,24.41,0,0,0,1.11-3,22.57,22.57,0,0,1,1.21-3.8,7.6,7.6,0,0,1,.51-.8h0c.1,0,.3-.1.4-.1h-.3a7.27,7.27,0,0,1,.8-.9,5.19,5.19,0,0,1,2.23-1.1,3.21,3.21,0,0,1,2.22.4c.5.3.5.5.71.8a1.16,1.16,0,0,1,0,1A3.36,3.36,0,0,1,37,90a4.64,4.64,0,0,1-.71.8h0a3.71,3.71,0,0,1-1.61.9A9.22,9.22,0,0,1,33,92a21.36,21.36,0,0,0,2.73-1.8c.2-.2.81-.8.81-1.3s0-.9-.41-1.2a1.79,1.79,0,0,0-1.61-.3,4.51,4.51,0,0,0-2.93,2.5,18.37,18.37,0,0,0-1.21,3.6,25.11,25.11,0,0,1-1.22,3.1,14.79,14.79,0,0,1-1.71,2.9,6.2,6.2,0,0,1-.71.9,10.44,10.44,0,0,1-1.82,1.9,16.86,16.86,0,0,1-7.27,3.8,11.62,11.62,0,0,1-4.55.1,8.07,8.07,0,0,1-3.43-1.8,8.45,8.45,0,0,1-1-1.2,3.21,3.21,0,0,1-.3-.5,4.07,4.07,0,0,0-.31-.6,4.13,4.13,0,0,1,.2-2.9,12.88,12.88,0,0,0,.61,2.6,2.07,2.07,0,0,0,.2.6,1.42,1.42,0,0,0,.2.4,4.65,4.65,0,0,0,.91,1.1,7.13,7.13,0,0,0,3.14,1.6A11.49,11.49,0,0,0,17.86,105.5Z" transform="translate(0 -1)"/><path class="cls-2" d="M8.26,98.2a22.12,22.12,0,0,1,4.55-4c.71-.5,1.41-1.2,1.92-1.6s.4-.4.81-.7a8.29,8.29,0,0,0,.91-.9,19.61,19.61,0,0,0,1.81-2.1,35.39,35.39,0,0,0,3.34-5,12,12,0,0,0,.6-1.2c.61-1.2.91-1.8,1.52-2.8a8.75,8.75,0,0,1-.81,3,10.85,10.85,0,0,1-.61,1.2c-.2.4-.5.9-.8,1.4a26.93,26.93,0,0,1-2.63,3.7c-.2.3-.5.6-.71.9A16.55,16.55,0,0,1,17,91.4a3.46,3.46,0,0,1-.81.9l-.8.8c-.51.4-1.32,1.1-1.92,1.6S11.6,96,10.89,96.6A11.84,11.84,0,0,0,9,98.6a2.09,2.09,0,0,0-.4.6,3,3,0,0,0-.41,1,3.4,3.4,0,0,0-.2,1.4,5.85,5.85,0,0,0,.2,1.3,2.46,2.46,0,0,1-.8-2.8A7.5,7.5,0,0,1,8.26,98.2Z" transform="translate(0 -1)"/><path class="cls-2" d="M2.81,83.9a3.87,3.87,0,0,0-.61.6c-.2.1-.3.3-.4.4l-.1.1-.2.2a1,1,0,0,1-.31.4c-.1.2-.3.4-.5.8s-.43.74-.69,1.19v2.1c.18-.47.37-.93.59-1.39s.71-1.1.91-1.5a2.1,2.1,0,0,1,.5-.7l.31-.3c.1-.1.1-.1.2-.1l.1-.1c0-.1.2-.3.3-.4a5.57,5.57,0,0,0,.51-.8c.8-.7,1.51-1.4,2.42-2.1A7.41,7.41,0,0,0,2.81,83.9Z" transform="translate(0 -1)"/><path class="cls-2" d="M45.54,119.8c-.41,0-1.32-.1-1.82-.1h-.41c-.2-.1-.3,0-.5-.1a6.58,6.58,0,0,0-.91-.2c-.4-.1-1.21-.2-1.82-.4-1.21-.3-2.52-.7-3.84-1a27.38,27.38,0,0,0-4.14-.9,31.46,31.46,0,0,0-4.34-.1c-2.73.1-5.86.4-8.28.4s-4.75-.4-6.67-.5a29,29,0,0,1-4.34-1.2,18.51,18.51,0,0,0-1.82-.7,58.36,58.36,0,0,1-5.56-2.4c-.19-.1-.61-.28-1.09-.5v.66l.79.34a58.36,58.36,0,0,0,5.56,2.4,9,9,0,0,0,1.91.7,27,27,0,0,0,4.45,1.3,33,33,0,0,0,6.77.8c2.42,0,5.65-.3,8.28-.4A20,20,0,0,1,32,118a27.52,27.52,0,0,1,3.94.8c1.31.3,2.63.7,3.84,1,.71.1,1.41.3,1.92.4a5.66,5.66,0,0,0,1,.2,1.34,1.34,0,0,0,.5.1h.41a12.94,12.94,0,0,0,1.92.1,10.46,10.46,0,0,0,2-.4,11.27,11.27,0,0,0,1.21-.5C47.56,119.7,46.75,119.8,45.54,119.8Z" transform="translate(0 -1)"/><path class="cls-2" d="M61.9,53.9a5.31,5.31,0,0,0-1.11-2.1,10.57,10.57,0,0,0-4-2.5c-1.52-.6-3-.9-4.45-1.5a6.24,6.24,0,0,1-1.71-1.1,2.15,2.15,0,0,1-.71-1.6c-.1-.6.1-1.3,0-2a4.54,4.54,0,0,0-.61-2,5.45,5.45,0,0,0-3.43-2,11.52,11.52,0,0,0-4.14,0,51.31,51.31,0,0,0-7,2.3,19,19,0,0,1-5.15,1.2,32.91,32.91,0,0,1-3.34-.1,8.9,8.9,0,0,1-1.41-.1c-1.52-.1-1.82-.1-4.75-.3S12.61,41.6,8,41.6c-2.21,0-5,0-8,0v.67c2.87,0,5.58-.07,7.66-.16,4.54.1,9.09.3,12,.5s3.23.2,4.75.3.2,0,1.41.1a33.89,33.89,0,0,0,3.43.1,21.37,21.37,0,0,0,5.46-1.3,41,41,0,0,1,6.77-2.2,9.37,9.37,0,0,1,3.73,0,4.52,4.52,0,0,1,3,1.8c.71,1.1.41,2.5.51,3.8a3.61,3.61,0,0,0,.91,2,8.11,8.11,0,0,0,2,1.2c1.41.6,3,.9,4.44,1.5a7.6,7.6,0,0,1,3.74,2.3,3.78,3.78,0,0,1,.71,4,17.35,17.35,0,0,1-2.83,4.4,34,34,0,0,1-8,7.6A28.87,28.87,0,0,1,39.27,72c-3.63.8-7.27,1.2-10.8,1.7-1.72.3-3.44.4-5.16.6-.9.1-1.71.1-2.52.2s-1.62.1-2.22.2-1.52.1-1.92.1a2.34,2.34,0,0,1-.71.1h-.3c0-.1,0-.1-.1-.2a1.44,1.44,0,0,0-.2-.3c-.11-.1-.41-.6-.51-.6s.1.7.1.8.1.3.1.4,0,.1.1.2-.1.3.1.4h1.52a13.77,13.77,0,0,0,1.92-.1c.71-.1,1.51-.1,2.32-.2a23.38,23.38,0,0,0,2.53-.2c1.81-.2,3.43-.3,5.25-.6,3.53-.5,7.07-1,10.81-1.7a31.14,31.14,0,0,0,10.91-3.9A34.55,34.55,0,0,0,58.77,61c.3-.3.5-.7.81-1,.2-.6.4-1.1.6-1.6a2,2,0,0,1,.1.7,21.58,21.58,0,0,0,1.42-2.6A4.7,4.7,0,0,0,61.9,53.9Z" transform="translate(0 -1)"/><path class="cls-4" d="M15.64,74.6c.1.1.2.2.2.3a.31.31,0,0,1,.1.2h.3A1.35,1.35,0,0,1,17,75a3.35,3.35,0,0,0,1.82-.4c.61-.1,1.41-.1,2.22-.2a23.38,23.38,0,0,0,2.53-.2c1.71-.2,3.33-.4,5.15-.6,3.63-.5,7.17-1,10.81-1.7s7.27-1.7,10.5-3.8a31.88,31.88,0,0,0,8-7.6,15,15,0,0,0,2.83-4.4,3.63,3.63,0,0,0-.71-4,9.39,9.39,0,0,0-3.74-2.3c-1.41-.5-3-.9-4.44-1.5a6.64,6.64,0,0,1-2-1.2,2.64,2.64,0,0,1-.91-2c-.1-1.4.2-2.7-.5-3.8a4.57,4.57,0,0,0-3-1.8,9.37,9.37,0,0,0-3.73,0,41,41,0,0,0-6.77,2.2A20.48,20.48,0,0,1,29.48,43c-1.52.1-2.33-.1-3.44-.1a8.9,8.9,0,0,1-1.41-.1c-1.52,0-1.82-.1-4.75-.3s-7.37-.4-12-.5C5.7,42,2.92,42,0,42v45.8c.26-.45.53-.88.69-1.19a2.77,2.77,0,0,1,.5-.8,3.17,3.17,0,0,0,.31-.4c.2-.1.1-.1.2-.2l.1-.1,1-1a7.41,7.41,0,0,1,3-1.6c-.81.7-1.62,1.3-2.42,2.1a3.19,3.19,0,0,0-.51.6c-.1.1-.2.3-.3.4s-.1,0-.1.1-.1,0-.1.3l-.31.3a2.1,2.1,0,0,0-.5.7,9.86,9.86,0,0,0-.91,1.5A17.67,17.67,0,0,0,0,90.13v7.23l.59-.46c-.22.39-.4.71-.59,1V111.8c.56.26,1.12.49,1.4.6A58.28,58.28,0,0,0,7,114.8a8.6,8.6,0,0,0,1.82.7c1.31.4,2.52.8,4.34,1.2a32.07,32.07,0,0,0,6.67.8c2.42,0,5.66-.3,8.28-.4a21.1,21.1,0,0,1,4.35.1c1.41.2,2.82.6,4.14.9s2.62.7,3.83,1c.61.1,1.32.3,1.82.4s.61.1.91.2a1.38,1.38,0,0,0,.51.1H44a12.46,12.46,0,0,0,1.82.1c1.21,0,2.12-.1,3.23-.1a6.2,6.2,0,0,1-1.21.5v.1a1.94,1.94,0,0,0,.91.9,4.56,4.56,0,0,0,1.21.6,2.26,2.26,0,0,0,1.62,0,2.93,2.93,0,0,0,1.51-.9,1.61,1.61,0,0,0,.41-1.5,3.17,3.17,0,0,0-2.73-1.9,19,19,0,0,0-4.14.1,12.73,12.73,0,0,1-3.54-.4,9.8,9.8,0,0,1-2.22-.9,6.12,6.12,0,0,1-.81-.4,5.21,5.21,0,0,0-.81-.5c-.4-.3-1.21-.7-1.81-1.2a3,3,0,0,1-1-1.2,2.17,2.17,0,0,1,.3-1.9,8.14,8.14,0,0,1,1.61-1.6c.71-.5,1.32-1,1.92-1.4a71.07,71.07,0,0,1,7.88-4.6c.61-.3,1.32-.6,1.72-.8a3,3,0,0,1,.61-.3c.2-.1.5-.2.7-.3a12.31,12.31,0,0,1,3.13-.9,3.31,3.31,0,0,1-1-1L51.8,98.2a24.46,24.46,0,0,1-3.13,2.1c-1.11.6-1.92,1-2.73,1.4a7.41,7.41,0,0,1-1.21.5,25.72,25.72,0,0,1-3.84,1.5c-.81.2-2.83.9-4,1.3-.61.1-1.62.5-2.42.6a4.69,4.69,0,0,1-2.63-.3,2.68,2.68,0,0,1-1-2.2,9.13,9.13,0,0,1,.71-2.4c.6-1.3,1.51-3,2-4.1s1.11-2.3,1.41-2.9a15,15,0,0,1,1.82-2.8l-.1-.1a3.74,3.74,0,0,1-1.62.9,9.11,9.11,0,0,1-1.61.3c1-.7,1.71-1,2.72-1.8A3.23,3.23,0,0,0,37,88.9a1.09,1.09,0,0,0-.4-1.2,2.18,2.18,0,0,0-1.62-.3A4.85,4.85,0,0,0,32,89.9a19.06,19.06,0,0,0-1.21,3.6,25.23,25.23,0,0,1-1.21,3.1,22.19,22.19,0,0,1-1.72,2.9c-.61.7-.1.3-.71.9a14.44,14.44,0,0,1-1.82,1.9,16.81,16.81,0,0,1-7.27,3.8,11.61,11.61,0,0,1-4.54.1,8.05,8.05,0,0,1-3.44-1.8,3.59,3.59,0,0,1-1-1.2c-.3-.3-.2-.3-.3-.5s-.3-.4-.3-.6a4.06,4.06,0,0,1,.2-2.9h-.1a7.08,7.08,0,0,0-.41,1,6.88,6.88,0,0,0-.2,1.3,5.07,5.07,0,0,0,.2,1.3c-.8-.9-1.21-1.4-.8-2.8a7.12,7.12,0,0,1,.9-1.7,25.54,25.54,0,0,1,4.55-4c.71-.5,1.41-1.2,1.92-1.6a6.49,6.49,0,0,0,.81-.7l.91-.9c.4-.5,1.21-1.4,1.81-2.1a35.39,35.39,0,0,0,3.34-5c.4-.7.5-1,1.11-1a18.46,18.46,0,0,1,1.51-2.8,11.14,11.14,0,0,1-.8,3,9.65,9.65,0,0,0-.61,1.2c-.2.4-.51.9-.81,1.4h.1a24.39,24.39,0,0,1,3.23-1.1c.31-.1,1-.2,1.92-.5s3.14-1,4.25-1.5a13.13,13.13,0,0,1,1.71-.8,5.41,5.41,0,0,0,.81-.4c.71-.3,1.82-.9,2.73-1.4a42.72,42.72,0,0,0,3.84-2.5,10.58,10.58,0,0,1,1.11-.9c.5-.4.81-.6,1.21-.9-1.11.3-2.42.7-3.54.9-1.81.4-4.64.8-6.36,1-.81.1-1.51.2-1.92.2a17.18,17.18,0,0,1-3.23-.1,16.32,16.32,0,0,1,3.33-.7c.31,0,1.11-.1,1.92-.2,1.72-.2,4.45-.6,6.26-1A55.42,55.42,0,0,0,45,74.3a16.22,16.22,0,0,0,2.53-1A20.34,20.34,0,0,0,50,72a41.23,41.23,0,0,0,4.65-3.5,22.16,22.16,0,0,0,3.83-4.8,3.88,3.88,0,0,0,.61-1.1,2.57,2.57,0,0,1,.2-.5,2.54,2.54,0,0,0,.2-.7c.11-.4.31-.8.41-1.2-.3.3-.51.7-.81,1a34.36,34.36,0,0,1-8.28,7.9A31,31,0,0,1,39.88,73c-3.64.7-7.17,1.2-10.81,1.7-1.82.3-3.53.4-5.25.6-.91.1-1.72.1-2.53.2s-1.61.1-2.32.2-1.41.1-1.92.1H15.54c-.1-.1,0-.3-.1-.4s-.1-.1-.1-.2a.56.56,0,0,1-.11-.4c-.1-.2-.2-.8-.1-.8S15.54,74.5,15.64,74.6Zm36.16-19a2.68,2.68,0,0,1,2,.5,1.72,1.72,0,0,1,.81,1.6,3.27,3.27,0,0,1-2,2.7.91.91,0,0,1-.71.1,2.79,2.79,0,0,1-2-.5,1.93,1.93,0,0,1-.81-1.6A3.19,3.19,0,0,1,51.8,55.6Zm-11.31.5a21.41,21.41,0,0,0-.71-2.6,4.43,4.43,0,0,1,1.61,2.4,8.07,8.07,0,0,1,.21,1.7v.6a4,4,0,0,1-.21,1.2,6,6,0,0,1-1.61,2.8c.3-1,.5-1.8.71-2.8a3.59,3.59,0,0,0,.2-1.1v-.6A7.77,7.77,0,0,0,40.49,56.1Zm-33,14.8a6.74,6.74,0,0,0-.81,1.5,15.25,15.25,0,0,0-.61,2,5,5,0,0,0-.2,1.2,3.3,3.3,0,0,0,0,1.4,5.68,5.68,0,0,0,.51,1.9,2.84,2.84,0,0,0,.6.9l.91.9a3.39,3.39,0,0,0,1.21.5,2.9,2.9,0,0,1-2.93-.9c-.1-.2-.4-.6-.7-1.1a7,7,0,0,1-.61-2.1V75.6c.1-.5.1-.7.2-1.3a17.31,17.31,0,0,1,.71-2.1,19.12,19.12,0,0,1,1-1.7,9,9,0,0,1,2.63-2.2C8.67,69.2,8.16,69.9,7.46,70.9Zm30.9-10.3c-.7,1.8-2.82,3.6-4.74,4.6l-.61.3c-3.84,1.1-7.57.8-9.29-2.5-.71-1.5-.61-2.7.2-4.5a9.24,9.24,0,0,1,4.75-4.6c3.94-1.5,8-1.3,9.9,2.2C39.37,57.6,39.07,58.9,38.36,60.6Zm-23.23.3a3.71,3.71,0,0,1,.81-1.5c.41-.5.41-.4,1-1.1a27.6,27.6,0,0,1,4.65-3.7A19.5,19.5,0,0,1,24,53.3c.71-.3.41-.2,1.21-.5a23.13,23.13,0,0,1,3.14-1,32.68,32.68,0,0,1,5.35-.7c.91,0,1.72.1,2,.1a7.18,7.18,0,0,1,3,.9c-1.21-.1-1.92-.1-3.23-.2a10,10,0,0,0-1.92-.1,30.34,30.34,0,0,0-5.15.7,18.72,18.72,0,0,0-3.14,1.1c-.8.3-.4.2-1.11.5s-1.51.8-2.22,1.2a26.39,26.39,0,0,0-4.44,3.5c-.51.6-.51.5-.91,1a5.13,5.13,0,0,0-.91,1.2,2.2,2.2,0,0,0-.4,1.3A1.38,1.38,0,0,1,15.13,60.9Z" transform="translate(0 -1)"/></g></g></svg>