<svg id="Layer_1" data-name="Layer 1" xmlns="http://www.w3.org/2000/svg" viewBox="0 0 720 480"><defs><style>.cls-1{fill:#cfc3b4;}.cls-2{fill:#202020;}.cls-3{fill:#3c3c3c;}.cls-4{fill:none;}.cls-5{fill:#fff;}</style></defs><title>0B</title><g id="_0B" data-name="0B"><path class="cls-1" d="M720,1V481H0L.1,1Z" transform="translate(0 -1)"/><g id="_Group_" data-name="&lt;Group&gt;"><path class="cls-2" d="M103.9,97.1c-.2.2-.3.4-.6.5s-.6.2-1,.3c.1-.1.3-.1.4-.2a1.38,1.38,0,0,0,.3-.4h0a.54.54,0,0,0,.5-.7,1.85,1.85,0,0,0-.2-.7l.3.3A1.1,1.1,0,0,1,103.9,97.1Z" transform="translate(0 -1)"/><path class="cls-3" d="M17.3,95.3a31.06,31.06,0,0,1,3.2.4c-.3,0-.6.1-.8.1h0A17,17,0,0,1,17.3,95.3Z" transform="translate(0 -1)"/><path class="cls-2" d="M98.4,93.5c-1.1-.5-2.3-1-3.2-1.3a10.26,10.26,0,0,0-1.4-.4c-.8-.2-1.8-.4-2.8-.6a10.93,10.93,0,0,1-1.7-.5,4.07,4.07,0,0,1-1.4-1.2,7.35,7.35,0,0,1-.9-2.6c-.1-.6-.2-1.1-.2-1.3a17.08,17.08,0,0,0-.9-2.7H86a4.43,4.43,0,0,1,1.7,2.6c.1.2.1.7.3,1.3a5.29,5.29,0,0,0,.8,2.3,4.41,4.41,0,0,0,2.6,1.4c.9.2,2,.4,2.8.6a11.31,11.31,0,0,1,1.5.4c.9.3,2.1.8,3.3,1.3.6.3,1.9,1,2.7,1.5.2.1.3.2.5.3a3.08,3.08,0,0,0-1-.1,1.27,1.27,0,0,0-.6.1C99.7,94.2,98.8,93.7,98.4,93.5Z" transform="translate(0 -1)"/><path class="cls-3" d="M36.4,95.5a14.7,14.7,0,0,0,1-1.3h.1c.5-.2,1-.5,1.4-.7-.1.1-.2.2-.2.3-.3.4-.5.7-.8,1.1l-.1.1A5.78,5.78,0,0,1,36.4,95.5Z" transform="translate(0 -1)"/><path class="cls-2" d="M97.2,96.3a13,13,0,0,0-1.7-.8,15.19,15.19,0,0,0-2-.6,10.34,10.34,0,0,0-3-.2,3.47,3.47,0,0,0-1.3.2c-.8.2-1.4.4-2.1.6a2.18,2.18,0,0,1,.8-.5c-.4.1-.7.2-1,.3a5.67,5.67,0,0,1,2.2-1.1,4.39,4.39,0,0,1,1.5-.2,19.27,19.27,0,0,1,3.3.3,14.13,14.13,0,0,1,2.2.6,15.11,15.11,0,0,1,1.8.9c.7.4,1.8,1.3,2.5,1.6a3,3,0,0,0,1.7.5h.5a7,7,0,0,1-2.5,0c.5.2.7.5,1.2.7a11.22,11.22,0,0,1-1.3-.5A22.72,22.72,0,0,1,97.2,96.3Z" transform="translate(0 -1)"/><path class="cls-2" d="M71.4,86.2c0-.2.1-.5.1-.7s.1-.3.2-.5.1-.3.2-.4h1c-.1.2-.3.4-.4.6l-.3.9a.78.78,0,0,1-.4.4h-.1C71.6,86.6,71.4,86.5,71.4,86.2Z" transform="translate(0 -1)"/><path class="cls-2" d="M102.6,96.3a4.81,4.81,0,0,0-1.1-.9.37.37,0,0,1,.3.1,2.09,2.09,0,0,1,.6.4C102.5,96,102.5,96.1,102.6,96.3Z" transform="translate(0 -1)"/><path class="cls-2" d="M72,84.6a2.18,2.18,0,0,1,.4-.5c.2-.1.5-.2.6,0s.2.3,0,.5l-.1.1a2.22,2.22,0,0,1-.9-.1Z" transform="translate(0 -1)"/><path class="cls-2" d="M96.4,62.6a.37.37,0,0,0,.1-.3,6.52,6.52,0,0,0,.5-1.5c.2-1.1.4-1.9.5-3A5.08,5.08,0,0,1,98,61a7,7,0,0,1-.6,1.7,1.44,1.44,0,0,1-.2.3.77.77,0,0,0-.2.3,8.65,8.65,0,0,1-.7,1,7.22,7.22,0,0,1-2.9,2c.7-.8,1.3-1.6,2-2.5.1-.1.5-.8.7-.9Z" transform="translate(0 -1)"/><path class="cls-2" d="M103,97.3c-.3-.1-.2-.4-.3-.6s-.1-.2-.1-.4l.3.3A.62.62,0,0,1,103,97.3Z" transform="translate(0 -1)"/><path d="M86.9,54.5h-.6a9.07,9.07,0,0,0-5.4,2.2c-1.2,1.2-1.9,1.9-1.6,3.5.6,3.6,3.8,4.7,7.1,4.8a9.06,9.06,0,0,0,5.4-1.9c1.2-1.1,1.9-1.8,1.8-3.3C93.1,56.1,90,55,86.9,54.5Zm-8.4,5.7c0-4.1,4.1-6.2,7.8-6.3s8,1.7,7.8,5.8-4.2,5.8-7.8,6S78.5,64.3,78.5,60.2Z" transform="translate(0 -1)"/><path class="cls-2" d="M104.2,96.6c0,.6,0,1-.5,1.4h-.1a.52.52,0,0,0,.2-.4c0-.2.1-.4.1-.6A1.38,1.38,0,0,0,104.2,96.6Z" transform="translate(0 -1)"/><path class="cls-2" d="M85.8,82.8h0C85.9,82.9,85.8,82.9,85.8,82.8Z" transform="translate(0 -1)"/><path class="cls-2" d="M113.6,73.6c-.1.2-.2.5-.3.7a9.29,9.29,0,0,1-1,.5A15.38,15.38,0,0,0,113.6,73.6Z" transform="translate(0 -1)"/><path class="cls-3" d="M17.2,95.4H17a17.22,17.22,0,0,1-2-.1c-1.9-.1-5.2-.4-7.2-.7s-2.7-.4-4.7-.8c-.92-.18-1.94-.39-3-.62v.94l2.78.58c2,.4,2.8.5,4.8.8s5.3.6,7.3.7a17.22,17.22,0,0,0,2,.1,9,9,0,0,0,2.5-.3Z" transform="translate(0 -1)"/><path d="M108.4,69.5a1.7,1.7,0,0,0-1-2.4,2,2,0,0,0-2.6.9,1.7,1.7,0,0,0,1,2.4A1.94,1.94,0,0,0,108.4,69.5Zm-.7-3.1a2.25,2.25,0,0,1,1.5,1.5,2,2,0,0,1-.1,2,3.13,3.13,0,0,1-3,1.5,1.85,1.85,0,0,1-.7-.2,2.48,2.48,0,0,1-1.5-1.5,2.34,2.34,0,0,1,.1-2A3,3,0,0,1,107.7,66.4Z" transform="translate(0 -1)"/><path class="cls-2" d="M68.7,81.5a11.27,11.27,0,0,1-1,1.2,6.79,6.79,0,0,1-1.2,1.2,36.6,36.6,0,0,1-3.7,3.3c-.3.2-.6.5-.9.7-.5.4-1.1.8-1.5,1.1-.6.4-.7.5-1.2.8s-.5.3-1.1.7-1.5.9-2.3,1.3-2,1-2.9,1.5A14.65,14.65,0,0,0,50.5,95l-.6.6c-.3.3-.4.6-.7.9a8.43,8.43,0,0,0-.6,1.4,3.33,3.33,0,0,0-.1,1.4c-.5-1.3-.7-1.7,0-3.2a5.81,5.81,0,0,1,1.4-1.8A24.37,24.37,0,0,1,55.3,91c.8-.4,1.7-.9,2.3-1.2a4.37,4.37,0,0,0,1-.6c.5-.3.6-.4,1.2-.8s1.6-1.2,2.3-1.8a50.53,50.53,0,0,0,4.7-4.4c.6-.6.8-1,1-1.1a31.28,31.28,0,0,1,2.5-2.6A8.79,8.79,0,0,1,68.7,81.5Z" transform="translate(0 -1)"/><path class="cls-2" d="M52.9,72.4A9.86,9.86,0,0,1,53,70a5.49,5.49,0,0,1,.5-1.7,9.38,9.38,0,0,1,.6-1.5,16.44,16.44,0,0,1,1.4-2.2A12,12,0,0,1,57,63a10.61,10.61,0,0,1,3.5-1.8c-1,.8-1.8,1.4-2.9,2.4a6.85,6.85,0,0,0-1.4,1.5,13.73,13.73,0,0,0-1.3,2,8.43,8.43,0,0,0-.6,1.4,7.49,7.49,0,0,0-.4,1.6,8.13,8.13,0,0,0-.1,2.2,5,5,0,0,0,.3,1.3,5.39,5.39,0,0,0,.7,1.3,2.84,2.84,0,0,0,1,.9,2.76,2.76,0,0,1-2.6-1.9Q53.05,73.3,52.9,72.4Z" transform="translate(0 -1)"/><path class="cls-2" d="M103.8,97.7a.52.52,0,0,1-.2.4,2.52,2.52,0,0,1-1.7.6,2.77,2.77,0,0,1-.9-.1c-.5-.2-.7-.5-1.2-.7a7,7,0,0,0,2.5,0c.4,0,.6-.2,1-.3a1,1,0,0,0,.6-.5C103.9,97.3,103.8,97.5,103.8,97.7Z" transform="translate(0 -1)"/><path class="cls-2" d="M103.7,79.8a20,20,0,0,0,5.6-2.5c.4-.3.8-.5,1-.7s.3-.2.4-.4.4-.4.5-.5a9,9,0,0,1,1-.9c.3-.2.7-.3,1-.5a6.25,6.25,0,0,1-1.3,2l-.5.5a2.18,2.18,0,0,1-.5.4c-.3.2-.7.5-1.1.8a25.85,25.85,0,0,1-5.9,2.6,35,35,0,0,1-6,.9c-1.6.1-1.8.1-3,.1a16.71,16.71,0,0,1-3-.2c-.3,0-.7-.1-1.1-.1.3-.1.6-.3.9-.4-.7.1-1.3.2-1.9.3-1.2-.2-2.6-.4-3.7-.6-1.8-.4-4.5-1-6.2-1.5-.8-.2-1.5-.4-1.9-.5a22.22,22.22,0,0,1-3.1-1.3,14.77,14.77,0,0,1,3.5.5c.4.1,1.1.3,1.9.5,1.7.5,4.3,1.1,6.2,1.5a43.2,43.2,0,0,0,5.7.8c1.5.2,1.7.1,2.9.2s1.4,0,2.9-.1A44.44,44.44,0,0,0,103.7,79.8Z" transform="translate(0 -1)"/><path class="cls-2" d="M73,86.9c-.6.4-.5.6-1.3.9s-2.2.9-3.2,1.2-2.4.9-3.2,1.2a3.93,3.93,0,0,1-.6.2h0a1.42,1.42,0,0,0-.6-.2,2.85,2.85,0,0,1,1-.7c.8-.3,2.2-.9,3.2-1.2s2.4-.9,3.2-1.2c.2-.1.4-.1.5-.2A3.33,3.33,0,0,1,73,86.9Z" transform="translate(0 -1)"/><path d="M86.3,53c4.4.2,8.3,1.9,8.9,6.6.2,2-.9,3-2.3,4.4s-4.4,2.2-6.6,2.4h-.7c-4-.7-7.4-1.9-8-6.3-.3-2,.6-3.1,2.1-4.6A9.76,9.76,0,0,1,86.3,53Zm0,.9c-3.7.1-7.8,2.2-7.8,6.3s4.2,5.6,7.8,5.5,7.7-1.9,7.8-6S89.9,53.8,86.3,53.9Z" transform="translate(0 -1)"/><path class="cls-2" d="M89.9,81.1c.6-.1,1.2-.2,1.9-.3a3.55,3.55,0,0,1-.9.4C90.6,81.2,90.2,81.1,89.9,81.1Z" transform="translate(0 -1)"/><path class="cls-4" d="M4.1,91.7c-1.09-.33-2.52-.78-4-1.25V93c1.08.24,2.12.46,3.08.65,2,.4,2.7.5,4.7.8s5.3.6,7.2.7a17.22,17.22,0,0,0,2,.1h.2a3.55,3.55,0,0,1-1-.2C12.1,94,8.6,93,4.1,91.7Z" transform="translate(0 -1)"/><path class="cls-4" d="M64.7,70.9c.1.1.2.1.4.1a2.25,2.25,0,0,1,.7.1c.4.1,1.2.2,1.9.4s1.5.3,2.3.5,1.6.3,2.5.5c1.7.4,3.4.8,5.2,1.2,3.7.7,7.2,1.8,10.9,2.6a42.68,42.68,0,0,0,11.3,1.4,30.47,30.47,0,0,0,10.8-3,14.58,14.58,0,0,0,4.5-2.7,4.16,4.16,0,0,0,1.3-4.2,8.7,8.7,0,0,0-2.1-4.3c-1-1.3-2.2-2.5-3.2-3.9a7.76,7.76,0,0,1-1.2-2.2,4.84,4.84,0,0,1,.1-2.4c.5-1.4,1.3-2.6,1.2-4a5,5,0,0,0-2-3.3,9.4,9.4,0,0,0-3.5-2,43.14,43.14,0,0,0-7.7-1.4,33.92,33.92,0,0,1-6.4-1.4,35.24,35.24,0,0,1-3.8-1.7c-1.3-.5-.1-.1-1.8-.8s-2.1-1-5.3-2.3-8.2-3.2-13.2-4.7-13.1-3.7-19.3-5.1a61.78,61.78,0,0,0-11-1.7,45.62,45.62,0,0,0-11.5,1.3c-3.7,1-7.6,2.3-11.3,3.7S6.8,34.5,3.3,36c-1.08.45-2.13.93-3.18,1.4V89.47L4.3,90.8c4.5,1.3,7.9,2.4,12.1,3.4a59.8,59.8,0,0,0,12.2,2.1,28.3,28.3,0,0,0,8.7-2.1,3,3,0,0,1,.5-.7c.8-1.3,1.5-2.6,2.2-4a66.87,66.87,0,0,1,4.4-7.9c.5-.7,1.1-1.3,1.4-1.7l.8-.8.4-.4.2-.2c0-.1,0,0,.1-.1a2.18,2.18,0,0,1,.5-.4c.2-.1.5-.4.7-.5A8.59,8.59,0,0,1,52,76.3a32.07,32.07,0,0,0-3.1,1.9c-.1.1-.5.4-.6.5l-.4.4-.1.1-.2.2c-.1.2-.2.2-.4.4s-.4.4-.7.8a11.22,11.22,0,0,0-1.3,1.6A53.5,53.5,0,0,0,40.9,90a34.71,34.71,0,0,1-2.1,3.7c.2-.1.3-.1.4-.2,1.2-.7,2-1.1,3.1-1.8a13.52,13.52,0,0,1-2.8,2.5c-.4.2-1.1.6-1.8.9-.7.9-1.5,1.7-2.1,2.5a7.52,7.52,0,0,0-1.8,3.4,4.27,4.27,0,0,0,1,2.9,15.21,15.21,0,0,0,2.2,2.2c.7.6,1.8,1.5,2.2,1.8,1.5,1.3,3.4,2.7,4.6,3.6s.7.5,1.8,1.3a29,29,0,0,0,3.8,2.3,41.87,41.87,0,0,0,5.9,2.5c2.2.7,5.2,1.3,7.7,1.9a19.31,19.31,0,0,1,4,1.5,25.64,25.64,0,0,1,3.5,2.2c1.1.8,2.1,1.6,3.2,2.3a11.16,11.16,0,0,1,1.6,1,3.6,3.6,0,0,1,.9.5c.2.1.3.1.4.2s.1.1.2.1a.31.31,0,0,0,.2.1c.4.2,1.3.6,1.6.7,1.2.4,2,.6,3.1,1H80.4v.2a7.46,7.46,0,0,0,.7,1.2,9.43,9.43,0,0,0,1,1,2.53,2.53,0,0,0,1.5.6,3.29,3.29,0,0,0,1.7-.4c.5-.4.9-.7.9-1.4a3.24,3.24,0,0,0-2-2.9,18.16,18.16,0,0,0-3.9-1.4,10.15,10.15,0,0,1-3.3-1.6,6.81,6.81,0,0,1-1.7-1.7,4.37,4.37,0,0,1-.7-.8c-.3-.4-.2-.3-.6-.8a15.63,15.63,0,0,1-1.4-1.9,3.82,3.82,0,0,1-.6-1.6,2.5,2.5,0,0,1,.8-1.9,8.62,8.62,0,0,1,1.9-1.1,18,18,0,0,1,2.1-.8,60.36,60.36,0,0,1,8.4-2,16.24,16.24,0,0,1,1.8-.2h1.5a11.94,11.94,0,0,1,3.3.3,4.58,4.58,0,0,1-.7-1.4l-.8-2.7a28.52,28.52,0,0,1-3.5.8c-1.2.2-2,.3-2.9.4a5.9,5.9,0,0,1-1.4.2c-1.1.1-2.4.1-4,.1h-4a10.57,10.57,0,0,1-2.4-.2,3.47,3.47,0,0,1-2.3-1.2,3.06,3.06,0,0,1-.4-2.6,8.58,8.58,0,0,1,1.3-2.3c.9-1.1,2.2-2.7,3-3.6s1.7-2,2.2-2.6a14.52,14.52,0,0,1,2.6-2.4v-.1a3.92,3.92,0,0,1-1.8.4,8.75,8.75,0,0,1-1.6-.2,16.81,16.81,0,0,0,3.2-.9,2.81,2.81,0,0,0,1.2-1,1.2,1.2,0,0,0,0-1.4,1.77,1.77,0,0,0-1.4-.9,4.07,4.07,0,0,0-3.5,1.5,22.46,22.46,0,0,0-2.2,3.5c-.6,1-1.6,2.3-2,2.9a19.63,19.63,0,0,1-2.4,2.5c-.7.6-.3.2-1,.8a10.45,10.45,0,0,1-2.2,1.6,18.46,18.46,0,0,1-7.8,2.1,11.86,11.86,0,0,1-4.2-1.1,7.8,7.8,0,0,1-2.8-2.6,5.85,5.85,0,0,1-.6-1.5c-.1-.4,0-.4-.1-.6a1.7,1.7,0,0,1-.1-.7,5.71,5.71,0,0,1,1-3.1l-.1-.1a5.5,5.5,0,0,0-.7.9,8.43,8.43,0,0,0-.6,1.4,6.6,6.6,0,0,0-.1,1.4c-.5-1.3-.7-1.7,0-3.2a6.28,6.28,0,0,1,1.4-1.8,32.44,32.44,0,0,1,5.4-3.3,16.1,16.1,0,0,0,2.3-1.2,8.79,8.79,0,0,0,1-.6c.5-.3.6-.4,1.2-.8s1.6-1.2,2.3-1.8c1.4-1.2,3.6-3.2,4.7-4.4.6-.6.8-.9,1-1.1a20.62,20.62,0,0,1,2.5-2.6,25.86,25.86,0,0,1-1.9,3.1,5.8,5.8,0,0,1-1,1.2l-1.2,1.2.1.1c1.3-.1,2-.1,3.5-.1h2.1c1,0,3.2,0,4.4-.1.6-.1,1.4-.1,1.9-.2a4.14,4.14,0,0,0,1-.1c.7-.1,2-.3,3-.5s3.6-.8,4.4-1a12.68,12.68,0,0,0,1.5-.4,12.44,12.44,0,0,1,1.6-.4c-1.2-.2-2.6-.4-3.7-.6-1.8-.4-4.5-1-6.2-1.5-.8-.2-1.5-.4-1.9-.5A14.43,14.43,0,0,1,75,77.3a14.77,14.77,0,0,1,3.5.5c.4.1,1.1.3,1.9.5,1.7.5,4.4,1.1,6.2,1.5s4.2.7,5.7.8a15.68,15.68,0,0,0,2.9.2c1.2,0,1.4,0,2.9-.1a24.48,24.48,0,0,0,5.8-.8,23.4,23.4,0,0,0,5.6-2.5,8.65,8.65,0,0,0,1-.7c.2-.2.2-.3.4-.4l.5-.5a9,9,0,0,0,1-.9l-1.2.6a36,36,0,0,1-11.1,3.1c-3.9.3-7.9-.6-11.7-1.4s-7.2-1.9-10.9-2.7c-1.8-.4-3.5-.8-5.2-1.2-.9-.2-1.8-.3-2.6-.5s-1.6-.3-2.3-.5-1.4-.3-1.9-.4a4.54,4.54,0,0,1-.8-.2c-.3-.1-.6-.1-.8-.2s.1-.3,0-.4,0-.2,0-.3.1-.3.1-.5,0-.8.2-.8.2.7.3.8a.6.6,0,0,1,.1.4v.2C64.7,70.9,64.6,70.8,64.7,70.9Zm39.5-3.4a2.85,2.85,0,0,1,3.6-1.2,2.48,2.48,0,0,1,1.5,1.5,2,2,0,0,1-.1,2,2.75,2.75,0,0,1-2.9,1.4,1.85,1.85,0,0,1-.7-.2,2.76,2.76,0,0,1-1.5-1.5A2,2,0,0,1,104.2,67.5Zm-18.1-.9h-.7c-3.9-.7-7.4-1.9-8-6.3-.3-2,.6-3.1,2.1-4.6a10,10,0,0,1,6.7-2.6c4.4.2,8.3,1.9,8.9,6.6.3,2-.8,3-2.4,4.5S88.3,66.4,86.1,66.6Zm11.6-8.7a5.36,5.36,0,0,1,.4,3.1,17.72,17.72,0,0,1-.6,1.7c-.1.1-.1.2-.2.3a.77.77,0,0,0-.2.3c-.1.2-.6.8-.7,1a8,8,0,0,1-2.9,2,25.51,25.51,0,0,1,2.3-2.4,3.11,3.11,0,0,0,.7-.9c0-.2.1-.2.1-.3a1,1,0,0,1,.1-.3,8.8,8.8,0,0,0,.5-1.5C97.4,59.7,97.5,58.9,97.7,57.9ZM69.3,55a6.39,6.39,0,0,1,1.5-1.3c.7-.4.7-.4,1.5-.8a23.83,23.83,0,0,1,6.2-2.1,16.52,16.52,0,0,1,3-.4h1.6a24.2,24.2,0,0,1,9.3,1.9c.8.4,1.6.8,1.9,1A13.11,13.11,0,0,1,97,55.8,35.84,35.84,0,0,1,93.8,54c-.3-.2-1.1-.6-1.9-1a23.26,23.26,0,0,0-5.3-1.6,23.61,23.61,0,0,0-3.5-.3H81.6a14.52,14.52,0,0,0-2.8.4,27.31,27.31,0,0,0-5.9,2c-.9.4-.9.5-1.5.8a7.84,7.84,0,0,0-1.5,1,5.38,5.38,0,0,0-.9,1.2A2.54,2.54,0,0,1,69.3,55ZM57.6,63.5c-.3.3-1,1-1.4,1.5a13.73,13.73,0,0,0-1.3,2,14.67,14.67,0,0,0-.6,1.4,9.36,9.36,0,0,0-.4,1.6,8.13,8.13,0,0,0-.1,2.2,5,5,0,0,0,.3,1.3,5.39,5.39,0,0,0,.7,1.3,4.3,4.3,0,0,0,1,.9,3.06,3.06,0,0,1-2.6-1.9,9.59,9.59,0,0,1-.3-1.5,9.86,9.86,0,0,1,.1-2.4c.2-.6.3-1.1.5-1.7a9.38,9.38,0,0,1,.6-1.5,16.44,16.44,0,0,1,1.4-2.2A12,12,0,0,1,57,62.9a9.73,9.73,0,0,1,3.5-1.8C59.5,62,58.7,62.6,57.6,63.5Z" transform="translate(0 -1)"/><path class="cls-2" d="M87.8,94.9a3.51,3.51,0,0,1-.8.5c-.3.1-.6.2-1,.3a4.35,4.35,0,0,0,.7-.6A5.16,5.16,0,0,0,87.8,94.9Z" transform="translate(0 -1)"/><path class="cls-3" d="M38.9,93.5c.2-.1.3-.2.4-.2,1.2-.7,2-1.2,3.1-1.8A11.37,11.37,0,0,1,39.6,94a14.77,14.77,0,0,1-1.8.9,7.63,7.63,0,0,0,.8-1.1Q38.9,93.65,38.9,93.5Z" transform="translate(0 -1)"/><path class="cls-2" d="M102,94.6a17.41,17.41,0,0,1,1.4,1.2,1.85,1.85,0,0,1,.2.7c0,.4-.2.7-.5.7h0a.62.62,0,0,0-.1-.7l-.3-.3h0c-.1-.2-.1-.3-.2-.4a1.27,1.27,0,0,0-.6-.4c-.1,0-.2-.1-.3-.1a2.09,2.09,0,0,0-.6-.4c-.2-.1-.3-.2-.5-.3a1.27,1.27,0,0,1,.6-.1A3.08,3.08,0,0,1,102,94.6Z" transform="translate(0 -1)"/><path class="cls-3" d="M28.7,96.3a59.8,59.8,0,0,1-12.2-2.1c-4.2-1-7.7-2.1-12.1-3.4-1.13-.36-2.7-.87-4.28-1.4v1c1.49.49,2.93.93,4,1.22,4.5,1.4,8,2.4,12.1,3.5a3.55,3.55,0,0,1,1,.2,31.06,31.06,0,0,1,3.2.4c-.3,0-.5.1-.8.1a37,37,0,0,0,9.1,1.3,26.49,26.49,0,0,0,7.7-1.6,14.7,14.7,0,0,1,1-1.3A23.1,23.1,0,0,1,28.7,96.3Z" transform="translate(0 -1)"/><path class="cls-2" d="M34.2,104.2a4.72,4.72,0,0,1-1.1-3.3A9.08,9.08,0,0,1,35,97.1l1.3-1.6c.5-.2,1-.4,1.3-.5l.1-.1c-.7.9-1.5,1.8-2.1,2.5a7.52,7.52,0,0,0-1.8,3.4,3.7,3.7,0,0,0,1,2.9,11.41,11.41,0,0,0,2.2,2.2,25.33,25.33,0,0,0,2.2,1.8c1.5,1.2,3.5,2.7,4.6,3.6a20.28,20.28,0,0,0,1.8,1.3,21.07,21.07,0,0,0,3.8,2.3,41.87,41.87,0,0,0,5.9,2.5c2.2.7,5.2,1.3,7.7,1.9a21.7,21.7,0,0,1,4,1.5,20.71,20.71,0,0,1,3.5,2.2c1.1.8,2.2,1.6,3.2,2.3a10.14,10.14,0,0,0,1.6,1,2.77,2.77,0,0,0,.9.5c.2.1.3.2.4.2a.31.31,0,0,0,.2.1c.1,0,.1.1.2.1.4.2,1.3.6,1.6.7,1.2.4,2,.7,3.1,1H80.4a8.18,8.18,0,0,1-2.1-.3,12.2,12.2,0,0,1-1.7-.7.31.31,0,0,1-.2-.1c-.1,0-.1,0-.2-.1s-.2-.1-.4-.2a9,9,0,0,1-.9-.5c-.4-.3-1.1-.7-1.6-1-1.1-.7-2.2-1.6-3.2-2.3a38.7,38.7,0,0,0-3.4-2.1,18.48,18.48,0,0,0-3.9-1.5c-2.5-.6-5.5-1.2-7.7-1.9a50.82,50.82,0,0,1-6.1-2.6,26.59,26.59,0,0,1-3.9-2.4,20.28,20.28,0,0,1-1.8-1.3c-1.2-.9-3.1-2.3-4.7-3.6a25.33,25.33,0,0,1-2.2-1.8A12.28,12.28,0,0,1,34.2,104.2Z" transform="translate(0 -1)"/><path class="cls-2" d="M82.5,105.9a3.16,3.16,0,0,1-1.1,1.7,2.65,2.65,0,0,1-1.4.5,3.26,3.26,0,0,1-1.4-.4,3.87,3.87,0,0,1-1.5-1.9,3.2,3.2,0,0,1,.2-2,4.89,4.89,0,0,1,1.9-2.1c0,.1.1.1.1.2a21.82,21.82,0,0,0-1.2,2.2,2.45,2.45,0,0,0-.1,1.5,3.08,3.08,0,0,0,1.1,1.5,1.91,1.91,0,0,0,1.8,0,2.8,2.8,0,0,0,.9-1.3,2.2,2.2,0,0,0,.1-.8v-1c0-.5-.1-1.4-.1-2.1a8.17,8.17,0,0,1,.6-2.6,7.69,7.69,0,0,1,1.3-2,4.64,4.64,0,0,1,1-1,6.1,6.1,0,0,1,2.1-1.1c-.2.2-.5.4-.7.6.4-.1.7-.2,1-.3a11,11,0,0,0-1.8,1.4,3.74,3.74,0,0,0-.9.9,7.84,7.84,0,0,0-1.1,1.8,9.77,9.77,0,0,0-.6,2.3c0,.7.1,1.5.1,2.1v1A2.39,2.39,0,0,0,82.5,105.9Z" transform="translate(0 -1)"/><path class="cls-2" d="M78.9,101.1a4.88,4.88,0,0,1,.1-1.7,6.75,6.75,0,0,0,.2-1.4c.1-.5.1-.8.2-1.3a8.6,8.6,0,0,0-.1-1.6,4.8,4.8,0,0,1,0-1.2c.4.3.7.5.8,1a10.87,10.87,0,0,1,.1,1.8,6.75,6.75,0,0,1-.2,1.4,6.88,6.88,0,0,0-.2,1.3,8.6,8.6,0,0,0-.1,1.6,5,5,0,0,1-.2,1.2l-.3-.3c.1-.2.2-.3.3-.5a1.38,1.38,0,0,0-.4.3C79,101.5,79,101.3,78.9,101.1Z" transform="translate(0 -1)"/><path class="cls-2" d="M79.6,101.4a2.19,2.19,0,0,1-.3.5c0-.1-.1-.1-.1-.2A1.38,1.38,0,0,1,79.6,101.4Z" transform="translate(0 -1)"/><path class="cls-5" d="M87,56.9a2.31,2.31,0,0,1,2.8-1.1,1.64,1.64,0,0,1,1.3,2.3,2.31,2.31,0,0,1-2.8,1.1A1.64,1.64,0,0,1,87,56.9Z" transform="translate(0 -1)"/><path class="cls-2" d="M37.9,93.5a25.62,25.62,0,0,0,2.2-4,55.11,55.11,0,0,1,4.4-7.9c.4-.6,1-1.2,1.4-1.7a5.93,5.93,0,0,1,.8-.8l.4-.4.2-.2.1-.1a2.18,2.18,0,0,1,.5-.4,4.23,4.23,0,0,0,.7-.5,9.12,9.12,0,0,1,3.5-1.2A32.07,32.07,0,0,0,49,78.2c-.1.1-.5.4-.6.5s-.3.3-.4.3-.1,0-.1.1l-.2.2-.4.4a6.53,6.53,0,0,0-.7.8c-.3.4-.9,1-1.3,1.6A53.5,53.5,0,0,0,41,89.9a34.71,34.71,0,0,1-2.1,3.7c-.4.2-.9.5-1.4.7h-.1A3.51,3.51,0,0,0,37.9,93.5Z" transform="translate(0 -1)"/><path class="cls-2" d="M90.7,107a11.93,11.93,0,0,1,5.1-.7,3.83,3.83,0,0,1,2.4,1.3,3.67,3.67,0,0,1,.7,2.5,3.84,3.84,0,0,1-1.1,2.3,5.77,5.77,0,0,1-2.3,1,4.45,4.45,0,0,1-2.1-.3,3.56,3.56,0,0,1-1.5-1,4.58,4.58,0,0,1-.7-1.4,5.24,5.24,0,0,0,1.1,1,4.58,4.58,0,0,0,1.4.7,3.33,3.33,0,0,0,1.7.2,4,4,0,0,0,1.8-.7,3.1,3.1,0,0,0,.9-1.8,3,3,0,0,0-.5-1.9,2.75,2.75,0,0,0-1.9-1,12,12,0,0,0-4.6.7c-.2.1-.4.1-.6.2a17.33,17.33,0,0,1-3.5.8c-1.2.2-2,.3-2.9.4s-.4.1-1.4.2-2.4.1-4,.1h-4a10.14,10.14,0,0,1-2.4-.2,4.29,4.29,0,0,1-2.3-1.2,3.33,3.33,0,0,1-.4-2.6,8.58,8.58,0,0,1,1.3-2.3c.9-1.2,2.2-2.7,3-3.6s1.7-2,2.2-2.6a18.94,18.94,0,0,1,2.6-2.4c-.8,1.1-1,1.7-2,2.9-.5.6-1.4,1.6-2.2,2.6s-2.1,2.5-3,3.6a6.44,6.44,0,0,0-1.1,2,2.12,2.12,0,0,0,.2,1.9,2.43,2.43,0,0,0,1.8.9,17,17,0,0,0,2.2.1h5.5a17,17,0,0,0,2.4-.1c1-.1.5,0,1.4-.1s1.7-.2,2.8-.4A31.13,31.13,0,0,0,90.7,107Z" transform="translate(0 -1)"/><path class="cls-2" d="M103.4,95.9a8.06,8.06,0,0,0-1.4-1.2c.1,0,.1,0,.2.1a3.11,3.11,0,0,1,.9.7C103.2,95.5,103.3,95.7,103.4,95.9Z" transform="translate(0 -1)"/><path class="cls-2" d="M69.4,55a4.86,4.86,0,0,1,1.5-1.3c.7-.4.6-.4,1.6-.9a28.23,28.23,0,0,1,6.2-2.1,16.52,16.52,0,0,1,3-.4h1.6a24.2,24.2,0,0,1,9.3,1.9c.8.4,1.6.8,1.9,1a12.94,12.94,0,0,1,2.7,2.5C96,55,95.3,54.6,94,53.9c-.3-.2-1.1-.6-1.9-1A21.83,21.83,0,0,0,83.3,51H81.8a14.52,14.52,0,0,0-2.8.4,25.58,25.58,0,0,0-5.9,2c-1.1.5-1.1.6-1.7.9a7.84,7.84,0,0,0-1.5,1,2.55,2.55,0,0,0-.9,1.2A2,2,0,0,1,69.4,55Z" transform="translate(0 -1)"/><path class="cls-2" d="M100.4,94.6a2.19,2.19,0,0,1,.5.3,2.09,2.09,0,0,1,.6.4H101a2.39,2.39,0,0,0-.9.3c-.2.1-.6.4-.8.2s0-.6.3-.8A2,2,0,0,1,100.4,94.6Z" transform="translate(0 -1)"/><path class="cls-2" d="M71.6,90a6.16,6.16,0,0,1,3.1.6l-.1.1a15.15,15.15,0,0,0-2.9.2,10.8,10.8,0,0,0-1.9.4A19.1,19.1,0,0,0,67,92.8c-.4.3-.9.6-1.2.8a1.69,1.69,0,0,1-.6.3c-.3.2-.4.2-.7.4a4.71,4.71,0,0,1-1.7.4,2,2,0,0,1-1.1-.3,5.72,5.72,0,0,1-.7-.8,1.73,1.73,0,0,1,.1-1.7,4,4,0,0,1,1.2-1.1.6.6,0,0,1,.4-.1,2.33,2.33,0,0,1,1.4-.1l-.3.3a2.64,2.64,0,0,1,.9,0h0a2.1,2.1,0,0,1,.8.6,3.68,3.68,0,0,0-2.9.2c-.2.1-.7.4-.8.7a1.17,1.17,0,0,0,0,1,1.23,1.23,0,0,0,1.1.7,6.11,6.11,0,0,0,1.3-.3,3.33,3.33,0,0,0,.6-.3,1.69,1.69,0,0,0,.6-.3,12.75,12.75,0,0,1,1.2-.7,16.77,16.77,0,0,1,3-1.5A3,3,0,0,1,71.6,90Z" transform="translate(0 -1)"/><path class="cls-2" d="M78.4,84.4c-.6.1-1.3.1-1.9.2-.9.1-2.4.1-3.5.1l.1-.1a.33.33,0,0,0,0-.5c-.1-.2-.4-.1-.6,0s-.3.4-.4.5a.1.1,0,0,1-.1.1H70a17,17,0,0,1-3.4-.7,20.18,20.18,0,0,1,3.5-.1h2.1c.9,0,3.2,0,4.4-.1a12.25,12.25,0,0,0,1.9-.2c.5-.1.3,0,1-.1s2-.3,3-.5,3.6-.8,4.4-1a12.68,12.68,0,0,0,1.5-.4,12.44,12.44,0,0,1,1.6-.4c.4,0,.7.1,1,.1a18.5,18.5,0,0,1-2.4,1.1,12.68,12.68,0,0,1-1.5.4,5.31,5.31,0,0,1-1.1.3l-.1-.1v.1c-1.1.3-2.6.6-3.4.8-1,.2-2.3.4-3.1.5S79,84.3,78.4,84.4Z" transform="translate(0 -1)"/><path class="cls-2" d="M117.3,67.4a13.27,13.27,0,0,0-2.3-4.6c-1-1.4-2.2-2.6-3.2-3.9a6.64,6.64,0,0,1-1.1-2,3.42,3.42,0,0,1,.1-2c.2-.7.7-1.3.9-2a4.13,4.13,0,0,0,.4-2.2,6.58,6.58,0,0,0-2.3-3.8,12.86,12.86,0,0,0-3.9-2.2A47,47,0,0,0,98,43.3,30.94,30.94,0,0,1,91.9,42c-1.7-.6-2.4-1.1-3.7-1.6s-.1-.1-1.8-.8-2.1-1-5.3-2.3S72.9,34,67.8,32.5s-13.1-3.7-19.4-5.1a62.67,62.67,0,0,0-11.2-1.7A43.59,43.59,0,0,0,25.4,27c-3.8,1-7.6,2.5-11.3,3.8S6.4,33.7,2.8,35.2C1.9,35.58,1,36,.12,36.38V37c1-.44,2-.89,3-1.32,3.5-1.5,7.5-3,11.2-4.4a114.67,114.67,0,0,1,11.3-3.7,41,41,0,0,1,11.5-1.3,61.78,61.78,0,0,1,11,1.7c6.2,1.4,14.2,3.6,19.3,5.1s10,3.5,13.2,4.7,3.6,1.6,5.3,2.3a17.78,17.78,0,0,1,1.8.8,35.24,35.24,0,0,0,3.8,1.7A35.76,35.76,0,0,0,97.9,44a43.14,43.14,0,0,1,7.7,1.4,10.25,10.25,0,0,1,3.5,2,5,5,0,0,1,2,3.3c.1,1.5-.7,2.6-1.2,4a3.3,3.3,0,0,0-.1,2.4,6.78,6.78,0,0,0,1.2,2.2c1,1.3,2.2,2.6,3.2,3.9a11.51,11.51,0,0,1,2.1,4.3,4.44,4.44,0,0,1-1.3,4.2,14.58,14.58,0,0,1-4.5,2.7,31.67,31.67,0,0,1-10.8,3c-3.8.3-7.6-.6-11.3-1.4s-7.3-1.8-10.9-2.6c-1.8-.4-3.5-.8-5.2-1.2-.8-.2-1.7-.3-2.5-.5s-1.7-.4-2.3-.5-1.4-.3-1.9-.4a2.25,2.25,0,0,0-.7-.1c-.3-.1-.3-.1-.4-.1h-.1v-.2c0-.1-.1-.3-.1-.4s-.1-.8-.3-.8-.1.6-.2.8a1.09,1.09,0,0,0-.1.5v.3c0,.1-.2.3,0,.4s.5.1.8.2a4.54,4.54,0,0,0,.8.2c.5.1,1.2.2,1.9.4s1.5.3,2.3.5,1.7.3,2.6.5c1.7.4,3.4.8,5.2,1.2,3.6.8,7.2,1.9,10.9,2.7s7.8,1.7,11.7,1.4A36,36,0,0,0,111,75.2l1.2-.6a15.38,15.38,0,0,0,1.3-1.2,4.88,4.88,0,0,1-.3.7,24,24,0,0,0,2.6-1.8,5,5,0,0,0,1.4-2.3A4.64,4.64,0,0,0,117.3,67.4Z" transform="translate(0 -1)"/><path d="M88.3,59.2a2.23,2.23,0,0,0,2.8-1.1,1.69,1.69,0,0,0-1.3-2.3A2.23,2.23,0,0,0,87,56.9,1.69,1.69,0,0,0,88.3,59.2Zm-2-4.7h.6c3.1.5,6.2,1.7,6.6,5.2.2,1.5-.6,2.3-1.8,3.3a8.45,8.45,0,0,1-5.4,1.9c-3.3-.2-6.5-1.2-7.1-4.8-.2-1.5.5-2.3,1.6-3.5A8.68,8.68,0,0,1,86.3,54.5Z" transform="translate(0 -1)"/><path class="cls-2" d="M50.7,101.2a8.2,8.2,0,0,0,2.5,2.4,10.07,10.07,0,0,0,3.8.9,15.81,15.81,0,0,0,7.2-2,12.7,12.7,0,0,0,2.1-1.5,7,7,0,0,0,1-.8,27.59,27.59,0,0,0,2.3-2.4A19.1,19.1,0,0,0,71.5,95a24.09,24.09,0,0,1,2.3-3.6,4.62,4.62,0,0,1,.7-.7h.4c-.1,0-.2-.1-.3-.1a4.13,4.13,0,0,1,1.1-.7,4.25,4.25,0,0,1,2.5-.3,3.15,3.15,0,0,1,1.9,1.2,1.45,1.45,0,0,1,.3,1.2,1.8,1.8,0,0,1-.3,1.1,2.36,2.36,0,0,1-.8.9l-.9.6h-.1a5.84,5.84,0,0,1-1.8.4,8.75,8.75,0,0,1-1.6-.2c1.1-.3,2-.5,3.2-.9a2.81,2.81,0,0,0,1.2-1,1.4,1.4,0,0,0,0-1.4,1.84,1.84,0,0,0-1.4-.9,4.23,4.23,0,0,0-3.5,1.5,22.46,22.46,0,0,0-2.2,3.5,28.41,28.41,0,0,1-2,2.9,19.63,19.63,0,0,1-2.4,2.5,7,7,0,0,1-1,.8,15.83,15.83,0,0,1-2.2,1.6,15.67,15.67,0,0,1-7.8,2.1,8.77,8.77,0,0,1-4.2-1.1,7.8,7.8,0,0,1-2.8-2.6,5.85,5.85,0,0,1-.6-1.5,1.49,1.49,0,0,1-.1-.6A2,2,0,0,1,49,99a6.68,6.68,0,0,1,1-3.1,28.32,28.32,0,0,0-.2,3,1.49,1.49,0,0,0,.1.6c.1.2,0,.2.1.5C50.3,100.2,50.4,100.7,50.7,101.2Z" transform="translate(0 -1)"/><path class="cls-2" d="M75,90.6h-.4l.1-.1A.37.37,0,0,0,75,90.6Z" transform="translate(0 -1)"/><path class="cls-2" d="M101.9,98.6a2.52,2.52,0,0,0,1.7-.6c-.1.1-.3.2-.4.3a2.37,2.37,0,0,1-2,.2c-.1,0-.2,0-.2-.1A1.49,1.49,0,0,0,101.9,98.6Z" transform="translate(0 -1)"/><path class="cls-4" d="M95.2,92.3a19.58,19.58,0,0,1,3.2,1.3c.4.2,1.3.7,2,1.1a4.88,4.88,0,0,0-.7.3c-.3.2-.5.6-.3.8s.5-.1.8-.2a2.39,2.39,0,0,1,.9-.3h.5a10.63,10.63,0,0,1,1.1.9h0c0,.1.1.3.1.4s0,.6.3.6a1.38,1.38,0,0,1-.3.4c-.1.1-.3.1-.4.2h-.5a4.06,4.06,0,0,1-1.7-.5c-.7-.4-1.8-1.2-2.5-1.6a15.11,15.11,0,0,0-1.8-.9,14.13,14.13,0,0,0-2.2-.6,19.27,19.27,0,0,0-3.3-.3,4.87,4.87,0,0,0-1.5.2,5.67,5.67,0,0,0-2.2,1.1,6.1,6.1,0,0,0-2.1,1.1,9.32,9.32,0,0,0-1,1,7.69,7.69,0,0,0-1.3,2,7.6,7.6,0,0,0-.6,2.6c0,.7.1,1.6.1,2.1v1a2.51,2.51,0,0,1-1,2.1,1.91,1.91,0,0,1-1.8,0,3.27,3.27,0,0,1-1.1-1.5,2.38,2.38,0,0,1,.1-1.5,11.42,11.42,0,0,1,1.2-2.2l.3.3a4.3,4.3,0,0,0,.2-1.2,8.6,8.6,0,0,1,.1-1.6,6.88,6.88,0,0,0,.2-1.3,6.75,6.75,0,0,0,.2-1.4,5.46,5.46,0,0,0-.1-1.8c-.1-.5-.4-.7-.8-1h0a2.36,2.36,0,0,0,.8-.9,1.8,1.8,0,0,0,.3-1.1,3,3,0,0,0-.3-1.2,3.15,3.15,0,0,0-1.9-1.2,5.24,5.24,0,0,0-2.5.3,4.13,4.13,0,0,0-1.1.7,7.45,7.45,0,0,0-3.1-.6,6.92,6.92,0,0,0-2.1.5,21,21,0,0,0-3,1.5,5.23,5.23,0,0,1-1.2.7,1.69,1.69,0,0,1-.6.3,3.33,3.33,0,0,1-.6.3,4.15,4.15,0,0,1-1.3.3c-.4,0-.8-.4-1.1-.7a1.17,1.17,0,0,1,0-1,1.34,1.34,0,0,1,.8-.7,4.16,4.16,0,0,1,2.9-.2,3.28,3.28,0,0,0-.8-.6,1,1,0,0,0,.6-.2c.8-.3,2.2-.9,3.2-1.2s2.4-.9,3.2-1.2.7-.5,1.3-.9H71.7l-.1-.3a.78.78,0,0,0,.4-.4,3.18,3.18,0,0,1,.3-.9c.1-.2.3-.4.4-.6,1.1,0,2.6,0,3.5-.1a12.25,12.25,0,0,0,1.9-.2c.6-.1.3,0,1-.1s2-.3,3.1-.5c.7-.1,2.3-.5,3.4-.8a17.08,17.08,0,0,1,.9,2.7c0,.2.1.7.2,1.3a7.35,7.35,0,0,0,.9,2.6A5.53,5.53,0,0,0,89,90.7a10.93,10.93,0,0,0,1.7.5c.9.2,2,.4,2.8.6A10.93,10.93,0,0,1,95.2,92.3Z" transform="translate(0 -1)"/><path class="cls-2" d="M80.7,125.3a39.86,39.86,0,0,1,4.1,1.4,6.26,6.26,0,0,1,1.8,1.5,3.77,3.77,0,0,1,.7,2.1,3.22,3.22,0,0,1-1.2,2,4.65,4.65,0,0,1-2.3.6,4,4,0,0,1-2-.7,2.63,2.63,0,0,1-1-1.4,3.69,3.69,0,0,1-.1-1.5,7.46,7.46,0,0,0,.7,1.2,4.74,4.74,0,0,0,1,1,3.39,3.39,0,0,0,1.5.6,3.29,3.29,0,0,0,1.7-.4,1.57,1.57,0,0,0,.9-1.4,3.62,3.62,0,0,0-2-2.9,37.05,37.05,0,0,0-3.9-1.4,12.68,12.68,0,0,1-3.3-1.6,17.16,17.16,0,0,1-1.9-1.7,4.37,4.37,0,0,1-.7-.8,5.55,5.55,0,0,1-.6-.8,18.9,18.9,0,0,1-1.4-1.9,3.82,3.82,0,0,1-.6-1.6,2.5,2.5,0,0,1,.8-1.9,4.53,4.53,0,0,1,1.9-1.1c.7-.3,1.4-.5,2.1-.8a63.94,63.94,0,0,1,8.4-2c.7-.1,1.4-.1,1.8-.2h1.5a17.61,17.61,0,0,1,3.3.3,32.63,32.63,0,0,1-3.3.5H87.1c-.4.1-1.1.1-1.8.2a82.69,82.69,0,0,0-8.3,1.9,12.45,12.45,0,0,0-3.7,1.7,1.47,1.47,0,0,0-.6,1.3,2.35,2.35,0,0,0,.5,1.3,10.92,10.92,0,0,0,1.3,1.7,4.35,4.35,0,0,0,.6.7,4.51,4.51,0,0,0,.7.7c.5.4,1,1,1.8,1.6A6.09,6.09,0,0,0,80.7,125.3Z" transform="translate(0 -1)"/><path class="cls-2" d="M64.7,90.4h-.9l.3-.3Z" transform="translate(0 -1)"/><path d="M107.8,68.4c-.1-.3-.4-.5-.6-.7s-.1-.1-.5-.1-1.1.2-1.2.6-.2.4,0,.8a1.21,1.21,0,0,0,.7.7,1.6,1.6,0,0,0,1.6-.5C108,68.8,107.9,68.8,107.8,68.4Zm-.4-1.3a1.7,1.7,0,0,1,1,2.4,2,2,0,0,1-2.6.9,1.7,1.7,0,0,1-1-2.4A1.89,1.89,0,0,1,107.4,67.1Z" transform="translate(0 -1)"/><path d="M107.2,67.8a.75.75,0,0,1,.6.7.78.78,0,0,1-.1.8,1.54,1.54,0,0,1-1.6.5c-.4-.2-.6-.3-.7-.7a1.1,1.1,0,0,1,0-.8c.1-.4.9-.6,1.2-.6A1.08,1.08,0,0,1,107.2,67.8Z" transform="translate(0 -1)"/></g></g></svg>