<svg id="Layer_1" data-name="Layer 1" xmlns="http://www.w3.org/2000/svg" viewBox="0 0 720 480"><defs><style>.cls-1{fill:#cfc3b4;}.cls-2{fill:#202020;}.cls-3{fill:#3c3c3c;}.cls-4{fill:none;}.cls-5{fill:#fff;}</style></defs><title>1</title><g id="_1" data-name="1"><path class="cls-1" d="M720,1V481H0L.1,1Z" transform="translate(0 -1)"/><g id="_Group_" data-name="&lt;Group&gt;"><path class="cls-2" d="M195,119.67c-.21.21-.32.42-.64.52s-.63.21-1.06.32c.11-.11.32-.11.43-.21a1.52,1.52,0,0,0,.31-.42h0a.57.57,0,0,0,.53-.73,1.88,1.88,0,0,0-.21-.74l.32.32A1.14,1.14,0,0,1,195,119.67Z" transform="translate(0 -1)"/><path class="cls-3" d="M103.11,117.79a31.71,31.71,0,0,1,3.39.42c-.31,0-.63.1-.85.1h0A17.55,17.55,0,0,1,103.11,117.79Z" transform="translate(0 -1)"/><path class="cls-2" d="M189.18,115.9c-1.17-.52-2.44-1-3.39-1.35a10.48,10.48,0,0,0-1.49-.42c-.85-.21-1.91-.42-3-.63a11.2,11.2,0,0,1-1.81-.52,4.31,4.31,0,0,1-1.48-1.26,7.68,7.68,0,0,1-1-2.72c-.1-.62-.21-1.15-.21-1.36a18.24,18.24,0,0,0-1-2.82h.1a4.64,4.64,0,0,1,1.81,2.72c.1.21.1.73.31,1.36a5.48,5.48,0,0,0,.85,2.4,4.67,4.67,0,0,0,2.76,1.47c1,.21,2.13.42,3,.63a11.45,11.45,0,0,1,1.6.41c1,.32,2.23.84,3.5,1.36.64.32,2,1,2.86,1.57.22.11.32.21.54.31a3.51,3.51,0,0,0-1.07-.1,1.39,1.39,0,0,0-.63.1C190.56,116.64,189.61,116.11,189.18,115.9Z" transform="translate(0 -1)"/><path class="cls-3" d="M123.38,118a16.11,16.11,0,0,0,1.06-1.36h.11c.53-.21,1.06-.53,1.48-.74-.1.11-.21.21-.21.32-.32.42-.53.73-.85,1.15l-.1.1A6.55,6.55,0,0,1,123.38,118Z" transform="translate(0 -1)"/><path class="cls-2" d="M187.91,118.83a12.71,12.71,0,0,0-1.81-.83,15.48,15.48,0,0,0-2.12-.63,10.9,10.9,0,0,0-3.18-.21,3.6,3.6,0,0,0-1.38.21c-.85.21-1.49.42-2.23.63a2.36,2.36,0,0,1,.85-.53c-.43.11-.74.21-1.06.32a5.84,5.84,0,0,1,2.33-1.15,4.57,4.57,0,0,1,1.59-.21,20.68,20.68,0,0,1,3.51.31,14.41,14.41,0,0,1,2.33.63,15.32,15.32,0,0,1,1.91.94c.74.42,1.91,1.36,2.65,1.67a3.23,3.23,0,0,0,1.81.53h.53a7.61,7.61,0,0,1-2.65,0c.53.2.74.52,1.27.73a13.45,13.45,0,0,1-1.38-.53A22.89,22.89,0,0,1,187.91,118.83Z" transform="translate(0 -1)"/><path class="cls-2" d="M160.53,108.27c0-.21.1-.52.1-.73s.11-.31.21-.52.11-.32.22-.42h1.06c-.11.21-.32.42-.43.63l-.31.94a.88.88,0,0,1-.43.42h-.11C160.74,108.69,160.53,108.59,160.53,108.27Z" transform="translate(0 -1)"/><path class="cls-2" d="M193.64,118.83a5.14,5.14,0,0,0-1.17-.94.38.38,0,0,1,.32.11,2.3,2.3,0,0,1,.64.41C193.53,118.52,193.53,118.62,193.64,118.83Z" transform="translate(0 -1)"/><path class="cls-2" d="M161.16,106.6a2.16,2.16,0,0,1,.43-.52c.21-.11.53-.21.63,0s.22.31,0,.52l-.1.1a2.52,2.52,0,0,1-1-.1Z" transform="translate(0 -1)"/><path class="cls-2" d="M187.06,83.6a.38.38,0,0,0,.11-.32,6.87,6.87,0,0,0,.53-1.57c.21-1.15.42-2,.53-3.13a5.24,5.24,0,0,1,.53,3.34,7.28,7.28,0,0,1-.64,1.78,1.93,1.93,0,0,1-.21.32.66.66,0,0,0-.21.31,8.51,8.51,0,0,1-.75,1,7.68,7.68,0,0,1-3.07,2.1c.74-.84,1.38-1.68,2.12-2.62.1-.1.53-.83.74-.94Z" transform="translate(0 -1)"/><path class="cls-2" d="M194.06,119.88c-.31-.11-.21-.42-.31-.63s-.11-.21-.11-.42l.32.32A.63.63,0,0,1,194.06,119.88Z" transform="translate(0 -1)"/><path d="M177,75.13h-.64a9.64,9.64,0,0,0-5.73,2.3c-1.27,1.25-2,2-1.7,3.66.64,3.76,4,4.91,7.54,5a9.72,9.72,0,0,0,5.73-2c1.27-1.15,2-1.88,1.91-3.45C183.56,76.8,180.27,75.65,177,75.13Zm-8.92,6c0-4.29,4.35-6.48,8.28-6.59s8.49,1.78,8.28,6.06-4.46,6.07-8.28,6.28S168.06,85.37,168.06,81.09Z" transform="translate(0 -1)"/><path class="cls-2" d="M195.34,119.15a1.53,1.53,0,0,1-.53,1.46h-.11a.52.52,0,0,0,.21-.42c0-.21.11-.42.11-.63A1.32,1.32,0,0,0,195.34,119.15Z" transform="translate(0 -1)"/><path class="cls-2" d="M175.81,104.72h0C175.92,104.82,175.81,104.82,175.81,104.72Z" transform="translate(0 -1)"/><path class="cls-2" d="M205.31,95.1c-.1.21-.21.52-.31.73a9.78,9.78,0,0,1-1.07.52A14.34,14.34,0,0,0,205.31,95.1Z" transform="translate(0 -1)"/><path class="cls-3" d="M74,113.4c-.22-.11-.53-.21-.75-.32a15.49,15.49,0,0,1-2.86-1.78,15.82,15.82,0,0,1,3.18,1,3.63,3.63,0,0,1,.75.31c.21.1.31.1.53.21s.74.31,1.06.42c1.38.52,3.82,1.15,5,1.46,2.44.63,5,1.15,7.11,1.57s3,.52,5,.83,5.62.63,7.64.74a19.25,19.25,0,0,0,2.12.1H103l2.44.63a9.64,9.64,0,0,1-2.65.31,19.25,19.25,0,0,1-2.12-.1c-2.13-.11-5.63-.42-7.75-.73s-3-.42-5.1-.84-4.67-.94-7.21-1.57c-1.28-.31-3.72-.94-5.1-1.46-.32-.11-.85-.32-1.06-.42S74.24,113.5,74,113.4Z" transform="translate(0 -1)"/><path d="M199.8,90.81a1.77,1.77,0,0,0-1.07-2.51,2.12,2.12,0,0,0-2.76.94A1.77,1.77,0,0,0,197,91.75,2.07,2.07,0,0,0,199.8,90.81Zm-.75-3.24a2.36,2.36,0,0,1,1.59,1.57,2.11,2.11,0,0,1-.1,2.09,3.35,3.35,0,0,1-3.19,1.57,2.07,2.07,0,0,1-.74-.21A2.6,2.6,0,0,1,195,91a2.4,2.4,0,0,1,.11-2.09A3.19,3.19,0,0,1,199.05,87.57Z" transform="translate(0 -1)"/><path class="cls-2" d="M157.66,103.36a11.69,11.69,0,0,1-1.06,1.25,7.21,7.21,0,0,1-1.27,1.26,39.14,39.14,0,0,1-3.93,3.45c-.32.21-.64.52-1,.73-.53.42-1.16.84-1.59,1.15-.64.42-.74.52-1.27.84s-.53.31-1.17.73-1.59.94-2.44,1.36-2.12,1-3.08,1.57a15.93,15.93,0,0,0-2.55,1.77l-.63.63c-.32.31-.43.63-.75.94a8.91,8.91,0,0,0-.63,1.47,3.45,3.45,0,0,0-.11,1.46c-.53-1.36-.74-1.78,0-3.35a6.14,6.14,0,0,1,1.49-1.88,25.74,25.74,0,0,1,5.73-3.45c.85-.42,1.8-.94,2.44-1.25a4.83,4.83,0,0,0,1.06-.63c.53-.31.64-.42,1.27-.84s1.7-1.25,2.45-1.88a52.5,52.5,0,0,0,5-4.6c.64-.63.85-1,1.07-1.15a32.8,32.8,0,0,1,2.65-2.72A9.18,9.18,0,0,1,157.66,103.36Z" transform="translate(0 -1)"/><path class="cls-2" d="M140.89,93.84a10.29,10.29,0,0,1,.11-2.51,5.44,5.44,0,0,1,.53-1.77,10.29,10.29,0,0,1,.63-1.57,17.44,17.44,0,0,1,1.49-2.3A12.47,12.47,0,0,1,145.24,84,11.39,11.39,0,0,1,149,82.13c-1.06.84-1.91,1.47-3.08,2.51a7.31,7.31,0,0,0-1.49,1.57A14.54,14.54,0,0,0,143,88.3a9.29,9.29,0,0,0-.63,1.47,7.42,7.42,0,0,0-.43,1.67,8.46,8.46,0,0,0-.1,2.3,4.94,4.94,0,0,0,.31,1.36,5.94,5.94,0,0,0,.75,1.36,3,3,0,0,0,1.06.94,2.92,2.92,0,0,1-2.76-2C141.1,95,141,94.47,140.89,93.84Z" transform="translate(0 -1)"/><path class="cls-2" d="M194.91,120.3a.5.5,0,0,1-.21.41,2.69,2.69,0,0,1-1.8.63,3.14,3.14,0,0,1-1-.1c-.53-.21-.74-.53-1.27-.73a7.61,7.61,0,0,0,2.65,0c.43,0,.64-.21,1.06-.32a1.07,1.07,0,0,0,.64-.52C195,119.88,194.91,120.09,194.91,120.3Z" transform="translate(0 -1)"/><path class="cls-2" d="M194.81,101.58A21.34,21.34,0,0,0,200.75,99c.43-.32.85-.53,1.06-.74s.32-.2.43-.41a2.65,2.65,0,0,0,.53-.53,10.2,10.2,0,0,1,1.06-.94c.32-.21.74-.31,1.06-.52a6.55,6.55,0,0,1-1.38,2.09l-.53.52a2.22,2.22,0,0,1-.53.42c-.32.21-.74.52-1.17.84a27.61,27.61,0,0,1-6.26,2.72,38.5,38.5,0,0,1-6.37.94c-1.7.1-1.91.1-3.18.1a18,18,0,0,1-3.19-.21c-.31,0-.74-.1-1.16-.1.31-.11.63-.31.95-.42l-2,.31c-1.27-.2-2.75-.41-3.92-.62-1.91-.42-4.78-1-6.58-1.57-.85-.21-1.59-.42-2-.52A24.48,24.48,0,0,1,164.24,99a15.63,15.63,0,0,1,3.72.52l2,.52c1.81.53,4.57,1.15,6.58,1.57a47.23,47.23,0,0,0,6,.84c1.59.21,1.81.1,3.08.21s1.49,0,3.08-.11A48.54,48.54,0,0,0,194.81,101.58Z" transform="translate(0 -1)"/><path class="cls-2" d="M162.22,109c-.63.42-.53.63-1.38,1s-2.33.94-3.39,1.25-2.55.94-3.4,1.25a3.91,3.91,0,0,1-.63.21h0a1.66,1.66,0,0,0-.64-.21,3.14,3.14,0,0,1,1.06-.73c.85-.31,2.33-.94,3.4-1.25s2.54-.94,3.39-1.26c.21-.1.43-.1.53-.21A3.75,3.75,0,0,1,162.22,109Z" transform="translate(0 -1)"/><path d="M176.34,73.56c4.67.21,8.81,2,9.45,6.9.21,2.09-1,3.14-2.45,4.6s-4.67,2.3-7,2.51h-.74c-4.25-.73-7.86-2-8.49-6.59-.32-2.09.63-3.24,2.23-4.81A10.41,10.41,0,0,1,176.34,73.56Zm0,.94c-3.93.11-8.28,2.3-8.28,6.59s4.46,5.85,8.28,5.75,8.17-2,8.28-6.28S180.16,74.4,176.34,74.5Z" transform="translate(0 -1)"/><path class="cls-2" d="M180.16,102.94c.64-.1,1.27-.21,2-.31a3.61,3.61,0,0,1-1,.41C180.9,103,180.48,102.94,180.16,102.94Z" transform="translate(0 -1)"/><path class="cls-4" d="M153.42,92.28c.1.1.21.1.42.1a2.5,2.5,0,0,1,.74.1c.43.11,1.28.21,2,.42s1.59.32,2.44.53,1.7.31,2.65.52c1.81.42,3.61.83,5.52,1.25,3.93.73,7.64,1.88,11.57,2.72a45.75,45.75,0,0,0,12,1.46,32.52,32.52,0,0,0,11.47-3.13A15.6,15.6,0,0,0,207,93.43a4.32,4.32,0,0,0,1.38-4.4,9.05,9.05,0,0,0-2.23-4.49c-1.06-1.36-2.33-2.62-3.39-4.08a8.14,8.14,0,0,1-1.28-2.3,5,5,0,0,1,.11-2.51c.53-1.46,1.38-2.72,1.27-4.18A5.19,5.19,0,0,0,200.75,68,10,10,0,0,0,197,65.93a46.84,46.84,0,0,0-8.18-1.47A36.07,36.07,0,0,1,182.07,63a38,38,0,0,1-4-1.78c-1.38-.52-.11-.1-1.91-.83s-2.23-1-5.63-2.41-8.7-3.35-14-4.91S142.59,49.2,136,47.73A66.18,66.18,0,0,0,124.33,46a48.89,48.89,0,0,0-12.2,1.36c-3.93,1-8.07,2.4-12,3.86s-8.18,3-11.89,4.6A185.56,185.56,0,0,0,66.7,66.35c-1.8.94-3.07,2-4.56,2.92-.74.53-1.49,1.15-2,1.47s-.74.62-1.06.83a4.3,4.3,0,0,0-.74.53,1.9,1.9,0,0,1-.53.41c-.21.21-.53.42-.64.53a27.87,27.87,0,0,1-3,2c.53-.62,1-1.25,1.59-1.88l-.85-.73c-.1,0-.21.1-.32.1-.31,0-1-.52-1.27-.62-1.48-.74-2.65-1.26-4.14-1.89s-2.65-1-4.46-1.77a42.42,42.42,0,0,0-4.13-1.57c-.64-.21-1.6-.52-2.45-.84A26.3,26.3,0,0,0,35.39,65a68.54,68.54,0,0,0-11-1.68H22a26.92,26.92,0,0,1-4.14-.1A23.3,23.3,0,0,1,22,62.48h2.34a10.69,10.69,0,0,0-2.76-1.15c-1.28-.32-2.87-.63-4.35-.84-2.87-.42-6.9-.73-9.66-.84-2.32-.09-5.44-.1-7.47-.1V79.79l2.05-.06c1.92-.11,5.42-.21,8.07-.42s6.47-.52,9.34-.94a24.58,24.58,0,0,0,4.56-1.15.11.11,0,0,1,.11-.11,8.49,8.49,0,0,1-1.06-.62,13.11,13.11,0,0,0,1.59.42A12.83,12.83,0,0,0,27.54,75c.21-.21.11-.31.43-.52s.84-.21,1.27-.42c-.43.42-.53.84-1,1.26a11.39,11.39,0,0,1-2.54,1.88,4.92,4.92,0,0,1,1.16.42c.43.21,1.17.52,2,.94s2.44,1,3.61,1.46l4,1.47c2.34.83,5.1,1.77,7.22,2.51,1.06.31,1.8.52,2.33.73s.32,0,.53.21.22.73-.1.83l1.8.53c.32-.63.85-1.47,1.06-1.89s.64-1,.75-1.25a19.93,19.93,0,0,1,2.23-2.82A18.56,18.56,0,0,1,51,83.6c-.11.21-.43.73-.75,1.25S49.19,86.63,49,87.26a4.83,4.83,0,0,0-.42,1.67,3.62,3.62,0,0,0,.31,1.46,6.6,6.6,0,0,0,1.49,1.89,9.35,9.35,0,0,0,1.59.94c1.27.62,2,.94,3.08,1.56-.53-.1-1-.1-1.38-.2v.2c1.8.32,3.71.63,5.31,1s5.52,1.36,7.32,2l2.86.94a13,13,0,0,1,3.19,1.67,26.44,26.44,0,0,1-3.61-.94l-2.87-.94c-1.8-.63-5.73-1.57-7.32-2a74.56,74.56,0,0,0-9.76-1.78c-2.13-.2-.53,0-1.59-.1a18.64,18.64,0,0,0-2.45-.21,55.1,55.1,0,0,0-7.11.21c-1.16.21-2.86.42-4,.52s-2.87.53-3.71.63a16.92,16.92,0,0,0-2.13.42c-.42.1-.85.1-1.16.21A10.24,10.24,0,0,1,28,98.55a7.54,7.54,0,0,1,.21,1.36,7.27,7.27,0,0,1-1-.63c-.21-.21-.1-.31-.21-.52a5.21,5.21,0,0,0-1.59-2.09c-.43.1-1,.1-1.49.21.32-.21.74-.32,1.06-.53l-.1-.1a14.76,14.76,0,0,0-3.51-1.47,43.25,43.25,0,0,0-8.06-1.25,52.33,52.33,0,0,0-7-.1c-2.74.08-4.09.1-6.19.28v19.05c1.61-.14,3.68-.36,5.34-.51,2.23-.11,5.52-.42,8-.63,1.17-.11,2.66-.42,3.72-.63a14.12,14.12,0,0,0,2.55-.84,10.27,10.27,0,0,1-1.91-.1,13.07,13.07,0,0,1-3.08-.94,12.25,12.25,0,0,1,3.39.1c.32,0,1.07.11,1.92.11,2.86.1,6.36.1,9.33,0,.75,0,1.7-.11,2.45-.11a20.12,20.12,0,0,1,2.33-.21c1.17,0,3.08-.21,3.93-.31,1.8-.1,2.44-.21,4.14-.42a42,42,0,0,1,4.35-.42c2.23-.1,5.94-.21,8.81-.21a80.77,80.77,0,0,1,10,.63c1,.11,2.13.32,2.66.42s.74.21,1,.21a17.32,17.32,0,0,1,3.29,1.25,10.28,10.28,0,0,1-1.8-.1l.1,1a17.28,17.28,0,0,1,3.19.94c.21.1.53.21.74.31a3.41,3.41,0,0,0,.53.21c.21.1.75.31,1.06.42,1.38.52,3.72,1.15,5,1.46,2.55.63,5,1.15,7.11,1.57s2.87.52,5,.84,5.63.62,7.64.73a19.5,19.5,0,0,0,2.13.1h.21a3.56,3.56,0,0,1-1.06-.21c-4.46-1-8.18-2.09-13-3.45-2.44-.73-6.48-2-9.13-2.92a11.92,11.92,0,0,0-1.91-.74,2,2,0,0,1-.64-.21,2.43,2.43,0,0,1-.74-.31,16.49,16.49,0,0,1-2.87-1.78,20.44,20.44,0,0,1,3.3.94,2.94,2.94,0,0,1,.74.21c.53.21,1.59.63,2.44.94,2.55.95,6.69,2.2,9,2.93,4.78,1.36,8.38,2.51,12.84,3.56a64.87,64.87,0,0,0,12.95,2.19,30.5,30.5,0,0,0,9.23-2.19,3.16,3.16,0,0,1,.54-.74c.84-1.35,1.59-2.71,2.33-4.18a71.12,71.12,0,0,1,4.67-8.26c.53-.73,1.17-1.36,1.49-1.77l.84-.84.43-.42.21-.21c0-.1,0,0,.11-.1a2,2,0,0,1,.53-.42c.21-.11.53-.42.74-.52a9.14,9.14,0,0,1,3.72-1.26,34.61,34.61,0,0,0-3.29,2c-.11.1-.53.42-.64.52l-.43.42-.1.1-.21.21c-.11.21-.22.21-.43.42s-.42.42-.74.84a11.05,11.05,0,0,0-1.38,1.67,54.9,54.9,0,0,0-4.56,8.16,36.45,36.45,0,0,1-2.23,3.86c.21-.1.31-.1.42-.21,1.27-.73,2.12-1.15,3.29-1.88a14.23,14.23,0,0,1-3,2.62c-.43.21-1.17.62-1.91.94-.74.94-1.59,1.78-2.23,2.61a7.84,7.84,0,0,0-1.91,3.56,4.39,4.39,0,0,0,1.06,3,16.23,16.23,0,0,0,2.34,2.3c.74.63,1.91,1.57,2.33,1.88,1.59,1.36,3.61,2.82,4.88,3.76s.75.53,1.91,1.36a30.25,30.25,0,0,0,4,2.41,43.5,43.5,0,0,0,6.26,2.61c2.33.73,5.52,1.36,8.17,2a20.5,20.5,0,0,1,4.25,1.57,27.52,27.52,0,0,1,3.71,2.3c1.17.83,2.23,1.67,3.4,2.4a12.63,12.63,0,0,1,1.7,1,3.83,3.83,0,0,1,1,.52c.21.11.32.11.43.21s.1.1.21.1a.31.31,0,0,0,.21.11,18.47,18.47,0,0,0,1.7.73c1.27.42,2.12.63,3.29,1h-1.38v.21a7.86,7.86,0,0,0,.74,1.25,11.72,11.72,0,0,0,1.06,1,2.75,2.75,0,0,0,1.59.62,3.58,3.58,0,0,0,1.81-.41c.53-.42.95-.74.95-1.47a3.4,3.4,0,0,0-2.12-3,19,19,0,0,0-4.14-1.46,11,11,0,0,1-3.5-1.68,7,7,0,0,1-1.8-1.77,4.56,4.56,0,0,1-.75-.84c-.32-.42-.21-.31-.63-.84a15.23,15.23,0,0,1-1.49-2,4,4,0,0,1-.64-1.68,2.61,2.61,0,0,1,.85-2,9,9,0,0,1,2-1.15,17.8,17.8,0,0,1,2.23-.84,64.41,64.41,0,0,1,8.91-2.09,16.51,16.51,0,0,1,1.91-.21h1.59a12.66,12.66,0,0,1,3.51.31,4.87,4.87,0,0,1-.75-1.46l-.84-2.82a30.78,30.78,0,0,1-3.72.83c-1.27.21-2.12.32-3.08.42a6,6,0,0,1-1.48.21c-1.17.1-2.55.1-4.25.1h-4.24a11.9,11.9,0,0,1-2.55-.2,3.73,3.73,0,0,1-2.44-1.26,3.16,3.16,0,0,1-.43-2.72,9,9,0,0,1,1.38-2.4c1-1.15,2.34-2.83,3.19-3.77s1.8-2.09,2.33-2.71a15,15,0,0,1,2.76-2.51v-.11a4.26,4.26,0,0,1-1.91.42,9.87,9.87,0,0,1-1.7-.21,17.94,17.94,0,0,0,3.4-.94,3,3,0,0,0,1.27-1.05,1.21,1.21,0,0,0,0-1.46,1.87,1.87,0,0,0-1.48-.94,4.35,4.35,0,0,0-3.72,1.57,22.83,22.83,0,0,0-2.33,3.66c-.64,1-1.7,2.4-2.13,3a20,20,0,0,1-2.54,2.61c-.75.63-.32.21-1.06.84a11.25,11.25,0,0,1-2.34,1.67,19.8,19.8,0,0,1-8.28,2.2,12.77,12.77,0,0,1-4.45-1.15,8.34,8.34,0,0,1-3-2.72,6,6,0,0,1-.63-1.57c-.11-.42,0-.42-.11-.63a1.69,1.69,0,0,1-.11-.73A5.91,5.91,0,0,1,138,118.1l-.11-.1a5.16,5.16,0,0,0-.74.94,8.42,8.42,0,0,0-.64,1.46,6.53,6.53,0,0,0-.11,1.46c-.53-1.35-.74-1.77,0-3.34a6.67,6.67,0,0,1,1.49-1.88,34,34,0,0,1,5.73-3.45,16.52,16.52,0,0,0,2.44-1.26,7.81,7.81,0,0,0,1.06-.63c.53-.31.64-.41,1.28-.83s1.69-1.26,2.44-1.88c1.48-1.26,3.82-3.35,5-4.6.63-.63.85-.95,1.06-1.15a21.37,21.37,0,0,1,2.65-2.72,26.81,26.81,0,0,1-2,3.24,5.58,5.58,0,0,1-1.06,1.25l-1.27,1.26.11.1c1.38-.1,2.12-.1,3.71-.1h2.23c1.06,0,3.4,0,4.67-.11.64-.1,1.48-.1,2-.21a4.68,4.68,0,0,0,1.06-.1c.74-.11,2.12-.31,3.18-.52s3.82-.84,4.67-1.05a12.35,12.35,0,0,0,1.59-.42,14.43,14.43,0,0,1,1.7-.42c-1.27-.2-2.76-.41-3.93-.62-1.91-.42-4.77-1-6.58-1.57l-2-.52A15.75,15.75,0,0,1,164.35,99a15.48,15.48,0,0,1,3.71.52c.43.1,1.17.31,2,.52,1.8.52,4.67,1.15,6.58,1.57s4.46.73,6.05.84a16.79,16.79,0,0,0,3.08.21c1.27,0,1.48,0,3.07-.11a26.49,26.49,0,0,0,6.16-.83A25.17,25.17,0,0,0,201,99.07a8.1,8.1,0,0,0,1.06-.73c.22-.21.22-.31.43-.42l.53-.52a11.36,11.36,0,0,0,1.06-.94l-1.27.62A38.83,38.83,0,0,1,191,100.33c-4.14.31-8.39-.63-12.42-1.47s-7.64-2-11.57-2.82c-1.91-.42-3.71-.84-5.52-1.26-.95-.2-1.91-.31-2.76-.52s-1.7-.31-2.44-.52-1.49-.31-2-.42a3.84,3.84,0,0,1-.84-.21,7,7,0,0,1-.85-.21c-.22-.1.1-.31,0-.42s0-.2,0-.31.1-.31.1-.52,0-.84.21-.84.22.73.32.84a.6.6,0,0,1,.11.42v.21C153.42,92.28,153.31,92.17,153.42,92.28Zm41.92-3.56a3,3,0,0,1,3.82-1.25A2.58,2.58,0,0,1,200.75,89a2.09,2.09,0,0,1-.11,2.09,2.92,2.92,0,0,1-3.07,1.47,2.12,2.12,0,0,1-.75-.21,2.91,2.91,0,0,1-1.59-1.57A2.09,2.09,0,0,1,195.34,88.72Zm-19.21-.94h-.75c-4.13-.73-7.85-2-8.49-6.59-.31-2.09.64-3.24,2.23-4.81a10.71,10.71,0,0,1,7.11-2.72c4.67.21,8.81,2,9.45,6.9.32,2.1-.85,3.14-2.55,4.71S178.46,87.57,176.13,87.78Zm12.31-9.1a5.5,5.5,0,0,1,.42,3.24,16.87,16.87,0,0,1-.63,1.78c-.11.11-.11.21-.22.32a.85.85,0,0,0-.21.31c-.1.21-.63.84-.74,1a8.55,8.55,0,0,1-3.08,2.1A25.93,25.93,0,0,1,186.42,85a3.61,3.61,0,0,0,.75-.94c0-.21.1-.21.1-.32a1,1,0,0,1,.11-.31,10,10,0,0,0,.53-1.57C188.12,80.56,188.23,79.73,188.44,78.68Zm-30.14-3a6.7,6.7,0,0,1,1.59-1.36c.74-.42.74-.42,1.59-.84a25.71,25.71,0,0,1,6.58-2.19,17.7,17.7,0,0,1,3.19-.42h1.69a31,31,0,0,1,3.93.31,29.34,29.34,0,0,1,5.94,1.68c.85.42,1.7.83,2,1a13.85,13.85,0,0,1,2.87,2.62c-1.28-.63-2-1-3.4-1.88-.32-.21-1.17-.63-2-1a24.86,24.86,0,0,0-5.62-1.67,25.37,25.37,0,0,0-3.72-.32h-1.59a15.59,15.59,0,0,0-3,.42,29.7,29.7,0,0,0-6.26,2.09c-1,.42-1,.53-1.59.84a8.47,8.47,0,0,0-1.6,1,6,6,0,0,0-1,1.26A2.61,2.61,0,0,1,158.3,75.65Zm-12.42,8.89c-.32.31-1.06,1-1.49,1.57A14.54,14.54,0,0,0,143,88.2c-.31.62-.42.94-.63,1.46a9.55,9.55,0,0,0-.43,1.67,8.48,8.48,0,0,0-.1,2.3,4.94,4.94,0,0,0,.31,1.36,5.74,5.74,0,0,0,.75,1.36,4.34,4.34,0,0,0,1.06.94,3.23,3.23,0,0,1-2.76-2,10.1,10.1,0,0,1-.32-1.57,10.29,10.29,0,0,1,.11-2.51c.21-.63.32-1.15.53-1.78a10.29,10.29,0,0,1,.63-1.57,18.87,18.87,0,0,1,1.49-2.3,13.12,13.12,0,0,1,1.59-1.67A10.31,10.31,0,0,1,149,82C147.9,83,147.05,83.6,145.88,84.54Z" transform="translate(0 -1)"/><path class="cls-2" d="M177.93,117.37a3.54,3.54,0,0,1-.85.52c-.32.11-.63.21-1.06.32a4.41,4.41,0,0,0,.74-.63A5.82,5.82,0,0,0,177.93,117.37Z" transform="translate(0 -1)"/><path class="cls-3" d="M126,115.9c.21-.1.32-.2.43-.2,1.27-.74,2.12-1.26,3.29-1.89a12.08,12.08,0,0,1-3,2.62,17,17,0,0,1-1.91.94,8.38,8.38,0,0,0,.84-1.15C125.93,116.11,126,116,126,115.9Z" transform="translate(0 -1)"/><path class="cls-2" d="M193,117.05c.53.42,1.06.84,1.49,1.26a2,2,0,0,1,.21.73c0,.42-.21.73-.53.73h0a.62.62,0,0,0-.11-.73l-.31-.31h0c-.11-.21-.11-.32-.22-.42a1.35,1.35,0,0,0-.63-.42c-.11,0-.22-.1-.32-.1a2.13,2.13,0,0,0-.64-.42c-.21-.11-.32-.21-.53-.32a1.43,1.43,0,0,1,.64-.1A3.45,3.45,0,0,1,193,117.05Z" transform="translate(0 -1)"/><path class="cls-3" d="M89.1,113.92c-2.34-.63-6.48-2-9.13-2.93a17.66,17.66,0,0,1-1.91-.73c-.42-.11-.32-.11-.64-.21s-.53-.21-.74-.31A13.6,13.6,0,0,1,73.81,108a19.47,19.47,0,0,1,3.3.94c.21.1.31.1.84.31s1.6.63,2.45.94c2.54.84,6.68,2.2,9,2.93,4.67,1.36,8.38,2.51,12.84,3.56a64.75,64.75,0,0,0,12.95,2.19,24.68,24.68,0,0,0,9.23-2.19,13.43,13.43,0,0,0-1.06,1.36,28.55,28.55,0,0,1-8.17,1.67,39.92,39.92,0,0,1-9.66-1.36c.32,0,.53-.1.85-.1a32.23,32.23,0,0,0-3.4-.42,3.63,3.63,0,0,0-1.06-.21C97.59,116.43,93.87,115.38,89.1,113.92Z" transform="translate(0 -1)"/><path class="cls-2" d="M121,127.09a4.87,4.87,0,0,1-1.16-3.45,9.42,9.42,0,0,1,2-4c.43-.52,1-1.15,1.38-1.67.53-.21,1.06-.42,1.38-.53l.11-.1c-.74.94-1.59,1.88-2.23,2.61a7.84,7.84,0,0,0-1.91,3.56,3.84,3.84,0,0,0,1.06,3,12,12,0,0,0,2.34,2.3,25.31,25.31,0,0,0,2.33,1.88c1.59,1.26,3.72,2.82,4.88,3.77s.64.52,1.91,1.36a23,23,0,0,0,4,2.4,43.5,43.5,0,0,0,6.26,2.61c2.33.74,5.52,1.36,8.17,2a23.11,23.11,0,0,1,4.25,1.57,22,22,0,0,1,3.71,2.3c1.17.84,2.34,1.67,3.4,2.4a10.52,10.52,0,0,0,1.7,1,2.85,2.85,0,0,0,1,.52c.21.11.32.21.43.21a.31.31,0,0,0,.21.11c.1,0,.1.1.21.1a18.47,18.47,0,0,0,1.7.73c1.27.42,2.12.73,3.29,1h-1.38a8.82,8.82,0,0,1-2.23-.32,12.46,12.46,0,0,1-1.81-.73.34.34,0,0,1-.21-.1c-.1,0-.1,0-.21-.11s-.21-.1-.42-.21a8.88,8.88,0,0,1-1-.52c-.42-.31-1.17-.73-1.7-1-1.16-.74-2.33-1.68-3.39-2.41a40.75,40.75,0,0,0-3.61-2.19,19.59,19.59,0,0,0-4.14-1.57c-2.65-.63-5.84-1.26-8.17-2a53.64,53.64,0,0,1-6.48-2.72,28,28,0,0,1-4.14-2.51,21.87,21.87,0,0,1-1.91-1.36c-1.27-.94-3.29-2.4-5-3.76a28.75,28.75,0,0,1-2.33-1.88A13.2,13.2,0,0,1,121,127.09Z" transform="translate(0 -1)"/><path class="cls-2" d="M172.31,128.87a3.37,3.37,0,0,1-1.17,1.78,2.88,2.88,0,0,1-1.49.52,3.44,3.44,0,0,1-1.48-.42,4,4,0,0,1-1.59-2,3.3,3.3,0,0,1,.21-2.1,5.18,5.18,0,0,1,2-2.19c0,.1.11.1.11.21a22.62,22.62,0,0,0-1.27,2.3,2.51,2.51,0,0,0-.11,1.57,3.16,3.16,0,0,0,1.17,1.56,2,2,0,0,0,1.91,0,2.9,2.9,0,0,0,.95-1.35,2.21,2.21,0,0,0,.11-.84v-1.05c0-.52-.11-1.46-.11-2.19a8.41,8.41,0,0,1,.64-2.72,8.24,8.24,0,0,1,1.38-2.09,5.11,5.11,0,0,1,1.06-1,6.69,6.69,0,0,1,2.23-1.15c-.21.21-.53.42-.74.63.42-.1.74-.21,1.06-.31a11,11,0,0,0-1.91,1.46,3.88,3.88,0,0,0-1,.94,8.58,8.58,0,0,0-1.16,1.88,10.25,10.25,0,0,0-.64,2.41c0,.73.11,1.57.11,2.19v1.05A2.28,2.28,0,0,0,172.31,128.87Z" transform="translate(0 -1)"/><path class="cls-2" d="M168.49,123.85a5.11,5.11,0,0,1,.1-1.78,6.68,6.68,0,0,0,.21-1.46c.11-.52.11-.84.22-1.36a8.53,8.53,0,0,0-.11-1.67,4.81,4.81,0,0,1,0-1.26c.43.32.74.53.85,1.05a10.79,10.79,0,0,1,.11,1.88,6.7,6.7,0,0,1-.22,1.46,7.81,7.81,0,0,0-.21,1.36,9.48,9.48,0,0,0-.1,1.68,5,5,0,0,1-.22,1.25l-.32-.31c.11-.21.22-.32.32-.53a1.39,1.39,0,0,0-.42.32C168.59,124.27,168.59,124.06,168.49,123.85Z" transform="translate(0 -1)"/><path class="cls-2" d="M169.23,124.16a2.46,2.46,0,0,1-.32.53c0-.11-.11-.11-.11-.21A1.6,1.6,0,0,1,169.23,124.16Z" transform="translate(0 -1)"/><path class="cls-5" d="M177.08,77.64a2.46,2.46,0,0,1,3-1.15c1.17.31,1.92,1.25,1.38,2.4a2.46,2.46,0,0,1-3,1.15C177.3,79.73,176.55,78.79,177.08,77.64Z" transform="translate(0 -1)"/><path class="cls-2" d="M125,115.9a26.36,26.36,0,0,0,2.34-4.18,57.06,57.06,0,0,1,4.67-8.26c.42-.62,1.06-1.25,1.48-1.77a6.49,6.49,0,0,1,.85-.84l.43-.42.21-.21.1-.1a2.18,2.18,0,0,1,.53-.42,5.08,5.08,0,0,0,.75-.52A9.62,9.62,0,0,1,140,97.92a34.61,34.61,0,0,0-3.29,2c-.1.1-.53.42-.63.52s-.32.31-.43.31-.11,0-.11.11l-.21.21-.42.42a6.89,6.89,0,0,0-.75.83c-.31.42-.95,1-1.37,1.68a54.85,54.85,0,0,0-4.57,8.15A36.57,36.57,0,0,1,126,116c-.42.21-1,.52-1.48.73h-.11A3.36,3.36,0,0,0,125,115.9Z" transform="translate(0 -1)"/><path class="cls-2" d="M181,130a12.71,12.71,0,0,1,5.41-.73,4.07,4.07,0,0,1,2.55,1.36,3.77,3.77,0,0,1,.74,2.61,4,4,0,0,1-1.16,2.41,6.32,6.32,0,0,1-2.45,1,4.67,4.67,0,0,1-2.22-.31,3.83,3.83,0,0,1-1.6-1.05,4.86,4.86,0,0,1-.74-1.46,5.52,5.52,0,0,0,1.17,1,4.76,4.76,0,0,0,1.48.74,3.65,3.65,0,0,0,1.81.21,4.36,4.36,0,0,0,1.91-.74,3.18,3.18,0,0,0,1-1.88,3.11,3.11,0,0,0-.53-2,2.92,2.92,0,0,0-2-1,12.86,12.86,0,0,0-4.89.73c-.21.11-.42.11-.63.21a19.08,19.08,0,0,1-3.72.84c-1.27.21-2.12.31-3.07.41s-.43.11-1.49.21-2.55.11-4.25.11H164a10.88,10.88,0,0,1-2.55-.21,4.54,4.54,0,0,1-2.44-1.26,3.38,3.38,0,0,1-.42-2.71,8.51,8.51,0,0,1,1.38-2.41c.95-1.25,2.33-2.82,3.18-3.76s1.8-2.09,2.33-2.72a20.17,20.17,0,0,1,2.76-2.51c-.85,1.15-1.06,1.78-2.12,3-.53.63-1.48,1.67-2.33,2.72s-2.23,2.61-3.19,3.76a7,7,0,0,0-1.17,2.1,2.17,2.17,0,0,0,.22,2,2.55,2.55,0,0,0,1.91.94,17.25,17.25,0,0,0,2.33.11h5.84a17.5,17.5,0,0,0,2.55-.11c1.06-.1.53,0,1.48-.1s1.81-.21,3-.42A33.89,33.89,0,0,0,181,130Z" transform="translate(0 -1)"/><path class="cls-2" d="M194.49,118.41a9,9,0,0,0-1.49-1.25c.11,0,.11,0,.22.1a3.29,3.29,0,0,1,.95.74C194.28,118,194.38,118.21,194.49,118.41Z" transform="translate(0 -1)"/><path class="cls-2" d="M158.4,75.65a5.22,5.22,0,0,1,1.6-1.36,18,18,0,0,1,1.69-.94,30.26,30.26,0,0,1,6.58-2.2,18.72,18.72,0,0,1,3.19-.41h1.7a29.08,29.08,0,0,1,3.92.31A30.07,30.07,0,0,1,183,72.72c.85.42,1.69.84,2,1a13.6,13.6,0,0,1,2.87,2.61c-1.28-.73-2-1.15-3.4-1.88-.32-.21-1.17-.63-2-1a27.35,27.35,0,0,0-5.63-1.67,26.45,26.45,0,0,0-3.71-.31h-1.6a15.59,15.59,0,0,0-3,.42A26.92,26.92,0,0,0,162.33,74c-1.17.52-1.17.63-1.8.94a8.47,8.47,0,0,0-1.6,1,2.68,2.68,0,0,0-1,1.26A2.11,2.11,0,0,1,158.4,75.65Z" transform="translate(0 -1)"/><path class="cls-2" d="M191.3,117.05a2.32,2.32,0,0,1,.54.32,2.1,2.1,0,0,1,.63.42h-.53a2.59,2.59,0,0,0-.95.31c-.22.11-.64.42-.85.21s0-.63.32-.84A2.21,2.21,0,0,1,191.3,117.05Z" transform="translate(0 -1)"/><path class="cls-2" d="M160.74,112.25a6.56,6.56,0,0,1,3.29.62l-.11.11a16.31,16.31,0,0,0-3.08.21,12.41,12.41,0,0,0-2,.41,20.75,20.75,0,0,0-3,1.57c-.43.32-1,.63-1.28.84a1.75,1.75,0,0,1-.63.31c-.32.21-.43.21-.75.42a5,5,0,0,1-1.8.42,2.27,2.27,0,0,1-1.17-.31,6.32,6.32,0,0,1-.74-.84,1.8,1.8,0,0,1,.1-1.78,4.41,4.41,0,0,1,1.28-1.15.66.66,0,0,1,.42-.1,2.56,2.56,0,0,1,1.49-.11l-.32.32a2.74,2.74,0,0,1,1,0h0a2.17,2.17,0,0,1,.84.62,4,4,0,0,0-3.07.21c-.22.11-.75.42-.85.73a1.18,1.18,0,0,0,0,1,1.29,1.29,0,0,0,1.16.73,6.7,6.7,0,0,0,1.38-.31,3.44,3.44,0,0,0,.64-.32,1.72,1.72,0,0,0,.64-.31,14.33,14.33,0,0,1,1.27-.73,18,18,0,0,1,3.19-1.57A3.2,3.2,0,0,1,160.74,112.25Z" transform="translate(0 -1)"/><path class="cls-2" d="M168,106.39c-.64.1-1.38.1-2,.21-1,.1-2.55.1-3.72.1l.11-.1a.34.34,0,0,0,0-.52c-.11-.21-.42-.11-.64,0s-.31.41-.42.52a.1.1,0,0,1-.11.1H159a17.61,17.61,0,0,1-3.61-.73,21.71,21.71,0,0,1,3.72-.1h2.23c1,0,3.39,0,4.67-.11a12.58,12.58,0,0,0,2-.21c.53-.1.32,0,1.06-.1s2.13-.31,3.19-.52,3.82-.84,4.67-1.05a12.35,12.35,0,0,0,1.59-.42,14.43,14.43,0,0,1,1.7-.42c.42,0,.74.11,1.06.11a19.73,19.73,0,0,1-2.55,1.15,14.43,14.43,0,0,1-1.59.42A5.76,5.76,0,0,1,176,105l-.1-.1v.1c-1.17.31-2.76.63-3.61.84-1.06.21-2.44.42-3.29.52S168.59,106.29,168,106.39Z" transform="translate(0 -1)"/><path class="cls-2" d="M61.82,69.27c-.74.53-1.48,1-2,1.47a10.77,10.77,0,0,0-1.07.83c-.31.21-.53.42-.74.53s-.32.2-.53.41a3.6,3.6,0,0,0-.64.53,27.87,27.87,0,0,1-3,2,14.89,14.89,0,0,1,1.59-1.88,5.1,5.1,0,0,0,.75-.73c.1-.11.42-.31.63-.52a1.81,1.81,0,0,0,.53-.42,4.25,4.25,0,0,1,.75-.52,11.54,11.54,0,0,1,1.06-.84,11.61,11.61,0,0,1,2.12-1.46c1.49-1,2.87-2,4.67-3A200.19,200.19,0,0,1,87.72,55c3.82-1.57,8.06-3.24,12-4.6s8-2.93,12-4A47,47,0,0,1,124.23,45a67.2,67.2,0,0,1,11.89,1.77c6.68,1.47,15.17,3.77,20.59,5.34s10.71,3.65,14.11,5,3.82,1.68,5.63,2.41.53.31,1.91.84,2.12,1,3.92,1.67a33.71,33.71,0,0,0,6.48,1.36,49.67,49.67,0,0,1,8.38,1.46,13.75,13.75,0,0,1,4.14,2.3,6.87,6.87,0,0,1,2.44,4,4.2,4.2,0,0,1-.42,2.3c-.21.74-.75,1.36-1,2.1a3.48,3.48,0,0,0-.1,2.09,6.84,6.84,0,0,0,1.16,2.09c1.07,1.36,2.34,2.61,3.4,4.08a13.69,13.69,0,0,1,2.44,4.81,4.85,4.85,0,0,1-.1,2.71,5.19,5.19,0,0,1-1.49,2.41,25.74,25.74,0,0,1-2.76,1.88,5.24,5.24,0,0,0,.32-.73,15.51,15.51,0,0,1-1.38,1.25l-1.28.63A38.52,38.52,0,0,1,190.77,100c-4.14.32-8.49-.63-12.41-1.46s-7.75-2-11.57-2.82c-1.91-.42-3.72-.84-5.52-1.26-1-.21-1.91-.42-2.76-.52a24.49,24.49,0,0,0-2.44-.52c-.74-.21-1.49-.32-2-.42a6.1,6.1,0,0,1-.85-.21c-.32-.11-.63-.11-.85-.21s0-.31,0-.42v-.31a1.1,1.1,0,0,1,.11-.53c.11-.21.11-.83.21-.83s.21.62.32.83.11.32.11.42V92h.1c.11,0,.11,0,.43.11a2.5,2.5,0,0,1,.74.1c.53.11,1.27.31,2,.42s1.59.31,2.44.52,1.8.32,2.65.52c1.81.42,3.61.84,5.52,1.26,3.82.84,7.64,1.88,11.57,2.72s8,1.77,12,1.46A34,34,0,0,0,202,95.93a15.33,15.33,0,0,0,4.78-2.82,4.6,4.6,0,0,0,1.38-4.39,12,12,0,0,0-2.23-4.5c-1.06-1.36-2.33-2.71-3.39-4.07a7,7,0,0,1-1.28-2.3,3.39,3.39,0,0,1,.11-2.51c.53-1.47,1.38-2.62,1.27-4.19a5.24,5.24,0,0,0-2.12-3.45,10.92,10.92,0,0,0-3.72-2.09,46.53,46.53,0,0,0-8.17-1.46,38.78,38.78,0,0,1-6.79-1.46,37.11,37.11,0,0,1-4-1.78,18.29,18.29,0,0,0-1.91-.84c-1.81-.73-2.23-1.15-5.63-2.4s-8.6-3.35-14-4.92-13.9-3.87-20.48-5.33a67.25,67.25,0,0,0-11.68-1.78A44.54,44.54,0,0,0,111.92,47a125.07,125.07,0,0,0-12,3.87c-3.92,1.46-8.17,3-11.88,4.6A196.36,196.36,0,0,0,66.49,66C64.69,67.29,63.31,68.23,61.82,69.27Z" transform="translate(0 -1)"/><path class="cls-3" d="M50.15,85.06a17.76,17.76,0,0,0-1.28,2.41,4.83,4.83,0,0,0-.42,1.67,3.67,3.67,0,0,0,.32,1.46,5.32,5.32,0,0,0,1.48,1.88,5.47,5.47,0,0,0,1.6,1c1.16.62,2,.94,3.07,1.56-.53-.1-1-.1-1.38-.21a11.56,11.56,0,0,1-2.12-.62,8.84,8.84,0,0,1-1.8-1,6.89,6.89,0,0,1-1.7-2.19,3.73,3.73,0,0,1-.32-1.78,6.14,6.14,0,0,1,.42-2l.32-.63c.32-.62.85-1.46,1.06-1.88s.64-1,.75-1.25a20.62,20.62,0,0,1,2.23-2.83A29.44,29.44,0,0,1,51,83.81,5,5,0,0,0,50.15,85.06Z" transform="translate(0 -1)"/><path d="M178.46,80a2.37,2.37,0,0,0,3-1.15c.54-1.15-.31-2.09-1.38-2.4a2.37,2.37,0,0,0-3,1.15A1.76,1.76,0,0,0,178.46,80Zm-2.12-4.91H177c3.29.52,6.58,1.78,7,5.43.21,1.57-.64,2.41-1.91,3.46a9,9,0,0,1-5.73,2c-3.5-.21-6.9-1.25-7.54-5-.21-1.57.54-2.4,1.7-3.66A9.33,9.33,0,0,1,176.34,75.13Z" transform="translate(0 -1)"/><path class="cls-2" d="M138.56,124a8.48,8.48,0,0,0,2.65,2.5,10.71,10.71,0,0,0,4,1,16.94,16.94,0,0,0,7.64-2.1,13,13,0,0,0,2.23-1.56,7.22,7.22,0,0,0,1.06-.84,28.42,28.42,0,0,0,2.45-2.51,19.94,19.94,0,0,0,2-2.93,25.78,25.78,0,0,1,2.44-3.76,5.23,5.23,0,0,1,.75-.73h.42c-.11,0-.21-.11-.32-.11a4.63,4.63,0,0,1,3.82-1,3.33,3.33,0,0,1,2,1.25,1.53,1.53,0,0,1,.32,1.26,1.89,1.89,0,0,1-.32,1.15,2.52,2.52,0,0,1-.85.94l-.95.62h-.11a6,6,0,0,1-1.91.42,9,9,0,0,1-1.7-.21c1.17-.31,2.12-.52,3.4-.94a2.88,2.88,0,0,0,1.27-1,1.46,1.46,0,0,0,0-1.47,2,2,0,0,0-1.49-.94,4.55,4.55,0,0,0-3.71,1.57,22.57,22.57,0,0,0-2.33,3.66,28.89,28.89,0,0,1-2.13,3,20.82,20.82,0,0,1-2.54,2.62,7.74,7.74,0,0,1-1.07.83,16,16,0,0,1-2.33,1.68,16.84,16.84,0,0,1-8.28,2.19,9.46,9.46,0,0,1-4.46-1.15,8.22,8.22,0,0,1-3-2.72A6.11,6.11,0,0,1,137,123a1.57,1.57,0,0,1-.1-.62,2,2,0,0,1-.11-.73,7.07,7.07,0,0,1,1.06-3.25,31,31,0,0,0-.21,3.14,1.48,1.48,0,0,0,.11.63c.1.21,0,.21.1.52C138.13,122.91,138.24,123.43,138.56,124Z" transform="translate(0 -1)"/><path class="cls-2" d="M164.35,112.87h-.43l.11-.1A.4.4,0,0,0,164.35,112.87Z" transform="translate(0 -1)"/><path class="cls-2" d="M192.9,121.24a2.69,2.69,0,0,0,1.8-.63c-.11.1-.32.21-.42.31a2.55,2.55,0,0,1-2.13.21c-.1,0-.21,0-.21-.1A1.61,1.61,0,0,0,192.9,121.24Z" transform="translate(0 -1)"/><path class="cls-4" d="M185.79,114.65a20.63,20.63,0,0,1,3.39,1.36c.43.21,1.38.73,2.12,1.15a5.52,5.52,0,0,0-.74.31c-.32.21-.53.63-.32.84s.53-.1.85-.21a2.65,2.65,0,0,1,1-.31h.53a10.66,10.66,0,0,1,1.17.94h0c0,.1.1.31.1.42s0,.62.32.62a1.39,1.39,0,0,1-.32.42c-.1.11-.32.11-.42.21h-.53a4.44,4.44,0,0,1-1.81-.52c-.74-.42-1.91-1.26-2.65-1.67a17,17,0,0,0-1.91-.95,15.66,15.66,0,0,0-2.34-.62,20.7,20.7,0,0,0-3.5-.32,5.4,5.4,0,0,0-1.59.21,6.24,6.24,0,0,0-2.34,1.15,6.57,6.57,0,0,0-2.22,1.15,9.29,9.29,0,0,0-1.07,1,8.24,8.24,0,0,0-1.38,2.09,8,8,0,0,0-.63,2.72c0,.73.1,1.67.1,2.19v1.05a2.42,2.42,0,0,1-.1.84,2.35,2.35,0,0,1-1,1.35,2,2,0,0,1-1.91,0,3.46,3.46,0,0,1-1.17-1.56,2.44,2.44,0,0,1,.11-1.57,12.19,12.19,0,0,1,1.27-2.3l.32.31a4.29,4.29,0,0,0,.22-1.25,9.48,9.48,0,0,1,.1-1.68,6.75,6.75,0,0,0,.21-1.36,6.7,6.7,0,0,0,.22-1.46,5.68,5.68,0,0,0-.11-1.88c-.11-.52-.42-.73-.85-1.05h0a2.44,2.44,0,0,0,.85-.94,1.87,1.87,0,0,0,.32-1.15c-.11-.42,0-.73-.32-1.25a3.34,3.34,0,0,0-2-1.26,5.6,5.6,0,0,0-2.65.32,4.36,4.36,0,0,0-1.17.73,8,8,0,0,0-3.29-.63,7.62,7.62,0,0,0-2.23.52,23.4,23.4,0,0,0-3.18,1.57A5.42,5.42,0,0,1,154,115a1.92,1.92,0,0,1-.64.32,3.49,3.49,0,0,1-.64.31,4.34,4.34,0,0,1-1.38.31c-.42,0-.85-.41-1.17-.73a1.22,1.22,0,0,1,0-1,1.41,1.41,0,0,1,.85-.73,4.44,4.44,0,0,1,3.08-.21,3.14,3.14,0,0,0-.85-.63,1.06,1.06,0,0,0,.64-.21c.85-.31,2.33-.94,3.4-1.25s2.54-.95,3.39-1.26.75-.52,1.38-.94h-1.17l-.1-.31a.82.82,0,0,0,.42-.42,3.37,3.37,0,0,1,.32-.94c.11-.21.32-.42.43-.63,1.16,0,2.76,0,3.71-.11a13.82,13.82,0,0,0,2-.2c.63-.11.32,0,1.06-.11s2.12-.31,3.29-.52c.74-.11,2.44-.52,3.61-.84a18.24,18.24,0,0,1,1,2.82c0,.21.11.74.21,1.36a7.68,7.68,0,0,0,1,2.72,5.65,5.65,0,0,0,1.49,1.26,11.09,11.09,0,0,0,1.8.52c1,.21,2.12.42,3,.63A12.32,12.32,0,0,1,185.79,114.65Z" transform="translate(0 -1)"/><path class="cls-2" d="M170.4,149.15a42.92,42.92,0,0,1,4.35,1.47,6.61,6.61,0,0,1,1.91,1.57,3.92,3.92,0,0,1,.74,2.19,3.34,3.34,0,0,1-1.27,2.09,5,5,0,0,1-2.44.63,4.31,4.31,0,0,1-2.13-.73,2.77,2.77,0,0,1-1.06-1.47,3.81,3.81,0,0,1-.1-1.56,7.86,7.86,0,0,0,.74,1.25,5.27,5.27,0,0,0,1.06,1,3.66,3.66,0,0,0,1.59.62,3.58,3.58,0,0,0,1.81-.41,1.65,1.65,0,0,0,1-1.47,3.76,3.76,0,0,0-2.12-3,36.87,36.87,0,0,0-4.14-1.46,13.57,13.57,0,0,1-3.5-1.68,17.62,17.62,0,0,1-2-1.77,4.83,4.83,0,0,1-.74-.84,5.57,5.57,0,0,1-.64-.84,19.16,19.16,0,0,1-1.48-2,3.89,3.89,0,0,1-.64-1.68,2.58,2.58,0,0,1,.85-2,4.75,4.75,0,0,1,2-1.15c.75-.32,1.49-.53,2.23-.84a68.49,68.49,0,0,1,8.92-2.09c.74-.11,1.48-.11,1.91-.21h1.59a18.84,18.84,0,0,1,3.5.31c-1.16.21-2.23.42-3.5.53h-1.59c-.43.1-1.17.1-1.91.21a89.91,89.91,0,0,0-8.81,2,13.31,13.31,0,0,0-3.93,1.78,1.52,1.52,0,0,0-.63,1.36,2.46,2.46,0,0,0,.53,1.36,10.86,10.86,0,0,0,1.38,1.78,4.67,4.67,0,0,0,.63.73,5.27,5.27,0,0,0,.75.73c.53.42,1.06,1,1.91,1.67A6.44,6.44,0,0,0,170.4,149.15Z" transform="translate(0 -1)"/><path class="cls-2" d="M153.42,112.66h-1l.32-.31Z" transform="translate(0 -1)"/><path d="M199.16,89.66c-.11-.31-.43-.52-.64-.73s-.1-.11-.53-.11-1.17.21-1.27.63-.21.42,0,.84a1.27,1.27,0,0,0,.74.73,1.7,1.7,0,0,0,1.7-.52C199.37,90.08,199.26,90.08,199.16,89.66Zm-.43-1.36a1.77,1.77,0,0,1,1.07,2.51,2.11,2.11,0,0,1-2.76.94A1.77,1.77,0,0,1,196,89.24,2,2,0,0,1,198.73,88.3Z" transform="translate(0 -1)"/><path d="M198.52,89a.8.8,0,0,1,.64.74.82.82,0,0,1-.11.83,1.63,1.63,0,0,1-1.7.52c-.42-.2-.63-.31-.74-.73a1.19,1.19,0,0,1,0-.83c.11-.42,1-.63,1.28-.63A1.2,1.2,0,0,1,198.52,89Z" transform="translate(0 -1)"/><path class="cls-2" d="M24,77.22c0,.1-.11.1-.11.1a22.09,22.09,0,0,1-4.56,1.15c-2.87.42-6.69.74-9.34.94A78.45,78.45,0,0,1,2,79.83l-1.84.06v.59l1.84,0c1.81-.1,5.42-.21,8.07-.42s6.69-.52,9.66-.94a21.5,21.5,0,0,0,4.88-1.25.38.38,0,0,1,.21-.11A4.3,4.3,0,0,1,24,77.22Z" transform="translate(0 -1)"/><path class="cls-2" d="M25.52,97.19a1.23,1.23,0,0,0-.42-.31c.32-.11.53-.21.85-.32.21.21.42.32.64.52A3.2,3.2,0,0,0,25.52,97.19Z" transform="translate(0 -1)"/><path class="cls-2" d="M25.63,96.35a15,15,0,0,0-3.71-1.67,57.45,57.45,0,0,0-8.28-1.25,56,56,0,0,0-7.11-.11c-2.9.09-4.19,0-6.41.27v.66c2.22-.2,3.49-.21,6.3-.3,1.59,0,4.67-.11,7,.1a44.7,44.7,0,0,1,8.07,1.26A11.52,11.52,0,0,1,25,96.77a3.53,3.53,0,0,0,.85-.31C25.74,96.46,25.74,96.35,25.63,96.35Z" transform="translate(0 -1)"/><path class="cls-2" d="M29.77,96.25a16.34,16.34,0,0,0-2.12.42,4.89,4.89,0,0,1-1.17.21c-.21-.21-.43-.32-.64-.53a5.6,5.6,0,0,1,1.59-.52l2.13-.52c.85-.11,2.54-.42,3.71-.63s2.87-.31,4-.52A55.51,55.51,0,0,1,44.52,94a16.8,16.8,0,0,1,2.44.21h.43a9.87,9.87,0,0,1,1.17.1c1.06.11,2.75.32,4.56.63s3.71.63,5.31,1,5.62,1.36,7.32,2c1.06.31,2.33.73,2.86.94a13,13,0,0,1,3.19,1.67,25.06,25.06,0,0,1-3.61-.94l-2.87-.94c-1.8-.62-5.73-1.57-7.32-2a93.45,93.45,0,0,0-9.76-1.78c-2.13-.21-.53,0-1.6-.11s-1.27-.1-2.44-.2a55,55,0,0,0-7.11.2c-1.16.11-2.86.32-4,.53A9.27,9.27,0,0,1,29.77,96.25Z" transform="translate(0 -1)"/><path class="cls-2" d="M19.79,110.36c.22-.1.22-.21.32-.21s1-.41,1-.1-.11.31-.53.42h0a6,6,0,0,1-.75-.11Z" transform="translate(0 -1)"/><path class="cls-2" d="M36.56,81.61c2.34.94,5.1,1.88,7.22,2.51,1.06.31,1.8.52,2.33.73s.32,0,.53.21.22.73-.1.84h0c-.32.1-.11,0-.74-.21s-1.28-.42-2.34-.84c-2.12-.63-5-1.67-7.32-2.51l-4-1.46c-1.16-.42-2.86-1.15-3.71-1.57a12.09,12.09,0,0,1-2-.94,8.56,8.56,0,0,1-1.48-.84c.32-.1.63-.31.95-.42a11.9,11.9,0,0,0,1.17.42c.42.21,1.17.53,2,.94s2.44,1,3.61,1.47A26.69,26.69,0,0,0,36.56,81.61Z" transform="translate(0 -1)"/><path class="cls-2" d="M28,99.07a2.87,2.87,0,0,1,.21,1.36c-.21-.21-.75-.42-1-.63s-.1-.31-.21-.52a6.09,6.09,0,0,0-1.59-2.09,3.25,3.25,0,0,0,.95-.21A6.12,6.12,0,0,1,28,99.07Z" transform="translate(0 -1)"/><path class="cls-2" d="M68.61,110.05a6,6,0,0,0-1-.1c-.53-.11-1.59-.32-2.55-.42-2.86-.32-7-.63-9.87-.63s-6.58.1-8.81.21-2.65.21-4.35.31-2.33.32-4.14.53c-.95.1-2.76.2-3.93.31a18.29,18.29,0,0,0-2.33.21c-.74,0-1.7.1-2.44.1s-1.7.11-2.55.11a19.84,19.84,0,0,1-2.44,0c-.74,0-1.7-.11-2.44-.11a5.4,5.4,0,0,1-1.27-.1c.42-.21.42-.21.53-.42s-.85.1-1,.1-.1.11-.32.21-.1.11-.1.11h0c-.64,0-1.6-.11-1.91-.11a13.07,13.07,0,0,1-3.08-.94,18.59,18.59,0,0,1,3.39.11c.43,0,1.07.1,1.92.1,2.86.11,6.26.11,9.33,0a20.08,20.08,0,0,0,2.45-.1,16.81,16.81,0,0,0,2.33-.21c1.27-.11,3.08-.21,3.93-.32,1.8-.21,2.44-.31,4.14-.41s2.12-.21,4.35-.42,5.94-.32,8.81-.21,7,.31,10,.63c1,.1,2.13.31,2.66.41a5,5,0,0,1,1,.21,18.05,18.05,0,0,1,3.29,1.26c-.63,0-1.16-.11-1.8-.11Z" transform="translate(0 -1)"/><path class="cls-2" d="M44.42,68.23a43.71,43.71,0,0,0-4.14-1.57c-.64-.21-1.7-.63-2.44-.84S36,65.3,35.08,65a51.31,51.31,0,0,0-11-1.68,17.53,17.53,0,0,0-2.34,0c-1.8,0-2.65,0-4.14-.1a25.21,25.21,0,0,1,4.14-.73H24a.35.35,0,0,0,.21.1c.21.11.11.21.32.21s1.06.52,1.06.21,0-.31-.42-.52c.53,0,1.06.1,1.59.1.85.11,1.91.31,2.86.42a28.17,28.17,0,0,1,3,.52c1,.21,2,.42,2.86.63a20.23,20.23,0,0,1,2.76.84c.85.2,1.8.62,2.44.83C42,66.24,44,67.08,45,67.39c1.8.73,2.86,1.15,4.45,1.78s2.66,1.15,4.14,1.88c.32.21,1.17.63,1.6.84-.22.1-.32.31-.54.41a.37.37,0,0,1-.31.11A2.42,2.42,0,0,1,53,71.78c-1.48-.73-2.65-1.25-4.14-1.88S46.22,69,44.42,68.23Z" transform="translate(0 -1)"/><path class="cls-2" d="M25.1,96.88c.11.1.32.2.42.31-.42.1-.95.1-1.48.21A8.44,8.44,0,0,1,25.1,96.88Z" transform="translate(0 -1)"/><path class="cls-2" d="M23.93,62.37a4.59,4.59,0,0,1,1.17.11h0c.42.21.42.31.42.52s-.95-.21-1.06-.21-.1-.1-.32-.21S24,62.37,23.93,62.37Z" transform="translate(0 -1)"/><path class="cls-2" d="M25,62.37a12.45,12.45,0,0,0-3.07-1.25,42.07,42.07,0,0,0-4.57-.94c-3-.42-7.11-.74-9.87-.84-2.33-.09-5.33-.1-7.36-.1v.17c2,0,5,.05,7.15.14,2.76.1,6.79.42,9.66.84,1.48.2,3.08.52,4.35.83A9.71,9.71,0,0,1,24,62.37a3.85,3.85,0,0,0,1.17.11C25.1,62.48,25.1,62.37,25,62.37Z" transform="translate(0 -1)"/><path class="cls-2" d="M24.78,77.74a3,3,0,0,1-.74-.52,3,3,0,0,0,.53-.31h0c.32.1.64.2,1.06.31A2.22,2.22,0,0,1,24.78,77.74Z" transform="translate(0 -1)"/><path class="cls-2" d="M24,77.22A9.9,9.9,0,0,0,23,76.59a7.39,7.39,0,0,1,1.59.42A.85.85,0,0,1,24,77.22Z" transform="translate(0 -1)"/><path class="cls-2" d="M24.68,77a12.49,12.49,0,0,0,2.75-1.88c.22-.21.11-.32.43-.52a6.3,6.3,0,0,0,1.27-.42,4.93,4.93,0,0,1-.95,1.25,11.45,11.45,0,0,1-2.55,1.88A3.3,3.3,0,0,0,24.68,77Z" transform="translate(0 -1)"/><path class="cls-2" d="M19.58,110.57a14.12,14.12,0,0,1-2.55.84c-1.06.21-2.54.52-3.71.63-2.44.21-5.73.41-8,.62l-5.24.51v.41l5.24-.5,8.17-.73c1.17-.1,2.87-.42,3.93-.63a18,18,0,0,0,2.86-.94c0-.1.11-.1.11-.1A2.57,2.57,0,0,0,19.58,110.57Z" transform="translate(0 -1)"/></g></g></svg>