<?xml version="1.0" encoding="UTF-8" standalone="no"?>
<svg xmlns="http://www.w3.org/2000/svg" version="1.2" baseProfile="tiny" viewBox="0.00 0.00 720.00 480.00">
<g stroke-width="2.00" fill="none" stroke-linecap="butt">
<path stroke="#a1a09f" vector-effect="non-scaling-stroke" d="
  M 0.00 93.99
  Q 5.36 97.66 8.04 98.25
  Q 12.23 99.16 23.25 98.82
  Q 30.04 98.61 36.54 98.22
  C 44.66 97.73 53.10 94.10 60.28 90.31
  A 1.31 1.30 53.6 0 0 60.59 88.24
  Q 59.30 86.95 57.04 86.36
  Q 45.33 83.27 42.36 82.65
  Q 28.82 79.84 14.50 80.57
  Q 9.62 80.82 0.00 82.72"
/>
<path stroke="#a1a09f" vector-effect="non-scaling-stroke" d="
  M 0.00 71.22
  Q 0.23 71.50 0.48 71.62
  Q 0.70 71.72 1.05 71.60
  Q 8.17 69.11 12.82 67.73
  C 19.46 65.75 25.07 66.04 35.41 65.61
  Q 43.41 65.27 48.51 66.41
  Q 53.55 67.54 61.54 70.24
  C 62.97 70.73 64.36 70.49 65.66 69.47
  C 68.85 66.95 70.95 65.31 73.64 62.69
  Q 78.77 57.68 81.63 56.11
  C 84.85 54.34 91.34 51.83 95.81 50.89
  C 100.79 49.84 107.09 47.93 111.75 48.07
  Q 116.28 48.19 124.45 49.87
  C 131.62 51.33 138.11 55.05 144.72 58.76
  Q 145.67 59.29 144.61 59.56
  Q 138.82 61.04 133.57 64.79
  A 0.30 0.25 29.7 0 0 133.75 65.26
  L 134.04 65.33
  Q 134.45 65.42 134.61 65.31
  Q 140.39 61.40 145.58 60.32
  Q 147.00 60.03 149.31 61.32
  Q 149.72 61.55 149.46 61.94
  Q 146.66 66.01 148.36 71.17
  Q 148.45 71.45 148.72 71.35
  Q 148.84 71.32 148.93 71.21
  Q 149.06 71.06 149.04 70.77
  C 148.70 66.58 148.79 63.57 152.09 60.85
  C 155.52 58.02 161.34 58.97 165.01 60.98
  Q 166.38 61.73 168.08 64.96
  A 0.31 0.31 0.0 0 0 168.62 64.97
  L 168.80 64.64
  Q 168.91 64.45 168.83 64.25
  C 166.39 57.72 157.07 55.89 151.81 59.77
  Q 151.06 60.32 150.60 60.53
  Q 150.14 60.74 149.70 60.48
  Q 143.07 56.55 133.55 51.72
  C 127.65 48.73 120.79 47.96 114.24 47.02
  Q 110.08 46.43 102.76 48.20
  C 97.08 49.58 93.09 49.96 88.78 52.00
  C 86.49 53.10 82.07 54.45 79.32 56.43
  Q 75.34 59.31 71.24 63.52
  C 69.14 65.68 66.77 67.19 64.19 69.24
  A 1.16 1.15 -54.6 0 1 63.09 69.43
  C 59.22 68.10 53.73 65.88 49.05 65.34
  C 42.60 64.59 37.31 64.85 29.25 64.64
  Q 14.44 64.24 0.00 70.75"
/>
<path stroke="#a1a09f" vector-effect="non-scaling-stroke" d="
  M 0.00 92.25
  Q 4.89 95.97 8.35 96.67
  C 15.25 98.07 25.74 97.43 34.88 96.82
  C 43.94 96.22 51.46 93.98 58.51 89.50
  A 0.80 0.80 0.0 0 0 58.32 88.06
  C 44.21 83.52 29.35 81.08 14.35 82.10
  C 10.11 82.39 4.79 83.39 0.00 83.89"
/>
</g>
<path fill="#cfc3b4" d="
  M 720.00 0.00
  L 720.00 480.00
  L 0.00 480.00
  L 0.00 93.99
  Q 5.36 97.66 8.04 98.25
  Q 12.23 99.16 23.25 98.82
  Q 30.04 98.61 36.54 98.22
  C 44.66 97.73 53.10 94.10 60.28 90.31
  A 1.31 1.30 53.6 0 0 60.59 88.24
  Q 59.30 86.95 57.04 86.36
  Q 45.33 83.27 42.36 82.65
  Q 28.82 79.84 14.50 80.57
  Q 9.62 80.82 0.00 82.72
  L 0.00 71.22
  Q 0.23 71.50 0.48 71.62
  Q 0.70 71.72 1.05 71.60
  Q 8.17 69.11 12.82 67.73
  C 19.46 65.75 25.07 66.04 35.41 65.61
  Q 43.41 65.27 48.51 66.41
  Q 53.55 67.54 61.54 70.24
  C 62.97 70.73 64.36 70.49 65.66 69.47
  C 68.85 66.95 70.95 65.31 73.64 62.69
  Q 78.77 57.68 81.63 56.11
  C 84.85 54.34 91.34 51.83 95.81 50.89
  C 100.79 49.84 107.09 47.93 111.75 48.07
  Q 116.28 48.19 124.45 49.87
  C 131.62 51.33 138.11 55.05 144.72 58.76
  Q 145.67 59.29 144.61 59.56
  Q 138.82 61.04 133.57 64.79
  A 0.30 0.25 29.7 0 0 133.75 65.26
  L 134.04 65.33
  Q 134.45 65.42 134.61 65.31
  Q 140.39 61.40 145.58 60.32
  Q 147.00 60.03 149.31 61.32
  Q 149.72 61.55 149.46 61.94
  Q 146.66 66.01 148.36 71.17
  Q 148.45 71.45 148.72 71.35
  Q 148.84 71.32 148.93 71.21
  Q 149.06 71.06 149.04 70.77
  C 148.70 66.58 148.79 63.57 152.09 60.85
  C 155.52 58.02 161.34 58.97 165.01 60.98
  Q 166.38 61.73 168.08 64.96
  A 0.31 0.31 0.0 0 0 168.62 64.97
  L 168.80 64.64
  Q 168.91 64.45 168.83 64.25
  C 166.39 57.72 157.07 55.89 151.81 59.77
  Q 151.06 60.32 150.60 60.53
  Q 150.14 60.74 149.70 60.48
  Q 143.07 56.55 133.55 51.72
  C 127.65 48.73 120.79 47.96 114.24 47.02
  Q 110.08 46.43 102.76 48.20
  C 97.08 49.58 93.09 49.96 88.78 52.00
  C 86.49 53.10 82.07 54.45 79.32 56.43
  Q 75.34 59.31 71.24 63.52
  C 69.14 65.68 66.77 67.19 64.19 69.24
  A 1.16 1.15 -54.6 0 1 63.09 69.43
  C 59.22 68.10 53.73 65.88 49.05 65.34
  C 42.60 64.59 37.31 64.85 29.25 64.64
  Q 14.44 64.24 0.00 70.75
  L 0.00 0.00
  L 720.00 0.00
  Z"
/>
<path fill="#42413f" d="
  M 0.00 71.22
  L 0.00 70.75
  Q 14.44 64.24 29.25 64.64
  C 37.31 64.85 42.60 64.59 49.05 65.34
  C 53.73 65.88 59.22 68.10 63.09 69.43
  A 1.16 1.15 -54.6 0 0 64.19 69.24
  C 66.77 67.19 69.14 65.68 71.24 63.52
  Q 75.34 59.31 79.32 56.43
  C 82.07 54.45 86.49 53.10 88.78 52.00
  C 93.09 49.96 97.08 49.58 102.76 48.20
  Q 110.08 46.43 114.24 47.02
  C 120.79 47.96 127.65 48.73 133.55 51.72
  Q 143.07 56.55 149.70 60.48
  Q 150.14 60.74 150.60 60.53
  Q 151.06 60.32 151.81 59.77
  C 157.07 55.89 166.39 57.72 168.83 64.25
  Q 168.91 64.45 168.80 64.64
  L 168.62 64.97
  A 0.31 0.31 0.0 0 1 168.08 64.96
  Q 166.38 61.73 165.01 60.98
  C 161.34 58.97 155.52 58.02 152.09 60.85
  C 148.79 63.57 148.70 66.58 149.04 70.77
  Q 149.06 71.06 148.93 71.21
  Q 148.84 71.32 148.72 71.35
  Q 148.45 71.45 148.36 71.17
  Q 146.66 66.01 149.46 61.94
  Q 149.72 61.55 149.31 61.32
  Q 147.00 60.03 145.58 60.32
  Q 140.39 61.40 134.61 65.31
  Q 134.45 65.42 134.04 65.33
  L 133.75 65.26
  A 0.30 0.25 29.7 0 1 133.57 64.79
  Q 138.82 61.04 144.61 59.56
  Q 145.67 59.29 144.72 58.76
  C 138.11 55.05 131.62 51.33 124.45 49.87
  Q 116.28 48.19 111.75 48.07
  C 107.09 47.93 100.79 49.84 95.81 50.89
  C 91.34 51.83 84.85 54.34 81.63 56.11
  Q 78.77 57.68 73.64 62.69
  C 70.95 65.31 68.85 66.95 65.66 69.47
  C 64.36 70.49 62.97 70.73 61.54 70.24
  Q 53.55 67.54 48.51 66.41
  Q 43.41 65.27 35.41 65.61
  C 25.07 66.04 19.46 65.75 12.82 67.73
  Q 8.17 69.11 1.05 71.60
  Q 0.70 71.72 0.48 71.62
  Q 0.23 71.50 0.00 71.22
  Z"
/>
<path fill="#42413f" d="
  M 187.66 67.44
  C 187.06 64.53 184.69 60.54 181.15 60.82
  Q 175.33 61.29 172.40 65.48
  Q 171.44 66.85 171.66 65.19
  C 172.05 62.32 176.89 60.36 178.56 59.83
  C 183.92 58.16 187.96 61.87 188.57 66.95
  Q 188.62 67.37 188.44 67.75
  Q 188.38 67.88 188.25 68.13
  Q 188.05 68.50 188.10 68.93
  C 188.44 72.18 188.10 75.21 184.03 75.35
  Q 178.83 75.52 175.76 71.65
  C 174.73 70.35 175.26 68.81 176.32 67.76
  Q 181.98 62.15 187.32 67.61
  Q 187.79 68.10 187.66 67.44
  Z"
/>
<path fill="#42413f" d="
  M 166.85 71.01
  C 164.32 73.81 161.82 75.48 157.71 74.27
  Q 152.84 72.84 152.47 68.07
  C 152.17 64.18 156.84 63.26 160.42 62.69
  Q 164.99 61.97 167.09 66.06
  Q 168.63 69.05 166.85 71.01
  Z"
/>
<path fill="#cfc3b4" d="
  M 162.33 70.39
  Q 160.14 70.46 158.68 72.91
  A 0.71 0.70 23.7 0 1 157.87 73.22
  Q 153.91 72.03 153.64 68.31
  C 153.42 65.27 156.46 64.69 159.26 63.99
  C 163.10 63.02 165.91 64.46 166.67 68.14
  Q 167.05 69.94 164.75 71.54
  Q 164.24 71.90 163.84 71.43
  L 163.33 70.83
  Q 162.93 70.37 162.33 70.39
  Z"
/>
<path fill="#cfc3b4" d="
  M 178.62 71.29
  L 177.76 71.46
  Q 177.12 71.58 176.85 70.98
  Q 176.17 69.45 177.90 67.92
  C 181.72 64.52 188.39 66.72 186.65 72.40
  A 2.22 2.22 0.0 0 1 184.98 73.93
  Q 181.51 74.65 179.67 71.75
  Q 179.30 71.16 178.62 71.29
  Z"
/>
<path fill="#42413f" d="
  M 147.70 128.68
  Q 149.24 128.93 149.87 129.16
  Q 157.43 131.99 161.58 133.72
  Q 162.71 134.19 164.82 134.39
  Q 173.32 135.18 179.71 140.58
  C 181.15 141.79 181.55 143.24 180.22 144.87
  A 1.92 1.91 34.4 0 1 177.79 145.32
  C 175.14 143.80 172.37 141.73 169.25 141.91
  Q 167.64 142.00 169.04 142.81
  Q 174.43 145.92 177.68 150.31
  A 2.03 2.03 0.0 0 1 177.60 152.83
  L 177.38 153.10
  Q 176.12 154.59 174.63 153.34
  L 163.60 144.05
  A 0.44 0.44 0.0 0 0 162.88 144.37
  Q 162.76 149.01 164.40 153.60
  C 165.21 155.86 165.04 157.27 163.19 158.74
  A 0.85 0.85 0.0 0 1 162.31 158.84
  Q 159.10 157.28 158.90 154.92
  Q 158.77 153.36 157.85 145.24
  C 157.62 143.18 156.21 141.78 154.48 141.38
  Q 144.30 139.00 134.70 135.44
  Q 128.35 133.09 124.51 130.75
  Q 119.69 127.82 114.98 124.65
  Q 113.23 123.47 111.86 121.22
  Q 111.59 120.77 111.06 120.75
  Q 101.99 120.44 100.22 119.84
  Q 92.69 117.28 87.13 114.87
  C 81.76 112.55 77.32 107.07 74.12 104.58
  Q 73.74 104.28 73.36 104.59
  Q 72.11 105.63 71.53 105.82
  Q 55.87 110.81 43.02 112.51
  Q 29.36 114.32 18.24 110.00
  Q 8.24 106.10 1.43 103.60
  A 0.30 0.28 -1.9 0 1 1.27 103.46
  L 1.02 103.03
  A 0.63 0.62 85.4 0 1 1.78 102.13
  Q 19.01 108.63 19.47 108.82
  Q 24.95 111.09 29.52 111.43
  C 36.82 111.99 41.95 112.11 48.77 110.59
  Q 60.09 108.08 72.30 104.17
  A 0.66 0.66 0.0 0 0 72.60 103.11
  L 67.54 97.17
  A 0.57 0.56 54.5 0 1 67.68 96.31
  L 67.97 96.14
  A 0.41 0.41 0.0 0 1 68.49 96.24
  Q 74.91 103.96 82.22 110.79
  C 83.20 111.71 85.41 113.01 86.98 113.62
  C 94.82 116.67 101.26 120.12 109.27 119.51
  A 0.69 0.68 -16.1 0 0 109.83 118.51
  Q 107.12 113.33 104.12 105.98
  C 103.62 104.76 103.41 102.75 103.54 101.86
  Q 103.84 99.74 104.40 101.84
  Q 106.78 110.60 111.28 118.53
  C 114.03 123.36 118.06 125.16 124.20 129.01
  C 132.50 134.22 142.89 137.02 152.88 139.46
  C 157.18 140.51 159.01 142.29 159.44 146.89
  Q 159.92 151.95 160.56 155.08
  Q 160.78 156.11 161.96 156.91
  Q 162.22 157.08 162.73 156.86
  Q 163.48 156.53 163.32 155.74
  L 161.32 145.38
  A 2.24 2.23 -75.4 0 1 164.95 143.24
  L 175.32 151.97
  Q 175.55 152.16 175.84 152.10
  Q 176.54 151.96 176.50 151.61
  Q 176.36 150.34 175.96 150.02
  L 167.25 143.22
  A 0.54 0.52 -77.8 0 1 167.05 142.90
  L 166.73 141.21
  Q 166.60 140.53 167.29 140.45
  Q 172.51 139.81 176.58 142.94
  Q 177.54 143.69 177.85 143.73
  Q 180.62 144.15 179.10 142.04
  C 177.30 139.53 171.70 137.33 169.05 136.75
  C 164.58 135.78 161.44 135.54 157.81 133.96
  Q 148.79 130.02 146.18 129.13
  C 141.76 127.62 139.13 124.66 136.80 121.74
  Q 136.05 120.80 133.31 117.63
  Q 129.95 113.74 128.38 108.72
  A 0.50 0.48 53.7 0 1 128.43 108.33
  L 128.83 107.64
  A 0.25 0.25 0.0 0 1 129.29 107.68
  Q 130.58 111.33 132.45 114.08
  Q 135.78 118.96 140.50 123.77
  Q 141.78 125.08 143.30 126.06
  Q 143.72 126.34 144.23 126.32
  C 152.56 126.09 157.83 124.47 167.46 121.93
  Q 178.53 119.02 188.31 113.93
  Q 191.19 112.44 193.19 110.01
  Q 199.29 102.63 203.21 94.23
  Q 203.79 92.98 203.75 91.33
  Q 203.74 90.83 203.32 90.55
  Q 200.10 88.45 197.29 88.73
  Q 175.75 90.86 158.07 89.60
  C 153.15 89.25 149.95 88.62 143.77 87.48
  Q 141.92 87.14 139.35 85.33
  Q 136.26 83.16 132.58 80.72
  Q 131.98 80.33 132.68 80.17
  Q 133.89 79.91 135.24 80.92
  C 138.89 83.65 140.72 85.34 144.80 86.11
  Q 153.26 87.68 155.25 87.80
  Q 174.78 89.00 183.25 88.27
  Q 194.00 87.35 197.77 87.44
  C 199.84 87.49 206.19 88.56 205.22 92.07
  Q 204.61 94.30 203.00 97.78
  A 0.48 0.48 0.0 0 0 203.42 98.46
  C 206.80 98.59 208.91 98.99 211.28 96.49
  Q 214.98 92.57 212.98 87.53
  C 211.97 84.98 208.12 82.38 204.87 79.69
  Q 202.67 77.86 200.87 76.69
  Q 196.80 74.04 192.54 70.55
  A 0.52 0.52 0.0 0 1 192.53 69.75
  L 192.76 69.55
  A 0.70 0.69 49.9 0 1 193.74 69.64
  C 195.64 71.98 198.26 73.33 203.18 76.77
  C 206.88 79.36 210.86 82.64 213.28 85.45
  C 216.97 89.73 214.66 96.00 210.30 98.80
  Q 208.34 100.06 203.91 99.71
  A 1.11 1.10 66.1 0 1 203.27 99.46
  Q 202.93 99.18 202.46 99.13
  Q 201.91 99.06 201.63 99.54
  L 196.64 108.17
  A 1.40 1.40 0.0 0 0 196.75 109.73
  C 199.52 113.36 199.83 116.72 200.94 122.01
  C 201.50 124.64 204.47 127.25 205.89 128.84
  Q 207.12 130.20 207.98 131.78
  Q 211.32 137.89 212.16 139.83
  Q 212.80 141.30 211.45 143.28
  Q 211.43 143.31 211.38 143.33
  A 2.78 2.16 -25.1 0 1 208.10 142.58
  L 203.57 134.21
  Q 203.35 133.82 203.03 133.90
  Q 202.90 133.93 202.76 134.03
  Q 202.58 134.18 202.56 134.42
  Q 202.13 140.52 200.87 145.39
  Q 200.49 146.86 198.62 146.71
  C 196.11 146.51 195.54 143.58 195.82 141.78
  Q 196.66 136.38 196.89 131.38
  A 1.12 1.12 0.0 0 0 195.04 130.48
  C 192.31 132.78 191.19 134.85 187.96 139.40
  A 1.95 1.95 0.0 0 1 184.65 139.20
  Q 183.64 137.32 185.01 134.78
  Q 185.65 133.58 189.25 128.48
  C 191.16 125.78 188.52 120.08 187.44 117.85
  Q 186.66 116.23 185.04 117.01
  Q 176.91 120.88 170.45 122.57
  Q 157.93 125.84 155.19 126.61
  C 153.21 127.18 149.41 127.58 147.66 128.34
  Q 147.08 128.59 147.70 128.68
  Z"
/>
<path fill="#42413f" d="
  M 0.00 93.99
  L 0.00 92.25
  Q 4.89 95.97 8.35 96.67
  C 15.25 98.07 25.74 97.43 34.88 96.82
  C 43.94 96.22 51.46 93.98 58.51 89.50
  A 0.80 0.80 0.0 0 0 58.32 88.06
  C 44.21 83.52 29.35 81.08 14.35 82.10
  C 10.11 82.39 4.79 83.39 0.00 83.89
  L 0.00 82.72
  Q 9.62 80.82 14.50 80.57
  Q 28.82 79.84 42.36 82.65
  Q 45.33 83.27 57.04 86.36
  Q 59.30 86.95 60.59 88.24
  A 1.31 1.30 53.6 0 1 60.28 90.31
  C 53.10 94.10 44.66 97.73 36.54 98.22
  Q 30.04 98.61 23.25 98.82
  Q 12.23 99.16 8.04 98.25
  Q 5.36 97.66 0.00 93.99
  Z"
/>
<path fill="#cfc3b4" d="
  M 0.00 92.25
  L 0.00 83.89
  C 4.79 83.39 10.11 82.39 14.35 82.10
  C 29.35 81.08 44.21 83.52 58.32 88.06
  A 0.80 0.80 0.0 0 1 58.51 89.50
  C 51.46 93.98 43.94 96.22 34.88 96.82
  C 25.74 97.43 15.25 98.07 8.35 96.67
  Q 4.89 95.97 0.00 92.25
  Z"
/>
<path fill="#cfc3b4" d="
  M 201.41 133.16
  Q 201.07 134.71 200.48 141.21
  Q 200.26 143.65 199.11 145.43
  A 0.49 0.48 -46.8 0 1 198.32 145.46
  Q 197.11 143.85 197.42 141.50
  Q 198.16 135.93 198.26 131.72
  C 198.38 127.12 194.28 128.41 192.47 130.74
  Q 189.71 134.30 187.53 137.64
  Q 186.12 139.80 185.85 137.23
  C 185.60 134.81 188.43 131.98 190.26 129.51
  C 192.76 126.11 190.57 120.26 188.66 117.03
  Q 187.91 115.75 189.22 115.07
  Q 192.50 113.36 194.55 110.29
  A 0.67 0.67 0.0 0 1 195.71 110.36
  Q 197.28 113.56 197.80 114.74
  Q 198.48 116.31 198.95 119.33
  C 199.54 123.15 200.49 125.08 203.29 127.99
  Q 208.36 133.26 210.93 141.19
  A 0.66 0.66 0.0 0 1 210.43 142.04
  L 209.86 142.15
  A 0.71 0.71 0.0 0 1 209.09 141.77
  L 204.45 132.83
  Q 202.38 128.84 201.41 133.16
  Z"
/>
</svg>
