<?xml version="1.0" encoding="UTF-8" standalone="no"?>
<svg xmlns="http://www.w3.org/2000/svg" version="1.2" baseProfile="tiny" viewBox="0.00 0.00 720.00 480.00">
<path fill="#cfc3b4" d="
  M 720.00 0.00
  L 720.00 480.00
  L 0.00 480.00
  L 0.00 0.00
  L 720.00 0.00
  Z"
/>
<path fill="#050506" d="
  M 337.80 362.79
  C 336.86 363.25 336.57 363.33 336.10 364.27
  Q 335.41 365.64 333.63 365.84
  A 1.51 1.51 0.0 0 0 332.30 367.33
  Q 332.29 368.68 330.75 368.62
  Q 330.09 368.60 319.15 368.54
  Q 317.22 368.53 318.22 370.18
  C 319.37 372.08 320.00 373.32 317.97 374.86
  A 0.87 0.87 0.0 0 1 317.12 374.98
  Q 312.99 373.39 308.60 370.22
  Q 306.52 368.72 302.74 368.35
  Q 299.83 368.06 290.10 367.91
  Q 285.60 367.83 285.71 363.21
  Q 285.72 362.72 286.02 362.32
  L 287.71 360.10
  Q 287.97 359.75 287.75 359.33
  C 285.40 354.76 287.73 348.87 289.23 343.08
  C 290.23 339.22 291.87 335.78 293.11 332.10
  Q 294.72 327.25 296.47 324.72
  C 298.70 321.50 299.74 318.70 302.84 316.00
  C 310.35 309.44 314.76 305.28 323.54 303.25
  Q 335.52 300.49 340.73 300.40
  Q 350.57 300.22 355.02 300.35
  C 358.92 300.46 362.95 301.09 366.52 302.90
  Q 374.57 306.97 383.12 312.61
  C 384.52 313.53 385.32 314.99 386.72 315.95
  Q 387.05 316.17 387.34 315.90
  C 392.68 311.02 397.44 312.57 402.59 316.83
  Q 402.89 317.08 403.20 316.68
  C 403.65 316.13 403.63 315.36 404.39 314.62
  Q 411.06 308.07 418.59 312.59
  C 421.13 314.12 422.27 316.89 422.69 319.50
  Q 422.78 320.05 423.34 320.02
  Q 434.38 319.32 444.59 323.20
  Q 450.85 325.58 454.25 332.27
  Q 455.61 334.95 455.31 337.28
  C 455.05 339.27 451.01 341.19 449.40 341.97
  Q 448.93 342.19 448.99 342.71
  Q 449.34 345.77 448.54 348.36
  Q 445.79 357.22 439.42 363.99
  Q 438.96 364.47 439.29 365.05
  L 440.06 366.38
  A 0.49 0.48 72.2 0 1 439.69 367.11
  Q 437.12 367.35 435.51 366.84
  A 2.49 2.48 22.2 0 0 432.56 368.07
  C 431.89 369.37 431.46 370.65 430.55 371.07
  Q 427.24 372.60 424.86 370.31
  A 1.66 1.66 0.0 0 0 422.51 370.37
  C 420.39 372.60 417.11 373.66 414.77 371.07
  C 414.10 370.32 412.19 369.93 411.04 370.46
  Q 408.83 371.47 405.86 370.93
  A 1.46 1.44 -53.5 0 0 404.89 371.08
  Q 402.62 372.33 399.85 372.23
  C 398.00 372.17 397.56 372.59 396.35 373.73
  A 1.63 1.59 -69.7 0 1 395.49 374.14
  C 390.26 374.86 386.00 371.71 380.43 370.83
  C 374.43 369.89 371.06 370.07 362.52 370.05
  C 357.04 370.03 352.35 369.33 345.52 368.77
  Q 343.15 368.57 339.43 366.56
  Q 338.92 366.29 338.85 365.71
  L 338.58 363.23
  A 0.55 0.54 74.2 0 0 337.80 362.79
  Z"
/>
<path fill="#cfc3b4" d="
  M 308.77 361.77
  Q 308.69 361.78 308.73 361.85
  L 308.93 362.19
  Q 309.05 362.39 309.27 362.40
  Q 317.37 362.78 329.26 361.81
  Q 332.17 361.58 334.45 362.55
  Q 336.82 363.55 334.44 364.53
  Q 331.27 365.84 326.93 364.19
  Q 324.05 363.10 319.74 364.35
  Q 319.45 364.44 319.35 364.64
  Q 319.30 364.73 319.31 364.90
  Q 319.32 365.18 319.61 365.16
  C 322.79 364.93 327.11 364.81 329.81 366.51
  Q 331.70 367.71 329.46 367.59
  C 325.82 367.38 320.55 366.72 317.21 368.20
  Q 316.77 368.40 316.31 368.23
  L 311.71 366.49
  Q 311.45 366.40 311.36 366.65
  L 311.21 367.05
  A 0.28 0.28 0.0 0 0 311.38 367.41
  C 313.90 368.23 318.13 369.91 318.04 372.89
  A 0.87 0.87 0.0 0 1 316.84 373.67
  Q 312.25 371.80 308.54 368.81
  Q 307.06 367.62 303.24 367.33
  Q 298.83 366.99 289.53 366.73
  C 287.35 366.67 285.77 364.33 287.33 362.24
  Q 288.24 361.03 291.04 359.00
  Q 296.73 354.87 301.69 350.02
  Q 306.82 345.00 310.67 343.00
  Q 317.46 339.47 324.97 338.60
  Q 325.31 338.56 325.27 338.22
  L 325.24 337.95
  A 0.57 0.56 -6.9 0 0 324.60 337.45
  Q 315.40 338.76 307.19 343.94
  C 305.36 345.10 304.02 346.62 302.76 347.73
  Q 298.95 351.06 292.16 356.91
  Q 290.73 358.14 289.23 359.11
  A 0.57 0.57 0.0 0 1 288.38 358.83
  Q 287.52 356.45 287.90 354.03
  Q 289.34 344.93 291.30 340.03
  C 293.37 334.82 294.67 329.93 297.39 325.38
  C 298.75 323.11 301.01 319.20 303.37 316.95
  C 308.34 312.20 314.23 306.88 321.39 304.92
  Q 337.72 300.44 356.33 301.58
  Q 364.32 302.07 371.35 306.53
  Q 379.26 311.56 383.31 313.92
  Q 383.96 314.30 385.43 316.55
  Q 385.71 316.96 385.53 317.42
  L 384.63 319.82
  A 0.23 0.22 87.2 0 0 384.94 320.11
  L 385.50 319.82
  L 385.82 319.66
  Q 388.92 313.59 395.11 314.12
  C 398.19 314.39 399.90 316.14 402.40 318.28
  A 0.71 0.70 -56.2 0 0 403.48 318.06
  C 405.84 313.45 410.30 310.47 415.65 312.20
  Q 420.34 313.71 421.66 319.51
  Q 421.79 320.09 421.20 320.16
  L 414.58 320.88
  Q 414.03 320.94 414.31 321.42
  L 414.68 322.07
  Q 414.77 322.22 414.94 322.19
  Q 428.00 319.49 440.34 322.89
  Q 446.16 324.49 448.82 326.88
  C 450.71 328.58 456.14 335.25 453.63 337.88
  Q 451.70 339.90 449.18 340.68
  Q 448.51 340.89 447.97 340.43
  Q 447.20 339.78 446.84 338.85
  Q 446.49 337.93 447.47 337.82
  L 449.09 337.65
  A 0.33 0.32 -88.8 0 0 449.37 337.38
  Q 449.41 337.17 449.23 336.99
  Q 449.17 336.93 449.09 336.92
  C 447.83 336.73 446.63 336.30 445.45 336.33
  C 436.96 336.58 428.26 340.48 422.36 341.83
  Q 409.57 344.76 396.48 343.81
  Q 392.03 343.49 388.09 341.44
  Q 378.27 336.33 375.92 335.09
  Q 375.75 335.00 375.68 335.19
  L 375.57 335.46
  Q 375.49 335.67 375.68 335.82
  C 379.08 338.52 383.00 339.50 386.75 341.72
  Q 391.34 344.44 395.84 344.84
  Q 414.14 346.51 431.28 340.29
  C 435.78 338.67 439.66 337.64 443.68 337.59
  Q 445.43 337.56 445.85 339.26
  C 446.37 341.35 448.08 342.81 448.04 344.79
  Q 447.99 347.32 447.66 348.14
  C 445.79 352.74 442.52 360.52 438.42 362.67
  Q 426.32 369.01 414.17 368.94
  Q 412.15 368.93 412.27 367.54
  A 1.46 1.45 86.4 0 0 410.52 365.99
  Q 401.69 367.93 393.50 368.40
  Q 392.76 368.45 391.62 367.64
  Q 387.30 364.57 383.22 360.60
  Q 382.86 360.25 383.29 360.00
  L 387.85 357.37
  Q 388.01 357.27 387.92 357.11
  L 387.70 356.73
  A 0.40 0.40 0.0 0 0 387.14 356.60
  C 379.09 361.91 367.44 362.59 358.20 361.06
  C 356.23 360.73 354.57 359.89 352.66 359.04
  Q 352.28 358.87 352.33 359.29
  L 352.40 359.94
  Q 352.43 360.22 352.69 360.32
  Q 359.40 363.07 366.51 363.12
  C 370.86 363.15 376.24 361.61 380.24 360.99
  Q 381.88 360.74 383.15 361.96
  Q 388.72 367.26 392.77 369.33
  Q 393.24 369.57 393.77 369.51
  L 403.22 368.48
  A 0.69 0.68 0.9 0 1 403.98 369.26
  Q 403.96 369.40 403.94 369.56
  Q 403.78 370.66 402.68 370.81
  Q 397.56 371.50 394.00 370.76
  A 0.43 0.42 -73.5 0 0 393.51 371.03
  L 393.40 371.33
  A 0.38 0.38 0.0 0 0 393.70 371.84
  L 395.03 372.02
  Q 396.46 372.21 395.18 372.88
  C 392.88 374.10 386.81 371.55 382.65 370.14
  C 379.06 368.92 372.11 368.76 366.11 368.86
  Q 356.12 369.04 345.53 367.72
  C 342.02 367.28 337.70 365.09 340.08 360.82
  C 341.80 357.75 343.97 354.88 347.59 352.76
  Q 355.24 348.28 362.51 345.05
  Q 362.89 344.88 362.50 344.73
  L 361.76 344.45
  Q 361.45 344.34 361.15 344.48
  Q 354.49 347.58 346.93 351.99
  C 342.70 354.46 340.63 357.75 338.66 361.64
  Q 338.24 362.45 337.35 362.22
  C 333.84 361.28 331.89 360.49 328.86 360.66
  Q 321.91 361.04 318.06 361.23
  Q 315.56 361.36 317.78 360.19
  Q 327.02 355.31 330.60 353.27
  C 335.04 350.74 337.47 348.08 342.15 343.63
  Q 344.68 341.23 345.29 339.56
  C 346.28 336.88 346.20 335.14 344.22 332.82
  Q 340.82 328.87 336.55 326.95
  C 333.39 325.52 328.11 325.98 324.46 326.09
  Q 321.80 326.17 319.63 326.77
  Q 311.77 328.94 304.43 332.27
  Q 304.02 332.45 304.07 332.90
  L 304.11 333.26
  A 0.43 0.43 0.0 0 0 304.78 333.56
  Q 306.17 332.58 307.72 331.96
  Q 317.58 328.04 321.18 327.41
  Q 322.97 327.10 331.52 327.16
  Q 335.54 327.19 338.16 328.97
  C 340.71 330.70 345.83 334.51 344.85 337.79
  Q 343.91 340.92 342.56 342.10
  Q 337.04 346.94 334.46 349.48
  Q 332.65 351.25 329.21 352.85
  C 325.35 354.66 322.27 356.92 318.28 358.50
  Q 316.57 359.18 316.18 360.71
  Q 316.06 361.20 315.55 361.24
  L 308.77 361.77
  Z"
/>
<path fill="#050506" d="
  M 416.25 317.58
  C 414.38 316.18 410.84 317.40 409.20 318.59
  A 0.43 0.43 0.0 0 1 408.76 318.63
  L 408.39 318.46
  Q 408.16 318.35 408.36 318.18
  C 410.76 316.21 414.87 314.75 417.37 317.33
  A 0.35 0.35 0.0 0 1 417.12 317.93
  Q 416.72 317.92 416.25 317.58
  Z"
/>
<path fill="#050506" d="
  M 399.90 320.16
  C 397.90 318.40 393.77 319.45 391.79 320.65
  A 0.49 0.49 0.0 0 1 391.28 320.66
  L 390.88 320.43
  Q 390.63 320.28 390.87 320.11
  C 393.79 318.09 398.59 316.82 401.20 319.99
  A 0.40 0.40 0.0 0 1 400.85 320.64
  Q 400.40 320.60 399.90 320.16
  Z"
/>
<ellipse fill="#cfc3b4" cx="0.00" cy="0.00" transform="translate(437.56,365.30) rotate(-14.1)" rx="1.27" ry="0.74"/>
<ellipse fill="#cfc3b4" cx="0.00" cy="0.00" transform="translate(408.80,368.65) rotate(-10.4)" rx="3.20" ry="1.14"/>
<path fill="#cfc3b4" d="
  M 431.26 367.20
  A 0.11 0.11 0.0 0 1 431.40 367.27
  L 431.41 367.31
  A 2.87 2.25 -15.8 0 1 429.26 370.26
  L 428.93 370.35
  A 2.87 2.25 -15.8 0 1 425.56 368.97
  L 425.55 368.93
  A 0.11 0.11 0.0 0 1 425.62 368.79
  L 431.26 367.20
  Z"
/>
<path fill="#cfc3b4" d="
  M 420.74 369.68
  A 0.13 0.13 0.0 0 1 420.88 369.81
  L 420.89 369.93
  A 2.48 1.49 -3.4 0 1 418.50 371.56
  L 418.22 371.58
  A 2.48 1.49 -3.4 0 1 415.66 370.24
  L 415.65 370.12
  A 0.13 0.13 0.0 0 1 415.77 369.98
  L 420.74 369.68
  Z"
/>
</svg>
