<?xml version="1.0" encoding="UTF-8" standalone="no"?>
<svg xmlns="http://www.w3.org/2000/svg" version="1.2" baseProfile="tiny" viewBox="0.00 0.00 720.00 480.00">
<path fill="#cfc3b4" d="
  M 720.00 0.00
  L 720.00 480.00
  L 0.00 480.00
  L 0.00 0.00
  L 720.00 0.00
  Z"
/>
<path fill="#030303" d="
  M 403.70 318.21
  A 0.20 0.20 0.0 0 0 404.02 318.13
  C 406.02 311.97 412.94 309.13 418.08 313.54
  Q 421.37 316.38 422.36 319.70
  A 1.50 1.48 81.5 0 0 423.78 320.77
  Q 432.50 320.81 442.29 322.71
  Q 446.37 323.50 448.33 324.90
  C 452.09 327.55 457.37 331.95 455.60 336.73
  C 454.57 339.52 450.56 341.35 447.77 342.13
  A 0.76 0.75 72.2 0 0 447.27 343.11
  C 450.85 353.04 448.19 357.43 440.29 363.46
  A 1.94 1.94 0.0 0 0 439.67 364.27
  Q 439.32 365.10 439.25 366.42
  Q 439.23 366.93 438.90 367.32
  Q 435.98 370.69 432.10 368.30
  Q 431.65 368.02 431.27 368.38
  Q 431.03 368.61 430.89 368.97
  Q 430.71 369.43 430.36 369.78
  Q 427.27 372.88 423.16 370.27
  A 1.01 1.01 0.0 0 0 421.79 370.53
  Q 420.35 372.52 417.49 372.70
  Q 417.09 372.72 416.80 372.43
  L 415.84 371.48
  Q 415.43 371.07 414.87 370.91
  Q 413.41 370.49 412.83 369.03
  A 0.68 0.68 0.0 0 0 411.90 368.66
  Q 409.42 369.87 406.56 369.78
  Q 406.12 369.76 405.81 370.07
  L 403.56 372.33
  A 0.67 0.66 21.8 0 1 403.13 372.51
  L 398.44 372.76
  Q 397.97 372.79 397.75 373.22
  Q 396.81 375.08 393.99 374.63
  C 390.57 374.09 385.52 372.27 381.05 372.16
  C 378.69 372.11 375.91 372.27 373.27 371.79
  Q 360.74 369.55 346.00 369.00
  Q 344.08 368.93 341.99 367.84
  A 0.53 0.09 25.3 0 1 341.73 367.66
  L 339.64 365.18
  Q 339.23 364.69 338.68 364.98
  Q 336.43 366.13 333.51 365.96
  Q 333.01 365.93 332.79 366.38
  Q 331.26 369.41 329.01 369.14
  Q 322.39 368.33 320.90 368.12
  A 0.96 0.96 0.0 0 0 319.91 369.52
  Q 320.38 370.41 320.02 372.07
  Q 319.91 372.59 319.41 372.78
  Q 316.66 373.80 315.31 373.20
  C 311.69 371.60 309.64 370.44 306.86 368.80
  Q 305.60 368.05 303.23 368.18
  Q 290.19 368.85 287.50 368.55
  Q 285.01 368.28 284.75 365.53
  C 284.61 364.16 285.97 362.75 286.69 361.97
  A 3.57 3.54 -24.7 0 0 287.61 359.51
  Q 287.14 338.14 298.37 319.91
  Q 300.22 316.91 304.56 312.57
  Q 307.28 309.85 318.45 302.13
  Q 322.23 299.52 326.25 298.61
  C 334.73 296.68 342.04 295.36 349.80 297.13
  C 355.11 298.35 359.05 298.55 363.80 300.72
  C 373.77 305.28 380.03 308.65 388.01 315.45
  Q 388.41 315.79 388.85 315.52
  Q 391.35 313.99 396.27 314.10
  C 399.51 314.18 401.64 316.33 403.70 318.21
  Z"
/>
<path fill="#cfc3b4" d="
  M 308.17 367.76
  C 306.76 367.87 305.57 367.08 304.34 367.12
  C 298.82 367.31 293.81 367.72 287.53 367.40
  A 1.90 1.90 0.0 0 1 286.04 364.46
  Q 286.62 363.59 287.27 363.01
  Q 299.96 351.56 310.24 344.51
  Q 316.47 340.24 325.16 338.22
  Q 325.43 338.16 325.48 337.88
  L 325.54 337.52
  Q 325.57 337.31 325.36 337.32
  C 320.36 337.55 314.86 340.53 310.44 343.19
  Q 304.21 346.95 289.13 359.89
  Q 288.69 360.27 288.67 359.69
  C 288.15 345.70 292.47 329.02 301.47 317.57
  Q 303.71 314.72 307.85 311.27
  C 312.55 307.36 315.47 305.07 320.21 302.24
  C 325.50 299.09 332.54 298.27 338.53 297.59
  C 345.17 296.83 349.63 298.37 358.04 300.02
  Q 361.65 300.73 364.27 302.01
  Q 365.93 302.83 370.23 304.83
  Q 378.75 308.81 387.10 316.12
  Q 387.81 316.74 387.45 317.61
  Q 385.66 321.95 386.82 325.92
  Q 386.88 326.10 387.05 326.03
  L 387.40 325.91
  A 0.46 0.45 74.6 0 0 387.69 325.39
  Q 386.83 321.20 388.80 317.55
  C 390.31 314.73 394.34 315.00 397.24 315.20
  C 399.52 315.37 401.87 318.11 404.26 320.47
  A 0.37 0.36 -65.1 0 0 404.88 320.24
  Q 405.49 313.76 411.10 312.68
  Q 414.44 312.03 417.03 314.10
  Q 420.07 316.53 421.18 319.28
  Q 421.66 320.46 420.46 320.90
  L 419.91 321.09
  Q 418.74 321.51 418.11 320.44
  C 417.48 319.36 417.25 318.42 415.88 318.04
  Q 410.87 316.66 407.80 320.86
  Q 407.61 321.12 407.89 321.28
  Q 408.01 321.34 408.14 321.36
  Q 408.27 321.37 408.38 321.28
  C 410.93 319.25 411.76 318.57 415.21 318.94
  A 1.53 1.49 69.6 0 1 416.14 319.38
  Q 417.27 320.49 418.69 321.47
  Q 420.06 322.41 421.05 321.84
  A 1.39 1.31 28.4 0 1 421.73 321.66
  Q 431.73 321.81 441.63 323.70
  Q 450.12 325.33 454.03 332.09
  C 457.15 337.48 451.46 339.62 447.61 341.16
  Q 447.13 341.35 446.70 341.07
  Q 445.83 340.51 445.49 339.52
  A 1.08 1.08 0.0 0 1 446.57 338.09
  L 447.97 338.17
  Q 448.63 338.20 448.04 337.86
  Q 446.68 337.08 446.25 337.17
  C 441.89 338.03 438.20 338.69 434.32 339.80
  Q 424.46 342.61 413.95 344.89
  Q 406.74 346.45 403.49 345.86
  C 397.11 344.72 390.65 344.36 384.31 340.48
  Q 381.92 339.02 376.92 336.63
  Q 375.08 335.75 373.72 332.54
  A 0.42 0.41 68.0 0 0 373.20 332.31
  L 372.96 332.40
  Q 372.44 332.59 372.70 333.08
  Q 374.58 336.63 376.73 337.69
  Q 382.48 340.49 383.64 341.20
  C 390.05 345.08 399.00 346.47 406.01 347.09
  Q 407.82 347.26 412.75 346.21
  Q 424.87 343.64 437.53 340.03
  Q 439.76 339.39 443.68 338.84
  Q 444.21 338.77 444.45 339.25
  C 446.89 344.16 449.84 351.04 445.97 356.47
  Q 441.41 362.87 433.80 365.42
  C 431.35 366.24 428.21 366.50 425.45 367.08
  Q 424.89 367.20 420.74 367.67
  Q 418.45 367.94 416.41 369.27
  A 1.65 1.64 -26.3 0 1 413.97 368.45
  L 413.00 365.75
  Q 412.79 365.19 412.21 365.06
  Q 408.46 364.28 405.95 365.52
  Q 403.30 366.83 401.95 367.05
  Q 397.83 367.74 395.25 367.79
  Q 394.74 367.80 394.31 367.53
  C 392.07 366.14 390.55 363.96 388.27 362.87
  Q 385.77 361.68 385.46 361.54
  A 0.32 0.32 0.0 0 1 385.49 360.95
  L 389.74 359.41
  Q 389.90 359.36 389.84 359.19
  L 389.75 358.95
  Q 389.69 358.78 389.50 358.80
  C 387.19 359.03 385.26 360.23 383.04 360.53
  Q 367.62 362.61 352.34 358.96
  Q 352.11 358.90 352.07 359.14
  L 352.02 359.48
  Q 352.00 359.59 352.11 359.63
  Q 354.74 360.64 356.13 360.89
  Q 366.80 362.75 377.40 362.17
  Q 382.70 361.88 384.54 362.38
  Q 388.19 363.37 390.87 366.42
  Q 393.55 369.49 397.30 368.85
  Q 401.01 368.21 402.98 367.97
  Q 404.62 367.76 404.36 369.40
  L 404.29 369.83
  Q 404.06 371.20 402.69 371.38
  Q 399.24 371.83 398.11 371.40
  Q 393.33 369.57 388.10 369.48
  Q 387.87 369.48 387.83 369.71
  L 387.78 370.00
  Q 387.74 370.25 387.99 370.29
  L 394.66 371.37
  A 0.87 0.84 -19.3 0 1 395.05 371.55
  Q 396.00 372.35 395.94 372.77
  A 0.71 0.60 -84.7 0 1 395.32 373.38
  Q 392.06 373.31 387.52 371.91
  C 383.76 370.75 380.91 371.13 376.88 371.08
  Q 375.21 371.06 371.87 370.48
  Q 358.50 368.18 346.01 368.02
  C 343.10 367.98 340.17 365.30 340.02 362.41
  C 339.81 358.50 345.47 354.31 348.65 352.69
  Q 358.52 347.68 365.81 345.52
  Q 366.52 345.31 365.85 345.00
  Q 365.01 344.61 363.96 344.93
  Q 359.89 346.20 354.71 348.63
  C 347.00 352.25 342.17 354.04 339.03 360.76
  A 0.79 0.78 -76.4 0 1 338.31 361.21
  Q 337.27 361.19 327.76 361.41
  C 325.30 361.46 322.11 362.30 318.72 361.75
  Q 318.07 361.65 318.53 361.18
  C 321.76 357.93 328.27 357.18 332.32 354.31
  Q 336.87 351.09 340.84 347.61
  C 344.45 344.45 348.12 340.37 345.79 335.25
  Q 342.44 327.91 333.78 326.22
  Q 326.83 324.87 320.82 324.96
  C 316.16 325.03 312.10 327.25 307.75 329.51
  Q 304.87 331.00 303.64 332.64
  Q 303.48 332.84 303.63 333.04
  Q 303.71 333.15 303.86 333.19
  Q 303.92 333.21 303.96 333.17
  C 310.06 328.78 316.36 325.55 324.28 326.19
  C 333.21 326.91 341.85 327.38 345.16 336.57
  C 346.30 339.72 344.10 343.10 341.91 345.16
  C 336.13 350.58 330.48 355.07 323.79 357.13
  Q 319.81 358.36 318.85 359.33
  Q 317.14 361.06 316.63 361.24
  Q 312.77 362.56 316.84 362.83
  Q 319.82 363.02 326.97 363.30
  Q 329.70 363.41 331.45 365.18
  Q 331.82 365.55 331.61 366.03
  C 329.96 369.83 324.00 366.96 321.49 367.18
  Q 319.14 367.38 316.18 366.63
  Q 313.63 365.98 309.53 366.54
  Q 308.29 366.71 308.17 367.76
  Z"
/>
<path fill="#030303" d="
  M 397.68 321.32
  Q 393.61 321.21 390.35 324.08
  Q 390.24 324.17 390.10 324.15
  L 389.72 324.09
  A 0.28 0.28 0.0 0 1 389.54 323.65
  Q 390.32 322.51 392.97 321.22
  Q 398.31 318.61 402.22 322.89
  A 0.26 0.21 -43.3 0 1 402.18 323.21
  L 401.98 323.41
  A 0.31 0.29 -50.6 0 1 401.60 323.46
  C 400.32 322.62 399.33 321.36 397.68 321.32
  Z"
/>
<path fill="#cfc3b4" d="
  M 338.69 362.50
  A 0.11 0.11 0.0 0 1 338.80 362.61
  L 338.79 362.68
  A 4.07 2.28 1.4 0 1 334.67 364.86
  L 334.39 364.86
  A 4.07 2.28 1.4 0 1 330.38 362.48
  L 330.38 362.41
  A 0.11 0.11 0.0 0 1 330.49 362.30
  L 338.69 362.50
  Z"
/>
<path fill="#cfc3b4" d="
  M 431.93 367.20
  L 437.79 365.09
  A 0.31 0.31 0.0 0 1 438.21 365.37
  C 438.39 368.84 433.99 368.31 431.92 367.37
  Q 431.72 367.28 431.93 367.20
  Z"
/>
<rect fill="#cfc3b4" x="-3.41" y="-1.24" transform="translate(408.82,367.29) rotate(-5.8)" width="6.82" height="2.48" rx="1.18"/>
<path fill="#cfc3b4" d="
  M 308.17 367.76
  C 311.67 367.30 316.86 366.23 318.95 369.85
  A 1.64 1.63 -21.0 0 1 317.87 372.27
  C 315.49 372.76 311.99 370.50 308.76 368.77
  Q 308.03 368.38 308.17 367.76
  Z"
/>
<path fill="#cfc3b4" d="
  M 429.93 367.36
  A 0.12 0.12 0.0 0 1 430.08 367.45
  L 430.08 367.47
  A 3.00 2.22 -12.2 0 1 427.62 370.27
  L 427.42 370.31
  A 3.00 2.22 -12.2 0 1 424.02 368.78
  L 424.02 368.76
  A 0.12 0.12 0.0 0 1 424.11 368.62
  L 429.93 367.36
  Z"
/>
<ellipse fill="#cfc3b4" cx="0.00" cy="0.00" transform="translate(419.27,370.13) rotate(-30.1)" rx="2.17" ry="0.85"/>
</svg>
