<?xml version="1.0" encoding="UTF-8" standalone="no"?>
<svg xmlns="http://www.w3.org/2000/svg" version="1.2" baseProfile="tiny" viewBox="0.00 0.00 720.00 480.00">
<path fill="#cfc3b4" d="
  M 720.00 0.00
  L 720.00 480.00
  L 0.00 480.00
  L 0.00 0.00
  L 720.00 0.00
  Z"
/>
<path fill="#232322" d="
  M 405.71 305.02
  A 0.40 0.40 0.0 0 0 406.43 305.01
  Q 407.99 301.66 408.76 300.27
  C 410.14 297.79 415.04 295.03 417.16 298.07
  Q 417.72 298.87 418.70 301.41
  Q 419.52 303.57 418.98 305.14
  Q 418.41 306.81 418.42 308.90
  C 418.44 313.86 418.43 316.65 415.43 319.81
  C 412.97 322.39 409.17 320.68 408.71 317.52
  C 408.14 313.70 407.09 310.07 408.80 306.97
  Q 410.12 304.57 412.37 302.89
  A 2.37 2.36 -40.9 0 1 415.47 303.11
  L 417.53 305.17
  Q 418.16 305.79 418.13 304.91
  Q 418.00 301.35 416.22 298.79
  A 2.41 2.40 -29.6 0 0 413.25 297.98
  C 409.61 299.64 407.99 303.57 406.87 307.36
  Q 406.34 309.13 405.77 307.37
  C 405.08 305.20 401.94 301.20 399.27 301.52
  C 396.89 301.82 389.67 303.69 388.64 306.62
  C 387.45 310.00 389.03 314.36 390.13 318.63
  Q 390.20 318.87 389.94 318.98
  L 389.68 319.09
  Q 389.39 319.21 389.29 318.93
  C 387.92 315.17 386.15 309.82 387.77 305.98
  Q 388.57 304.09 392.04 302.58
  C 397.68 300.12 402.62 298.92 405.71 305.02
  Z"
/>
<path fill="#cfc3b4" d="
  M 416.12 311.45
  A 1.57 1.54 -47.8 0 0 416.17 312.68
  Q 417.77 315.97 414.68 318.97
  C 412.31 321.27 410.36 319.54 409.78 316.90
  C 408.52 311.15 408.21 307.01 412.81 303.81
  A 1.80 1.80 0.0 0 1 415.30 304.25
  Q 417.65 307.53 416.12 311.45
  Z"
/>
<path fill="#232322" d="
  M 344.23 353.48
  Q 344.25 353.07 343.88 353.25
  L 331.08 359.41
  Q 330.06 359.91 331.18 360.11
  C 333.62 360.54 337.19 359.91 338.82 362.99
  Q 339.06 363.44 338.78 363.88
  C 337.49 365.94 336.35 365.70 334.36 365.96
  Q 333.86 366.02 333.62 366.48
  Q 332.19 369.20 328.76 368.78
  Q 324.32 368.22 322.12 368.01
  Q 319.91 367.80 321.33 369.50
  C 322.37 370.74 321.82 372.09 320.53 372.91
  C 316.52 375.48 313.09 372.10 309.54 369.64
  C 307.60 368.30 305.20 367.18 302.40 367.54
  Q 297.08 368.23 290.76 368.07
  C 286.75 367.97 282.82 364.87 286.51 360.78
  A 1.14 1.14 0.0 0 0 286.52 359.27
  C 282.69 354.90 281.65 349.86 283.06 344.12
  Q 285.86 332.72 292.24 325.93
  Q 304.57 312.81 322.08 307.57
  Q 327.22 306.03 331.75 306.08
  Q 339.74 306.16 360.51 307.03
  Q 369.34 307.40 379.63 309.61
  Q 383.28 310.39 385.90 311.92
  Q 386.11 312.04 386.01 312.27
  L 385.86 312.57
  Q 385.69 312.92 385.33 312.75
  Q 381.69 311.04 377.71 310.40
  C 370.37 309.21 365.05 308.42 358.24 308.15
  Q 333.15 307.13 331.75 307.12
  C 330.19 307.12 328.94 307.02 327.35 307.36
  Q 310.13 310.99 296.37 323.35
  Q 289.17 329.81 286.31 337.38
  C 284.50 342.16 283.02 347.08 283.87 351.71
  Q 284.50 355.13 287.71 359.18
  Q 288.04 359.60 288.48 359.30
  Q 289.36 358.70 292.08 356.52
  C 295.58 353.71 299.37 351.72 302.89 349.06
  Q 305.23 347.29 308.96 345.42
  C 315.93 341.91 321.46 340.03 329.94 339.79
  C 331.40 339.74 333.08 340.32 333.95 341.20
  Q 335.52 342.79 333.47 341.96
  C 332.50 341.56 331.52 341.08 330.34 341.08
  C 321.61 341.09 315.03 343.39 307.12 347.91
  Q 296.72 353.86 287.09 362.20
  A 2.02 2.02 0.0 0 0 286.78 364.93
  Q 288.10 366.75 291.00 366.75
  Q 296.60 366.76 301.47 366.30
  Q 304.05 366.05 306.06 366.68
  C 310.05 367.92 312.53 370.74 315.61 372.22
  Q 317.36 373.06 319.11 372.22
  L 319.70 371.94
  Q 321.35 371.14 319.88 370.05
  Q 317.35 368.17 313.56 367.23
  Q 313.19 367.14 313.02 366.80
  L 312.83 366.39
  Q 312.44 365.58 313.30 365.81
  Q 316.66 366.69 319.68 366.63
  C 323.21 366.56 326.69 367.87 330.08 367.38
  Q 333.60 366.88 330.60 364.97
  Q 324.96 361.40 317.90 362.10
  Q 315.59 362.33 315.05 362.32
  Q 314.85 362.32 314.83 362.13
  L 314.80 361.77
  A 0.41 0.40 -5.6 0 1 315.17 361.33
  Q 328.37 360.08 340.01 353.94
  Q 341.13 353.35 343.66 352.32
  C 345.23 351.69 346.44 350.93 348.27 349.93
  Q 351.95 347.91 351.93 343.24
  C 351.92 339.35 348.92 337.43 345.41 336.13
  Q 336.45 332.80 323.20 334.06
  Q 310.54 335.27 300.79 340.48
  A 0.30 0.30 0.0 0 1 300.38 340.09
  L 300.98 338.88
  A 0.45 0.45 0.0 0 1 301.21 338.65
  Q 318.01 330.99 336.77 332.78
  C 340.16 333.10 348.03 335.01 350.53 337.53
  Q 353.88 340.90 352.79 346.52
  A 0.57 0.56 -8.6 0 0 353.61 347.12
  L 363.95 341.68
  Q 366.11 340.55 364.61 342.41
  Q 364.17 342.96 362.70 343.70
  C 352.69 348.78 347.72 350.95 342.51 358.27
  C 339.24 362.87 343.34 367.97 348.26 367.85
  Q 355.45 367.68 359.67 368.14
  Q 363.33 368.54 378.50 371.04
  Q 380.43 371.36 387.56 371.39
  Q 388.09 371.39 388.55 371.64
  C 390.50 372.72 395.09 374.67 396.66 372.68
  A 0.46 0.45 32.2 0 0 396.50 371.99
  L 395.24 371.37
  Q 394.79 371.15 394.79 370.65
  L 394.79 370.07
  Q 394.79 369.34 395.37 369.77
  Q 397.41 371.26 403.32 370.38
  Q 404.16 370.25 404.73 368.95
  Q 404.80 368.80 404.76 368.64
  A 1.49 0.84 78.4 0 0 403.72 367.44
  L 393.58 368.38
  A 1.23 0.41 -48.1 0 0 392.89 368.77
  L 392.38 369.21
  Q 391.82 369.70 391.82 368.96
  L 391.82 367.23
  A 0.70 0.69 -77.2 0 0 391.43 366.60
  L 379.51 360.76
  A 4.00 3.96 -36.9 0 0 377.03 360.42
  C 371.09 361.55 367.33 360.85 359.58 360.16
  Q 358.80 360.09 358.73 359.31
  L 358.70 359.01
  A 0.46 0.45 -86.7 0 1 359.24 358.52
  Q 367.13 360.01 374.34 359.59
  Q 377.74 359.39 387.04 356.43
  C 388.29 356.03 389.13 355.15 389.90 354.39
  Q 390.30 354.01 390.54 354.51
  L 390.68 354.80
  Q 390.83 355.11 390.58 355.35
  C 388.55 357.36 384.44 358.60 381.85 359.32
  Q 380.47 359.70 381.75 360.35
  Q 385.83 362.42 392.18 365.80
  Q 393.80 366.67 396.01 366.60
  Q 403.49 366.37 403.77 366.39
  Q 405.26 366.48 408.18 365.89
  Q 410.34 365.45 412.62 365.54
  Q 413.12 365.56 413.46 365.92
  Q 415.02 367.54 415.76 367.53
  C 422.54 367.45 430.40 366.28 435.50 361.84
  C 438.75 359.00 442.33 356.30 443.96 352.97
  C 445.33 350.19 449.59 340.12 447.46 336.55
  Q 446.92 335.65 445.91 335.91
  Q 437.68 338.01 420.50 342.50
  Q 412.65 344.55 405.89 343.58
  C 399.00 342.60 392.26 342.50 386.85 339.24
  Q 383.91 337.47 377.65 334.27
  C 376.85 333.85 375.72 332.90 375.20 332.29
  Q 373.77 330.55 375.70 331.69
  Q 381.05 334.83 387.51 338.26
  Q 392.83 341.09 398.25 341.51
  C 405.01 342.04 411.11 342.98 417.77 341.88
  Q 418.95 341.69 430.12 338.82
  Q 437.14 337.02 446.62 334.59
  Q 447.58 334.35 448.02 335.24
  L 448.83 336.93
  A 0.75 0.75 0.0 0 0 449.95 337.21
  C 452.26 335.53 455.55 332.87 455.51 329.81
  C 455.39 321.36 445.26 320.14 438.31 318.48
  Q 433.52 317.34 419.90 317.30
  A 0.53 0.53 0.0 0 1 419.44 317.00
  L 419.24 316.59
  Q 419.04 316.17 419.51 316.18
  C 426.11 316.29 434.99 316.02 442.10 318.13
  Q 449.39 320.29 452.12 321.67
  Q 454.49 322.87 456.10 326.59
  C 458.45 332.03 454.07 335.50 450.04 338.63
  A 1.58 1.52 79.9 0 0 449.50 339.44
  C 448.34 343.66 447.23 349.37 444.61 354.43
  C 443.37 356.82 441.31 358.37 438.88 360.58
  A 0.72 0.72 0.0 0 0 439.06 361.77
  Q 441.44 362.89 441.55 364.74
  A 2.27 2.26 -0.8 0 1 439.21 367.14
  L 432.92 366.92
  A 0.82 0.81 13.7 0 0 432.17 367.37
  L 431.30 369.16
  A 2.59 2.57 -79.8 0 1 429.26 370.59
  Q 425.72 370.96 423.10 370.29
  Q 422.59 370.16 422.26 370.56
  C 419.93 373.43 413.99 372.62 412.60 369.47
  Q 412.35 368.90 411.78 369.15
  Q 409.03 370.34 406.75 370.14
  Q 406.22 370.10 405.78 370.41
  Q 403.47 372.07 399.52 372.25
  Q 399.00 372.27 398.70 372.69
  Q 396.53 375.76 392.06 374.38
  C 390.04 373.76 388.07 372.58 385.60 372.56
  C 377.12 372.49 368.66 370.72 360.36 369.58
  Q 357.15 369.14 354.61 369.12
  C 350.21 369.08 345.47 369.81 342.51 367.06
  C 337.59 362.48 341.02 358.56 343.99 354.03
  Q 344.22 353.68 344.23 353.48
  Z"
/>
<path fill="#232322" d="
  M 400.58 306.18
  A 2.50 2.50 0.0 0 1 403.39 308.31
  L 404.21 314.29
  A 6.61 5.33 82.2 0 1 399.83 321.56
  L 399.83 321.56
  A 6.61 5.33 82.2 0 1 393.65 315.73
  L 392.83 309.76
  A 2.50 2.50 0.0 0 1 394.97 306.94
  L 400.58 306.18
  Z"
/>
<path fill="#cfc3b4" d="
  M 400.54 315.48
  Q 400.03 317.11 400.96 319.00
  A 1.16 1.16 0.0 0 1 399.78 320.67
  C 395.29 320.14 394.38 316.49 394.21 312.58
  C 394.03 308.63 395.99 306.80 400.04 307.32
  C 402.94 307.68 402.97 312.20 402.94 314.08
  Q 402.93 314.68 402.33 314.74
  L 401.35 314.83
  A 0.94 0.92 -83.4 0 0 400.54 315.48
  Z"
/>
<path fill="#cfc3b4" d="
  M 336.88 364.05
  C 332.50 365.66 330.99 362.92 326.97 361.92
  Q 326.15 361.71 326.98 361.53
  C 327.98 361.31 328.86 360.98 329.69 361.15
  Q 332.29 361.68 336.08 362.03
  Q 337.09 362.12 337.32 363.27
  A 0.69 0.69 0.0 0 1 336.88 364.05
  Z"
/>
<path fill="#cfc3b4" d="
  M 433.33 365.38
  L 435.78 362.93
  Q 436.41 362.30 437.30 362.27
  Q 438.72 362.22 439.94 364.08
  A 1.21 1.21 0.0 0 1 438.93 365.95
  L 433.57 365.95
  A 0.34 0.33 22.4 0 1 433.33 365.38
  Z"
/>
<rect fill="#cfc3b4" x="-3.06" y="-0.81" transform="translate(409.29,367.75) rotate(-11.9)" width="6.12" height="1.62" rx="0.63"/>
<path fill="#cfc3b4" d="
  M 430.72 366.82
  A 0.10 0.10 0.0 0 1 430.83 366.90
  L 430.84 366.94
  A 3.78 2.04 -9.2 0 1 427.43 369.56
  L 427.06 369.62
  A 3.78 2.04 -9.2 0 1 423.00 368.21
  L 422.99 368.17
  A 0.10 0.10 0.0 0 1 423.08 368.05
  L 430.72 366.82
  Z"
/>
<path fill="#cfc3b4" d="
  M 420.71 368.86
  A 0.14 0.14 0.0 0 1 420.83 369.02
  L 420.82 369.13
  A 2.52 1.99 5.1 0 1 418.14 370.88
  L 415.94 370.69
  A 2.52 1.99 5.1 0 1 413.61 368.48
  L 413.62 368.37
  A 0.14 0.14 0.0 0 1 413.77 368.25
  L 420.71 368.86
  Z"
/>
</svg>
