<svg id="Layer_1" data-name="Layer 1" xmlns="http://www.w3.org/2000/svg" viewBox="0 0 720 480"><defs><style>.cls-1{fill:#cfc3b4;}.cls-2{fill:none;}.cls-2,.cls-4{stroke:#000;stroke-miterlimit:10;}.cls-3{fill:#202020;}.cls-5{fill:#fff;}.cls-6{fill:#3c3c3c;}</style></defs><title>18</title><g id="_18" data-name="18"><path class="cls-1" d="M719,1V481H-1V1Z" transform="translate(1 -1)"/><path class="cls-2" d="M404.57,307.57" transform="translate(1 -1)"/><path class="cls-3" d="M366.65,321.72c-.34-.14-1.36-.47-2-.67s-1.53-.52-2.31-.71l-2.56-.65c-.85-.21-1.81-.38-2.69-.55s-1.85-.36-2.73-.49-1.87-.29-2.68-.4-1.9-.22-2.57-.31c-1.33-.16-3.44-.36-4.4-.44l-4.43-.37-4.46-.35c-2.14-.17-6.06-.49-8.53-.76a2.78,2.78,0,0,0-.41.69c2.53.28,6.61.61,8.79.79l4.46.34,4.41.37c1,.09,3.06.28,4.38.45.66.08,1.74.19,2.54.3l2.64.4a70.62,70.62,0,0,1,10,2.33c.93.3,1.61.51,2,.66a20,20,0,0,0,3.49,1A16.84,16.84,0,0,0,366.65,321.72Z" transform="translate(1 -1)"/><path class="cls-3" d="M366.65,322.88c1.21-.2,2.34-.35,3.58-.49.17,0,.63-.06.83-.06s.43,0,.6,0H372l.49,0c.24,0,.64.05,1,.1a12.66,12.66,0,0,1,1.9.42,9.13,9.13,0,0,1,3.3,1.83,6,6,0,0,1,1.84,2.93,4.87,4.87,0,0,1-.3,3.35,9.62,9.62,0,0,1-2.33,3,44.4,44.4,0,0,1-6.79,4.7c-2,1.22-4.86,2.75-6.35,3.49-3,1.47-3.93,2-6.72,3.14s-3.27,1.43-7.1,2.81a146.49,146.49,0,0,1-16,4.66c-2.56.55-6.68,1.39-9.54,1.79-.72.11-1.65.26-2.39.36l-2.35.29c-.74.09-1.57.19-2.28.26s-1.49.12-2.12.19l-2.18.18a22.54,22.54,0,0,0-3.74.57,22.36,22.36,0,0,0,3.79.14c.41,0,1.57-.11,2.2-.18l2.15-.19c.72-.06,1.55-.17,2.31-.26l2.36-.29c.76-.1,1.7-.26,2.42-.36,2.89-.41,7.05-1.26,9.63-1.81a147.86,147.86,0,0,0,16.18-4.71c3.88-1.4,4.36-1.64,7.18-2.83s3.78-1.69,6.78-3.18c1.51-.75,4.37-2.28,6.43-3.53a45.05,45.05,0,0,0,7-4.82,10.45,10.45,0,0,0,2.49-3.27,5.44,5.44,0,0,0,.33-3.7,6.67,6.67,0,0,0-2-3.23,10,10,0,0,0-3.66-2,12.85,12.85,0,0,0-2.11-.47c-.33-.05-.78-.09-1-.1l-.54,0a2.4,2.4,0,0,0-.27,0,.94.94,0,0,0-.17,0c-.14,0-.43,0-.65,0s-.73,0-.91.07A8.75,8.75,0,0,0,366.65,322.88Z" transform="translate(1 -1)"/><path class="cls-3" d="M306,324.88a2,2,0,0,0-.32,2.76,4.74,4.74,0,0,0,.94,1,27.28,27.28,0,0,0,2.86,1.89c.75.4,1.37.75,2.08,1.08s1.13.52,1.92.85,2.55,1,3.3,1.17,1.74.49,2.12.58a16.3,16.3,0,0,0,3.79.38,31.74,31.74,0,0,0-3.44-1.06c-.35-.09-1.32-.34-2.05-.56s-2.43-.82-3.2-1.14-1.18-.5-1.86-.82-1.3-.66-2-1.05a24.68,24.68,0,0,1-2.72-1.8,4.21,4.21,0,0,1-.83-.86,3.36,3.36,0,0,1-.59-1.21A2.16,2.16,0,0,1,306,324.88Z" transform="translate(1 -1)"/><path class="cls-3" d="M327,370.82c-3.6-.61-8.39-1.59-11.64-2.37-2-.48-3.44-.85-4.72-1.2l-1.9-.52c-.92-.26-.67-.19-1.87-.55s-2.83-.82-4.57-1.42-4.34-1.41-6.35-2.29-4.33-2.21-5.46-4.25a5.58,5.58,0,0,1-.75-3.1,6.08,6.08,0,0,1,.9-3.13,10.69,10.69,0,0,1,5.68-4.22,15.26,15.26,0,0,1,1.75-.48c.44-.1.63-.12.9-.16l.46-.07.35,0,.59,0,.83,0c1.23,0,2.36,0,3.57,0a9.25,9.25,0,0,0-3.54-.76l-.9,0-.64.05-.38,0-.49.07c-.24,0-.63.1-.94.17a15.34,15.34,0,0,0-1.93.52c-2.48.93-4.88,2.32-6.2,4.63a6.94,6.94,0,0,0-.19,6.75,7.75,7.75,0,0,0,2.49,2.75,17.1,17.1,0,0,0,3.38,1.86c2,.87,4.69,1.73,6.44,2.32s3.39,1.07,4.6,1.43.95.29,1.88.55l1.92.52c1.3.36,2.69.73,4.75,1.22,3.45.82,8.45,1.84,12.25,2.47A4.11,4.11,0,0,0,327,370.82Z" transform="translate(1 -1)"/><path class="cls-3" d="M325.36,371.15a24.7,24.7,0,0,0,3.54.91l1.52.28c1.38.25,4.3.86,5.77,1.22s2.5.62,3.76,1,1.9.55,3.23,1,3.91,1.3,5.13,1.76l2,.76a24.26,24.26,0,0,0,3.49,1,14.1,14.1,0,0,0-3-1.67l-2-.77c-1.23-.47-3.84-1.36-5.19-1.78s-2-.62-3.27-1-2.31-.62-3.8-1-4.43-1-5.83-1.23l-1.55-.28A19.9,19.9,0,0,0,325.36,371.15Z" transform="translate(1 -1)"/><path class="cls-3" d="M352.46,377.83a5.85,5.85,0,0,0,1.52,2.53,6.56,6.56,0,0,0,1.15.89,8.51,8.51,0,0,0,4.33,1,7.52,7.52,0,0,0,2.08-.61,3.84,3.84,0,0,0,.56-.39c.19-.16,0,0,.21-.18a2.39,2.39,0,0,0,.44-.53,3.17,3.17,0,0,0,.49-1.35,3.4,3.4,0,0,0-.38-1.69,4.68,4.68,0,0,0-1.31-1.26,7.61,7.61,0,0,0-2.09-.81,7.93,7.93,0,0,0-3.89.18,24.42,24.42,0,0,1,3.55.5,6.67,6.67,0,0,1,1.75.69,3.74,3.74,0,0,1,1.07,1,2.85,2.85,0,0,1,.31,1.36,2.8,2.8,0,0,1-.39,1.08,1.9,1.9,0,0,1-.34.4c-.12.13,0,0-.15.14a4.21,4.21,0,0,1-.42.29,5.6,5.6,0,0,1-1.58.45,7,7,0,0,1-3.58-.87,6.12,6.12,0,0,1-1-.79C353.85,379.05,353.33,378.54,352.46,377.83Z" transform="translate(1 -1)"/><path class="cls-3" d="M356.48,375.92c.67-.81,1.24-1.45,2-2.29.13-.14.62-.64.89-.86l.47-.39.33-.24.3-.21.51-.33a16.27,16.27,0,0,1,1.77-.89c1.26-.53,2.11-.88,3.29-1.33a10.3,10.3,0,0,0-3.76.71,16.51,16.51,0,0,0-1.92,1l-.56.35-.32.23-.36.26-.51.42a10.9,10.9,0,0,0-1,.94A4.5,4.5,0,0,0,356.48,375.92Z" transform="translate(1 -1)"/><path class="cls-3" d="M365.7,368.94a18.62,18.62,0,0,0,3.75.43c.26,0,.86,0,1.6,0s2.23-.06,3.35-.12a12.45,12.45,0,0,0,4-.78,4.22,4.22,0,0,0,1.42-1.07,1.8,1.8,0,0,0,.4-1.22,1.48,1.48,0,0,0-.26-.82c-.15-.25,0,0-.23-.32a2.49,2.49,0,0,0-.86-.74,7.71,7.71,0,0,0-2.74-.84,21.91,21.91,0,0,0-7,.49,8.4,8.4,0,0,0-2.11.94,3,3,0,0,0-1.69,2.6,8.39,8.39,0,0,1,2.32-2.07,7.69,7.69,0,0,1,1.84-.81,20.4,20.4,0,0,1,6.39-.44,6.41,6.41,0,0,1,2.29.68,1.76,1.76,0,0,1,.67.58c.18.22.07,0,.16.24s.22.11.19.64a2.1,2.1,0,0,1-1.39,1.6,13.23,13.23,0,0,1-3.5.63c-1,0-2.57.11-3.27.12h-1.57A30.21,30.21,0,0,0,365.7,368.94Z" transform="translate(1 -1)"/><path class="cls-3" d="M366,365.29c-1.26-.18-2.19-.35-3.54-.63-.22-.05-.81-.21-1.37-.4a13.73,13.73,0,0,1-2.57-1.29,8.77,8.77,0,0,1-1.34-1.17,5.39,5.39,0,0,1-.85-1.18,5,5,0,0,1-.62-2.11,2.5,2.5,0,0,1,.41-1.45,3.05,3.05,0,0,1,1.07-.95,3.58,3.58,0,0,1,1.51-.45,3.14,3.14,0,0,0-1.87,0,2.84,2.84,0,0,0-1.62,1.13,3.2,3.2,0,0,0-.51,1.74,6.15,6.15,0,0,0,.69,2.38,7,7,0,0,0,.95,1.3,9.51,9.51,0,0,0,1.47,1.28,14.56,14.56,0,0,0,2.82,1.41,14.35,14.35,0,0,0,1.5.43A9.49,9.49,0,0,0,366,365.29Z" transform="translate(1 -1)"/><path class="cls-3" d="M357.73,356.47a7.53,7.53,0,0,0,3.87-.2,10,10,0,0,0,1.42-.66,6.94,6.94,0,0,0,1.67-1.42,4.86,4.86,0,0,0,.88-2.07,3.52,3.52,0,0,0-.31-1.77,2.15,2.15,0,0,0-.35-.54c-.15-.2,0,0-.18-.21a3,3,0,0,0-.59-.53,6.57,6.57,0,0,0-1.78-.85,10.27,10.27,0,0,0-2.67-.3,8.68,8.68,0,0,0-2.44.61,5.75,5.75,0,0,0-1.75,1.29,2.36,2.36,0,0,0-.45,2.8,4,4,0,0,1,.43-1.22,4.93,4.93,0,0,1,.81-1.17,4.77,4.77,0,0,1,1.47-1.09,6.66,6.66,0,0,1,2-.5,8,8,0,0,1,2.2.25,5.1,5.1,0,0,1,1.48.7,2.2,2.2,0,0,1,.49.44,1.78,1.78,0,0,1,.4.59,2.7,2.7,0,0,1,.26,1.47,3.93,3.93,0,0,1-.75,1.76,5.62,5.62,0,0,1-1.42,1.21,8.08,8.08,0,0,1-1.22.57A20.37,20.37,0,0,1,357.73,356.47Z" transform="translate(1 -1)"/><path class="cls-3" d="M357.66,352.33c-1,.56-1.9,1.07-2.93,1.73-.17.11-1,.57-1.11.68l0,0c-.06,0,0,0,0,0l-.08.05c-.25.14-1.41.74-1.72.89-1.15.54-2,1-3.07,1.6a14.26,14.26,0,0,0,3.59-1c.34-.15,1.55-.78,1.8-.93l.08-.05c.07,0,0,0,0,0l.06,0c.18-.08,1-.59,1.16-.71A8.87,8.87,0,0,0,357.66,352.33Z" transform="translate(1 -1)"/><path class="cls-3" d="M340.19,363.72a17.22,17.22,0,0,0,3.69-.77c.23-.07.95-.34,1.41-.51l2-.81c.49-.22.87-.38,1.28-.58l1.1-.53c.41-.2,1.43-.74,1.73-.91.59-.32,1.51-.87,1.8-1.05a11.29,11.29,0,0,0,2.5-2.16,27.55,27.55,0,0,0-3.13,1.62c-.3.18-1.18.71-1.76,1-.3.16-1.29.69-1.69.89l-1.07.52c-.4.19-.77.35-1.25.56s-1.49.61-1.93.78-1.16.43-1.38.51A30.81,30.81,0,0,0,340.19,363.72Z" transform="translate(1 -1)"/><path class="cls-3" d="M342.67,366.11a13.42,13.42,0,0,0,3.47,1.07c.26.05.78.13,1.6.23s3.15.28,4.3.27c.57,0,1.51,0,2,0l.89,0c.35,0,.33,0,.76-.05s1.17-.09,1.72-.14c1.1-.1,3.19-.45,4.07-.63s1.85-.42,2.22-.52a14.12,14.12,0,0,0,3.39-1.44c-1.38.23-2.19.38-3.7.76-.37.1-1.29.33-2.15.5s-2.87.52-3.94.61c-.53,0-1.25.13-1.67.15l-.73.05-.86,0c-.45,0-1.36,0-1.91,0-1.11,0-3.36-.17-4.16-.26s-1.3-.18-1.55-.22C344.92,366.27,344,366.19,342.67,366.11Z" transform="translate(1 -1)"/><path class="cls-3" d="M344.42,369.84a14.17,14.17,0,0,0,3.44,1.12c.25,0,.83.14,1.57.24s2.67.29,3.67.32c.51,0,1.24.05,1.7,0h.81l2.11-.07c.8,0,2.73-.23,3.5-.33s1.87-.29,2.25-.36a15.83,15.83,0,0,0,3.54-1.19c-1.38.13-2.26.22-3.75.49-.37.07-1.43.25-2.18.35s-2.62.29-3.4.32-1.51.07-2,.07-.34,0-.79,0-1.15,0-1.64-.05c-1,0-2.85-.22-3.56-.31l-1.52-.23A37,37,0,0,0,344.42,369.84Z" transform="translate(1 -1)"/><path class="cls-3" d="M341.79,371.24a29.12,29.12,0,0,0,3.49.92l1.46.28,2.1.48c.58.15.75.18,1.43.37s2.34.68,3,.9,1.64.56,2,.68a27.27,27.27,0,0,0,3.49,1,13.25,13.25,0,0,0-3-1.63c-.32-.13-1.32-.48-2-.7s-2.37-.73-3.07-.92l-1.45-.37c-.6-.15-1.64-.38-2.15-.49l-1.49-.29A18.69,18.69,0,0,0,341.79,371.24Z" transform="translate(1 -1)"/><path class="cls-3" d="M307.62,320.73a13.5,13.5,0,0,0,1.89-2.36c.08-.13.28-.42.39-.58l.28-.43c.12-.18.24-.38.41-.62s.36-.55.58-.83c.45-.57.77-1.1,1.27-1.7,1-1.22,1.75-2.18,3-3.43a119.71,119.71,0,0,1,15.78-13.51c2.88-2.1,6.23-4.41,9.32-6.52s6.4-4.36,9.7-6.25a52.43,52.43,0,0,1,10.72-4.64,74.1,74.1,0,0,1,11.46-2.07c6.47-.74,15-1.33,20.37-1.66s10.77-.48,14.2-.58,3.82-.06,5.59-.11.36,0,1.72,0a34.4,34.4,0,0,0,4.07-.2,26.53,26.53,0,0,0,6-1.65,57,57,0,0,1,7.23-2.61,15.9,15.9,0,0,1,4.41-.35,7.34,7.34,0,0,1,4.06,1.33c1.13.92,1.18,2.11,1.78,3.42a3.82,3.82,0,0,0,1.66,1.75,10.82,10.82,0,0,0,2.66.9c1.81.39,3.85.65,5.63,1a14.76,14.76,0,0,1,5.08,1.79c1.42.92,2.35,2,2.13,3.61A10.08,10.08,0,0,1,457,288.7a24.65,24.65,0,0,1-7,7.7c-3.14,2.15-7.19,3.4-11.06,4.32s-8.09,1.71-12,2.44c-2,.37-3.93.68-5.85,1-1,.16-2,.3-2.86.43s-1.82.26-2.56.37l-2.19.3-.8.11-.35.06c-.11,0,0,0-.07,0s0,0-.05,0-.07-.06-.17-.14l-.37-.28c-.18-.14-.57-.42-.79-.56a7.74,7.74,0,0,0,.36.76c.1.17.13.26.21.37s0,.13.14.21.06.27.27.31a7,7,0,0,0,.93-.07c.32,0,.31,0,.83-.09l2.2-.29,2.58-.37c.88-.13,1.89-.28,2.86-.44,1.95-.31,3.9-.62,5.89-1,4-.74,8.14-1.52,12.11-2.46s8.2-2.26,11.45-4.49a25.88,25.88,0,0,0,7.23-8,12.24,12.24,0,0,0,2-4.5,3.19,3.19,0,0,0-.51-2.35,5.59,5.59,0,0,0-1.93-1.84,16.67,16.67,0,0,0-5.46-1.95c-1.88-.37-3.82-.6-5.62-1a8.73,8.73,0,0,1-2.36-.79,3,3,0,0,1-1.36-1.44c-.33-.64-.38-1.21-.67-1.88a4.16,4.16,0,0,0-1.28-1.77,9.1,9.1,0,0,0-4.68-1.55,17.92,17.92,0,0,0-4.79.38,57,57,0,0,0-7.42,2.67,25.26,25.26,0,0,1-5.68,1.57,31.82,31.82,0,0,1-3.93.19c-1.34.05.06,0-1.71,0s-2.17,0-5.61.1-8.85.24-14.25.58-13.94.92-20.45,1.67a75,75,0,0,0-11.68,2.11,54.17,54.17,0,0,0-11,4.75c-3.34,1.92-6.65,4.17-9.77,6.3s-6.45,4.42-9.35,6.54a120.16,120.16,0,0,0-15.91,13.62c-1.22,1.26-2,2.24-3,3.48-.51.61-.84,1.14-1.29,1.72-.23.29-.43.59-.6.84l-.42.64-.28.43c-.1.16-.31.47-.38.59A9.12,9.12,0,0,0,307.62,320.73Z" transform="translate(1 -1)"/><path class="cls-3" d="M407.72,293.74a1.63,1.63,0,0,1,.1-1.2,6.85,6.85,0,0,1,.74-1.26,11.62,11.62,0,0,1,.77-1,20.18,20.18,0,0,1,4-3.57,24.42,24.42,0,0,1,2.26-1.32c.67-.33.34-.19,1.16-.55a26.93,26.93,0,0,1,3.21-1.17,36.11,36.11,0,0,1,5.75-1c.91-.05,1.84-.08,2.23-.09,1.57,0,2.38,0,3.79-.12a13.05,13.05,0,0,0-3.76-.59c-.4,0-1.37,0-2.33.08a38.51,38.51,0,0,0-6,1.09,30.67,30.67,0,0,0-3.36,1.23c-.86.38-.51.24-1.21.58a26.78,26.78,0,0,0-2.37,1.38,21.6,21.6,0,0,0-4.23,3.74,9.92,9.92,0,0,0-.8,1.07,2.57,2.57,0,0,0-.57,1.5C407.05,293.08,407.36,293.36,407.72,293.74Z" transform="translate(1 -1)"/><path class="cls-3" d="M406.23,311.57a5.29,5.29,0,0,1-1.57-.37,8.21,8.21,0,0,1-1.43-.78,7.36,7.36,0,0,1-.93-.77,7.94,7.94,0,0,1-1.21-1.67,5.69,5.69,0,0,1-.66-2.34,7.12,7.12,0,0,1,.15-1.84,8.48,8.48,0,0,1,.55-1.49c.53-1,.88-1.62,1.42-2.5a6.08,6.08,0,0,0-2.35,2.27,8.51,8.51,0,0,0-.61,1.63,7.88,7.88,0,0,0-.16,2,7.45,7.45,0,0,0,.2,1.21,6.93,6.93,0,0,0,.51,1.33,8.39,8.39,0,0,0,1.34,1.83,7.65,7.65,0,0,0,1.06.88A4.64,4.64,0,0,0,406.23,311.57Z" transform="translate(1 -1)"/><path class="cls-3" d="M458.81,286.42c-.15.89-.25,1.71-.35,2.64a5.87,5.87,0,0,1-.08.62l-.1.46a8.24,8.24,0,0,1-.31,1.08,15.24,15.24,0,0,1-3,4.75,24.16,24.16,0,0,1-4.37,3.56,18.22,18.22,0,0,1-2.45,1.38,26.47,26.47,0,0,1-2.64,1.18,57.66,57.66,0,0,1-6.05,2c-2,.5-5.06,1.13-7,1.45l-2.2.35a24.84,24.84,0,0,0-3.68.87,21.11,21.11,0,0,0,3.84-.17l2.23-.35c2-.32,5.1-1,7.13-1.48a56,56,0,0,0,6.2-2,26.05,26.05,0,0,0,2.73-1.22,20.79,20.79,0,0,0,2.54-1.42,25.72,25.72,0,0,0,4.56-3.71,16.07,16.07,0,0,0,3.18-5,8.14,8.14,0,0,0,.33-1.14l.1-.5a4.4,4.4,0,0,0,.08-.65A4.72,4.72,0,0,0,458.81,286.42Z" transform="translate(1 -1)"/><path class="cls-3" d="M445.16,302.47a25.66,25.66,0,0,0-2.7,2l-1,.87c-.81.66-2.83,2.1-3.78,2.68s-2.05,1.21-2.71,1.56-.32.16-.83.42-1.2.58-1.78.85c-1.16.54-3.49,1.42-4.43,1.73s-1.75.56-2.11.67a30.44,30.44,0,0,0-3.48,1.25,17.24,17.24,0,0,0,3.81-.59c.39-.11,1.21-.36,2.18-.67s3.35-1.23,4.54-1.78c.59-.28,1.3-.6,1.82-.87s.17-.08.85-.44,1.8-1,2.78-1.59,3.05-2.07,3.87-2.75c.54-.44.91-.75,1.07-.9A9.14,9.14,0,0,0,445.16,302.47Z" transform="translate(1 -1)"/><path class="cls-3" d="M309,330a22.33,22.33,0,0,1-3.51.54h-.81c-.2,0-.45,0-.58,0h-.17a1,1,0,0,1-.27,0l-.54-.07c-.26-.05-.71-.12-1-.22a10.8,10.8,0,0,1-2-.73,8.42,8.42,0,0,1-3.23-2.54,7.27,7.27,0,0,1-1.38-3.64,17,17,0,0,1,1.56-7.92,44.1,44.1,0,0,1,3.91-7.27,54.28,54.28,0,0,1,4.52-5.77c1.35-1.53,2.67-2.79,3.68-3.77s.8-.74,1.61-1.48.44-.45,1.68-1.46,2.26-1.9,4.38-3.45A133,133,0,0,1,332,282.69c1.29-.67,3.21-1.66,4.7-2.37a35.93,35.93,0,0,1,4.89-2,13.84,13.84,0,0,1,5.1-.59,8,8,0,0,1,2.27.57,4.21,4.21,0,0,1,.89.5,1.94,1.94,0,0,1,.37.31.73.73,0,0,1,.16.17l.11.12a2.78,2.78,0,0,1,.56,1.37,3.3,3.3,0,0,1-.11,1.26,3.07,3.07,0,0,1-.62,1.15c1.07-.62,1.72-1.11,1.72-2.52a3.27,3.27,0,0,0-.68-1.63.58.58,0,0,0-.12-.15,1.65,1.65,0,0,0-.2-.21,3.08,3.08,0,0,0-.46-.39,6,6,0,0,0-1.06-.6,9.4,9.4,0,0,0-2.63-.66,15.38,15.38,0,0,0-5.65.63,36,36,0,0,0-5.06,2.11c-1.54.73-3.45,1.72-4.74,2.4A132.29,132.29,0,0,0,316,291.65c-2.15,1.57-3.18,2.48-4.43,3.49a18.68,18.68,0,0,0-1.69,1.48c-.83.74-.62.49-1.64,1.49s-2.36,2.27-3.72,3.82a54.78,54.78,0,0,0-4.59,5.85,44.33,44.33,0,0,0-4,7.39,17.41,17.41,0,0,0-1.6,8.19,7.9,7.9,0,0,0,1.48,3.9,9.43,9.43,0,0,0,3.56,2.79,14,14,0,0,0,2.24.81c.36.1.86.18,1.15.23l.6.09.31,0h.18c.16,0,.44,0,.66,0s.74,0,.93,0A6.72,6.72,0,0,0,309,330Z" transform="translate(1 -1)"/><path class="cls-3" d="M340.45,286.77a16.67,16.67,0,0,0-2.34,2.21c-.14.16-.47.57-.83,1s-1.22,1.39-1.71,1.91-.61.66-1.22,1.3-2.07,2.08-2.77,2.73l-1.39,1.29a15,15,0,0,0-2.08,2.37,14.86,14.86,0,0,0,2.84-1.93l1.42-1.31c.71-.65,2.17-2.11,2.79-2.76l1.24-1.31c.49-.53,1.36-1.51,1.72-1.93s.71-.83.83-1A9.47,9.47,0,0,0,340.45,286.77Z" transform="translate(1 -1)"/><path class="cls-4" d="M432.14,286.55c2.65,2.93.5,6.17-2.7,7.73s-8.16,2-10.81-1-.5-6.18,2.71-7.74S429.5,283.61,432.14,286.55Z" transform="translate(1 -1)"/><path class="cls-4" d="M446.83,287.25c-.36-1.1.68-1.84,1.68-2s2.39,0,2.75,1.13-.68,1.84-1.68,2S447.19,288.35,446.83,287.25Z" transform="translate(1 -1)"/><path class="cls-5" d="M424,287.63c-.36-1.1.68-1.84,1.67-2s2.39,0,2.75,1.14-.67,1.84-1.67,2S424.38,288.73,424,287.63Z" transform="translate(1 -1)"/><path class="cls-3" d="M436.22,291.59a4.28,4.28,0,0,0,1-2.69,7.64,7.64,0,0,0-.16-1.13s-.06-.23-.08-.28-.06-.22-.08-.27a7.62,7.62,0,0,0-.76-1.54,5.94,5.94,0,0,0-2.56-2c.61.8,1.05,1.41,1.66,2.32a8.3,8.3,0,0,1,.69,1.4s.06.2.07.25.07.23.08.26a7.79,7.79,0,0,1,.14,1C436.25,289.92,436.26,290.67,436.22,291.59Z" transform="translate(1 -1)"/><path class="cls-2" d="M483.38,334.36" transform="translate(1 -1)"/><path class="cls-6" d="M299.83,346.75a7.65,7.65,0,0,0,1.85-.86l.41-.27.29-.19,1-.66,1.18-.71c3.2-2,7.13-4.07,10.95-5.92s7.59-3.37,10.37-4.45l3.37-1.23,1.27-.43a145.4,145.4,0,0,1,15.63-4.3c4.13-.93,8.59-1.64,12.21-2.16l1.23-.16a7.49,7.49,0,0,0,2-.54,7.32,7.32,0,0,0-2,0l-1.22.16c-3.63.51-8.12,1.23-12.25,2.16a145.14,145.14,0,0,0-15.69,4.33l-1.28.42-3.38,1.23c-2.8,1.09-6.59,2.6-10.42,4.47s-7.78,4-11,5.95l-1.19.71-1,.67-.29.19-.42.27A7.28,7.28,0,0,0,299.83,346.75Z" transform="translate(1 -1)"/><path class="cls-6" d="M323.92,355.53a6.88,6.88,0,0,0,1.88.81l1.7.42c1.26.29,2.76.59,4.21.79a49.16,49.16,0,0,0,5.57.48,51.12,51.12,0,0,0,5.58-.13c1.45-.11,3-.31,4.24-.49l1.23-.21a7,7,0,0,0,1.93-.64,7.82,7.82,0,0,0-2,.1l-1.22.2c-1.24.19-2.76.39-4.2.49a51.78,51.78,0,0,1-5.53.14,46.83,46.83,0,0,1-5.5-.49c-1.43-.2-2.92-.49-4.17-.78l-1.69-.41A7.71,7.71,0,0,0,323.92,355.53Z" transform="translate(1 -1)"/><path class="cls-6" d="M361.6,343.75a7.35,7.35,0,0,0,1.92.68,4.08,4.08,0,0,0,.49.1l1.67.3a55.59,55.59,0,0,0,6.4.68,43.82,43.82,0,0,0,5.84-.07c1.55-.11,2.54-.26,2.54-.26a46.63,46.63,0,0,0,8.18-1.86,49.25,49.25,0,0,0,5.94-2.41,10.66,10.66,0,0,0,1.12-.55,7.33,7.33,0,0,0,1.66-1.18,7.54,7.54,0,0,0-1.91.7c-.2.11-.6.31-1.1.54a50.64,50.64,0,0,1-5.88,2.38,46.58,46.58,0,0,1-8.08,1.84s-1,.15-2.51.26a44.71,44.71,0,0,1-5.77.06,57.37,57.37,0,0,1-6.34-.67l-1.66-.3-.48-.09A7.21,7.21,0,0,0,361.6,343.75Z" transform="translate(1 -1)"/><path class="cls-6" d="M396.19,337a8.58,8.58,0,0,0,.36-2l0-.49,0-.34.08-.68a29.91,29.91,0,0,1,.5-3.14,31.75,31.75,0,0,1,1.12-4s.38-1.11,1-2.49a37.65,37.65,0,0,1,2.15-4.12c.32-.55.55-.87.66-1.05a8.47,8.47,0,0,0,.88-1.83,6.63,6.63,0,0,0-1.35,1.54c-.1.18-.33.5-.66,1.06a37,37,0,0,0-2.18,4.18c-.63,1.39-1,2.53-1,2.53a32.71,32.71,0,0,0-1.14,4.06c-.22,1.09-.41,2.23-.51,3.2l-.07.69,0,.35,0,.49A6.34,6.34,0,0,0,396.19,337Z" transform="translate(1 -1)"/><path class="cls-3" d="M439,349.88a11.41,11.41,0,0,0-2.61-.53l-.58,0h-.43a8.49,8.49,0,0,0-1.15.12,3.6,3.6,0,0,0-1.81.78c-.49.16-.53,1.14-.17,1.44a7.9,7.9,0,0,0,3.11,2.88c.59.35,1.11.6,1.61.84l.77.35c.63.27,1.52.63,2.54,1,.52.17,1.93.64,2.75.85s2.37.67,3.15.91a3.88,3.88,0,0,1,2.07,1.27c.23.5-.11.36-.34.51s-.78,0-1.07,0a4.92,4.92,0,0,1-1.1-.46,17.65,17.65,0,0,1-1.44-1.14c.1.24,0,.32.22.56a2.28,2.28,0,0,0,.73.66,6.26,6.26,0,0,0,1.54.65,4.48,4.48,0,0,0,.9.14,2.09,2.09,0,0,0,.78-.07c.26-.1.64-.24.5-.64a1.87,1.87,0,0,0-.91-.89,9.35,9.35,0,0,0-1.6-.74c-1-.35-2.43-.73-3.31-1s-2.15-.66-2.65-.83c-1-.34-1.84-.67-2.44-.94a7.66,7.66,0,0,1-.72-.33c-.47-.22-1-.47-1.52-.79A7,7,0,0,1,433,351.8a1,1,0,0,1,.15-1.32,2.81,2.81,0,0,1,1.61-.72c.28-.06.81-.09,1-.11h.9C437.49,349.71,438.22,349.78,439,349.88Z" transform="translate(1 -1)"/><path class="cls-3" d="M445.13,359.83a25.16,25.16,0,0,0-2.38-1l-2.54-.91c-.92-.33-2.47-.9-3.59-1.29-.57-.19-1.48-.44-2.09-.58a4.63,4.63,0,0,0-2,0c-.5.16-.49.44-.45.77a2.38,2.38,0,0,0,.44.87c.26.44.77,1.18,1,1.46a15.5,15.5,0,0,0,1.13,1.45c.31.36.11.13.42.46a14.16,14.16,0,0,0,1.09,1.06,19.54,19.54,0,0,0,1.95,1.49,6.27,6.27,0,0,1,1.86,1.64c.23.51.05.47-.29.66a2.83,2.83,0,0,1-1.41.1,6.75,6.75,0,0,1-1.67-.38,3.43,3.43,0,0,1-1.1-.67.79.79,0,0,1-.29-.61.64.64,0,0,1,.19-.45,1.09,1.09,0,0,1,.48-.33c-.5.07-1.2-.05-1.34.64a.91.91,0,0,0,.36.75,4.73,4.73,0,0,0,1.44.87,10.57,10.57,0,0,0,2.12.5,4.72,4.72,0,0,0,1.79-.12c.47-.17.59-.43.42-.81a5.9,5.9,0,0,0-2-1.83c-.65-.47-1.42-1-1.9-1.46s-.76-.71-1.07-1-.1-.1-.41-.46a16,16,0,0,1-1.1-1.41c-.19-.28-.71-1-1-1.45a2.5,2.5,0,0,1-.42-.81c0-.28-.07-.49.33-.61a3.24,3.24,0,0,1,1.48,0,19.22,19.22,0,0,1,1.86.52l3.55,1.27,2.54.91C443.69,359.46,444.09,359.54,445.13,359.83Z" transform="translate(1 -1)"/><path class="cls-3" d="M434.94,363.73a2.83,2.83,0,0,0-.63-1.15,2.68,2.68,0,0,0-.25-.28,2,2,0,0,0-.2-.23c-.16-.17-.37-.4-.64-.66a37.57,37.57,0,0,0-3.74-3.19c-.33-.25-.72-.53-1.11-.8a8.26,8.26,0,0,0-1.38-.75,5.35,5.35,0,0,0-1.72-.39,3.56,3.56,0,0,0-1.17.13,11.42,11.42,0,0,0-1.17.39,4,4,0,0,0-.45.17,2.86,2.86,0,0,0-.43.19,4,4,0,0,0-.89.54,1.53,1.53,0,0,0-.52,1.07c0,.45.18.84-.14,1.33s-1.21.6-1.88.53a4.76,4.76,0,0,1-1.31-.37,2,2,0,0,1-.75-.61c-.14-.25-.1-.36.07-.52a1.68,1.68,0,0,1,.6-.29,4.47,4.47,0,0,1,.81-.16,6.38,6.38,0,0,0-1.15-.06,1.56,1.56,0,0,0-.88.27.44.44,0,0,0-.11.69,2.44,2.44,0,0,0,1,.82,6.25,6.25,0,0,0,1.89.54,4.21,4.21,0,0,0,1.57-.12c.43-.15.6-.19.82-.55a2.92,2.92,0,0,0,.12-1.35,1.3,1.3,0,0,1,.47-1,4,4,0,0,1,.84-.52l.41-.18.44-.16a11.25,11.25,0,0,1,1.12-.38,3.12,3.12,0,0,1,.93-.11,3.66,3.66,0,0,1,1.17.27,12.11,12.11,0,0,1,2.22,1.41,36.3,36.3,0,0,1,3.68,3.13c.27.27.47.49.63.66l.2.21.25.28A12.58,12.58,0,0,0,434.94,363.73Z" transform="translate(1 -1)"/><path class="cls-6" d="M435.13,347.22a4.09,4.09,0,0,1,1.82-.43,2.68,2.68,0,0,1,.77.17,5.24,5.24,0,0,1,.84.35,4.81,4.81,0,0,1,.5.29s.18.12.39.29a3.61,3.61,0,0,1,.58.6c.34.48.35.83.31.91s-.36.31-.63.38a4.89,4.89,0,0,1-.93.12,2.41,2.41,0,0,0,1,.28,1.43,1.43,0,0,0,.56-.08.84.84,0,0,0,.55-.53,1.61,1.61,0,0,0-.38-1.4,3.68,3.68,0,0,0-.67-.7,5.17,5.17,0,0,0-.44-.33s-.24-.16-.55-.32a7.8,7.8,0,0,0-.92-.39,3.69,3.69,0,0,0-.9-.19,1.76,1.76,0,0,0-1.13.3A4.21,4.21,0,0,0,435.13,347.22Z" transform="translate(1 -1)"/><path class="cls-6" d="M444.16,359.83a5.35,5.35,0,0,0-2-.46c-.14,0-.38,0-.87,0-.23,0-.63,0-1,0l-.62.06a9.28,9.28,0,0,0-1.46.32,3.64,3.64,0,0,0-1.19.61,1.42,1.42,0,0,0-.52,1.08,2.87,2.87,0,0,0,.2,1c.14-.71.16-1.21.67-1.65a3,3,0,0,1,1-.51,9,9,0,0,1,1.35-.3l.59-.05c.33,0,.71,0,.94,0,.47,0,.7,0,.84,0A13,13,0,0,0,444.16,359.83Z" transform="translate(1 -1)"/><path class="cls-6" d="M437.47,349.62a2.73,2.73,0,0,0-.63,2,3.6,3.6,0,0,0,.18.89,4.59,4.59,0,0,0,.39.88c.16.28.32.51.32.51l.31.41c.18.22.41.48.59.66.46.47.77.72.93.86a6.12,6.12,0,0,0,1.75,1.05,9.07,9.07,0,0,0-1.4-1.46c-.15-.14-.45-.39-.89-.84-.16-.16-.38-.41-.55-.62s-.29-.38-.29-.38-.14-.2-.29-.46a5,5,0,0,1-.35-.78,3.33,3.33,0,0,1-.16-.77A8.87,8.87,0,0,1,437.47,349.62Z" transform="translate(1 -1)"/><path class="cls-6" d="M432.78,361.19a7.31,7.31,0,0,0-1.84-.88l-.81-.27-1.88-.61c-.66-.2-1.22-.32-1.22-.32l-1.07-.23c-.6-.12-1.34-.24-1.86-.3s-1.05-.1-1.26-.12a2.12,2.12,0,0,0-1.94.7,3.86,3.86,0,0,1,1.9-.15c.21,0,.6,0,1.23.11s1.24.18,1.82.29l1,.23s.55.12,1.2.32l1.87.61.81.26A7.42,7.42,0,0,0,432.78,361.19Z" transform="translate(1 -1)"/><path class="cls-6" d="M397.34,332.75a4.13,4.13,0,0,0-1.2,1.68,5.1,5.1,0,0,0-.17.49l-.1.34a7.11,7.11,0,0,0-.18,1.4,6.32,6.32,0,0,0,.78,3.13,10.63,10.63,0,0,0,2.14,2.61,25.48,25.48,0,0,0,4.74,3.46c1.34.79,2.22,1.26,2.22,1.26l2.22,1.23a32.39,32.39,0,0,1,4.81,3.18,11,11,0,0,1,3.61,5,11.61,11.61,0,0,1,.34,1.15,14.68,14.68,0,0,0,.59,1.93,4.94,4.94,0,0,0-.06-2.05,10.52,10.52,0,0,0-.35-1.22,11.46,11.46,0,0,0-3.78-5.23,33,33,0,0,0-4.89-3.24l-2.22-1.23s-.88-.47-2.21-1.25A25.69,25.69,0,0,1,399,342a10.87,10.87,0,0,1-2-2.48,5.67,5.67,0,0,1-.54-4.13l.09-.32c.05-.2.12-.35.15-.45C397,333.87,397.1,333.44,397.34,332.75Z" transform="translate(1 -1)"/><path class="cls-3" d="M434.14,334.78c-.12,0-.44,0-.5.19a1.52,1.52,0,0,0-.1.46,1.5,1.5,0,0,0,0,.37,2.45,2.45,0,0,0,.08.37,1.59,1.59,0,0,0,.22.43.56.56,0,0,0,.54.09c.11-.06.27-.22.2-.36a1.37,1.37,0,0,1-.16-1.24C434.47,334.94,434.26,334.81,434.14,334.78Z" transform="translate(1 -1)"/><path class="cls-3" d="M435.55,336.52c-.55.19-.64.08-1.19.49l-2.2,1.68c-.65.49-1.67,1.27-2.19,1.68s-.35.43-.61.89c.54-.2.64-.08,1.19-.49s1.55-1.19,2.2-1.68,1.67-1.27,2.19-1.68S435.29,337,435.55,336.52Z" transform="translate(1 -1)"/><path class="cls-3" d="M444.52,338.78a2.37,2.37,0,0,0,.58.73,4.47,4.47,0,0,1,.84.95,9.28,9.28,0,0,1,.46.88c.16.33.26.58.43,1a4.69,4.69,0,0,0,.75,1.16,1.73,1.73,0,0,0,1.05.48,1.82,1.82,0,0,0-.35-.81,5.76,5.76,0,0,1-.67-1.06c-.16-.34-.27-.59-.42-.93a6.17,6.17,0,0,0-.5-.94,4.28,4.28,0,0,0-1-1.1A2,2,0,0,0,444.52,338.78Z" transform="translate(1 -1)"/><path class="cls-3" d="M431.13,341.15a3.2,3.2,0,0,0-3.12.5,1.58,1.58,0,0,0-.55,1,1.3,1.3,0,0,0,.82,1.14,5.17,5.17,0,0,0,.94.29,3.74,3.74,0,0,0,1.07-.05,4.18,4.18,0,0,0,1.37-.69,3.61,3.61,0,0,0,.46-.4,4,4,0,0,0,.34-.36c.18-.2.46-.53.67-.8a12,12,0,0,1,1.8-1.72,9.19,9.19,0,0,1,1.42-.79c1.09-.47,1.76-.69,2.75-1.09a8.5,8.5,0,0,0-3.15.58,9.25,9.25,0,0,0-1.58.88,11.94,11.94,0,0,0-1.94,1.84c-.23.29-.48.59-.66.79s-.16.17-.31.32a2.36,2.36,0,0,1-.39.35,3,3,0,0,1-1,.52,2.26,2.26,0,0,1-1.29-.16.73.73,0,0,1-.49-.66,1,1,0,0,1,.37-.66A4.17,4.17,0,0,1,431.13,341.15Z" transform="translate(1 -1)"/><path class="cls-3" d="M452.08,336.59a4.69,4.69,0,0,0-2,1.87,5.34,5.34,0,0,0-.35,1,5.21,5.21,0,0,0-.12,1.68,5.37,5.37,0,0,0,.71,1.88,14.14,14.14,0,0,0,1.1,1.34,3.67,3.67,0,0,1,.44.58,1.15,1.15,0,0,1,.24.51,1.29,1.29,0,0,1-.1,1.15,1.89,1.89,0,0,1-1.54.63,3.31,3.31,0,0,1-1.63-.56,2,2,0,0,1-.6-1.05,9.34,9.34,0,0,1,0-2.18c-.52.81-.95,1.16-.81,2.29a2.29,2.29,0,0,0,.78,1.34,4.08,4.08,0,0,0,2.21.75,4.51,4.51,0,0,0,1.4-.23,2.3,2.3,0,0,0,.94-.77,1.82,1.82,0,0,0,.16-1.52,1.38,1.38,0,0,0-.3-.62,4.09,4.09,0,0,0-.47-.64,15.6,15.6,0,0,1-1.07-1.29,5,5,0,0,1-.63-1.69,4.55,4.55,0,0,1,.11-1.52,4.16,4.16,0,0,1,.31-.86A19.06,19.06,0,0,1,452.08,336.59Z" transform="translate(1 -1)"/><path class="cls-6" d="M436.37,339.14a19.71,19.71,0,0,0,1.94-.49c.13,0,.35-.11.81-.21a9.31,9.31,0,0,1,1.6-.21,8.25,8.25,0,0,1,1,0s.39,0,.89.1a8.5,8.5,0,0,1,1.47.39,7.12,7.12,0,0,1,1.09.52c.69.41,1.1.63,1.74,1a4.17,4.17,0,0,0-1.47-1.45,8.88,8.88,0,0,0-1.16-.55,8.11,8.11,0,0,0-1.58-.42,8.81,8.81,0,0,0-.94-.11,9.27,9.27,0,0,0-1.09,0,10.25,10.25,0,0,0-1.7.22c-.48.11-.71.19-.85.23A4.59,4.59,0,0,0,436.37,339.14Z" transform="translate(1 -1)"/><path class="cls-6" d="M433.09,341.91a10.9,10.9,0,0,0,2-.3l.82-.19A19.27,19.27,0,0,1,439,341a15.4,15.4,0,0,1,2,0s.76.06,1.7.24a14.42,14.42,0,0,1,2.85.85c.58.24.93.42,1.11.51a11.31,11.31,0,0,0,1.88.75,5.4,5.4,0,0,0-1.63-1.24c-.19-.09-.55-.28-1.15-.53a16.56,16.56,0,0,0-6.78-1.17,20.11,20.11,0,0,0-3.21.39c-.48.1-.7.16-.84.2A5.62,5.62,0,0,0,433.09,341.91Z" transform="translate(1 -1)"/><path class="cls-6" d="M451.59,343.5a14.78,14.78,0,0,0,.56-1.93c0-.13.08-.36.22-.8A8.06,8.06,0,0,1,454,338a10.5,10.5,0,0,1,1.49-1.42,12.78,12.78,0,0,1,1.47-1,17.32,17.32,0,0,1,2.8-1.29c.59-.21,1-.32,1.17-.38a10.09,10.09,0,0,0,1.88-.74,5.62,5.62,0,0,0-2,.22c-.21.06-.59.17-1.21.38a18,18,0,0,0-2.89,1.34,12.4,12.4,0,0,0-1.53,1,11.52,11.52,0,0,0-1.56,1.49,8.42,8.42,0,0,0-1.7,2.94,7.35,7.35,0,0,0-.23.85A4.91,4.91,0,0,0,451.59,343.5Z" transform="translate(1 -1)"/><path class="cls-3" d="M444.05,330a8.75,8.75,0,0,1,2.29,1.32l.88.68a8.46,8.46,0,0,0,2.2,1.29,5.62,5.62,0,0,0,1.78.21,10.71,10.71,0,0,0,1.7-.31c.87-.25,1.83-.54,2.56-.71l1.23-.27c.83-.17,2.07-.34,3.25-.45.59-.05,2.12-.09,2.86-.11a9.87,9.87,0,0,1,2.48.29c.56.17.57.59.45.76-.56.83-1.39.85-2.21,1.18a6.15,6.15,0,0,0,1.54-.06,2.09,2.09,0,0,0,1.44-.88.76.76,0,0,0,.12-.66,1.38,1.38,0,0,0-.85-.84,9.69,9.69,0,0,0-2.89-.38c-.87,0-2.37.06-3,.11a31.75,31.75,0,0,0-3.37.46l-1.28.28c-.74.18-1.74.46-2.58.72a5.54,5.54,0,0,1-2.85.11,7.06,7.06,0,0,1-2-1.16c-.43-.31-.71-.57-.89-.69A4.56,4.56,0,0,0,444.05,330Z" transform="translate(1 -1)"/><path class="cls-3" d="M451,337.76a19.85,19.85,0,0,1,2.13-1.64,10,10,0,0,1,1-.59,15.67,15.67,0,0,1,2.7-1,17.17,17.17,0,0,1,2-.41,13.81,13.81,0,0,1,1.77-.14c.74,0,2.28.06,3,.07a5.6,5.6,0,0,0,2-.4,1.92,1.92,0,0,0,1.12-1.1c.23-.51-.08-.76-.38-1.07a.83.83,0,0,1-.18.92,2.54,2.54,0,0,1-1,.74,4.09,4.09,0,0,1-1.62.31c-.71,0-2.21-.09-3-.07a16.21,16.21,0,0,0-1.9.16,20.12,20.12,0,0,0-2.1.43,17.37,17.37,0,0,0-2.9,1.12,9.32,9.32,0,0,0-1.08.65A3.75,3.75,0,0,0,451,337.76Z" transform="translate(1 -1)"/><path class="cls-3" d="M462,332.74c.2,0,.38-.25.51-.42a1.81,1.81,0,0,1,.57-.53,2.15,2.15,0,0,1,.65-.21,2,2,0,0,1,.69.06,2,2,0,0,1,.72.38c.18.13.43.36.64.29a.41.41,0,0,0,0-.65,2.6,2.6,0,0,0-1.07-.59,3.78,3.78,0,0,0-1.11-.08,3.42,3.42,0,0,0-1,.33,2.26,2.26,0,0,0-.84.81A.41.41,0,0,0,462,332.74Z" transform="translate(1 -1)"/><path class="cls-6" d="M422.42,314.33a7.33,7.33,0,0,0-1.4,1.47l-6.46,8.9-6.18,8.52a7.29,7.29,0,0,0-1,1.79,7.06,7.06,0,0,0,1.4-1.47L415,325l6.46-8.9A7.29,7.29,0,0,0,422.42,314.33Z" transform="translate(1 -1)"/><path class="cls-6" d="M407.83,334a7.19,7.19,0,0,0,1.33,1.55l1.56,1.32c1.32,1.1,2.94,2.31,4.54,3.4a64.51,64.51,0,0,0,6.33,3.83s3.1,1.68,6.68,3.16c.9.36,1.82.73,2.72,1.07a10.85,10.85,0,0,0,2.68.76,5.32,5.32,0,0,0,1.3,0,2.42,2.42,0,0,0,1.79-1.05,5.49,5.49,0,0,1-1.86.5,4.56,4.56,0,0,1-1.16,0,10.5,10.5,0,0,1-2.56-.73c-.89-.34-1.8-.71-2.69-1.07-3.56-1.47-6.64-3.13-6.64-3.13a65.35,65.35,0,0,1-6.28-3.8c-1.59-1.09-3.2-2.29-4.51-3.38l-1.55-1.3A7.68,7.68,0,0,0,407.83,334Z" transform="translate(1 -1)"/><path class="cls-6" d="M436.44,346.49a.6.6,0,0,0-.56-.31,2.07,2.07,0,0,0-.88.27,1.81,1.81,0,0,0-.55.5,1.69,1.69,0,0,0-.29.7,2.27,2.27,0,0,0,.1.92c.06.21.19.3.4.44a.73.73,0,0,0,.13-.59,1.67,1.67,0,0,1-.08-.69,1.05,1.05,0,0,1,.18-.46,1.18,1.18,0,0,1,.38-.34,1.71,1.71,0,0,1,.66-.21A1.08,1.08,0,0,0,436.44,346.49Z" transform="translate(1 -1)"/><path class="cls-6" d="M415.9,355a11.5,11.5,0,0,0-2,0L413,355c-.25,0-.86,0-.86,0l-.8,0c-.63,0-1-.08-1.22-.1a12.87,12.87,0,0,0-2-.09,5.27,5.27,0,0,0,1.95.63c.21,0,.61.08,1.26.11.3,0,.82,0,.82,0s.64,0,.9,0l.87-.07A5.29,5.29,0,0,0,415.9,355Z" transform="translate(1 -1)"/><path class="cls-6" d="M410.32,355a4.46,4.46,0,0,0-1.82-1,4.75,4.75,0,0,0-.9-.13,3.74,3.74,0,0,0-1.69.33,1.72,1.72,0,0,0-.65.55,1.52,1.52,0,0,0-.16.35,1.24,1.24,0,0,0,.19,1.07,2.37,2.37,0,0,0,1.51.75,4.18,4.18,0,0,0,1.32,0,4.6,4.6,0,0,0,1.92-.74,18.36,18.36,0,0,0-2,.2,3.9,3.9,0,0,1-1.17,0,1.94,1.94,0,0,1-1.16-.54.69.69,0,0,1-.09-.59.9.9,0,0,1,.53-.56,3.33,3.33,0,0,1,1.42-.27,4.56,4.56,0,0,1,.79.11C409.15,354.8,409.61,354.91,410.32,355Z" transform="translate(1 -1)"/><path class="cls-6" d="M409,356.7a5.08,5.08,0,0,0,1.93.68c.14,0,.37.06.86.1.21,0,.7,0,.7,0l.65,0c.65,0,1.05,0,1.26,0a5.49,5.49,0,0,0,2-.47,11,11,0,0,0-2-.07c-.2,0-.59,0-1.22,0l-.63,0-.68-.05-.83-.1A13.16,13.16,0,0,0,409,356.7Z" transform="translate(1 -1)"/><path class="cls-6" d="M409.81,354.64a1.14,1.14,0,0,0,.78.16c.17,0,.67-.11,1.12-.22s.87-.22.87-.22.41-.11.85-.26.92-.34,1.08-.4a1.11,1.11,0,0,0,.58-.55,1.33,1.33,0,0,0-.79,0c-.15.06-.61.24-1,.39s-.83.25-.83.25l-.84.22c-.44.1-.93.18-1.09.21A1.35,1.35,0,0,0,409.81,354.64Z" transform="translate(1 -1)"/><path class="cls-6" d="M437.62,308.73a7.09,7.09,0,0,0-.5,2c0,.33-.05,1-.09,1.77a23.65,23.65,0,0,0,.33,4.35c.1.74.32,1.44.47,2.1s.38,1.24.57,1.73l.47,1.16c.12.28.2.43.2.43a25,25,0,0,0,3,4.8c.45.59,1,1.14,1.46,1.7s1,1.06,1.48,1.49l.91.85a7,7,0,0,0,1.7,1.12,7.5,7.5,0,0,0-1.34-1.53l-.89-.84c-.46-.42-.95-.95-1.46-1.46s-1-1.09-1.43-1.68a23.74,23.74,0,0,1-3-4.69,2.75,2.75,0,0,1-.2-.41l-.46-1.14c-.18-.47-.36-1-.56-1.68s-.36-1.32-.45-2a23.43,23.43,0,0,1-.32-4.25l.08-1.73A7.57,7.57,0,0,0,437.62,308.73Z" transform="translate(1 -1)"/><path class="cls-6" d="M427.25,323a6.89,6.89,0,0,0,.64,1.94l.38.76c.34.67.93,1.79,1.46,2.72l1,1.71s1.51,2.56,2.42,3.93l.69,1a7,7,0,0,0,1.37,1.51,8.08,8.08,0,0,0-.91-1.81l-.68-1c-.91-1.36-2.42-3.91-2.42-3.91l-1-1.69c-.52-.94-1.11-2.05-1.45-2.71l-.38-.76A8,8,0,0,0,427.25,323Z" transform="translate(1 -1)"/><path class="cls-6" d="M427.59,325.43c-.36-.63-.61-1-1-1.7-.07-.12-.2-.3-.41-.71a7.92,7.92,0,0,1-.59-1.66,6,6,0,0,1-.13-.78l-.05-.33s0-.43,0-1a15.27,15.27,0,0,1,.08-1.7c.07-.63.12-1,.14-1.23a7.68,7.68,0,0,0,0-2,6.93,6.93,0,0,0-.55,2c0,.21-.08.6-.15,1.25a16.15,16.15,0,0,0-.08,1.76c0,.57,0,1,0,1l0,.35a8.48,8.48,0,0,0,.78,2.61,6,6,0,0,0,.45.77A4.21,4.21,0,0,0,427.59,325.43Z" transform="translate(1 -1)"/><path class="cls-6" d="M408.5,335.45a7.17,7.17,0,0,0,2-.32l1.54-.49c1.05-.33,2.28-.76,3.43-1.22a33.42,33.42,0,0,0,4.31-2,21.61,21.61,0,0,0,2.56-1.71,18.26,18.26,0,0,0,3.75-3.82c.37-.53.59-.88.69-1.06a4.84,4.84,0,0,0,.67-1.94,14.12,14.12,0,0,0-1.14,1.66c-.1.17-.31.51-.67,1a17.6,17.6,0,0,1-3.63,3.7,20.21,20.21,0,0,1-2.51,1.67,32.19,32.19,0,0,1-4.23,2c-1.14.45-2.36.87-3.4,1.21l-1.53.48A7.91,7.91,0,0,0,408.5,335.45Z" transform="translate(1 -1)"/></g></svg>