<svg id="Layer_1" data-name="Layer 1" xmlns="http://www.w3.org/2000/svg" viewBox="0 0 720 480"><defs><style>.cls-1{fill:#cfc3b4;}.cls-2{fill:#202020;}.cls-3{fill:#fff;}.cls-4{fill:#3c3c3c;}</style></defs><title>19</title><g id="_19" data-name="19"><path class="cls-1" d="M719,1V481H-1V1Z" transform="translate(1 -1)"/><path class="cls-2" d="M513.38,161.4a7.45,7.45,0,0,1,2.78.82,5.17,5.17,0,0,1,2,1.92,9,9,0,0,1,1,2.73c-.19-.13-.38-.26-.61-.39l.83,1.5c.07.39.13.77.2,1.16a23.17,23.17,0,0,1-.46,10.51c-1.08,3.55-3.6,6.62-6.21,9.31s-5.35,5.25-8.05,7.69c-1.34,1.21-2.69,2.39-4,3.54-.68.57-1.35,1.13-2,1.7l-1.82,1.49c-.72.57-1.3,1.05-1.6,1.29l-.57.42c-.24.17-.47.33-.69.5l-.42-.2c-.12,0-.14-.08-.24-.12L493,205c-.27-.16-.53-.34-.81-.54.37,0,.7.09,1,.15l.48.1.2,0h0l0-.05a1,1,0,0,1,.22-.2c.16-.15.35-.29.54-.45s.87-.7,1.57-1.28l1.82-1.48c.65-.57,1.32-1.13,2-1.69,1.34-1.15,2.68-2.33,4-3.52,2.68-2.43,5.38-5,8-7.66s5-5.6,6-9a22.6,22.6,0,0,0,.43-10.17,14.8,14.8,0,0,0-1.29-4.76,5.13,5.13,0,0,0-4.09-2.36,13.43,13.43,0,0,0-5.28.65c-1.73.51-3.42,1.17-5.17,1.62a9.25,9.25,0,0,1-2.74.37,4.57,4.57,0,0,1-2.49-.87c-1.31-1-2.24-2.08-3.65-2.34a6.61,6.61,0,0,0-4.15.62,11.7,11.7,0,0,0-3.31,2.32,40.57,40.57,0,0,0-4,5.67,17,17,0,0,1-3.71,4.21,30.13,30.13,0,0,1-3.1,2l-1.1.64-4.21,2.48c-2.68,1.6-6.5,4-11,6.94s-9.82,6.62-15.35,10.78a51.23,51.23,0,0,0-7.83,7.07,34.65,34.65,0,0,0-5.5,9.11c-1.42,3.27-2.49,6.68-3.6,10.09s-2.17,6.82-3.12,10.19a90,90,0,0,0-3.64,19.45c-.11,1.52-.1,3-.09,4.43,0,.72.09,1.42.12,2.13,0,.35,0,.68.09,1s.05.49.09.75,0,.35,0,.5c.05.31.07.55.09.72a10.4,10.4,0,0,1,.05,3,12,12,0,0,1-.68-1.65,6.46,6.46,0,0,1-.27-1.18c0-.17-.05-.42-.09-.74,0-.15,0-.32-.06-.5s-.06-.51-.09-.77-.06-.69-.08-1.05c0-.7-.09-1.42-.12-2.15,0-1.45,0-3,.08-4.5a90.89,90.89,0,0,1,3.66-19.6c.95-3.39,2-6.8,3.14-10.22s2.19-6.84,3.62-10.16a35.77,35.77,0,0,1,5.63-9.33,52.88,52.88,0,0,1,8-7.21c5.57-4.18,10.86-7.81,15.42-10.82s8.39-5.34,11.07-7S474,176.4,474,176.4s.37-.23,1.11-.64a29,29,0,0,0,3-1.9,15.81,15.81,0,0,0,3.51-4,39.12,39.12,0,0,1,4.15-5.82,12.22,12.22,0,0,1,3.6-2.52,7.62,7.62,0,0,1,4.8-.7,5.63,5.63,0,0,1,2.2,1.06c.63.47,1.16,1,1.75,1.41a3.69,3.69,0,0,0,2,.72,8.27,8.27,0,0,0,2.41-.33c1.68-.45,3.35-1.1,5.15-1.63A14.77,14.77,0,0,1,513.38,161.4Z" transform="translate(1 -1)"/><path class="cls-1" d="M513.21,162.2a5.13,5.13,0,0,1,4.09,2.36,14.8,14.8,0,0,1,1.29,4.76,22.6,22.6,0,0,1-.43,10.17c-1,3.36-3.43,6.3-6,9s-5.31,5.23-8,7.66c-1.34,1.19-2.68,2.37-4,3.52-.67.56-1.34,1.12-2,1.69l-1.82,1.48c-.7.58-1.29,1-1.57,1.28s-.38.3-.54.45a1,1,0,0,0-.22.2l0,.05h0l-.2,0-.48-.1c-.33-.06-.66-.1-1-.15.28.2.54.38.81.54l.39.24c.1,0,.12.07.24.12l.42.2c.22-.17.45-.33.69-.5l.57-.42c.3-.24.88-.72,1.6-1.29l1.82-1.49c.65-.57,1.32-1.13,2-1.7,1.34-1.15,2.69-2.33,4-3.54,2.7-2.44,5.41-5,8.05-7.69s5.13-5.76,6.21-9.31a23.17,23.17,0,0,0,.46-10.51c-.07-.39-.13-.77-.2-1.16.2.31.4.64.63,1.05a4,4,0,0,1,.35.61c.08.13.14.29.22.44a11,11,0,0,1,.47,1.13,14.57,14.57,0,0,1,.75,5.77,18.72,18.72,0,0,1-1.17,5.32,17.37,17.37,0,0,1-1,2.23,19.62,19.62,0,0,1-1.25,2.15,34.61,34.61,0,0,1-3.57,4.6,60.63,60.63,0,0,1-4.72,4.57c-.68.59-1.25,1.06-1.53,1.31a14.21,14.21,0,0,0-2.27,2.36,12.61,12.61,0,0,0,2.85-1.8c.31-.24.87-.71,1.56-1.31a57.53,57.53,0,0,0,4.8-4.65c.82-.9,1.58-1.82,2.24-2.68-.08.35-.16.73-.24,1.18,0,.21-.1.55-.25,1.25a38.65,38.65,0,0,1-1.27,4.31c-.57,1.47-1.16,2.66-1.16,2.66s-.11.25-.33.66-.5,1-.85,1.57a33.36,33.36,0,0,1-2.48,3.69c-.6.82-1,1.28-1.23,1.54a18,18,0,0,0-1.87,2.6l-.1,0c-.18-.59-.36-1.11-.53-1.54-.27-.66-.41-1-.5-1.17a7.22,7.22,0,0,0-1.83-2.44,17.54,17.54,0,0,0,1,2.79c.1.19.22.5.49,1.14a22.78,22.78,0,0,1,1.36,5.58,25.06,25.06,0,0,1,.16,2.61c0,.67,0,1.1,0,1.1s0,.34-.07.91-.17,1.38-.33,2.27c-.36,1.77-1,4.08-.57,5.74a4.58,4.58,0,0,0,.79,1.79,3.09,3.09,0,0,0,3,1.35,3.83,3.83,0,0,1-1.23-.74,5.75,5.75,0,0,1-1-1.07,4.64,4.64,0,0,1-.48-.93l.16,0a3.94,3.94,0,0,0,2.23,2.18c.18.08.45.18.79.3.16.05.37.09.57.14a7.89,7.89,0,0,0,1.94.27,10.46,10.46,0,0,0,4.55-.79,10.88,10.88,0,0,0,3.92-2.79,11.59,11.59,0,0,0,3.07-7.13,11.1,11.1,0,0,0-.1-2.38,7.7,7.7,0,0,0-.15-.86,13.06,13.06,0,0,0-1-3.07,18.4,18.4,0,0,0-1.67-3,17.64,17.64,0,0,1-2.09-3.25,3.21,3.21,0,0,1,.49-3.53,2.76,2.76,0,0,1,1.69-.75,1.5,1.5,0,0,1,1.38.57,2.14,2.14,0,0,1,.35,1.47,17.34,17.34,0,0,1-.9,2.81A8.61,8.61,0,0,0,524.4,205a3.67,3.67,0,0,0,.61-1.22l.24-.32a8.86,8.86,0,0,0,.69,2.89c.21.55.66,1.62,1.19,2.94s1.09,2.71,1.74,4.18a6.88,6.88,0,0,0,1.44,2.09,3.35,3.35,0,0,0,2.74.89,4.58,4.58,0,0,0,2.59-1.36,14.31,14.31,0,0,0,1.61-1.93c.91-1.25,1.75-2.41,2.43-3.42,1.37-2,2.12-3.35,2.12-3.35s.2-.34.53-1a27.28,27.28,0,0,0,1.21-2.59,21.3,21.3,0,0,0,1.13-3.88,9.15,9.15,0,0,1,1.68-4.19,3.42,3.42,0,0,1,2-1.12,3.64,3.64,0,0,1,2.24.43,2.7,2.7,0,0,1,1.35,1.53,2.45,2.45,0,0,1-.21,1.84,4.17,4.17,0,0,1-1.17,1.32,8.25,8.25,0,0,1-1.39.8,5.91,5.91,0,0,1-1.5.43,3.6,3.6,0,0,0,1.63.13,10.57,10.57,0,0,0-2,2.43c-.08.16-.22.4-.38.69s-.17.31-.26.49c-.23.44-.54,1.05-.83,1.63a46.14,46.14,0,0,0-3,8c-.18.71-.34,1.39-.49,2.08a4.74,4.74,0,0,0,0,2.12,2.26,2.26,0,0,0,1.44,1.54,4.79,4.79,0,0,0,1.93.23c1.17-.07,2-.21,2.7-.29l1-.14,1-.17a20.67,20.67,0,0,0,2.67-.71,12.5,12.5,0,0,0,3.49-1.91,25.6,25.6,0,0,1,3.54-2.6,4.65,4.65,0,0,1,4.06-.28,1.66,1.66,0,0,1,.89,1.34,2.34,2.34,0,0,1-.54,1.55,3,3,0,0,1-1.41,1,7.3,7.3,0,0,1-1.57.32,6.78,6.78,0,0,1-1.55,0l-.14-.06a7.48,7.48,0,0,0,.64-1.11l-2.62,1.95c-.32.2-.9.62-1.69,1.06l-.15.08a1.19,1.19,0,0,1-.22.12l-.45.23c-.31.16-.62.3-1,.44-.63.3-1.29.56-2,.84-1.35.52-2.79,1-4.23,1.56a39.92,39.92,0,0,0-4.33,1.88,32.43,32.43,0,0,0-3.95,2.53c-2.45,1.85-4.66,3.78-6.93,5.28a38.1,38.1,0,0,1-6.54,3.43c-2,.82-3.68,1.38-4.86,1.75s-1.86.55-1.86.55-2.68.78-6.93,1.72l-3.45.74a21,21,0,0,1-3.85.52,6.42,6.42,0,0,1-3.74-.85,5.75,5.75,0,0,1-2.16-3.05c-.33-.89-.58-1.85-.94-2.79a14,14,0,0,0,.4-1.8,5.26,5.26,0,0,0-.42-3c-.2,1-.35,1.69-.5,2.87,0,.12-.06.28-.11.49a21.89,21.89,0,0,0-2-3.2,34.1,34.1,0,0,1-4.12-6.43,12.62,12.62,0,0,1-.55-1.6c-.08-.26-.12-.54-.18-.8l-.05-.39,0-.19v-.11c0-.16,0-.33,0-.48a5,5,0,0,1,0-.7,21.23,21.23,0,0,1,.32-2.91,4.64,4.64,0,0,0-1.23,2.94,5.5,5.5,0,0,0,0,.76c0,.15,0,.33.05.52v.12l0,.21.06.41a8.26,8.26,0,0,0,.2.86,11.59,11.59,0,0,0,.57,1.69c.92,2.3,2.63,4.39,4.2,6.58a24.48,24.48,0,0,1,2.08,3.43l.31.72a24.42,24.42,0,0,1-4.41,7.44,98.2,98.2,0,0,1-8.41,8.84,104.89,104.89,0,0,1-9.6,8c-2.66,1.95-5.56,3.88-8.08,5.41-.85.52-1.63,1-2.27,1.35l-.71.4a13.8,13.8,0,0,0-2.63,1.94,13.08,13.08,0,0,0,3.16-1.29l.71-.39.5-.29,1.8-1.07c2.55-1.55,5.47-3.49,8.14-5.46a107.55,107.55,0,0,0,9.68-8s.25-.22.66-.62c-.19.28-.48.76-1,1.46a52.66,52.66,0,0,1-4.76,5.83c-1.68,1.82-3.14,3.13-3.14,3.13a62.76,62.76,0,0,1-5.39,4.44c-1.49,1.08-3.1,2.16-4.53,3-.35.23-.68.43-1,.62l-.5.27-.69.41a13.57,13.57,0,0,0-2.6,1.79l-.72-.6c.26-.27.5-.57.78-.9a14.38,14.38,0,0,0-2.93,1.73c-.15.11-.36.3-.62.53l-2,1.76a72.88,72.88,0,0,0-6.53,7.19c-2.08,2.56-3.9,5.07-5.26,6.91l-2.21,3-2.25,3c-.71.9-1.49,2-2.44,3.12-.46.57-.94,1.16-1.45,1.77l-1.6,1.81a48.5,48.5,0,0,1-7.06,6.53c-.72.54-1.29,1-1.62,1.2a14.46,14.46,0,0,0-2.56,2.08,14,14,0,0,0,3.09-1.45c.33-.2.91-.68,1.65-1.22a.24.24,0,0,1,.1-.06,8.78,8.78,0,0,1-1.19,2.11,31,31,0,0,1-2.47,2.85c-1.91,2-4.06,3.89-6,5.65s-3.8,3.38-5.36,4.73c-3.14,2.71-5.22,4.4-5.22,4.4s-2,1.71-5.27,4.28-7.63,5.95-12.26,9.25c-2.29,1.64-4.63,3.3-6.91,4.81L382.7,347c-.55.37-1.09.72-1.64,1.07s-1.07.71-1.59,1l-1.46.93-1.28.8-.17-.22.09-.06a14.63,14.63,0,0,0-5.31,1.38c-.36.15-.91.42-2,1a39.62,39.62,0,0,0-4.25,2.71c-.7.52-1.32,1-1.75,1.38l-.7.59s-.89.8-1.93,1.86a30.15,30.15,0,0,0-2.91,3.48,24.56,24.56,0,0,0-1.65,2.54,9.76,9.76,0,0,0-1.33,4.55l-.36,0a5.26,5.26,0,0,0-.46-1.63c-.07.39-.13.72-.2,1l-2.46-.18a5.13,5.13,0,0,0-1-1.64l.21-.18a17.57,17.57,0,0,0,1.33-1.24,8.5,8.5,0,0,0,.77-.82s.3-.33.65-.75.72-1,1-1.34a16.8,16.8,0,0,0,1-1.65,6,6,0,0,0,.71-2.92c-.05.09-.12.17-.16.24l-2.61-1.22c.5-.15,1-.32,1.54-.53a9.78,9.78,0,0,0-3.51.28c-.25.06-.64.18-1.43.43a23.52,23.52,0,0,0-6.2,3.22,18.6,18.6,0,0,0-3.14,2.87s-.26.29-.66.8A22.48,22.48,0,0,0,338.4,367a9.72,9.72,0,0,1-1.69,2.43,2.81,2.81,0,0,1-2.5.73,2.24,2.24,0,0,1-1.38-.88,2.15,2.15,0,0,1-.39-1.23,2.11,2.11,0,0,1,.35-1.28,2.25,2.25,0,0,0-.68.55,3.07,3.07,0,0,1,.08-.81,4,4,0,0,1,.31-.84,5,5,0,0,1,.53-.75,3.8,3.8,0,0,1,.94-.78,1.55,1.55,0,0,0,.42-.47,12.3,12.3,0,0,0,2.13-1l1.21-.71,7.1-4.2s4.19-2.45,6.5-3.83a12.18,12.18,0,0,0,1.74-1.14,3.14,3.14,0,0,0,1.11-1.51h1.12a10.12,10.12,0,0,0-1.07-.44,1.38,1.38,0,0,0-.31-.92,1.5,1.5,0,0,1-.13.78,8.17,8.17,0,0,0-1.87-.29,16.48,16.48,0,0,0-2.22,0,19.66,19.66,0,0,0-2,.25l-1.14.24a11.75,11.75,0,0,0-1.27.35,16.75,16.75,0,0,0-1.94.72c-.76.34-1.1.54-1.32.66a6.37,6.37,0,0,0-2.18,1.89l-.34-.18a3.07,3.07,0,0,0,.33-.79,3.85,3.85,0,0,1-1.42.91,2.33,2.33,0,0,0-.79-.31,2.42,2.42,0,0,0,.13.53,4.57,4.57,0,0,1-2.34,0c-.44-.08-1.56-.24-1.75-1.21a3,3,0,0,1,.39-1.46,6,6,0,0,1,.56-.86,9.74,9.74,0,0,1,.82-.93A9.36,9.36,0,0,1,337,349a5.39,5.39,0,0,1,1.79-.81c2-.47,3.29-.68,5.18-1.1l0,.09-1.75.46a17.22,17.22,0,0,0,5.54.11c.57-.07,1.63-.23,3.35-.54s3.78-.83,5.51-1.39,3.1-1,3.1-1l1-.4c.65-.23,1.51-.6,2.45-1a52.49,52.49,0,0,0,5.19-2.63c1.1-.61,1.59-1,1.9-1.15a13.37,13.37,0,0,0,3.73-3.46l2,.92c-.33.52-.67,1-1,1.52l-.91,1.5c-.42.71-.77,1.3-.93,1.59a10.43,10.43,0,0,0-1.06,2.62,14,14,0,0,0,1.78-2.54c.16-.29.49-.86.91-1.56.3-.49.6-1,.89-1.49s.69-1.06,1-1.6l1.06-1.64c.38-.56.77-1.11,1.15-1.66,1.53-2.24,3.27-4.49,5-6.68a125.13,125.13,0,0,1,10.25-11.21c2.94-2.85,5-4.59,5-4.59s2-1.79,5.23-4.37c1.63-1.31,3.58-2.79,5.77-4.35a58.22,58.22,0,0,1,7.12-4.55,16.94,16.94,0,0,1,3.9-1.44h0c-.12.31-.21.63-.32,1a11.85,11.85,0,0,0,1-1.11,7.35,7.35,0,0,1,2.83.12,3.24,3.24,0,0,1,.55.19c.41-.14.8-.24,1.19-.35a5,5,0,0,0-1.25-.52,7.31,7.31,0,0,0-2.76-.17c.15-.21.29-.45.46-.72s.56-.89,1.05-1.63c.56-.9,1.29-1.94,2-3s1.52-2.08,2.34-3.06c1.58-2,3.26-3.85,4.5-5.19.62-.67,1.17-1.19,1.53-1.57l.57-.58a83.49,83.49,0,0,1,7.56-6.59c2.07-1.63,4.37-3.21,6.35-4.49l2.59-1.61a13.44,13.44,0,0,0,2.69-2,13,13,0,0,0-3.15,1.35l-2.62,1.6c-2,1.31-4.32,2.9-6.43,4.55-1.32,1-2.56,2.05-3.64,3l-.14-.09c.25-.25.49-.51.76-.8a27.89,27.89,0,0,0-3,1.38,10.24,10.24,0,0,1-1.85.68,6.74,6.74,0,0,1-2.73.13,4.34,4.34,0,0,1-1.41-.52,4.48,4.48,0,0,1-1.21-1.12c-.56-.73-1.09-1.74-1.45-2.31l-.65-1.11a11.91,11.91,0,0,0-2-2.45,9,9,0,0,0,1.12,2.8c.11.18.29.49.64,1.11s.75,1.32,1.26,2.07l-1.56.75c-.26-.17-.51-.36-.77-.54l-.33.18c-.51.3-1.2.77-2.11,1.28-1.78,1-4.2,2.39-6.87,3.65-1.31.66-2.71,1.24-4,1.84s-2.71,1.13-3.89,1.58l-2.13.79a9.09,9.09,0,0,0-.91.36,5.63,5.63,0,0,0,.09-2.63,4.76,4.76,0,0,0-.51-1.25c-.17.36-.35.73-.56,1.09a3.8,3.8,0,0,1,.18.54,5.13,5.13,0,0,1-.19,2.69c-.47.23-.93.48-1.45.8l1.25-.17h0a14.23,14.23,0,0,1-2.22,3.52,60.15,60.15,0,0,1-6.39,6.2c-2.16,1.87-4.21,3.54-6,4.93-3.57,2.76-6,4.43-6,4.43s-2.38,1.71-6.22,4.16a152.21,152.21,0,0,1-14.95,8.38c-2.88,1.4-5.86,2.79-8.79,4l-2.16.89-2.15.82c-.69.25-1.39.54-2.07.76s-1.31.47-1.94.68c-.91.31-1.65.58-2,.69a20.06,20.06,0,0,0-3.32,1.39,16.28,16.28,0,0,0,3.35-.71c.37-.1,1.13-.36,2.05-.69l2-.67c.53-.18,1.07-.4,1.65-.61a14.57,14.57,0,0,0-4.1,2.58c-.25.25-.7.63-1.56,1.46a58.13,58.13,0,0,0-4.15,4.52c-1.33,1.64-2.29,3.07-2.29,3.07s-.83,1.19-1.76,2.76a45,45,0,0,0-2.53,5c-.59,1.39-.9,2.27-1.06,2.73a10.7,10.7,0,0,0-.58,4.63c.31-.53.58-1,.81-1.49l.11.05c-.76,1.53-1.18,2.54-2,4.22a3.87,3.87,0,0,1-.31.58,5.87,5.87,0,0,1-.75.9,12.27,12.27,0,0,1-1.88,1.44,10.66,10.66,0,0,1-1.36.71,9.52,9.52,0,0,1-1.24.48,3.68,3.68,0,0,1-2,.14,1.23,1.23,0,0,1-.86-.87,2.66,2.66,0,0,1-.12-.89,3,3,0,0,1,.44-1.85c.16.05.35.09.59.14a1.39,1.39,0,0,0-.29-.64,4.45,4.45,0,0,1,1.33-1.23,5,5,0,0,0-1.36.36l-.21-.26a8,8,0,0,0,2.84-1.78c.15-.18.44-.43.91-1a13.29,13.29,0,0,0,1.28-1.75,10.55,10.55,0,0,0,.67-1.17s.22-.46.49-1.05a15.63,15.63,0,0,0,.6-1.88,12.14,12.14,0,0,0,.3-1.84,4.93,4.93,0,0,0-.08-1.57,2.69,2.69,0,0,1,1-.07,2.28,2.28,0,0,0-1.08-.33,7.94,7.94,0,0,0-.38-1c0,.37-.1.67-.15,1h-.11a4.28,4.28,0,0,0-1.75.75,11.32,11.32,0,0,0-1.56,1.33c-2.05,2-5.77,5.59-5.77,5.59l-6.32,6.11c-.53.52-.8.78-.95.94a9.4,9.4,0,0,0-1.39,1.64,1.39,1.39,0,0,0-.6.32,4.7,4.7,0,0,1-1.08.76,6.85,6.85,0,0,1-1,.42,6.62,6.62,0,0,1-1.07.22,5.77,5.77,0,0,1-1.08,0,2.57,2.57,0,0,0,.83-.59,4,4,0,0,1-1.54.23,3.4,3.4,0,0,1-1.46-.37,1.81,1.81,0,0,1-.9-1.22,2.16,2.16,0,0,1,1.2-2.22,13.48,13.48,0,0,1,3.26-1.35c1.12-.38,2.1-.79,2.79-1.09s1.09-.54,1.09-.54l1.23-.69a26.67,26.67,0,0,0,2.71-1.91,22.32,22.32,0,0,0,4.77-5.26c.4-.63.56-.95.66-1.14a6,6,0,0,0,.76-2.91,2.22,2.22,0,0,0-.19.27L318.28,339l.79-.31a10.15,10.15,0,0,0-3.5.38,19.71,19.71,0,0,0-2,.67c-.56.21-1.33.53-2,.83l-1.08.54s-.56.28-1.21.69a21,21,0,0,0-1.82,1.17,6.23,6.23,0,0,0-1.85-1l-.21-2.15,1.65-.1a8.25,8.25,0,0,0-1.88-.52l.05-.34a15.69,15.69,0,0,0,5.47-.76c.55-.16,1.55-.51,3.15-1.14a45.35,45.35,0,0,0,4.92-2.41c1.53-.87,2.67-1.63,2.67-1.63s.32-.24.85-.6,1.25-.91,2-1.5a37,37,0,0,0,4.05-3.73c.82-.87,1.18-1.32,1.4-1.6a10.44,10.44,0,0,0,1.46-2.24c.23-.21.46-.43.72-.7s.73-.73,1.35-1.32l1.3-1.28,1.46-1.38c.48-.48,1-.95,1.49-1.43l1.58-1.45c2.13-2,4.42-4,6.7-6,4.56-4,9.22-7.74,12.74-10.47s5.86-4.5,5.86-4.5,2.32-1.75,6-4.4c1.83-1.33,4-2.86,6.41-4.52s5-3.43,7.63-5a39.16,39.16,0,0,1,3.78-2A10,10,0,0,1,391,278l-.07.05c-.77.65-1.41,1.14-1.69,1.44a12.8,12.8,0,0,0-2.15,2.74,14.52,14.52,0,0,0,2.86-2.19c.28-.27.92-.76,1.66-1.39a57.41,57.41,0,0,1,8.83-5.9l2.41-1.31,2.33-1.16c1.5-.75,2.93-1.37,4.12-1.93l4-1.78s1.57-.67,4-1.73l1.41-.63v-.12l1.26,0a12,12,0,0,0,.68,1.65,10.4,10.4,0,0,0-.05-3c0-.17,0-.41-.09-.72,0-.15,0-.33,0-.5s-.07-.5-.09-.75-.07-.68-.09-1c0-.71-.07-1.41-.12-2.13,0-1.44,0-2.91.09-4.43a90,90,0,0,1,3.64-19.45c.95-3.37,2-6.79,3.12-10.19s2.18-6.82,3.6-10.09a34.65,34.65,0,0,1,5.5-9.11,51.23,51.23,0,0,1,7.83-7.07c5.53-4.16,10.82-7.78,15.35-10.78s8.36-5.34,11-6.94l4.21-2.48,1.1-.64a30.13,30.13,0,0,0,3.1-2,17,17,0,0,0,3.71-4.21,40.57,40.57,0,0,1,4-5.67,11.7,11.7,0,0,1,3.31-2.32,6.61,6.61,0,0,1,4.15-.62c1.41.26,2.34,1.38,3.65,2.34a4.57,4.57,0,0,0,2.49.87,9.25,9.25,0,0,0,2.74-.37c1.75-.45,3.44-1.11,5.17-1.62A13.43,13.43,0,0,1,513.21,162.2Zm-.19,7.05a3.1,3.1,0,0,0-2.06-.67,3.42,3.42,0,0,0-2.18.92,2.38,2.38,0,0,0,.05,3.66,3,3,0,0,0,2.05.64,3.3,3.3,0,0,0,2.19-.89,3,3,0,0,0,.47-.57A2.34,2.34,0,0,0,513,169.25Zm-13.17,6.68a5.93,5.93,0,0,0-3.31-.63c1,.45,1.67.79,2.8,1.34a9.16,9.16,0,0,1,1.54,1l.21.19.23.21a7.29,7.29,0,0,1,.83.9c.72,1,1.13,1.48,1.71,2.38a4.38,4.38,0,0,0-.95-2.87,8.86,8.86,0,0,0-.9-1l-.25-.22-.24-.22A9.93,9.93,0,0,0,499.85,175.93Zm-1.74,2c-.16-.06-.29-.12-.46-.17a9,9,0,0,0-10.55,4.45,6.87,6.87,0,0,0-.21,6.14,6.34,6.34,0,0,0,3.69,3.24,9,9,0,0,0,10.25-3.92l.31-.53a6.8,6.8,0,0,0,.21-6.14A6.39,6.39,0,0,0,498.11,177.93Zm-3.9-3a9,9,0,0,0-3.28,1.07c-.31.18-.91.51-1.81,1.13a21.66,21.66,0,0,0-4.24,3.84,21,21,0,0,0-1.86,2.64s-.21.35-.5,1a15.22,15.22,0,0,0-1,2.35,16.83,16.83,0,0,0-.88,5.46,10.45,10.45,0,0,0,.07,1.28,3.28,3.28,0,0,0,.53,1.57,2,2,0,0,0,1.32.85,2,2,0,0,1-.71-1.12,10.17,10.17,0,0,1-.25-1.43c0-.2,0-.53,0-1.22a15.76,15.76,0,0,1,.85-5.21,15.55,15.55,0,0,1,.95-2.26c.28-.56.5-.91.5-.91a18.07,18.07,0,0,1,1.75-2.5,21.41,21.41,0,0,1,4.06-3.68c.86-.59,1.44-.9,1.72-1.07C492.57,176,493.21,175.61,494.21,175ZM483,206.84c-.22-1.15-.38-1.79-.5-2.86a4.75,4.75,0,0,0-.4,3.08,7.89,7.89,0,0,0,.61,1.79,9.59,9.59,0,0,0,1.22,2,13.35,13.35,0,0,0,.94,1,8.22,8.22,0,0,0,1.26,1,9.57,9.57,0,0,0,2.36,1.12,7.54,7.54,0,0,0,1.43.32,3.51,3.51,0,0,0,3.29-1.1,4.22,4.22,0,0,1-1.49.37,10.14,10.14,0,0,1-1.6-.06,6.94,6.94,0,0,1-1.26-.3,8.55,8.55,0,0,1-2.15-1,7.7,7.7,0,0,1-1.17-.9,8.47,8.47,0,0,1-.86-.91,9.9,9.9,0,0,1-1.14-1.79A8.74,8.74,0,0,1,483,206.84Z" transform="translate(1 -1)"/><path class="cls-2" d="M518.46,166.48c.23.13.42.26.61.39a8.71,8.71,0,0,1,.22,1.11Z" transform="translate(1 -1)"/><path class="cls-2" d="M519.07,166.87a5,5,0,0,1,1.66,1.73c.08.15.24.36.38.65.06.14.15.29.24.46.16.34.33.79.48,1.21a14.87,14.87,0,0,1,.79,6.05,19.89,19.89,0,0,1-1.22,5.53,18.31,18.31,0,0,1-1,2.33s-.45.89-1.29,2.21c-.2.34-.45.68-.71,1,0-.24-.09-.49-.15-.78-.22.66-.39,1.17-.56,1.76v0c-.66.86-1.42,1.78-2.24,2.68a57.53,57.53,0,0,1-4.8,4.65c-.69.6-1.25,1.07-1.56,1.31a12.61,12.61,0,0,1-2.85,1.8,14.21,14.21,0,0,1,2.27-2.36c.28-.25.85-.72,1.53-1.31a60.63,60.63,0,0,0,4.72-4.57,34.61,34.61,0,0,0,3.57-4.6,19.62,19.62,0,0,0,1.25-2.15,17.37,17.37,0,0,0,1-2.23,18.72,18.72,0,0,0,1.17-5.32,14.57,14.57,0,0,0-.75-5.77,11,11,0,0,0-.47-1.13c-.08-.15-.14-.31-.22-.44a4,4,0,0,0-.35-.61c-.23-.41-.43-.74-.63-1.05A8.71,8.71,0,0,0,519.07,166.87Z" transform="translate(1 -1)"/><path d="M511,168.58a3.1,3.1,0,0,1,2.06.67,2.34,2.34,0,0,1,.52,3.09,3,3,0,0,1-.47.57,3.3,3.3,0,0,1-2.19.89,3,3,0,0,1-2.05-.64,2.38,2.38,0,0,1-.05-3.66A3.42,3.42,0,0,1,511,168.58Zm1.45,1.19a2.32,2.32,0,0,0-3,.2,1.73,1.73,0,0,0,0,2.66,2.3,2.3,0,0,0,3-.22A1.71,1.71,0,0,0,512.41,169.77Z" transform="translate(1 -1)"/><path d="M509.42,170a2.32,2.32,0,0,1,3-.2,1.71,1.71,0,0,1,0,2.64,2.3,2.3,0,0,1-3,.22A1.73,1.73,0,0,1,509.42,170Zm2.41.31A1.17,1.17,0,0,0,511,170a1.54,1.54,0,0,0-1,.41,1.86,1.86,0,0,0-.21.28,1.05,1.05,0,0,0,.18,1.38,1.17,1.17,0,0,0,.79.24,1.52,1.52,0,0,0,1-.41A1.1,1.1,0,0,0,511.83,170.28Z" transform="translate(1 -1)"/><path class="cls-2" d="M540.14,182.5a1.41,1.41,0,0,1,1.24.94,1.24,1.24,0,0,1,.1.39,1.48,1.48,0,0,0-.35-.58,1.38,1.38,0,0,0-.63-.38A1.05,1.05,0,0,0,540.14,182.5Z" transform="translate(1 -1)"/><path d="M511,170a1.17,1.17,0,0,1,.79.24,1.1,1.1,0,0,1-.05,1.66,1.52,1.52,0,0,1-1,.41,1.17,1.17,0,0,1-.79-.24,1.05,1.05,0,0,1-.18-1.38,1.86,1.86,0,0,1,.21-.28A1.54,1.54,0,0,1,511,170Z" transform="translate(1 -1)"/><path class="cls-2" d="M540.5,182.87a1.38,1.38,0,0,1,.63.38,1.48,1.48,0,0,1,.35.58,2.35,2.35,0,0,1-.26,1.38,2.31,2.31,0,0,1-.39.57h0a5.2,5.2,0,0,1-1.42.87c.69-.86,1.26-1.44,1.24-2.32a2.19,2.19,0,0,0,.1-.74A1.2,1.2,0,0,0,540.5,182.87Z" transform="translate(1 -1)"/><path class="cls-2" d="M539.64,182.75a2.11,2.11,0,0,1,.86.12,1.2,1.2,0,0,1,.23.73,2.19,2.19,0,0,1-.1.74s0-.08,0-.12a.79.79,0,0,0-.25-.45,0,0,0,0,1,0,0,.67.67,0,0,0-.49-.77,2.65,2.65,0,0,0-1-.14A6.45,6.45,0,0,1,539.64,182.75Z" transform="translate(1 -1)"/><path class="cls-2" d="M539.9,183a.67.67,0,0,1,.49.77,0,0,0,0,0,0,0,1.08,1.08,0,0,0-.76-.21,2.72,2.72,0,0,0-.65.12,2.18,2.18,0,0,0-.44,0,1.65,1.65,0,0,0-.71.32,1.51,1.51,0,0,0-.23.22h0c-.21.09-.42.21-.62.32l-.62.35a2.43,2.43,0,0,1,.18-.58,2,2,0,0,1,.51-.71l0,0a8.75,8.75,0,0,1,1.87-.76A2.65,2.65,0,0,1,539.9,183Z" transform="translate(1 -1)"/><path class="cls-2" d="M541.48,183.83a1.23,1.23,0,0,1,0,.21,2,2,0,0,1-.69,1.74,2.31,2.31,0,0,0,.39-.57A2.35,2.35,0,0,0,541.48,183.83Z" transform="translate(1 -1)"/><path class="cls-2" d="M538.37,182.92a5,5,0,0,1,.54-.06,8.75,8.75,0,0,0-1.87.76,1.44,1.44,0,0,1,.21-.19A3.14,3.14,0,0,1,538.37,182.92Z" transform="translate(1 -1)"/><path class="cls-2" d="M539.61,183.56a1.08,1.08,0,0,1,.76.21,2.07,2.07,0,0,1-.84,0,2,2,0,0,0-.57-.07A2.72,2.72,0,0,1,539.61,183.56Z" transform="translate(1 -1)"/><path class="cls-1" d="M540.37,183.77a.79.79,0,0,1,.25.45s0,.09,0,.12a3.58,3.58,0,0,1-.23.57,3.14,3.14,0,0,1-1.27,1.21c-.75.48-2,1-3,1.6a14.47,14.47,0,0,0-1.66,1.16,15.25,15.25,0,0,0-1.65,1.6,13,13,0,0,0-2,2.93,10.79,10.79,0,0,0-.48,1.28,4,4,0,0,0-.14,2.15,4.17,4.17,0,0,0,0,2.12,7.2,7.2,0,0,0,.4,1.24,7.75,7.75,0,0,0,1.25,2,7.59,7.59,0,0,0,2.22,1.73,19,19,0,0,0,2.17.89,7.11,7.11,0,0,1,.83.39,2.57,2.57,0,0,1,.59.39,2.13,2.13,0,0,1,.87,1.32,1.56,1.56,0,0,1-1,1.56,3.11,3.11,0,0,1-2.06.25,3.08,3.08,0,0,1-1.43-.86,14,14,0,0,1-1.36-1.86,2.4,2.4,0,0,0,.48-.12,2.68,2.68,0,0,0-1-.7,8.65,8.65,0,0,1-1.5-.82c-.59-.42-1.13-.78-1.13-.78a12.51,12.51,0,0,0-1.23-.77,6.43,6.43,0,0,0-1.84-.7,2,2,0,0,0-1.38.3,2.76,2.76,0,0,0-.43-1,2.34,2.34,0,0,0-.9-.69,2.58,2.58,0,0,0-1.27-.19,3.82,3.82,0,0,0-2.36,1,3.56,3.56,0,0,0-1,2.19,4.71,4.71,0,0,0,0,1.13,6.16,6.16,0,0,0-2.26,2.11,8.32,8.32,0,0,0-.83,1.85,10.82,10.82,0,0,0-.41,3.16c0,.5,0,.92,0,1.24s0,.47,0,.47,0,.23-.09.56a2.46,2.46,0,0,1-.56,1.15,1.91,1.91,0,0,1-1.39.53,1.11,1.11,0,0,1-1-.47,1.39,1.39,0,0,1-.17-1,3.28,3.28,0,0,1,1.71-2.23,5.65,5.65,0,0,0-1,.22,1.86,1.86,0,0,0,.1-.25c.13-.53.78-3.12.78-3.12s.66-2.58.79-3.12a1.72,1.72,0,0,0-.16-1.2,2.39,2.39,0,0,0-.65.85l-.3-.06c0-.29,0-.43-.1-.5a3.85,3.85,0,0,1-.7-.56,3.57,3.57,0,0,1-.38-.58c.64-.89,1.3-1.95,1.84-2.87.36-.62.68-1.21.88-1.63l.34-.66s.59-1.22,1.18-2.74c.39-1,.74-2.16,1-3.12a8.4,8.4,0,0,1,3,.23c.23,0,.58.1,1.34.27a9.32,9.32,0,0,0,3.22.25,4.59,4.59,0,0,0,1.92-.73,8.12,8.12,0,0,0,1.42-1.28c.76-.9,1.37-1.66,1.9-2.2s.86-.85.86-.85a25.65,25.65,0,0,1,2.77-2.28c.66-.46,1.38-.93,2.14-1.36a1.64,1.64,0,0,0,0,.78.74.74,0,0,0,.75.57,1.73,1.73,0,0,0,.13-.77,1.63,1.63,0,0,1,.12-.91,2,2,0,0,1,.21-.34h0a8.93,8.93,0,0,1,1.38-.58,2,2,0,0,1,.57.07A2.07,2.07,0,0,0,540.37,183.77Z" transform="translate(1 -1)"/><path class="cls-2" d="M538.52,183.72a2.18,2.18,0,0,1,.44,0,8.93,8.93,0,0,0-1.38.58,1.51,1.51,0,0,1,.23-.22A1.65,1.65,0,0,1,538.52,183.72Z" transform="translate(1 -1)"/><path class="cls-2" d="M540.4,184.91a3.58,3.58,0,0,0,.23-.57c0,.88-.55,1.46-1.24,2.32a5.2,5.2,0,0,0,1.42-.87,5.33,5.33,0,0,1-1.21,1c-.87.55-2.14,1-3,1.6a13.43,13.43,0,0,0-1.53,1.08,12.45,12.45,0,0,0-1.55,1.5,11.67,11.67,0,0,0-1.83,2.72,8.17,8.17,0,0,0-.46,1.17c-.24.77-.4,1.33-.53,1.94,0-.28-.07-.57-.1-.91a6.57,6.57,0,0,0-.38,1,4,4,0,0,1,.14-2.15,10.79,10.79,0,0,1,.48-1.28,13,13,0,0,1,2-2.93,15.25,15.25,0,0,1,1.65-1.6,14.47,14.47,0,0,1,1.66-1.16c1-.63,2.27-1.12,3-1.6A3.14,3.14,0,0,0,540.4,184.91Z" transform="translate(1 -1)"/><path class="cls-2" d="M536.52,183.9l.5-.25a2,2,0,0,0-.51.71,2.43,2.43,0,0,0-.18.58c-.76.43-1.48.9-2.14,1.36a25.65,25.65,0,0,0-2.77,2.28s-.34.31-.86.85-1.14,1.3-1.9,2.2a8.12,8.12,0,0,1-1.42,1.28,4.59,4.59,0,0,1-1.92.73,9.32,9.32,0,0,1-3.22-.25c-.76-.17-1.11-.23-1.34-.27a8.4,8.4,0,0,0-3-.23s0-.06,0-.08a4.41,4.41,0,0,1,3.26-.5l1.38.29a8.58,8.58,0,0,0,2.87.24,4.35,4.35,0,0,0,2.69-1.69c.72-.83,1.41-1.67,1.95-2.22s.89-.89.89-.89a26.32,26.32,0,0,1,2.87-2.36A27.46,27.46,0,0,1,536.52,183.9Z" transform="translate(1 -1)"/><path class="cls-2" d="M537.57,184.27a2,2,0,0,0-.21.34,1.63,1.63,0,0,0-.12.91,1.73,1.73,0,0,1-.13.77.74.74,0,0,1-.75-.57,1.64,1.64,0,0,1,0-.78l.62-.35C537.15,184.48,537.36,184.36,537.57,184.27Z" transform="translate(1 -1)"/><path class="cls-2" d="M548.29,192.84a4.46,4.46,0,0,1,2.83.52,3.48,3.48,0,0,1,1.72,1.95,3.21,3.21,0,0,1-.27,2.41,5.22,5.22,0,0,1-1.46,1.64,4.27,4.27,0,0,1-1.73.73s0-.05,0-.08a.52.52,0,0,0-.11.1,3.6,3.6,0,0,1-1.63-.13,5.91,5.91,0,0,0,1.5-.43,8.25,8.25,0,0,0,1.39-.8,4.17,4.17,0,0,0,1.17-1.32,2.45,2.45,0,0,0,.21-1.84,2.7,2.7,0,0,0-1.35-1.53,3.64,3.64,0,0,0-2.24-.43,3.42,3.42,0,0,0-2,1.12,9.15,9.15,0,0,0-1.68,4.19,21.3,21.3,0,0,1-1.13,3.88,27.28,27.28,0,0,1-1.21,2.59c-.33.61-.53,1-.53,1s-.75,1.35-2.12,3.35c-.68,1-1.52,2.17-2.43,3.42a14.31,14.31,0,0,1-1.61,1.93,4.58,4.58,0,0,1-2.59,1.36,3.35,3.35,0,0,1-2.74-.89,6.88,6.88,0,0,1-1.44-2.09c-.65-1.47-1.19-2.88-1.74-4.18s-1-2.39-1.19-2.94a8.86,8.86,0,0,1-.69-2.89,9.26,9.26,0,0,1,1.54,2.55c.22.56.67,1.63,1.2,3s1.11,2.73,1.72,4.14a6.48,6.48,0,0,0,1.27,1.85,2.41,2.41,0,0,0,2,.71,3.59,3.59,0,0,0,2-1.09,14.35,14.35,0,0,0,1.5-1.82c.91-1.25,1.75-2.39,2.43-3.39.24-.36.48-.69.67-1,.93-1.39,1.41-2.28,1.41-2.28l.5-.92a26.6,26.6,0,0,0,1.17-2.51,20.7,20.7,0,0,0,1.11-3.77,9.71,9.71,0,0,1,1.88-4.58A4.4,4.4,0,0,1,548.29,192.84Z" transform="translate(1 -1)"/><path class="cls-2" d="M496.54,175.3a5.93,5.93,0,0,1,3.31.63,9.93,9.93,0,0,1,1.67,1.1l.24.22.25.22a8.86,8.86,0,0,1,.9,1,4.38,4.38,0,0,1,.95,2.87c-.58-.9-1-1.42-1.71-2.38a7.29,7.29,0,0,0-.83-.9l-.23-.21-.21-.19a9.16,9.16,0,0,0-1.54-1C498.21,176.09,497.58,175.75,496.54,175.3Z" transform="translate(1 -1)"/><path class="cls-2" d="M549.42,200s0,.06,0,.08a.1.1,0,0,1-.07,0A.52.52,0,0,1,549.42,200Z" transform="translate(1 -1)"/><path d="M497.65,177.76c.17.05.3.11.46.17a6.39,6.39,0,0,1,3.24,3.07,6.8,6.8,0,0,1-.21,6.14l-.31.53a9,9,0,0,1-10.25,3.92,6.34,6.34,0,0,1-3.69-3.24,6.87,6.87,0,0,1,.21-6.14A9,9,0,0,1,497.65,177.76Zm2.69,9.1c1.77-3.46.41-7.23-3-8.43a8.06,8.06,0,0,0-9.42,4.06c-1.76,3.46-.41,7.23,3,8.43A8,8,0,0,0,500.34,186.86Z" transform="translate(1 -1)"/><path class="cls-2" d="M549.31,200.11a.1.1,0,0,0,.07,0,12.89,12.89,0,0,1-1.22,2.78c-.08.15-.22.39-.37.68-.08.14-.17.3-.25.46-.25.45-.54,1-.82,1.6a43.6,43.6,0,0,0-2.93,7.87c-.32,1.35-.8,2.75-.53,3.8a1.45,1.45,0,0,0,1,1,3.81,3.81,0,0,0,1.55.18c1.05-.07,2-.2,2.61-.27l1-.16s.36,0,1-.15a19.07,19.07,0,0,0,2.52-.67,11.18,11.18,0,0,0,3.19-1.75,25.62,25.62,0,0,1,3.68-2.7,6.57,6.57,0,0,1,2.49-.73,4.29,4.29,0,0,1,2.52.45,2.34,2.34,0,0,1,1.28,1.92,3.17,3.17,0,0,1-.71,2.09,4,4,0,0,1-1.89,1.3,3.76,3.76,0,0,1-1.92.15,3.56,3.56,0,0,1-1.46-.61,6.78,6.78,0,0,0,1.55,0,7.3,7.3,0,0,0,1.57-.32,3,3,0,0,0,1.41-1,2.34,2.34,0,0,0,.54-1.55,1.66,1.66,0,0,0-.89-1.34,4.65,4.65,0,0,0-4.06.28,25.6,25.6,0,0,0-3.54,2.6A12.5,12.5,0,0,1,553.1,218a20.67,20.67,0,0,1-2.67.71l-1,.17-1,.14c-.65.08-1.53.22-2.7.29a4.79,4.79,0,0,1-1.93-.23,2.26,2.26,0,0,1-1.44-1.54,4.74,4.74,0,0,1,0-2.12c.15-.69.31-1.37.49-2.08a46.14,46.14,0,0,1,3-8c.29-.58.6-1.19.83-1.63.09-.18.19-.34.26-.49s.3-.53.38-.69A10.57,10.57,0,0,1,549.31,200.11Z" transform="translate(1 -1)"/><path class="cls-2" d="M490.93,176a9,9,0,0,1,3.28-1.07c-1,.66-1.64,1.08-2.84,1.75-.28.17-.86.48-1.72,1.07a21.41,21.41,0,0,0-4.06,3.68,18.07,18.07,0,0,0-1.75,2.5s-.22.35-.5.91a15.55,15.55,0,0,0-.95,2.26,15.76,15.76,0,0,0-.85,5.21c0,.69,0,1,0,1.22a10.17,10.17,0,0,0,.25,1.43,2,2,0,0,0,.71,1.12,2,2,0,0,1-1.32-.85,3.28,3.28,0,0,1-.53-1.57,10.45,10.45,0,0,1-.07-1.28,16.83,16.83,0,0,1,.88-5.46,15.22,15.22,0,0,1,1-2.35c.29-.61.5-1,.5-1a21,21,0,0,1,1.86-2.64,21.66,21.66,0,0,1,4.24-3.84C490,176.53,490.62,176.2,490.93,176Z" transform="translate(1 -1)"/><path d="M497.32,178.43c3.43,1.2,4.79,5,3,8.43a8,8,0,0,1-9.43,4.06c-3.42-1.2-4.77-5-3-8.43A8.06,8.06,0,0,1,497.32,178.43Zm2.44,3.11A4.69,4.69,0,0,0,497,179.1a6.39,6.39,0,0,0-4.45.19,7.61,7.61,0,0,0-3.6,3.05,4.91,4.91,0,0,0-.25.44,5.67,5.67,0,0,0-.22,5,4.79,4.79,0,0,0,2.78,2.44c3,1.05,6.73-.6,8.3-3.69A5.58,5.58,0,0,0,499.76,181.54Z" transform="translate(1 -1)"/><path class="cls-2" d="M518.2,187.3c.06.29.11.54.15.78v0c-.21.31-.45.64-.7,1C517.81,188.47,518,188,518.2,187.3Z" transform="translate(1 -1)"/><path d="M497,179.1a4.69,4.69,0,0,1,2.77,2.44,5.58,5.58,0,0,1-.21,5c-1.57,3.09-5.31,4.74-8.3,3.69a4.79,4.79,0,0,1-2.78-2.44,5.67,5.67,0,0,1,.22-5,4.91,4.91,0,0,1,.25-.44,7.61,7.61,0,0,1,3.6-3.05A6.39,6.39,0,0,1,497,179.1Zm-2.52,1.24a2.34,2.34,0,0,0-3,.22,1.74,1.74,0,0,0,0,2.66,2.33,2.33,0,0,0,3-.22A1.74,1.74,0,0,0,494.47,180.34Z" transform="translate(1 -1)"/><path class="cls-2" d="M517.64,189.06c.25-.32.49-.65.7-1a7,7,0,0,1-.06,2.22c0,.22-.1.56-.24,1.29-.07.34-.18.75-.3,1.2l-.16.1a.41.41,0,0,1,.15,0c-.26,1-.61,2.11-1,3.12-.59,1.52-1.18,2.74-1.18,2.74l-.34.66c-.2.42-.52,1-.88,1.63-.54.92-1.2,2-1.84,2.87a.64.64,0,0,1-.06-.15c-.06-.13-.23-.15-.54-.2-.25.18-.38.34-.33.51a2.56,2.56,0,0,0,.28.56.15.15,0,0,1,0,.08s-.06.07-.08.11c-.62.83-1.08,1.32-1.27,1.57a9.66,9.66,0,0,1-2.58,2.15,18,18,0,0,1,1.87-2.6c.19-.26.63-.72,1.23-1.54a33.36,33.36,0,0,0,2.48-3.69c.35-.61.65-1.17.85-1.57s.33-.66.33-.66.59-1.19,1.16-2.66a38.65,38.65,0,0,0,1.27-4.31c.15-.7.2-1,.25-1.25.08-.45.16-.83.24-1.18Z" transform="translate(1 -1)"/><path class="cls-3" d="M491.47,180.56a2.34,2.34,0,0,1,3-.22,1.74,1.74,0,0,1,0,2.66,2.33,2.33,0,0,1-3,.22A1.74,1.74,0,0,1,491.47,180.56Z" transform="translate(1 -1)"/><path class="cls-2" d="M530.58,195.88c0,.34.06.63.1.91s-.13.6-.18.93a4.58,4.58,0,0,1-.3-.88A6.57,6.57,0,0,1,530.58,195.88Z" transform="translate(1 -1)"/><path class="cls-2" d="M530.5,197.72c0-.33.11-.65.18-.93.1.61.2,1.16.37,1.94a8.3,8.3,0,0,0,.38,1.12,6.32,6.32,0,0,0,1.11,1.77,7,7,0,0,0,2,1.54,21.43,21.43,0,0,0,2.1.88,6.89,6.89,0,0,1,.91.41,3.53,3.53,0,0,1,.73.48,2.88,2.88,0,0,1,1.11,1.77,2,2,0,0,1-.29,1.39,2.89,2.89,0,0,1-1.19,1,4.13,4.13,0,0,1-2.77.36,3.61,3.61,0,0,1-1.82-1.12,3.42,3.42,0,0,1-.95-2.37.59.59,0,0,0,.29,0,14,14,0,0,0,1.36,1.86,3.08,3.08,0,0,0,1.43.86,3.11,3.11,0,0,0,2.06-.25,1.56,1.56,0,0,0,1-1.56,2.13,2.13,0,0,0-.87-1.32,2.57,2.57,0,0,0-.59-.39,7.11,7.11,0,0,0-.83-.39,19,19,0,0,1-2.17-.89,7.59,7.59,0,0,1-2.22-1.73,7.75,7.75,0,0,1-1.25-2,7.2,7.2,0,0,1-.4-1.24,4.17,4.17,0,0,1,0-2.12A4.58,4.58,0,0,0,530.5,197.72Z" transform="translate(1 -1)"/><path class="cls-2" d="M517.74,192.81s0,.05,0,.08a.41.41,0,0,0-.15,0Z" transform="translate(1 -1)"/><path class="cls-2" d="M560.51,216.19a7.48,7.48,0,0,1-.64,1.11,5.93,5.93,0,0,1-1.44,1.45c-.33.21-1,.68-1.79,1.13l-.16.09c-.08.05-.16.08-.23.13l-.47.24c-.32.17-.66.3-1,.46-.65.3-1.34.58-2,.85-1.39.54-2.82,1-4.25,1.57a36.46,36.46,0,0,0-4.2,1.82,29.26,29.26,0,0,0-3.82,2.46c-2.41,1.8-4.65,3.75-7,5.3a38,38,0,0,1-6.71,3.52c-2,.85-3.75,1.4-4.95,1.78s-1.89.55-1.89.55-2.73.79-7,1.74l-3.48.75a22.53,22.53,0,0,1-4,.55,7.52,7.52,0,0,1-4.27-1,6.57,6.57,0,0,1-2.45-3.41c-.22-.57-.39-1.15-.58-1.72a12.29,12.29,0,0,0,.51-1.38c.36.94.61,1.9.94,2.79a5.75,5.75,0,0,0,2.16,3.05,6.42,6.42,0,0,0,3.74.85,21,21,0,0,0,3.85-.52l3.45-.74c4.25-.94,6.93-1.72,6.93-1.72s.67-.18,1.86-.55,2.87-.93,4.86-1.75a38.1,38.1,0,0,0,6.54-3.43c2.27-1.5,4.48-3.43,6.93-5.28a32.43,32.43,0,0,1,3.95-2.53,39.92,39.92,0,0,1,4.33-1.88c1.44-.54,2.88-1,4.23-1.56.69-.28,1.35-.54,2-.84.33-.14.64-.28,1-.44l.45-.23a1.19,1.19,0,0,0,.22-.12l.15-.08c.79-.44,1.37-.86,1.69-1.06Z" transform="translate(1 -1)"/><path class="cls-2" d="M526.44,202.07a6.43,6.43,0,0,1,1.84.7,12.51,12.51,0,0,1,1.23.77s.54.36,1.13.78a8.65,8.65,0,0,0,1.5.82,2.68,2.68,0,0,1,1,.7,2.4,2.4,0,0,1-.48.12l-.3-.49a4.42,4.42,0,0,0,0,.52,1.34,1.34,0,0,1-.63-.11,8.81,8.81,0,0,1-1.66-.89l-1.16-.81a11.68,11.68,0,0,0-1.14-.7,5.69,5.69,0,0,0-1.58-.61,2.91,2.91,0,0,1-1.13-.5A2,2,0,0,1,526.44,202.07Z" transform="translate(1 -1)"/><path class="cls-2" d="M523.73,200.67a2.34,2.34,0,0,1,.9.69,2.76,2.76,0,0,1,.43,1,2.82,2.82,0,0,1,0,1,2.45,2.45,0,0,1-.08.39,3.67,3.67,0,0,1-.61,1.22,8.61,8.61,0,0,1-1.11,1.17,17.34,17.34,0,0,0,.9-2.81,2.14,2.14,0,0,0-.35-1.47,1.5,1.5,0,0,0-1.38-.57,2.76,2.76,0,0,0-1.69.75,3.21,3.21,0,0,0-.49,3.53,17.64,17.64,0,0,0,2.09,3.25,18.4,18.4,0,0,1,1.67,3,13.06,13.06,0,0,1,1,3.07,7.7,7.7,0,0,1,.15.86,11.1,11.1,0,0,1,.1,2.38,11.59,11.59,0,0,1-3.07,7.13,10.88,10.88,0,0,1-3.92,2.79,10.46,10.46,0,0,1-4.55.79,7.89,7.89,0,0,1-1.94-.27c-.2-.05-.41-.09-.57-.14-.34-.12-.61-.22-.79-.3a3.94,3.94,0,0,1-2.23-2.18,16.08,16.08,0,0,0,2.68,1.45c.15.06.39.15.7.25a3.43,3.43,0,0,0,.51.14,9.25,9.25,0,0,0,1.76.26,9.7,9.7,0,0,0,7.66-3.27,10.81,10.81,0,0,0,2.85-6.62,11.28,11.28,0,0,0-.08-2.24,7.72,7.72,0,0,0-.16-.83,11.89,11.89,0,0,0-1-2.93,18.78,18.78,0,0,0-1.59-2.84,17.66,17.66,0,0,1-2.18-3.39,5.16,5.16,0,0,1-.25-.85,3.61,3.61,0,0,1,.23-.36,1.08,1.08,0,0,1-.28.15,4.71,4.71,0,0,1,0-1.13,3.56,3.56,0,0,1,1-2.19,3.82,3.82,0,0,1,2.36-1A2.58,2.58,0,0,1,523.73,200.67Z" transform="translate(1 -1)"/><path class="cls-2" d="M532.35,205.47l.3.49a.59.59,0,0,1-.29,0A4.42,4.42,0,0,1,532.35,205.47Z" transform="translate(1 -1)"/><path class="cls-2" d="M519.11,204.83a1.08,1.08,0,0,0,.28-.15,3.61,3.61,0,0,0-.23.36C519.14,205,519.13,204.89,519.11,204.83Z" transform="translate(1 -1)"/><path class="cls-2" d="M519.11,204.83c0,.06,0,.13,0,.21-.54.74-.93,1.32-1.51,2.25a7,7,0,0,0-.75,1.65,10.09,10.09,0,0,0-.38,2.93c0,.49,0,.95,0,1.29s0,.52,0,.52a5.16,5.16,0,0,1-.11.65,3,3,0,0,1-.76,1.54,2.53,2.53,0,0,1-1,.64,3.22,3.22,0,0,1-1.14.2,2,2,0,0,1-1.72-.84,2,2,0,0,1-.26-1.45,2.71,2.71,0,0,1,.87-1.49,2.48,2.48,0,0,0,.13.35,2.41,2.41,0,0,0,.63-.81s0,0,0,0a5.65,5.65,0,0,1,1-.22,3.28,3.28,0,0,0-1.71,2.23,1.39,1.39,0,0,0,.17,1,1.11,1.11,0,0,0,1,.47,1.91,1.91,0,0,0,1.39-.53,2.46,2.46,0,0,0,.56-1.15c.06-.33.09-.56.09-.56s0-.17,0-.47,0-.74,0-1.24a10.82,10.82,0,0,1,.41-3.16,8.32,8.32,0,0,1,.83-1.85A6.16,6.16,0,0,1,519.11,204.83Z" transform="translate(1 -1)"/><path class="cls-2" d="M511.89,203.56c.31.05.48.07.54.2a.64.64,0,0,0,.06.15l-.61.8a.15.15,0,0,0,0-.08,2.56,2.56,0,0,1-.28-.56C511.51,203.9,511.64,203.74,511.89,203.56Z" transform="translate(1 -1)"/><path class="cls-2" d="M514,205.61a2.39,2.39,0,0,1,.65-.85,1.72,1.72,0,0,1,.16,1.2c-.13.54-.79,3.12-.79,3.12s-.65,2.59-.78,3.12a1.86,1.86,0,0,1-.1.25s0,0,0,0a3,3,0,0,0-.76.46,1.29,1.29,0,0,1,0-.85l.79-3.12s.65-2.59.79-3.11A1.37,1.37,0,0,1,514,205.61Z" transform="translate(1 -1)"/><path class="cls-2" d="M512.49,203.91a3.57,3.57,0,0,0,.38.58,3.85,3.85,0,0,0,.7.56c.12.07.11.21.1.5-.25.2-.44.28-.61.19a2.74,2.74,0,0,1-.55-.37,3.51,3.51,0,0,1-.37-.35s-.13-.14-.26-.31Z" transform="translate(1 -1)"/><path class="cls-2" d="M505,203.41a7.22,7.22,0,0,1,1.83,2.44c.09.19.23.51.5,1.17.17.43.35.95.53,1.54a23.3,23.3,0,0,1,.87,4.23,23.93,23.93,0,0,1,.16,2.68c0,.69,0,1.12,0,1.12l-.08,1c0,.59-.15,1.42-.32,2.34s-.44,1.92-.58,2.89a7.13,7.13,0,0,0,0,2.57,5.45,5.45,0,0,0,.18.6,4.64,4.64,0,0,0,.48.93,5.75,5.75,0,0,0,1,1.07,3.83,3.83,0,0,0,1.23.74,3.09,3.09,0,0,1-3-1.35,4.58,4.58,0,0,1-.79-1.79c-.41-1.66.21-4,.57-5.74.16-.89.28-1.69.33-2.27s.07-.91.07-.91,0-.43,0-1.1a25.06,25.06,0,0,0-.16-2.61,22.78,22.78,0,0,0-1.36-5.58c-.27-.64-.39-1-.49-1.14A17.54,17.54,0,0,1,505,203.41Z" transform="translate(1 -1)"/><path class="cls-2" d="M513.1,212.47a2.41,2.41,0,0,1-.63.81,2.48,2.48,0,0,1-.13-.35A3,3,0,0,1,513.1,212.47Z" transform="translate(1 -1)"/><path class="cls-2" d="M482.46,204c.12,1.07.28,1.71.5,2.86a8.74,8.74,0,0,0,.54,1.66,9.9,9.9,0,0,0,1.14,1.79,8.47,8.47,0,0,0,.86.91,7.7,7.7,0,0,0,1.17.9,8.55,8.55,0,0,0,2.15,1,6.94,6.94,0,0,0,1.26.3,10.14,10.14,0,0,0,1.6.06,4.22,4.22,0,0,0,1.49-.37,3.51,3.51,0,0,1-3.29,1.1,7.54,7.54,0,0,1-1.43-.32,9.57,9.57,0,0,1-2.36-1.12,8.22,8.22,0,0,1-1.26-1,13.35,13.35,0,0,1-.94-1,9.59,9.59,0,0,1-1.22-2,7.89,7.89,0,0,1-.61-1.79A4.75,4.75,0,0,1,482.46,204Z" transform="translate(1 -1)"/><path class="cls-2" d="M490.22,218.9a4.64,4.64,0,0,1,1.23-2.94,21.23,21.23,0,0,0-.32,2.91,5,5,0,0,0,0,.7c0,.15,0,.32,0,.48v.11l0,.19.05.39c.06.26.1.54.18.8a12.62,12.62,0,0,0,.55,1.6,34.1,34.1,0,0,0,4.12,6.43,21.89,21.89,0,0,1,2,3.2,11.22,11.22,0,0,1-.28,1.23,1.59,1.59,0,0,0-.07.2l-.31-.72a24.48,24.48,0,0,0-2.08-3.43c-1.57-2.19-3.28-4.28-4.2-6.58a11.59,11.59,0,0,1-.57-1.69,8.26,8.26,0,0,1-.2-.86l-.06-.41,0-.21v-.12c0-.19,0-.37-.05-.52A5.5,5.5,0,0,1,490.22,218.9Z" transform="translate(1 -1)"/><path class="cls-4" d="M498.66,229.41a5.26,5.26,0,0,1,.42,3,14,14,0,0,1-.4,1.8c-.13-.35-.28-.71-.44-1.05a3,3,0,0,0-.19-.36c.05-.21.09-.37.11-.49C498.31,231.1,498.46,230.45,498.66,229.41Z" transform="translate(1 -1)"/><path class="cls-4" d="M498.05,232.77a3,3,0,0,1,.19.36c.16.34.31.7.44,1.05a12.29,12.29,0,0,1-.51,1.38c-.15-.46-.3-.91-.47-1.36a1.59,1.59,0,0,1,.07-.2A11.22,11.22,0,0,0,498.05,232.77Z" transform="translate(1 -1)"/><path class="cls-4" d="M497.7,234.2c.17.45.32.9.47,1.36a27,27,0,0,1-4.09,6.53c-2.11,2.53-4.3,4.83-5.93,6.46l.19-.65a12.6,12.6,0,0,0-2,2.4l-.07.09,0,0c-.41.4-.66.62-.66.62a107.55,107.55,0,0,1-9.68,8c-2.67,2-5.59,3.91-8.14,5.46l-1.8,1.07-.5.29-.71.39a13.08,13.08,0,0,1-3.16,1.29,13.8,13.8,0,0,1,2.63-1.94l.71-.4c.64-.39,1.42-.83,2.27-1.35,2.52-1.53,5.42-3.46,8.08-5.41a104.89,104.89,0,0,0,9.6-8,98.2,98.2,0,0,0,8.41-8.84A24.42,24.42,0,0,0,497.7,234.2Z" transform="translate(1 -1)"/><path class="cls-4" d="M488.34,247.9l-.19.65c-.79.78-1.44,1.41-1.89,1.84l.07-.09A12.6,12.6,0,0,1,488.34,247.9Z" transform="translate(1 -1)"/><path class="cls-4" d="M488.15,248.55a7.55,7.55,0,0,1-1,2.14c-.18.26-.48.79-1.06,1.58a55.5,55.5,0,0,1-4.83,5.93c-1.72,1.84-3.19,3.18-3.19,3.18a64.52,64.52,0,0,1-5.47,4.48c-1.52,1.11-3.14,2.22-4.59,3.07-.35.23-.69.42-1,.62l-.48.28-.73.41a11.68,11.68,0,0,1-3.2,1.21l.09-.08a13.57,13.57,0,0,1,2.6-1.79l.69-.41.5-.27c.31-.19.64-.39,1-.62,1.43-.85,3-1.93,4.53-3a62.76,62.76,0,0,0,5.39-4.44s1.46-1.31,3.14-3.13a52.66,52.66,0,0,0,4.76-5.83c.5-.7.79-1.18,1-1.46l0,0C486.71,250,487.36,249.33,488.15,248.55Z" transform="translate(1 -1)"/><path class="cls-2" d="M462.72,269.87c-.28.33-.52.63-.78.9a13.13,13.13,0,0,1-1.55,1.4,5.35,5.35,0,0,0-.61.52l-1.94,1.73a70.1,70.1,0,0,0-6.45,7.1c-2,2.53-3.86,5-5.22,6.88l-2.23,3-2.26,3c-.7.9-1.48,2-2.44,3.15-.48.56-1,1.16-1.47,1.78s-1.06,1.2-1.62,1.82-1.13,1.23-1.73,1.83-1.15,1.22-1.79,1.77-1.25,1.09-1.85,1.63a10.25,10.25,0,0,1-1,.83s0-.06,0-.09a1.58,1.58,0,0,0,0-.68c-.2.27-.44.56-.67.85a1.81,1.81,0,0,1,0,.31s0,.1,0,.16a.24.24,0,0,0-.1.06c-.74.54-1.32,1-1.65,1.22a14,14,0,0,1-3.09,1.45,14.46,14.46,0,0,1,2.56-2.08c.33-.19.9-.66,1.62-1.2a48.5,48.5,0,0,0,7.06-6.53l1.6-1.81c.51-.61,1-1.2,1.45-1.77.95-1.12,1.73-2.22,2.44-3.12l2.25-3,2.21-3c1.36-1.84,3.18-4.35,5.26-6.91a72.88,72.88,0,0,1,6.53-7.19l2-1.76c.26-.23.47-.42.62-.53A14.38,14.38,0,0,1,462.72,269.87Z" transform="translate(1 -1)"/><path class="cls-2" d="M451.08,266.73a13,13,0,0,1,3.15-1.35,13.44,13.44,0,0,1-2.69,2L449,269c-2,1.28-4.28,2.86-6.35,4.49a83.49,83.49,0,0,0-7.56,6.59l-.57.58c-.36.38-.91.9-1.53,1.57-1.24,1.34-2.92,3.16-4.5,5.19-.82,1-1.57,2-2.34,3.06s-1.46,2.06-2,3c-.49.74-.86,1.34-1.05,1.63s-.31.51-.46.72a6.63,6.63,0,0,0-1,.13,10.14,10.14,0,0,1,.63-1.19l1.06-1.65c.58-.92,1.33-2,2-3s1.53-2.1,2.37-3.1c1.59-2,3.29-3.88,4.56-5.24.61-.68,1.18-1.2,1.55-1.58s.59-.59.59-.59,1.6-1.61,4-3.68c1.08-.94,2.32-2,3.64-3,2.11-1.65,4.43-3.24,6.43-4.55Z" transform="translate(1 -1)"/><path class="cls-2" d="M418.6,263.32c0,.28,0,.53,0,.8v.12l-1.41.63c-2.42,1.06-4,1.73-4,1.73l-4,1.78c-1.19.56-2.62,1.18-4.12,1.93l-2.33,1.16-2.41,1.31a57.41,57.41,0,0,0-8.83,5.9c-.74.63-1.38,1.12-1.66,1.39a14.52,14.52,0,0,1-2.86,2.19,12.8,12.8,0,0,1,2.15-2.74c.28-.3.92-.79,1.69-1.44L391,278a1.07,1.07,0,0,1,.21,0,2.55,2.55,0,0,1,.38,0l1.12-.54a2.66,2.66,0,0,0-.83-.05l-.11,0a9.94,9.94,0,0,1,1.13-.87c.71-.5,1.46-1,2.22-1.55s1.57-1,2.37-1.48,1.59-1,2.44-1.43,1.64-.89,2.43-1.32,1.61-.8,2.38-1.17c1.49-.77,2.93-1.39,4.13-1.95l4-1.78s1.58-.67,4-1.74Z" transform="translate(1 -1)"/><path class="cls-4" d="M439,275c-.27.29-.51.55-.76.8a7.09,7.09,0,0,1-1.81,1.26,11.15,11.15,0,0,1-2.07.76,7.63,7.63,0,0,1-3.18.14,5.27,5.27,0,0,1-1.74-.63A5.47,5.47,0,0,1,428,276c-.08-.1-.14-.21-.23-.32-.51-.75-.94-1.57-1.26-2.07s-.53-.93-.64-1.11a9,9,0,0,1-1.12-2.8,11.91,11.91,0,0,1,2,2.45l.65,1.11c.36.57.89,1.58,1.45,2.31a4.48,4.48,0,0,0,1.21,1.12,4.34,4.34,0,0,0,1.41.52,6.74,6.74,0,0,0,2.73-.13,10.24,10.24,0,0,0,1.85-.68A27.89,27.89,0,0,1,439,275Z" transform="translate(1 -1)"/><path class="cls-2" d="M425.4,275.85c.26.18.51.37.77.54-.14.07-.31.2-.55.32-.49.31-1.21.78-2.11,1.29-1.81,1-4.26,2.42-7,3.7-1.33.66-2.74,1.26-4.08,1.87s-2.74,1.15-3.93,1.59c-1,.35-1.77.64-2.16.8a15.8,15.8,0,0,1-1.55.46,8.36,8.36,0,0,0,.29-.89,9.09,9.09,0,0,1,.91-.36l2.13-.79c1.18-.45,2.54-1,3.89-1.58s2.73-1.18,4-1.84c2.67-1.26,5.09-2.63,6.87-3.65.91-.51,1.6-1,2.11-1.28Z" transform="translate(1 -1)"/><path class="cls-2" d="M404.14,282.74c.21-.36.39-.73.56-1.09a4.76,4.76,0,0,1,.51,1.25,5.63,5.63,0,0,1-.09,2.63,10.14,10.14,0,0,0-1,.44,5.13,5.13,0,0,0,.19-2.69A3.8,3.8,0,0,0,404.14,282.74Z" transform="translate(1 -1)"/><path class="cls-2" d="M392.68,277.43l-1.12.54a2.55,2.55,0,0,0-.38,0,1.07,1.07,0,0,0-.21,0l.77-.63.11,0A2.66,2.66,0,0,1,392.68,277.43Z" transform="translate(1 -1)"/><path class="cls-2" d="M391.74,277.4,391,278a10,10,0,0,0-2.73.86,39.16,39.16,0,0,0-3.78,2c-2.62,1.57-5.25,3.38-7.63,5s-4.58,3.19-6.41,4.52c-3.69,2.65-6,4.4-6,4.4s-2.34,1.75-5.86,4.5-8.18,6.51-12.74,10.47c-2.28,2-4.57,4-6.7,6l-1.58,1.45c-.51.48-1,1-1.49,1.43L334.58,320l-1.3,1.28c-.62.59-1.12,1.08-1.35,1.32s-.49.49-.72.7a6.88,6.88,0,0,0,.32-.74c.26-.27.7-.68,1.2-1.18s.87-.85,1.33-1.28.95-.93,1.45-1.4l1.51-1.43,1.6-1.48c2.15-2,4.46-4,6.76-6,4.61-4,9.31-7.82,12.87-10.58s5.92-4.54,5.92-4.54,2.33-1.76,6.06-4.44c1.85-1.34,4.06-2.9,6.47-4.56s5.06-3.47,7.83-5.13a37.64,37.64,0,0,1,4.06-2.16A11.55,11.55,0,0,1,391.74,277.4Z" transform="translate(1 -1)"/><path class="cls-2" d="M405.12,285.53a8.36,8.36,0,0,1-.29.89l-.9.18a3.83,3.83,0,0,0,.2-.63A10.14,10.14,0,0,1,405.12,285.53Z" transform="translate(1 -1)"/><path class="cls-2" d="M404.13,286a3.83,3.83,0,0,1-.2.63l-1.25.17C403.2,286.45,403.66,286.2,404.13,286Z" transform="translate(1 -1)"/><path class="cls-2" d="M404.83,286.42a1,1,0,0,0-.06.16,14.7,14.7,0,0,1-2.38,3.79,60.8,60.8,0,0,1-6.54,6.35c-2.19,1.9-4.25,3.58-6.05,5-3.59,2.81-6,4.48-6,4.48s-2.39,1.73-6.25,4.2a158.43,158.43,0,0,1-15.1,8.48c-2.91,1.42-5.93,2.8-8.88,4-.73.32-1.47.61-2.19.91l-2.15.82-.11.05,0-.05a3.18,3.18,0,0,0-.37.18c-.58.21-1.12.43-1.65.61l-2,.67c-.92.33-1.68.59-2.05.69a16.28,16.28,0,0,1-3.35.71,20.06,20.06,0,0,1,3.32-1.39c.38-.11,1.12-.38,2-.69.63-.21,1.27-.44,1.94-.68s1.38-.51,2.07-.76l2.15-.82,2.16-.89c2.93-1.18,5.91-2.57,8.79-4a152.21,152.21,0,0,0,14.95-8.38c3.84-2.45,6.22-4.16,6.22-4.16s2.4-1.67,6-4.43c1.77-1.39,3.82-3.06,6-4.93a60.15,60.15,0,0,0,6.39-6.2,14.23,14.23,0,0,0,2.22-3.52h0Z" transform="translate(1 -1)"/><path class="cls-2" d="M425.33,296a5,5,0,0,1,1.25.52c-.39.11-.78.21-1.19.35a3.24,3.24,0,0,0-.55-.19,7.35,7.35,0,0,0-2.83-.12,7.72,7.72,0,0,0,.56-.73A7.31,7.31,0,0,1,425.33,296Z" transform="translate(1 -1)"/><path class="cls-2" d="M421.6,295.91a6.63,6.63,0,0,1,1-.13,7.72,7.72,0,0,1-.56.73c-.23,0-.45.07-.67.12C421.42,296.39,421.5,296.17,421.6,295.91Z" transform="translate(1 -1)"/><path class="cls-2" d="M421.42,296l.18,0c-.1.26-.18.48-.26.72h0a16.94,16.94,0,0,0-3.9,1.44,58.22,58.22,0,0,0-7.12,4.55c-2.19,1.56-4.14,3-5.77,4.35-3.26,2.58-5.23,4.37-5.23,4.37s-2,1.74-5,4.59a125.13,125.13,0,0,0-10.25,11.21c-1.76,2.19-3.5,4.44-5,6.68-.38.55-.77,1.1-1.15,1.66l-1.06,1.64c-.34.54-.71,1.07-1,1.6s-.59,1-.89,1.49c-.42.7-.75,1.27-.91,1.56a14,14,0,0,1-1.78,2.54,10.43,10.43,0,0,1,1.06-2.62c.16-.29.51-.88.93-1.59l.91-1.5c.29-.51.63-1,1-1.52l.06-.09,1.07-1.66c.39-.55.77-1.12,1.17-1.67,1.53-2.27,3.29-4.54,5.05-6.75a126,126,0,0,1,10.38-11.31c3-2.88,5-4.64,5-4.64s2-1.8,5.29-4.42c1.63-1.31,3.6-2.81,5.82-4.38a59.74,59.74,0,0,1,7.29-4.66A17.23,17.23,0,0,1,421.42,296Z" transform="translate(1 -1)"/><path class="cls-2" d="M421.34,296.63c.22-.05.44-.09.67-.12a11.85,11.85,0,0,1-1,1.11C421.13,297.26,421.22,296.94,421.34,296.63Z" transform="translate(1 -1)"/><path class="cls-2" d="M429.82,306.51a1.58,1.58,0,0,1,0,.68s0,.05,0,.09c-.25.19-.5.37-.7.55,0-.06,0-.12,0-.16a1.81,1.81,0,0,0,0-.31C429.38,307.07,429.62,306.78,429.82,306.51Z" transform="translate(1 -1)"/><path class="cls-2" d="M429.06,307.83c.2-.18.45-.36.7-.55a7.47,7.47,0,0,1-1.32,2.42,33.78,33.78,0,0,1-2.66,3.07c-2,2.07-4.19,4-6.15,5.79s-3.84,3.42-5.42,4.77c-3.16,2.74-5.26,4.45-5.26,4.45s-2.06,1.73-5.33,4.33-7.7,6-12.36,9.33c-2.32,1.66-4.69,3.32-7,4.86l-1.71,1.14-1.64,1.09-1.6,1-1.48.94c-.7.44-1.27.81-1.56,1a21.2,21.2,0,0,1-2.39,1.32c.94-.67,1.55-1.11,2.58-1.74l.25-.17,1.28-.8,1.46-.93c.52-.32,1.06-.69,1.59-1s1.09-.7,1.64-1.07l1.68-1.13c2.28-1.51,4.62-3.17,6.91-4.81,4.63-3.3,9-6.68,12.26-9.25s5.27-4.28,5.27-4.28,2.08-1.69,5.22-4.4c1.56-1.35,3.39-3,5.36-4.73s4.09-3.69,6-5.65a31,31,0,0,0,2.47-2.85A8.78,8.78,0,0,0,429.06,307.83Z" transform="translate(1 -1)"/><path class="cls-4" d="M349.11,324.57l0,.05a1.86,1.86,0,0,0-.34.13A3.18,3.18,0,0,1,349.11,324.57Z" transform="translate(1 -1)"/><path class="cls-4" d="M348.74,324.75a1.86,1.86,0,0,1,.34-.13,25.44,25.44,0,0,1-3.35,3.57c-.24.24-.7.6-1.53,1.43a50.08,50.08,0,0,0-4,4.4c-1.29,1.59-2.24,3-2.24,3s-.8,1.17-1.69,2.69a45.77,45.77,0,0,0-2.49,4.85c-.58,1.36-.87,2.22-1,2.66a21.49,21.49,0,0,1-1.18,2.79c-.23.48-.5,1-.81,1.49a10.7,10.7,0,0,1,.58-4.63c.16-.46.47-1.34,1.06-2.73a45,45,0,0,1,2.53-5c.93-1.57,1.76-2.76,1.76-2.76s1-1.43,2.29-3.07a58.13,58.13,0,0,1,4.15-4.52c.86-.83,1.31-1.21,1.56-1.46A14.57,14.57,0,0,1,348.74,324.75Z" transform="translate(1 -1)"/><path class="cls-4" d="M369.46,338.63a32.4,32.4,0,0,1,4.61-2.46,13.37,13.37,0,0,1-3.73,3.46c-.31.19-.8.54-1.9,1.15a52.49,52.49,0,0,1-5.19,2.63c-.94.4-1.8.77-2.45,1l-1,.4s-1.33.49-3.1,1-3.93,1.06-5.51,1.39-2.78.47-3.35.54a17.22,17.22,0,0,1-5.54-.11l1.75-.46c1.06-.25,2.09-.44,3.55-.66.54-.06,1.59-.22,3.25-.53s3.67-.8,5.37-1.34,3-1,3-1l1-.38c.63-.23,1.47-.59,2.37-1a49.87,49.87,0,0,0,5.05-2.55C368.67,339.15,369.15,338.82,369.46,338.63Z" transform="translate(1 -1)"/><path class="cls-4" d="M332,321.28c-.15.48-.27.9-.44,1.3l-.16.17a23.6,23.6,0,0,0-1.89,2.11c.67-.58,1.18-1,1.73-1.54a10.44,10.44,0,0,1-1.46,2.24c-.22.28-.58.73-1.4,1.6a37,37,0,0,1-4.05,3.73c-.77.59-1.47,1.14-2,1.5s-.85.6-.85.6-1.14.76-2.67,1.63a45.35,45.35,0,0,1-4.92,2.41c-1.6.63-2.6,1-3.15,1.14a15.69,15.69,0,0,1-5.47.76,43.65,43.65,0,0,1,4.94-1.92c.52-.15,1.49-.5,3-1.11a43,43,0,0,0,4.75-2.32c1.47-.83,2.56-1.56,2.56-1.56l.84-.59c.53-.34,1.21-.88,2-1.45a37.84,37.84,0,0,0,3.89-3.6c.8-.83,1.15-1.27,1.36-1.52A34.67,34.67,0,0,1,332,321.28Z" transform="translate(1 -1)"/><path class="cls-4" d="M331.37,322.75l.16-.17a6.88,6.88,0,0,1-.32.74c-.55.53-1.06,1-1.73,1.54A23.6,23.6,0,0,1,331.37,322.75Z" transform="translate(1 -1)"/><path class="cls-4" d="M376.65,350.59l-.09.06c-1.57.92-2.6,1.5-4.51,2.41a20.31,20.31,0,0,0-1.93,1,34.59,34.59,0,0,0-4.08,2.61,21.06,21.06,0,0,0-1.67,1.31l-.68.57s-.85.76-1.86,1.79a29.24,29.24,0,0,0-2.8,3.35,21.22,21.22,0,0,0-1.57,2.43,36.09,36.09,0,0,1-2.67,4,9.76,9.76,0,0,1,1.33-4.55,24.56,24.56,0,0,1,1.65-2.54,30.15,30.15,0,0,1,2.91-3.48c1-1.06,1.93-1.86,1.93-1.86l.7-.59c.43-.38,1.05-.86,1.75-1.38a39.62,39.62,0,0,1,4.25-2.71c1.12-.59,1.67-.86,2-1A14.63,14.63,0,0,1,376.65,350.59Z" transform="translate(1 -1)"/><path class="cls-4" d="M353.79,350.68a1.5,1.5,0,0,0,.13-.78,1.38,1.38,0,0,1,.31.92A2.06,2.06,0,0,0,353.79,350.68Z" transform="translate(1 -1)"/><path class="cls-4" d="M354.23,350.82a10.12,10.12,0,0,1,1.07.44h-1.12A1,1,0,0,0,354.23,350.82Z" transform="translate(1 -1)"/><path class="cls-4" d="M353.79,350.68a2.06,2.06,0,0,1,.44.14,1,1,0,0,1-.05.43c-.25,0-.49,0-.75,0a.87.87,0,0,0,.09-.11A1.86,1.86,0,0,0,353.79,350.68Z" transform="translate(1 -1)"/><path class="cls-4" d="M353.79,350.68a1.86,1.86,0,0,1-.27.45.87.87,0,0,1-.09.11c-.46,0-.95,0-1.57-.06a14.88,14.88,0,0,0-2.07,0,16.86,16.86,0,0,0-1.88.23c-.61.11-1.08.22-1.08.22s-.56.12-1.21.33-1.41.5-1.83.69a11,11,0,0,0-1.23.61c-1.17.65-1.85,1-2.92,1.53a2.1,2.1,0,0,1,.22-.3,6.37,6.37,0,0,1,2.18-1.89c.22-.12.56-.32,1.32-.66a16.75,16.75,0,0,1,1.94-.72,11.75,11.75,0,0,1,1.27-.35l1.14-.24a19.66,19.66,0,0,1,2-.25,16.48,16.48,0,0,1,2.22,0A8.17,8.17,0,0,1,353.79,350.68Z" transform="translate(1 -1)"/><path class="cls-4" d="M353.43,351.24c.26,0,.5,0,.75,0a3.14,3.14,0,0,1-1.11,1.51,12.18,12.18,0,0,1-1.74,1.14c-2.31,1.38-6.5,3.83-6.5,3.83l-7.1,4.2-1.21.71a12.3,12.3,0,0,1-2.13,1c0-.07.08-.17.14-.26a2.11,2.11,0,0,0-.4-.07A11.1,11.1,0,0,1,336,362c.17-.09.44-.25.91-.54a.32.32,0,0,0,0,.09,1.89,1.89,0,0,0,1.31-.53,3.32,3.32,0,0,0,.5-.6c2.37-1.38,5.61-3.31,5.61-3.31l6.5-3.83a14,14,0,0,0,1.64-1.07A8.56,8.56,0,0,0,353.43,351.24Z" transform="translate(1 -1)"/><path class="cls-4" d="M328.15,339.86a7.94,7.94,0,0,1,.38,1,2.33,2.33,0,0,0-.53,0C328.05,340.53,328.1,340.23,328.15,339.86Z" transform="translate(1 -1)"/><path class="cls-4" d="M328.53,340.82a2.28,2.28,0,0,1,1.08.33,2.69,2.69,0,0,0-1,.07C328.61,341.08,328.57,341,328.53,340.82Z" transform="translate(1 -1)"/><path class="cls-4" d="M328.53,340.82c0,.13.08.26.11.4a2.66,2.66,0,0,0-.52.19l-.2.09c0-.23.06-.44.08-.66A2.33,2.33,0,0,1,328.53,340.82Z" transform="translate(1 -1)"/><path class="cls-1" d="M351.86,351.18c.62,0,1.11.05,1.57.06a8.56,8.56,0,0,1-1,.95,14,14,0,0,1-1.64,1.07l-6.5,3.83s-3.24,1.93-5.61,3.31a4.16,4.16,0,0,0,.58-1,5,5,0,0,0,.39-1.39,4.73,4.73,0,0,0-.09-1.43,5.68,5.68,0,0,0-.62-1.57,2.69,2.69,0,0,0,.58-.68l.34.18a2.1,2.1,0,0,0-.22.3c1.07-.55,1.75-.88,2.92-1.53a11,11,0,0,1,1.23-.61c.42-.19,1.18-.48,1.83-.69s1.21-.33,1.21-.33.47-.11,1.08-.22a16.86,16.86,0,0,1,1.88-.23A14.88,14.88,0,0,1,351.86,351.18Z" transform="translate(1 -1)"/><path class="cls-4" d="M327.89,340.85H328c0,.22-.05.43-.08.66a9,9,0,0,0-1.18.71,13.71,13.71,0,0,0-1.45,1.24c-2.05,2-5.77,5.59-5.77,5.59l-4.81,4.66a5.28,5.28,0,0,0-.85.43,1.51,1.51,0,0,0-.78,1.07l.09,0c-.5.52-.77.76-.92.92a10.88,10.88,0,0,1-1.74,1.39.78.78,0,0,0,0-.37l-.33.1a9.4,9.4,0,0,1,1.39-1.64c.15-.16.42-.42.95-.94l6.32-6.11s3.72-3.59,5.77-5.59a11.32,11.32,0,0,1,1.56-1.33A4.28,4.28,0,0,1,327.89,340.85Z" transform="translate(1 -1)"/><path class="cls-4" d="M328.12,341.41a2.66,2.66,0,0,1,.52-.19,4.93,4.93,0,0,1,.08,1.57,12.14,12.14,0,0,1-.3,1.84,15.63,15.63,0,0,1-.6,1.88c-.27.59-.49,1.05-.49,1.05a10.55,10.55,0,0,1-.67,1.17,13.29,13.29,0,0,1-1.28,1.75c-.47.58-.76.83-.91,1a8,8,0,0,1-2.84,1.78,29.07,29.07,0,0,1,2.13-2.28c.12-.18.4-.42.85-1a14.4,14.4,0,0,0,1.21-1.66,9.48,9.48,0,0,0,.64-1.11s.22-.43.45-1a14,14,0,0,0,.58-1.77,14.47,14.47,0,0,0,.3-1.75c0-.47.09-.87.13-1.23Z" transform="translate(1 -1)"/><path class="cls-4" d="M338.36,347a11.72,11.72,0,0,1,5.62.1c-1.89.42-3.15.63-5.18,1.1A5.39,5.39,0,0,0,337,349a9.36,9.36,0,0,0-1.56,1.25,9.74,9.74,0,0,0-.82.93,6,6,0,0,0-.56.86,3,3,0,0,0-.39,1.46c.19,1,1.31,1.13,1.75,1.21a4.57,4.57,0,0,0,2.34,0,1.43,1.43,0,0,0,.23.57,2.07,2.07,0,0,1,.19.29,4.42,4.42,0,0,1-3.06.39,5.7,5.7,0,0,1-1.39-.4,3.83,3.83,0,0,1-.94-.67,2.34,2.34,0,0,1-.38-.55,5.35,5.35,0,0,1-.21-.68,2.88,2.88,0,0,1,0-.71,4.27,4.27,0,0,1,.47-1.41,9.42,9.42,0,0,1,.67-1,13.87,13.87,0,0,1,.94-1.06A11.84,11.84,0,0,1,336.1,348,7.77,7.77,0,0,1,338.36,347Z" transform="translate(1 -1)"/><path class="cls-1" d="M326.74,342.21a9,9,0,0,1,1.18-.71c0,.36-.09.76-.13,1.23a14.47,14.47,0,0,1-.3,1.75,14,14,0,0,1-.58,1.77c-.23.57-.45,1-.45,1a9.48,9.48,0,0,1-.64,1.11,14.4,14.4,0,0,1-1.21,1.66c-.45.55-.73.79-.85,1a29.07,29.07,0,0,0-2.13,2.28l.21.26a4.19,4.19,0,0,0-.62.34,6.83,6.83,0,0,0-1.89-.67,7.76,7.76,0,0,0-1.75-.15,8.48,8.48,0,0,0-1.72.25,7,7,0,0,0-1.15.4l4.81-4.66s3.72-3.59,5.77-5.59A13.71,13.71,0,0,1,326.74,342.21Z" transform="translate(1 -1)"/><path class="cls-4" d="M319.07,338.72l-.79.31c-.74.29-1.4.52-2.41.82-.33.08-1,.29-1.95.65-.53.2-1.28.51-1.88.79s-1.05.53-1.05.53a12.49,12.49,0,0,0-1.17.65c-.64.38-1.34.86-1.74,1.14a5.05,5.05,0,0,0-.62-.61,21,21,0,0,1,1.82-1.17c.65-.41,1.21-.69,1.21-.69l1.08-.54c.63-.3,1.4-.62,2-.83a19.71,19.71,0,0,1,2-.67A10.15,10.15,0,0,1,319.07,338.72Z" transform="translate(1 -1)"/><path class="cls-4" d="M320.54,340.17a2.22,2.22,0,0,1,.19-.27,6,6,0,0,1-.76,2.91c-.1.19-.26.51-.66,1.14a22.32,22.32,0,0,1-4.77,5.26,26.67,26.67,0,0,1-2.71,1.91l-1.23.69s-.41.19-1.09.54-1.67.71-2.79,1.09a13.48,13.48,0,0,0-3.26,1.35,2.16,2.16,0,0,0-1.2,2.22,1.81,1.81,0,0,0,.9,1.22,3.4,3.4,0,0,0,1.46.37,4,4,0,0,0,1.54-.23,2.57,2.57,0,0,1-.83.59,1.82,1.82,0,0,1-.31,0,2.12,2.12,0,0,0-1,.16l.12.16a3.08,3.08,0,0,1-1.46-.35,2.57,2.57,0,0,1-1.31-1.75,2.92,2.92,0,0,1,1.54-3,15.63,15.63,0,0,1,3.51-1.47,23.69,23.69,0,0,0,2.67-1.05l.24-.1.81-.41,1.17-.66a25.39,25.39,0,0,0,2.63-1.83,21.69,21.69,0,0,0,4.58-5.07c.38-.6.53-.91.64-1.09A18.51,18.51,0,0,1,320.54,340.17Z" transform="translate(1 -1)"/><path class="cls-4" d="M354.75,357.3c-.57.21-1,.38-1.54.53s-1,.32-1.68.51a11.45,11.45,0,0,0-1.36.41,22.08,22.08,0,0,0-5.93,3.08,17,17,0,0,0-3,2.74l-.38.47c-.07.09-.18.19-.26.3a19,19,0,0,0-1.34,2,9.92,9.92,0,0,1-1.86,2.62,3.77,3.77,0,0,1-3.41,1,3,3,0,0,1-2-1.23,1.86,1.86,0,0,1-.35-1.33,1.65,1.65,0,0,0,.19.1,1.48,1.48,0,0,0,.26-.84,2.37,2.37,0,0,1,0-.3,2.25,2.25,0,0,1,.68-.55,2.11,2.11,0,0,0-.35,1.28,2.15,2.15,0,0,0,.39,1.23,2.24,2.24,0,0,0,1.38.88,2.81,2.81,0,0,0,2.5-.73A9.72,9.72,0,0,0,338.4,367a22.48,22.48,0,0,1,1.41-2.09c.4-.51.66-.8.66-.8a18.6,18.6,0,0,1,3.14-2.87,23.52,23.52,0,0,1,6.2-3.22c.79-.25,1.18-.37,1.43-.43A9.78,9.78,0,0,1,354.75,357.3Z" transform="translate(1 -1)"/><path class="cls-4" d="M355.82,359.05c0-.07.11-.15.16-.24a6,6,0,0,1-.71,2.92,16.8,16.8,0,0,1-1,1.65c-.26.39-.64.92-1,1.34s-.65.75-.65.75a8.5,8.5,0,0,1-.77.82,17.57,17.57,0,0,1-1.33,1.24l-.21.18c-.18-.19-.39-.38-.62-.59a1.36,1.36,0,0,1,.17-.16c.32-.27.86-.75,1.27-1.17s.76-.8.76-.8.27-.31.59-.71.69-.92.94-1.29a14.37,14.37,0,0,0,.94-1.58A22.62,22.62,0,0,1,355.82,359.05Z" transform="translate(1 -1)"/><path class="cls-4" d="M339.85,353.55a3.07,3.07,0,0,1-.33.79,2.69,2.69,0,0,1-.58.68l-.1-.16a1.54,1.54,0,0,0-.41-.4A3.85,3.85,0,0,0,339.85,353.55Z" transform="translate(1 -1)"/><path class="cls-4" d="M305.17,339.27a8.25,8.25,0,0,1,1.88.52l-1.65.1-1.74.16a8.73,8.73,0,0,0-1.35.25,6.87,6.87,0,0,0-2.75,1.47,4.21,4.21,0,0,0-1.06,1.45,2.59,2.59,0,0,0-.21,1.43,2.63,2.63,0,0,0,1.4,2.05,3,3,0,0,0,1.73.28,4.31,4.31,0,0,0,2.71-1.31,1.7,1.7,0,0,1-.15.5,2.86,2.86,0,0,1-2.42,1.59,4,4,0,0,1-2.38-.38,3.48,3.48,0,0,1-1.83-2.65,3.32,3.32,0,0,1,.26-1.76,5.06,5.06,0,0,1,1.25-1.75,8.07,8.07,0,0,1,3.15-1.67,9.31,9.31,0,0,1,1.53-.28A7.36,7.36,0,0,1,305.17,339.27Z" transform="translate(1 -1)"/><path class="cls-4" d="M337.64,354.15a2.33,2.33,0,0,1,.79.31,5,5,0,0,1-.62.21h0A2.42,2.42,0,0,1,337.64,354.15Z" transform="translate(1 -1)"/><path class="cls-4" d="M337.81,354.67a5,5,0,0,0,.62-.21,1.54,1.54,0,0,1,.41.4l.1.16a3.18,3.18,0,0,1-.63.46.45.45,0,0,1-.12.06,2.07,2.07,0,0,0-.19-.29,1.43,1.43,0,0,1-.23-.57Z" transform="translate(1 -1)"/><path class="cls-4" d="M338.31,355.48a3.18,3.18,0,0,0,.63-.46,5.68,5.68,0,0,1,.62,1.57,4.73,4.73,0,0,1,.09,1.43,5,5,0,0,1-.39,1.39,4.16,4.16,0,0,1-.58,1c-.55.34-1.09.64-1.49.88-.09.06-.2.11-.29.16a2.36,2.36,0,0,1,.56-.94,5.35,5.35,0,0,0,.92-1.37,3.81,3.81,0,0,0,.25-2.4,4.35,4.35,0,0,0-.44-1.19A.45.45,0,0,0,338.31,355.48Z" transform="translate(1 -1)"/><path class="cls-4" d="M331.63,350a8.83,8.83,0,0,1,0,2.81,8.1,8.1,0,0,1-.6,1.89,4.13,4.13,0,0,1-.37.65,5.37,5.37,0,0,1-1,1.17,12.52,12.52,0,0,1-2.11,1.62,12,12,0,0,1-1.54.81,9.7,9.7,0,0,1-1.45.55,5.34,5.34,0,0,1-3,.16,2.51,2.51,0,0,1-1.77-1.71,3.58,3.58,0,0,1-.18-1.21,2.9,2.9,0,0,1,.87-2.31,2.58,2.58,0,0,1,.33.16,2.4,2.4,0,0,0,.71.27,3,3,0,0,0-.44,1.85,2.66,2.66,0,0,0,.12.89,1.23,1.23,0,0,0,.86.87,3.68,3.68,0,0,0,2-.14,9.52,9.52,0,0,0,1.24-.48,10.66,10.66,0,0,0,1.36-.71,12.27,12.27,0,0,0,1.88-1.44,5.87,5.87,0,0,0,.75-.9,3.87,3.87,0,0,0,.31-.58C330.45,352.58,330.87,351.57,331.63,350Z" transform="translate(1 -1)"/><path class="cls-4" d="M305.61,342a6.23,6.23,0,0,1,1.85,1l-.62.45A15.09,15.09,0,0,0,305.61,342Z" transform="translate(1 -1)"/><path class="cls-4" d="M307.46,343a5.05,5.05,0,0,1,.62.61c-.31.21-.53.39-.7.51-.2-.25-.37-.47-.54-.67Z" transform="translate(1 -1)"/><path class="cls-4" d="M308.08,343.61a3.42,3.42,0,0,1,.29.34,7.93,7.93,0,0,1,1,1.67,6.92,6.92,0,0,1,.26.69,6.8,6.8,0,0,1,.23.79,6.07,6.07,0,0,1,.2,1.27,4.43,4.43,0,0,1-.82,2.93c0-1.06,0-1.72-.12-2.88a8.52,8.52,0,0,0-.18-1.17c0-.22-.21-.71-.21-.71l-.25-.63a7.56,7.56,0,0,0-.92-1.54l-.2-.25C307.55,344,307.77,343.82,308.08,343.61Z" transform="translate(1 -1)"/><path class="cls-4" d="M306.84,343.45c.17.2.34.42.54.67l-.4.3a23.47,23.47,0,0,1-2.65,1.87,7.3,7.3,0,0,1,2-2.44Z" transform="translate(1 -1)"/><path class="cls-4" d="M321.84,353.53a5,5,0,0,1,1.36-.36,4.45,4.45,0,0,0-1.33,1.23,1.33,1.33,0,0,0-.49-.44,1,1,0,0,0-.16-.09A4.19,4.19,0,0,1,321.84,353.53Z" transform="translate(1 -1)"/><path class="cls-4" d="M338.68,360.4a3.32,3.32,0,0,1-.5.6,1.89,1.89,0,0,1-1.31.53.32.32,0,0,1,0-.09c.09-.05.2-.1.29-.16C337.59,361,338.13,360.74,338.68,360.4Z" transform="translate(1 -1)"/><path class="cls-4" d="M319.33,353.2a6.83,6.83,0,0,1,1.89.67,3.32,3.32,0,0,0-.47.37,1,1,0,0,0-.22.23,5.32,5.32,0,0,0-1.42-.5,6.53,6.53,0,0,0-3,.1,7.2,7.2,0,0,0-1.75.7,3,3,0,0,1-1.23.4s0,0,0,0c.42-.39.93-.89,1.51-1.45a7,7,0,0,1,1.15-.4,8.48,8.48,0,0,1,1.72-.25A7.76,7.76,0,0,1,319.33,353.2Z" transform="translate(1 -1)"/><path class="cls-4" d="M321.22,353.87a1,1,0,0,1,.16.09,1.33,1.33,0,0,1,.49.44c-.09.12-.17.25-.24.36a.35.35,0,0,0-.06.14,2.4,2.4,0,0,1-.71-.27,2.58,2.58,0,0,0-.33-.16,1,1,0,0,1,.22-.23A3.32,3.32,0,0,1,321.22,353.87Z" transform="translate(1 -1)"/><path class="cls-4" d="M321.63,354.76c.07-.11.15-.24.24-.36a1.39,1.39,0,0,1,.29.64c-.24-.05-.43-.09-.59-.14A.35.35,0,0,1,321.63,354.76Z" transform="translate(1 -1)"/><path class="cls-4" d="M346.83,365.52s.44.16.66.27a11.42,11.42,0,0,1,1.86,1c.14.09.25.19.38.28l-.68.54c-.09-.07-.19-.13-.28-.21a11.24,11.24,0,0,0-1.71-.95c-.22-.11-.61-.26-.61-.26s-.49-.18-.71-.24c-.74-.22-1.12-.29-1.34-.34-1.36-.22-2.12-.36-3.36-.5a6.69,6.69,0,0,1,3.55-.26,9.88,9.88,0,0,1,1.48.36C346.31,365.32,346.83,365.52,346.83,365.52Z" transform="translate(1 -1)"/><path class="cls-4" d="M349.73,367.12c.23.21.44.4.62.59l-.58.45c-.24-.15-.47-.31-.72-.5Z" transform="translate(1 -1)"/><path class="cls-4" d="M353.77,369.53c.07-.33.13-.66.2-1a5.26,5.26,0,0,1,.46,1.63,4,4,0,0,1-.12,1.37,6.71,6.71,0,0,1-.47,1.25,5.78,5.78,0,0,1-2.15,2.28,5.87,5.87,0,0,1-2.06.78,5.46,5.46,0,0,1-2,0,4.34,4.34,0,0,1-2.74-1.63,2.41,2.41,0,0,1-.44-2,2.46,2.46,0,0,1,1.59-1.84,3,3,0,0,1,1-.19A2.67,2.67,0,0,0,346,371a3.33,3.33,0,0,0-.56,1.26,1.78,1.78,0,0,0,.33,1.46,3.45,3.45,0,0,0,2.15,1.27,4.45,4.45,0,0,0,1.57,0,4.93,4.93,0,0,0,3.51-2.59,5.29,5.29,0,0,0,.43-1.11C353.55,370.6,353.66,370.09,353.77,369.53Z" transform="translate(1 -1)"/><path class="cls-4" d="M349.77,368.16l.58-.45a5.13,5.13,0,0,1,1,1.64C350.74,368.89,350.29,368.55,349.77,368.16Z" transform="translate(1 -1)"/><path class="cls-4" d="M349.05,367.66c.25.19.48.35.72.5l-.3.23a8.72,8.72,0,0,1-3.09,1.46,28.59,28.59,0,0,1,2.47-2.05A.69.69,0,0,1,349.05,367.66Z" transform="translate(1 -1)"/><path class="cls-4" d="M313.86,354.13a5.28,5.28,0,0,1,.85-.43c-.58.56-1.09,1.06-1.51,1.45,0,0,0,0,0,0l-.09,0A1.51,1.51,0,0,1,313.86,354.13Z" transform="translate(1 -1)"/><path class="cls-4" d="M334.53,363.4c-.06.09-.1.19-.14.26l-1,.34a8.68,8.68,0,0,1,.72-.67A2.11,2.11,0,0,1,334.53,363.4Z" transform="translate(1 -1)"/><path class="cls-4" d="M334.39,363.66a1.55,1.55,0,0,1-.42.47,3.8,3.8,0,0,0-.94.78,5,5,0,0,0-.53.75,4,4,0,0,0-.31.84,3.07,3.07,0,0,0-.08.81,2.35,2.35,0,0,0-.35.64,1.59,1.59,0,0,0-.08.39.87.87,0,0,1-.5-.64,3.7,3.7,0,0,1,.08-1.35,4.08,4.08,0,0,1,.38-1,4.49,4.49,0,0,1,.63-.9,4.57,4.57,0,0,1,1.15-1,1.06,1.06,0,0,1,.71-.15,8.68,8.68,0,0,0-.72.67Z" transform="translate(1 -1)"/><path class="cls-4" d="M310.48,357.11a.78.78,0,0,1,0,.37c-.27.19-.57.36-.9.55a9,9,0,0,1,.54-.82Z" transform="translate(1 -1)"/><path class="cls-4" d="M310.15,357.21a9,9,0,0,0-.54.82c.33-.19.63-.36.9-.55a.77.77,0,0,1-.26.59A6.67,6.67,0,0,1,309,359a6.42,6.42,0,0,1-1.17.49,6.78,6.78,0,0,1-1.25.26,6.42,6.42,0,0,1-1.67,0,1.09,1.09,0,0,1-.78-.47,5.79,5.79,0,0,0,.6-.07,3.11,3.11,0,0,0,.63-.21,5.77,5.77,0,0,0,1.08,0,6.62,6.62,0,0,0,1.07-.22,6.85,6.85,0,0,0,1-.42,4.7,4.7,0,0,0,1.08-.76A1.39,1.39,0,0,1,310.15,357.21Z" transform="translate(1 -1)"/><path class="cls-4" d="M331.76,368a2.35,2.35,0,0,1,.35-.64,2.37,2.37,0,0,0,0,.3,1.48,1.48,0,0,1-.26.84,1.65,1.65,0,0,1-.19-.1h0A1.59,1.59,0,0,1,331.76,368Z" transform="translate(1 -1)"/><path class="cls-4" d="M305,358.92a1.82,1.82,0,0,0,.31,0,3.11,3.11,0,0,1-.63.21,5.79,5.79,0,0,1-.6.07l-.12-.16A2.12,2.12,0,0,1,305,358.92Z" transform="translate(1 -1)"/></g></svg>