<?xml version="1.0" encoding="UTF-8" standalone="no"?>
<svg xmlns="http://www.w3.org/2000/svg" version="1.2" baseProfile="tiny" viewBox="0.00 0.00 720.00 480.00">
<path fill="#cfc3b4" d="
  M 720.00 0.00
  L 720.00 480.00
  L 0.00 480.00
  L 0.00 0.00
  L 720.00 0.00
  Z"
/>
<path fill="#030303" d="
  M 336.07 365.14
  Q 333.72 365.93 332.36 367.33
  Q 332.01 367.68 331.53 367.82
  Q 325.63 369.44 319.20 369.21
  A 0.64 0.64 0.0 0 0 318.62 370.17
  L 319.55 371.78
  Q 319.89 372.37 319.55 372.96
  C 317.43 376.67 312.03 372.35 309.91 370.67
  Q 303.22 365.40 295.04 363.77
  Q 293.38 363.44 292.34 361.73
  Q 292.07 361.30 292.16 360.80
  C 293.27 354.11 299.02 347.90 304.31 343.56
  Q 317.11 333.07 319.10 331.34
  Q 335.34 317.19 342.09 310.59
  C 344.36 308.37 348.39 304.61 351.39 300.92
  Q 359.42 291.05 364.65 283.96
  Q 369.45 277.44 374.43 272.54
  Q 382.14 264.94 385.46 261.76
  Q 385.54 261.69 393.67 254.41
  C 402.23 246.76 407.72 236.37 413.57 226.82
  Q 415.50 223.68 420.39 217.13
  Q 426.04 209.56 433.08 204.37
  C 437.09 201.42 442.11 199.31 446.66 196.48
  C 452.62 192.77 460.02 190.16 466.61 188.70
  A 2.28 2.26 -79.8 0 0 468.05 187.69
  C 470.66 183.55 473.59 178.60 477.54 175.56
  Q 481.64 172.41 488.56 168.48
  C 493.07 165.93 496.93 165.48 502.84 164.91
  Q 504.79 164.72 506.85 165.44
  A 0.64 0.64 0.0 0 0 507.69 164.91
  C 508.46 157.84 514.98 154.49 521.49 155.73
  Q 527.56 156.89 531.24 162.64
  A 0.51 0.50 -42.1 0 0 532.06 162.68
  C 534.17 160.07 537.92 159.45 540.85 160.72
  C 543.82 162.00 546.63 163.24 546.73 167.02
  A 0.48 0.47 -85.1 0 1 546.17 167.50
  C 544.01 167.09 540.60 165.65 537.99 167.58
  Q 536.96 168.35 537.56 169.48
  Q 539.44 173.05 543.80 173.32
  A 1.88 1.88 0.0 0 0 545.80 171.49
  Q 545.82 170.60 546.25 170.45
  Q 549.77 169.24 548.27 172.82
  C 547.08 175.68 553.17 178.37 555.33 178.67
  C 560.44 179.37 574.70 180.13 575.56 187.13
  C 575.94 190.21 576.23 193.78 573.40 195.59
  Q 566.89 199.73 565.67 200.40
  Q 563.48 201.59 561.87 203.70
  C 557.11 209.94 549.60 215.60 543.47 219.94
  Q 533.30 227.14 520.64 231.29
  Q 516.65 232.60 510.15 232.99
  A 2.34 2.33 9.6 0 0 508.14 234.42
  Q 502.47 248.06 493.77 259.98
  Q 492.08 262.31 487.66 266.98
  C 484.47 270.35 481.64 275.17 477.55 277.34
  Q 473.53 279.47 471.30 283.08
  C 468.63 287.40 468.61 293.32 465.20 297.21
  C 464.38 298.16 463.70 298.37 462.54 298.40
  A 2.40 2.40 0.0 0 1 460.32 294.99
  L 464.39 286.29
  A 0.99 0.99 0.0 0 0 463.29 284.91
  C 459.46 285.72 456.21 289.49 451.90 293.29
  A 3.87 3.86 -60.4 0 1 448.62 294.20
  L 448.12 294.11
  Q 446.09 293.74 447.46 292.19
  C 450.74 288.46 454.44 286.57 457.74 283.99
  Q 459.17 282.86 459.66 282.05
  Q 460.64 280.44 458.76 280.28
  Q 454.66 279.94 450.14 280.73
  C 448.39 281.03 447.01 280.79 445.51 280.03
  A 0.80 0.80 0.0 0 1 445.39 278.68
  Q 446.99 277.48 449.30 276.66
  C 453.07 275.32 458.62 276.48 461.20 272.57
  Q 461.66 271.89 460.86 272.06
  Q 452.47 273.90 444.97 276.25
  Q 441.83 277.23 438.38 279.95
  Q 430.33 286.30 426.24 290.18
  C 421.27 294.90 414.52 298.91 409.81 303.00
  C 404.21 307.85 399.08 312.40 392.98 316.19
  C 387.05 319.86 383.41 322.05 379.28 326.28
  Q 370.51 335.26 361.60 345.27
  C 358.22 349.06 356.21 352.48 354.30 356.81
  C 352.54 360.81 353.83 362.53 357.31 364.85
  Q 360.36 366.87 364.73 369.81
  Q 366.18 370.78 366.69 371.49
  A 1.13 1.09 34.7 0 1 366.87 372.40
  C 366.46 374.14 364.98 374.96 363.20 374.31
  Q 360.15 373.18 358.63 372.38
  Q 356.67 371.34 355.81 372.85
  A 1.06 1.05 -78.9 0 1 355.03 373.38
  Q 353.67 373.56 351.85 372.84
  A 1.12 1.10 41.6 0 0 350.90 372.89
  Q 348.35 374.24 345.76 372.15
  Q 343.76 370.53 338.03 366.94
  C 337.47 366.59 337.08 366.04 336.82 365.47
  Q 336.60 364.96 336.07 365.14
  Z"
/>
<path fill="#cfc3b4" d="
  M 504.03 235.50
  Q 501.95 238.79 493.15 247.90
  Q 483.64 257.75 475.92 261.87
  C 470.21 264.92 465.34 270.11 458.80 271.47
  Q 451.41 273.00 444.29 275.31
  Q 441.62 276.18 438.70 278.46
  C 434.26 281.94 430.62 284.31 427.31 287.78
  Q 423.16 292.14 416.40 296.60
  C 411.28 299.98 405.17 305.51 401.33 308.91
  C 396.26 313.41 390.57 316.61 385.05 319.79
  Q 382.41 321.31 375.49 328.74
  Q 371.54 332.99 362.46 342.81
  C 357.93 347.72 354.85 352.48 352.81 358.07
  C 351.61 361.34 353.63 363.63 356.38 365.54
  Q 359.40 367.64 365.45 371.59
  A 0.87 0.86 -56.7 0 1 365.69 372.78
  Q 365.57 372.97 365.47 373.04
  A 2.18 1.81 -47.2 0 1 363.51 373.30
  Q 359.17 371.36 358.36 371.17
  Q 356.40 370.70 354.48 369.06
  Q 352.09 367.02 348.65 365.86
  Q 348.29 365.74 348.34 366.11
  L 348.38 366.39
  Q 348.38 366.44 348.54 366.55
  L 355.00 370.76
  Q 356.08 371.46 354.79 371.95
  L 354.41 372.09
  A 2.07 2.07 0.0 0 1 352.43 371.80
  L 344.59 365.87
  A 0.30 0.30 0.0 0 0 344.13 365.98
  L 343.96 366.35
  A 0.34 0.34 0.0 0 0 344.06 366.77
  L 350.24 371.45
  Q 350.78 371.86 350.13 372.04
  Q 348.33 372.51 347.83 372.18
  Q 338.66 366.16 337.44 365.28
  Q 337.03 364.99 336.98 364.49
  Q 336.75 362.00 336.07 361.01
  A 2.40 2.15 -38.4 0 1 336.58 358.03
  C 343.64 351.76 350.93 342.46 355.17 337.59
  Q 360.19 331.84 366.74 325.30
  Q 375.37 316.69 380.01 310.75
  C 383.00 306.92 387.11 305.18 390.30 301.97
  C 393.49 298.74 395.75 294.54 398.23 290.75
  C 399.79 288.37 401.48 286.50 403.32 284.78
  Q 404.37 283.78 405.26 282.32
  Q 406.47 280.30 409.21 277.25
  Q 409.51 276.91 409.32 276.66
  Q 409.08 276.35 408.73 276.54
  C 404.77 278.77 398.23 282.99 391.66 286.44
  C 384.51 290.20 378.67 294.40 373.06 299.01
  Q 364.36 306.17 363.98 306.47
  Q 359.35 310.10 354.71 313.71
  C 350.19 317.23 344.13 321.25 338.83 325.83
  Q 321.07 341.14 307.46 357.48
  A 0.79 0.79 0.0 0 0 307.84 358.74
  C 316.22 361.21 323.47 363.27 331.99 361.55
  Q 334.67 361.01 335.59 362.78
  A 1.32 1.32 0.0 0 1 334.33 364.71
  C 332.83 364.61 331.72 364.09 329.95 364.19
  Q 322.58 364.57 315.19 364.71
  Q 314.76 364.71 314.76 365.14
  L 314.76 365.46
  Q 314.76 365.76 315.06 365.75
  L 331.63 365.37
  A 0.51 0.51 0.0 0 1 332.04 366.19
  L 331.64 366.72
  Q 331.13 367.40 330.28 367.42
  L 315.49 367.86
  Q 314.37 367.89 315.26 368.57
  L 317.38 370.17
  A 2.49 2.48 -73.4 0 1 318.35 371.97
  Q 318.39 372.53 318.31 372.69
  A 1.55 1.52 -64.0 0 1 316.30 373.41
  C 312.33 371.55 308.10 367.87 304.96 366.20
  Q 300.06 363.60 294.91 362.56
  A 2.10 2.10 0.0 0 1 293.24 360.21
  Q 293.31 359.72 293.53 359.11
  C 296.27 351.51 302.60 345.78 308.91 341.12
  Q 314.53 336.96 319.88 332.13
  Q 336.42 317.19 343.35 310.85
  Q 349.16 305.52 353.63 299.89
  Q 360.53 291.21 364.82 285.28
  Q 369.14 279.30 375.52 272.96
  Q 387.68 260.86 396.91 252.66
  Q 398.22 251.49 401.85 247.07
  Q 404.16 244.25 406.11 240.99
  C 413.46 228.70 418.72 219.91 427.07 211.07
  C 433.72 204.04 440.42 201.12 451.24 195.22
  Q 458.29 191.38 466.14 190.06
  C 467.43 189.85 468.30 189.18 468.93 188.16
  Q 473.81 180.32 475.41 178.90
  Q 484.54 170.81 493.12 167.66
  Q 499.39 165.35 508.19 166.80
  Q 508.65 166.88 508.67 166.41
  Q 509.13 156.71 519.09 156.75
  Q 523.27 156.77 527.55 159.92
  C 529.10 161.05 529.69 162.80 530.60 165.03
  A 0.64 0.63 48.5 0 0 531.74 165.10
  Q 534.79 159.65 540.78 161.99
  C 542.46 162.65 545.28 163.92 545.41 165.88
  A 0.53 0.53 0.0 0 1 544.63 166.38
  Q 541.19 164.50 538.02 166.14
  C 535.82 167.28 535.70 169.10 537.23 170.98
  Q 541.26 175.95 546.61 173.57
  Q 547.21 173.30 547.35 173.90
  L 547.60 174.97
  A 1.72 1.64 -73.8 0 0 547.99 175.72
  Q 551.23 179.33 556.04 179.87
  Q 563.99 180.77 568.87 182.24
  Q 575.95 184.37 574.82 192.00
  Q 574.61 193.45 572.56 194.77
  Q 565.81 199.11 564.90 199.67
  A 0.60 0.60 0.0 0 1 564.00 199.09
  C 564.18 197.52 563.96 196.22 563.07 194.96
  Q 558.98 189.17 551.50 189.15
  Q 533.13 189.10 525.75 188.83
  C 518.93 188.57 512.99 186.41 505.90 184.07
  Q 501.45 182.60 497.83 179.64
  Q 497.61 179.45 497.61 179.74
  L 497.61 180.36
  Q 497.61 180.60 497.79 180.76
  Q 500.46 183.24 503.62 184.38
  Q 506.67 185.48 516.26 188.51
  C 520.38 189.81 526.69 190.13 531.92 190.17
  Q 546.52 190.28 551.50 190.26
  C 557.91 190.23 566.39 195.27 561.48 202.74
  Q 560.74 203.87 555.74 208.83
  C 551.93 212.61 548.11 215.08 542.40 219.36
  C 536.00 224.16 529.58 226.64 521.82 229.80
  C 517.70 231.48 512.61 231.72 509.41 231.92
  A 2.25 2.25 0.0 0 0 507.47 233.32
  C 502.70 245.03 496.29 256.27 487.68 265.37
  Q 484.87 268.34 481.60 272.15
  C 479.06 275.11 476.21 277.06 472.96 279.20
  C 471.48 280.18 469.21 283.85 468.56 286.20
  C 467.75 289.10 466.00 297.63 462.30 297.34
  A 1.31 1.31 0.0 0 1 461.22 295.48
  L 465.49 286.35
  A 1.86 1.85 12.4 0 0 463.80 283.71
  C 460.15 283.74 455.75 288.47 451.06 292.69
  A 2.39 2.34 -65.5 0 1 449.48 293.30
  L 448.73 293.30
  A 0.45 0.44 22.4 0 1 448.41 292.54
  Q 451.93 289.01 457.43 285.59
  C 458.71 284.78 460.23 283.27 460.88 281.82
  A 1.87 1.87 0.0 0 0 459.34 279.19
  Q 454.29 278.75 448.13 279.94
  Q 447.82 279.99 447.12 279.48
  Q 446.65 279.14 447.15 278.84
  Q 449.85 277.23 454.27 277.09
  Q 456.39 277.03 459.74 275.29
  C 461.90 274.16 462.72 271.63 464.65 270.52
  C 468.62 268.26 471.56 265.44 475.70 263.16
  C 485.86 257.59 493.83 249.01 501.58 240.32
  Q 502.55 239.23 504.19 236.70
  Q 504.58 236.09 504.52 235.61
  Q 504.43 234.88 504.03 235.50
  Z"
/>
<path fill="#030303" d="
  M 524.04 169.35
  L 524.16 167.43
  Q 524.20 166.87 524.65 166.55
  Q 526.04 165.55 527.25 167.73
  A 1.76 1.76 0.0 0 1 526.70 170.04
  Q 520.85 173.98 516.58 169.65
  C 514.11 167.13 512.55 165.31 514.99 161.98
  Q 517.74 158.23 522.21 159.85
  C 524.33 160.63 527.85 162.73 528.28 165.19
  Q 528.35 165.58 528.18 165.80
  Q 528.08 165.92 527.94 166.01
  A 0.37 0.37 0.0 0 1 527.39 165.82
  Q 526.59 163.56 523.67 161.81
  Q 518.13 158.47 514.99 164.06
  Q 514.40 165.12 515.93 167.35
  C 517.54 169.70 520.62 172.04 523.60 170.10
  Q 524.00 169.84 524.04 169.35
  Z"
/>
<path fill="#030303" d="
  M 422.02 261.41
  A 0.74 0.70 51.4 0 0 421.46 261.33
  Q 416.11 262.82 408.76 264.01
  Q 406.97 264.30 406.36 263.34
  A 1.82 1.82 0.0 0 1 407.29 260.65
  Q 415.54 257.74 421.96 251.18
  Q 424.09 249.01 424.47 247.23
  Q 426.18 239.07 427.18 234.65
  C 430.74 218.76 442.85 205.37 456.56 197.06
  Q 458.97 195.60 461.21 194.78
  Q 461.42 194.71 461.41 194.93
  L 461.38 195.33
  Q 461.36 195.60 461.13 195.72
  C 446.50 203.43 433.16 216.60 428.70 233.00
  Q 427.58 237.11 426.31 243.80
  C 425.25 249.30 423.97 251.15 419.82 254.56
  Q 413.79 259.51 408.00 261.39
  A 0.91 0.91 0.0 0 0 407.37 262.20
  L 407.34 262.57
  Q 407.30 263.16 407.89 263.05
  Q 413.77 261.93 420.03 260.58
  Q 421.72 260.22 423.70 260.44
  A 0.62 0.62 0.0 0 1 424.11 261.45
  C 423.46 262.24 422.72 263.41 422.01 263.92
  Q 416.90 267.64 412.94 271.13
  A 2.31 1.80 -45.6 0 0 412.58 274.30
  L 412.63 274.37
  Q 413.66 275.87 415.13 274.68
  Q 418.32 272.10 421.49 269.17
  C 423.16 267.63 424.34 265.55 425.85 263.88
  A 1.43 1.38 68.6 0 1 428.26 264.98
  L 427.61 274.83
  Q 427.50 276.51 428.98 276.49
  Q 429.01 276.49 429.08 276.49
  Q 430.89 276.55 431.20 274.69
  C 433.54 260.80 435.25 250.07 439.72 238.99
  C 441.03 235.76 443.67 232.55 446.42 229.94
  Q 453.66 223.07 459.20 218.70
  Q 462.08 216.42 466.80 214.42
  Q 467.05 214.31 467.19 214.55
  L 467.34 214.81
  Q 467.46 215.02 467.24 215.12
  C 459.00 218.89 454.91 223.64 446.02 231.77
  Q 442.62 234.88 439.76 241.97
  Q 436.82 249.26 434.94 259.69
  Q 433.23 269.27 432.12 275.03
  Q 431.60 277.76 428.90 277.39
  Q 428.86 277.38 428.79 277.38
  Q 426.17 277.08 426.44 274.38
  L 427.22 266.38
  Q 427.51 263.35 425.75 265.76
  Q 421.77 271.17 415.64 275.62
  Q 413.18 277.40 411.77 274.66
  Q 411.73 274.56 411.71 274.54
  Q 410.29 271.86 412.74 269.83
  Q 417.92 265.52 422.04 262.53
  Q 422.89 261.92 422.02 261.41
  Z"
/>
<path fill="#cfc3b4" d="
  M 308.99 357.64
  Q 312.24 352.86 316.72 348.21
  Q 327.03 337.52 341.71 324.60
  Q 344.32 322.31 348.14 319.82
  C 354.25 315.83 359.08 311.54 363.80 307.87
  C 369.13 303.74 373.65 299.73 380.03 294.75
  Q 384.57 291.21 391.88 287.40
  Q 397.48 284.48 404.04 280.48
  Q 405.21 279.76 405.00 281.14
  Q 404.97 281.39 404.31 282.06
  Q 397.25 289.25 392.89 297.35
  Q 391.88 299.23 387.85 302.59
  C 384.62 305.29 381.64 307.29 378.69 310.78
  C 371.88 318.83 365.76 324.72 358.44 332.96
  Q 355.73 336.01 335.88 357.45
  C 335.02 358.38 334.92 358.91 334.75 359.97
  Q 334.67 360.53 334.11 360.43
  C 331.93 360.02 328.83 361.16 326.67 361.16
  Q 318.21 361.16 309.08 357.92
  Q 308.85 357.84 308.99 357.64
  Z"
/>
</svg>
