<?xml version="1.0" encoding="UTF-8" standalone="no"?>
<svg xmlns="http://www.w3.org/2000/svg" version="1.2" baseProfile="tiny" viewBox="0.00 0.00 720.00 480.00">
<path fill="#cfc3b4" d="
  M 720.00 0.00
  L 720.00 480.00
  L 0.00 480.00
  L 0.00 0.00
  L 720.00 0.00
  Z"
/>
<path stroke="#313130" stroke-width="2.00" fill="none" stroke-linecap="butt" vector-effect="non-scaling-stroke" d="
  M 269.65 199.06
  Q 269.57 198.68 269.77 198.53
  Q 270.07 198.32 270.52 198.39"
/>
<path fill="#111111" d="
  M 269.65 199.06
  Q 269.57 198.68 269.77 198.53
  Q 270.07 198.32 270.52 198.39
  C 273.40 199.88 277.88 201.64 277.66 205.55
  Q 277.63 206.07 277.17 206.30
  C 275.50 207.17 274.44 206.90 272.77 205.90
  Q 271.69 205.25 271.22 205.36
  Q 270.55 205.52 270.99 206.04
  Q 273.24 208.70 271.98 212.73
  A 1.32 1.32 0.0 0 1 269.85 213.34
  Q 269.02 212.62 268.57 211.67
  C 267.35 209.08 265.38 205.03 263.17 203.99
  A 0.67 0.67 0.0 0 0 262.23 204.75
  Q 263.47 210.14 262.78 214.31
  A 1.87 1.84 -89.7 0 1 261.25 215.85
  L 260.75 215.93
  A 2.02 1.57 83.4 0 1 258.90 214.04
  Q 258.10 204.99 254.64 201.39
  Q 254.08 200.80 249.28 197.64
  C 245.44 195.11 240.45 193.99 236.29 192.37
  Q 235.95 192.23 229.17 189.79
  Q 219.64 186.34 211.46 180.21
  Q 204.11 174.69 199.66 166.98
  Q 198.75 165.41 196.94 165.42
  C 194.74 165.43 191.95 164.44 190.26 162.98
  C 188.64 161.57 186.60 160.37 184.97 158.72
  Q 179.60 153.30 177.63 151.32
  C 175.52 149.20 172.87 145.99 171.84 143.60
  Q 169.80 138.87 167.74 133.78
  Q 167.59 133.41 166.53 132.63
  Q 156.64 125.37 145.10 120.56
  Q 127.63 113.26 110.33 107.76
  Q 102.36 105.23 74.86 99.04
  C 69.07 97.73 60.87 94.90 54.55 94.43
  Q 48.69 93.99 37.94 93.23
  Q 35.42 93.06 33.71 93.94
  C 28.69 96.54 26.73 97.89 21.67 98.31
  Q 21.17 98.35 20.97 97.88
  L 20.22 96.07
  A 0.96 0.96 0.0 0 1 20.74 94.81
  L 30.09 90.92
  Q 30.61 90.71 30.65 90.15
  Q 30.73 89.07 30.00 89.19
  Q 22.09 90.47 13.09 88.53
  A 1.54 1.54 0.0 0 1 12.37 85.89
  C 12.97 85.33 14.01 84.71 14.96 84.63
  Q 21.67 84.09 22.75 84.13
  Q 29.27 84.37 30.29 84.19
  Q 31.01 84.06 30.37 83.70
  Q 27.34 81.98 23.77 80.72
  Q 21.19 79.82 19.21 77.82
  A 0.76 0.76 0.0 0 1 19.25 76.72
  C 20.80 75.34 22.40 75.39 24.43 76.09
  Q 37.68 80.63 49.41 85.13
  C 63.06 90.37 74.72 90.54 92.44 91.25
  Q 92.96 91.27 92.67 90.84
  C 90.77 88.01 86.26 86.15 82.91 84.68
  Q 79.89 83.36 74.93 82.95
  Q 67.37 82.32 60.26 82.23
  Q 58.72 82.21 57.53 81.82
  A 1.21 1.21 0.0 0 1 57.30 79.62
  C 60.50 77.78 62.66 77.97 66.91 77.94
  Q 69.29 77.92 67.22 76.76
  Q 66.92 76.59 65.50 76.37
  Q 61.99 75.82 58.56 74.97
  C 56.01 74.33 54.28 74.23 53.97 71.60
  A 1.66 1.66 0.0 0 1 55.45 69.75
  C 57.80 69.50 60.18 69.63 62.45 70.54
  Q 66.60 72.20 68.68 72.82
  Q 70.45 73.36 69.36 71.86
  C 67.78 69.66 64.99 68.59 63.31 67.10
  Q 62.08 66.00 63.49 64.68
  Q 63.50 64.67 63.74 64.55
  A 2.98 2.97 50.6 0 1 66.94 64.87
  Q 73.69 70.20 82.26 76.99
  Q 85.29 79.38 90.47 81.06
  Q 94.35 82.32 105.51 84.19
  Q 113.12 85.46 119.47 86.52
  Q 127.11 87.79 133.51 88.53
  Q 150.26 90.46 160.26 91.32
  C 166.17 91.83 173.03 91.96 180.27 91.54
  C 195.50 90.66 211.78 90.44 226.17 97.57
  C 231.51 100.22 238.75 102.22 243.17 109.07
  Q 243.21 109.13 243.17 109.19
  L 242.98 109.47
  A 0.21 0.20 -48.2 0 1 242.66 109.49
  Q 237.61 103.95 235.16 102.81
  Q 234.54 102.52 225.85 98.43
  C 210.88 91.38 193.70 91.83 176.71 92.85
  C 164.05 93.61 150.56 91.17 138.63 90.16
  Q 129.78 89.42 118.78 87.56
  Q 116.77 87.23 96.90 83.77
  Q 89.82 82.54 84.15 79.40
  Q 81.32 77.83 75.05 72.67
  Q 68.38 67.19 65.76 65.38
  Q 65.49 65.19 64.27 65.31
  Q 64.07 65.33 64.09 65.56
  A 1.24 0.11 85.1 0 0 64.29 66.71
  Q 71.73 71.53 71.22 73.52
  A 1.20 1.20 0.0 0 1 69.62 74.33
  C 64.45 72.34 60.69 70.48 55.82 70.82
  Q 55.29 70.85 55.11 71.35
  Q 54.84 72.08 55.54 72.72
  Q 56.11 73.24 58.47 73.75
  Q 58.69 73.80 65.89 75.24
  Q 68.32 75.73 69.68 77.19
  A 1.12 1.12 0.0 0 1 68.90 79.08
  C 64.73 79.20 61.05 78.58 58.75 80.02
  Q 57.19 81.01 59.03 81.10
  Q 60.21 81.16 73.55 81.71
  C 79.95 81.97 83.75 83.96 89.30 86.60
  C 90.97 87.39 92.13 88.56 93.62 89.99
  C 94.83 91.16 96.51 91.57 97.97 91.64
  C 110.78 92.22 123.35 94.08 135.46 98.12
  A 0.25 0.25 0.0 0 1 135.61 98.27
  L 135.89 98.93
  Q 136.12 99.48 135.55 99.30
  Q 125.85 96.16 120.30 95.22
  Q 114.08 94.16 99.05 92.66
  Q 95.32 92.28 84.47 92.11
  Q 66.54 91.81 50.36 86.82
  C 46.53 85.64 43.28 84.11 38.79 82.25
  C 33.92 80.22 28.52 78.88 23.57 76.71
  Q 22.48 76.23 21.52 76.58
  L 20.87 76.81
  Q 19.70 77.22 20.71 77.81
  Q 23.52 79.45 30.58 82.67
  Q 31.92 83.28 32.18 84.45
  Q 32.29 84.97 31.77 85.07
  Q 29.00 85.57 28.49 85.53
  Q 21.42 84.83 14.78 85.85
  Q 13.92 85.98 13.49 86.62
  A 0.69 0.69 0.0 0 0 13.95 87.68
  Q 22.38 89.13 30.58 88.34
  A 1.42 1.41 10.3 0 1 31.99 90.36
  Q 31.44 91.47 29.56 92.33
  Q 25.66 94.10 21.86 95.42
  Q 21.34 95.60 21.55 96.11
  L 21.86 96.85
  A 0.66 0.66 0.0 0 0 22.57 97.25
  Q 27.09 96.53 28.54 95.56
  C 31.23 93.76 34.32 91.58 37.72 91.86
  C 44.26 92.41 50.05 92.42 56.09 93.47
  C 64.07 94.85 69.26 96.64 76.54 98.23
  Q 91.94 101.59 109.14 106.31
  C 114.84 107.87 119.79 109.87 126.24 112.13
  Q 140.61 117.16 154.77 123.85
  C 158.49 125.60 162.30 128.87 165.99 130.49
  Q 166.81 130.85 166.93 130.44
  Q 167.30 129.08 167.72 130.48
  C 170.15 138.63 173.61 145.85 179.79 151.88
  C 186.16 158.10 189.92 162.71 197.05 164.52
  A 0.66 0.66 0.0 0 0 197.79 163.57
  Q 196.40 160.99 193.13 154.66
  Q 191.85 152.19 192.12 149.75
  Q 192.23 148.74 192.58 149.69
  C 194.98 156.23 198.60 164.08 202.92 170.25
  Q 204.81 172.94 208.51 176.10
  Q 213.46 180.32 219.87 184.26
  C 224.56 187.15 231.25 188.63 236.00 190.92
  Q 238.62 192.18 243.66 193.80
  Q 250.46 195.98 254.58 200.20
  Q 259.85 205.60 259.88 213.74
  A 1.20 0.82 21.5 0 0 260.46 214.59
  L 260.70 214.74
  A 0.62 0.60 -71.3 0 0 261.62 214.27
  Q 262.21 209.43 260.97 204.92
  Q 260.88 204.59 260.95 204.12
  Q 261.03 203.62 261.20 203.36
  Q 261.93 202.22 263.17 202.75
  C 266.84 204.31 268.25 208.60 269.88 212.00
  A 0.56 0.56 0.0 0 0 270.78 212.15
  L 271.06 211.87
  Q 271.85 211.09 271.51 210.03
  Q 269.58 204.02 264.66 200.22
  A 0.25 0.25 0.0 0 1 264.72 199.79
  L 265.02 199.66
  A 0.51 0.50 -38.5 0 1 265.49 199.71
  L 275.06 206.23
  A 1.52 0.61 -65.4 0 0 276.32 205.03
  Q 276.36 204.92 276.28 204.28
  Q 276.15 203.20 275.23 202.61
  L 269.65 199.06
  Z"
/>
<path fill="#50504f" d="
  M 270.52 198.39
  Q 270.07 198.32 269.77 198.53
  Q 269.57 198.68 269.65 199.06
  C 265.48 196.20 261.91 192.68 257.04 190.86
  C 251.31 188.71 246.36 186.06 238.23 182.02
  Q 232.90 179.37 230.76 174.98
  Q 230.43 174.32 230.98 173.86
  Q 231.44 173.48 231.50 174.07
  Q 231.74 176.16 233.25 176.21
  Q 249.27 176.79 268.16 175.03
  Q 270.95 174.77 273.83 173.33
  C 277.61 171.45 280.49 170.32 282.76 168.09
  Q 286.37 164.56 289.07 158.13
  Q 289.97 155.98 287.94 154.88
  Q 279.22 150.17 270.95 150.58
  C 263.35 150.96 256.07 150.76 248.51 149.95
  C 244.61 149.54 240.95 148.76 236.80 147.04
  Q 233.59 145.71 229.28 144.24
  Q 227.13 143.51 225.39 140.26
  Q 225.31 140.12 225.46 140.06
  L 225.70 139.96
  A 0.42 0.41 58.3 0 1 226.18 140.08
  Q 227.90 142.21 230.29 143.29
  Q 241.84 148.54 254.77 148.98
  Q 263.18 149.27 274.04 148.85
  C 279.48 148.64 285.79 152.06 290.20 154.34
  C 292.89 155.73 290.26 159.38 289.21 161.07
  Q 288.33 162.47 289.91 161.98
  C 294.15 160.65 297.03 159.78 298.44 154.99
  C 299.37 151.84 299.77 145.74 296.91 143.10
  Q 288.94 135.75 284.58 133.11
  Q 276.04 127.95 275.81 127.80
  A 0.97 0.87 29.7 0 0 274.46 128.09
  Q 273.64 129.77 272.43 130.96
  Q 272.05 131.33 271.53 131.33
  C 267.40 131.34 264.94 131.43 262.91 127.84
  Q 261.63 125.59 262.50 122.72
  C 263.57 119.18 268.23 118.88 271.36 119.66
  A 0.77 0.74 -15.0 0 1 271.72 119.86
  L 273.56 121.70
  A 0.51 0.50 31.4 0 0 274.40 121.50
  C 275.55 117.94 272.92 115.02 269.48 114.64
  C 266.51 114.31 262.91 116.47 259.71 118.18
  A 2.27 2.26 61.5 0 1 256.66 117.27
  Q 253.55 111.60 247.03 110.89
  Q 243.05 110.46 240.39 112.73
  Q 237.26 115.40 236.73 119.63
  Q 236.67 120.10 236.28 119.83
  L 235.88 119.56
  A 0.54 0.53 -67.1 0 1 235.66 119.00
  Q 236.65 114.27 240.10 111.59
  Q 243.42 109.01 247.89 109.76
  Q 254.18 110.80 257.58 116.63
  Q 258.25 117.77 259.36 117.04
  C 262.46 115.00 265.53 112.75 269.81 113.16
  C 275.15 113.68 277.25 118.70 275.03 123.47
  A 1.65 1.64 -55.5 0 0 275.37 125.34
  C 276.65 126.60 278.09 127.84 279.76 128.76
  Q 289.19 133.92 296.86 141.14
  Q 299.73 143.84 300.28 146.32
  Q 301.13 150.17 300.16 154.52
  C 298.95 159.94 294.46 162.57 289.30 164.16
  A 0.96 0.95 71.7 0 0 288.68 165.40
  C 290.21 169.60 293.00 174.03 293.92 178.95
  Q 295.90 189.60 296.09 195.21
  Q 296.19 198.18 297.31 199.65
  C 299.67 202.72 302.24 204.30 302.87 208.20
  A 1.70 1.70 0.0 0 1 300.43 209.99
  Q 297.56 208.55 295.34 205.64
  Q 294.71 204.82 294.77 205.86
  C 295.00 209.37 295.53 211.34 293.96 213.57
  A 1.04 1.03 -54.7 0 1 292.52 213.82
  C 289.57 211.74 290.22 208.99 289.95 204.53
  Q 289.88 203.43 289.62 203.08
  Q 288.79 202.00 288.23 203.25
  C 287.06 205.84 286.05 208.93 283.62 210.49
  Q 283.16 210.79 282.77 210.40
  L 280.97 208.61
  Q 280.57 208.21 280.70 207.65
  Q 281.73 203.32 282.06 202.81
  Q 284.33 199.33 284.72 195.08
  Q 285.01 191.89 283.09 187.91
  C 280.84 183.25 277.47 174.48 271.25 175.75
  Q 261.90 177.67 253.75 177.67
  Q 244.97 177.67 239.16 177.87
  Q 238.51 177.89 237.87 177.72
  Q 236.80 177.44 236.58 177.50
  Q 234.09 178.12 236.52 179.38
  Q 241.93 182.19 247.50 185.01
  C 251.22 186.89 255.89 188.70 259.89 190.61
  C 263.82 192.50 266.75 195.91 270.52 198.39
  Z"
/>
<path fill="#111111" d="
  M 254.6678 121.6395
  A 6.56 5.96 -3.5 0 1 248.4838 127.9889
  A 6.56 5.96 -3.5 0 1 241.5722 122.4405
  A 6.56 5.96 -3.5 0 1 247.7562 116.0911
  A 6.56 5.96 -3.5 0 1 254.6678 121.6395
  Z"
/>
<path fill="#cfc3b4" d="
  M 248.26 123.68
  Q 247.13 124.53 246.96 125.69
  A 1.11 1.11 0.0 0 1 245.25 126.46
  Q 241.91 124.26 242.96 120.50
  C 244.55 114.80 256.78 117.15 252.53 124.64
  Q 251.71 126.09 250.78 124.71
  Q 250.51 124.32 249.20 123.61
  Q 248.71 123.35 248.26 123.68
  Z"
/>
<path fill="#cfc3b4" d="
  M 266.52 126.13
  Q 265.20 126.89 265.17 127.03
  Q 264.59 129.15 263.75 127.08
  C 263.25 125.86 263.30 123.35 264.43 122.17
  C 266.89 119.60 271.62 119.84 272.94 123.59
  Q 274.45 127.85 271.00 129.74
  Q 269.73 130.43 268.26 129.27
  Q 267.85 128.94 267.97 128.43
  Q 268.28 127.03 267.44 126.24
  Q 267.02 125.84 266.52 126.13
  Z"
/>
<ellipse fill="#50504f" cx="0.00" cy="0.00" transform="translate(223.28,165.11) rotate(81.3)" rx="1.75" ry="0.33"/>
<path fill="#cfc3b4" d="
  M 293.31 200.39
  Q 293.23 200.12 292.96 200.23
  L 292.46 200.44
  Q 292.26 200.52 292.31 200.72
  Q 293.49 205.42 293.63 210.00
  Q 293.67 211.32 293.64 211.39
  Q 292.63 214.15 291.76 211.30
  C 290.97 208.71 292.13 203.32 289.51 201.28
  Q 289.05 200.93 288.61 201.30
  Q 286.71 202.90 286.47 203.73
  Q 285.89 205.73 284.18 208.65
  A 1.17 1.17 0.0 0 1 282.03 208.34
  C 281.46 206.06 283.88 202.06 285.46 198.71
  Q 286.40 196.72 286.22 193.30
  Q 286.11 190.91 284.82 188.20
  C 282.30 182.92 280.18 178.09 275.55 174.67
  A 0.39 0.39 0.0 0 1 275.67 173.99
  Q 281.77 172.01 285.90 166.55
  A 0.97 0.96 -35.5 0 1 287.59 166.83
  C 288.97 171.08 291.45 174.72 292.38 179.58
  C 293.73 186.60 295.20 192.08 294.68 198.03
  Q 294.64 198.53 294.98 198.90
  C 297.52 201.69 301.82 205.69 301.65 208.11
  Q 301.52 209.98 300.18 208.67
  C 297.58 206.15 294.50 204.16 293.31 200.39
  Z"
/>
</svg>
