<svg id="Layer_1" data-name="Layer 1" xmlns="http://www.w3.org/2000/svg" viewBox="0 0 720 480"><defs><style>.cls-1{fill:#cfc3b4;}.cls-2{fill:#3c3c3c;}.cls-3{fill:#202020;}.cls-4{fill:#fff;}</style></defs><title>2</title><g id="_2" data-name="2"><path class="cls-1" d="M719,1V481H-1V1Z" transform="translate(1 -1)"/><g id="_Group_" data-name="&lt;Group&gt;"><path class="cls-2" d="M382.3,287.7c-.2,0-.4.1-.5,0s-.4-.1-.5-.2a3.3,3.3,0,0,0-1.4,0h-.4c-.4-.1-.9-.2-1.6-.4a43.43,43.43,0,0,1-4.7-1.6,24.37,24.37,0,0,1-2.8-1.4,23.69,23.69,0,0,1-3-2.1,21.57,21.57,0,0,1-3.8-4.2,5.69,5.69,0,0,1-.7-1.2,7.1,7.1,0,0,1-.8-1.8c-.2-.6-.3-1.1-.5-1.7.7,1.1,1.2,1.8,1.9,3a5.83,5.83,0,0,0,.7,1.1,17.19,17.19,0,0,0,3.6,4,21.72,21.72,0,0,0,2.9,2c1,.6,1.6.8,2.7,1.4s3.4,1.2,4.6,1.6c.7.2,1.3.3,1.6.4A16.87,16.87,0,0,1,382.3,287.7Z" transform="translate(1 -1)"/><path class="cls-2" d="M381.3,287.5a1.69,1.69,0,0,1,.5.2,6.08,6.08,0,0,1-1.9-.1h.1A1.9,1.9,0,0,1,381.3,287.5Z" transform="translate(1 -1)"/><path class="cls-2" d="M362.1,274.8c.2.6.2.7.4,1.2a11,11,0,0,1-2-3.1,19.37,19.37,0,0,1-.8-2.1,54.42,54.42,0,0,1-2.2-9.7c-.3-2.8-.5-6.3-.7-8.4s-.1-2.1-.3-3.7a16.66,16.66,0,0,0-.7-3.5,29.72,29.72,0,0,0-2.6-6.7,87.23,87.23,0,0,0-5.1-7.3c-.8-1-1.7-2.2-2.2-2.8a21,21,0,0,1-1.9-3v-.1a14.45,14.45,0,0,1,2.4,2.5c.5.6,1.4,1.8,2.2,2.8,1.5,2,3.8,5.2,5.1,7.3a27.29,27.29,0,0,1,2.7,6.9,18.85,18.85,0,0,1,.7,3.6,32.5,32.5,0,0,1,.3,3.7c.2,2.1.4,5.6.7,8.4a43.73,43.73,0,0,0,2.2,9.5c.3.9.7,1.6.8,2C361.6,273.6,361.8,274.2,362.1,274.8Z" transform="translate(1 -1)"/><path class="cls-3" d="M351.7,307.4a3.94,3.94,0,0,1-.6,2.1,2.7,2.7,0,0,1-.8.7,1.73,1.73,0,0,1-1,.1,3.25,3.25,0,0,1-1.8-1h0a3.69,3.69,0,0,1-.7-1.4c-.1-.5-.1-.9-.2-1.4a15,15,0,0,0,1.5,2.3c.2.2.8.8,1.2.8a1.35,1.35,0,0,0,1.2-.5,1.91,1.91,0,0,0,.4-1.5,3.07,3.07,0,0,0-2.1-2.3,15,15,0,0,0-3.5-.9,16.16,16.16,0,0,1-3.1-1,18.84,18.84,0,0,1-2.9-1.6c-.7-.5-.2-.1-.9-.6a13.13,13.13,0,0,1-1.8-1.7,14.72,14.72,0,0,1-3.3-6.6,9,9,0,0,1,.1-4,5,5,0,0,1,1.7-2.7,4.45,4.45,0,0,1,1.2-.6c.3-.1.2-.1.5-.2a1.49,1.49,0,0,1,.6-.1,4.88,4.88,0,0,1,2.4.4c-.1.1-.5,0-.5.2h0c-.5,0-1,.1-1.6.1-.1,0-.4.1-.5.1s-.1,0-.4.1a4.07,4.07,0,0,0-1.1.6,4.65,4.65,0,0,0-1.6,2.4,8.74,8.74,0,0,0-.1,3.6,14.14,14.14,0,0,0,3.1,6.1,12,12,0,0,0,1.7,1.6,5.55,5.55,0,0,0,.8.6,16.29,16.29,0,0,0,2.7,1.5,26.16,26.16,0,0,0,3,1c.6.1,1.6.3,2.4.5a9.29,9.29,0,0,1,1.3.4,5.45,5.45,0,0,1,1.7,1.1A3.25,3.25,0,0,1,351.7,307.4Z" transform="translate(1 -1)"/><path class="cls-3" d="M339.9,326.5a4.68,4.68,0,0,1-.5,2.6,4,4,0,0,1-1.9,1.5,2.44,2.44,0,0,1-2.2-.2,3.56,3.56,0,0,1-1.4-1.8,4.88,4.88,0,0,1-.3-2,3,3,0,0,1,.5-1.6v0a2.84,2.84,0,0,1,1-.9l-.6,1.2a5.77,5.77,0,0,0-.3,1.4,3,3,0,0,0,.2,1.6,2.3,2.3,0,0,0,1.1,1.3,2,2,0,0,0,1.7.2,2.89,2.89,0,0,0,1.5-1.2,2.82,2.82,0,0,0,.4-2,11.93,11.93,0,0,0-1.7-3.8,27.41,27.41,0,0,1-1.8-3.2c-.4-1-.7-1.7-1-2.5s-.1-.2-.4-1.1-.5-2-.8-3.3c-.1-.7-.6-2.6-.8-3.7a13.66,13.66,0,0,1-.4-2.3,3.45,3.45,0,0,1,.7-2.3,2.9,2.9,0,0,1,2.4-.7,9.51,9.51,0,0,1,2.4.7c1.3.6,3,1.5,4.1,2s2.2,1,2.9,1.3a17.49,17.49,0,0,1,2.7,1.6,24.32,24.32,0,0,1-3-.9c-.6-.3-1.9-.8-2.9-1.3s-2.8-1.5-4-2a7.42,7.42,0,0,0-2.1-.7,2,2,0,0,0-1.8.5,2.27,2.27,0,0,0-.5,1.8,14.35,14.35,0,0,0,.4,2.2c.2,1,.6,3,.8,3.6.3,1.3.5,2.4.8,3.3a6.15,6.15,0,0,1,.3,1.1c.3.7.5,1.4.9,2.4a27.41,27.41,0,0,0,1.8,3.2A8.72,8.72,0,0,1,339.9,326.5Z" transform="translate(1 -1)"/><path class="cls-2" d="M355.9,272.2a11.07,11.07,0,0,1,.1,3.6,16,16,0,0,1-.5-2.1,9.92,9.92,0,0,0-.3-1.5c-.2-.7-.2-1.2-.5-2.2a64.78,64.78,0,0,0-3.1-8.1c-.9-1.9-1.5-3.2-2.2-4.5s-.5-1-1.1-2.2-1.4-3.1-2.1-4.6a33.08,33.08,0,0,1-1.8-5.3,5.16,5.16,0,0,1-.2-1.1,1.27,1.27,0,0,1-.1-.6c0-.2-.1-.6-.1-.8s-.1-.6,0-.7.3.3.4.3c-.1-.3-.4-.5-.4-.8a13.4,13.4,0,0,1,.1-2,17,17,0,0,1,.6,3.1c0,.1.1.5.1.7a1.49,1.49,0,0,0,.1.6c.1.3.1.7.2,1.1a43.56,43.56,0,0,0,1.7,5.1c.6,1.5,1.4,3.3,2,4.6s.5.9,1.1,2.2,1.3,2.6,2.2,4.5a68.07,68.07,0,0,1,3.2,8.3C355.6,270.9,355.8,271.8,355.9,272.2Z" transform="translate(1 -1)"/><path class="cls-2" d="M355.3,273.7a5.47,5.47,0,0,1-1.3,2.9c-.1.2-.6.4-.9.6a6.71,6.71,0,0,1-1.5.6,4.25,4.25,0,0,1-1.1.2c-.4,0-.6.1-1,.1a8.47,8.47,0,0,1-1.7-.4,10.52,10.52,0,0,1-1.8-.8,7.91,7.91,0,0,1-2.7-2.4.1.1,0,0,1,.1.1c.9.6,1.6.9,2.7,1.5.3.1,1.1.5,1.7.7a8,8,0,0,0,1.5.3h.9a4.4,4.4,0,0,0,1-.2,5.91,5.91,0,0,0,1.4-.6,8.11,8.11,0,0,0,.8-.6A9,9,0,0,0,355.3,273.7Z" transform="translate(1 -1)"/><path class="cls-3" d="M334.1,324.9v0Z" transform="translate(1 -1)"/><path class="cls-3" d="M334.1,324.9h0a10.18,10.18,0,0,1-1.1-2.6,2.54,2.54,0,0,0-.2-.7,1.23,1.23,0,0,1-.2-.5,8.23,8.23,0,0,0-.6-1.6,50.1,50.1,0,0,0-3.4-7,8.59,8.59,0,0,0-2.1-2.8,1.29,1.29,0,0,0-1.2-.1c-.4.1-.8.6-1,.8a20.28,20.28,0,0,0-1.3,1.8,3.51,3.51,0,0,0-.5.8,9.22,9.22,0,0,1-.5.8,7.48,7.48,0,0,0-.9,2,10.13,10.13,0,0,0-.6,3.2,29.34,29.34,0,0,1-.3,4.1,5.58,5.58,0,0,1-.9,2.1,3.15,3.15,0,0,1-1.7,1.3,2.12,2.12,0,0,1-1.9-.4,2.62,2.62,0,0,1-.9-1.8c-.1-.6-.2-1.1,0-1.4.4-.7.8-1.3,1.2-2,.2-.3.8-.4,1.1-.5a9,9,0,0,0-.9,1,7.46,7.46,0,0,0-.7,1.2,2.62,2.62,0,0,0-.2,1.5,2.09,2.09,0,0,0,.7,1.3,1.38,1.38,0,0,0,1.4.3,3.68,3.68,0,0,0,2-2.8,26.93,26.93,0,0,0,.3-4,16.66,16.66,0,0,1,.7-3.5,15.59,15.59,0,0,1,1-2.2,5.58,5.58,0,0,1,.5-.8,5.58,5.58,0,0,0,.5-.8,16.22,16.22,0,0,1,1.3-1.9,4,4,0,0,1,1.2-1,2.28,2.28,0,0,1,1.8.1,5.71,5.71,0,0,1,1.3,1.4c.4.5.7,1.1,1.1,1.7a46.28,46.28,0,0,1,3.4,7.1,13.78,13.78,0,0,0,.6,1.6,4.71,4.71,0,0,1,.2.5,1.85,1.85,0,0,1,.2.7A7.39,7.39,0,0,1,334.1,324.9Z" transform="translate(1 -1)"/><path class="cls-2" d="M341.6,283.3a4.19,4.19,0,0,1-.2,1.8c-.7,1.2-1.4,1-2.5.9.1,0,.3-.1.4-.1h0c0-.3.8,0,1,0-.2-.1-.3-.2-.5-.2.4-.4.6-.4.9-1a2.57,2.57,0,0,0,.2-1.4,6.27,6.27,0,0,0-1.6-2.7,8.35,8.35,0,0,0-1.6-1.2,4.06,4.06,0,0,0-1.9-.4,2.89,2.89,0,0,0-2.1,1.1,1.63,1.63,0,0,0-.4.9,12.29,12.29,0,0,0-.5,2.5,4.41,4.41,0,0,1-.2-3,8.79,8.79,0,0,1,.5-1,3.41,3.41,0,0,1,2.5-1.3,6.8,6.8,0,0,1,1.5.2,4.88,4.88,0,0,1,.7.3c.3.1,0,0,.4.2s1,.8,1.6,1.2A7.82,7.82,0,0,1,341.6,283.3Z" transform="translate(1 -1)"/><path class="cls-2" d="M339.8,285.6c.2,0,.3.2.5.2h-1C339.5,285.8,339.7,285.6,339.8,285.6Z" transform="translate(1 -1)"/><path class="cls-2" d="M341,271.6a9,9,0,0,1,2.4,2.8,17.85,17.85,0,0,0-2.6-2,9.05,9.05,0,0,0-1.1-.6,4.83,4.83,0,0,0-2.4-.2,1.64,1.64,0,0,0-1,1,2.09,2.09,0,0,0-.3,1.4,5.67,5.67,0,0,0,.8,2.6,5.31,5.31,0,0,0,1.3,1.3,6.53,6.53,0,0,0,1.7.8c-.1.1-.1.2-.2.4a2.12,2.12,0,0,1,.7-.3h.5a2.12,2.12,0,0,1-2.7-.1l-.2-.1a5.88,5.88,0,0,1-1.5-1.6,9.89,9.89,0,0,1-1.1-3.3,4.26,4.26,0,0,1,.4-1.7,2.56,2.56,0,0,1,1.3-1.2,4.45,4.45,0,0,1,2.8.2A2.22,2.22,0,0,1,341,271.6Z" transform="translate(1 -1)"/><path class="cls-2" d="M340.4,278.7c-.2.1-.5.2-.7.3.1-.1.1-.3.2-.3S340.2,278.8,340.4,278.7Z" transform="translate(1 -1)"/><path class="cls-2" d="M344.3,242.5c-.1-.1-.4-.2-.4-.3s-.1-.5,0-.4A1.27,1.27,0,0,0,344.3,242.5Z" transform="translate(1 -1)"/><path class="cls-2" d="M343.8,241.7c.1.2,0,.3,0,.5a10.83,10.83,0,0,1-2-1.8,13.5,13.5,0,0,0-1.3-1.5c-.4-.5-1.3-1.5-1.8-2.1s-1.5-1.8-1.9-2.3-.7-.9-.9-1.1a12.13,12.13,0,0,1-1-1.4c.3.1.4-.2.6-.1a7.27,7.27,0,0,1,.8.9c.3.4.5.6.9,1.1s1.4,1.7,1.9,2.3,1.4,1.6,1.8,2.1,1,1.2,1.3,1.5A12.41,12.41,0,0,1,343.8,241.7Z" transform="translate(1 -1)"/><path class="cls-3" d="M344.7,221.2a7.08,7.08,0,0,1,0,2.9,4.36,4.36,0,0,1-.7,1.7c0,.1-.1-.2-.2-.1s.2.1.1.2-.3.4-.4.5a7.1,7.1,0,0,1-2.2,1.3c.1-.2.1-.4.2-.6-.4.2-.8.8-1.1,1a4.18,4.18,0,0,1-1,.4c-3.2.8-5.9,1.4-9.2.8s-6.4-2.5-9.2-4.4-5.6-4-8.3-5.9c-1.4-1-2.7-1.9-3.9-2.9-.6-.5-1.3-1-1.9-1.5s-1.2-.9-1.7-1.3-1.1-.9-1.4-1.2l-.5-.5c-.2-.2-.5-.4-.6-.5s.1-.3.1-.4,0-.1.1-.3.1-.2.2-.4a7.93,7.93,0,0,0,.4-.9v1.8h.1c.1.1.1,0,.2.2s.2.2.5.4.9.8,1.4,1.2,1.1.9,1.7,1.3l1.8,1.5,3.9,3c2.7,2,5.5,4.1,8.2,5.9s5.7,3.7,8.9,4.3a17.89,17.89,0,0,0,8.9-.8,8.73,8.73,0,0,0,4-1.9c1.2-1.1,1.3-2.8,1-4.4a15.43,15.43,0,0,0-2-5c-.8-1.5-1.7-2.9-2.4-4.4a6.15,6.15,0,0,1-.7-2.3,4,4,0,0,1,.6-2.2c.7-1.2,1.6-2.1,1.8-3.4a4.74,4.74,0,0,0-.9-3.3,8.38,8.38,0,0,0-2.3-2.3,43.17,43.17,0,0,0-5.3-2.6,14.87,14.87,0,0,1-3.9-2.7,13.07,13.07,0,0,1-1.9-2.6,4.79,4.79,0,0,0-.8-1.1c-.8-1.2-.9-1.4-2.6-3.7s-4.1-5.9-6.7-9.5-7-9.3-10.5-13.3a62.77,62.77,0,0,0-6.9-6.7,77.67,77.67,0,0,0-7.8-4.8c-2.6-1.5-4.9-2.8-7.5-4a43.61,43.61,0,0,0-8.4-2.8c-5.4-1.1-10.6-2.1-15.7-3.5-1.3-.4-2.1-.6-3.3-.9a9,9,0,0,0-1.6-.3c-.3,0-.6-.1-.8-.1h-1.6c-1.1.2-2.1.5-3.1.6a9.47,9.47,0,0,1,1.7-.9,9.68,9.68,0,0,1,1.1-.3,2,2,0,0,1,.7-.1h1.2c.3,0,.5.1.8.1a12.23,12.23,0,0,1,1.7.3c1.2.3,2.1.6,3.4.9,5.2,1.4,10.5,2.3,15.9,3.4a37.69,37.69,0,0,1,8.4,2.8c2.6,1.2,5,2.5,7.6,4a64.77,64.77,0,0,1,7.9,4.9,51.11,51.11,0,0,1,7.1,6.8c3.5,4.1,7.9,9.8,10.5,13.4s5.1,7.2,6.7,9.5,1.7,2.6,2.6,3.8a7.91,7.91,0,0,0,.8,1.1,12.71,12.71,0,0,0,1.9,2.5,10.6,10.6,0,0,0,3.7,2.6,54.34,54.34,0,0,1,5.4,2.7,8.49,8.49,0,0,1,2.5,2.5,5.35,5.35,0,0,1,1,3.7,6.79,6.79,0,0,1-.7,2,16.29,16.29,0,0,0-1.1,1.7,3.74,3.74,0,0,0-.5,1.8,4,4,0,0,0,.7,2c.8,1.5,1.6,2.8,2.4,4.3A18.3,18.3,0,0,1,344.7,221.2Z" transform="translate(1 -1)"/><path class="cls-2" d="M344,225.8h0a.35.35,0,0,1-.2-.1S344,225.7,344,225.8Z" transform="translate(1 -1)"/><path class="cls-2" d="M332.9,283.5a5.63,5.63,0,0,1-.4,2.8,4.37,4.37,0,0,1-.9,1.3,4.73,4.73,0,0,1-1.3,1.1,4.67,4.67,0,0,1-1,.5c-.4.1-.7.3-1.2.4a13.8,13.8,0,0,1-2,.3,4.74,4.74,0,0,1-1.2,0,6,6,0,0,1-3-1c.8,0,2.1.1,2.8.1h1.2a12.5,12.5,0,0,0,1.9-.3,3.58,3.58,0,0,0,1.1-.4c.4-.2.5-.3.9-.5a6,6,0,0,0,1.2-1.1,8.34,8.34,0,0,0,.8-1.2c.3-.5.7-1.3,1.1-2Z" transform="translate(1 -1)"/><path class="cls-3" d="M341.5,227c-.1.2,0,.5-.2.6a3.55,3.55,0,0,0-.9.4A5.24,5.24,0,0,1,341.5,227Z" transform="translate(1 -1)"/><path class="cls-3" d="M341.3,227.6a4.87,4.87,0,0,1-1.1,1.8,2.18,2.18,0,0,1-.5.4,1,1,0,0,0-.4.3,7,7,0,0,1-.9.6,14.46,14.46,0,0,1-2.9,1.1,6,6,0,0,0-.8-.8,10.38,10.38,0,0,0,3.1-1.1,7,7,0,0,0,.9-.6c.2-.2.2-.1.4-.3s.2-.2.5-.4a5.72,5.72,0,0,1,.8-.7C340.7,227.7,341,227.8,341.3,227.6Z" transform="translate(1 -1)"/><path class="cls-2" d="M318.9,313.2a40.18,40.18,0,0,1-2.1,5.8c-.3.8-.6,1.3-.7,1.7s0,.1-.1.2h0a3.59,3.59,0,0,0-1,1.4c-.1.1-.1.4-.2.6a1.38,1.38,0,0,1-.3.4,20,20,0,0,1,1-2.9c.1-.3.4-.9.7-1.7a54.87,54.87,0,0,0,2-5.7,23.25,23.25,0,0,0,.8-3.6,24.19,24.19,0,0,0,.5-4.2,22.86,22.86,0,0,0-1-6.8c-.2-.7-.4-1.1-.5-1.4a27.9,27.9,0,0,1-1.1-3.5,7.84,7.84,0,0,1,1,1.5,12.62,12.62,0,0,1,.7,1.6,13,13,0,0,0,.5,1.4,23.7,23.7,0,0,1,1,7,26.76,26.76,0,0,1-.5,4.3A16.78,16.78,0,0,1,318.9,313.2Z" transform="translate(1 -1)"/><path class="cls-2" d="M315.9,320.9h0a11.78,11.78,0,0,1-1.1,1.9,1.07,1.07,0,0,1,.2-.6A3.81,3.81,0,0,1,315.9,320.9Z" transform="translate(1 -1)"/><path d="M337.5,220a3,3,0,0,1,0,2.1,1.76,1.76,0,0,1-2.5.9,2.09,2.09,0,0,1-.6-.4,4.07,4.07,0,0,1-1.3-1.9,2.76,2.76,0,0,1,0-2c.7-1.3,1.9-1.4,3.1-.6A4.57,4.57,0,0,1,337.5,220Zm-.7,1.5a2.57,2.57,0,0,0-1-2.8,1.37,1.37,0,0,0-2.2.4,2.37,2.37,0,0,0,.9,2.7C335.3,222.5,336.4,222.5,336.8,221.5Z" transform="translate(1 -1)"/><path d="M335.8,218.7a2.57,2.57,0,0,1,1,2.8c-.4,1-1.5,1-2.3.4a2.24,2.24,0,0,1-.9-2.7A1.34,1.34,0,0,1,335.8,218.7Zm.4,2.4c.2-.4.1-.5,0-.8a1.7,1.7,0,0,0-.6-.8.77.77,0,0,1-.3-.2.81.81,0,0,0-1.1.4,1.1,1.1,0,0,0,0,.8c.1.4.3.5.6.8A1.06,1.06,0,0,0,336.2,221.1Z" transform="translate(1 -1)"/><path class="cls-2" d="M335.5,231.9c-.2,0-.4.2-.6.1s-.4-.6-.5-.8.2-.1.3-.1A3,3,0,0,1,335.5,231.9Z" transform="translate(1 -1)"/><path class="cls-2" d="M323.1,290.8a8,8,0,0,1-2.6-2.3,12.22,12.22,0,0,1-1.3-1.8,42.68,42.68,0,0,1-2.9-6.1,59.74,59.74,0,0,1-1.7-5.8c-.3-1.5-.3-1.6-.6-2.8s-.3-1.2-.6-2.6-.7-3.8-1.2-5.5a29.47,29.47,0,0,0-2-5.2,4.37,4.37,0,0,0-.6-1c-.1-.3-.2-.3-.3-.5a3.11,3.11,0,0,0-.4-.6c-.5-.8-1.1-1.4-1.6-2.2a8.78,8.78,0,0,1,1.5,1.2c.2.2.1.5.2.8.1,0,0-.4.1-.3s.2.3.3.4.3.5.4.7a3.21,3.21,0,0,0,.3.5,10.91,10.91,0,0,1,.6,1.1,34.37,34.37,0,0,1,2.1,5.3c.5,1.7,1,4.1,1.3,5.5s.3,1.5.6,2.6.3,1.2.6,2.7a58.37,58.37,0,0,0,1.7,5.7,31.88,31.88,0,0,0,2.8,5.9,9.53,9.53,0,0,0,1.2,1.7,9.82,9.82,0,0,1,.7,1A5.39,5.39,0,0,1,323.1,290.8Z" transform="translate(1 -1)"/><path d="M336.2,220.3c.1.3.2.4,0,.8a1.06,1.06,0,0,1-1.4.2,1.41,1.41,0,0,1-.6-.8,1.1,1.1,0,0,1,0-.8.84.84,0,0,1,1.1-.4c.1,0,.1,0,.3.2A1,1,0,0,1,336.2,220.3Z" transform="translate(1 -1)"/><path class="cls-2" d="M334.7,231.1c0,.1-.2.1-.3.1a4.35,4.35,0,0,1-.4-.7A2,2,0,0,1,334.7,231.1Z" transform="translate(1 -1)"/><path class="cls-3" d="M334.4,231.1a5.58,5.58,0,0,0,.5.8c-.4.1-1.1.1-1.6.2a18.93,18.93,0,0,1-4.9-.5,21.9,21.9,0,0,1-2.3-.7,21.4,21.4,0,0,1-2.2-1,9.29,9.29,0,0,0-1-.5c.2-.1.4-.1.6-.2-.5,0-1.3.3-1.6-.3h0c-.9-.5-1.9-1.1-2.8-1.6-1.6-1-3.6-2.4-5-3.5a17.38,17.38,0,0,0-1.5-1.1,10,10,0,0,1-2.3-2.3c1,.6,1.6.9,2.6,1.6a17.38,17.38,0,0,1,1.5,1.1c1.3,1,3.4,2.5,4.9,3.4s3.4,2,4.6,2.6,1.3.6,2.2,1,1.1.4,2.2.7a17,17,0,0,0,4.7.5A5.21,5.21,0,0,0,334.4,231.1Z" transform="translate(1 -1)"/><path class="cls-2" d="M318.7,296.3a10.54,10.54,0,0,1-.7-1.1c-.3-.6-.6-1.1-1-2-.2-.4-.5-1-.9-1.9-1.4-2.5-3.2-5.5-4.9-8.2s-3.9-6-5.5-8.7a70.46,70.46,0,0,1-4.1-8.3,50.7,50.7,0,0,1-1.9-6.7,26.33,26.33,0,0,1-.7-3.8c-.2-1.2,0-.2-.2-1.6a11.19,11.19,0,0,0-1.1-4.3c-1-2.2-2.7-5.6-4.3-8.6a88.73,88.73,0,0,1-7.2-16.4,7.73,7.73,0,0,1-.3-2.9v-1c.5,1.1.6,2.5,1.1,3.7,2.7,7.2,11.6,23.2,12.4,28.4s0,.3.3,2.5.2,1.7.7,3.8a41.3,41.3,0,0,0,1.8,6.6,76.7,76.7,0,0,0,4,8.2c1.6,2.7,3.7,5.9,5.5,8.6s3.6,5.8,5,8.3c.5.9.8,1.6,1,2A13.31,13.31,0,0,1,318.7,296.3Z" transform="translate(1 -1)"/><path class="cls-3" d="M329.1,208.3a7.74,7.74,0,0,1-.2,3,9.38,9.38,0,0,1-.6,1.5l-.1.2-.1.2c-.2.2-.5.8-.7.9a3.84,3.84,0,0,1-2.2,1.3c.6-.6,1.1-1.2,1.7-1.9.1-.1.4-.6.6-.8l.1-.2.1-.2a14.67,14.67,0,0,0,.6-1.4C328.6,209.9,328.8,209.2,329.1,208.3Z" transform="translate(1 -1)"/><path d="M327.2,209.6c0,.2,0,.3-.1.4a5.32,5.32,0,0,1-7.2,3.9.76.76,0,0,1-.5-.2c-3.4-1.8-5.3-4.7-4.9-8.5a4.61,4.61,0,0,1,2.4-3.7,5.74,5.74,0,0,1,5.4-.4C325.8,202.6,327.5,205.7,327.2,209.6Zm-7.2,3.5c3.2,1.1,5.9-.4,6.5-3.7a6.66,6.66,0,0,0-4.4-7.5c-3.1-1.2-6.3.2-6.9,3.6A7,7,0,0,0,320,213.1Z" transform="translate(1 -1)"/><path class="cls-3" d="M328,203.6a11.11,11.11,0,0,1,1.3,2.7,23.05,23.05,0,0,1-1.8-2.3c-.2-.2-.6-.8-1.1-1.3a25,25,0,0,0-3.4-3.1,14.65,14.65,0,0,0-2.4-1.3,6.89,6.89,0,0,0-1-.4c-.6-.2-1.4-.4-2.1-.6a18.89,18.89,0,0,0-4.7-.3,4.17,4.17,0,0,0-1.1.2,4,4,0,0,0-1.3.4,2,2,0,0,0-1,.8,1.89,1.89,0,0,1,.7-1.3,2.65,2.65,0,0,1,1.4-.7,5.47,5.47,0,0,1,1.2-.2,20.8,20.8,0,0,1,4.9.3,14.16,14.16,0,0,1,2.2.7,6.89,6.89,0,0,1,1,.4,23.51,23.51,0,0,1,2.5,1.4,21.72,21.72,0,0,1,3.6,3.2C327.4,202.8,327.8,203.3,328,203.6Z" transform="translate(1 -1)"/><path d="M326.5,209.4c-.6,3.3-3.3,4.8-6.5,3.7a7,7,0,0,1-4.8-7.7c.6-3.4,3.8-4.8,6.9-3.6A6.84,6.84,0,0,1,326.5,209.4Zm-2.1,2.5a4.21,4.21,0,0,0,1.6-2.8,5.43,5.43,0,0,0-.6-3.7,8.08,8.08,0,0,0-3-2.8c-.1-.1-.3-.1-.4-.2a5.2,5.2,0,0,0-4.4.4,3.51,3.51,0,0,0-1.7,2.8,6.5,6.5,0,0,0,4.3,6.8A4.25,4.25,0,0,0,324.4,211.9Z" transform="translate(1 -1)"/><path class="cls-3" d="M323.6,229.3c-.2,0-.4.2-.6.2h-.1a2,2,0,0,1-.9-.5A4.53,4.53,0,0,1,323.6,229.3Z" transform="translate(1 -1)"/><path d="M325.9,209.2a3.85,3.85,0,0,1-1.6,2.8,4.38,4.38,0,0,1-4.3.5,6.47,6.47,0,0,1-4.3-6.8,3.51,3.51,0,0,1,1.7-2.8,5.2,5.2,0,0,1,4.4-.4.76.76,0,0,1,.4.2,7.34,7.34,0,0,1,3,2.8A5,5,0,0,1,325.9,209.2Zm-1.3-2a1.89,1.89,0,0,0-.5-2.5,1.46,1.46,0,0,0-2.3.3,2,2,0,0,0,.5,2.5A1.52,1.52,0,0,0,324.6,207.2Z" transform="translate(1 -1)"/><path class="cls-3" d="M322,229c.1.4.6.4,1,.5a5.84,5.84,0,0,1-1.9.2H320a27.78,27.78,0,0,1-3.9-.5c-.9-.2-2-.4-2.6-.6a3.09,3.09,0,0,0-.8-.2,9.83,9.83,0,0,1-1.6-.5,27.65,27.65,0,0,1-3.8-1.4c-.8-.3-1.4-.6-1.7-.7a17.77,17.77,0,0,1-2.7-1.7,20,20,0,0,1,2.9,1c.3.1.9.4,1.7.7s2.7,1.1,3.7,1.4a6.61,6.61,0,0,1,1.5.5,2.54,2.54,0,0,1,.7.2c.6.2,1.6.4,2.5.6s2.9.4,3.8.5a3.42,3.42,0,0,1,1.1.1,1.73,1.73,0,0,1,1.2-.1Z" transform="translate(1 -1)"/><path class="cls-4" d="M324.2,204.7a2,2,0,0,1,.5,2.5,1.43,1.43,0,0,1-2.2.3,2,2,0,0,1-.5-2.5C322.4,204.1,323.4,204.1,324.2,204.7Z" transform="translate(1 -1)"/><path class="cls-2" d="M309.3,255.9c0,.1-.1.3-.1.4a6.37,6.37,0,0,0-.2-.7C309,255.5,309.3,255.9,309.3,255.9Z" transform="translate(1 -1)"/><path class="cls-2" d="M309.3,255.9c0-.2-.2-.3-.3-.4a6.64,6.64,0,0,1-.3-1.5,7.38,7.38,0,0,0-.2-1.2,39.92,39.92,0,0,0-1.1-4.7c-.7-2.6-1.4-4.4-2.3-6.9s-2-4.7-3.2-7.4c-.6-1.3-1.9-4.3-2.7-5.7a21.6,21.6,0,0,1-1-2.5,12.51,12.51,0,0,1-.8-3.2c.1.1.1.2.2.3a8.42,8.42,0,0,1,1.3,2.5c.2.5.6,1.7,1,2.5.7,1.5,2,4.5,2.7,5.8,1.2,2.7,2.2,5,3.2,7.5a57.29,57.29,0,0,1,2.3,7,37.24,37.24,0,0,1,1.1,4.8,9.68,9.68,0,0,0,.2,1.2A5.19,5.19,0,0,1,309.3,255.9Z" transform="translate(1 -1)"/><path class="cls-3" d="M302.3,199.3a26.72,26.72,0,0,0-2.6.9,7,7,0,0,0-1.4.8,9.27,9.27,0,0,0-1.4,1.4,6.07,6.07,0,0,0-.7,1c-.3.4-.4.8-.7,1.3a19.48,19.48,0,0,0-.6,2.3,7.17,7.17,0,0,0-.1,1.3,8.81,8.81,0,0,0,.2,1.7,3.51,3.51,0,0,0,.6,1.4,3.89,3.89,0,0,1-1.6-3.2,9.23,9.23,0,0,1,.1-1.5,11.7,11.7,0,0,1,.7-2.5,9.08,9.08,0,0,1,.7-1.4,7.63,7.63,0,0,1,.8-1.1,11.37,11.37,0,0,1,1.6-1.5,14.68,14.68,0,0,1,1.5-.9A4.78,4.78,0,0,1,302.3,199.3Z" transform="translate(1 -1)"/><path class="cls-2" d="M280.6,220a5.59,5.59,0,0,1-3.4.1,12.46,12.46,0,0,1-2.1-.7,35.2,35.2,0,0,1-8.7-5.2,73.86,73.86,0,0,1-7-6.7,4.88,4.88,0,0,0,.7.3,17.94,17.94,0,0,0-2.5-2.3l-.1-.1h0c-.9-1.1.6.7-.9-1.1s-5.1-6.2-7.4-9.2c-1.1-1.5-3.9-4.9-5.2-6.8-.3-.5-.7-1.1-1-1.6a2.19,2.19,0,0,1-.3-.5,3.11,3.11,0,0,0-.4-.6,14.25,14.25,0,0,1-1.3-2.8,22.26,22.26,0,0,1,1.9,2.4,6.13,6.13,0,0,0,.4.6c.4.6.8,1.3,1.3,2,1.5,2,3.8,4.9,5.2,6.7,2.8,3.6,4.7,6.2,7.6,9.5a83.39,83.39,0,0,0,9.4,9.4,31.08,31.08,0,0,0,8.3,5c.8.3,1.6.6,2,.7C278.5,219.5,279.3,219.7,280.6,220Z" transform="translate(1 -1)"/><path class="cls-2" d="M260,207.7a4.88,4.88,0,0,0-.7-.3c-.2-.1.3.2-.1-.1a18,18,0,0,1-1.8-2l.1.1A27.25,27.25,0,0,1,260,207.7Z" transform="translate(1 -1)"/><path class="cls-2" d="M259.3,207.5a11.82,11.82,0,0,1-2.3-1.4c-.3-.2-.9-.7-1.6-1.2-1.5-1.2-4.2-3.4-5.6-4.8s-1.8-1.7-3.1-3-2.8-2.9-4.3-4.7c-.7-.9-2.1-2.8-2.9-4a7,7,0,0,0-.6-.9,1.33,1.33,0,0,1-.3-.5c-.1-.2-.3-.5-.4-.7a11.48,11.48,0,0,1-1.1-2.9l.1.1a13.09,13.09,0,0,1,1.7,2.4,3.11,3.11,0,0,1,.4.6,1.33,1.33,0,0,0,.3.5c.1.2.4.6.6.9.7,1.1,2.1,3,2.8,3.9,1.4,1.8,2.9,3.2,4.2,4.6s1.7,1.6,3.1,3,3.9,3.5,5.5,4.8c.7.5,1.1.8,1.5,1.1s-.3-.2.2.1S258.8,206.9,259.3,207.5Z" transform="translate(1 -1)"/><path class="cls-3" d="M238.8,183.6a6.47,6.47,0,0,1-.9-.8,6.69,6.69,0,0,1-1.2-1.6,2.2,2.2,0,0,0-.5-.6c-.5-.6-1-1.2-1.5-1.9-1.6-2-3.9-4.8-5.6-6.5s-3.8-3.9-5.1-5.1-1.4-1.3-2.4-2.1-1.3-1-2.4-1.8c-.5-.4-1.7-1.2-2.4-1.7-.4-.3-1-.7-1.4-1s-1-.7-1.5-1-1-.7-1.5-1a8.28,8.28,0,0,1-1.5-1.1,12.13,12.13,0,0,0-1.4-1,4.35,4.35,0,0,1-.7-.6h.1a4.33,4.33,0,0,0,.5-.1,2.12,2.12,0,0,0-.7-.3h-.4l-.1-.1a11,11,0,0,1-1.1-1,7,7,0,0,1-1.4-2.1,9.35,9.35,0,0,1,2,1.6,13.26,13.26,0,0,0,1.1,1c1.6,1.4,3.8,2.9,5.6,4.2.5.3,1,.8,1.5,1.1a17,17,0,0,1,1.4,1c.7.5,1.8,1.3,2.4,1.7,1.1.8,1.4,1,2.4,1.8a18.68,18.68,0,0,1,2.4,2.1c1.3,1.3,3.4,3.3,5.1,5.1s4,4.5,5.6,6.6c.5.7,1.1,1.3,1.5,1.9a3.81,3.81,0,0,0,.5.6A17.49,17.49,0,0,1,238.8,183.6Z" transform="translate(1 -1)"/><path class="cls-3" d="M241.7,173.9a11.61,11.61,0,0,1,1.4,2.7,25.4,25.4,0,0,1-2-2.4,17.19,17.19,0,0,1-1.4-2.2c-.8-1.3-2.8-4.3-3.4-5.5-1.4-2.3-3.4-5.7-4.3-7s-.1-.1-.6-.8-.5-.9-1-1.6a28.56,28.56,0,0,0-3.7-4.2c-.7-.6-1.7-1.4-2.4-1.9s-1.8-1.1-2.5-1.5a16.37,16.37,0,0,0-1.5-.7c-.4-.2-.5-.1-.7-.4s.1-.5-.1-.8c.5.2.6.2,1.1.4a11.55,11.55,0,0,1,1.5.8c.7.4,1.8,1,2.5,1.5s1.8,1.4,2.5,2a24.23,24.23,0,0,1,3.7,4.2c.5.7.6,1,1,1.6a3.78,3.78,0,0,1,.5.8c.5.9,1.5,2.5,2.3,3.9.4.6,1.5,2.3,2.1,3.3,1,1.6,2.6,4,3.5,5.5C240.8,172.6,241.4,173.5,241.7,173.9Z" transform="translate(1 -1)"/><path class="cls-3" d="M251.8,138.4c-.2,0-.6.1-.7.1H251a5.3,5.3,0,0,1-.6-1c-.7-1.1-1.1-1.9-1.8-2.9s-1.1-1.7-1.9-3c-.4-.6-1.4-2.1-2-2.9-.3-.4-.9-1.1-1.3-1.7s-1-1.1-1.5-1.7a37.37,37.37,0,0,0-6.8-5.9c-.7-.5-1.3-.9-1.6-1.1a19.59,19.59,0,0,1-2.8-1.9,20.82,20.82,0,0,1,3.2,1.2c.3.2,1.2.8,1.6,1.1l.1.1a.31.31,0,0,0,.1.2c.1.1,0,.1.1.3a5,5,0,0,0,.7.8c.1-.2-.1-.6-.1-.7s-.1-.1,0-.1c.3.2.7.5,1,.7l1.8,1.5c.6.5,1.2,1.1,1.7,1.6a12.48,12.48,0,0,1,1.6,1.7c.5.6,1,1.2,1.5,1.7s1,1.3,1.3,1.7a34,34,0,0,1,2.1,3c.8,1.3,1.2,1.9,1.9,3s1.1,1.8,1.8,3A12.75,12.75,0,0,1,251.8,138.4Z" transform="translate(1 -1)"/><path class="cls-2" d="M235.1,163.5c-.2-.4-.3-.3-.6-.8a6.14,6.14,0,0,1-.7-1.8,8.44,8.44,0,0,1-.2-1.9,9.82,9.82,0,0,1,.5-2.9,8.27,8.27,0,0,1,.9-1.6,6.09,6.09,0,0,1,1.6-1.6c.1-.1.3-.2.4-.3.6-.5,1.8-1.5,2.3-1.9s1.1-.9,1.3-1.1a32.64,32.64,0,0,1,3.6-2.9c-1.2,1.4-2.1,2.5-3.5,3.9-.2.2-.9.7-1.4,1.2a17.85,17.85,0,0,1-2.6,2,4,4,0,0,0-1.3,1.3,4.15,4.15,0,0,0-.7,1.3,10,10,0,0,0-.4,2.4c0,.5.2,1.4.2,1.7C234.7,161.7,234.9,162.4,235.1,163.5Z" transform="translate(1 -1)"/><path class="cls-3" d="M237.4,149.9c-.1.2-.5.8-.7.8s0-.1-.2-.6-.4-1.3-.7-2.2a61.92,61.92,0,0,0-2.4-6.3c-.5-1-1-2.4-1.4-3.4s-1.1-2.3-1.4-3.1-.5-1.2-.8-1.7a11.22,11.22,0,0,1-.5-1.3c.3.2.7-.1.9.1s.2.3.4.7a14.37,14.37,0,0,1,.8,1.7,28.71,28.71,0,0,1,1.4,3c.4,1,.9,2.4,1.4,3.4.9,2,1.7,4.3,2.4,6.2.3,1,.5,1.4.7,2.2C237.4,149.7,237.5,149.7,237.4,149.9Z" transform="translate(1 -1)"/><path class="cls-3" d="M233,130.8c.3,0,.8.2,1.1.2a4.73,4.73,0,0,1-1.2.7,7.51,7.51,0,0,1-2.6.5,1.79,1.79,0,0,0-.5-.7,6.13,6.13,0,0,0,2.7-.4A.62.62,0,0,1,233,130.8Z" transform="translate(1 -1)"/><path class="cls-3" d="M236.5,120a5,5,0,0,1-.7-.8c-.1-.2-.1-.2-.1-.3a.35.35,0,0,0-.1-.2c.1.1.6.4.7.5l.1.1C236.5,119.4,236.5,119.8,236.5,120Z" transform="translate(1 -1)"/><path class="cls-3" d="M236.3,119.2c-.2-.3-.5-.2-.7-.5a8.53,8.53,0,0,0-1.4-2.1,33.76,33.76,0,0,0-2.7-2.6c-1.8-1.6-4.5-3.7-6.3-5.1s-4.3-3.3-5.5-4.1c-2.4-1.8-3.3-2.4-5.4-4s-2.6-1.9-5.3-3.8-7.3-5.4-10.5-7.8c-1.6-1.2-3.7-2.9-5.4-4.1a12.7,12.7,0,0,1-1.2-1,12.49,12.49,0,0,0-1.2-.9l-1.2-.9c-.4-.3-.7-.6-1.1-.9s-.8-.6-1.1-.9a3.17,3.17,0,0,1-.6-.5c.3.1.4,0,.7.2s.6.5,1,.8a10.63,10.63,0,0,0,1.1.9l1.2.9a10.59,10.59,0,0,1,1.2,1,14.7,14.7,0,0,0,1.3,1c1.7,1.3,3.8,3,5.4,4.2,3.2,2.4,7.9,5.9,10.6,7.9s3.2,2.3,5.3,3.9,3,2.2,5.4,4c1.2.9,3.7,2.8,5.5,4.2s4.6,3.6,6.5,5.2a37,37,0,0,1,2.8,2.8A5,5,0,0,1,236.3,119.2Z" transform="translate(1 -1)"/><path class="cls-3" d="M230.2,132.3a2.77,2.77,0,0,1-.9-.1c-.1-.1-.3-.6-.2-.7s.5,0,.6.1S230.1,132.1,230.2,132.3Z" transform="translate(1 -1)"/><path class="cls-3" d="M229.7,131.5c-.2-.1-.5.1-.6-.1s-.2-.7-.3-1C229.1,130.8,229.4,131.1,229.7,131.5Z" transform="translate(1 -1)"/><path class="cls-3" d="M229.3,132.2c0,.1-.1,0-.2,0a19.56,19.56,0,0,1-4.1-1.3c-2.4-1.2-5.3-3.1-7.4-4.3s-4.6-3.1-6-4c-2.6-1.8-3.6-2.4-5.8-4.2s-2.8-2.1-5.5-4.5a85,85,0,0,1-10.1-10.5,47.67,47.67,0,0,1-4.3-6.4,11.94,11.94,0,0,1-.8-1.6c-.3-.5-.5-1-.8-1.5v-.1h0c0-.1-.1-.2-.2-.3-.2-.4-.3-.8-.5-1.2a7.84,7.84,0,0,1-.5-1.4c-.2-.4-.4-1.2-.5-1.4a11.34,11.34,0,0,1-.3-2.5,17.25,17.25,0,0,1,1,2.4,12.13,12.13,0,0,0,.5,1.4,12.13,12.13,0,0,0,.5,1.4,10.09,10.09,0,0,0,.7,1.5c.3.5.5,1,.8,1.5a8,8,0,0,1,.8,1.6,57.47,57.47,0,0,0,4.2,6.3,91,91,0,0,0,10,10.4c2.7,2.4,3.2,2.8,5.4,4.5s3.1,2.3,5.7,4.1c1.3.9,4,2.7,5.9,3.9s5,3.1,7.1,4.2a22,22,0,0,0,3.7,1.2c.6.1.1,0,.2,0C229.2,131.6,229.2,132.1,229.3,132.2Z" transform="translate(1 -1)"/><path class="cls-3" d="M219.2,150.6a2.87,2.87,0,0,1-.6,1.1c0-.3-.2-.7-.2-.9s.1-.3.2-.5a9.08,9.08,0,0,0,.3-2.3,2.09,2.09,0,0,0,.6.4A5.11,5.11,0,0,1,219.2,150.6Z" transform="translate(1 -1)"/><path class="cls-3" d="M219.5,147.7c.1.1,0,.6.1.8-.1-.1-.5-.3-.6-.4s-.1-.5-.1-.5S219.4,147.6,219.5,147.7Z" transform="translate(1 -1)"/><path class="cls-3" d="M219.4,147.5s.1.1,0,.1-.5,0-.6-.2c0,0,.1.4,0-.1a12.79,12.79,0,0,0-1.2-2.9,27.94,27.94,0,0,0-4.6-5.1c-1.5-1.3-3.6-3.1-4.7-3.9a55.16,55.16,0,0,0-5.3-3.6c-2.3-1.4-2.6-1.6-5.7-3.4s-8.9-4.6-13.1-6.3c-2.1-.9-5.4-2.2-7.8-3-.6-.2-1.3-.5-1.9-.7s-1.3-.4-1.9-.6-1.3-.4-1.8-.6a10.93,10.93,0,0,0-1.7-.5,16.69,16.69,0,0,0-1.8-.5c-1.2-.4-2-.7-3.1-1.1a17.07,17.07,0,0,1,3,.5c.3.1,1.3.4,1.8.5s1.2.4,1.7.5l1.8.6h.1c.6.2,1.3.4,1.9.6l2,.7c2.4.8,5.8,2.2,7.9,3.1,4.2,1.8,10.1,4.7,13.2,6.4s3.5,2,5.8,3.4a56.64,56.64,0,0,1,5.3,3.7,48.19,48.19,0,0,1,4.8,4,29.45,29.45,0,0,1,4.7,5.2A11.15,11.15,0,0,1,219.4,147.5Z" transform="translate(1 -1)"/><path class="cls-3" d="M218.8,147.5c.2.1,0,.4.1.5a8.65,8.65,0,0,1-1-.7C218.1,147.4,218.6,147.4,218.8,147.5Z" transform="translate(1 -1)"/><path class="cls-3" d="M209.5,155.6c0,.1-.5.1-.5.1h-.1c-.1,0-.4-.3-.5-.4h.1c.1,0,.2-.1.3,0A2.12,2.12,0,0,0,209.5,155.6Z" transform="translate(1 -1)"/><path class="cls-3" d="M208.3,155.4c.3.1.3.3.5.4a5.85,5.85,0,0,1-2.2-.5,14.61,14.61,0,0,1-2.8-1.4c-1.8-1-4-2.6-5.6-3.7s-3.8-2.7-5-3.5c-2.3-1.6-3.1-2.1-5.3-3.6s-2.6-1.8-5.4-3.8-8-5.9-11.6-8.5c-1.8-1.3-4.5-3.5-6.4-5.1-.5-.4-1-.9-1.5-1.3a17.41,17.41,0,0,1-1.4-1.2c-.4-.4-.9-.8-1.3-1.2s-.9-.8-1.2-1.1a13.47,13.47,0,0,1-1.2-1.2,15.73,15.73,0,0,1-1.8-1.9l2.3,2,.2.2a9.32,9.32,0,0,1,1,1c.3.3.8.7,1.2,1.1s.9.8,1.3,1.2,1,.8,1.4,1.2,1,.9,1.5,1.3c1.8,1.6,4.6,3.7,6.3,5,3.5,2.7,8.7,6.4,11.5,8.5s3.3,2.3,5.4,3.8,2.9,2,5.2,3.6c1.1.8,3.4,2.4,4.9,3.5s3.8,2.7,5.5,3.7c.8.5,1.8.9,2.6,1.3A5.84,5.84,0,0,1,208.3,155.4Z" transform="translate(1 -1)"/><path class="cls-2" d="M184.4,93.7h0c-.1,0-.1-.2-.1-.2Z" transform="translate(1 -1)"/><path class="cls-2" d="M184.3,93.5a.37.37,0,0,1,.1.3,17.53,17.53,0,0,1-3.5-2.3,17.1,17.1,0,0,0-1.4-1.1,34.75,34.75,0,0,0-4-2.6c-1.1-.6-2-1.1-3.1-1.6s-1.8-.7-3.2-1.2a48.7,48.7,0,0,0-6-1.6c-1.3-.3-2.9-.6-3.6-.7-1.8-.3-2.6-.4-4-.7l-2.1-.5a25.92,25.92,0,0,1,6.8.1c.7.1,2.4.4,3.7.7s4.7,1.2,6.1,1.7,2.1.8,3.2,1.3,2,1,3.1,1.6a48.65,48.65,0,0,1,4.1,2.7,10.61,10.61,0,0,1,1.3,1.1A8.3,8.3,0,0,1,184.3,93.5Z" transform="translate(1 -1)"/><path class="cls-2" d="M169.6,111.6c1.4,1.3,2.2,2.3,3.4,3.6a16.32,16.32,0,0,1-4.3-2.7,10,10,0,0,1-1.5-1.5,47.69,47.69,0,0,1-3.3-3.9c-.4-.6-1-1.4-1.3-1.9s-.2-.3-.6-.9-.9-1.5-1.4-2.4a31.74,31.74,0,0,1-1.9-4.2,16.28,16.28,0,0,1-.9-2.6,7.94,7.94,0,0,1,.1-4.6c.2.5.3.9.5,1.4a16.63,16.63,0,0,1,.9,2.9c.1.5.5,1.6.8,2.5a36.52,36.52,0,0,0,1.8,4.1c.5.9,1,1.8,1.3,2.4s.3.4.6.9.9,1.3,1.2,1.8a45.3,45.3,0,0,0,3.2,3.8C168.9,111,169.4,111.4,169.6,111.6Z" transform="translate(1 -1)"/><path class="cls-2" d="M188.5,80.3a3.59,3.59,0,0,1-1.1-.2c-.2,0-.1-.1-.2-.1a11.27,11.27,0,0,0-1.8-1.2,15.38,15.38,0,0,0,1.3,1.2,5.82,5.82,0,0,1-1.9-1,12.74,12.74,0,0,1-1.5-1.1,42.79,42.79,0,0,1-3.3-3c-.4-.5-1-1.1-1.4-1.6s-.2-.2-.6-.8-.9-1.3-1.6-2.1-2.3-3-2.8-3.9-1.1-2.1-1.3-2.6a16.81,16.81,0,0,1-1.1-4.7c.9,1.5,1.4,2.5,2.3,4.2.2.4.8,1.6,1.3,2.5s1.9,3,2.5,3.8,1.1,1.5,1.5,2,.3.3.6.7a17.38,17.38,0,0,0,1.3,1.5,27.07,27.07,0,0,0,3.2,2.9c.7.5,1.2.9,1.4,1A36.29,36.29,0,0,1,188.5,80.3Z" transform="translate(1 -1)"/><path class="cls-2" d="M187.3,80s.2.1.1.1a.85.85,0,0,1-.6-.2c-.4-.3-.8-.8-1.3-1.2C186.2,79.2,186.7,79.6,187.3,80Z" transform="translate(1 -1)"/><path class="cls-2" d="M158.8,119.8h0a40.31,40.31,0,0,1-3.4-3.7,14.36,14.36,0,0,0-1.4-1.5,24.63,24.63,0,0,0-3.3-3,18.76,18.76,0,0,0-1.8-1.2,7.26,7.26,0,0,0-.9-.5,26.51,26.51,0,0,0-2.4-1.2c-1-.4-3.5-1.3-4.5-1.6s-2.7-.7-3.2-.8c-2.2-.5-3.5-.8-5.4-1.4a17.76,17.76,0,0,1,5.6.2c.6.1,2.3.5,3.4.8s3.7,1.2,4.7,1.6,1.8.9,2.5,1.3a9,9,0,0,0,.9.5c.5.3,1.3.9,1.8,1.2a20.93,20.93,0,0,1,3.4,3.1,12.71,12.71,0,0,1,1.4,1.6A15.35,15.35,0,0,1,158.8,119.8Z" transform="translate(1 -1)"/><path class="cls-2" d="M154.6,100.2h.8a1.8,1.8,0,0,1-.9.4S154.5,100.3,154.6,100.2Z" transform="translate(1 -1)"/><path class="cls-2" d="M154.5,100.7a3.18,3.18,0,0,1-.3.9c0-.2-.2-.7-.2-.9S154.5,100.6,154.5,100.7Z" transform="translate(1 -1)"/><path class="cls-2" d="M154.6,100.2c.1.1,0,.3-.1.4s-.4.1-.5,0-.1-.5-.1-.6.1,0,.1,0A1.42,1.42,0,0,0,154.6,100.2Z" transform="translate(1 -1)"/><path class="cls-2" d="M154.6,100.2c0,.2-.5-.1-.5-.1s-.1,0-.2-.1c-.1-.5-.1-.8-.2-1.3a13.64,13.64,0,0,0-.4-1.7,7.84,7.84,0,0,0-.5-1.4,7.93,7.93,0,0,1-.4-.9l-.6-.9a15,15,0,0,0-1.1-1.3,7.53,7.53,0,0,0-.9-.9c-.9-.8-1.6-1.4-2.4-2.2a8.67,8.67,0,0,1,3.3,1.7,10,10,0,0,1,.9,1,17.1,17.1,0,0,1,1.1,1.4c.3.4.4.7.6,1a3.55,3.55,0,0,1,.4.9,8.8,8.8,0,0,1,.5,1.5,6.72,6.72,0,0,1,.3,1.8A2.62,2.62,0,0,1,154.6,100.2Z" transform="translate(1 -1)"/><path class="cls-2" d="M153.8,100c.3.2,0,.4.2.6a5.79,5.79,0,0,1-2.1-.7,19.58,19.58,0,0,1-1.7-1.2c-1.9-1.4-4.2-3-6.3-4.6s-5-3.6-7.1-5a8.94,8.94,0,0,1-1.2-.9,7,7,0,0,1-1.4-1.7c0-.1.3.1.3,0s.1-.2.1-.4a11.55,11.55,0,0,1,1.9,1.4,4.35,4.35,0,0,0,.7.6h-.1c.1.6.3.7.9,1,.2.1.7.1.9.3,1.9,1.3,3.7,2.6,5.7,4s4.4,3.2,6.2,4.5c.7.5,1.1.8,1.6,1.2A5.1,5.1,0,0,0,153.8,100Z" transform="translate(1 -1)"/><path class="cls-2" d="M170.4,78.6a7,7,0,0,1-1.2.3c-.1,0-.1-.4,0-.4S170.1,78.6,170.4,78.6Z" transform="translate(1 -1)"/><path class="cls-2" d="M169,78.9a1.16,1.16,0,0,1-.6.8c.1-.1,0-.6.1-.7S169.1,78.8,169,78.9Z" transform="translate(1 -1)"/><path class="cls-2" d="M169.1,78.9a4.33,4.33,0,0,0-.5.1c-.1,0-.2-.3-.2-.4s-.2-.1-.1-.1h.8C169.2,78.5,169.1,78.8,169.1,78.9Z" transform="translate(1 -1)"/><path class="cls-2" d="M169.1,78.4h0c-.2,0-.6.2-.9,0s-.4-.6-.8-.9a11.76,11.76,0,0,0-1.5-1.1c-1.9-1.3-4.7-3-6.4-4.4s-3.1-2.4-4.6-3.8c-.2-.2-.2-.5-.3-.7a1.79,1.79,0,0,0-1-.6V67a4.35,4.35,0,0,0-.6-.7,6.08,6.08,0,0,1-1-1.4h.3c.1,0-.1-.3,0-.2a4.23,4.23,0,0,1,1.3,1.1,4,4,0,0,0,.7.7c1.8,1.5,3.9,3.3,5.9,4.8s4.5,3.1,6.5,4.5a11.22,11.22,0,0,1,1.6,1.3A1.83,1.83,0,0,1,169.1,78.4Z" transform="translate(1 -1)"/><path class="cls-2" d="M168.3,78.6c.1.1.4.3.1.4a13.61,13.61,0,0,1-2.1.2,25,25,0,0,1-2.5-.2,24,24,0,0,1-2.4-.4c-.6-.1-.9-.2-1.4-.3a8.8,8.8,0,0,1-1.5-.5,13.27,13.27,0,0,1-2.1-.9c-.4-.2-1-.6-1.2-.7a4.06,4.06,0,0,1-1.6-2.3c.9.5,1.5,1,2.5,1.6.2.1.7.4,1.1.6a11.92,11.92,0,0,0,2,.8c.5.2,1,.3,1.4.5a5,5,0,0,0,1.3.3c.5.1,1.8.3,2.3.4.8.1,1.7.1,2.4.2a7.12,7.12,0,0,1,1.6.1C168.5,78.5,168.3,78.5,168.3,78.6Z" transform="translate(1 -1)"/><path class="cls-2" d="M158.9,87.1a7.86,7.86,0,0,1-.5,4.6c-.5-1.4-.7-2.6-1.3-4.1a3.67,3.67,0,0,0-1-1.4,11.07,11.07,0,0,0-1.6-1.1c-.4-.2-.8-.4-1.3-.6s-.7-.2-1.2-.4a7.58,7.58,0,0,0-2.1-.1,2.78,2.78,0,0,0-2.1,1.6,2.3,2.3,0,0,0-.2,2.1,3.18,3.18,0,0,0-.9.3c-.2,0-.3.3-.5.2a2,2,0,0,1-.4-2.5,4.18,4.18,0,0,1,.8-1.2,5.38,5.38,0,0,1,1.2-.9,6.31,6.31,0,0,1,.9-.4c.3-.1.7-.2,1.1-.3a3.75,3.75,0,0,1,1.1-.1,15,15,0,0,1,2,.2c.5.1.9.3,1.4.4a6.11,6.11,0,0,1,1.4.7,14,14,0,0,1,1.8,1.3A4.45,4.45,0,0,1,158.9,87.1Z" transform="translate(1 -1)"/><path class="cls-2" d="M167.6,71.2c1.3.5,2,.8,3.1,1.3a11.2,11.2,0,0,1-3.5-.6c-.2-.1-.7-.2-1.4-.5a20.77,20.77,0,0,1-5.8-3.6,15.62,15.62,0,0,1-1.8-2.1,6.42,6.42,0,0,1-.6-1,9,9,0,0,0-.5-.9,23.46,23.46,0,0,1-1-2.2A20.29,20.29,0,0,0,155,59a2.12,2.12,0,0,0-2-.9,1.55,1.55,0,0,0-1.2.8,3,3,0,0,0-.5,1.3,2.77,2.77,0,0,0,.1,1.3c-.2-.2-.5-.4-.5-.6v-.3a2.2,2.2,0,0,0-.1-.8s-.2.2-.2.1a2.35,2.35,0,0,1,.5-1.3,3,3,0,0,1,1.8-1.2,2.71,2.71,0,0,1,2.7,1.1,24.33,24.33,0,0,1,1.4,2.8,11.21,11.21,0,0,0,1,2.2c.1.3.2.3.3.5a1.42,1.42,0,0,0,.2.4,6.42,6.42,0,0,0,.6,1,25.91,25.91,0,0,0,1.8,2.1,19,19,0,0,0,5.5,3.5A1.84,1.84,0,0,1,167.6,71.2Z" transform="translate(1 -1)"/><path class="cls-2" d="M171.5,68a6.34,6.34,0,0,1,.5,3c-.5-1-.8-1.6-1.3-2.7a11.79,11.79,0,0,0-.8-1.6c-.1-.3-.6-1.1-.8-1.5a7,7,0,0,1-.6-.9,6.07,6.07,0,0,0-.7-1,14.93,14.93,0,0,0-1.2-1.4,2.65,2.65,0,0,1,.6-.5c.4.4.9,1,1.3,1.4a8.74,8.74,0,0,0,.8,1l.6.9c.2.4.7,1.3.9,1.6C171,66.9,171.4,67.7,171.5,68Z" transform="translate(1 -1)"/><path class="cls-2" d="M145.7,99.3a8.64,8.64,0,0,1,1.4,2.9c-.8-.9-1.4-1.5-2.2-2.5a10.92,10.92,0,0,0-.9-1.1,28.13,28.13,0,0,0-5.5-4.1,33.84,33.84,0,0,0-4.3-1.9c-.9-.3-.5-.1-.9-.3a1.23,1.23,0,0,1-.5-.2c-.9-.3-1.6-.5-2.5-.8a6.6,6.6,0,0,1-2.7-1.2,3.78,3.78,0,0,1-1.2-2.8,2.64,2.64,0,0,1,.9-1.9,2.08,2.08,0,0,1,1.2-.5c.1,0-.1.1,0,.2a1.7,1.7,0,0,0,.7.1c.2,0,.2-.1.4-.1s.5.3.6.5a2.88,2.88,0,0,0-1.3-.1,1.91,1.91,0,0,0-1,.5,2,2,0,0,0-.6,1.4,2.57,2.57,0,0,0,.8,2,8.81,8.81,0,0,0,2.4,1.1c.9.3,1.8.6,2.6.8s.3.1,1.4.4a39.59,39.59,0,0,1,4.5,2,26.67,26.67,0,0,1,5.7,4.3C145.3,98.8,145.5,99.1,145.7,99.3Z" transform="translate(1 -1)"/><path class="cls-2" d="M142.1,102.8c1.4.2,2.3.5,3.6.8a11.48,11.48,0,0,1-3.7,0c-.4-.1-1.5-.3-2.2-.5-.3-.1-1.4-.4-1.8-.5a4.87,4.87,0,0,1-1.1-.4,6.12,6.12,0,0,1-1.2-.5c-.4-.2-1.4-.7-1.7-.8s-.3-.1-.3-.2a2.09,2.09,0,0,1,.4-.6c.1-.1,0,0,.3.1s1.2.6,1.6.8.8.3,1.2.5.6.2,1,.3,1.4.4,1.7.5C140.7,102.5,141.8,102.7,142.1,102.8Z" transform="translate(1 -1)"/><path class="cls-2" d="M149.3,89.3a5,5,0,0,1-2.1-.5c-.1,0,.2,0,.2-.1s.5-.3.6-.4A4.12,4.12,0,0,0,149.3,89.3Z" transform="translate(1 -1)"/><path class="cls-2" d="M171.1,59.3a4.19,4.19,0,0,1-.4,1.6c-.1-1-.2-1.8-.4-2.9,0-.2-.2-.6-.3-1.1a4.84,4.84,0,0,0-1.5-2.1,3.4,3.4,0,0,0-2.8-.9,3.75,3.75,0,0,0-2.1,1.2,1.62,1.62,0,0,0-.3,1.4,3.17,3.17,0,0,0,1.3,2.3c-.2-.1-.3,0-.5-.1a2.31,2.31,0,0,1-1.5-2,2.91,2.91,0,0,1,.5-2,5,5,0,0,1,2.6-1.6,3.15,3.15,0,0,1,1.7.1,4.25,4.25,0,0,1,1.7,1,7.94,7.94,0,0,1,1.7,2.5c.2.6.3,1,.4,1.3A6.15,6.15,0,0,0,171.1,59.3Z" transform="translate(1 -1)"/><path class="cls-2" d="M148.5,87.6c0,.1-.3.6-.4.6s-.3-.4-.3-.4-.1,0,0-.1S148.4,87.5,148.5,87.6Z" transform="translate(1 -1)"/><path class="cls-2" d="M147.7,87.8c0,.1.3.3.3.5s-.5.3-.6.4-.1.1-.3.1a2.51,2.51,0,0,1-.7-.4c-.1-.1-.1,0-.1-.1s.3-.1.4-.2a9.25,9.25,0,0,1,1-.3C147.8,87.8,147.7,87.7,147.7,87.8Z" transform="translate(1 -1)"/><path class="cls-2" d="M146.5,88.4a1.61,1.61,0,0,0,.7.4,16.88,16.88,0,0,1-2.4.8,8.18,8.18,0,0,1-2.1.3h-2.1a4,4,0,0,1-1.5-.3c-.4-.2-1.2-.9-1.4-1s-.4-.2-.3-.2a4.94,4.94,0,0,1,1.5.3,16,16,0,0,0,2.1.5,5.44,5.44,0,0,0,1.8,0,11.27,11.27,0,0,0,1.8-.3c.6-.1,1.2-.4,1.9-.5Z" transform="translate(1 -1)"/><path class="cls-2" d="M155.5,82a29.66,29.66,0,0,1-4.2.3,13.12,13.12,0,0,1-2.7-.3,5.07,5.07,0,0,1-.9-.2,6.07,6.07,0,0,1-1.4-.7,4.31,4.31,0,0,1-1.5-1.5,6.94,6.94,0,0,1-.5-1.3,3.07,3.07,0,0,1,.1-1.3,7.51,7.51,0,0,1,1.3-2.5,5.89,5.89,0,0,1,2.5-1.7c.7-.2,1.2-.2,1.5-.3a3.62,3.62,0,0,1,2.6.5c.2.1-.2.2-.3.3a3.39,3.39,0,0,0-.6.6,5.34,5.34,0,0,0-2.2-.2,6.53,6.53,0,0,0-1.1.2,3.36,3.36,0,0,0-1.4.8,3.81,3.81,0,0,0-.8,1.7,2.05,2.05,0,0,0,0,1.1,2.7,2.7,0,0,0,.5,1.1,5.71,5.71,0,0,0,1.3,1.4,3.45,3.45,0,0,0,1.1.5,3.09,3.09,0,0,0,.8.2C151.7,81.3,153.6,81.6,155.5,82Z" transform="translate(1 -1)"/><path class="cls-2" d="M168.2,59.8a8.64,8.64,0,0,1-1,1.6l-.5-.5A14.31,14.31,0,0,0,168.2,59.8Z" transform="translate(1 -1)"/><path class="cls-2" d="M167.2,61.4a1.47,1.47,0,0,1-.6.5,1.21,1.21,0,0,1-.5-.5,1.47,1.47,0,0,1,.6-.5C166.8,61,167.2,61.3,167.2,61.4Z" transform="translate(1 -1)"/><path class="cls-2" d="M166.5,62c0,.1-.1.1-.4.3a13.13,13.13,0,0,1-1.7.9c-.1,0-.6.2-.8.2a2.92,2.92,0,0,1-.9.2,9.32,9.32,0,0,1-1.4.2,5,5,0,0,1-3-.5h-.1l3.1-.3a8.32,8.32,0,0,0,1.3-.2c.1,0,.6-.2.8-.2a6.37,6.37,0,0,0,.7-.2c.5-.2,1.3-.7,1.6-.8s.2-.2.3-.2S166.5,61.8,166.5,62Z" transform="translate(1 -1)"/><path class="cls-2" d="M166.7,60.9c0,.1-.5.4-.6.5a.45.45,0,0,1-.3-.3c-.7-.7-1.4-1.4-2-2.1a8.21,8.21,0,0,1,2.5,1.6C166.4,60.6,166.7,60.8,166.7,60.9Z" transform="translate(1 -1)"/><path class="cls-2" d="M153.1,74.2a3.75,3.75,0,0,1,.1,1.1,4,4,0,0,0-1.2-1,5.74,5.74,0,0,1,.7-.4c.1-.1.1-.2.2-.1S153.1,74,153.1,74.2Z" transform="translate(1 -1)"/><path class="cls-2" d="M139,89.6a3.18,3.18,0,0,1-.9-.3c-.6-.3-.8-.5-.9-1h.1c.1.2,0,0,.3.3A12.13,12.13,0,0,0,139,89.6Z" transform="translate(1 -1)"/><path class="cls-2" d="M154.2,72a7,7,0,0,1-1.3,1.6c-.2.1-.2-.3-.3-.3s-.3-.1-.2-.2a12.49,12.49,0,0,0,.9-1.2c.2-.4.4-.9.6-1.3a2.46,2.46,0,0,0,.1-1.2,3.71,3.71,0,0,0-.4-1.4,1.8,1.8,0,0,1-.2-1h0a14.2,14.2,0,0,1,1.3,1.2,1.49,1.49,0,0,1,.2.9,3.33,3.33,0,0,1-.1,1.4A3.17,3.17,0,0,1,154.2,72Z" transform="translate(1 -1)"/><path class="cls-2" d="M152.9,73.7c0,.1-.1.1-.2.2a1.61,1.61,0,0,1-.7.4.76.76,0,0,1-.4-.2c-.1,0-.2,0-.1-.1s.4-.5.6-.6.2-.3.3-.3a.22.22,0,0,1,.2.2C152.6,73.4,152.9,73.6,152.9,73.7Z" transform="translate(1 -1)"/><path class="cls-2" d="M151.7,74.1s.4.1.3.2-.8.3-.8.3.3-.4.3-.5S151.6,74.1,151.7,74.1Z" transform="translate(1 -1)"/><path class="cls-2" d="M134.9,97.4c0,.1,0,.5-.1.6-.1.5-.3,1.4-.4,1.7s-.1.4-.2.4-.7-.3-.7-.4,0,0,.1-.3a6.58,6.58,0,0,0,.4-1.5c0-.1.1-.4.1-.5v-.6c0-.3-.1-1-.1-1.1a24.54,24.54,0,0,0-.8-2.9,5.91,5.91,0,0,1,1.6,2.9c0,.2.1.9.1,1.3C135,96.8,135,97.2,134.9,97.4Z" transform="translate(1 -1)"/><path class="cls-2" d="M134.2,100.1c0,.1-.3.6-.4.6s-.6-.3-.6-.4.2-.6.3-.6S134.2,100,134.2,100.1Z" transform="translate(1 -1)"/><path class="cls-2" d="M134.1,103.9a5.58,5.58,0,0,1-1.6.7,8.75,8.75,0,0,1-1.6.2,3.64,3.64,0,0,1-1.4-.2,8.87,8.87,0,0,1-2.5-1.4,4.49,4.49,0,0,1-1.2-1.6,3.23,3.23,0,0,1-.3-1.7,5.28,5.28,0,0,1,.8-2.5,2.29,2.29,0,0,1,1.6-.7,3.25,3.25,0,0,1,2.2,1c.3.2.3.5.5.8a5,5,0,0,0-1.2-.8,6.11,6.11,0,0,0-1.3-.3,1.46,1.46,0,0,0-1.2.5,2.81,2.81,0,0,0-.6,2,5.77,5.77,0,0,0,.3,1.4,3.05,3.05,0,0,0,1,1.3,12,12,0,0,0,2.2,1.2,9.64,9.64,0,0,0,1.2.2C132.1,104,133,103.9,134.1,103.9Z" transform="translate(1 -1)"/><path class="cls-2" d="M133.2,100.3a4.35,4.35,0,0,0,.7.4,4.18,4.18,0,0,1-1.5,1.1C132.7,101.3,132.9,100.8,133.2,100.3Z" transform="translate(1 -1)"/><path class="cls-2" d="M133.4,99.6c0,.1-.2.6-.3.6s-.3-.1-.3-.2a7.22,7.22,0,0,1-2.3-2.3c.9.6,1.8,1.1,2.8,1.7C133.3,99.5,133.5,99.6,133.4,99.6Z" transform="translate(1 -1)"/><path class="cls-2" d="M154.5,67.5a1.49,1.49,0,0,1,.3.7c-.4-.4-.9-.8-1.3-1.2h0v-.1A1.52,1.52,0,0,1,154.5,67.5Z" transform="translate(1 -1)"/><path class="cls-2" d="M134.6,86.6a.37.37,0,0,1-.3-.1,5.94,5.94,0,0,1-.4-.8,4.05,4.05,0,0,1,.9.5A.7.7,0,0,1,134.6,86.6Z" transform="translate(1 -1)"/><path class="cls-2" d="M134.2,86.5c-.1.1-.4-.1-.6-.3a8.65,8.65,0,0,0-1-.7,3.18,3.18,0,0,0-.9-.3c-.3,0-.7-.1-1.1-.1s-.8.1-1,.1a1.07,1.07,0,0,1-.6-.2c-.1-.1-.4.1-.3,0a.79.79,0,0,1,.6-.5,8.81,8.81,0,0,1,1.7-.2,5.07,5.07,0,0,1,1.3.2,4.87,4.87,0,0,1,1.1.4,6.22,6.22,0,0,1,1.2.8c.2.2.3.5.2.6s-.7-.4-.9-.4S134.3,86.4,134.2,86.5Z" transform="translate(1 -1)"/><path class="cls-2" d="M152.1,64.8s-.2.1-.3,0a4.35,4.35,0,0,1-.4-.7,4.35,4.35,0,0,1,.7.4Q152.25,64.8,152.1,64.8Z" transform="translate(1 -1)"/><path class="cls-2" d="M152.1,64.6a2.51,2.51,0,0,0-.7-.4c0,.2.4.6.3.7s-.3,0-.5-.2a3.59,3.59,0,0,1-.7-1,3,3,0,0,1-.4-1c-.1-.3-.1-.7-.2-1a6.15,6.15,0,0,1,.1-1.4,1.28,1.28,0,0,1,.5-.7c.1,0,0,.3,0,.5s.1.3.2.5a2.7,2.7,0,0,0,0,.9,2.92,2.92,0,0,0,.2.9c.1.3.2.5.3.8a2.41,2.41,0,0,0,.6.8C152.1,64.3,152.1,64.4,152.1,64.6Z" transform="translate(1 -1)"/><path class="cls-2" d="M128.9,85a1.42,1.42,0,0,1,.6.2.49.49,0,0,0-.3.1,2,2,0,0,1-.7-.1s0-.2.1-.2h0C128.7,85.1,128.8,85,128.9,85Z" transform="translate(1 -1)"/><path class="cls-2" d="M150.9,60.3c0,.1,0,.3-.1.3s-.1-.4-.2-.5v-.5c0-.1.1-.1.2-.1A2.49,2.49,0,0,1,150.9,60.3Z" transform="translate(1 -1)"/><path d="M339.9,278.7a2.83,2.83,0,0,1,1.5-1.1c.1,0,.4-.1.6-.1h.5a9.32,9.32,0,0,1,1.4.2,10.76,10.76,0,0,1,3.6,1.7,16.16,16.16,0,0,1,3.2,3.2,12.6,12.6,0,0,1,2.7,6.6,10.93,10.93,0,0,1-.1,2c0,.7,0,.1-.2.8a10.68,10.68,0,0,1-1,2.3,13,13,0,0,1-1.7,2,21.32,21.32,0,0,0-2.2,2.1,2.45,2.45,0,0,0-.3,2.7,2.1,2.1,0,0,0,1.1.8,1.56,1.56,0,0,0,1.2-.3c.3-.2.5-.8.6-1a7.84,7.84,0,0,0-.2-2.2,8.65,8.65,0,0,1,.7,1,1.72,1.72,0,0,1,.2,1.2h0a2.48,2.48,0,0,1-.8,1.5,5.58,5.58,0,0,1-.8.5,1.7,1.7,0,0,1-1,0c-.2-.1-.2,0-.3-.1a2.21,2.21,0,0,1-1.3-1,2.83,2.83,0,0,1-.4-1.8,3.82,3.82,0,0,1,.6-1.6,22.82,22.82,0,0,1,2.2-2.2,20.23,20.23,0,0,0,1.6-1.9,10.17,10.17,0,0,0,1-2.2,1.88,1.88,0,0,0,.2-.8,4.8,4.8,0,0,0,.1-1.8,10.81,10.81,0,0,0-2.5-6.1,19.88,19.88,0,0,0-2.9-2.9,10.67,10.67,0,0,0-3.2-1.6,8.32,8.32,0,0,0-1.3-.2h-.4a4.33,4.33,0,0,0-.5.1c-.5.1-.9.2-1.3.3" transform="translate(1 -1)"/><path d="M351.5,300.6a9.71,9.71,0,0,1,1.2-2.2c.3-.4.9-1.3,1.4-2a21.25,21.25,0,0,0,1.8-3.1,4.19,4.19,0,0,1,1.2-1.6,2.81,2.81,0,0,1,2.2-.5,3.33,3.33,0,0,1,1.9,1.1,13.28,13.28,0,0,1,1.2,1.6c.6.9,1.5,2.4,1.9,3,.7,1.2,1.4,2.4,1.9,3.2a9.25,9.25,0,0,1,.5,1,18.5,18.5,0,0,1,1.1,2.4,30.65,30.65,0,0,1,1.1,3.6,10.43,10.43,0,0,0,1.5,3.8,2.37,2.37,0,0,0,1.5.9,2.45,2.45,0,0,0,1.6-.6,2.6,2.6,0,0,0,.9-1.6,2.49,2.49,0,0,0-.3-1.7,3.33,3.33,0,0,0-.9-1.1,6,6,0,0,0-1.1-.6,4.51,4.51,0,0,0-1.1-.3,2.66,2.66,0,0,1,1.2-.3h.1a2.23,2.23,0,0,1,1.3.6,4.07,4.07,0,0,1,1.2,1.4,4.13,4.13,0,0,1,.4,2.2,3.09,3.09,0,0,1-1.1,2,3.18,3.18,0,0,1-2,.8,2.72,2.72,0,0,1-2-1.1,11.93,11.93,0,0,1-1.7-4.1,24.18,24.18,0,0,0-1.1-3.5,16.66,16.66,0,0,0-1.1-2.3,9.29,9.29,0,0,1-.5-1c-.4-.8-1.1-2-1.8-3.1-.4-.6-1.4-2.1-1.9-3a14.31,14.31,0,0,0-1.1-1.5,2.9,2.9,0,0,0-1.5-.9,1.8,1.8,0,0,0-1.6.4,4.86,4.86,0,0,0-1.1,1.4,17,17,0,0,1-1.8,3c-.6.7-1.1,1.6-1.4,2C352.6,299.7,352.3,299.9,351.5,300.6Z" transform="translate(1 -1)"/><path d="M381.7,287.7a2.84,2.84,0,0,1,1,.9,3.88,3.88,0,0,1,.6,1.9,2.56,2.56,0,0,1-.8,1.9,3.59,3.59,0,0,1-1.8.7,3.66,3.66,0,0,1-1.8-.4,20.44,20.44,0,0,1-2.8-2.1,8.18,8.18,0,0,0-2.4-1.3,8.09,8.09,0,0,0-1.9-.4,2.49,2.49,0,0,0-.8-.1,2.49,2.49,0,0,1-.8-.1c-.5,0-1.3-.1-1.9-.1a1.55,1.55,0,0,0-1.1.3,1.36,1.36,0,0,0-.6,1.1,10,10,0,0,0,.5,3.4,44.06,44.06,0,0,0,2.6,7.2,9.08,9.08,0,0,0,.7,1.4c.2.3.1.3.2.5a3.29,3.29,0,0,1,.3.6,14.45,14.45,0,0,1,1.1,2.6v.1a.1.1,0,0,0-.1-.1,12.45,12.45,0,0,1-1.6-2.2,3.33,3.33,0,0,1-.3-.6c-.1-.2-.1-.1-.3-.5a10.74,10.74,0,0,1-.7-1.5,46.63,46.63,0,0,1-2.7-7.4,10.62,10.62,0,0,1-.4-1.9,12.1,12.1,0,0,1-.1-1.9,2.26,2.26,0,0,1,1-1.5,3.71,3.71,0,0,1,1.4-.4c.7,0,1.5.1,2,.1a2,2,0,0,1,.8.1,2.49,2.49,0,0,1,.8.1c.5.1,1.2.2,2,.4a11,11,0,0,1,2.6,1.4,19.36,19.36,0,0,0,2.7,2.1,2.74,2.74,0,0,0,2.9-.1,1.61,1.61,0,0,0,.6-1.3,2.39,2.39,0,0,0-.5-1.4,2.1,2.1,0,0,0-1.1-.8,4.1,4.1,0,0,0-1.1-.1,4.25,4.25,0,0,0-1.1.2,3.59,3.59,0,0,1,1-.7" transform="translate(1 -1)"/></g></g></svg>