<svg id="Layer_1" data-name="Layer 1" xmlns="http://www.w3.org/2000/svg" viewBox="0 0 721.13 480"><defs><style>.cls-1{fill:#cfc3b4;}.cls-2,.cls-6{fill:none;}.cls-3{fill:#3c3c3c;}.cls-4{fill:#202020;}.cls-5{fill:#fff;}.cls-6{stroke:#000;stroke-linecap:round;stroke-linejoin:round;stroke-width:0.5px;}</style></defs><title>20</title><g id="_20" data-name="20"><path class="cls-1" d="M719,1V481H-1V1Z" transform="translate(1 -1)"/><path class="cls-2" d="M719.88,119.17a30.79,30.79,0,0,1-5.06-.93c1.92-.17,3.69-2.76,5.06-5.26V102.3c-4,3.89-8.53,10.14-13.43,11.94s-9.68,1-12.21-3c-1.11-1.89-.91-4.21-3.1-4.51-3.16-.44-6.51,3.19-5.92,6.12s3.87,3.38,6.32,4.46,5.75,1.41,6.53,4.74c1.12,4.49-2.05,8.63-6.33,10.89s-10.7,3.11-15.2,3.36c-24.44,1.22-42.2,8.8-65.39,11.68A90.18,90.18,0,0,0,623,123.19c1.95-6,1.94-11.38,6.28-16.85,6.57-8.14,16.93-12.28,27-16,5.49-2.09,12.25-4.38,18.11-4.69s12.92,1.53,12.17,7.87c-.5,3.65-4.5,5.7-6.29,7.93s-4.9,5-3.28,7.6,6.6.66,7.32-1.85c-.57-5.77,2.53-10.3,6.73-13.81s10.18-4.66,14.08-1.53,4.38,8.66,9.86,8.42c1.18-4-1.75-7-4.66-9.31s-6.08-5.3-4.09-9c.52-1,1.65-1.13,2.69-1.48,3.64-1.21,7.35-2.34,11-3.61v-4.4a54.11,54.11,0,0,0-7.1,3c-2,1-3.41,2.26-5.44,1.73C702.8,76,702.4,70.83,704.28,67s5.21-6.34,5.82-10.71c-3.63-.63-6.32.86-8.35,3.93s-1.77,5.7-3.94,8.87c-5.4,7.67-14.6,10.62-24,12.18s-19.12.34-28.59,1.63c-8.2,1.1-15.26,5.58-21.66,10.65-8.81-2.58-17,3.48-25.65,1-1.31-.43-1.94-1.26-3.17-1.31-2.32-.19-3.72,1-5.42,2.48-10,8.9-20.27,15-32.13,22-10.51,6.23-21,9.25-30.59,18.94-15.82,15.91-13.91,26.33-21.29,45.75a40.85,40.85,0,0,1-3.57,7.06c-1.46,2.52-3.8,3.32-6.45,4.56-25.14,11.65-44.15,32.81-63.17,52.24-12.4,12.66-25.48,22.25-41.73,28.69-3,1.19-7.46,2.93-5.85,6.5s6.05,1.08,8.14-.61a8.34,8.34,0,0,1,.08,10.16c-2.15,3.05-5,3.78-8.14,5.2,5.9,3,12,3.63,17.8.22-.3,2.19,7.29,7.32,9.68,6.16,4-1.93,4.85-9.11,6.11-12.9,4.1-12.69,10.68-21.82,21.62-28.36,8.11-4.95,16.19-6.94,23.08-12.93,12.94-11.22,19.89-30.2,36.11-36.51,5.51-2.22,12.39,0,15.52-5.67,3,5.12,7.6,9.59,13.87,8.1-19,12.63-36,21.55-49.94,40.69-9.94,13.74-17,32.34-34,38.53-10.44,3.89-20.59.26-28,9.9,2.18,2.16,4.67,3,7.09,5.18,4.27,4.06-4.89,14.81-6.76,17.65-2.27,2-2.78,3.09-2.53,4.86.38,3.52,4.75,2.38,6.85,1.56,2.73-1,4.54-4.21,6.87-5.87s6.08-1.89,6.48,1.51c-1.43,2.28-3.1,4.53-4.75,6.66a7.49,7.49,0,0,0,8-1.5c2.26-2,3.7-5.31,4.95-8.11,6.5-14.84,22-25.95,32.65-35.64,22.64-20.54,37.74-44.71,59.84-63.1a53.86,53.86,0,0,1,9.49-6.87c5.62-3.06,12-4.05,18-7.43,19.1-11,32.15-28.39,45.11-46a7.17,7.17,0,0,1,2.07-2.44,16,16,0,0,1,3.76-1.22c12.1-2.42,21.54-8.06,34.06-9.92,5.06-.79,10.33.55,16.7-1.67,9.88-3.34,20.79-10.64,31.42-14.13,7.85-2.61,15.66-3.09,23.19-.73.29-.67.6-1.34.92-2Z" transform="translate(1 -1)"/><g id="_Group_" data-name="&lt;Group&gt;"><path class="cls-3" d="M704.33,55.86c0,.25.06.51-.08.61s-.19.47-.33.58a4.08,4.08,0,0,0-.23,1.7l0,.12c0,.12,0-.12,0,.36s-.39,1.07-.75,1.88a56.57,56.57,0,0,1-2.73,5.45A31.57,31.57,0,0,1,698,69.73,30,30,0,0,1,694.91,73a26.3,26.3,0,0,1-5.74,3.92,7.12,7.12,0,0,1-1.58.65,8.67,8.67,0,0,1-2.32.67c-.76.14-1.38.18-2.15.32,1.46-.66,2.39-1.16,4-1.81a6.6,6.6,0,0,0,1.45-.66A21.2,21.2,0,0,0,694,72.4a26.66,26.66,0,0,0,2.91-3.19c.9-1.11,1.24-1.81,2.15-3s2-3.93,2.72-5.32c.36-.82.58-1.53.75-1.88A22,22,0,0,1,704.33,55.86Z" transform="translate(1 -1)"/><path class="cls-3" d="M703.92,57.05a2.14,2.14,0,0,1,.33-.58,7.62,7.62,0,0,1-.44,2.3l0-.13A2.32,2.32,0,0,1,703.92,57.05Z" transform="translate(1 -1)"/><path class="cls-3" d="M685.27,78.26c.77-.14.89-.13,1.53-.29a13.68,13.68,0,0,1-4.1,1.92,27.29,27.29,0,0,1-2.69.62,67.33,67.33,0,0,1-12.16,1c-3.45-.11-7.74-.45-10.33-.56s-2.57-.23-4.54-.25a20.59,20.59,0,0,0-4.38.26,36.77,36.77,0,0,0-8.57,2,107.65,107.65,0,0,0-9.73,5c-1.35.8-3,1.7-3.77,2.21a26.43,26.43,0,0,1-4,1.8h-.12a17.48,17.48,0,0,1,3.44-2.5c.81-.51,2.42-1.4,3.77-2.21,2.69-1.49,7-3.75,9.73-5a33.84,33.84,0,0,1,8.84-2.12,22.66,22.66,0,0,1,4.49-.25,38.69,38.69,0,0,1,4.55.25c2.58.11,6.87.45,10.33.56a53.9,53.9,0,0,0,11.91-1.09c1.15-.21,2.06-.58,2.57-.63C683.73,78.67,684.49,78.52,685.27,78.26Z" transform="translate(1 -1)"/><path class="cls-4" d="M719.88,98.16a7.07,7.07,0,0,0-.7,1,10.74,10.74,0,0,0-.7,1.51c-.38.94-.79,2.13-1,2.84a33.26,33.26,0,0,1-1.72,3.48,19.82,19.82,0,0,1-2.28,3,6.45,6.45,0,0,1-.86.87,14.78,14.78,0,0,1-2.23,1.8,17.47,17.47,0,0,1-7.93,2.75,10.88,10.88,0,0,1-4.36-.73,5.68,5.68,0,0,1-2.65-2.34,4.92,4.92,0,0,1-.54-1.44c-.08-.38,0-.24-.06-.5s-.05-.51,0-.63c.1-.73.07-1.35.15-2-.24,0-.06-.5-.16-.64a6,6,0,0,0-.89,2.85,1.71,1.71,0,0,0,0,.74c.07.39.09.26.16.65a5.27,5.27,0,0,0,.53,1.55,6.17,6.17,0,0,0,3,2.52,10.88,10.88,0,0,0,4.84.79,18,18,0,0,0,8.58-2.9,15.71,15.71,0,0,0,2.37-1.91c.72-.76.15-.22.88-1a23.18,23.18,0,0,0,2.43-3.26,20.24,20.24,0,0,0,1.73-3.6,23.81,23.81,0,0,1,1.44-3.72Z" transform="translate(1 -1)"/><path class="cls-4" d="M719.88,118.87a5,5,0,0,1-.69,0,2.79,2.79,0,0,1-2.1-.91,2.41,2.41,0,0,1-.31-2.27,9,9,0,0,1,1.21-2.44c.48-.82,1.21-1.87,1.89-2.83v-1.56c-.8,1.21-1.91,2.78-2.71,4a11.44,11.44,0,0,0-1.25,2.8,3.54,3.54,0,0,0,.44,3,4.25,4.25,0,0,0,2.68,1.24,7.28,7.28,0,0,0,.84,0Z" transform="translate(1 -1)"/><path class="cls-3" d="M681.07,85.36a13.53,13.53,0,0,1,4.4.48,20,20,0,0,1-2.64.26,11.43,11.43,0,0,0-1.87.11c-.89.13-1.49,0-2.76.24a80.38,80.38,0,0,0-10.36,2.41c-2.46.78-4.15,1.29-5.84,1.92s-1.3.44-2.86,1-4,1.19-5.94,1.79a41.9,41.9,0,0,1-6.75,1.3,6.64,6.64,0,0,1-1.37.06,1.55,1.55,0,0,1-.74,0c-.25,0-.75,0-1,0s-.75,0-.85-.11.41-.32.43-.44c-.38.07-.68.4-1,.35a16.49,16.49,0,0,1-2.41-.45,20.13,20.13,0,0,1,3.86-.21c.13,0,.63,0,.87,0a1.75,1.75,0,0,0,.75,0c.38-.07.86,0,1.37-.06a53.28,53.28,0,0,0,6.48-1.21c1.92-.48,4.25-1.15,5.93-1.66s1.17-.46,2.86-1S665,89,667.43,88.19a82.52,82.52,0,0,1,10.63-2.5C679.44,85.51,680.57,85.41,681.07,85.36Z" transform="translate(1 -1)"/><path class="cls-3" d="M682.8,86.34c1.28.55,2.36.82,3.3,2.07.23.15.39.79.58,1.19a7.72,7.72,0,0,1,.48,1.92,4.9,4.9,0,0,1,.06,1.37c-.07.49,0,.75-.05,1.24a9.67,9.67,0,0,1-.77,2,13.07,13.07,0,0,1-1.27,2.05,9.8,9.8,0,0,1-3.37,2.88.13.13,0,0,1,.14-.11c.88-1,1.36-1.79,2.28-3,.17-.34.79-1.25,1.13-2a9.54,9.54,0,0,0,.62-1.77l.15-1.09a5.14,5.14,0,0,0-.08-1.25,7.22,7.22,0,0,0-.49-1.8,10.41,10.41,0,0,0-.6-1.08A11.2,11.2,0,0,0,682.8,86.34Z" transform="translate(1 -1)"/><path class="cls-3" d="M692.17,104.6a5.18,5.18,0,0,1,2.16.54c1.34,1,1,1.87.67,3.19,0-.12-.07-.38,0-.5h0c-.37,0,.13-1,.17-1.22-.16.23-.3.34-.33.58-.42-.55-.39-.8-1.07-1.26a3.17,3.17,0,0,0-1.66-.48,7.65,7.65,0,0,0-3.55,1.49,10.54,10.54,0,0,0-1.73,1.75,5,5,0,0,0-.8,2.24,3.56,3.56,0,0,0,1,2.74,2,2,0,0,0,1,.63,15.1,15.1,0,0,0,3,1c-1.38.18-2.28.43-3.68-.26a13,13,0,0,1-1.13-.78A4.15,4.15,0,0,1,685,111a8.61,8.61,0,0,1,.49-1.79c.19-.47.31-.45.49-.8s0,0,.31-.45,1.14-1.09,1.72-1.75A9.69,9.69,0,0,1,692.17,104.6Z" transform="translate(1 -1)"/><path class="cls-3" d="M694.67,107.17c0-.24.29-.33.32-.57l-.16,1.21C694.86,107.57,694.65,107.29,694.67,107.17Z" transform="translate(1 -1)"/><path class="cls-3" d="M677.85,103.37a11,11,0,0,1,3.81-2.45,21.84,21.84,0,0,0-2.87,2.83,10.54,10.54,0,0,0-.91,1.23,5.94,5.94,0,0,0-.65,2.89,2,2,0,0,0,1,1.38,2.58,2.58,0,0,0,1.65.6,7,7,0,0,0,3.3-.54A6.54,6.54,0,0,0,685,108a7.88,7.88,0,0,0,1.26-1.93c.11.14.23.15.45.31a2.63,2.63,0,0,1-.24-.9v-.13l.07-.48a2.59,2.59,0,0,1-.57,3.26l-.16.23a7.1,7.1,0,0,1-2.19,1.55,12.25,12.25,0,0,1-4.2.79,5.36,5.36,0,0,1-2-.77,3.15,3.15,0,0,1-1.24-1.78,5.48,5.48,0,0,1,.71-3.37A2.78,2.78,0,0,1,677.85,103.37Z" transform="translate(1 -1)"/><path class="cls-3" d="M686.38,105.29c.09.26.16.64.25.9-.11-.14-.35-.17-.33-.29S686.47,105.55,686.38,105.29Z" transform="translate(1 -1)"/><path class="cls-3" d="M643,94.49c-.13.1-.31.45-.43.44s-.62,0-.48-.07A1.49,1.49,0,0,0,643,94.49Z" transform="translate(1 -1)"/><path class="cls-3" d="M642,95c.26-.08.36.05.61.09a13.9,13.9,0,0,1-2.53,2.13,15.39,15.39,0,0,0-2,1.33c-.67.4-2,1.32-2.85,1.83s-2.44,1.52-3.12,1.93-1.21.7-1.48.91a17.79,17.79,0,0,1-1.87,1c.17-.35-.18-.52,0-.75a8.62,8.62,0,0,1,1.22-.82c.54-.3.82-.51,1.49-.91s2.3-1.42,3.12-1.92,2.17-1.44,2.85-1.84,1.63-1,2-1.33A15.08,15.08,0,0,1,642,95Z" transform="translate(1 -1)"/><path class="cls-4" d="M617.21,90.44a8.87,8.87,0,0,1,3.53.48,5.28,5.28,0,0,1,1.94,1.14c.13,0-.26.09-.15.23s.15-.23.26-.09.44.43.54.57a8.73,8.73,0,0,1,1.21,2.89c-.22-.16-.47-.19-.69-.34.17.52.83,1.1,1,1.5a5.71,5.71,0,0,1,.32,1.28c.43,4,.71,7.41-.57,11.32s-4.11,7.36-6.89,10.45-5.8,6.13-8.56,9.1c-1.45,1.53-2.76,3-4.18,4.25-.7.65-1.43,1.41-2.14,2.06s-1.29,1.31-1.86,1.85-1.28,1.19-1.69,1.5l-.7.52c-.27.21-.57.54-.7.65s-.35-.17-.47-.19-.13,0-.35-.17-.23-.16-.45-.31a8.91,8.91,0,0,0-1-.64l1.21.17.61.08.25,0h.12v-.12c.14-.1,0-.12.28-.21s.28-.21.57-.54,1.12-1,1.69-1.5,1.28-1.19,1.87-1.85l2.12-1.94,4.3-4.23c2.88-3,5.9-6,8.54-9s5.46-6.31,6.72-10.1,1.11-7.16.52-10.95a10.82,10.82,0,0,0-1.64-5.18c-1.14-1.65-3.19-2-5.18-2a19,19,0,0,0-6.42,1.59c-1.95.72-3.81,1.58-5.75,2.18a7.54,7.54,0,0,1-2.91.47,5,5,0,0,1-2.57-1.1c-1.34-1-2.29-2.3-3.83-2.76a5.85,5.85,0,0,0-4.17.54,10.6,10.6,0,0,0-3.18,2.41c-1.6,1.77-2.8,4.2-4,6a18.16,18.16,0,0,1-3.94,4.29,15.39,15.39,0,0,1-3.48,1.87,6.05,6.05,0,0,0-1.47.79c-1.59.77-1.85.86-4.93,2.54s-7.86,4-12.67,6.56-12.47,7-17.92,10.53a78.17,78.17,0,0,0-9.3,7.27,96,96,0,0,0-7.14,8.68c-2.26,2.91-4.22,5.49-6.12,8.44a53.44,53.44,0,0,0-4.8,9.75c-2.24,6.38-4.33,12.53-6.89,18.49-.7,1.52-1.08,2.46-1.64,3.86a10.58,10.58,0,0,0-.63,1.9c-.05.36-.23.71-.26.95l-.1.73-.07.49-.1.73c.06,1.37.26,2.64.21,3.87a12.23,12.23,0,0,1-.81-2.22,11.49,11.49,0,0,1-.18-1.39,2.45,2.45,0,0,1,0-.86l.08-.61.12-.85c.05-.37.2-.59.26-1a14.38,14.38,0,0,1,.64-2c.57-1.41,1.09-2.46,1.67-4,2.57-6.08,4.55-12.37,6.79-18.75a46,46,0,0,1,4.81-9.75c1.89-3,3.87-5.65,6.13-8.56a79.87,79.87,0,0,1,7.28-8.79,63.49,63.49,0,0,1,9.45-7.49c5.57-3.57,13.24-8,18-10.52s9.6-5,12.67-6.55,3.44-1.63,5-2.53a9.08,9.08,0,0,0,1.47-.79,15,15,0,0,0,3.36-1.89,13,13,0,0,0,3.78-4.06,66.65,66.65,0,0,1,4.18-6.11A10.43,10.43,0,0,1,591.74,91a6.59,6.59,0,0,1,4.67-.6,8.29,8.29,0,0,1,2.31,1.19,18.42,18.42,0,0,0,1.88,1.62,4.56,4.56,0,0,0,2.11.91,4.87,4.87,0,0,0,2.54-.52c2-.72,3.67-1.47,5.63-2.19A22.22,22.22,0,0,1,617.21,90.44Z" transform="translate(1 -1)"/><path class="cls-3" d="M622.68,92.06h0a.42.42,0,0,1-.15.23S622.56,92,622.68,92.06Z" transform="translate(1 -1)"/><path class="cls-3" d="M691,115.21a6.85,6.85,0,0,1,3.34,1,5.35,5.35,0,0,1,1.43,1.31,6,6,0,0,1,1.12,1.77,6.23,6.23,0,0,1,.44,1.3c.05.5.24.9.28,1.52a15.84,15.84,0,0,1,0,2.48,5.68,5.68,0,0,1-.2,1.46,7.24,7.24,0,0,1-1.72,3.48c.14-1,.48-2.53.59-3.39l.2-1.45a14.33,14.33,0,0,0,0-2.36,4.64,4.64,0,0,0-.3-1.41c-.18-.52-.29-.66-.46-1.18a7.29,7.29,0,0,0-1.14-1.64,10.07,10.07,0,0,0-1.32-1.17c-.56-.45-1.47-1.07-2.25-1.67Z" transform="translate(1 -1)"/><path class="cls-4" d="M623.72,95.3c.23.15.61.08.7.34a4.35,4.35,0,0,0,.34,1.16A6.28,6.28,0,0,1,623.72,95.3Z" transform="translate(1 -1)"/><path class="cls-4" d="M624.42,95.64a5.86,5.86,0,0,1,2,1.64,2.65,2.65,0,0,1,.41.68,1.34,1.34,0,0,0,.29.53,8.42,8.42,0,0,1,.58,1.2,17.58,17.58,0,0,1,.86,3.71,7.11,7.11,0,0,0-1.11.83,12.68,12.68,0,0,0-.82-4,7.78,7.78,0,0,0-.58-1.19c-.21-.28-.09-.26-.3-.54s-.21-.28-.4-.67a8.24,8.24,0,0,1-.72-1.09C624.44,96.39,624.61,96,624.42,95.64Z" transform="translate(1 -1)"/><path class="cls-3" d="M719.3,135.43a33.77,33.77,0,0,0-4.35-1.07,29,29,0,0,0-8.67,0,17.86,17.86,0,0,1-1.79.37,16.17,16.17,0,0,0-2.06.58,9.93,9.93,0,0,0-2,1,35.52,35.52,0,0,0,4.44-.75c.38-.07.9-.25,1.78-.38a28.06,28.06,0,0,1,8.43-.07,34.51,34.51,0,0,1,3.93.93Z" transform="translate(1 -1)"/><path d="M614.55,99a3.7,3.7,0,0,1,2.55.35c1.25.79,1.35,1.92.68,3.19a2.55,2.55,0,0,1-.59.66,4.9,4.9,0,0,1-2.53,1.26,3.34,3.34,0,0,1-2.43-.33c-1.46-1.07-1.38-2.54-.21-3.87A5.58,5.58,0,0,1,614.55,99Zm1.7,1.1a3.16,3.16,0,0,0-3.57.75,1.68,1.68,0,0,0,.12,2.74,2.91,2.91,0,0,0,3.43-.64C617.22,102.08,617.4,100.74,616.25,100.09Z" transform="translate(1 -1)"/><path d="M612.68,100.84a3.16,3.16,0,0,1,3.57-.75c1.15.65,1,2,.1,2.86a2.74,2.74,0,0,1-3.43.65A1.64,1.64,0,0,1,612.68,100.84Zm3-.09c-.46-.31-.59-.2-1-.13a2.07,2.07,0,0,0-1.07.6,1,1,0,0,1-.29.33,1,1,0,0,0,.3,1.4,1.29,1.29,0,0,0,1,.13c.51,0,.66-.28,1.08-.59A1.31,1.31,0,0,0,615.67,100.75Z" transform="translate(1 -1)"/><path class="cls-3" d="M628.68,103.41c0,.24.17.52,0,.75s-.8.38-1.06.47-.09-.26-.07-.38A3.83,3.83,0,0,1,628.68,103.41Z" transform="translate(1 -1)"/><path class="cls-3" d="M698.19,128.34a9.85,9.85,0,0,1-3.23,2.78,15.11,15.11,0,0,1-2.4,1.27,52.28,52.28,0,0,1-7.9,2.51,71.51,71.51,0,0,1-7.34,1.09c-1.87.12-2,.1-3.5.27s-1.51.16-3.26.29-4.74.21-6.89.54a36,36,0,0,0-6.65,1.56,5.21,5.21,0,0,0-1.32.56c-.38.07-.4.19-.66.28a3.63,3.63,0,0,0-.79.39c-1.06.47-1.89,1.1-2.94,1.57a10.47,10.47,0,0,1,1.71-1.62c.27-.21.62,0,1-.11,0-.12-.48-.06-.35-.17s.4-.19.54-.3.66-.28.92-.37a3,3,0,0,0,.66-.28,12,12,0,0,1,1.43-.54,42.44,42.44,0,0,1,6.8-1.67c2.15-.32,5.15-.53,6.9-.66s1.87-.11,3.26-.29,1.51-.17,3.38-.28a69.93,69.93,0,0,0,7.22-1.11,39.45,39.45,0,0,0,7.64-2.42,11.46,11.46,0,0,0,2.26-1.17c.68-.4.94-.49,1.33-.69A6.82,6.82,0,0,1,698.19,128.34Z" transform="translate(1 -1)"/><path d="M614.69,100.62c.39-.07.52-.18,1,.13a1.31,1.31,0,0,1,0,1.74,1.78,1.78,0,0,1-1.08.59,1.32,1.32,0,0,1-1-.13,1,1,0,0,1-.3-1.4c0-.13,0-.13.29-.33A1.27,1.27,0,0,1,614.69,100.62Z" transform="translate(1 -1)"/><path class="cls-3" d="M627.57,104.25c.12,0,.09.26.07.38a5.16,5.16,0,0,1-.92.37A2.53,2.53,0,0,1,627.57,104.25Z" transform="translate(1 -1)"/><path class="cls-4" d="M627.52,104.62a7.68,7.68,0,0,0,1.06-.48c0,.5-.07,1.35,0,2a23.05,23.05,0,0,1-1.43,5.87,26.42,26.42,0,0,1-1.23,2.68,27.59,27.59,0,0,1-1.59,2.51,11,11,0,0,0-.77,1.13c-.09-.26-.06-.5-.14-.76-.09.6.14,1.63-.64,1.89h0c-.75,1-1.65,2.13-2.41,3.14-1.48,1.77-3.52,4-5.09,5.49a21.53,21.53,0,0,0-1.59,1.64,12.37,12.37,0,0,1-3.18,2.41c.9-1.12,1.36-1.8,2.38-2.89a18.25,18.25,0,0,1,1.59-1.64c1.43-1.42,3.61-3.72,4.95-5.39s3-3.8,3.93-5.16.95-1.48,1.59-2.5.67-1.27,1.21-2.56a20.8,20.8,0,0,0,1.4-5.63A6.56,6.56,0,0,0,627.52,104.62Z" transform="translate(1 -1)"/><path class="cls-3" d="M704.14,134.61a14.29,14.29,0,0,1-1.45.67c-.78.26-1.44.54-2.6.88-.52.17-1.3.44-2.46.77-3.27,1.29-7.22,3-10.79,4.59s-7.94,3.73-11.49,5.23a86,86,0,0,1-10.78,3.59,63.34,63.34,0,0,1-8.46,1.19,32.71,32.71,0,0,1-4.73.21c-1.5,0-.25,0-2,0a13.7,13.7,0,0,0-5.41.62c-2.84.84-7.26,2.34-11.18,3.78a108.72,108.72,0,0,1-21.13,6,9.43,9.43,0,0,1-3.58-.12l-1.22-.17c1.43-.42,3.14-.31,4.69-.72,9.2-2.07,30.14-10.21,36.59-10.31s.37.05,3.09.05,2.1,0,4.74-.22a49.76,49.76,0,0,0,8.32-1.08A95.24,95.24,0,0,0,675,146.07c3.55-1.49,7.79-3.51,11.37-5.25s7.65-3.4,10.92-4.68c1.18-.46,2.08-.71,2.6-.88A16,16,0,0,1,704.14,134.61Z" transform="translate(1 -1)"/><path class="cls-4" d="M598.92,107.24a9.38,9.38,0,0,1,3.61.75,11.18,11.18,0,0,1,1.73,1l.22.15.23.16c.21.27.89.74,1,1a4.73,4.73,0,0,1,1.21,2.89c-.63-.83-1.28-1.54-2-2.38-.1-.14-.66-.59-.87-.87l-.23-.15-.22-.16a18.22,18.22,0,0,0-1.6-1C600.78,108.12,600,107.76,598.92,107.24Z" transform="translate(1 -1)"/><path d="M600.18,109.77c.25,0,.37,0,.47.19a7,7,0,0,1,3.56,3c1.19,2.15.9,4.22,0,6.44a1,1,0,0,1-.33.58c-2.76,3.83-6.6,5.65-11.15,4.53a5.67,5.67,0,0,1-4.1-3.54,7,7,0,0,1,.42-6.63C591.44,110.3,595.49,108.75,600.18,109.77Zm3.05,9.34c1.87-3.71.5-7.24-3.41-8.52a8.17,8.17,0,0,0-9.85,4.09c-2,3.57-.81,7.69,3.22,9S601.36,122.81,603.23,119.11Z" transform="translate(1 -1)"/><path class="cls-4" d="M593,107.79a14.37,14.37,0,0,1,3.5-1.13,29,29,0,0,1-3.09,1.81c-.28.21-1.08.59-1.77,1.12a30.45,30.45,0,0,0-4.34,3.61,17.68,17.68,0,0,0-2,2.7,8,8,0,0,0-.65,1.15c-.34.69-.72,1.63-1.08,2.45a22.87,22.87,0,0,0-1.15,5.66,12.86,12.86,0,0,0,.33,3,2.37,2.37,0,0,0,.8,1.35,2.31,2.31,0,0,1-1.46-1.07,3.26,3.26,0,0,1-.62-1.82,6.34,6.34,0,0,1,0-1.49,25.38,25.38,0,0,1,1.18-5.9,17.83,17.83,0,0,1,1.22-2.56,8.13,8.13,0,0,1,.66-1.15,27.54,27.54,0,0,1,2.12-2.8,26.38,26.38,0,0,1,4.49-3.84C592,108.39,592.63,108,593,107.79Z" transform="translate(1 -1)"/><path d="M599.82,110.59c3.91,1.28,5.28,4.81,3.41,8.52a8.6,8.6,0,0,1-10.16,4.54c-4-1.3-5.2-5.42-3.22-9A8.38,8.38,0,0,1,599.82,110.59Zm2.69,3a5.16,5.16,0,0,0-3.14-2.42,6.67,6.67,0,0,0-4.59.11,9.9,9.9,0,0,0-3.91,3.18c-.14.11-.17.35-.31.45a6.37,6.37,0,0,0-.25,5.42,4.29,4.29,0,0,0,3.12,2.53,8,8,0,0,0,9-4.08A5.2,5.2,0,0,0,602.51,113.56Z" transform="translate(1 -1)"/><path class="cls-4" d="M623.53,117.44c0,.24.17.52.14.76s0-.12,0,.13a2.47,2.47,0,0,1-.76,1A5.7,5.7,0,0,1,623.53,117.44Z" transform="translate(1 -1)"/><path d="M599.48,111.28a4.73,4.73,0,0,1,3.13,2.42,5.36,5.36,0,0,1-.11,5.31,7.93,7.93,0,0,1-9,4.08,4.27,4.27,0,0,1-3.12-2.53,6.37,6.37,0,0,1,.25-5.42,1,1,0,0,1,.31-.45,9,9,0,0,1,3.9-3.18A6.16,6.16,0,0,1,599.48,111.28Zm-2.65,1.25a2.31,2.31,0,0,0-3.12.19,1.78,1.78,0,0,0,0,2.84,2.47,2.47,0,0,0,3.12-.19A1.86,1.86,0,0,0,596.83,112.53Z" transform="translate(1 -1)"/><path class="cls-4" d="M622.89,119.34c.51-.06.59-.67.78-1.14a7.22,7.22,0,0,1-.08,2.35l-.18,1.33a33.78,33.78,0,0,1-1.26,4.66c-.4,1.06-.82,2.36-1.17,3.06a3.75,3.75,0,0,0-.37.94,12.08,12.08,0,0,1-.88,1.86,33.45,33.45,0,0,1-2.34,4.38c-.49.93-1,1.61-1.13,1.95a21.7,21.7,0,0,1-2.52,3,24.7,24.7,0,0,1,1.7-3.36c.17-.34.64-1,1.14-2s1.79-3.09,2.32-4.26a7.84,7.84,0,0,1,.86-1.74,2.84,2.84,0,0,1,.36-.82c.34-.69.75-1.87,1.14-2.93s1-3.46,1.25-4.54a4.16,4.16,0,0,1,.3-1.32,2.12,2.12,0,0,1,.08-1.47Z" transform="translate(1 -1)"/><path class="cls-5" d="M593.72,112.6a2.45,2.45,0,0,1,3.13-.19,1.74,1.74,0,0,1,0,2.72,2.46,2.46,0,0,1-3.12.19C592.69,114.68,592.86,113.47,593.72,112.6Z" transform="translate(1 -1)"/><path class="cls-3" d="M653.46,139.27c.13,0,.35.18.47.19a7,7,0,0,0-.88.13C652.93,139.57,653.46,139.27,653.46,139.27Z" transform="translate(1 -1)"/><path class="cls-3" d="M653.46,139.27c-.24,0-.39.2-.53.3a8.71,8.71,0,0,1-1.88.12,7.86,7.86,0,0,0-1.49,0,47.44,47.44,0,0,0-5.89.55c-3.28.41-5.59,1-8.78,1.64s-6,1.64-9.53,2.65c-1.68.51-5.54,1.59-7.38,2.33a28.63,28.63,0,0,1-3.2.8,15.16,15.16,0,0,1-4,.43c.14-.1.26-.09.4-.19a10.2,10.2,0,0,1,3.26-1.16c.64-.16,2.17-.45,3.2-.8,1.94-.6,5.81-1.68,7.51-2.31,3.48-1,6.44-1.84,9.65-2.64a72,72,0,0,1,8.89-1.62,45.66,45.66,0,0,1,6-.53,11.57,11.57,0,0,0,1.49,0A6.51,6.51,0,0,1,653.46,139.27Z" transform="translate(1 -1)"/><path class="cls-4" d="M583.5,138.31a30.27,30.27,0,0,0,.66,3.31,8.94,8.94,0,0,0,.73,1.84,11.44,11.44,0,0,0,1.47,1.93,7.92,7.92,0,0,0,1.1,1,18,18,0,0,0,1.46,1.07,22.92,22.92,0,0,0,2.7,1.11,8.14,8.14,0,0,0,1.56.34,10,10,0,0,0,2.1,0,4.28,4.28,0,0,0,1.8-.49,4.74,4.74,0,0,1-4.15,1.41,11.32,11.32,0,0,1-1.81-.37,15.2,15.2,0,0,1-2.92-1.27,12,12,0,0,1-1.59-1.09,9.85,9.85,0,0,1-1.2-1.15,14.12,14.12,0,0,1-1.56-2.2,18.1,18.1,0,0,1-.84-2A5.91,5.91,0,0,1,583.5,138.31Z" transform="translate(1 -1)"/><path class="cls-3" d="M605,168.15a6.9,6.9,0,0,1-.45,4.15,16.1,16.1,0,0,1-1.2,2.44,43.54,43.54,0,0,1-7.78,9.7,90.77,90.77,0,0,1-9.32,7.39,7.22,7.22,0,0,0,.49-.8,21.54,21.54,0,0,0-3.22,2.65l-.14.11h0c-1.48.91,1-.62-1.48.91s-8.39,5.16-12.42,7.45c-2,1.09-6.61,3.92-9.14,5.18-.66.28-1.45.67-2.11.95a2.61,2.61,0,0,1-.66.28,3.73,3.73,0,0,0-.8.39,17.25,17.25,0,0,1-3.62,1.11,26.75,26.75,0,0,1,3.24-1.91,7.45,7.45,0,0,0,.79-.38c.8-.39,1.72-.76,2.65-1.25,2.68-1.49,6.59-3.8,9-5.2,4.84-2.8,8.32-4.67,12.82-7.65a101.78,101.78,0,0,0,13-9.85,38.06,38.06,0,0,0,7.47-9.25c.5-.92,1-1.85,1.19-2.32C604.07,170.62,604.44,169.68,605,168.15Z" transform="translate(1 -1)"/><path class="cls-3" d="M586.63,191.13a5.43,5.43,0,0,0-.48.8c-.16.23.29-.33-.14.11a22.72,22.72,0,0,1-2.73,1.85l.13-.1A33.91,33.91,0,0,1,586.63,191.13Z" transform="translate(1 -1)"/><path class="cls-3" d="M586.27,192a14.54,14.54,0,0,1-2.09,2.56c-.29.33-1,1-1.73,1.74-1.7,1.63-4.83,4.54-6.77,6s-2.36,1.9-4.16,3.26-4,2.92-6.43,4.44c-1.22.7-3.76,2.09-5.35,2.86a8.42,8.42,0,0,0-1.2.58,1.59,1.59,0,0,1-.65.28c-.26.09-.66.28-.92.37a14.27,14.27,0,0,1-3.71.85l.14-.11a16.5,16.5,0,0,1,3.2-1.66,4.27,4.27,0,0,1,.8-.39,1.46,1.46,0,0,0,.65-.28,12.45,12.45,0,0,0,1.2-.58c1.45-.66,4-2,5.21-2.75,2.42-1.4,4.37-3,6.29-4.33s2.23-1.8,4.17-3.27,4.9-4.15,6.75-5.88c.73-.77,1.16-1.2,1.59-1.64s-.29.33.15-.22S585.45,192.46,586.27,192Z" transform="translate(1 -1)"/><path class="cls-4" d="M553.79,212.87a8,8,0,0,1-1.13,1,8.26,8.26,0,0,1-2.14,1.19,2.41,2.41,0,0,0-.81.51c-.82.5-1.63,1-2.56,1.5-2.7,1.61-6.49,3.94-8.84,5.72s-5.38,4-7.06,5.34-1.81,1.49-3,2.57-1.43,1.41-2.59,2.62c-.57.54-1.74,1.86-2.47,2.63-.43.44-1,1.1-1.45,1.53s-1,1.1-1.46,1.66-1,1.1-1.47,1.66a9.82,9.82,0,0,1-1.59,1.63,15.83,15.83,0,0,0-1.45,1.54,5.54,5.54,0,0,1-.84.75v-.12s0-.75,0-.63a2.74,2.74,0,0,0-.49.8l-.05.37v.12l-.14.1a11.73,11.73,0,0,1-1.4,1.17,8.46,8.46,0,0,1-2.79,1.35,11.61,11.61,0,0,1,2.28-2.16,16,16,0,0,0,1.4-1.17c2-1.71,4.16-4.13,6-6.1.45-.56,1.14-1.08,1.59-1.64s1-1.1,1.45-1.54c.73-.76,1.88-2,2.47-2.63,1.16-1.2,1.45-1.53,2.59-2.61a21.86,21.86,0,0,1,3-2.57c1.8-1.36,4.58-3.58,7-5.35s6.14-4.1,9-5.7c.94-.49,1.77-1.12,2.56-1.5a5.67,5.67,0,0,0,.82-.51A20.91,20.91,0,0,1,553.79,212.87Z" transform="translate(1 -1)"/><path class="cls-4" d="M542.48,207.72a14.06,14.06,0,0,1,3.52-1.25,32.06,32.06,0,0,1-3.25,2,20.79,20.79,0,0,1-2.91,1.33c-1.72.76-5.7,2.69-7.26,3.21-3,1.32-7.49,3.18-9.22,4.06a9.87,9.87,0,0,0-1.08.59c-.93.5-1.17.46-2.11.95a34.39,34.39,0,0,0-5.72,3.8c-.85.75-2,1.83-2.71,2.6s-1.64,2-2.25,2.78-.79,1.26-1.1,1.71-.2.59-.6.78-.59-.2-1,0c.33-.57.34-.69.67-1.27a15.85,15.85,0,0,1,1.22-1.69c.61-.78,1.52-2,2.25-2.79s2-2,2.84-2.7a29.92,29.92,0,0,1,5.73-3.79c.93-.49,1.31-.57,2.11-.95a4.59,4.59,0,0,1,1.06-.48c1.17-.45,3.29-1.4,5.12-2.14.8-.38,3.05-1.44,4.36-2,2.12-1,5.3-2.49,7.28-3.33C540.75,208.6,542,208,542.48,207.72Z" transform="translate(1 -1)"/><path class="cls-4" d="M501,189.5c0,.24,0,.75,0,.87l0,.12a6.69,6.69,0,0,1-1.32.56c-1.45.67-2.49,1-3.82,1.71s-2.25,1.05-4,1.8c-.79.39-2.78,1.35-3.86,1.95-.53.3-1.48.91-2.28,1.29s-1.5,1-2.32,1.54a46.34,46.34,0,0,0-8.31,7.28c-.72.77-1.31,1.43-1.6,1.76a24,24,0,0,1-2.78,3.09,26,26,0,0,1,2-3.69c.3-.33,1.18-1.33,1.61-1.76l.14-.11a.36.36,0,0,0,.26-.09c.14-.1.12,0,.38-.07a5.76,5.76,0,0,0,1.09-.71c-.23-.16-.75,0-.87,0s-.14.11-.12,0c.29-.33.72-.76,1-1.09l2.12-1.94c.71-.65,1.54-1.28,2.23-1.8a15.39,15.39,0,0,1,2.34-1.66c.81-.51,1.62-1,2.31-1.54s1.75-1,2.29-1.29a40.4,40.4,0,0,1,4-2c1.72-.76,2.51-1.15,4-1.81s2.37-1,3.95-1.69A14.93,14.93,0,0,1,501,189.5Z" transform="translate(1 -1)"/><path class="cls-3" d="M528.74,214c-.52.18-.42.32-1.08.6a7.53,7.53,0,0,1-2.3.55,10.3,10.3,0,0,1-2.34-.08,12.34,12.34,0,0,1-3.45-1.09,10.28,10.28,0,0,1-1.79-1.36,7.62,7.62,0,0,1-1.68-2.22c-.1-.13-.19-.39-.29-.53-.51-.82-1.53-2.44-1.93-3.12s-.91-1.48-1.12-1.76a39.85,39.85,0,0,1-2.92-4.86c1.5,1.69,2.69,3,4.15,4.91.21.27.7,1.21,1.23,1.9a21.31,21.31,0,0,1,2,3.49,5,5,0,0,0,1.37,1.8A5.2,5.2,0,0,0,520,213.3a12.37,12.37,0,0,0,2.85.89c.61.08,1.74,0,2.1,0C526.48,214.19,527.37,214.06,528.74,214Z" transform="translate(1 -1)"/><path class="cls-4" d="M512.59,208.93c.23.15.89.74.86,1s-.13,0-.77.15-1.64.27-2.79.48a75.34,75.34,0,0,0-8.06,1.86c-1.3.44-3.08.82-4.36,1.13s-3,1-4,1.19-1.54.4-2.2.69a14.78,14.78,0,0,1-1.66.39c.29-.34,0-.87.27-1.08s.4-.19.92-.37a17,17,0,0,1,2.2-.69,35.57,35.57,0,0,1,3.88-1.2c1.28-.32,3.07-.69,4.37-1.13,2.58-.76,5.51-1.35,7.94-1.88,1.26-.2,1.78-.37,2.79-.48C512.35,208.9,512.36,208.77,512.59,208.93Z" transform="translate(1 -1)"/><path class="cls-4" d="M488.64,211.08c.05-.36.38-.94.43-1.3a6,6,0,0,1,.65,1.57,9.29,9.29,0,0,1,.17,3.25,2.23,2.23,0,0,0-.94.49,7.57,7.57,0,0,0,0-3.35A.75.75,0,0,1,488.64,211.08Z" transform="translate(1 -1)"/><path class="cls-4" d="M476.1,205a6.39,6.39,0,0,1-1.09.72c-.26.08-.26.08-.38.07a.38.38,0,0,0-.26.09c.13-.11.58-.67.72-.77l.14-.11C475.37,204.92,475.85,205,476.1,205Z" transform="translate(1 -1)"/><path class="cls-4" d="M475.09,205.13c-.4.19-.33.57-.72.77a10.32,10.32,0,0,0-2.79,1.35,39.52,39.52,0,0,0-3.61,2.84c-2.25,1.92-5.25,4.85-7.26,6.81s-4.73,4.67-5.9,6c-2.59,2.61-3.47,3.61-5.77,5.89s-2.74,2.84-5.5,5.81-7.79,8-11.24,11.45c-1.72,1.75-4.14,4-5.89,5.88a14.76,14.76,0,0,1-1.41,1.29,14.66,14.66,0,0,0-1.3,1.31l-1.29,1.31c-.43.43-.85.75-1.28,1.19s-.86.87-1.28,1.18a3.78,3.78,0,0,1-.71.65c.18-.35.07-.49.36-.82s.71-.65,1.14-1.08a12.55,12.55,0,0,0,1.28-1.19l1.3-1.31a13.78,13.78,0,0,1,1.41-1.29,17.15,17.15,0,0,0,1.44-1.41c1.86-1.85,4.28-4.12,6-5.86,3.46-3.49,8.5-8.62,11.38-11.56s3.33-3.51,5.63-5.79,3.17-3.28,5.76-5.9c1.3-1.3,4-4,6-6s5.14-5,7.41-7a43.34,43.34,0,0,1,3.87-2.93A6.13,6.13,0,0,1,475.09,205.13Z" transform="translate(1 -1)"/><path class="cls-4" d="M490,214.74a3.12,3.12,0,0,1-.27,1.07c-.14.11-.78.27-.88.13s.08-.61.22-.71S489.73,214.82,490,214.74Z" transform="translate(1 -1)"/><path class="cls-4" d="M488.94,215.21c-.16.23,0,.62-.22.71s-.89.13-1.27.2C488,215.82,488.4,215.51,488.94,215.21Z" transform="translate(1 -1)"/><path class="cls-4" d="M489.72,215.81c.12,0,0,.12,0,.25a23.9,23.9,0,0,1-2.27,4.76c-1.86,2.72-4.65,5.93-6.46,8.28s-4.54,5.07-5.87,6.62c-2.62,2.86-3.52,4-6.07,6.35s-3,3.05-6.39,5.93a104.42,104.42,0,0,1-14.46,10.52,57.69,57.69,0,0,1-8.5,4.15,13.11,13.11,0,0,1-2.08.71c-.65.28-1.29.44-1.95.72l-.12,0h0a.66.66,0,0,0-.4.2c-.52.17-1,.23-1.54.4a9.88,9.88,0,0,1-1.79.38c-.52.17-1.52.28-1.78.37a13.71,13.71,0,0,1-3.09-.05,21.06,21.06,0,0,1,3.08-.82,14,14,0,0,0,1.79-.37,15.82,15.82,0,0,0,1.78-.37,12.66,12.66,0,0,0,1.94-.6c.66-.28,1.3-.44,2-.73a9.6,9.6,0,0,1,2.08-.7,71.88,71.88,0,0,0,8.36-4.05,111.52,111.52,0,0,0,14.31-10.42c3.37-2.88,3.94-3.42,6.38-5.81s3.31-3.38,5.93-6.24c1.31-1.43,4-4.41,5.73-6.52s4.61-5.56,6.29-7.92a26.59,26.59,0,0,0,2.08-4.3c.22-.71,0-.12,0-.24C489,215.83,489.58,215.92,489.72,215.81Z" transform="translate(1 -1)"/><path class="cls-4" d="M510.4,231.17a3.46,3.46,0,0,1,1.23.91c-.36-.05-.88.13-1.12.09s-.35-.17-.58-.32a10.85,10.85,0,0,0-2.74-.75,2.67,2.67,0,0,0,.58-.66A6.19,6.19,0,0,1,510.4,231.17Z" transform="translate(1 -1)"/><path class="cls-4" d="M506.92,230.32c.14-.11.73.1,1,0-.14.11-.45.56-.59.66s-.62,0-.62,0S506.78,230.42,506.92,230.32Z" transform="translate(1 -1)"/><path class="cls-4" d="M506.66,230.41s.14-.11.12,0-.08.61-.34.7c0,0,.5-.06-.12,0a15.57,15.57,0,0,0-3.73,1,34.36,34.36,0,0,0-7,4.73c-1.83,1.61-4.37,3.86-5.52,5.06a68.61,68.61,0,0,0-5.27,5.84c-2.08,2.56-2.38,2.9-5.08,6.36s-7.08,10.05-9.85,14.87c-1.45,2.4-3.58,6.2-4.95,9-.35.7-.83,1.5-1.17,2.19s-.71,1.52-1,2.21-.7,1.51-1,2.09a12.41,12.41,0,0,0-.89,2,20.67,20.67,0,0,0-.91,2.11c-.69,1.39-1.19,2.31-1.86,3.58a21.59,21.59,0,0,1,1.11-3.56c.17-.35.71-1.52.91-2.11s.69-1.39.89-2l1-2.09,0-.12c.34-.7.7-1.51,1.05-2.21s.84-1.62,1.18-2.31c1.38-2.79,3.65-6.68,5.09-9.09,2.89-4.8,7.41-11.49,10-15s3-3.92,5.1-6.48a70.39,70.39,0,0,1,5.39-5.82,58.38,58.38,0,0,1,5.66-5.17,36.3,36.3,0,0,1,7.11-4.84A13.64,13.64,0,0,1,506.66,230.41Z" transform="translate(1 -1)"/><path class="cls-4" d="M506.56,231.14c.16-.23.49.06.63,0a12.46,12.46,0,0,1-1,1.1C506.32,232,506.41,231.36,506.56,231.14Z" transform="translate(1 -1)"/><path class="cls-4" d="M514.85,243.8c.12,0,0,.62,0,.62l0,.12c0,.12-.43.44-.57.54l0-.12c0-.12-.09-.26,0-.36A2.7,2.7,0,0,0,514.85,243.8Z" transform="translate(1 -1)"/><path class="cls-4" d="M514.41,245.22c.17-.35.41-.31.57-.54a7.28,7.28,0,0,1-1,2.59,18,18,0,0,1-2.17,3.17c-1.52,2-3.83,4.43-5.43,6.19s-3.92,4.16-5.1,5.49c-2.32,2.53-3.07,3.41-5.26,5.84s-2.62,2.86-5.52,5.93-8.51,8.73-12.27,12.67c-1.88,2-5,4.89-7.27,6.93-.57.54-1.26,1.06-1.83,1.6a19,19,0,0,1-1.7,1.51c-.55.41-1.12,1-1.67,1.37s-1.13,1-1.54,1.28a17,17,0,0,1-1.66,1.26,21,21,0,0,1-2.61,1.87l2.81-2.46.28-.21a12.43,12.43,0,0,1,1.38-1c.42-.32,1-.86,1.54-1.28s1.13-1,1.68-1.38,1.14-1.08,1.69-1.5,1.26-1.06,1.83-1.6c2.25-1.92,5.27-5,7.13-6.82,3.87-3.81,9.24-9.51,12.26-12.56s3.35-3.63,5.52-5.93,2.92-3.19,5.25-5.71c1.15-1.21,3.48-3.74,5.07-5.38s3.92-4.16,5.42-6.06c.74-.89,1.4-2,2-2.94A7.07,7.07,0,0,1,514.41,245.22Z" transform="translate(1 -1)"/><path class="cls-3" d="M435.41,264h0c0,.12-.26.08-.26.08Z" transform="translate(1 -1)"/><path class="cls-3" d="M435.15,264a.49.49,0,0,1,.38-.07,20.92,20.92,0,0,1-3.38,3.87c-.27.21-.71.65-1.57,1.52a41.49,41.49,0,0,0-3.83,4.43c-.91,1.23-1.67,2.24-2.46,3.5s-1.15,2.07-2,3.69a60.84,60.84,0,0,0-3,7c-.58,1.53-1.21,3.42-1.45,4.26-.66,2.14-.92,3.09-1.52,4.74-.38.94-.58,1.53-1,2.47a32,32,0,0,1,1.26-8.25c.24-.83.89-2.85,1.47-4.38s2.25-5.51,3.09-7.13,1.32-2.41,2.11-3.67,1.55-2.26,2.47-3.5a56.53,56.53,0,0,1,4-4.53,13,13,0,0,1,1.55-1.4A10.28,10.28,0,0,1,435.15,264Z" transform="translate(1 -1)"/><path class="cls-3" d="M454.69,284.93c1.82-1.48,3.17-2.29,4.95-3.53a20,20,0,0,1-4,4.77,12.22,12.22,0,0,1-2.08,1.58,60.07,60.07,0,0,1-5.29,3.36c-.8.38-1.87,1-2.53,1.26s-.4.19-1.19.58-2,.84-3.15,1.3a38.92,38.92,0,0,1-5.43,1.6,19.63,19.63,0,0,1-3.31.66,9.77,9.77,0,0,1-5.57-.89c.64-.16,1.14-.21,1.78-.37a20.73,20.73,0,0,1,3.68-.61c.62,0,2-.34,3.17-.56a43.41,43.41,0,0,0,5.29-1.5c1.17-.45,2.35-.91,3.13-1.18s.54-.29,1.19-.57,1.74-.88,2.39-1.16a55.12,55.12,0,0,0,5.16-3.26C453.85,285.68,454.42,285.14,454.69,284.93Z" transform="translate(1 -1)"/><path class="cls-3" d="M419.81,256.72a4.23,4.23,0,0,1-.43,1.3c0,.25-.14.11-.15.23a13.46,13.46,0,0,0-1.76,2,19.61,19.61,0,0,0,1.67-1.38,7,7,0,0,1-1.53,2.14,15.06,15.06,0,0,1-1.59,1.64,50.78,50.78,0,0,1-4.2,3.51c-.67.4-1.5,1-2.17,1.43a3.54,3.54,0,0,1-1.08.6c-.67.4-1.73.87-2.82,1.59s-4,2.29-5.21,2.75-2.73,1-3.37,1.15a21.06,21.06,0,0,1-5.9.55c2-.85,3.27-1.29,5.49-2.1.52-.17,2.08-.7,3.25-1.16s4-1.81,5-2.4,2-1.09,2.68-1.49.42-.31.95-.61a22.17,22.17,0,0,0,2.05-1.33,34.73,34.73,0,0,0,4.06-3.4c.72-.77,1.29-1.31,1.45-1.54A42.48,42.48,0,0,1,419.81,256.72Z" transform="translate(1 -1)"/><path class="cls-3" d="M419.24,258.13s.16-.23.14-.11a1,1,0,0,1-.34.7c-.43.44-1.11.84-1.68,1.38C418.09,259.33,418.66,258.79,419.24,258.13Z" transform="translate(1 -1)"/><path class="cls-3" d="M462.85,299.43h0a49.26,49.26,0,0,1-5.06,3.51,16.83,16.83,0,0,0-2.06,1.45,30.86,30.86,0,0,0-4.2,3.51,22.82,22.82,0,0,0-1.76,2,9.45,9.45,0,0,0-.76,1c-.46.68-1.21,1.57-1.86,2.72s-2.16,4-2.7,5.2-1.3,3.16-1.5,3.75c-1,2.59-1.56,4.12-2.61,6.33a21.89,21.89,0,0,1,1.18-6.77c.22-.71,1-2.71,1.54-4s2.08-4.3,2.73-5.44,1.4-2,2-2.82a11.48,11.48,0,0,0,.76-1c.45-.55,1.31-1.42,1.76-2a26,26,0,0,1,4.34-3.62,15,15,0,0,1,2.18-1.43A18.85,18.85,0,0,1,462.85,299.43Z" transform="translate(1 -1)"/><path class="cls-3" d="M438.33,301.25l.13-1a2.15,2.15,0,0,1,.33,1.16S438.43,301.39,438.33,301.25Z" transform="translate(1 -1)"/><path class="cls-3" d="M438.92,301.46a3.75,3.75,0,0,1,1,.52c-.24,0-.88.12-1.13.09S438.79,301.44,438.92,301.46Z" transform="translate(1 -1)"/><path class="cls-3" d="M438.33,301.25c.13-.1.36.05.46.19s.06.51-.08.61-.62,0-.74,0,0-.12,0-.12A1.71,1.71,0,0,0,438.33,301.25Z" transform="translate(1 -1)"/><path class="cls-3" d="M438.33,301.25c.24,0-.21.6-.21.6s0,.12-.15.22c-.63,0-1,0-1.62,0a17.61,17.61,0,0,0-2.13.2,9.83,9.83,0,0,0-1.79.37,9.17,9.17,0,0,1-1.16.34l-1.19.58a16.34,16.34,0,0,0-1.77,1.12,8.54,8.54,0,0,0-1.24.94c-1.12,1-2,1.71-3.08,2.55a10.77,10.77,0,0,1,2.62-3.73,11.41,11.41,0,0,1,1.37-.92,20.3,20.3,0,0,1,1.88-1.11c.54-.29.92-.37,1.32-.56a4.43,4.43,0,0,1,1.16-.33,10.17,10.17,0,0,1,1.91-.36,8.23,8.23,0,0,1,2.24-.06A3.21,3.21,0,0,1,438.33,301.25Z" transform="translate(1 -1)"/><path class="cls-3" d="M438,302.19c.29-.33.48.07.76-.14a7,7,0,0,1-1.2,2.44c-.31.45-1,1.09-1.74,1.86-2,2.08-4.35,4.6-6.65,6.89s-5.21,5.47-7.27,7.79a9.86,9.86,0,0,1-1.29,1.31,8.71,8.71,0,0,1-2.3,1.42c-.12,0,.17-.35.05-.37s-.23-.15-.47-.19a14,14,0,0,1,2-2.07,5.57,5.57,0,0,0,.85-.75l0,.12c.75,0,.9-.25,1.37-.93.15-.22.23-.83.51-1,1.9-2.09,3.78-4.06,5.82-6.26s4.62-4.81,6.5-6.78c.73-.77,1.16-1.2,1.73-1.75A6.06,6.06,0,0,0,438,302.19Z" transform="translate(1 -1)"/><path class="cls-3" d="M414.71,278.44a8.09,8.09,0,0,1,.17,1.5c0,.13-.5.06-.49-.06S414.66,278.8,414.71,278.44Z" transform="translate(1 -1)"/><path class="cls-3" d="M414.85,280.19a1.42,1.42,0,0,1,.87.86c-.11-.14-.73-.1-.84-.24S414.74,280.05,414.85,280.19Z" transform="translate(1 -1)"/><path class="cls-3" d="M414.86,280.07c0,.12,0,.62,0,.62s-.4.19-.52.18-.15.22-.14.1l.14-1C414.39,279.88,414.74,280.05,414.86,280.07Z" transform="translate(1 -1)"/><path class="cls-3" d="M414.25,280h0c0,.25.15.76-.15,1.1s-.79.38-1.22.82a12.65,12.65,0,0,0-1.59,1.64c-1.9,2.09-4.44,5.21-6.42,7s-3.44,3.37-5.39,5c-.28.2-.64.15-.9.24a2.24,2.24,0,0,0-.9,1.12h.12a5.21,5.21,0,0,0-.95.62,7.5,7.5,0,0,1-1.87,1l0-.37c0-.12-.38.07-.24,0a5.17,5.17,0,0,1,1.56-1.4,5,5,0,0,0,1-.73c2.13-1.94,4.67-4.19,6.83-6.37s4.52-4.95,6.55-7.15a14.3,14.3,0,0,1,1.85-1.72A2.25,2.25,0,0,1,414.25,280Z" transform="translate(1 -1)"/><path class="cls-3" d="M414.36,281c.14-.11.44-.44.51-.06a16.53,16.53,0,0,1-.11,2.59c-.12.85-.39,1.93-.66,3-.21.6-.55,2.16-.89,2.85s-.39,1.07-.6,1.66a11.23,11.23,0,0,1-.86,1.74,17.13,17.13,0,0,1-1.44,2.4c-.31.45-.9,1.11-1.06,1.34a5,5,0,0,1-3.06,1.56c.76-1,1.47-1.66,2.36-2.77.16-.23.61-.79.92-1.24a13.75,13.75,0,0,0,1.3-2.3c.33-.57.54-1.16.85-1.61a6.41,6.41,0,0,0,.58-1.53c.2-.59.66-2.14.87-2.73.26-1,.41-2.05.64-2.89a8.6,8.6,0,0,1,.39-1.92C414.28,280.73,414.24,281,414.36,281Z" transform="translate(1 -1)"/><path class="cls-3" d="M423.12,293.84c2.38-.17,3.65.5,5.51,1.37-1.79.38-3.28.42-5.2.9a4.51,4.51,0,0,0-1.87,1,13.54,13.54,0,0,0-1.61,1.76,16.7,16.7,0,0,0-.94,1.48c-.33.57-.36.82-.69,1.39a9.33,9.33,0,0,0-.47,2.54,3.42,3.42,0,0,0,1.59,2.82,2.83,2.83,0,0,0,2.52.59,4.37,4.37,0,0,0,.21,1.15c0,.24.32.41.16.64-1,.85-1.95.72-3.1.06a5.06,5.06,0,0,1-1.33-1.17,6.79,6.79,0,0,1-.89-1.61,8.53,8.53,0,0,1-.34-1.16c-.07-.38-.12-.88-.18-1.39a4.55,4.55,0,0,1,.07-1.35,18.3,18.3,0,0,1,.57-2.4c.21-.59.52-1,.73-1.63a7.29,7.29,0,0,1,1.08-1.59,18,18,0,0,1,1.88-2A5.31,5.31,0,0,1,423.12,293.84Z" transform="translate(1 -1)"/><path class="cls-2" d="M412.88,281.9a10.74,10.74,0,0,1,1.36-.93,13,13,0,0,1-.4,2c-.12.85-.38,1.81-.65,2.88-.2.6-.65,2-.87,2.73s-.38.94-.58,1.53a10.41,10.41,0,0,1-.84,1.62c-.33.58-1,1.85-1.31,2.3a11.86,11.86,0,0,1-.91,1.23c-.9,1.12-1.61,1.77-2.37,2.78,0,.12.2.39.18.52a.5.5,0,0,1-.64.15c-.44-.43-1.17-1.39-1.73-1.84a3.83,3.83,0,0,0-1.72-1,8.37,8.37,0,0,0-1.81-.38,3.66,3.66,0,0,0-1.13.1c2-1.71,3.41-3.13,5.41-5.08s4.52-4.95,6.43-7.16A20.06,20.06,0,0,1,412.88,281.9Z" transform="translate(1 -1)"/><path class="cls-3" d="M405.25,280.6c.83-1.5,1.31-2.3,2.1-3.55A13.74,13.74,0,0,1,406,281.2c-.16.23-.36.82-.85,1.62a25.51,25.51,0,0,1-5.34,6.45,19.81,19.81,0,0,1-2.86,1.84,8.46,8.46,0,0,1-1.31.56,10,10,0,0,0-1.18.45,27.28,27.28,0,0,1-2.84.85,26.5,26.5,0,0,0-3.35.9,2.6,2.6,0,0,0-1.42,2.28,1.89,1.89,0,0,0,.77,1.6,3.51,3.51,0,0,0,1.49.82,3.41,3.41,0,0,0,1.6.1c-.28.21-.57.54-.81.51l-.37-.05a2.53,2.53,0,0,0-1,0s.21.28.09.26a2.82,2.82,0,0,1-1.49-.82,3.67,3.67,0,0,1-1.16-2.39,3.33,3.33,0,0,1,1.79-3.1,29.39,29.39,0,0,1,3.63-1.23,14.09,14.09,0,0,0,2.85-.85c.38-.07.39-.19.65-.28s.13,0,.52-.18a7.92,7.92,0,0,0,1.32-.56,31.35,31.35,0,0,0,2.85-1.83,23.52,23.52,0,0,0,5.18-6.1A2.31,2.31,0,0,1,405.25,280.6Z" transform="translate(1 -1)"/><path class="cls-3" d="M402,275.32a7.88,7.88,0,0,1,3.73-.1c-1.29.44-2.07.7-3.49,1.13a13.69,13.69,0,0,0-2.08.7c-.38.07-1.44.55-2,.72a7.34,7.34,0,0,1-1.19.58,7.77,7.77,0,0,0-1.34.69,17.24,17.24,0,0,0-1.9,1.22,3.36,3.36,0,0,1-.51-.81c.56-.42,1.37-.93,1.92-1.35a11,11,0,0,0,1.35-.8l1.2-.58c.52-.18,1.69-.64,2.09-.83C400.59,275.75,401.63,275.4,402,275.32Z" transform="translate(1 -1)"/><path class="cls-3" d="M435.74,311.92a10.47,10.47,0,0,1,3.76-1.21c-1.23.82-2.06,1.45-3.41,2.25a13.18,13.18,0,0,0-1.48.91,34.63,34.63,0,0,0-5.91,6,43.05,43.05,0,0,0-3,4.91c-.51,1-.2.59-.51,1a1.52,1.52,0,0,1-.33.58c-.51,1-.87,1.86-1.39,2.9a7.93,7.93,0,0,1-1.91,3.08,4.64,4.64,0,0,1-3.6,1,3.21,3.21,0,0,1-2.16-1.41,2.58,2.58,0,0,1-.41-1.54c0-.12.11.14.24,0a1.93,1.93,0,0,0,.24-.83c0-.25-.09-.26,0-.5s.45-.56.71-.65a3.44,3.44,0,0,0-.34,1.56,2.24,2.24,0,0,0,.44,1.3,2.49,2.49,0,0,0,1.6,1,3.18,3.18,0,0,0,2.56-.64,10.51,10.51,0,0,0,1.74-2.74c.52-1,1-2.08,1.41-3s.17-.35.72-1.64a49.05,49.05,0,0,1,3.18-5.13,32.75,32.75,0,0,1,6.18-6.21A19,19,0,0,0,435.74,311.92Z" transform="translate(1 -1)"/><path class="cls-3" d="M439.39,316.88c.48-1.66,1-2.71,1.58-4.24a14.17,14.17,0,0,1-.62,4.5c-.19.47-.62,1.77-1,2.59-.17.35-.72,1.63-.91,2.1a5.55,5.55,0,0,1-.67,1.27,6.94,6.94,0,0,1-.8,1.38c-.31.45-1.09,1.58-1.26,1.93s-.17.35-.29.33-.56-.45-.67-.58,0,0,.18-.35.93-1.36,1.24-1.81.49-.93.8-1.38.35-.69.54-1.16.72-1.64.89-2C438.8,318.53,439.22,317.23,439.39,316.88Z" transform="translate(1 -1)"/><path class="cls-3" d="M424.19,305.87a6.11,6.11,0,0,1-1,2.47c0,.12,0-.24-.09-.26s-.28-.66-.38-.79A5.09,5.09,0,0,0,424.19,305.87Z" transform="translate(1 -1)"/><path class="cls-3" d="M391.37,274.35a5.24,5.24,0,0,1,1.88.76c-1.23-.05-2.22-.06-3.59,0-.24,0-.76.14-1.39.18a6,6,0,0,0-2.8,1.47,4.13,4.13,0,0,0-1.56,3.25,4.62,4.62,0,0,0,1.1,2.76,2,2,0,0,0,1.65.6,3.91,3.91,0,0,0,3-1.2c-.16.23-.05.37-.21.59a2.83,2.83,0,0,1-2.68,1.49,3.61,3.61,0,0,1-2.35-.94,6.19,6.19,0,0,1-1.51-3.43,4,4,0,0,1,.41-2.05,5.21,5.21,0,0,1,1.5-1.9,10,10,0,0,1,3.32-1.65c.77-.14,1.27-.19,1.65-.26A7.41,7.41,0,0,0,391.37,274.35Z" transform="translate(1 -1)"/><path class="cls-3" d="M422,306.56c.12,0,.68.47.66.59s-.53.29-.53.29,0,.13-.13,0S421.85,306.67,422,306.56Z" transform="translate(1 -1)"/><path class="cls-3" d="M422.1,307.57c.12,0,.41-.32.66-.28s.28.65.38.79.11.14.07.38a3,3,0,0,1-.6.79c-.14.1,0,.12-.14.1s-.07-.38-.17-.52a9.12,9.12,0,0,1-.2-1.26C422.12,307.44,422,307.55,422.1,307.57Z" transform="translate(1 -1)"/><path class="cls-3" d="M422.63,309.13a2,2,0,0,0,.6-.79,20.6,20.6,0,0,1,.57,3.05,9.92,9.92,0,0,1,0,2.61l-.35,2.55a4.79,4.79,0,0,1-.61,1.77c-.31.45-1.3,1.31-1.45,1.54s-.31.45-.3.33a6.32,6.32,0,0,1,.62-1.78,19.1,19.1,0,0,0,1-2.47,6.72,6.72,0,0,0,.3-2.18,14,14,0,0,0-.06-2.24c0-.75-.29-1.53-.29-2.39Z" transform="translate(1 -1)"/><path class="cls-3" d="M416.35,297.12a36.81,36.81,0,0,1-.33,5.15,16.13,16.13,0,0,1-.82,3.23,6.38,6.38,0,0,1-.39,1.06,7.55,7.55,0,0,1-1.09,1.59,5.36,5.36,0,0,1-2.07,1.57,8.58,8.58,0,0,1-1.67.39,3.7,3.7,0,0,1-1.56-.34,9.23,9.23,0,0,1-2.82-2,7.23,7.23,0,0,1-1.65-3.32c-.13-.89,0-1.49-.11-1.87a4.41,4.41,0,0,1,1-3.08c.15-.23.21.28.31.41a4.44,4.44,0,0,0,.63.83,6.69,6.69,0,0,0-.61,2.64,8.93,8.93,0,0,0,.06,1.37,4.15,4.15,0,0,0,.74,1.84,4.76,4.76,0,0,0,1.93,1.26,2.55,2.55,0,0,0,1.34.18,3.37,3.37,0,0,0,1.42-.42,7,7,0,0,0,1.92-1.35,4.11,4.11,0,0,0,.79-1.25,4.28,4.28,0,0,0,.38-.94C414.87,301.62,415.55,299.36,416.35,297.12Z" transform="translate(1 -1)"/><path class="cls-3" d="M391.5,278a11.17,11.17,0,0,1,1.77,1.49l-.69.52A18,18,0,0,0,391.5,278Z" transform="translate(1 -1)"/><path class="cls-3" d="M393.27,279.45a1.76,1.76,0,0,1,.51.81,1.48,1.48,0,0,1-.69.52,1.76,1.76,0,0,1-.51-.81C392.72,279.87,393.15,279.43,393.27,279.45Z" transform="translate(1 -1)"/><path class="cls-3" d="M393.89,280.4c.12,0,.1.14.29.53a15.49,15.49,0,0,1,.81,2.22,7.78,7.78,0,0,1,.11,1,3.31,3.31,0,0,1,.09,1.12,10.13,10.13,0,0,1,0,1.74,6.14,6.14,0,0,1-1.11,3.56v.12c0-1.23.09-2.46.15-3.81a11.24,11.24,0,0,0,0-1.62,7.81,7.81,0,0,1-.11-1c0-.25-.15-.77-.13-.89-.16-.64-.63-1.7-.7-2.08s-.21-.27-.2-.39C393.23,280.68,393.64,280.36,393.89,280.4Z" transform="translate(1 -1)"/><path class="cls-3" d="M392.58,280c.12,0,.4.68.51.81a.53.53,0,0,1-.42.32c-1,.73-1.93,1.47-2.88,2.08a9.82,9.82,0,0,1,2.36-2.77C392.17,280.29,392.46,280,392.58,280Z" transform="translate(1 -1)"/><path class="cls-3" d="M406.47,298.73a4.58,4.58,0,0,1,1.36.06,4.89,4.89,0,0,0-1.42,1.29,6.48,6.48,0,0,1-.37-.92c-.1-.14-.23-.15-.09-.26S406.23,298.69,406.47,298.73Z" transform="translate(1 -1)"/><path class="cls-3" d="M422.83,318.44a3.91,3.91,0,0,1-.51,1.05c-.47.68-.75.88-1.37.92l0-.12h0c.26-.09,0,0,.41-.31A14.7,14.7,0,0,0,422.83,318.44Z" transform="translate(1 -1)"/><path class="cls-3" d="M404,297a8.54,8.54,0,0,1,1.73,1.85c.09.26-.4.19-.42.31s-.17.35-.27.21a16.09,16.09,0,0,0-1.31-1.29c-.45-.31-1-.64-1.48-1a3.06,3.06,0,0,0-1.44-.32,4.6,4.6,0,0,0-1.77.25,2.24,2.24,0,0,1-1.25.08h0a16.09,16.09,0,0,1,1.68-1.38,1.75,1.75,0,0,1,1.12-.09,4.13,4.13,0,0,1,1.69.35A3.92,3.92,0,0,1,404,297Z" transform="translate(1 -1)"/><path class="cls-3" d="M405.83,298.89c.12,0,.11.13.21.27a2,2,0,0,1,.37.92.92.92,0,0,1-.31.45c0,.13,0,.25-.14.11a2.14,2.14,0,0,1-.63-.83c-.1-.14-.33-.29-.31-.42a.26.26,0,0,1,.27-.21C405.42,299.2,405.71,298.87,405.83,298.89Z" transform="translate(1 -1)"/><path class="cls-3" d="M406.12,300.41s.18-.47.29-.33.23,1,.23,1-.44-.43-.56-.44S406.1,300.53,406.12,300.41Z" transform="translate(1 -1)"/><path class="cls-3" d="M431.63,324.73c.12,0,.6.08.71.22.59.21,1.65.6,2,.77s.47.19.45.31-.48.8-.6.79,0,0-.35-.17a7.83,7.83,0,0,0-1.76-.74c-.12,0-.47-.19-.59-.21l-.73-.1c-.36-.05-1.23,0-1.35-.06a29.92,29.92,0,0,0-3.66.49,7.29,7.29,0,0,1,3.79-1.46c.25,0,1.11,0,1.6.09C430.91,324.51,431.4,324.58,431.63,324.73Z" transform="translate(1 -1)"/><path class="cls-3" d="M434.79,326c.12,0,.68.47.66.59s-.46.68-.58.66-.7-.34-.68-.46S434.67,326,434.79,326Z" transform="translate(1 -1)"/><path class="cls-3" d="M439.39,326.79a7,7,0,0,1,.59,2.06,10.89,10.89,0,0,1,0,2,4.49,4.49,0,0,1-.48,1.67,10.68,10.68,0,0,1-2.12,2.8,5.33,5.33,0,0,1-2.14,1.19,4,4,0,0,1-2.12.09,6.5,6.5,0,0,1-2.9-1.4,2.84,2.84,0,0,1-.59-2.06,4,4,0,0,1,1.59-2.5c.29-.34.65-.29,1.05-.48a6.27,6.27,0,0,0-1.17,1.33,7,7,0,0,0-.58,1.53,1.79,1.79,0,0,0,.4,1.54,3.48,3.48,0,0,0,2.34,1.06,7,7,0,0,0,1.75-.13,3.66,3.66,0,0,0,1.74-1,14.57,14.57,0,0,0,1.83-2.47,12.65,12.65,0,0,0,.45-1.42C439.18,329.24,439.21,328.13,439.39,326.79Z" transform="translate(1 -1)"/><path class="cls-3" d="M434.87,327.28a5.06,5.06,0,0,0,.6-.78,5.23,5.23,0,0,1,1.09,2C436,328.06,435.42,327.73,434.87,327.28Z" transform="translate(1 -1)"/><path class="cls-3" d="M434.05,326.92c.12,0,.69.35.68.47s-.17.35-.3.33a8.82,8.82,0,0,1-3.18,2.41c.88-1,1.64-2,2.54-3.12C433.91,327,434.07,326.8,434.05,326.92Z" transform="translate(1 -1)"/><path class="cls-3" d="M398.56,295.9a1.82,1.82,0,0,1,.9-.24c-.55.42-1.12,1-1.67,1.38h0l-.12,0A1.86,1.86,0,0,1,398.56,295.9Z" transform="translate(1 -1)"/><path class="cls-3" d="M418.45,323.29a.51.51,0,0,1-.17.35,8.37,8.37,0,0,1-1,.35,4.61,4.61,0,0,1,.76-1A.84.84,0,0,1,418.45,323.29Z" transform="translate(1 -1)"/><path class="cls-3" d="M418.26,323.76c.1.14-.19.47-.47.68a10.14,10.14,0,0,0-1,1.1,3.5,3.5,0,0,0-.52,1c-.05.36-.24.83-.3,1.32s0,1,0,1.23a1.4,1.4,0,0,1-.34.7c-.14.1.05.5-.05.36a1,1,0,0,1-.51-.81,10.67,10.67,0,0,1,0-2.1,6,6,0,0,1,.46-1.55,6.22,6.22,0,0,1,.67-1.27,8,8,0,0,1,1.17-1.32c.28-.21.66-.28.77-.14s-.61.78-.64,1S418.15,323.62,418.26,323.76Z" transform="translate(1 -1)"/><path class="cls-3" d="M394.88,298.37s.09.26-.05.36a4.5,4.5,0,0,1-.92.37,6.5,6.5,0,0,1,.6-.78C394.77,298.23,394.9,298.25,394.88,298.37Z" transform="translate(1 -1)"/><path class="cls-3" d="M394.64,298.34a3.07,3.07,0,0,0-.61.78c.25,0,.8-.39.9-.25s-.05.37-.32.58a4.34,4.34,0,0,1-1.34.68,3.82,3.82,0,0,1-1.28.32c-.38.07-.87,0-1.25.07a7.32,7.32,0,0,1-1.68-.35,1.57,1.57,0,0,1-.77-.73c0-.12.37.05.61.09a1.32,1.32,0,0,0,.64-.16,3.41,3.41,0,0,0,1.09.15,3.63,3.63,0,0,0,1.13-.09c.38-.07.64-.16,1-.23a3.17,3.17,0,0,0,1.08-.6C394.27,298.29,394.39,298.3,394.64,298.34Z" transform="translate(1 -1)"/><path class="cls-3" d="M415.55,330a1.82,1.82,0,0,1,.34-.7.63.63,0,0,0,.07.38,2.32,2.32,0,0,1-.23.84s-.25,0-.23-.16h0C415.64,330.21,415.53,330.07,415.55,330Z" transform="translate(1 -1)"/><path class="cls-3" d="M389.21,299.08c.12,0,.36.05.35.17s-.51.05-.64.16l-.61-.09c-.12,0-.11-.14-.09-.26A2.89,2.89,0,0,1,389.21,299.08Z" transform="translate(1 -1)"/><path class="cls-6" d="M686.3,105.9a3.52,3.52,0,0,1-1.09-2c0-.12-.05-.51,0-.75l.08-.61a12.26,12.26,0,0,1,.48-1.66,13.33,13.33,0,0,1,2.67-4.1,19.74,19.74,0,0,1,4.43-3.35,15.47,15.47,0,0,1,8.47-2.18,13.77,13.77,0,0,1,2.41.46c.85.12.13,0,.94.38a12.94,12.94,0,0,1,2.63,1.6,15.54,15.54,0,0,1,2.15,2.4,26.12,26.12,0,0,0,2.18,3,3,3,0,0,0,3.23.82,2.57,2.57,0,0,0,1.16-1.2,1.91,1.91,0,0,0-.16-1.51c-.2-.4-.89-.74-1.12-.9a9.63,9.63,0,0,0-2.71-.12,10.4,10.4,0,0,1,1.34-.69,2.13,2.13,0,0,1,1.49,0h0a3.06,3.06,0,0,1,1.69,1.22,7.73,7.73,0,0,1,.47,1.06,2.07,2.07,0,0,1-.17,1.22c-.15.22,0,.24-.17.34a2.72,2.72,0,0,1-1.43,1.42,3.5,3.5,0,0,1-2.26.18,4.59,4.59,0,0,1-1.84-1,28.1,28.1,0,0,1-2.31-3,22.77,22.77,0,0,0-2-2.26A12.53,12.53,0,0,0,704.3,93a2.29,2.29,0,0,0-.94-.38,5.86,5.86,0,0,0-2.17-.42,13.23,13.23,0,0,0-7.84,2,24.74,24.74,0,0,0-4,3,13.2,13.2,0,0,0-2.48,3.62,11.37,11.37,0,0,0-.46,1.55l-.07.49c0,.24.06.5,0,.62,0,.63.1,1.13.15,1.63" transform="translate(1 -1)"/><path class="cls-6" d="M719.88,76.45a17.07,17.07,0,0,0-1.87.62,12.51,12.51,0,0,0-1.3.44c-1.06.47-2.63,1.12-4.21,1.77-.79.39-2.77,1.23-4,1.81a16.73,16.73,0,0,0-2.15,1.19,4.07,4.07,0,0,0-1.65,2.13,3.4,3.4,0,0,0,.24,2.75,5.09,5.09,0,0,0,1.74,1.73,26,26,0,0,1,3.47,2.71c.77.72,1.76,1.6,2.19,2a12,12,0,0,0,2.48,1.83c-.72-1.09-.91-1.49-1.73-2.72-.44-.43-1.45-1.19-2.2-2A20.09,20.09,0,0,0,707.58,88a6.12,6.12,0,0,1-1.51-1.57,2.21,2.21,0,0,1-.22-2,3.54,3.54,0,0,1,1.34-1.68,16.53,16.53,0,0,1,2-1.08c1.18-.46,3.17-1.42,4-1.81,1.46-.67,3-1.32,4.07-1.67a10.33,10.33,0,0,0,1.3-.44c.46-.18.89-.34,1.35-.49Z" transform="translate(1 -1)"/><path class="cls-6" d="M719.68,73.79c-4.2,1.44-9.45,3-13.93,2.65S702,72.28,703,68.9a12.66,12.66,0,0,1,2.49-4.9c1.27-1.48,3.46-2.58,4.06-4.54,1.42-4.62-5.7-4.28-4.82.79a5.07,5.07,0,0,1-.68-1.33" transform="translate(1 -1)"/><path class="cls-6" d="M704.23,56.59C705,56,705,55,706,55c2,1,5,0,4,5-2,5-9,9-6,15,5,0,11,0,15.72-2.28" transform="translate(1 -1)"/></g></g></svg>