<svg id="Layer_1" data-name="Layer 1" xmlns="http://www.w3.org/2000/svg" viewBox="0 0 719.88 480"><defs><style>.cls-1{fill:#cfc3b4;}.cls-2{fill:none;}.cls-3{fill:#202020;}.cls-4{fill:#3c3c3c;}</style></defs><title>21</title><g id="_21" data-name="21"><path class="cls-1" d="M720,1V481H.12L.22,1Z" transform="translate(-0.12 -1)"/><path class="cls-2" d="M719.88,32.12c-3.77,2.12-7.66,4.19-11.73,6.33-10.78,5.77-21.35,8.33-31.4,17.59-16.5,15.2-15,25.69-23.27,44.77a41.42,41.42,0,0,1-3.88,6.9c-1.57,2.46-3.94,3.15-6.64,4.28-25.62,10.53-45.55,30.84-65.4,49.42-12.94,12.1-26.43,21.11-42.94,26.83-3.06,1.06-7.59,2.61-6.13,6.24s6,1.34,8.15-.26a8.34,8.34,0,0,1-.36,10.16c-2.28,3-5.13,3.56-8.36,4.84,5.76,3.29,11.84,4.15,17.78,1-.4,2.17,7,7.63,9.4,6.58,4.06-1.75,5.24-8.9,6.67-12.63,4.65-12.49,11.62-21.32,22.83-27.38,8.32-4.59,16.48-6.22,23.63-11.9,13.42-10.65,21.19-29.31,37.68-34.9,5.6-2,12.38.51,15.75-5,2.78,5.25,7.17,9.92,13.5,8.71-19.49,11.78-36.94,19.94-51.67,38.45-10.54,13.3-18.36,31.57-35.7,37-10.6,3.43-20.58-.64-28.39,8.66,2.08,2.26,4.53,3.2,6.85,5.5,4.09,4.24-5.53,14.58-7.53,17.33-2.35,1.94-2.91,3-2.74,4.74.23,3.53,4.64,2.59,6.77,1.86,2.78-.87,4.73-4,7.13-5.56s6.16-1.62,6.41,1.79c-1.53,2.22-3.3,4.39-5,6.44a7.47,7.47,0,0,0,8.06-1.14c2.35-1.95,3.94-5.15,5.31-7.89,7.14-14.54,23.14-25,34.18-34.17,23.52-19.53,39.66-43,62.54-60.42a54,54,0,0,1,9.78-6.45c5.76-2.81,12.12-3.52,18.3-6.63a89.56,89.56,0,0,0,10.46-6.39Z" transform="translate(-0.12 -1)"/><g id="_Group_" data-name="&lt;Group&gt;"><path class="cls-3" d="M719.88,31.17c-3,1.39-7,3.23-11.09,5.16-4.92,2.34-12.77,6.39-18.49,9.72a63.24,63.24,0,0,0-9.78,7.07,79.18,79.18,0,0,0-7.65,8.45c-2.38,2.81-4.48,5.42-6.5,8.29a46.07,46.07,0,0,0-5.24,9.52c-2.51,6.28-4.77,12.48-7.6,18.45-.65,1.5-1.21,2.52-1.84,3.9a17.25,17.25,0,0,0-.74,2c-.06.36-.23.58-.29.94s-.09.48-.16.85l-.11.6a2.39,2.39,0,0,0,0,.87,11.25,11.25,0,0,0,.12,1.39,11.45,11.45,0,0,0,.71,2.25c.1-1.23,0-2.5,0-3.87,0-.12.09-.49.13-.73l.09-.48.13-.72c0-.25.23-.59.3-.95a11.1,11.1,0,0,1,.71-1.86c.63-1.39,1-2.31,1.82-3.79,2.81-5.84,5.16-11.9,7.68-18.18a54.07,54.07,0,0,1,5.23-9.52c2-2.87,4.1-5.36,6.48-8.17A96.35,96.35,0,0,1,681.24,54a78.89,78.89,0,0,1,9.6-6.85c5.6-3.34,13.45-7.39,18.37-9.74,3.86-1.84,7.69-3.59,10.67-5Z" transform="translate(-0.12 -1)"/><path class="cls-4" d="M719.88,120.54l-3.75,1.94c-2.48,1.29-6.49,3.43-9.24,4.8-.95.45-1.88.78-2.7,1.13-.28.19-.67.25-.81.35a25.48,25.48,0,0,0-3.31,1.76,17.14,17.14,0,0,0,3.66-1,3.92,3.92,0,0,1,.81-.35,2.63,2.63,0,0,0,.67-.25c.67-.25,1.49-.61,2.15-.86,2.58-1.15,7.31-3.78,9.36-4.77l3.16-1.66Z" transform="translate(-0.12 -1)"/><path class="cls-4" d="M719.88,124.62c-.54.41-1.11.82-2,1.42-2,1.26-4,2.76-6.48,4-1.24.65-3.84,1.92-5.33,2.52-.4.18-.95.45-1.21.53a1.85,1.85,0,0,1-.67.25,4,4,0,0,0-.82.35,15.85,15.85,0,0,0-3.27,1.52l-.14.1a13.72,13.72,0,0,0,3.74-.69c.27-.07.67-.25.94-.33a1.54,1.54,0,0,0,.67-.25,7.7,7.7,0,0,1,1.21-.52c1.63-.7,4.23-2,5.47-2.62,2.5-1.42,4.77-2.87,6.62-4.16.53-.36.94-.65,1.3-.92Z" transform="translate(-0.12 -1)"/><path class="cls-3" d="M700.55,133.35a7.53,7.53,0,0,1-1.17.91,8,8,0,0,1-2.19,1.1,2.63,2.63,0,0,0-.84.47c-.83.47-1.67.94-2.62,1.39-2.77,1.49-6.66,3.65-9.08,5.33s-5.55,3.73-7.28,5A38.92,38.92,0,0,0,674.3,150c-1.18,1-1.49,1.35-2.7,2.5-.59.52-1.82,1.79-2.58,2.53-.45.41-1.06,1.05-1.51,1.47A21.45,21.45,0,0,0,666,158.1c-.47.53-1.07,1.05-1.54,1.59a10.18,10.18,0,0,1-1.66,1.56,16.29,16.29,0,0,0-1.51,1.47,5.82,5.82,0,0,1-.88.72l0-.13a5.73,5.73,0,0,0,0-.62,2.87,2.87,0,0,0-.52.78l-.06.36,0,.12-.15.1a12.46,12.46,0,0,1-1.45,1.11,8.49,8.49,0,0,1-2.84,1.22,11.7,11.7,0,0,1,2.37-2.06,14.54,14.54,0,0,0,1.45-1.1c2-1.63,4.34-3.95,6.31-5.84.47-.54,1.18-1,1.65-1.57s1.07-1.05,1.52-1.47c.76-.73,2-1.88,2.58-2.52,1.21-1.15,1.52-1.47,2.7-2.5a22.9,22.9,0,0,1,3.07-2.43c1.85-1.28,4.73-3.38,7.28-5s6.31-3.84,9.2-5.31c.95-.45,1.81-1,2.62-1.39a4,4,0,0,0,.83-.47A22,22,0,0,1,700.55,133.35Z" transform="translate(-0.12 -1)"/><path class="cls-3" d="M689.48,127.71a14.32,14.32,0,0,1,3.56-1.09,31.87,31.87,0,0,1-3.33,1.89,22,22,0,0,1-3,1.2c-1.74.68-5.8,2.43-7.38,2.89-3.09,1.18-7.63,2.85-9.4,3.65s-.14.1-1.1.55-1.2.4-2.15.85a35.51,35.51,0,0,0-5.89,3.54c-.87.71-2.06,1.74-2.82,2.48s-1.72,1.93-2.36,2.69a18.62,18.62,0,0,0-1.18,1.65c-.32.44-.23.58-.63.76s-.58-.23-1-.06c.35-.56.37-.68.73-1.24a13.76,13.76,0,0,1,1.29-1.63c.64-.76,1.61-2,2.36-2.69s2.09-1.86,3-2.57a29.17,29.17,0,0,1,5.88-3.54c1-.45,1.34-.51,2.15-.86a5,5,0,0,1,1.08-.43c1.2-.4,3.35-1.25,5.21-1.91.82-.35,3.11-1.31,4.45-1.81,2.15-.85,5.4-2.26,7.41-3C687.71,128.51,688.93,128,689.48,127.71Z" transform="translate(-0.12 -1)"/><path class="cls-3" d="M648.86,107.7c-.05.24,0,.75,0,.87l0,.12a7.37,7.37,0,0,1-1.34.5c-1.48.6-2.54.91-3.9,1.53s-2.29,1-4,1.64c-.81.35-2.84,1.22-3.94,1.77-.55.28-1.52.85-2.34,1.2s-1.54,1-2.38,1.43a46,46,0,0,0-8.62,6.91c-.76.73-1.37,1.37-1.68,1.69a24,24,0,0,1-2.91,3,26.92,26.92,0,0,1,2.15-3.6c.31-.32,1.23-1.27,1.68-1.69l.15-.1a.4.4,0,0,0,.26-.07c.14-.1.12,0,.38-.06a5.34,5.34,0,0,0,1.12-.67c-.21-.16-.74,0-.86,0s-.14.1-.12,0c.3-.32.75-.74,1.06-1.06l2.21-1.84c.74-.61,1.59-1.2,2.31-1.7a15.13,15.13,0,0,1,2.4-1.55c.83-.47,1.67-1,2.38-1.44s1.79-.92,2.34-1.19a41.64,41.64,0,0,1,4.08-1.88c1.75-.68,2.56-1,4-1.63s2.42-.93,4-1.51A14.15,14.15,0,0,1,648.86,107.7Z" transform="translate(-0.12 -1)"/><path class="cls-4" d="M675.47,133.39c-.53.15-.43.29-1.1.55a7.48,7.48,0,0,1-2.33.44,10.13,10.13,0,0,1-2.33-.17,12.09,12.09,0,0,1-3.39-1.25,10.21,10.21,0,0,1-1.74-1.43,7.66,7.66,0,0,1-1.57-2.29c-.1-.14-.18-.4-.28-.55-.47-.83-1.41-2.5-1.78-3.19s-.85-1.53-1.05-1.81a41,41,0,0,1-2.7-5c1.42,1.76,2.55,3.09,3.93,5.09.2.28.65,1.24,1.14,1.95a20.76,20.76,0,0,1,1.84,3.58,5.13,5.13,0,0,0,1.29,1.86,5,5,0,0,0,1.41,1.13,12.46,12.46,0,0,0,2.81,1c.6.11,1.73.07,2.1.13C673.21,133.47,674.1,133.39,675.47,133.39Z" transform="translate(-0.12 -1)"/><path class="cls-3" d="M659.56,127.62c.22.16.86.77.81,1s-.12,0-.77.11-1.65.19-2.81.36a76,76,0,0,0-8.13,1.5c-1.32.39-3.12.68-4.41.94s-3,.82-4,1-1.56.34-2.23.59a13.48,13.48,0,0,1-1.68.32c.31-.32,0-.87.32-1.07s.41-.17.93-.32a17.18,17.18,0,0,1,2.23-.6,37.53,37.53,0,0,1,3.93-1c1.3-.27,3.1-.56,4.41-.94,2.62-.65,5.57-1.11,8-1.53,1.27-.15,1.8-.3,2.81-.36C659.32,127.57,659.34,127.45,659.56,127.62Z" transform="translate(-0.12 -1)"/><path class="cls-3" d="M635.54,128.72c.06-.37.42-.93.48-1.29a5.61,5.61,0,0,1,.58,1.61,9,9,0,0,1,0,3.24,2.33,2.33,0,0,0-1,.45,7.56,7.56,0,0,0,.11-3.34A.76.76,0,0,1,635.54,128.72Z" transform="translate(-0.12 -1)"/><path class="cls-3" d="M623.27,122.11a5.81,5.81,0,0,1-1.12.67c-.26.08-.26.08-.38,0a.42.42,0,0,0-.26.08c.14-.1.61-.64.75-.73l.15-.1C622.55,122,623,122.07,623.27,122.11Z" transform="translate(-0.12 -1)"/><path class="cls-3" d="M622.26,122.18c-.4.17-.35.56-.75.73a10.5,10.5,0,0,0-2.85,1.23,41,41,0,0,0-3.73,2.68c-2.33,1.82-5.46,4.62-7.54,6.48s-4.93,4.47-6.17,5.74c-2.7,2.5-3.62,3.45-6,5.63s-2.87,2.72-5.76,5.56-8.12,7.62-11.73,11c-1.8,1.66-4.31,3.82-6.14,5.61a15.46,15.46,0,0,1-1.47,1.23,15.14,15.14,0,0,0-1.35,1.25l-1.35,1.25c-.45.42-.88.71-1.33,1.13s-.9.83-1.33,1.13a3.47,3.47,0,0,1-.73.61c.18-.34.09-.48.39-.8s.74-.61,1.19-1a11.78,11.78,0,0,0,1.33-1.13l1.35-1.25a14.46,14.46,0,0,1,1.47-1.23,17.64,17.64,0,0,0,1.49-1.34c2-1.77,4.46-3.93,6.26-5.6,3.61-3.33,8.87-8.23,11.88-11.05s3.48-3.35,5.87-5.54,3.32-3.13,6-5.63c1.35-1.25,4.19-3.85,6.28-5.72s5.36-4.75,7.71-6.7a45,45,0,0,1,4-2.76A6.14,6.14,0,0,1,622.26,122.18Z" transform="translate(-0.12 -1)"/><path class="cls-3" d="M636.73,132.43a3.16,3.16,0,0,1-.32,1.06c-.14.1-.79.23-.89.09s.11-.61.26-.7C635.82,132.63,636.47,132.5,636.73,132.43Z" transform="translate(-0.12 -1)"/><path class="cls-3" d="M635.66,132.85c-.17.22,0,.63-.26.71s-.89.08-1.27.14C634.68,133.42,635.11,133.13,635.66,132.85Z" transform="translate(-0.12 -1)"/><path class="cls-3" d="M636.41,133.49c.12,0,0,.12,0,.24a24.14,24.14,0,0,1-2.47,4.66c-2,2.64-4.91,5.72-6.83,8s-4.75,4.87-6.15,6.36c-2.74,2.74-3.69,3.81-6.34,6.07s-3.16,2.92-6.65,5.65a104.64,104.64,0,0,1-14.9,9.88,59.15,59.15,0,0,1-8.67,3.78,14.67,14.67,0,0,1-2.11.61c-.67.25-1.31.38-2,.63l-.12,0h0a.65.65,0,0,0-.41.18c-.53.15-1,.18-1.56.34a9.63,9.63,0,0,1-1.8.29c-.53.15-1.54.22-1.8.3a14.44,14.44,0,0,1-3.08-.19,20.15,20.15,0,0,1,3.11-.68,14.33,14.33,0,0,0,1.8-.3,14.16,14.16,0,0,0,1.8-.29,11.49,11.49,0,0,0,2-.52c.67-.25,1.32-.38,2-.63a10,10,0,0,1,2.1-.61,71.58,71.58,0,0,0,8.53-3.68,111.79,111.79,0,0,0,14.76-9.78c3.49-2.73,4.08-3.25,6.62-5.53s3.46-3.23,6.21-6c1.37-1.37,4.14-4.24,6-6.27s4.85-5.35,6.64-7.64a27.44,27.44,0,0,0,2.26-4.2c.26-.7,0-.12.05-.24C635.67,133.48,636.27,133.59,636.41,133.49Z" transform="translate(-0.12 -1)"/><path class="cls-3" d="M656.39,149.74a3.43,3.43,0,0,1,1.2,1c-.36-.06-.89.09-1.13.05s-.34-.19-.56-.36a11.09,11.09,0,0,0-2.71-.86,2.65,2.65,0,0,0,.62-.64A6.19,6.19,0,0,1,656.39,149.74Z" transform="translate(-0.12 -1)"/><path class="cls-3" d="M653,148.74c.14-.1.72.13,1,0-.14.1-.47.54-.62.64s-.62,0-.62,0S652.82,148.83,653,148.74Z" transform="translate(-0.12 -1)"/><path class="cls-3" d="M652.7,148.81s.14-.1.12,0-.11.61-.38.68c0,0,.51,0-.12,0a15.51,15.51,0,0,0-3.76.81,34.19,34.19,0,0,0-7.17,4.43c-1.9,1.52-4.54,3.66-5.74,4.81a67.57,67.57,0,0,0-5.52,5.61c-2.19,2.46-2.5,2.78-5.36,6.13s-7.51,9.72-10.49,14.42c-1.55,2.34-3.84,6-5.34,8.75-.37.68-.89,1.46-1.26,2.14s-.77,1.48-1.15,2.16-.76,1.48-1.12,2a13.51,13.51,0,0,0-1,1.94,17.49,17.49,0,0,0-1,2.07c-.75,1.36-1.29,2.26-2,3.5a21.07,21.07,0,0,1,1.27-3.51c.19-.34.77-1.49,1-2.07s.75-1.36,1-1.94l1.12-2,0-.12c.37-.68.77-1.48,1.14-2.16s.92-1.58,1.29-2.26c1.49-2.72,3.93-6.52,5.48-8.85,3.1-4.67,7.9-11.16,10.64-14.52s3.18-3.79,5.38-6.25a69.21,69.21,0,0,1,5.63-5.59,59.28,59.28,0,0,1,5.89-4.91,35.69,35.69,0,0,1,7.31-4.52A13.62,13.62,0,0,1,652.7,148.81Z" transform="translate(-0.12 -1)"/><path class="cls-3" d="M652.57,149.54c.16-.22.48.08.62,0a13,13,0,0,1-1.06,1.05C652.29,150.36,652.4,149.76,652.57,149.54Z" transform="translate(-0.12 -1)"/><path class="cls-3" d="M660.29,162.55c.12,0,0,.62,0,.62l0,.12c0,.12-.45.42-.59.52l0-.12c0-.12-.08-.27.07-.36A2.62,2.62,0,0,0,660.29,162.55Z" transform="translate(-0.12 -1)"/><path class="cls-3" d="M659.79,164c.18-.34.42-.3.59-.51a7.25,7.25,0,0,1-1.09,2.54,17.48,17.48,0,0,1-2.31,3.07c-1.6,1.95-4,4.26-5.7,5.95s-4.09,4-5.32,5.26c-2.44,2.42-3.22,3.28-5.52,5.6s-2.74,2.74-5.77,5.68-8.89,8.36-12.82,12.13c-2,1.89-5.22,4.66-7.57,6.6-.59.52-1.3,1-1.9,1.52a19.34,19.34,0,0,1-1.75,1.43c-.57.39-1.17.91-1.74,1.3s-1.16.91-1.59,1.21a15.38,15.38,0,0,1-1.71,1.18,19,19,0,0,1-2.69,1.76l2.92-2.34.28-.19a11,11,0,0,1,1.43-1c.43-.3,1-.81,1.59-1.21s1.17-.91,1.74-1.3,1.18-1,1.76-1.43,1.3-1,1.9-1.52c2.32-1.82,5.47-4.74,7.42-6.5,4-3.63,9.64-9.09,12.79-12s3.51-3.48,5.78-5.68,3-3.06,5.49-5.48c1.21-1.15,3.65-3.58,5.31-5.15s4.09-4,5.67-5.82c.78-.85,1.49-2,2.15-2.85A6.87,6.87,0,0,1,659.79,164Z" transform="translate(-0.12 -1)"/><path class="cls-4" d="M580.05,179.2h0c0,.12-.27.08-.27.08Z" transform="translate(-0.12 -1)"/><path class="cls-4" d="M579.78,179.28a.47.47,0,0,1,.39-.06,21.57,21.57,0,0,1-3.55,3.72,19.27,19.27,0,0,0-1.64,1.45,43.12,43.12,0,0,0-4,4.25c-1,1.2-1.76,2.17-2.61,3.39s-1.24,2-2.15,3.6a58.52,58.52,0,0,0-3.26,6.89c-.65,1.5-1.36,3.36-1.64,4.19-.76,2.1-1,3-1.72,4.67-.42.92-.65,1.5-1.07,2.43a31.69,31.69,0,0,1,1.62-8.19c.28-.82,1-2.81,1.66-4.31s2.49-5.41,3.4-7,1.43-2.36,2.27-3.58,1.65-2.19,2.62-3.38a59,59,0,0,1,4.16-4.36,12.77,12.77,0,0,1,1.61-1.32A10.15,10.15,0,0,1,579.78,179.28Z" transform="translate(-0.12 -1)"/><path class="cls-4" d="M598.39,201c1.88-1.41,3.26-2.15,5.09-3.31a20,20,0,0,1-4.2,4.59,12.28,12.28,0,0,1-2.14,1.48,59.63,59.63,0,0,1-5.44,3.13c-.81.35-1.91.89-2.58,1.15s-.4.17-1.22.52-2,.76-3.2,1.16a38.32,38.32,0,0,1-5.49,1.37,20.23,20.23,0,0,1-3.34.51,9.68,9.68,0,0,1-5.53-1.13c.65-.13,1.16-.17,1.8-.3a20.3,20.3,0,0,1,3.7-.44c.63,0,2-.25,3.2-.42a43.39,43.39,0,0,0,5.34-1.27c1.2-.4,2.39-.81,3.18-1s.55-.27,1.22-.52,1.77-.8,2.44-1.05a57.8,57.8,0,0,0,5.29-3C597.51,201.72,598.1,201.2,598.39,201Z" transform="translate(-0.12 -1)"/><path class="cls-4" d="M564.78,171.3a4.38,4.38,0,0,1-.49,1.28c0,.24-.14.1-.16.22a14,14,0,0,0-1.85,1.91A20.31,20.31,0,0,0,564,173.4a7.31,7.31,0,0,1-1.63,2.08,16.62,16.62,0,0,1-1.66,1.56,50.37,50.37,0,0,1-4.34,3.33c-.7.37-1.55,1-2.24,1.33a3.4,3.4,0,0,1-1.1.55c-.69.37-1.77.8-2.89,1.47s-4.13,2.11-5.32,2.52-2.78.86-3.43,1a20.67,20.67,0,0,1-5.91.3c2-.76,3.32-1.14,5.57-1.85.53-.16,2.11-.62,3.31-1s4-1.63,5.13-2.18,2.06-1,2.75-1.37.43-.3,1-.57,1.52-.85,2.09-1.24a33.6,33.6,0,0,0,4.21-3.22c.76-.74,1.35-1.25,1.51-1.47A42.36,42.36,0,0,1,564.78,171.3Z" transform="translate(-0.12 -1)"/><path class="cls-4" d="M564.15,172.68s.16-.22.14-.1a1.05,1.05,0,0,1-.37.68c-.45.42-1.14.79-1.74,1.3C562.94,173.83,563.54,173.31,564.15,172.68Z" transform="translate(-0.12 -1)"/><path class="cls-4" d="M605.91,215.85h0a50.27,50.27,0,0,1-5.22,3.29,17.6,17.6,0,0,0-2.12,1.36,31.09,31.09,0,0,0-4.35,3.32,21.88,21.88,0,0,0-1.84,1.91,8.63,8.63,0,0,0-.8,1,30.93,30.93,0,0,0-2,2.64c-.7,1.11-2.34,3.93-2.92,5.07s-1.44,3.11-1.67,3.69c-1.09,2.55-1.74,4.05-2.88,6.21a21.76,21.76,0,0,1,1.47-6.72c.25-.7,1.11-2.66,1.72-3.92s2.26-4.2,3-5.32,1.49-2,2.12-2.73a12.08,12.08,0,0,0,.81-1c.47-.54,1.37-1.37,1.84-1.91a25.84,25.84,0,0,1,4.49-3.42,16.67,16.67,0,0,1,2.24-1.34A18.92,18.92,0,0,1,605.91,215.85Z" transform="translate(-0.12 -1)"/><path class="cls-4" d="M581.32,216.6l.18-1a2.15,2.15,0,0,1,.28,1.18S581.42,216.74,581.32,216.6Z" transform="translate(-0.12 -1)"/><path class="cls-4" d="M581.91,216.83a4,4,0,0,1,1,.56c-.25,0-.89.09-1.13,0S581.78,216.81,581.91,216.83Z" transform="translate(-0.12 -1)"/><path class="cls-4" d="M581.32,216.6c.15-.1.37.07.46.21s0,.5-.11.6-.62,0-.74,0,0-.12,0-.12A1.76,1.76,0,0,0,581.32,216.6Z" transform="translate(-0.12 -1)"/><path class="cls-4" d="M581.32,216.6c.25,0-.23.58-.23.58s0,.12-.16.22c-.63,0-1-.06-1.61,0a16.29,16.29,0,0,0-2.14.1,9.53,9.53,0,0,0-1.8.3,10.35,10.35,0,0,1-1.18.28l-1.22.53a16.93,16.93,0,0,0-1.81,1,9,9,0,0,0-1.28.89c-1.17.91-2,1.62-3.19,2.41a10.65,10.65,0,0,1,2.78-3.61,11.87,11.87,0,0,1,1.41-.86,18.2,18.2,0,0,1,1.93-1c.55-.28.93-.33,1.34-.51a4.32,4.32,0,0,1,1.17-.28,11,11,0,0,1,1.92-.28,8.53,8.53,0,0,1,2.24,0A3.2,3.2,0,0,1,581.32,216.6Z" transform="translate(-0.12 -1)"/><path class="cls-4" d="M580.91,217.52c.3-.32.48.09.76-.11a7.07,7.07,0,0,1-1.3,2.38,24.77,24.77,0,0,1-1.83,1.79c-2.1,2-4.54,4.41-6.94,6.59s-5.44,5.24-7.6,7.47a11,11,0,0,1-1.35,1.25,8.67,8.67,0,0,1-2.36,1.31c-.12,0,.19-.34.07-.36s-.22-.16-.46-.21a13.47,13.47,0,0,1,2.11-2,5.33,5.33,0,0,0,.87-.72l0,.12c.75,0,.91-.2,1.41-.86.16-.22.27-.82.56-1,2-2,3.95-3.89,6.08-6s4.83-4.6,6.8-6.49c.76-.74,1.21-1.15,1.8-1.67A6.21,6.21,0,0,0,580.91,217.52Z" transform="translate(-0.12 -1)"/><path class="cls-4" d="M558.74,192.77a8.31,8.31,0,0,1,.09,1.51c0,.12-.5,0-.48-.09S558.67,193.13,558.74,192.77Z" transform="translate(-0.12 -1)"/><path class="cls-4" d="M558.79,194.52a1.44,1.44,0,0,1,.83.9c-.1-.14-.72-.13-.82-.27S558.69,194.38,558.79,194.52Z" transform="translate(-0.12 -1)"/><path class="cls-4" d="M558.81,194.4a5.92,5.92,0,0,0,0,.63c0,.12-.4.17-.53.15s-.16.22-.14.1l.18-1C558.35,194.19,558.69,194.38,558.81,194.4Z" transform="translate(-0.12 -1)"/><path class="cls-4" d="M558.21,194.29h0c-.05.24.11.77-.2,1.09s-.81.35-1.26.77a14.51,14.51,0,0,0-1.66,1.56c-2,2-4.66,5-6.72,6.76s-3.58,3.21-5.6,4.71c-.29.2-.65.14-.91.21a2.21,2.21,0,0,0-1,1.08l.12,0a5.9,5.9,0,0,0-1,.57,7.45,7.45,0,0,1-1.91.9l.07-.36c0-.13-.38.05-.24,0a5.29,5.29,0,0,1,1.61-1.33,4.09,4.09,0,0,0,1-.69c2.21-1.84,4.84-4,7.1-6.06s4.73-4.75,6.86-6.85a14.28,14.28,0,0,1,1.92-1.65A2.28,2.28,0,0,1,558.21,194.29Z" transform="translate(-0.12 -1)"/><path class="cls-4" d="M558.27,195.3c.15-.1.45-.41.51,0a17.07,17.07,0,0,1-.22,2.58c-.16.84-.48,1.91-.8,3a27.67,27.67,0,0,1-1,2.81c-.25.7-.44,1-.67,1.62a10.57,10.57,0,0,1-.93,1.71,17.14,17.14,0,0,1-1.55,2.33c-.33.44-1,1.08-1.11,1.3a5,5,0,0,1-3.13,1.42c.8-1,1.54-1.59,2.48-2.67.17-.21.64-.75,1-1.19a14.65,14.65,0,0,0,1.4-2.24c.36-.56.59-1.14.92-1.58a6.46,6.46,0,0,0,.65-1.5c.23-.58.75-2.11,1-2.69.29-.94.49-2,.77-2.85a8.38,8.38,0,0,1,.47-1.91C558.2,195,558.15,195.28,558.27,195.3Z" transform="translate(-0.12 -1)"/><path class="cls-4" d="M566.46,208.52c2.38-.06,3.62.66,5.44,1.62-1.8.29-3.29.27-5.23.66a4.6,4.6,0,0,0-1.91.9,13.41,13.41,0,0,0-1.68,1.69c-.33.44-.66.88-1,1.44s-.4.8-.75,1.36a9.47,9.47,0,0,0-.59,2.51,3.41,3.41,0,0,0,1.47,2.89,2.78,2.78,0,0,0,2.49.7,4,4,0,0,0,.17,1.16c-.05.24.29.42.13.64-1,.81-2,.64-3.11-.06a5.42,5.42,0,0,1-1.27-1.23,6.36,6.36,0,0,1-.82-1.65,9,9,0,0,1-.29-1.18c0-.38-.08-.89-.11-1.39a4.37,4.37,0,0,1,.12-1.35,18.93,18.93,0,0,1,.68-2.37c.23-.58.56-1,.79-1.6a7.54,7.54,0,0,1,1.15-1.54,17.74,17.74,0,0,1,2-1.88A5.49,5.49,0,0,1,566.46,208.52Z" transform="translate(-0.12 -1)"/><path class="cls-2" d="M556.75,196.15a10.2,10.2,0,0,1,1.4-.87,11.78,11.78,0,0,1-.49,2,29,29,0,0,1-.77,2.85c-.23.58-.74,2-1,2.69s-.42.92-.65,1.5a9.34,9.34,0,0,1-.91,1.58c-.36.56-1.08,1.8-1.41,2.24a10.41,10.41,0,0,1-1,1.2c-.94,1.07-1.68,1.69-2.48,2.66,0,.12.18.41.15.53a.5.5,0,0,1-.64.13c-.42-.45-1.11-1.45-1.65-1.92a3.9,3.9,0,0,0-1.68-1.06,8.51,8.51,0,0,0-1.79-.45,3.93,3.93,0,0,0-1.13,0c2-1.62,3.54-3,5.63-4.83s4.73-4.75,6.74-6.88A20.62,20.62,0,0,1,556.75,196.15Z" transform="translate(-0.12 -1)"/><path class="cls-4" d="M549.19,194.52c.89-1.46,1.4-2.24,2.25-3.46a13.57,13.57,0,0,1-1.5,4.09c-.16.22-.39.8-.91,1.58a25.39,25.39,0,0,1-5.62,6.21,19.32,19.32,0,0,1-2.93,1.71,8,8,0,0,1-1.34.5c-.53.16-.53.16-1.2.41a29.46,29.46,0,0,1-2.88.72,25.62,25.62,0,0,0-3.38.76,2.58,2.58,0,0,0-1.52,2.21,1.88,1.88,0,0,0,.7,1.63,3.58,3.58,0,0,0,1.46.89,3.42,3.42,0,0,0,1.59.16c-.29.2-.59.52-.84.47l-.36-.06a2.52,2.52,0,0,0-1-.06s.2.29.08.26a2.86,2.86,0,0,1-1.46-.89,3.71,3.71,0,0,1-1.05-2.43,3.34,3.34,0,0,1,1.92-3,31.85,31.85,0,0,1,3.69-1.07,13.63,13.63,0,0,0,2.88-.72c.38-.06.4-.18.67-.26A1.4,1.4,0,0,0,539,204a7.41,7.41,0,0,0,1.34-.5,31.67,31.67,0,0,0,2.93-1.71,23.24,23.24,0,0,0,5.44-5.87A2.19,2.19,0,0,1,549.19,194.52Z" transform="translate(-0.12 -1)"/><path class="cls-4" d="M546.18,189.1a8,8,0,0,1,3.73.06c-1.31.38-2.1.61-3.54,1a14.24,14.24,0,0,0-2.11.61c-.38.05-1.46.48-2,.63a8.26,8.26,0,0,1-1.22.53,7.1,7.1,0,0,0-1.36.62,20.16,20.16,0,0,0-2,1.14,3.21,3.21,0,0,1-.47-.83c.57-.4,1.41-.87,2-1.26a9.83,9.83,0,0,0,1.38-.75l1.22-.52c.52-.16,1.72-.56,2.13-.74C544.75,189.47,545.8,189.16,546.18,189.1Z" transform="translate(-0.12 -1)"/><path class="cls-4" d="M578.28,227.14a10.66,10.66,0,0,1,3.8-1c-1.26.77-2.11,1.36-3.5,2.11a12.32,12.32,0,0,0-1.52.84,34,34,0,0,0-6.16,5.74,40.88,40.88,0,0,0-3.25,4.77c-.56,1-.23.58-.56,1a1.36,1.36,0,0,1-.35.56c-.56,1-1,1.82-1.51,2.84a8.08,8.08,0,0,1-2.05,3,4.61,4.61,0,0,1-3.64.83,3.26,3.26,0,0,1-2.1-1.5,2.56,2.56,0,0,1-.34-1.56c0-.12.1.14.25,0a2.09,2.09,0,0,0,.27-.82c0-.24-.08-.26,0-.5s.47-.54.73-.62a3.4,3.4,0,0,0-.4,1.55,2.31,2.31,0,0,0,.38,1.32,2.51,2.51,0,0,0,1.56,1,3.15,3.15,0,0,0,2.59-.53,10.6,10.6,0,0,0,1.85-2.65c.56-1,1.13-2,1.54-3s.19-.34.79-1.6a48.33,48.33,0,0,1,3.41-5,32.74,32.74,0,0,1,6.45-5.94A19.12,19.12,0,0,0,578.28,227.14Z" transform="translate(-0.12 -1)"/><path class="cls-4" d="M581.71,232.26c.55-1.65,1.11-2.67,1.76-4.17a14.29,14.29,0,0,1-.82,4.47c-.21.46-.69,1.74-1.09,2.54-.18.34-.79,1.6-1,2.06a5.56,5.56,0,0,1-.72,1.24,7.65,7.65,0,0,1-.87,1.34c-.33.44-1.15,1.54-1.34,1.88s-.19.34-.31.32a2.86,2.86,0,0,1-.64-.62c-.09-.14,0,0,.19-.34s1-1.32,1.32-1.75.54-.9.87-1.34.37-.68.58-1.14.79-1.6,1-1.94C581,233.88,581.52,232.6,581.71,232.26Z" transform="translate(-0.12 -1)"/><path class="cls-4" d="M567,220.59a6,6,0,0,1-1.07,2.43c0,.12.05-.24-.07-.26s-.26-.67-.35-.82A5,5,0,0,0,567,220.59Z" transform="translate(-0.12 -1)"/><path class="cls-4" d="M535.59,187.67a5.12,5.12,0,0,1,1.85.83c-1.23-.09-2.22-.15-3.59-.15-.24,0-.77.11-1.39.12a5.92,5.92,0,0,0-2.87,1.35,4.09,4.09,0,0,0-1.27,1.51,3.94,3.94,0,0,0-.43,1.67,4.61,4.61,0,0,0,1,2.8,2,2,0,0,0,1.63.67,3.87,3.87,0,0,0,3.06-1.07c-.17.22-.07.37-.23.59a2.85,2.85,0,0,1-2.75,1.37,3.59,3.59,0,0,1-2.3-1.05,6.13,6.13,0,0,1-1.36-3.49,3.83,3.83,0,0,1,.5-2A5.08,5.08,0,0,1,529,189a9.75,9.75,0,0,1,3.39-1.5c.77-.11,1.27-.14,1.66-.2A7.09,7.09,0,0,0,535.59,187.67Z" transform="translate(-0.12 -1)"/><path class="cls-4" d="M564.77,221.18c.12,0,.66.5.64.62s-.55.27-.55.27,0,.12-.12,0S564.63,221.28,564.77,221.18Z" transform="translate(-0.12 -1)"/><path class="cls-4" d="M564.84,222.19c.12,0,.42-.29.67-.25s.25.67.35.82.1.14,0,.38a2.94,2.94,0,0,1-.64.76c-.14.09,0,.12-.14.09s0-.38-.15-.52a8.82,8.82,0,0,1-.14-1.28C564.86,222.07,564.72,222.17,564.84,222.19Z" transform="translate(-0.12 -1)"/><path class="cls-4" d="M565.3,223.78c.14-.1.59-.52.63-.76a21,21,0,0,1,.44,3.07,10.45,10.45,0,0,1-.1,2.6l-.46,2.54a5,5,0,0,1-.7,1.74c-.33.44-1.35,1.25-1.51,1.47s-.33.44-.31.32A6.26,6.26,0,0,1,564,233a18.4,18.4,0,0,0,1.07-2.42,7,7,0,0,0,.4-2.17,13.93,13.93,0,0,0,0-2.24c0-.75-.22-1.54-.18-2.4Z" transform="translate(-0.12 -1)"/><path class="cls-4" d="M559.56,211.5a36.57,36.57,0,0,1-.57,5.14,15.73,15.73,0,0,1-1,3.19,5.82,5.82,0,0,1-.44,1,7.28,7.28,0,0,1-1.15,1.54,5.21,5.21,0,0,1-2.14,1.48,8.52,8.52,0,0,1-1.68.31c-.62,0-.72-.13-1.55-.4a9.53,9.53,0,0,1-2.73-2.12,7.33,7.33,0,0,1-1.5-3.4c-.09-.88,0-1.49,0-1.87a4.44,4.44,0,0,1,1.18-3c.16-.22.19.29.29.43a4.91,4.91,0,0,0,.59.86,6.69,6.69,0,0,0-.72,2.61,6.82,6.82,0,0,0,0,1.37,4.13,4.13,0,0,0,.65,1.86,4.63,4.63,0,0,0,1.88,1.34,2.44,2.44,0,0,0,1.33.25,3.51,3.51,0,0,0,1.44-.36,7.38,7.38,0,0,0,2-1.26,6.94,6.94,0,0,0,1.27-2.14C557.87,215.93,558.65,213.71,559.56,211.5Z" transform="translate(-0.12 -1)"/><path class="cls-4" d="M535.56,191.28a10.65,10.65,0,0,1,1.71,1.56l-.71.49A19.26,19.26,0,0,0,535.56,191.28Z" transform="translate(-0.12 -1)"/><path class="cls-4" d="M537.27,192.84a1.8,1.8,0,0,1,.47.83,1.49,1.49,0,0,1-.71.5,1.75,1.75,0,0,1-.47-.84C536.7,193.23,537.15,192.82,537.27,192.84Z" transform="translate(-0.12 -1)"/><path class="cls-4" d="M537.84,193.82c.12,0,.1.14.27.55a16.21,16.21,0,0,1,.72,2.25c0,.12.1.76.06,1a3.31,3.31,0,0,1,0,1.13,11.11,11.11,0,0,1-.06,1.73A6.21,6.21,0,0,1,537.6,204l0,.12c.1-1.23.2-2.46.32-3.81a10.88,10.88,0,0,0,.05-1.61c0-.12-.11-.77-.07-1a8.27,8.27,0,0,0-.09-.89c-.13-.65-.55-1.72-.61-2.11s-.2-.28-.17-.4S537.6,193.77,537.84,193.82Z" transform="translate(-0.12 -1)"/><path class="cls-4" d="M536.56,193.33c.12,0,.37.69.47.84a.53.53,0,0,1-.43.29c-1,.69-2,1.38-3,1.95a10.17,10.17,0,0,1,2.49-2.66C536.13,193.63,536.44,193.31,536.56,193.33Z" transform="translate(-0.12 -1)"/><path class="cls-4" d="M549.61,212.68a4.34,4.34,0,0,1,1.35.12,4.78,4.78,0,0,0-1.47,1.23,6.75,6.75,0,0,1-.33-.93c-.1-.15-.22-.17-.08-.27S549.37,212.64,549.61,212.68Z" transform="translate(-0.12 -1)"/><path class="cls-4" d="M565.09,233.09a3.67,3.67,0,0,1-.56,1c-.49.66-.78.86-1.4.87l0-.12h0c.26-.08,0,0,.43-.3A15.08,15.08,0,0,0,565.09,233.09Z" transform="translate(-0.12 -1)"/><path class="cls-4" d="M547.2,210.87a8.3,8.3,0,0,1,1.64,1.92c.08.26-.4.17-.42.29s-.19.34-.29.2a15.14,15.14,0,0,0-1.25-1.35c-.44-.33-1-.68-1.44-1a2.91,2.91,0,0,0-1.42-.38,4.57,4.57,0,0,0-1.78.17,2.22,2.22,0,0,1-1.25,0h0a17.72,17.72,0,0,1,1.73-1.3,1.84,1.84,0,0,1,1.13-.05,4.09,4.09,0,0,1,1.67.43A3.87,3.87,0,0,1,547.2,210.87Z" transform="translate(-0.12 -1)"/><path class="cls-4" d="M549,212.81c.12,0,.1.14.2.29a2,2,0,0,1,.33.93,1,1,0,0,1-.33.44c0,.12,0,.24-.14.1a2.12,2.12,0,0,1-.59-.86c-.1-.14-.32-.31-.3-.43a.27.27,0,0,1,.29-.2C548.54,213.11,548.84,212.79,549,212.81Z" transform="translate(-0.12 -1)"/><path class="cls-4" d="M549.18,214.35s.21-.46.31-.32.19,1,.19,1-.42-.45-.54-.47S549.16,214.47,549.18,214.35Z" transform="translate(-0.12 -1)"/><path class="cls-4" d="M573.6,239.76c.12,0,.61.11.7.25.59.23,1.63.67,2,.86s.46.21.44.33-.52.78-.64.76,0,0-.34-.19A7.59,7.59,0,0,0,574,241c-.12,0-.46-.21-.58-.23l-.73-.14c-.36-.06-1.23-.1-1.35-.12a30.52,30.52,0,0,0-3.67.33,7.15,7.15,0,0,1,3.85-1.29c.24,0,1.11.07,1.59.16C572.9,239.51,573.38,239.6,573.6,239.76Z" transform="translate(-0.12 -1)"/><path class="cls-4" d="M576.71,241.2c.12,0,.65.49.63.62s-.49.65-.61.63-.68-.37-.66-.49S576.59,241.18,576.71,241.2Z" transform="translate(-0.12 -1)"/><path class="cls-4" d="M581.27,242.16a6.88,6.88,0,0,1,.49,2.08,10.86,10.86,0,0,1-.11,2,4.35,4.35,0,0,1-.55,1.64,10.45,10.45,0,0,1-2.24,2.71,5.4,5.4,0,0,1-2.19,1.1,4,4,0,0,1-2.12,0,6.51,6.51,0,0,1-2.84-1.52,2.84,2.84,0,0,1-.5-2.09,4,4,0,0,1,1.7-2.43c.3-.32.67-.25,1.07-.43a6.45,6.45,0,0,0-1.23,1.27,7.65,7.65,0,0,0-.65,1.51,1.81,1.81,0,0,0,.34,1.56,3.46,3.46,0,0,0,2.28,1.16,7.25,7.25,0,0,0,1.76-.05,3.76,3.76,0,0,0,1.79-.92,14.88,14.88,0,0,0,1.93-2.39,14.36,14.36,0,0,0,.51-1.41C581,244.59,581,243.49,581.27,242.16Z" transform="translate(-0.12 -1)"/><path class="cls-4" d="M576.73,242.45a5.29,5.29,0,0,0,.63-.76,5.15,5.15,0,0,1,1,2.06C577.82,243.28,577.27,242.92,576.73,242.45Z" transform="translate(-0.12 -1)"/><path class="cls-4" d="M575.93,242.06c.12,0,.68.37.66.49s-.19.34-.31.32a9,9,0,0,1-3.29,2.27c.93-1,1.73-1.93,2.67-3C575.78,242.15,576,241.93,575.93,242.06Z" transform="translate(-0.12 -1)"/><path class="cls-4" d="M541.83,209.51a1.88,1.88,0,0,1,.91-.21c-.57.4-1.16.91-1.73,1.31h0l-.12,0A1.89,1.89,0,0,1,541.83,209.51Z" transform="translate(-0.12 -1)"/><path class="cls-4" d="M560.5,237.74a.43.43,0,0,1-.19.34,7.48,7.48,0,0,1-1,.31,5.06,5.06,0,0,1,.8-1A.9.9,0,0,1,560.5,237.74Z" transform="translate(-0.12 -1)"/><path class="cls-4" d="M560.29,238.2c.1.15-.21.46-.49.66a11.6,11.6,0,0,0-1.07,1,4.27,4.27,0,0,0-.56,1c-.06.37-.27.83-.36,1.31s-.06,1-.1,1.23a1.39,1.39,0,0,1-.37.68c-.15.1,0,.5-.07.36a1,1,0,0,1-.47-.83,11,11,0,0,1,.13-2.1,6.39,6.39,0,0,1,.53-1.53,5.72,5.72,0,0,1,.72-1.23,8,8,0,0,1,1.23-1.28c.29-.19.67-.25.77-.11s-.63.76-.68,1S560.19,238.06,560.29,238.2Z" transform="translate(-0.12 -1)"/><path class="cls-4" d="M538.05,211.81s.07.27-.07.37a5.48,5.48,0,0,1-.93.33,5.29,5.29,0,0,1,.63-.76C538,211.67,538.07,211.69,538.05,211.81Z" transform="translate(-0.12 -1)"/><path class="cls-4" d="M537.8,211.77a3.1,3.1,0,0,0-.63.76c.24,0,.81-.35.91-.21s-.07.36-.35.56a4.32,4.32,0,0,1-1.36.62,3.81,3.81,0,0,1-1.3.27c-.38,0-.87,0-1.25,0a8.12,8.12,0,0,1-1.67-.43,1.55,1.55,0,0,1-.73-.76c0-.12.36.07.6.11a1.33,1.33,0,0,0,.65-.13,3.53,3.53,0,0,0,1.08.2,3.59,3.59,0,0,0,1.13-.05c.39,0,.65-.13,1-.18A3,3,0,0,0,537,212C537.44,211.7,537.56,211.73,537.8,211.77Z" transform="translate(-0.12 -1)"/><path class="cls-4" d="M557.31,244.27a1.79,1.79,0,0,1,.38-.68.57.57,0,0,0,0,.38,2.47,2.47,0,0,1-.27.83s-.25-.05-.22-.17h0C557.39,244.53,557.29,244.39,557.31,244.27Z" transform="translate(-0.12 -1)"/><path class="cls-4" d="M532.35,212.27c.12,0,.36.07.34.19s-.51,0-.65.13l-.6-.11c-.12,0-.1-.14-.08-.26A3,3,0,0,1,532.35,212.27Z" transform="translate(-0.12 -1)"/></g></g></svg>