<svg id="Layer_1" data-name="Layer 1" xmlns="http://www.w3.org/2000/svg" viewBox="0 0 720 480"><defs><style>.cls-1{fill:#cfc3b4;}.cls-2{fill:#202020;}.cls-3{fill:#3c3c3c;}</style></defs><title>22</title><g id="_22" data-name="22"><path class="cls-1" d="M720,1V481H0V1Z" transform="translate(0 -1)"/><g id="_Group_" data-name="&lt;Group&gt;"><path class="cls-2" d="M719.88,69.39c-.63.19-1.25.39-2,.65-1.52.51-2.35.81-4.13,1.39a42,42,0,0,0-4.19,1.63c-.56.24-1.69.73-2.4,1.06s-1.6.87-2.46,1.29a15.23,15.23,0,0,0-2.49,1.41c-.75.45-1.63,1-2.41,1.57l-2.31,1.7c-.32.3-.8.69-1.12,1,0,.12,0,0,.12,0s.65-.09.86.09a6.13,6.13,0,0,1-1.16.6c-.26.06-.23-.06-.38,0a.38.38,0,0,1-.27.06l-.15.09c-.47.39-1.45,1.29-1.77,1.59A26,26,0,0,0,691.24,87a22.56,22.56,0,0,0,3.08-2.78c.33-.3,1-.9,1.78-1.59a46.54,46.54,0,0,1,9-6.39c.86-.42,1.63-1,2.46-1.29s1.84-.82,2.41-1.06c1.12-.48,3.2-1.24,4-1.54,1.79-.57,2.74-.85,4.13-1.39.62-.24,1.18-.42,1.74-.6Z" transform="translate(0 -1)"/><path class="cls-2" d="M719.88,90.32c-1,.14-2,.26-2.75.37a36.88,36.88,0,0,0-4,.8,19.23,19.23,0,0,0-2.26.46c-.53.12-.62,0-1,.27s0,.75-.38,1a16.23,16.23,0,0,0,1.7-.22c.68-.21,1.19-.22,2.26-.46s2.79-.58,4.1-.77l2.27-.3Z" transform="translate(0 -1)"/><path class="cls-2" d="M709.08,88.48c.09-.36.47-.9.56-1.25a5.71,5.71,0,0,1,.48,1.63A9.11,9.11,0,0,1,710,92.1a2.37,2.37,0,0,0-1,.4,7.49,7.49,0,0,0,.31-3.34A.75.75,0,0,1,709.08,88.48Z" transform="translate(0 -1)"/><path class="cls-2" d="M697.22,81.17a5.85,5.85,0,0,1-1.16.6c-.26.06-.26.06-.38,0a.43.43,0,0,0-.27.06c.15-.09.65-.6.8-.69l.15-.09C696.51,81,697,81.11,697.22,81.17Z" transform="translate(0 -1)"/><path class="cls-2" d="M696.21,81.17c-.42.15-.38.54-.8.69a10.76,10.76,0,0,0-2.91,1.06,40,40,0,0,0-3.88,2.46c-2.43,1.68-5.72,4.29-7.91,6s-5.19,4.17-6.49,5.36c-2.84,2.34-3.82,3.24-6.34,5.28s-3,2.55-6.07,5.21-8.56,7.13-12.35,10.25c-1.89,1.56-4.53,3.57-6.46,5.25a17.87,17.87,0,0,1-1.54,1.14,16.55,16.55,0,0,0-1.42,1.16l-1.42,1.17c-.47.39-.92.66-1.39,1s-1,.78-1.4,1.05a3.62,3.62,0,0,1-.77.57c.21-.33.12-.48.45-.77s.77-.57,1.24-1a12.08,12.08,0,0,0,1.39-1l1.42-1.17a13,13,0,0,1,1.55-1.14,19.69,19.69,0,0,0,1.57-1.26c2-1.65,4.68-3.66,6.57-5.22,3.79-3.11,9.33-7.7,12.5-10.34s3.67-3.14,6.19-5.18,3.49-2.94,6.34-5.27c1.42-1.17,4.41-3.6,6.6-5.34S686.51,86.76,689,85a46.54,46.54,0,0,1,4.15-2.52A6.22,6.22,0,0,1,696.21,81.17Z" transform="translate(0 -1)"/><path class="cls-2" d="M710.05,92.25a3.4,3.4,0,0,1-.38,1c-.15.09-.8.18-.89,0s.14-.59.29-.68C709.13,92.41,709.78,92.31,710.05,92.25Z" transform="translate(0 -1)"/><path class="cls-2" d="M709,92.62c-.17.21,0,.62-.29.68s-.89,0-1.28.07C707.94,93.13,708.39,92.86,709,92.62Z" transform="translate(0 -1)"/><path class="cls-2" d="M709.67,93.3c.12,0,0,.12-.06.24a23.23,23.23,0,0,1-2.74,4.5c-2.13,2.52-5.23,5.42-7.28,7.58s-5,4.58-6.51,6a87.53,87.53,0,0,1-6.69,5.7c-2.79,2.1-3.32,2.72-7,5.25a104.36,104.36,0,0,1-15.46,9,57.87,57.87,0,0,1-8.87,3.27,16.35,16.35,0,0,1-2.14.49c-.69.21-1.34.3-2,.51l-.12,0h0a.74.74,0,0,0-.42.16c-.53.12-1,.12-1.58.24a9.44,9.44,0,0,1-1.81.19c-.53.12-1.55.13-1.81.19a13.88,13.88,0,0,1-3.07-.37,20.93,20.93,0,0,1,3.15-.49,14.7,14.7,0,0,0,1.81-.19,15,15,0,0,0,1.82-.19,12.31,12.31,0,0,0,2-.4c.68-.21,1.34-.3,2-.52a10.29,10.29,0,0,1,2.14-.49,69.76,69.76,0,0,0,8.73-3.17,111.79,111.79,0,0,0,15.31-8.9c3.64-2.52,4.26-3,6.93-5.13s3.64-3,6.54-5.6c1.45-1.29,4.38-4,6.37-5.9s5.15-5.06,7.07-7.24a27.63,27.63,0,0,0,2.5-4.06c.3-.69,0-.12.06-.24C708.93,93.24,709.52,93.39,709.67,93.3Z" transform="translate(0 -1)"/><path class="cls-2" d="M719.88,110.42a41.67,41.67,0,0,0-6.58,3.72,58.84,58.84,0,0,0-6.16,4.56,67,67,0,0,0-5.95,5.24c-2.34,2.33-2.81,2.72-5.74,5.92s-8.1,9.39-11.47,13.88c-1.68,2.24-4.34,5.88-6,8.51-.41.66-1,1.53-1.41,2.18s-.86,1.44-1.27,2.09l0,.12-1.24,2c-.26.57-.83,1.32-1.09,1.88s-.91,1.68-1.12,2a20.34,20.34,0,0,0-1.47,3.43c.8-1.2,1.39-2.07,2.22-3.38a19.9,19.9,0,0,1,1.11-2,14.3,14.3,0,0,1,1.09-1.88c.39-.54.83-1.32,1.24-2s.86-1.44,1.27-2.09,1-1.41,1.39-2.06c1.65-2.63,4.16-6.19,5.84-8.43,3.25-4.51,8.39-10.58,11.32-13.78s3.37-3.48,5.71-5.81a70,70,0,0,1,5.83-5.27c1.27-1.08,4-3.06,6-4.47a36.32,36.32,0,0,1,6.48-3.64Z" transform="translate(0 -1)"/><path class="cls-2" d="M719.88,137.4c-1.28,1.11-2.57,2.24-3.36,2.91-2.58,2.27-3.41,3.08-5.8,5.15s-2.91,2.57-6.1,5.33-9.24,7.85-13.48,11.24c-2,1.64-5.36,4.37-7.79,6.05a23,23,0,0,1-2,1.41c-.59.36-1.24,1-1.83,1.32s-1.22.84-1.81,1.2-1.22.84-1.66,1.11a11.42,11.42,0,0,0-1.48.91l-.3.18-3,2.16a19.67,19.67,0,0,0,2.78-1.6,15.7,15.7,0,0,0,1.78-1.08c.45-.27,1.07-.75,1.66-1.11s1.22-.84,1.81-1.2a19.91,19.91,0,0,0,1.84-1.32c.62-.48,1.36-.93,2-1.41,2.46-1.8,5.86-4.38,7.94-6.15,4.14-3.53,10.27-8.48,13.5-11.35s3.7-3.27,6.1-5.34,3.26-3,5.83-5.27c.82-.75,2.12-1.88,3.42-3Z" transform="translate(0 -1)"/><path class="cls-3" d="M650.73,135.63h0c0,.12-.27.06-.27.06Z" transform="translate(0 -1)"/><path class="cls-3" d="M650.46,135.69a.45.45,0,0,1,.39,0,22,22,0,0,1-3.76,3.5,20.51,20.51,0,0,0-1.72,1.35,41.56,41.56,0,0,0-4.26,4c-1,1.14-1.9,2.06-2.81,3.23s-1.36,1.94-2.36,3.47a57.41,57.41,0,0,0-3.65,6.68c-.74,1.46-1.56,3.28-1.89,4.09-.88,2.06-1.23,3-2,4.56-.47.9-.74,1.47-1.21,2.36a31.87,31.87,0,0,1,2.1-8.07c.32-.81,1.17-2.75,1.91-4.21s2.79-5.25,3.8-6.78a40.75,40.75,0,0,1,2.48-3.43c.91-1.17,1.77-2.1,2.8-3.23a60,60,0,0,1,4.42-4.11,13,13,0,0,1,1.68-1.23A10.25,10.25,0,0,1,650.46,135.69Z" transform="translate(0 -1)"/><path class="cls-3" d="M667.76,158.47c2-1.29,3.38-1.95,5.28-3a20.06,20.06,0,0,1-4.47,4.34,12.1,12.1,0,0,1-2.22,1.35,61,61,0,0,1-5.61,2.8c-.83.3-2,.78-2.64,1s-.42.15-1.25.45-2.05.64-3.27,1a38.63,38.63,0,0,1-5.56,1,19.11,19.11,0,0,1-3.36.32,9.61,9.61,0,0,1-5.45-1.46c.65-.09,1.16-.09,1.81-.18a20.1,20.1,0,0,1,3.72-.23c.63,0,2-.14,3.21-.23a44.26,44.26,0,0,0,5.41-1c1.22-.33,2.44-.66,3.24-.85s.57-.24,1.25-.45,1.81-.7,2.49-.91a53.44,53.44,0,0,0,5.46-2.71C666.84,159.13,667.46,158.65,667.76,158.47Z" transform="translate(0 -1)"/><path class="cls-3" d="M635.94,126.84a4.43,4.43,0,0,1-.55,1.26c-.06.23-.15.09-.18.21a13.66,13.66,0,0,0-2,1.79,18.75,18.75,0,0,0,1.8-1.2,7.07,7.07,0,0,1-1.74,2,16.21,16.21,0,0,1-1.75,1.46c-.92.66-3.23,2.37-4.53,3.07-.72.33-1.6.87-2.32,1.2a3.26,3.26,0,0,1-1.13.48c-.71.33-1.81.7-3,1.3s-4.25,1.87-5.47,2.2-2.82.7-3.47.8a20.56,20.56,0,0,1-5.93-.06c2-.64,3.39-.94,5.68-1.52.53-.12,2.14-.49,3.36-.82s4.13-1.39,5.25-1.88,2.11-.87,2.82-1.2.45-.27,1-.52a20.27,20.27,0,0,0,2.17-1.11,33.36,33.36,0,0,0,4.39-3c.8-.69,1.42-1.17,1.59-1.38A45.13,45.13,0,0,1,635.94,126.84Z" transform="translate(0 -1)"/><path class="cls-3" d="M635.24,128.19s.18-.21.15-.09a1,1,0,0,1-.42.65c-.47.39-1.18.72-1.8,1.2C634,129.27,634.59,128.79,635.24,128.19Z" transform="translate(0 -1)"/><path class="cls-3" d="M674.4,173.73h0a51.7,51.7,0,0,1-5.4,3,17.25,17.25,0,0,0-2.2,1.23,29.62,29.62,0,0,0-4.53,3.06,22.87,22.87,0,0,0-2,1.8,9.91,9.91,0,0,0-.85.92,29.29,29.29,0,0,0-2.13,2.52c-.77,1.07-2.57,3.79-3.22,4.9s-1.62,3-1.88,3.58c-1.24,2.47-2,3.94-3.24,6a21.68,21.68,0,0,1,1.87-6.62c.29-.69,1.26-2.6,1.94-3.82s2.5-4.06,3.27-5.14,1.6-1.88,2.28-2.6.35-.42.86-.93,1.45-1.28,1.95-1.79a25.87,25.87,0,0,1,4.68-3.16,15.31,15.31,0,0,1,2.32-1.2A18.92,18.92,0,0,1,674.4,173.73Z" transform="translate(0 -1)"/><path class="cls-3" d="M649.81,173l.23-1a2.2,2.2,0,0,1,.22,1.19S649.9,173.19,649.81,173Z" transform="translate(0 -1)"/><path class="cls-3" d="M650.38,173.3a3.84,3.84,0,0,1,1,.62c-.23-.06-.89,0-1.13,0S650.26,173.27,650.38,173.3Z" transform="translate(0 -1)"/><path class="cls-3" d="M649.81,173c.15-.09.36.08.45.23s0,.51-.15.6-.62,0-.74-.06,0-.12,0-.12A1.7,1.7,0,0,0,649.81,173Z" transform="translate(0 -1)"/><path class="cls-3" d="M649.81,173c.24.06-.26.56-.26.56s0,.12-.18.21c-.63,0-1-.11-1.61-.14a16.8,16.8,0,0,0-2.14,0,8.87,8.87,0,0,0-1.82.19,9.43,9.43,0,0,1-1.18.21l-1.25.45a19.13,19.13,0,0,0-1.87.94,9.12,9.12,0,0,0-1.34.81c-1.21.84-2.13,1.5-3.32,2.22a10.79,10.79,0,0,1,3-3.44,12.69,12.69,0,0,1,1.45-.78c.45-.27,1.43-.66,2-.91s1-.27,1.37-.42a4.26,4.26,0,0,1,1.19-.21,9.8,9.8,0,0,1,1.93-.16,7.86,7.86,0,0,1,2.23.16A3.21,3.21,0,0,1,649.81,173Z" transform="translate(0 -1)"/><path class="cls-3" d="M649.34,173.93c.33-.3.48.12.77-.06a7.12,7.12,0,0,1-1.44,2.3,25.05,25.05,0,0,1-1.93,1.68c-2.22,1.85-4.79,4.13-7.31,6.17s-5.75,4.91-8,7A11.17,11.17,0,0,1,630,192.2a8.39,8.39,0,0,1-2.43,1.17c-.12,0,.21-.33.09-.36s-.21-.17-.45-.23a14,14,0,0,1,2.22-1.86,5.33,5.33,0,0,0,.92-.66l0,.12c.74.06.92-.15,1.45-.78.18-.21.33-.81.62-1,2.11-1.88,4.18-3.65,6.43-5.63s5.09-4.31,7.16-6.08c.8-.69,1.28-1.08,1.9-1.56A6.31,6.31,0,0,0,649.34,173.93Z" transform="translate(0 -1)"/><path class="cls-3" d="M628.66,147.92a9.71,9.71,0,0,1,0,1.52c0,.12-.51,0-.48-.11S628.57,148.28,628.66,147.92Z" transform="translate(0 -1)"/><path class="cls-3" d="M628.61,149.68a1.44,1.44,0,0,1,.78.95c-.09-.15-.72-.18-.81-.32S628.52,149.53,628.61,149.68Z" transform="translate(0 -1)"/><path class="cls-3" d="M628.64,149.56a5.36,5.36,0,0,0,0,.63c0,.12-.42.15-.53.12s-.18.21-.15.09l.23-1C628.19,149.33,628.52,149.53,628.64,149.56Z" transform="translate(0 -1)"/><path class="cls-3" d="M628,149.42h0c-.06.23.06.77-.26,1.07s-.83.3-1.31.69a14.64,14.64,0,0,0-1.74,1.47c-2.11,1.89-5,4.73-7.11,6.35s-3.76,3-5.87,4.38c-.29.18-.65.09-.92.15a2.17,2.17,0,0,0-1,1l.12,0a5.27,5.27,0,0,0-1,.51,7.81,7.81,0,0,1-2,.79l.08-.36c0-.12-.38,0-.23-.06a5,5,0,0,1,1.69-1.23,5.07,5.07,0,0,0,1-.63c2.31-1.71,5.07-3.69,7.44-5.64s5-4.46,7.25-6.44a13.79,13.79,0,0,1,2-1.53A2.22,2.22,0,0,1,628,149.42Z" transform="translate(0 -1)"/><path class="cls-3" d="M628.05,150.43c.14-.09.47-.39.5,0a16.58,16.58,0,0,1-.37,2.57,28.34,28.34,0,0,1-1,2.92,27.76,27.76,0,0,1-1.17,2.74c-.29.69-.5,1-.76,1.58a10.81,10.81,0,0,1-1,1.65,16.78,16.78,0,0,1-1.68,2.24c-.35.42-1,1-1.18,1.23a5,5,0,0,1-3.21,1.23c.86-.92,1.63-1.49,2.63-2.51.18-.21.68-.72,1-1.14a14.5,14.5,0,0,0,1.53-2.15c.39-.54.65-1.1,1-1.52a6.22,6.22,0,0,0,.73-1.46c.27-.57.88-2.06,1.15-2.63.35-.92.61-2,.93-2.8a8.76,8.76,0,0,1,.59-1.88C628,150.16,627.93,150.4,628.05,150.43Z" transform="translate(0 -1)"/><path class="cls-3" d="M635.45,164.1c2.38.08,3.57.88,5.33,1.94-1.81.19-3.3.08-5.26.35a4.6,4.6,0,0,0-2,.79,13.63,13.63,0,0,0-1.78,1.59c-.35.42-.71.83-1.09,1.37s-.44.78-.83,1.32a9.44,9.44,0,0,0-.73,2.47,3.41,3.41,0,0,0,1.3,3,2.87,2.87,0,0,0,2.45.85,3.87,3.87,0,0,0,.09,1.16c-.06.24.27.44.1.65-1.07.75-2,.52-3.1-.25a5.07,5.07,0,0,1-1.2-1.3,6.67,6.67,0,0,1-.72-1.69,6.81,6.81,0,0,1-.22-1.19c0-.39,0-.89,0-1.4a4.89,4.89,0,0,1,.2-1.34,19.89,19.89,0,0,1,.82-2.33c.27-.56.62-1,.89-1.55a7.41,7.41,0,0,1,1.24-1.46,17.21,17.21,0,0,1,2.07-1.77A5.47,5.47,0,0,1,635.45,164.1Z" transform="translate(0 -1)"/><path class="cls-3" d="M619,149.11c1-1.4,1.54-2.15,2.45-3.32a13.6,13.6,0,0,1-1.73,4c-.18.21-.44.78-1,1.52a25.28,25.28,0,0,1-6,5.87,20.18,20.18,0,0,1-3,1.54,7.85,7.85,0,0,1-1.36.42,9,9,0,0,0-1.22.34c-.68.21-2,.39-2.91.55a24.42,24.42,0,0,0-3.42.55,2.63,2.63,0,0,0-1.66,2.13,1.91,1.91,0,0,0,.61,1.66,3.57,3.57,0,0,0,1.4,1,3.37,3.37,0,0,0,1.58.26c-.3.18-.62.48-.86.42l-.36-.08a2.67,2.67,0,0,0-1-.12s.18.3.06.27a2.84,2.84,0,0,1-1.4-1,3.78,3.78,0,0,1-.91-2.5,3.34,3.34,0,0,1,2.09-2.9,29.84,29.84,0,0,1,3.75-.85,14.2,14.2,0,0,0,2.91-.55c.39,0,.42-.16.69-.22a1.72,1.72,0,0,0,.53-.12,7.89,7.89,0,0,0,1.37-.42,31.18,31.18,0,0,0,3-1.54,22.92,22.92,0,0,0,5.77-5.54A2.27,2.27,0,0,1,619,149.11Z" transform="translate(0 -1)"/><path class="cls-3" d="M616.34,143.53a7.72,7.72,0,0,1,3.72.28c-1.33.3-2.14.49-3.59.76a14.35,14.35,0,0,0-2.14.49c-.39,0-1.49.4-2,.52a9,9,0,0,1-1.25.45,6.87,6.87,0,0,0-1.4.55,18.13,18.13,0,0,0-2,1,3.29,3.29,0,0,1-.43-.86c.6-.36,1.46-.78,2-1.14a12.82,12.82,0,0,0,1.43-.67l1.24-.45c.54-.12,1.76-.46,2.17-.61C614.88,143.81,616,143.56,616.34,143.53Z" transform="translate(0 -1)"/><path class="cls-3" d="M646.15,183.38a10.7,10.7,0,0,1,3.86-.82c-1.3.69-2.19,1.23-3.61,1.89a15.72,15.72,0,0,0-1.58.76,34.59,34.59,0,0,0-6.48,5.36,41.71,41.71,0,0,0-3.52,4.58c-.62,1-.26.56-.62,1a1.42,1.42,0,0,1-.38.54c-.62,1-1.06,1.76-1.68,2.75a8.22,8.22,0,0,1-2.22,2.87,4.62,4.62,0,0,1-3.68.61,3.24,3.24,0,0,1-2-1.62,2.54,2.54,0,0,1-.24-1.58c0-.12.09.15.23.06a2.1,2.1,0,0,0,.33-.81c.06-.23-.06-.26,0-.5s.51-.51.77-.57a3.49,3.49,0,0,0-.49,1.52,2.34,2.34,0,0,0,.3,1.34,2.48,2.48,0,0,0,1.5,1.12,3.15,3.15,0,0,0,2.61-.37,10.94,10.94,0,0,0,2-2.54c.62-1,1.24-2,1.71-2.87s.21-.33.89-1.55a47.41,47.41,0,0,1,3.69-4.79,32.75,32.75,0,0,1,6.78-5.54A16.58,16.58,0,0,0,646.15,183.38Z" transform="translate(0 -1)"/><path class="cls-3" d="M649.28,188.69a45.07,45.07,0,0,1,2-4.06,14,14,0,0,1-1.08,4.42c-.23.44-.79,1.7-1.23,2.47-.21.33-.89,1.55-1.12,2a6.43,6.43,0,0,1-.8,1.2,7.43,7.43,0,0,1-.95,1.28c-.35.42-1.24,1.47-1.44,1.8s-.21.33-.33.3a2.59,2.59,0,0,1-.6-.66c-.09-.14,0,0,.21-.32s1.06-1.26,1.42-1.68.59-.86.94-1.28.42-.66.65-1.11.88-1.55,1.09-1.88C648.51,190.28,649.07,189,649.28,188.69Z" transform="translate(0 -1)"/><path class="cls-3" d="M635.28,176.19a6.19,6.19,0,0,1-1.21,2.35c0,.12.06-.23-.06-.26s-.21-.69-.3-.83A5.29,5.29,0,0,0,635.28,176.19Z" transform="translate(0 -1)"/><path class="cls-3" d="M605.85,141.48a5.15,5.15,0,0,1,1.8.94c-1.23-.17-2.21-.28-3.58-.36-.24-.06-.77.06-1.4,0a6.05,6.05,0,0,0-2.94,1.18,4.18,4.18,0,0,0-1.36,1.44,4,4,0,0,0-.52,1.64,4.57,4.57,0,0,0,.82,2.85,2,2,0,0,0,1.58.76,3.89,3.89,0,0,0,3.12-.88c-.18.21-.09.36-.27.57a2.82,2.82,0,0,1-2.82,1.21,3.56,3.56,0,0,1-2.23-1.18,6.16,6.16,0,0,1-1.16-3.57,3.81,3.81,0,0,1,.62-2,5.16,5.16,0,0,1,1.68-1.74,9.83,9.83,0,0,1,3.48-1.3c.77-.06,1.28-.07,1.66-.1A7.66,7.66,0,0,0,605.85,141.48Z" transform="translate(0 -1)"/><path class="cls-3" d="M633,176.65c.12,0,.63.53.6.65s-.57.24-.57.24,0,.12-.12,0C632.93,177.51,632.87,176.74,633,176.65Z" transform="translate(0 -1)"/><path class="cls-3" d="M633,177.66c.12,0,.45-.27.69-.21s.21.68.3.83.09.15,0,.38a3,3,0,0,1-.68.72c-.15.09,0,.12-.15.09s0-.38-.12-.53c0-.39-.09-1.16-.07-1.28S632.91,177.63,633,177.66Z" transform="translate(0 -1)"/><path class="cls-3" d="M633.39,179.26c.15-.09.62-.48.68-.72a20.68,20.68,0,0,1,.26,3.1,10,10,0,0,1-.26,2.59l-.61,2.5a4.87,4.87,0,0,1-.79,1.7c-.35.42-1.42,1.17-1.6,1.38s-.35.42-.32.3a5.93,5.93,0,0,1,.79-1.7,21,21,0,0,0,1.21-2.36,6.85,6.85,0,0,0,.52-2.14,13.82,13.82,0,0,0,.16-2.24c.06-.74-.12-1.54,0-2.41Z" transform="translate(0 -1)"/><path class="cls-3" d="M628.38,166.67a36.22,36.22,0,0,1-.87,5.1,15.89,15.89,0,0,1-1.14,3.13,5.67,5.67,0,0,1-.5,1,7.33,7.33,0,0,1-1.24,1.47,5.23,5.23,0,0,1-2.22,1.35,8.52,8.52,0,0,1-1.7.22c-.62,0-.71-.18-1.52-.5a9.37,9.37,0,0,1-2.6-2.27,7.2,7.2,0,0,1-1.3-3.48c0-.89.11-1.49.08-1.87a4.45,4.45,0,0,1,1.35-3c.18-.21.18.3.27.45a4.15,4.15,0,0,0,.54.89,6.65,6.65,0,0,0-.88,2.56,8.14,8.14,0,0,0-.08,1.37,4.07,4.07,0,0,0,.55,1.9,4.79,4.79,0,0,0,1.79,1.45,2.62,2.62,0,0,0,1.31.32,3.29,3.29,0,0,0,1.46-.28,7.09,7.09,0,0,0,2.05-1.14,4.14,4.14,0,0,0,.91-1.17,3.22,3.22,0,0,0,.47-.89C626.44,171,627.35,168.82,628.38,166.67Z" transform="translate(0 -1)"/><path class="cls-3" d="M605.61,145.08a10.5,10.5,0,0,1,1.61,1.66l-.74.45A17.46,17.46,0,0,0,605.61,145.08Z" transform="translate(0 -1)"/><path class="cls-3" d="M607.22,146.74a1.89,1.89,0,0,1,.43.86,1.49,1.49,0,0,1-.75.45,1.78,1.78,0,0,1-.42-.86C606.63,147.1,607.1,146.71,607.22,146.74Z" transform="translate(0 -1)"/><path class="cls-3" d="M607.74,147.75c.11,0,.09.15.24.56a17.67,17.67,0,0,1,.58,2.29c0,.12.06.77,0,1a3.55,3.55,0,0,1,0,1.13,11.56,11.56,0,0,1-.17,1.73,6.18,6.18,0,0,1-1.47,3.43l0,.12c.17-1.22.35-2.44.55-3.78a11.73,11.73,0,0,0,.14-1.61,8.2,8.2,0,0,1,0-1,5.92,5.92,0,0,0,0-.9c-.09-.65-.45-1.75-.48-2.13s-.18-.3-.15-.42A1.17,1.17,0,0,1,607.74,147.75Z" transform="translate(0 -1)"/><path class="cls-3" d="M606.48,147.19c.12,0,.33.71.42.86a.53.53,0,0,1-.44.27c-1,.63-2.08,1.26-3.09,1.77a10.17,10.17,0,0,1,2.64-2.51C606,147.46,606.36,147.16,606.48,147.19Z" transform="translate(0 -1)"/><path class="cls-3" d="M618.38,167.27a4.49,4.49,0,0,1,1.34.2,5,5,0,0,0-1.54,1.14,7,7,0,0,1-.27-1c-.09-.15-.21-.18-.06-.27S618.14,167.21,618.38,167.27Z" transform="translate(0 -1)"/><path class="cls-3" d="M632.64,188.55a3.89,3.89,0,0,1-.62,1c-.53.63-.83.81-1.45.78l0-.12h0c.26-.06,0,0,.44-.27A13.84,13.84,0,0,0,632.64,188.55Z" transform="translate(0 -1)"/><path class="cls-3" d="M616.08,165.32a8.51,8.51,0,0,1,1.53,2c.06.27-.42.15-.45.27s-.2.33-.29.18a16.78,16.78,0,0,0-1.17-1.42c-.42-.35-1-.74-1.38-1.09a3,3,0,0,0-1.4-.47,4.5,4.5,0,0,0-1.78.07,2.28,2.28,0,0,1-1.25-.05h0a16.24,16.24,0,0,1,1.81-1.2,1.81,1.81,0,0,1,1.13,0,4.11,4.11,0,0,1,1.64.53A3.81,3.81,0,0,1,616.08,165.32Z" transform="translate(0 -1)"/><path class="cls-3" d="M617.73,167.36c.12,0,.09.15.18.3a2,2,0,0,1,.27,1,.91.91,0,0,1-.35.42c0,.12-.06.23-.15.09a2.12,2.12,0,0,1-.54-.89c-.09-.15-.3-.33-.27-.45a.26.26,0,0,1,.29-.18C617.28,167.63,617.61,167.33,617.73,167.36Z" transform="translate(0 -1)"/><path class="cls-3" d="M617.86,168.91s.23-.45.32-.3.13,1,.13,1-.39-.48-.51-.5S617.83,169,617.86,168.91Z" transform="translate(0 -1)"/><path class="cls-3" d="M640.75,195.71c.12,0,.59.14.68.29.57.26,1.58.76,1.91,1s.45.24.42.36-.56.74-.68.71,0,0-.33-.2a8,8,0,0,0-1.67-.92c-.12,0-.45-.23-.57-.26l-.71-.17c-.36-.09-1.22-.18-1.34-.21a29.75,29.75,0,0,0-3.69.12,7.16,7.16,0,0,1,3.92-1.07c.24.06,1.1.14,1.58.26C640.06,195.41,640.54,195.53,640.75,195.71Z" transform="translate(0 -1)"/><path class="cls-3" d="M643.76,197.33c.12,0,.63.53.6.65s-.53.62-.65.6-.66-.42-.63-.54S643.64,197.3,643.76,197.33Z" transform="translate(0 -1)"/><path class="cls-3" d="M648.26,198.55a6.8,6.8,0,0,1,.37,2.11,10,10,0,0,1-.23,2,4.47,4.47,0,0,1-.64,1.61,11,11,0,0,1-2.4,2.57,5.45,5.45,0,0,1-2.25,1,4,4,0,0,1-2.12-.13,6.56,6.56,0,0,1-2.74-1.68,2.79,2.79,0,0,1-.37-2.11,4,4,0,0,1,1.83-2.33c.32-.3.68-.22,1.1-.37a5.89,5.89,0,0,0-1.3,1.2,7.71,7.71,0,0,0-.74,1.46,1.79,1.79,0,0,0,.25,1.58,3.42,3.42,0,0,0,2.21,1.29,6.51,6.51,0,0,0,1.75,0,3.67,3.67,0,0,0,1.84-.81,14.43,14.43,0,0,0,2.07-2.27,11.42,11.42,0,0,0,.59-1.38C647.8,201,647.94,199.86,648.26,198.55Z" transform="translate(0 -1)"/><path class="cls-3" d="M643.71,198.58a5.37,5.37,0,0,0,.68-.72,5,5,0,0,1,.87,2.11C644.76,199.46,644.22,199.08,643.71,198.58Z" transform="translate(0 -1)"/><path class="cls-3" d="M642.93,198.13c.12,0,.66.42.63.54s-.21.32-.32.3a9.11,9.11,0,0,1-3.41,2.07c1-.9,1.83-1.83,2.84-2.85C642.78,198.22,643,198,642.93,198.13Z" transform="translate(0 -1)"/><path class="cls-3" d="M610.8,163.65a1.83,1.83,0,0,1,.92-.15c-.59.36-1.21.84-1.8,1.2h0l-.12,0A1.85,1.85,0,0,1,610.8,163.65Z" transform="translate(0 -1)"/><path class="cls-3" d="M627.79,192.92a.45.45,0,0,1-.21.33,7.09,7.09,0,0,1-1.07.25,4.94,4.94,0,0,1,.86-.93A.86.86,0,0,1,627.79,192.92Z" transform="translate(0 -1)"/><path class="cls-3" d="M627.55,193.37c.09.15-.24.45-.53.63a10.66,10.66,0,0,0-1.13,1,4.34,4.34,0,0,0-.62,1c-.08.36-.32.81-.44,1.29s-.11,1-.17,1.22a1.22,1.22,0,0,1-.41.65c-.15.09,0,.51-.09.36a1,1,0,0,1-.42-.86,10.65,10.65,0,0,1,.26-2.08,6,6,0,0,1,.61-1.49,6.43,6.43,0,0,1,.8-1.2,8.05,8.05,0,0,1,1.3-1.2c.3-.18.69-.21.78-.06s-.68.72-.74,1S627.46,193.22,627.55,193.37Z" transform="translate(0 -1)"/><path class="cls-3" d="M606.89,165.73s.06.26-.09.35a5.19,5.19,0,0,1-.95.28,5.37,5.37,0,0,1,.68-.72Q606.93,165.55,606.89,165.73Z" transform="translate(0 -1)"/><path class="cls-3" d="M606.65,165.67a3,3,0,0,0-.68.72c.24.05.83-.31.92-.16s-.09.36-.38.54a4.39,4.39,0,0,1-1.4.54,3.41,3.41,0,0,1-1.31.19c-.38,0-.86-.08-1.25-.05a7.7,7.7,0,0,1-1.64-.53,1.52,1.52,0,0,1-.69-.8c0-.12.36.09.6.15a1.17,1.17,0,0,0,.65-.1,3.34,3.34,0,0,0,1.08.27,3.86,3.86,0,0,0,1.13,0c.38,0,.65-.09,1-.13a3,3,0,0,0,1.13-.48C606.29,165.58,606.41,165.61,606.65,165.67Z" transform="translate(0 -1)"/><path class="cls-3" d="M624.22,199.25a1.82,1.82,0,0,1,.41-.65.61.61,0,0,0,0,.38,2.41,2.41,0,0,1-.33.81s-.23-.06-.21-.18h0C624.28,199.52,624.19,199.37,624.22,199.25Z" transform="translate(0 -1)"/><path class="cls-3" d="M601.17,165.85c.12,0,.36.09.33.21s-.5,0-.65.09l-.6-.15c-.12,0-.09-.15-.06-.26A2.75,2.75,0,0,1,601.17,165.85Z" transform="translate(0 -1)"/></g></g></svg>