<svg id="Layer_1" data-name="Layer 1" xmlns="http://www.w3.org/2000/svg" viewBox="0 0 720 480"><defs><style>.cls-1{fill:#cfc3b4;}.cls-2{fill:#3c3c3c;}.cls-3{fill:#202020;}.cls-4{fill:none;}.cls-5{fill:#fff;}</style></defs><title>3</title><g id="_3" data-name="3"><path class="cls-1" d="M719,1V481H-1V1Z" transform="translate(1 -1)"/><g id="_Group_" data-name="&lt;Group&gt;"><path class="cls-2" d="M258.3,173.7h0Z" transform="translate(1 -1)"/><path class="cls-2" d="M258.3,173.7c-1.5-.3-3-.7-4.5-.9v-.1A16.4,16.4,0,0,1,258.3,173.7Z" transform="translate(1 -1)"/><path class="cls-2" d="M240.7,177.1a6.47,6.47,0,0,0-1.3.4,4.35,4.35,0,0,0,.7-.6A1.42,1.42,0,0,0,240.7,177.1Z" transform="translate(1 -1)"/><path class="cls-2" d="M275.3,162a2.65,2.65,0,0,1-.6.5c-.1-.1-.1-.1-.2-.1-1-.8-1.7-1.5-2.6-2.3.1.1.3.1.4.2a10.29,10.29,0,0,1,2.7,1.5C275.1,161.8,275.1,161.9,275.3,162Z" transform="translate(1 -1)"/><path class="cls-3" d="M320.9,233.3c0,.2,0,.2-.2.4-.3.4-.5-.7-.6-.8s0-.2-.1-.4,0-.1-.1-.2l.1.1A3.82,3.82,0,0,0,320.9,233.3Z" transform="translate(1 -1)"/><path class="cls-3" d="M288.4,263.1c.4.3.8.5,1.1.7v.6A15,15,0,0,1,288.4,263.1Z" transform="translate(1 -1)"/><path class="cls-2" d="M276.5,175.7c.4.5.2.4-.1.8h0c-.3-.1-.6-.1-1-.2,0-.3,0-.3-.3-.6a6.47,6.47,0,0,0-1.5-1.1c-1.8-1.1-3.8-2.4-5.8-3.5-1.5-.9-3.2-2-4.8-3h0a2.18,2.18,0,0,0-.4-.5,2.23,2.23,0,0,0-1.3-.6v.1a5.92,5.92,0,0,1-.6-.4c-.6-.4-1-.8-1.5-1.2a.1.1,0,0,0,.1-.1l.1-.1a9.09,9.09,0,0,1,1.8.8c.2.1.5.3,1,.6,1.9,1.2,4.5,2.9,6.5,4.1s4,2.4,5.9,3.6C275.5,174.9,276.2,175.2,276.5,175.7Z" transform="translate(1 -1)"/><path class="cls-2" d="M276.7,160.7c-.4.6-.6,1.1-1,1.6-.2-.1-.3-.3-.5-.4A7.89,7.89,0,0,0,276.7,160.7Z" transform="translate(1 -1)"/><path class="cls-2" d="M227,163.9c-.3-.1-.6-.4-.9-.5s-.6-.5-.9-.6a3.7,3.7,0,0,0-1.1-.5L223,162a4.48,4.48,0,0,0-1.1-.1h0a1.85,1.85,0,0,0-.7-.2.37.37,0,0,1-.3-.1c-.1-.4.3-.5.7-.5a7.5,7.5,0,0,1,1.5,0,5,5,0,0,1,1.3.4,13.92,13.92,0,0,1,1.3.6,9.55,9.55,0,0,1,1.6,1.2c.3.3.6.6.3.7l-1.2-.9C226.5,163.3,226.8,163.6,227,163.9Z" transform="translate(1 -1)"/><path class="cls-3" d="M437.8,368.6c0-.2-.1-.3-.2-.5a1.21,1.21,0,0,0-.5-.5.35.35,0,0,1-.2-.1l-.5-.5a2.19,2.19,0,0,0-.5-.3,1.09,1.09,0,0,1,.5-.1,2.92,2.92,0,0,1,.9.2,14.2,14.2,0,0,1,1.2,1.3,1.7,1.7,0,0,1,.1.7c0,.4-.2.7-.5.6H438a.68.68,0,0,0-.2-.8C437.9,368.7,437.8,368.7,437.8,368.6Z" transform="translate(1 -1)"/><path class="cls-3" d="M424.3,366.1a4.35,4.35,0,0,0-.7.6l-.9.3c.2-.2.4-.3.6-.5h0A3,3,0,0,1,424.3,366.1Z" transform="translate(1 -1)"/><path class="cls-2" d="M260.5,171.3c-.3.1-.6.1-.9.2h0c-.1,0-.2-.1-.4-.1a4.88,4.88,0,0,1,.7-.3c.1,0,.1,0,.2-.1h.1c.2.1.4.2.4.3C260.5,171.2,260.5,171.3,260.5,171.3Z" transform="translate(1 -1)"/><path class="cls-3" d="M278.6,272c-.1-.2-.1-.1-.2-.2a.1.1,0,0,0-.1-.1h0c-.2-.7-.5-1.7-.6-2.2-.4-1.9-.6-3.2-1-5,.6,1.7,1,2.8,1.5,4.7a13.7,13.7,0,0,0,.7,2.4,106.87,106.87,0,0,0,3.6,10.4c.4.8.7,1.6,1.1,2.3a23.86,23.86,0,0,0,1.2,2.2c.7,1.3,2.2,2.4,3,3.3,1.7,1.8,2.8,2.1,4.1,4.3s2.3,3.2,3.2,6.4,1.3,8.2,4.3,11.4,5.8,8.2,7.7,12.1c.6,1.3,1.2,2.7,1.6,3.4a9.88,9.88,0,0,1,.6,1.3,10.13,10.13,0,0,0,3.6,3.8,6.72,6.72,0,0,0-1.2-.6,7.26,7.26,0,0,1-2.8-2.5,4.93,4.93,0,0,1-.8-1.3c-.4-.8-1-2.1-1.6-3.4a81.35,81.35,0,0,0-7.6-12.3c-2.7-3.4-3.5-8.2-4.5-11.4a21.86,21.86,0,0,0-3.1-6.5c-1.3-2.1-2.3-2.4-4-4.1a29.86,29.86,0,0,1-2.9-3.2c-.4-.6-.8-1.4-1.2-2.1a13.35,13.35,0,0,1-1.1-2.4,27.18,27.18,0,0,1-1.1-2.5c-.4-.9-.8-1.9-1.1-2.8s-.6-2-.9-2.9c-.2-.5-.3-1-.5-1.5.1.1.1.1.3,0C279.2,272.7,278.7,272.1,278.6,272Z" transform="translate(1 -1)"/><path class="cls-2" d="M276.2,176.6c-.3,0-.5-.1-.8-.1v-.3c.3.1.6.1,1,.2h0c-.1.1-.1.2-.2.2Z" transform="translate(1 -1)"/><path class="cls-2" d="M259.6,171.5c-.3,0-.6.1-.9.1.2-.1.3-.2.5-.2A.6.6,0,0,1,259.6,171.5Z" transform="translate(1 -1)"/><path class="cls-2" d="M219.5,173.5a9,9,0,0,1-1.5-1.9c0-.1-.1-.1-.1-.2.8.5,1.4,1,2.3,1.6h0a1.79,1.79,0,0,1-.7.5C219.6,173.6,219.5,173.6,219.5,173.5Z" transform="translate(1 -1)"/><path class="cls-2" d="M359.4,353.6c.4-.3.9-.6,1.3-.9.6,0,1.3-.1,1.8-.1l-.3.3a3.59,3.59,0,0,1-1,.7h-1.8Z" transform="translate(1 -1)"/><path class="cls-2" d="M220.8,161.6h.3a1.45,1.45,0,0,1,.7.2h-.1C221.4,161.9,220.9,162,220.8,161.6Z" transform="translate(1 -1)"/><path class="cls-3" d="M312.4,245.5a24.45,24.45,0,0,1-3.9-.5h0l-.6-1.2a19.34,19.34,0,0,0,4.2.6c.3,0,.5-.2.9,0s1,.5,1.4.6A8.35,8.35,0,0,1,312.4,245.5Z" transform="translate(1 -1)"/><path class="cls-3" d="M439.7,338.6c-.1.2-.2.5-.3.7a3.51,3.51,0,0,1-.8.5A12,12,0,0,1,439.7,338.6Z" transform="translate(1 -1)"/><path class="cls-3" d="M405,354.7c-.1.3-.1.6-.2.9a.51.51,0,0,1-.5.4h-.2a.78.78,0,0,1-.4-.4c-.1-.2,0-.5,0-.7s.1-.4.2-.6.1-.3.2-.4h.6a2.49,2.49,0,0,1,.8.1A1.79,1.79,0,0,1,405,354.7Z" transform="translate(1 -1)"/><path class="cls-3" d="M414.9,371.5a3.7,3.7,0,0,1-.5,1.1.52.52,0,0,1-.2-.4h0l.5-.5-.6.3a1.42,1.42,0,0,1-.2-.6,4.94,4.94,0,0,1,.5-1.6c.2-.5.4-.9.6-1.3s.3-.8.5-1.3a7.72,7.72,0,0,0,.2-1.5v-1.2c.4.3.9.5,1.1,1.1a4.68,4.68,0,0,1-.2,1.7,5,5,0,0,1-.5,1.3c-.2.5-.4.8-.6,1.3A6.39,6.39,0,0,0,414.9,371.5Z" transform="translate(1 -1)"/><path class="cls-3" d="M434.9,367.8c-.2-.3,0-.6.3-.8a1.45,1.45,0,0,1,.7-.2c.2.1.3.2.5.3s.3.3.5.5a4.33,4.33,0,0,0-.5-.1,1.88,1.88,0,0,0-.8.2C435.4,367.8,435.1,368,434.9,367.8Z" transform="translate(1 -1)"/><path class="cls-2" d="M263.3,175.3c-1.8-.6-3.2-1.1-4.7-1.6-.6-.2-1.1-.4-1.8-.6,2.9.7,5.3,1.2,8.3,2.1.7.2,2.4.8,3.5,1.2s3.6,1.4,4.6,1.9a23.6,23.6,0,0,1,2.3,1.3,10,10,0,0,1,1.9,1.6,8,8,0,0,1,1.4,2.2c.2.5.2.8.3,1a19.27,19.27,0,0,1,.3,3.3h0v.1a15.39,15.39,0,0,1-1.7-3.1,3.1,3.1,0,0,0-.5-1.1,9.56,9.56,0,0,0-1.5-2.2c-.7-.5-1.2-1.1-2-1.7a10.84,10.84,0,0,0-2.4-1.4,37.06,37.06,0,0,0-4.6-1.9C265.5,176.1,263.9,175.5,263.3,175.3Z" transform="translate(1 -1)"/><path class="cls-3" d="M416,378.9h2.2c1.1,0,2-.1,3.3-.2a35.33,35.33,0,0,0,4.2-.6,16,16,0,0,1,4.9-.2,3.45,3.45,0,0,1,2.1,1.4,4.18,4.18,0,0,1,.5,2.4,3.45,3.45,0,0,1-1.2,2.1c-.6.6-1.7.6-2.4.8a3.14,3.14,0,0,1-2-.4,3.56,3.56,0,0,1-1.4-1.3,5.39,5.39,0,0,1-.7-1.3,9.43,9.43,0,0,0,1,1,5.67,5.67,0,0,0,1.3.8,4.71,4.71,0,0,0,1.7.4,2.7,2.7,0,0,0,1.9-.6,2.23,2.23,0,0,0,.9-1.7,2.18,2.18,0,0,0-.4-1.9,2.45,2.45,0,0,0-1.7-1.1,13.5,13.5,0,0,0-4.5.3c-1.4.2-3,.5-4.3.6s-2.3.2-3.4.2h-2.2a47,47,0,0,1-4.7-.4c-.9-.1-3.2-.3-4.6-.4a16,16,0,0,1-2.9-.5,5.26,5.26,0,0,1-2.6-1.5,2.28,2.28,0,0,1-.2-2.5,7.28,7.28,0,0,1,1.9-2c1.3-1,3.3-2.1,4.5-2.9s2.4-1.6,3.2-2.2c1.6-1.1,2.5-1.4,4-2.3-1.2,1.1-1.7,1.7-3.1,2.8-.7.5-2,1.4-3.2,2.1s-3.1,1.9-4.4,2.8c-.6.5-1.4,1-1.7,1.7a1.51,1.51,0,0,0,.1,1.9,5.49,5.49,0,0,0,2.1,1.2,8.42,8.42,0,0,0,2.7.4c1.3.1,3.7.3,4.5.4a15,15,0,0,0,2,.2A6.94,6.94,0,0,0,416,378.9Z" transform="translate(1 -1)"/><path class="cls-2" d="M344.1,351c-2.7-.7-2-.8-5.3-2.3-1.7-.8-6.9-5.6-9.4-7.6-.6-.5-3.1-2.5-3.8-3s-1.1-.9-1.6-1.2-1.2-.9-1.5-1.1c-2.1-1.8-3.9-3.3-6-5a47.89,47.89,0,0,1,7,4.4,19.94,19.94,0,0,1,2,1.5c.8.7,3.9,3.2,4.7,3.8,2.5,2,7.5,6.8,9.1,7.6,3.2,1.6,2.6,1.7,5.3,2.3s4.2.2,7.5,1.3a39.19,39.19,0,0,0,8.8,1.1h.1c-.4.3-.9.6-1.3.9a35.33,35.33,0,0,1-7.7-1.1,43.56,43.56,0,0,0-6.5-1.3,3.33,3.33,0,0,1,.6-.3,5.85,5.85,0,0,0-1.3.2h0C344.3,351.1,344.2,351.1,344.1,351Z" transform="translate(1 -1)"/><path class="cls-2" d="M275.2,163a2.65,2.65,0,0,0-.6-.5c.2-.2.4-.3.6-.5h0c.1.1.3.2.5.4A2.65,2.65,0,0,1,275.2,163Z" transform="translate(1 -1)"/><path d="M411.8,323.2c3.5,1.6,8.1-.2,10.4,3.2,1,1.4-.6,2.2-1.8,3.2s-4,1-5.7,1.2c-.2,0-.5.1-.7.1-3.8,0-7.5,1.4-9.7-2.6-1-1.8-.1-2.6,1.3-4A6.24,6.24,0,0,1,411.8,323.2Zm2.4,6.3c2.4-.3,7.3.8,6.5-2.8s-6.1-1-8.7-2-7.5-.6-6.6,3.7S411.8,329.9,414.2,329.5Z" transform="translate(1 -1)"/><path class="cls-3" d="M327.7,241.7c-2.5-2.8-5.8-5.9-8.2-8.5-.8-.8-1.5-1.4-1.9-1.8-1.4-1.4-2.1-2.3-3.3-3.6,1.4,1,2.5,1.8,3.9,3a22.05,22.05,0,0,1,1.7,1.6.31.31,0,0,0,.1.2c.1.2,0,.2.1.4s.3,1.2.6.8c.2-.2.2-.3.2-.4l1.2,1.2,2.3,2.3a26.08,26.08,0,0,1,2.3,2.4c.7.7,1.5,1.5,2.1,2.2s1.3,1.6,1.8,2.2,1.2,1.4,1.6,1.9c.8.9,1.9,2.4,2.5,3.1a19.41,19.41,0,0,1,2.2,3.4,34.93,34.93,0,0,1,1.5,3.4c.1.3.4.9.5,1.2a2,2,0,0,1-.8-.4,4.05,4.05,0,0,1-.5-.9,24.94,24.94,0,0,0-1.6-3.3c-.8-1.1-1.5-1.8-2.5-3.2-.5-.7-1.7-2.1-2.5-3.1-.4-.5-1-1.3-1.5-1.9A17.41,17.41,0,0,0,327.7,241.7Z" transform="translate(1 -1)"/><path class="cls-3" d="M383.3,357.6c-1,.1-2.6.4-3.6.5a28.06,28.06,0,0,0-3.1.8,2.62,2.62,0,0,0-.9.5,5,5,0,0,0-.8.7,3.81,3.81,0,0,0-.9,1.3c-.3.5-.2.9-.4,1.4,0-1.5-.5-2,.6-3.5a3.65,3.65,0,0,1,1.9-1.2,34.58,34.58,0,0,1,6.7-1.3,21.76,21.76,0,0,0,2.9-.5,7.49,7.49,0,0,0,1.6-.4c.6-.2.9-.2,1.7-.5s2-.7,2.9-1.1a32.43,32.43,0,0,0,5.3-3.5,5.31,5.31,0,0,0,1.1-1.1c1.1-1.2,1.7-1.9,2.7-3a20.16,20.16,0,0,1-1.8,3.6,5,5,0,0,1-1.1,1.2c-.3.2-.7.5-1.1.8a22.66,22.66,0,0,1-4.4,2.7c-.9.4-2.1.9-2.9,1.2s-1.1.3-1.7.5-.8.2-1.6.4S384.3,357.4,383.3,357.6Z" transform="translate(1 -1)"/><path class="cls-3" d="M339,259.2c-.1-.2-.1-.4-.3-.6-.9-1.5-1.7-1.2-3.1-.6a3.86,3.86,0,0,1,2.1-.9h0a1.94,1.94,0,0,1,1.3.6c.2.1.2.3.4.5s.2.2.4.4l.3.6c.1.3.1.6.2,1a15.43,15.43,0,0,0,.5,1.7c.4.9,1.1,2.2,1.4,3a33.31,33.31,0,0,0,2.5,5c-.9-1.4-1.8-2.8-2.6-4.3-.4-.8-1.1-2-1.5-2.9a10.41,10.41,0,0,1-.6-1.6,9.2,9.2,0,0,1-.3-.9,1.27,1.27,0,0,0-.4-.6C339.2,259.4,339.1,259.4,339,259.2Z" transform="translate(1 -1)"/><path class="cls-2" d="M243.3,172.1a6.23,6.23,0,0,1,1.8,1.4.76.76,0,0,1,.2.5,1.27,1.27,0,0,1-.1.6c-.1.2-.2.3-.3.5a.78.78,0,0,1-.4.4,2.18,2.18,0,0,1-.8.5,10.91,10.91,0,0,0-1.1.6,10.41,10.41,0,0,1-1.6.6c-.2-.1-.3-.1-.4-.2l-.1-.1c.3-.2.6-.4,1-.7a9.29,9.29,0,0,1,1-.5,2.1,2.1,0,0,0,.7-.5l.4-.4a.76.76,0,0,0,.2-.5,4.33,4.33,0,0,1,.1-.5,1,1,0,0,0-.1-.4c-.2-.5-.4-.8-.6-1.3C243.1,172,243.2,172,243.3,172.1Z" transform="translate(1 -1)"/><path class="cls-2" d="M242.9,171.3c.1,0,.3.1.4.1q.9.15,1.5.3a.35.35,0,0,0-.2.1h0a6,6,0,0,1-1.2-.2h-.2Q243.05,171.6,242.9,171.3Z" transform="translate(1 -1)"/><path class="cls-2" d="M257.9,161.2a1.31,1.31,0,0,1,.3-1.3,3.15,3.15,0,0,1,1.9-1.2,4.63,4.63,0,0,1,3,.9,5.57,5.57,0,0,1,1.3,2.2,14.51,14.51,0,0,0,1,1.8c.2.2.3.4.4.5a1.76,1.76,0,0,0,.4.5,9.32,9.32,0,0,0,1,1c.5.5,1.3,1.2,2,1.8a52,52,0,0,0,6,3.5,8.68,8.68,0,0,0,1.7.7c1,.4,1.8.7,2.6,1.1a10.09,10.09,0,0,1,1.5.7,42,42,0,0,1-4.5-1.1c-.3-.1-1-.4-1.7-.7a55.39,55.39,0,0,1-6.2-3.6,21.26,21.26,0,0,1-2.1-1.8c-.5-.5-.6-.7-1-1.1a8.74,8.74,0,0,1-.8-1,14.51,14.51,0,0,1-1-1.8,7.08,7.08,0,0,0-1.2-2,3.16,3.16,0,0,0-2.2-.8c-.7,0-1,.4-1.4.8s-.3.8-.4,1.2.1.7.2,1.2a2.65,2.65,0,0,1-.5-.6V162C258.1,161.6,258.2,161.2,257.9,161.2Z" transform="translate(1 -1)"/><path class="cls-3" d="M320.6,232.7a1.63,1.63,0,0,0,.3.6l-.9-.9-.1-.1a25.28,25.28,0,0,0-1.4-2.9c-.7-1.1-1.7-2.7-2.5-3.8-1.8-2.3-4.2-5.7-5.7-7.9s-3.5-4.9-4.4-6.4c-1.9-3-2.7-4.5-4.4-7.1s-2.8-4.1-4.7-6.9a47.6,47.6,0,0,1-5.3-10.3c-.6-1.7-1.2-3.4-1.7-5a4.25,4.25,0,0,1-.2-1.1V180a2.77,2.77,0,0,0-.1-.9v-.7a1.7,1.7,0,0,0-.1-.7V177c0,.1.1.1.2.2v.9a1.63,1.63,0,0,1,0,.7,2,2,0,0,0,.1.8v.9a2,2,0,0,0,.2,1c.5,1.6,1.1,3.3,1.7,5.1a50.84,50.84,0,0,0,5.3,10.4c1.9,2.8,3,4.3,4.7,6.9s2.5,4.1,4.4,7.2c.9,1.5,3,4.3,4.5,6.5s4.1,5.7,5.9,8c.9,1.2,1.9,3,2.7,4C319.8,230.8,320.2,232,320.6,232.7Z" transform="translate(1 -1)"/><path class="cls-3" d="M374.1,341.1a19.67,19.67,0,0,1,4.2-.1l-3.6.9a2.12,2.12,0,0,0-.7.3c-.2.1-.4.1-.5.2s-.1,0-.2.1-.1,0-.3.1a2.57,2.57,0,0,1-.5.2,4.38,4.38,0,0,0-.9.5,6.08,6.08,0,0,0-1.4,1c-1.8,1.8-3.4,3.7-5.1,5.7a22.26,22.26,0,0,1-2.7,2.6c-.5,0-1.2.1-1.8.1.2-.2.4-.3.6-.5a25.72,25.72,0,0,0,2.9-2.8c1.7-2,3.4-3.9,5.2-5.8a9.38,9.38,0,0,1,1.4-1,4.38,4.38,0,0,1,.9-.5,1.33,1.33,0,0,1,.5-.3c.2-.1.2-.1.3-.1s.1,0,.2-.1.3-.1.5-.2A2.65,2.65,0,0,1,374.1,341.1Z" transform="translate(1 -1)"/><path class="cls-3" d="M438.6,370.3c.1-.1.1-.2.1-.4v-.4c.1-.1.2-.3.4-.5C439,369.5,439.1,370,438.6,370.3Z" transform="translate(1 -1)"/><path class="cls-2" d="M252.5,172.9a12.75,12.75,0,0,1-1.4-.4h0c-.1-.1-.1-.2,0-.2h.1c.1,0,.2,0,.2.1h.2c.2.1.5.1.8.2.1,0,.1,0,.2.1A.31.31,0,0,0,252.5,172.9Z" transform="translate(1 -1)"/><path class="cls-4" d="M434.2,365.6a11.57,11.57,0,0,1,1.6,1.1c-.2.1-.5.1-.7.2s-.5.5-.3.8.5,0,.7-.1a1.88,1.88,0,0,1,.8-.2.9.9,0,0,1,.5.1c.3.3.7.8.9,1,0,.1.1.2.1.3s0,.6.2.6c0,.1-.1.2-.2.3a4.12,4.12,0,0,1-.8.3h-.1a3,3,0,0,1-1.5-.7,16.32,16.32,0,0,1-2-1.7,15.05,15.05,0,0,0-1.7-1,11.92,11.92,0,0,0-2-.8c-.7-.2-2.1-.4-2.7-.5a6.25,6.25,0,0,0-1.4,0,5.67,5.67,0,0,0-2.2,1.1h0c-.7.3-1.3.6-2.1,1a6.14,6.14,0,0,0-1.3.9,13.62,13.62,0,0,0-1.7,1.7,10.08,10.08,0,0,0-1.2,2.3c-.2.7-.3,1.5-.4,2a8.66,8.66,0,0,1-.2,1c-.2.4-.1.4-.4.8a3.18,3.18,0,0,1-1.2,1.1,2.12,2.12,0,0,1-1.9-.2,2.52,2.52,0,0,1-1-1.5,1.39,1.39,0,0,1,.4-1.3,13.36,13.36,0,0,1,2-2.1.52.52,0,0,1,.2.4,5.36,5.36,0,0,0,.5-1.1,7.84,7.84,0,0,1,.5-1.4c.2-.5.4-.8.6-1.3a5,5,0,0,0,.5-1.3,4.68,4.68,0,0,0,.2-1.7c-.1-.5-.6-.8-1.1-1.1v-.1a8.34,8.34,0,0,0,1.2-.8c.2-.2.6-.5.3-1s-.2-.8-.9-1.3a7.22,7.22,0,0,0-2.6-1.4,10.63,10.63,0,0,0-3.1.1,4.71,4.71,0,0,0-1.5.6,28.22,28.22,0,0,0-4.6-1.1,15.76,15.76,0,0,0-2.8.2,29.64,29.64,0,0,0-3.8.9,13.14,13.14,0,0,1-1.5.5,2.92,2.92,0,0,1-.9.2c-.4.1-.5.1-.9.2a3,3,0,0,1-1.6-.1,3.39,3.39,0,0,1-1.4-.9,1.1,1.1,0,0,1-.1-1.1c.1-.4.7-.5.9-.5a14,14,0,0,1,4.1.5c-.7-.4-1.4-.7-2-1a5.57,5.57,0,0,0,1.9.1c1.1-.1,2.8-.4,4-.6a36.13,36.13,0,0,0,3.8-.8,4.35,4.35,0,0,0,1.8-.9,12.05,12.05,0,0,0-1.9,0v-.5h.2c.3,0,.4-.1.5-.4s.1-.6.2-.9a2.65,2.65,0,0,1,.5-.6c1.3.1,3.2.3,4.3.3a15.48,15.48,0,0,0,2.2-.1,8.08,8.08,0,0,0,1.5-.1c.8-.1,2-.4,3-.6.7-.2,2.1-.7,3-1,.8,1.2,1.4,2.2,2.2,3.6l.8,1.6a21.41,21.41,0,0,0,1.6,2.8,5.84,5.84,0,0,0,1.4,1.3,8.49,8.49,0,0,0,1.7.8c.9.3,1.8.6,2.6.8l1.6.6A21.18,21.18,0,0,0,434.2,365.6Z" transform="translate(1 -1)"/><path class="cls-2" d="M277.8,176.8c-.5-.1-1.1-.1-1.6-.2.1,0,.1-.1.2-.1C276.8,176.6,277.3,176.7,277.8,176.8Z" transform="translate(1 -1)"/><path class="cls-3" d="M419.4,352.4c.1,0,.1.1.2.2h0Z" transform="translate(1 -1)"/><path class="cls-3" d="M414,372.1l.6-.3-.5.5C414.1,372.2,414.1,372.1,414,372.1Z" transform="translate(1 -1)"/><path class="cls-2" d="M253.5,172.9c-.1,0-.2-.1-.3-.1.2,0,.3.1.5.1Z" transform="translate(1 -1)"/><path d="M432.3,333.6a1,1,0,0,1,1-.5c.3.1.3,0,.5.1s.5.3.5.6.1.5-.1.8a1.25,1.25,0,0,1-1.3.4c-.4-.2-.6-.3-.7-.7A2,2,0,0,1,432.3,333.6Z" transform="translate(1 -1)"/><path class="cls-3" d="M420.7,350.6c.6-.4,1-.7,1.4-1h.6a8.7,8.7,0,0,1-1.5,2,4.82,4.82,0,0,1-1.2.8c-.1.1-.3.1-.5.2s-.1-.1-.2-.2c0,.1.1.1.1.2a13.2,13.2,0,0,1-3,1c-.9.2-2.2.5-3,.6a8.08,8.08,0,0,1-1.5.1,16.2,16.2,0,0,1-2.2.1c-1.2,0-3.1-.2-4.3-.3l.1-.1c.2-.3,0-.4-.2-.6a.62.62,0,0,0-.7-.1c-.2.1-.3.4-.4.5l-.1.1c-.9-.1-1.8-.2-2.2-.2a50.68,50.68,0,0,1-5-1.4c1.8.2,3,.3,4.9.5.5.1,1.6.2,2.7.3s3.6.3,4.9.3a16.2,16.2,0,0,0,2.2-.1,7.08,7.08,0,0,0,1.4-.1c.7-.1,2-.4,2.9-.6a15.05,15.05,0,0,0,3.4-1.3A8.33,8.33,0,0,0,420.7,350.6Z" transform="translate(1 -1)"/><path class="cls-3" d="M394.4,358.5h-.5c.1,0,.1,0,.2-.1A.37.37,0,0,0,394.4,358.5Z" transform="translate(1 -1)"/><path class="cls-2" d="M235.8,171.7a39.16,39.16,0,0,1,2.7,3.3,7,7,0,0,1,.8,1,8.74,8.74,0,0,0,1,.8c-.1.1-.2.1-.2.2a9.93,9.93,0,0,1-2-1.1,2.9,2.9,0,0,1-.8-1c-1-1.1-1.8-2-2.9-3.3s-2.8-3-4.1-4.2c-.4-.4-1.1-1-1.3-1.2a21.9,21.9,0,0,1-2.1-2.3h.5c1,.7,1.9,1.5,2.9,2.3a5.07,5.07,0,0,0,.7.6c-.1,0-.1,0-.2-.1.4.5.3.7.9,1.1.2.1.5.3.7.4A36,36,0,0,1,235.8,171.7Z" transform="translate(1 -1)"/><path class="cls-3" d="M252.2,199.8c-.5-.5-1.4-1.2-1.7-1.5-1.3-1.2-2.2-2.1-3.4-3.3a41.14,41.14,0,0,1,3.5,2.7c.3.3,1.2,1,1.7,1.5s1.2,1.1,1.8,1.6l.9.9.9.9,1.9,1.9c.6.6,1.2,1.3,1.8,1.8,2,2.1,4.9,5.4,6.5,7.4a132,132,0,0,1,9,12.6,74.54,74.54,0,0,1,4.5,7.6c1.6,3,2.2,4.7,3.8,8.1.8,1.7,2,4.4,3,6.9s2.3,6.5,3.2,9.5a19,19,0,0,1,.7,5.4v.4c-.3-.2-.5-.3-.8-.5v-.2a20.93,20.93,0,0,0-.7-5.1,72.52,72.52,0,0,0-3-9.3c-1-2.5-2.1-5.2-2.9-6.9-1.5-3.4-2.1-5-3.7-8a64.49,64.49,0,0,0-4.5-7.5,118.67,118.67,0,0,0-8.9-12.6c-1.6-1.9-4.5-5.2-6.5-7.3-.5-.5-1.2-1.3-1.7-1.8l-1.9-1.9c-.6-.6-1.3-1.2-1.9-1.8C253.3,200.9,252.7,200.3,252.2,199.8Z" transform="translate(1 -1)"/><path class="cls-2" d="M316.5,289.6c-.1-.4-.3-1.6-.4-2.4a22.84,22.84,0,0,1,0-3.7,9.23,9.23,0,0,1,.9-2.5,10.71,10.71,0,0,1,1.5-2.2,15.27,15.27,0,0,1,1.8-1.8c.2-.2.3-.4.5-.5.5-.6,1-1.3,1.3-1.6a43.46,43.46,0,0,1,4.1-4.4c-1.4,2-2.3,3.9-3.8,6a8.3,8.3,0,0,1-1.3,1.6,21.54,21.54,0,0,0-1.9,2.2,11.8,11.8,0,0,0-1.3,1.8,6.79,6.79,0,0,0-.7,2,17.09,17.09,0,0,0,0,3.2c.1.8.3,1.7.4,2.2a9.26,9.26,0,0,1-.4,4.7C317,292.5,316.8,291.4,316.5,289.6Z" transform="translate(1 -1)"/><path class="cls-3" d="M409.4,360.8h-.6c.1,0,.1-.1.2-.1A.6.6,0,0,0,409.4,360.8Z" transform="translate(1 -1)"/><path class="cls-2" d="M272.1,164.3c-.3,0-.7.1-1,.1s-1.1.1-1.4.1a20.43,20.43,0,0,1-3.7-.6c1.3-.1,2.4-.1,3.7-.1a5.28,5.28,0,0,0,1.2-.1c.3,0,.7-.1.9-.1s.7-.2.8-.2a3,3,0,0,0,1.5-.7,1.76,1.76,0,0,0,.5-.4c.1.1.4.3.6.5h0l-.5.5a4.24,4.24,0,0,1-1.8.7C272.8,164.2,272.3,164.3,272.1,164.3Z" transform="translate(1 -1)"/><path class="cls-3" d="M394.4,358.6h0c-.1,0-.2-.1-.3-.1a4.78,4.78,0,0,1,1.8-.6,32.41,32.41,0,0,0,4-.6c1.2-.2,2.8-.6,3.8-.8.2,0,.3,0,.4-.1.7-.1,1.1.1,1.9,0-.8.3-.9.6-1.8.9a36.13,36.13,0,0,1-3.8.8c-1.2.2-2.9.5-4,.6C395.5,358.7,395.1,358.6,394.4,358.6Z" transform="translate(1 -1)"/><path class="cls-3" d="M291.6,227.8c-1.9-3.2-2.8-4.9-4.3-7.9s-2.2-4.5-3.7-8.1a66.66,66.66,0,0,1-4.2-13.5c-.3-2.2-.3-4.8-.5-7.1v-1.8a8,8,0,0,1,.3-1.5v-.2h0l.3-1.2c.1-.4.2-.9.3-1.3a2.42,2.42,0,0,1,.6-1,9.76,9.76,0,0,1,1.7-1.8l-1.1,1.9a8.79,8.79,0,0,0-.6,1c-.1.4-.2.9-.3,1.3s-.2.9-.3,1.4a7.72,7.72,0,0,0-.2,1.5v1.8c.1,2.2,0,4.7.3,6.9a64.74,64.74,0,0,0,4.2,13.3c1.5,3.5,2.2,5,3.6,8s2.4,4.6,4.2,7.8a53,53,0,0,0,4.4,6.3c1.7,2.1,3.9,5.3,6.3,7.2a17.69,17.69,0,0,0,4.3,2.8h.1a3.75,3.75,0,0,1,.1,1c-.1,0-.2-.1-.3-.1a18.26,18.26,0,0,1-4.6-3c-2.5-2-4.7-5.4-6.4-7.5C294.3,232,292.6,229.4,291.6,227.8Z" transform="translate(1 -1)"/><path class="cls-3" d="M398.3,321.7a6.76,6.76,0,0,0-1.5.8,14.63,14.63,0,0,0-1.3.9c-.4.3-.5.7-.8,1.1a2.3,2.3,0,0,1,.2-1.4,3.48,3.48,0,0,1,1.3-1.1c.6-.3.7-.5,1.6-.9a33.14,33.14,0,0,1,5.6-1.7,13.58,13.58,0,0,1,2.9-.3,14.8,14.8,0,0,1,2,.1,22.5,22.5,0,0,1,4,.7,39.86,39.86,0,0,0,5.8,1.2,16.92,16.92,0,0,1,2.1.3A21.67,21.67,0,0,1,424,323c-1.5-.3-2.5-.5-4.2-.8a10.36,10.36,0,0,0-2-.1,17.66,17.66,0,0,1-5.5-1.3,15.86,15.86,0,0,0-3.8-.9,12.75,12.75,0,0,0-1.9-.1,22.82,22.82,0,0,0-2.7.2A33.88,33.88,0,0,0,398.3,321.7Z" transform="translate(1 -1)"/><path class="cls-3" d="M438.1,325.1a10.71,10.71,0,0,1-1.3-2.1,4.53,4.53,0,0,1-.2-2.3c.3-1.4,1.1-2.6.8-4.1a5.15,5.15,0,0,0-2.3-3.1,8,8,0,0,0-3.8-1.6,81.53,81.53,0,0,0-8.4-.7,35.14,35.14,0,0,1-7-1.2c-2-.5-3.2-.9-4.8-1.2s-1-.1-2.8-.4-2.5-.6-5.6-1.2-5.5-1.3-10.6-2.4-13.5-7.8-17.4-13.6a73.53,73.53,0,0,0-9.2-11c-2.7-2.5-6.9-3.7-9.6-4.3s-3.9.1-5.8-.4-1.3-.5-2.4-1.7a16.8,16.8,0,0,1-1.8-2.1c.5.6,1,1.1,1.5,1.6,1.2,1.1.4,1.2,2.3,1.7s3.1-.2,5.9.4,7.5,1.6,10.2,4.3a86.87,86.87,0,0,1,9.3,11.1c3.9,5.9,12.2,12.4,17.4,13.5s7.4,1.8,10.5,2.4,3.8.9,5.6,1.2,1.3.1,2.8.4,2.7.7,4.7,1.2a42,42,0,0,0,6.8,1.1,64.93,64.93,0,0,1,8.6.7,10.73,10.73,0,0,1,4.1,1.8,7.51,7.51,0,0,1,2.7,3.6,5.45,5.45,0,0,1-.1,2.2c-.2.7-.6,1.3-.8,2.1a4.52,4.52,0,0,0,.1,2,11.78,11.78,0,0,0,1.1,1.9c.8,1.3,1.9,2.3,2.7,3.7a17.23,17.23,0,0,1,1.9,4.4,4.3,4.3,0,0,1-.2,2.5,5.37,5.37,0,0,1-1.3,2.2c-.8.6-1.6,1.3-2.4,1.8a4.88,4.88,0,0,0,.3-.7l-1.2,1.2a10.91,10.91,0,0,1-1.1.6c-3,1.5-5.7,3.3-9,4.1s-5.9.6-9.5,0-7.6-1.9-11.3-2.6c-1.9-.3-4.2-1-6.2-1.3-1-.2-2.1-.3-3-.5s-1.9-.5-2.7-.7-1.6-.4-2.2-.6a8.11,8.11,0,0,1-1.1-.3c-.4-.1-.7-.2-1-.3s-.1-.2-.2-.4,0-.2,0-.3v-.5c0-.2-.2-.7.1-.8s.3.5.4.7.1.3.2.4a.31.31,0,0,1,.1.2l.1.1h.1a1.34,1.34,0,0,1,.5.1,8.66,8.66,0,0,0,1,.2c.5.1,1.4.4,2.2.6a16.65,16.65,0,0,0,2.6.6c.9.2,2,.3,2.9.5,1.9.3,4.3.9,6.1,1.2,3.7.6,7.8,1.9,11.2,2.6s6.1.9,9.3.1,5.8-2.5,8.7-4a14.22,14.22,0,0,0,4.1-2.8,4.79,4.79,0,0,0,1.3-4.1,8.77,8.77,0,0,0-1.7-4.1C440,327.4,439,326.4,438.1,325.1Z" transform="translate(1 -1)"/><path class="cls-3" d="M437,370.1a1.33,1.33,0,0,0,.8-.3c.1,0,.2-.1.2-.3h.1a.56.56,0,0,0,.5-.6,1.7,1.7,0,0,0-.1-.7c.1.1.1.2.2.2a1.3,1.3,0,0,1,.2,1,1,1,0,0,1-.5.4A3.93,3.93,0,0,1,437,370.1Z" transform="translate(1 -1)"/><path class="cls-2" d="M279.3,187.8v0Z" transform="translate(1 -1)"/><path class="cls-3" d="M436.1,370.6a2.35,2.35,0,0,0,.8.2.9.9,0,0,1-.5-.1A.37.37,0,0,1,436.1,370.6Z" transform="translate(1 -1)"/><path class="cls-3" d="M309.9,249.5a47.2,47.2,0,0,0,1.5,4.5c.5,1.5,1.3,3.6,1.9,5.2,1.2,3.2,2.6,7.1,3.6,10.1.5,1.5,1,2.7,1.3,3.6a4.91,4.91,0,0,1,.3,1.2c.1.4,0,1.1-.2,1.2a.37.37,0,0,1-.3-.1c-.5-.4-.2-.5-.6-1.4s-.8-2.1-1.4-3.7c-1.2-3-2.6-7.1-3.8-10.4-.6-1.6-1.4-3.8-1.9-5.3s-1.1-3.5-1.5-4.6a21.88,21.88,0,0,1-.8-2.7c-.2-1-.4-1.7-.5-2.5l1,.3h0a17.08,17.08,0,0,1,.7,1.8A16,16,0,0,0,309.9,249.5Z" transform="translate(1 -1)"/><path class="cls-3" d="M315,288.8a15.77,15.77,0,0,1,1.6,5.4,17.85,17.85,0,0,1,0,6.1c-.4,2,.3,6.7.7,8.9.3,1.3.7,2.9.9,3.7.5,2.1.8,3.5,1.2,5.5a23.81,23.81,0,0,1-2.4-4.5c-.3-.8-.6-2.4-.9-3.7a35.62,35.62,0,0,1-.7-9.1,23.52,23.52,0,0,0-1.5-11.7c-1.1-2.5-1-1.5-1.9-2.9a22.54,22.54,0,0,0-2.4-3c-2.3-2.6-5-5.3-7.6-7.8-1.3-1.2-3.3-2.9-4.5-4s-2.9-2.5-3.8-3.3-1.7-1.4-2.1-1.7a9.24,9.24,0,0,1-1.4-1.4c0-.3.1-.6.1-1,.6.4,1.2.7,2,1.3a27.65,27.65,0,0,1,2.2,1.7c.9.8,2.6,2.3,3.9,3.5s3.2,2.7,4.5,4c2.6,2.6,5.4,5.4,7.7,8a37.62,37.62,0,0,1,2.5,3.1A24.17,24.17,0,0,1,315,288.8Z" transform="translate(1 -1)"/><path class="cls-2" d="M212.1,172.8a6.8,6.8,0,0,0,.2,1.5,3.81,3.81,0,0,0,.9,1.3,8.11,8.11,0,0,0,1.8,1,3,3,0,0,0,1.2.2c1.3.1,2.3.1,3.5.2-.7.1-1.3.3-1.9.4s-1.1.1-1.7.2a3.42,3.42,0,0,1-1.3-.2,6,6,0,0,1-2.2-1.2,6.45,6.45,0,0,1-1.1-1.6,4,4,0,0,1-.3-1.9,4.59,4.59,0,0,1,1.1-2.2,2.31,2.31,0,0,1,1.8-.7,5.23,5.23,0,0,1,3.5,2.2,9.13,9.13,0,0,0-1.3-.8,5.46,5.46,0,0,0-1.8-.6,2.69,2.69,0,0,0-1.5.5A2,2,0,0,0,212.1,172.8Z" transform="translate(1 -1)"/><path class="cls-3" d="M241,198.9c-.3-.5-.9-1.4-1.1-1.7-.8-1.2-1.3-2.1-2-3.3.9,1.2,1.6,2.2,2.5,3.5a.35.35,0,0,1,.1.2c.3.4.7,1.1,1,1.6s.8,1.3,1.2,2,.9,1.4,1.3,2.1.9,1.6,1.4,2.3,1.1,1.7,1.5,2.4c1.7,2.7,3.9,6.6,5.3,9,2.9,4.8,6.3,11.2,8.4,15.3s2.8,5.6,4.4,8.9,2.3,4.9,3.7,8.6c.7,1.8,1.9,5.1,2.8,7.5s2.4,5.7,3.5,8.2c.5,1.3,1.3,2.8,1.8,3.9a13,13,0,0,0,1.5,2.3h0v.1a10.38,10.38,0,0,1,.3,1.2,1.07,1.07,0,0,1-.3-.5,20.79,20.79,0,0,1-1.5-2.4c-.5-1-1.4-2.8-1.9-4.1-1.1-2.6-2.5-6-3.5-8.4s-2.2-5.7-2.9-7.6c-1.4-3.7-2.2-5.3-3.8-8.7s-2.3-4.9-4.4-9-5.6-10.5-8.5-15.4c-1.4-2.4-3.7-6.4-5.4-9.1-.4-.7-1.1-1.7-1.5-2.4s-1-1.6-1.4-2.3-.9-1.5-1.3-2.2S241.3,199.4,241,198.9Z" transform="translate(1 -1)"/><path class="cls-3" d="M437.8,368.9a.37.37,0,0,0-.1-.3.1.1,0,0,1,.1.1.63.63,0,0,1,.1.8C437.8,369.5,437.9,369.2,437.8,368.9Z" transform="translate(1 -1)"/><path class="cls-2" d="M240.7,177.1c.1,0,.2,0,.2-.1l1.2.6C241.7,177.4,241.2,177.3,240.7,177.1Z" transform="translate(1 -1)"/><path class="cls-3" d="M435.9,366.8c-.6-.4-1.3-.9-1.6-1.1-1-.6-2-1.1-2.8-1.5a5.23,5.23,0,0,0-1.6-.6c-.8-.3-1.7-.5-2.6-.8-.4-.2-1.3-.6-1.7-.8a5.84,5.84,0,0,1-1.4-1.3c-.6-.8-1.2-2.2-1.6-2.8s-.7-1.3-.8-1.6c-.8-1.4-1.4-2.4-2.2-3.6h0a16.23,16.23,0,0,1,2.9,3.4c.2.3.5,1,.8,1.6a12.85,12.85,0,0,0,1.4,2.5,8.51,8.51,0,0,0,2.7,1.8c.9.3,1.9.6,2.7.9s.8.3,1.7.7a21.94,21.94,0,0,1,2.9,1.6,23.91,23.91,0,0,1,2.2,1.6c.1.1.3.2.4.4a2.92,2.92,0,0,0-.9-.2C436.2,366.7,436,366.7,435.9,366.8Z" transform="translate(1 -1)"/><path class="cls-2" d="M279.3,187.7Z" transform="translate(1 -1)"/><path class="cls-3" d="M289.4,264.4v-.6c.3.2.5.3.8.5h0a3.75,3.75,0,0,1-.1,1,2.76,2.76,0,0,0-.7-.9Z" transform="translate(1 -1)"/><path class="cls-2" d="M261.8,167.3a.76.76,0,0,0-.4-.2h0V167a5.17,5.17,0,0,1,1.3.6,1.76,1.76,0,0,1,.4.5C262.6,167.8,262.2,167.5,261.8,167.3Z" transform="translate(1 -1)"/><path class="cls-2" d="M253.2,172.6c.2,0,.4.1.7.1h0a.1.1,0,0,1-.1.1h0a.9.9,0,0,0-.5-.1h0C253.2,172.7,253.2,172.7,253.2,172.6Z" transform="translate(1 -1)"/><path class="cls-2" d="M220.7,172.7c.3-.2,1-.5,1.4-.8a2.19,2.19,0,0,1,.5-.3c.1-.1.2-.3.4-.4a5.74,5.74,0,0,0,.4-.7,23.86,23.86,0,0,1,1.2-2.2,9,9,0,0,1-.2,2.3,1.77,1.77,0,0,1-.5.8,2.18,2.18,0,0,0-.5.4,1.33,1.33,0,0,1-.5.3,8.46,8.46,0,0,1-1.5.9c-.2.1-.4.3-.6.4-.2-.2-.4-.3-.5-.4C220.4,173,220.5,172.8,220.7,172.7Z" transform="translate(1 -1)"/><path class="cls-2" d="M221.9,175.1a14.8,14.8,0,0,1-1.3-.8,2.19,2.19,0,0,0-.5-.3c.2-.2.5-.3.7-.5.1.1.2.2.3.2a14.8,14.8,0,0,0,1.3.8,9.25,9.25,0,0,0,1,.5,9.29,9.29,0,0,0,1,.5c.4.2,1,.4,1.4.6a4.8,4.8,0,0,0,1.5.4,8,8,0,0,0,1.5.3h0l1.4.3a8.6,8.6,0,0,1-3.2,0,12.44,12.44,0,0,1-1.6-.4,8.43,8.43,0,0,1-1.4-.6l-1-.5A3.7,3.7,0,0,1,221.9,175.1Z" transform="translate(1 -1)"/><path class="cls-3" d="M438.2,370.6a1.58,1.58,0,0,1-1.3.2,2.16,2.16,0,0,0,1.7-.5.1.1,0,0,0,.1-.1C438.5,370.4,438.3,370.5,438.2,370.6Z" transform="translate(1 -1)"/><path class="cls-2" d="M234.8,168.6a24.43,24.43,0,0,1,2.4,1c.9.3,1.9.7,2.9,1a22.91,22.91,0,0,0,2.8.7,1.38,1.38,0,0,0,.3.4c-1-.2-2.4-.5-3.4-.8l-3-.9c-.9-.3-1.9-.7-2.7-1-.5-.2-1.1-.5-1.6-.7l-.9-.9-.6-.6c.6.3,1.1.5,1.7.8C233.5,168,234.1,168.3,234.8,168.6Z" transform="translate(1 -1)"/><path class="cls-2" d="M252.7,195.1c-.2-.4-.8-1.5-1.3-2.6s-1.8-3.6-2.3-5a22.5,22.5,0,0,1-.8-2.4c-.2-.7-.3-.8-.5-1.5s-.2-1.6-.4-2.4a5.21,5.21,0,0,1,.5-2.8,5.79,5.79,0,0,1,1.2-1.4c1.5-1,3-.9,4.6-1.3-.2.2-.4.3-.6.5a8,8,0,0,0-1.8,1.5c-.2.2-.8.8-1.2,1.3a4,4,0,0,0-.6,2.7c.1.8.2,1.6.3,2.3a7,7,0,0,0,.3,1.4c.2.6.6,1.6.8,2.3.5,1.3,1.6,3.7,2,4.8s.9,2,1.1,2.4c1.2,2.4,2.1,4.1,3.1,6.4a4.23,4.23,0,0,1-.5-.7C255.3,198.7,254.1,197.3,252.7,195.1Z" transform="translate(1 -1)"/><path class="cls-3" d="M404.3,353.8a1,1,0,0,1,.4-.5.62.62,0,0,1,.7.1c.2.2.3.4.2.6l-.1.1c-.3,0-.6-.1-.8-.1h-.6Z" transform="translate(1 -1)"/><path class="cls-2" d="M226.3,163l1.2.9H227C226.8,163.6,226.5,163.3,226.3,163Z" transform="translate(1 -1)"/><path class="cls-2" d="M245.7,172a4.48,4.48,0,0,0-1.1-.1.35.35,0,0,1,.2-.1A2.92,2.92,0,0,1,245.7,172Z" transform="translate(1 -1)"/><path class="cls-2" d="M259.6,171.5a2.92,2.92,0,0,0,.9-.2h.1c.2.2,0,.3-.1.7A2.77,2.77,0,0,0,259.6,171.5Z" transform="translate(1 -1)"/><path class="cls-3" d="M374.4,362.4a7.3,7.3,0,0,1,1.5-2.9,27.19,27.19,0,0,0-.4,3,2.25,2.25,0,0,0,.1.7c.1.2,0,.3.2.7a8.23,8.23,0,0,0,.6,1.6,13.71,13.71,0,0,0,3.1,3.3,17.44,17.44,0,0,0,4.9,2,28,28,0,0,0,9.6-.1,10.26,10.26,0,0,0,3.1-1,14.17,14.17,0,0,0,1.8-.8,20.75,20.75,0,0,0,3.3-2,26.19,26.19,0,0,0,2.6-2.4,18.16,18.16,0,0,1,3.1-3.1,1.93,1.93,0,0,1,.9-.5h.6c-.1,0-.3-.1-.4-.1a9.38,9.38,0,0,1,1.5-.6,8.1,8.1,0,0,1,3.1-.1,7.22,7.22,0,0,1,2.6,1.4,3.4,3.4,0,0,1,.9,1.3c.3.5-.1.8-.3,1a4.18,4.18,0,0,1-1.2.8,5.64,5.64,0,0,1-1.2.4,11,11,0,0,1-2.5.2,18.46,18.46,0,0,1-2.3-.4c1.5-.2,2.9-.3,4.5-.6.4-.1,1.3-.3,1.5-.8s.4-.9-.1-1.4a3.48,3.48,0,0,0-2-1,7.59,7.59,0,0,0-4.7,1,17.76,17.76,0,0,0-3.1,3,17.86,17.86,0,0,1-2.6,2.4,23.6,23.6,0,0,1-3.6,2.1,15.39,15.39,0,0,1-1.9.8,11.75,11.75,0,0,1-3.3,1,32.92,32.92,0,0,1-10.4.1,17.52,17.52,0,0,1-5.3-2.2,12.93,12.93,0,0,1-3.4-3.6,5.55,5.55,0,0,1-.7-1.7,4.5,4.5,0,0,1-.2-.8C374.3,362.8,374.3,362.5,374.4,362.4Z" transform="translate(1 -1)"/><path class="cls-2" d="M251.4,172.4Z" transform="translate(1 -1)"/><path d="M413.5,328.1c-.5.5,1.1.1,1.6,0s2.4-.5,2.7-1.4-1-.7-1.7-.4A20.29,20.29,0,0,0,413.5,328.1Zm5.5.7c-1.1.7-3.3.2-4.8.4-2.8.4-6.3,2.5-8.2-.7-.8-1.4-.1-1.8,1-2.8s3.7-.9,5.3-.2a6.89,6.89,0,0,0,.8.3c2.4,1.2,5.6-1.4,7.5,1C421.3,327.8,420,328.1,419,328.8Z" transform="translate(1 -1)"/><path class="cls-2" d="M228.4,181.5l-3-1.3a19.11,19.11,0,0,0-2.4-.7c-2-.6-3.3-1.1-5.1-1.7,2,.2,3.6.3,5.7.7.5.1,1.7.5,2.5.7a28.8,28.8,0,0,1,3.1,1.3,10.74,10.74,0,0,1,1.5.7,11,11,0,0,1,1,1.1,12.17,12.17,0,0,1,1.5,1.7c1,1.1,2.6,3.3,3.3,4.2a13.85,13.85,0,0,1,1.4,2.4c1.2,2.5,1.8,4.4,2.7,6.8-1.4-2.2-2.4-3.8-3.8-6.2a10.76,10.76,0,0,0-1.4-2.3,45,45,0,0,0-3-3.8c-.5-.5-1-1.2-1.5-1.6a9.43,9.43,0,0,0-1-1A3.56,3.56,0,0,0,228.4,181.5Z" transform="translate(1 -1)"/><path class="cls-3" d="M423.3,329.4a2.51,2.51,0,0,0,.4-.7.37.37,0,0,0,.1-.3.35.35,0,0,1,.1-.2,5.64,5.64,0,0,0,.4-1.2c.1-.9.1-1.6.2-2.5a5,5,0,0,1,.8,2.6,3.26,3.26,0,0,1-.4,1.3l-.1.2c0,.1-.1.2-.2.3s-.4.6-.5.8a13.79,13.79,0,0,1-2.5,1.7C422.1,330.8,422.7,330.2,423.3,329.4Z" transform="translate(1 -1)"/><path class="cls-3" d="M405.5,390.6a3.24,3.24,0,0,0,.8.9,13.54,13.54,0,0,0,1.7,1.7,12.21,12.21,0,0,0,2.8,1.7,20.16,20.16,0,0,1,3.6,1.8,3.64,3.64,0,0,1,1.4,1.6,4.13,4.13,0,0,1,.4,2.2,2.69,2.69,0,0,1-1.3,1.8,3.19,3.19,0,0,1-2.1.4,3.1,3.1,0,0,1-1.8-.9,2.25,2.25,0,0,1-.8-1.4,3.79,3.79,0,0,1,0-1.5c.2.4.3.8.5,1.2a4.81,4.81,0,0,0,.9,1.1,3.09,3.09,0,0,0,1.4.7,2,2,0,0,0,1.5-.3,1.76,1.76,0,0,0,.9-1.3,3.66,3.66,0,0,0-1.6-3,18,18,0,0,0-3.4-1.7,12.81,12.81,0,0,1-3-1.9,15.19,15.19,0,0,1-1.8-1.8,5.77,5.77,0,0,1-.8-1,8.65,8.65,0,0,1-.7-1,7.69,7.69,0,0,1-1.3-2c-.2-.4-.6-1-.3-1.6a2.41,2.41,0,0,1,1.2-1.6,9.89,9.89,0,0,1,2.4-.9,23.81,23.81,0,0,1,2.6-.5c3.4-.4,7.1-.7,10.5-.9.8-.1,1.4,0,1.9-.1h1.7a18.63,18.63,0,0,1,3.4.7c-1.2.1-2.3.1-3.5.1h-1.6a14.16,14.16,0,0,0-1.9.1c-3.2.3-7,.5-10.3.9a15.66,15.66,0,0,0-4.5,1.2,1.26,1.26,0,0,0-.9,1.2c-.2.6.1.8.3,1.4s.8,1.3,1.1,1.7A2.42,2.42,0,0,0,405.5,390.6Z" transform="translate(1 -1)"/><path class="cls-3" d="M421.7,368.1a12.25,12.25,0,0,0-1.2.8c-.4.4-1.1,1-1.5,1.5a8.42,8.42,0,0,0-1.1,2.1c-.2.6-.2,1.4-.4,1.9s-.1.7-.3,1.1a9.25,9.25,0,0,1-.5,1,5.09,5.09,0,0,1-1.5,1.4,3.29,3.29,0,0,1-1.7.4h-.2a2.54,2.54,0,0,1-1.3-.5,3.65,3.65,0,0,1-1.4-1.9c-.3-.6.2-1.4.5-1.7a10.35,10.35,0,0,1,2.8-2,.1.1,0,0,0,.1.1h0a20.32,20.32,0,0,0-2,2.1c-.2.2-.6.9-.4,1.3a3.6,3.6,0,0,0,1,1.5,2.54,2.54,0,0,0,1.9.2,2.18,2.18,0,0,0,1.2-1.1c.2-.4.3-.4.4-.8s.1-.5.2-1,.2-1.3.4-2a10.08,10.08,0,0,1,1.2-2.3,13.62,13.62,0,0,1,1.7-1.7,6.14,6.14,0,0,1,1.3-.9,13.09,13.09,0,0,1,2.1-1c-.2.2-.4.3-.6.5l.9-.3A8.57,8.57,0,0,1,421.7,368.1Z" transform="translate(1 -1)"/><path class="cls-2" d="M253.8,172.8c-.2,0-.4-.1-.7-.1a.1.1,0,0,1,.1-.1,1.09,1.09,0,0,1,.5.1h.2l-.1.1Z" transform="translate(1 -1)"/><path class="cls-2" d="M258.1,162c0,.3-.1.6,0,.8s.1.5.1.7a2.09,2.09,0,0,0,.4.6c.1.2.4.4.6.6s.4.3.3.5a9.44,9.44,0,0,0-.9-.3l.6.6a.88.88,0,0,1-.7-.1,1.58,1.58,0,0,1-.7-.7,2.51,2.51,0,0,1-.4-.7c-.1-.3-.1-.5-.2-.9v-1.2c0-.3.2-.7.5-.7v.3A2.74,2.74,0,0,0,258.1,162Z" transform="translate(1 -1)"/><path class="cls-2" d="M279,165.8c.3.4.7,1,1,1.5a7.42,7.42,0,0,1,.8,1.5c.5,1.2.7,2.1,1.1,3.2-.6-1-1.1-1.8-1.8-2.9-.2-.3-.6-1-.8-1.4s-.6-1-.9-1.4a7.27,7.27,0,0,0-.8-.9,9,9,0,0,1-.9-1,14.2,14.2,0,0,0-1.3-1.2l-.2-.2h0a2.65,2.65,0,0,0,.5-.6c.1.1.2.2.3.2.3.3,1,.9,1.3,1.2a9,9,0,0,0,.9,1C278.5,165.2,278.7,165.4,279,165.8Z" transform="translate(1 -1)"/><path class="cls-2" d="M245.1,172.6c-.6-.5-1.1-.4-1.6-.7l-.2-.2h.2c.5.1.9.1,1.2.2C244.4,172.1,245,172.3,245.1,172.6Z" transform="translate(1 -1)"/><path class="cls-3" d="M422.8,349.6a4.23,4.23,0,0,0,.5-.7c-.4.3-.8.5-1.1.7a25.06,25.06,0,0,1-3.7-.3c-1.7-.3-4.5-1-6.3-1.5a14.45,14.45,0,0,1-2.2-.7c-1.7-.6-2.7-1.1-4.2-1.7a32.09,32.09,0,0,1,4.3.7,17.63,17.63,0,0,1,2.2.7c1.7.5,4.4,1.2,6.1,1.5a26.92,26.92,0,0,0,4.7.3,7.13,7.13,0,0,0,2.3-.5,7.39,7.39,0,0,0,2.2-.8,33.43,33.43,0,0,0,4-1.8c1.3-.8,3.1-2,4.4-2.9a3.45,3.45,0,0,0,.9-.8l.4-.4a2.18,2.18,0,0,1,.4-.5,9,9,0,0,1,.9-1,5.58,5.58,0,0,0,.8-.5,21.16,21.16,0,0,1-1.1,2.1c-.1.1-.3.4-.4.5l-.5.5a7.27,7.27,0,0,1-.9.8,46.3,46.3,0,0,1-4.6,3.1,37,37,0,0,1-4.2,1.9,17.85,17.85,0,0,1-2.3.9,5.09,5.09,0,0,1-2.2.5A.6.6,0,0,0,422.8,349.6Z" transform="translate(1 -1)"/><path class="cls-2" d="M251.1,172.6c.3.1.9.2,1.4.4,0,.1,0,.1-.1.2s.1.3-.2.3a1.56,1.56,0,0,1-.8-.6C251.3,172.9,251.2,172.7,251.1,172.6Z" transform="translate(1 -1)"/><path class="cls-2" d="M258.7,164.9l.9.3a.1.1,0,0,1-.1.1l-.1.1h0A1.79,1.79,0,0,1,258.7,164.9Z" transform="translate(1 -1)"/><path d="M431.1,333.1a3.19,3.19,0,0,1,3.4-1.2c.7.1,1,.7,1.3,1.3a2.13,2.13,0,0,1-.1,1.9,3.31,3.31,0,0,1-2.6,1.6,1.42,1.42,0,0,1-.6-.2,2.94,2.94,0,0,1-1.4-1.5A1.85,1.85,0,0,1,431.1,333.1Zm.7.3a1.68,1.68,0,1,0,3.1,1.3,1.57,1.57,0,0,0-.8-2.2A1.81,1.81,0,0,0,431.8,333.4Z" transform="translate(1 -1)"/><path d="M433.4,333c-.3,0-.9.2-1,.5s-.2.5,0,.8a1.58,1.58,0,0,0,.7.7,1.25,1.25,0,0,0,1.3-.4c.2-.3.1-.5.1-.8s-.3-.5-.5-.6C433.6,333,433.6,333,433.4,333Zm-.7,2.6a1.55,1.55,0,0,1-.9-2.2,1.68,1.68,0,0,1,2.3-.8,1.57,1.57,0,0,1,.8,2.2A1.65,1.65,0,0,1,432.7,335.6Z" transform="translate(1 -1)"/><path class="cls-3" d="M390.4,359a1.87,1.87,0,0,1,1.4-.8,8.75,8.75,0,0,1,2.4.3c-.1,0-.1,0-.2.1h.5a9.34,9.34,0,0,1,2,1,9.47,9.47,0,0,0-4.1-.5c-.2,0-.8.2-.9.5a1.1,1.1,0,0,0,.1,1.1,2.3,2.3,0,0,0,1.4.9,4.45,4.45,0,0,0,1.6.1,2.39,2.39,0,0,0,.9-.2c.4-.1.4-.1.9-.2a13.14,13.14,0,0,0,1.5-.5,26.15,26.15,0,0,1,3.8-.9,15.21,15.21,0,0,1,2.8-.2,20.67,20.67,0,0,1,4.6,1.1c-.1,0-.1,0-.2.1-1.5-.1-2.7-.3-4.4-.3a12.36,12.36,0,0,0-2.5.2c-.9.2-2.6.5-3.6.8a9.83,9.83,0,0,1-1.6.5c-.4.1-.5.2-.9.3a3.59,3.59,0,0,1-1.1.2,5,5,0,0,1-2.1-.1,3.09,3.09,0,0,1-1.4-.7,3.57,3.57,0,0,1-1-1.1A1.73,1.73,0,0,1,390.4,359Z" transform="translate(1 -1)"/><path class="cls-2" d="M263.5,168.9a.76.76,0,0,1-.1,1,3,3,0,0,1-1.1.7,3.34,3.34,0,0,1-1.2.5c-.2.1-.3.1-.5.2a1.38,1.38,0,0,0-.4-.3h-.1a13.39,13.39,0,0,0,1.2-.6,2.84,2.84,0,0,0,.9-.6c.3-.2.4-.3.3-.7a7.46,7.46,0,0,0-.7-1.2c-.2-.3-.3-.6-.5-.9.1.1.3.1.4.2.4.2.8.5,1.3.8h0A4.05,4.05,0,0,1,263.5,168.9Z" transform="translate(1 -1)"/><path class="cls-2" d="M230.8,173.3a8.61,8.61,0,0,0-2.3-2.8c-.8-.7-2.1-1.4-2.8-1.9l-1.2-.6c-.1-.1-.3-.1-.4-.2a9.89,9.89,0,0,0-2.4-.9,13.89,13.89,0,0,1-2.6-1,2.43,2.43,0,0,1-.9-2.1,2.32,2.32,0,0,1,.9-1.9,2.28,2.28,0,0,1,1.6-.4h0c.1.4.6.3,1,.3h.1a8.79,8.79,0,0,0,1,.6,4.4,4.4,0,0,0-1.6-.2,3.26,3.26,0,0,0-1.4.4,1.45,1.45,0,0,0-.6,1.4c.1.6,0,1.1.7,1.5a17,17,0,0,0,2.4.9,18.61,18.61,0,0,1,2.5,1c.7.4.9.5,1.7.9a18.84,18.84,0,0,1,3.1,2.1,8.61,8.61,0,0,1,2.3,2.8,1.51,1.51,0,0,1,.2.8c0,.9-.5,1.1-.8,1.8a8.58,8.58,0,0,1-.3-1.7A1.72,1.72,0,0,0,230.8,173.3Z" transform="translate(1 -1)"/><path class="cls-2" d="M345.2,351.3c-.2,0-.5-.1-.7-.1.4-.1.8-.1,1.3-.2Z" transform="translate(1 -1)"/><path class="cls-3" d="M403.7,394.3c.6.4,1.1.8,1.5,1.1s.6.4.9.6a1.33,1.33,0,0,0,.5.3c.1.1.2.1.2.2s.2.1.2.1c.4.2,1.2.6,1.5.8,1.1.5,1.9.9,3,1.4-.5-.1-.9-.1-1.3-.2a9.07,9.07,0,0,1-2.1-.5c-.3-.1-1.2-.6-1.6-.8a.35.35,0,0,0-.2-.1c-.1,0-.1-.1-.2-.2s-.2-.1-.5-.3-.5-.3-.9-.6-1-.7-1.6-1.2a31.78,31.78,0,0,0-3.5-2.6,33.36,33.36,0,0,0-4-2.5,28.64,28.64,0,0,0-4.8-2c-3.1-1-6.9-2.1-9.6-3.3a64.8,64.8,0,0,1-7.5-4.1,35,35,0,0,1-4.8-3.7,31.49,31.49,0,0,1-2.8-2.5,54.13,54.13,0,0,1-5.1-5.4c-.4-.5-1.6-1.7-2.2-2.6a18.15,18.15,0,0,1-2.2-3.4c-.5-1.3-1.2-2.8-.9-4.3a6.63,6.63,0,0,1,2.3-3.6c.5-.4,1-.8,1.6-1.2h1.8a29.26,29.26,0,0,0-2.6,1.8,6.41,6.41,0,0,0-2.2,3.2c-.3,1.4.4,2.7.8,3.8a19.69,19.69,0,0,0,2.1,3.2c.6.9,1.8,2.1,2.2,2.6a66.15,66.15,0,0,0,5.1,5.3c1.5,1.3,1.3,1.2,2.7,2.4a33.28,33.28,0,0,0,4.8,3.6,80,80,0,0,0,7.3,4c2.7,1.2,6.5,2.3,9.6,3.3a30.12,30.12,0,0,1,4.9,2.1c1.4.8,2.8,1.7,4.1,2.6S402.6,393.4,403.7,394.3Z" transform="translate(1 -1)"/><path class="cls-3" d="M307.4,244.7c0-.3-.1-.7-.1-1,.2.1.4.1.6.2l.6,1.2a7.6,7.6,0,0,0-1.1-.4Z" transform="translate(1 -1)"/><path class="cls-3" d="M423.2,348.9a4.23,4.23,0,0,1-.5.7h-.6C422.5,349.4,422.8,349.1,423.2,348.9Z" transform="translate(1 -1)"/><path class="cls-5" d="M417.9,326.7c-.3.9-2.2,1.3-2.7,1.4s-2.1.5-1.6,0a12.71,12.71,0,0,1,2.7-1.8C416.9,326,418.2,325.7,417.9,326.7Z" transform="translate(1 -1)"/><path class="cls-3" d="M278.6,272.9l-.3-1.2v-.1a.1.1,0,0,0,.1.1c.1.2.1.1.2.2s.7.7.3.9C278.8,272.9,278.7,273,278.6,272.9Z" transform="translate(1 -1)"/><path class="cls-3" d="M307.1,242.2c.3.6.5,1.1.8,1.6a1.42,1.42,0,0,1-.6-.2C307.2,243.2,307.2,242.7,307.1,242.2Z" transform="translate(1 -1)"/><path class="cls-3" d="M431.3,367.3a10.66,10.66,0,0,0-1.9-.7c-.7-.2-2-.4-2.5-.5a5.48,5.48,0,0,0-1.3,0,12.91,12.91,0,0,0-2.1.5,4.35,4.35,0,0,1,.7-.6,10.37,10.37,0,0,0-1,.4,5.67,5.67,0,0,1,2.2-1.1,3.16,3.16,0,0,1,1.4,0,14.1,14.1,0,0,1,2.7.5c.7.3,1.4.5,2,.8a15.05,15.05,0,0,1,1.7,1c.6.4,1.5,1.3,2,1.7a4,4,0,0,0,1.5.7h.1a12.75,12.75,0,0,1-1.9-.1,7.05,7.05,0,0,1,.9.7,3,3,0,0,1-1.1-.6c-.6-.4-1.5-1.3-2.1-1.7A3.45,3.45,0,0,0,431.3,367.3Z" transform="translate(1 -1)"/><path class="cls-3" d="M435.1,369.9a12.75,12.75,0,0,0,1.9.1h0a3,3,0,0,0,1.3-.2.7.7,0,0,0,.5-.4c0,.1-.1.3,0,.4s-.1.3-.1.4a.1.1,0,0,0-.1.1,2.46,2.46,0,0,1-1.7.5,2.35,2.35,0,0,1-.8-.2H436A7.05,7.05,0,0,0,435.1,369.9Z" transform="translate(1 -1)"/><path class="cls-2" d="M263.2,172.3a2.39,2.39,0,0,0,.7.3c.4.2,1.3.6,1.8.8l1.5.6c.5.2,1,.3,1.6.5s1.6.4,2.2.6,1.8.5,2.2.6c.8.2,1.5.3,2.2.5v.3a17.69,17.69,0,0,1-3-.6c-.5-.1-1.7-.4-2.4-.6a19.48,19.48,0,0,0-2.3-.6c-.6-.2-1-.3-1.5-.5s-1.1-.4-1.6-.6-1.4-.6-1.8-.8-.7-.3-.8-.3c-.6-.4-.6-.6-.9-1.1A18.94,18.94,0,0,0,263.2,172.3Z" transform="translate(1 -1)"/><path class="cls-2" d="M284.2,167a25.12,25.12,0,0,0,2.5,3.2c.7.7,1.4,1.5,1.9,1.9s.6.4.8.9.1.6.2,1a7.84,7.84,0,0,1,.2,1.4v.6a10.28,10.28,0,0,0,.1,1.8,1.38,1.38,0,0,1-.4-.3,2.2,2.2,0,0,1-.1-.8,1.48,1.48,0,0,0-.1.7,2.19,2.19,0,0,1-.3-.5c0-.1-.1-.4-.1-.6a6.15,6.15,0,0,1-.1-1.4c0-.4.1-.6-.1-1s-.4-.4-.9-.9-1.3-1.2-2-2a26,26,0,0,1-2.5-3.3,23.51,23.51,0,0,1-1.4-2.5,31.68,31.68,0,0,1-1.7-4.9c0-.1-.1-.2-.1-.3,1.1,1.6,1.9,2.8,3,4.6A7,7,0,0,0,284.2,167Z" transform="translate(1 -1)"/><path d="M419,328.8c1.1-.7,2.4-1,1.5-2-1.9-2.4-5.1.3-7.5-1a6.89,6.89,0,0,0-.8-.3c-1.6-.7-4.1-.8-5.3.2s-1.9,1.4-1,2.8c2,3.2,5.4,1.1,8.2.7C415.7,328.9,417.9,329.5,419,328.8Zm1.7-2.1c.8,3.7-4.1,2.5-6.5,2.8s-7.9,3.2-8.8-1.1,3.9-4.7,6.6-3.7S420,323.1,420.7,326.7Z" transform="translate(1 -1)"/><path class="cls-2" d="M362.8,352.6c1.6-.3,2.6-.3,4.1-.5a27.65,27.65,0,0,1-3.8,1.4c-.3.1-1.1.1-1.8.2l1-.7.3-.3C362.6,352.6,362.7,352.6,362.8,352.6Z" transform="translate(1 -1)"/><path class="cls-2" d="M342.9,352a9,9,0,0,1-2.8-.1,9.82,9.82,0,0,1-2.4-.6,24.24,24.24,0,0,1-7.7-4.4c-1.5-1.2-7.1-5.3-9.3-7.1-.5-.4-1.8-1.2-2.2-1.6a6,6,0,0,0-1.3-.9c-.4-.3-1.1-.7-1.4-.9a44.89,44.89,0,0,1-4.6-3.9c.1,0,.1.1.2.1,1.7,1.1,3.2,2.1,4.9,3.2.2.2,1,.6,1.4.9s.8.5,1.3.9,1.7,1.2,2.3,1.6c2.3,1.7,7.8,5.9,9.3,7.1a29.11,29.11,0,0,0,7.5,4.3,4.73,4.73,0,0,0,2.4.6,13.57,13.57,0,0,0,2.8.1,7.75,7.75,0,0,0,.9-.1c.2,0,.3,0,.4-.1h0c.2,0,.5.1.7.1a4.54,4.54,0,0,1-1.4.6A3,3,0,0,1,342.9,352Z" transform="translate(1 -1)"/><path class="cls-2" d="M247.5,171.9a5,5,0,0,0-2.7-.1h0l-1.5-.3c-.1,0-.3-.1-.4-.1s-.1-.1-.1-.2c-.7-1.2,1.2-.7,2.1-.2.2.1,1.4.2,2,.3s1.5.3,2.1.4,1.1.3,1.7.4a.76.76,0,0,1,.5.2h-.1c-.1,0,0,.1,0,.2H251A28.59,28.59,0,0,0,247.5,171.9Z" transform="translate(1 -1)"/><path class="cls-2" d="M252.7,172.6c.2-.3.1-1,.6-1.3a7.28,7.28,0,0,1,2.4-.7,9.74,9.74,0,0,1,1.6-.1,7.78,7.78,0,0,1,2.8.5c-.1,0-.1.1-.2.1a4.88,4.88,0,0,0-.7.3,15.69,15.69,0,0,0-2.4-.3,4.48,4.48,0,0,0-1.1.1c-.3.1-1,.1-1.3.4s-.2.7-.4.9-.1.2-.2.2h-.2a4.33,4.33,0,0,0-.5-.1c-.1,0-.1,0-.1.1C253,172.6,252.9,172.6,252.7,172.6Z" transform="translate(1 -1)"/><path class="cls-2" d="M258.1,161.9v.1a.76.76,0,0,1-.2-.5v-.3C258.2,161.2,258.1,161.6,258.1,161.9Z" transform="translate(1 -1)"/><path class="cls-2" d="M254.9,173.2a8.93,8.93,0,0,1,1.3.5c.4.2.7.4,1.1.6a7.05,7.05,0,0,1,.9.7.39.39,0,0,1-.1.7,27,27,0,0,1-4.8.9c.8-.6,1.6-.9,2.4-1.4.2-.1.2-.3,0-.5s-.5-.4-.7-.6a4.05,4.05,0,0,1-.9-.5,3.58,3.58,0,0,0-1.1-.4c-.1,0-.3-.1-.4-.1a1.24,1.24,0,0,0,.2-.3h0c.2,0,.4.1.6.1s.1.1.3.1h.2A3.55,3.55,0,0,1,254.9,173.2Z" transform="translate(1 -1)"/><path class="cls-2" d="M272.8,154.9a4.39,4.39,0,0,0-1.8,1.2,1.47,1.47,0,0,0-.2,1.4,6.42,6.42,0,0,0,1.8,2.5c-1.2-.7-2-.9-2.6-2.4a2.31,2.31,0,0,1,.3-1.9,5.33,5.33,0,0,1,2.3-1.6,7.38,7.38,0,0,1,2.1,0,7.84,7.84,0,0,1,2.1.9,7.4,7.4,0,0,1,1.9,2.1,4.49,4.49,0,0,1,.6,1.3,5.1,5.1,0,0,1,.1,2.1c0,.4-.1.8-.1,1.3a12.44,12.44,0,0,1-.4-1.6c-.1-.5-.3-1-.4-1.6a4.79,4.79,0,0,0-.5-1.1,9,9,0,0,0-1.6-1.8,9.82,9.82,0,0,0-1.8-.8A5.43,5.43,0,0,0,272.8,154.9Z" transform="translate(1 -1)"/><path class="cls-3" d="M437.5,367a3,3,0,0,1,.8.8.76.76,0,0,1,.2.5,14.2,14.2,0,0,0-1.2-1.3C437.3,366.9,437.4,367,437.5,367Z" transform="translate(1 -1)"/><path class="cls-2" d="M240.5,176.8c.1.1.3.1.4.2a.35.35,0,0,0-.2.1c-.2-.1-.4-.1-.5-.2a.22.22,0,0,0,.2-.2h0A.1.1,0,0,0,240.5,176.8Z" transform="translate(1 -1)"/><path class="cls-3" d="M345.5,270.9a4.23,4.23,0,0,1,.5.7C345.8,271.4,345.7,271.1,345.5,270.9Z" transform="translate(1 -1)"/><path class="cls-3" d="M378.4,335.1a6.64,6.64,0,0,1,.3-1.5,7.54,7.54,0,0,1,.6-1.3,19.23,19.23,0,0,1,1.3-1.7,4.79,4.79,0,0,1,1.5-1.1,20.72,20.72,0,0,1,4-1.3c-1.1.7-1.9,1.3-3.1,2a9.38,9.38,0,0,0-1.4,1c-.3.4-.9,1.1-1.2,1.5a6.12,6.12,0,0,0-.5,1.2,7,7,0,0,0-.3,1.4,6.8,6.8,0,0,0,.2,2,8.43,8.43,0,0,0,.6,1.4,6.71,6.71,0,0,0,.9,1.4,14.2,14.2,0,0,0,1.3,1.2,8.62,8.62,0,0,1-3.4-2.6,3.75,3.75,0,0,1-.5-1.4A7.8,7.8,0,0,1,378.4,335.1Z" transform="translate(1 -1)"/><path class="cls-3" d="M344.8,270a5.5,5.5,0,0,0,.7.9A5.5,5.5,0,0,1,344.8,270Z" transform="translate(1 -1)"/><path class="cls-2" d="M220,173.9c-.2-.1-.3-.3-.4-.3a2.65,2.65,0,0,1,.6-.5c.1.1.3.2.5.4A4.35,4.35,0,0,1,220,173.9Z" transform="translate(1 -1)"/><path class="cls-3" d="M437.6,368.2c.1.1.1.3.2.5-.3-.3-.6-.7-.9-1a.35.35,0,0,1,.2.1A.51.51,0,0,1,437.6,368.2Z" transform="translate(1 -1)"/><path class="cls-2" d="M274.8,176.8c.2-.1.5-.1.6-.3.3,0,.5.1.8.1A6.75,6.75,0,0,1,274.8,176.8Z" transform="translate(1 -1)"/><path class="cls-2" d="M231.8,167.9c-.6-.4-.5-.6-.9-1.1.1,0,.1.1.2.1h0l.6.6.9.9A2.51,2.51,0,0,0,231.8,167.9Z" transform="translate(1 -1)"/><path class="cls-2" d="M252.4,172.6c-.3-.1-.5-.1-.8-.2h0c.4,0,.7.1,1.1.1a.1.1,0,0,1-.1.1h-.2Z" transform="translate(1 -1)"/><path class="cls-2" d="M289.3,176.7a2.2,2.2,0,0,0,.1.8c-.1,0-.1-.1-.2-.2A1.27,1.27,0,0,0,289.3,176.7Z" transform="translate(1 -1)"/><path class="cls-2" d="M219.6,173.6c.1.1.3.2.4.3a8.64,8.64,0,0,1-1.6,1A14.2,14.2,0,0,0,219.6,173.6Z" transform="translate(1 -1)"/><path class="cls-3" d="M290.2,265.3a27.44,27.44,0,0,1-.9,3.9,17.38,17.38,0,0,1-1,1.9v-1.6c0-.4.3-.6.3-.9a29.67,29.67,0,0,0,.8-4.1A3,3,0,0,1,290.2,265.3Z" transform="translate(1 -1)"/></g></g></svg>