<?xml version="1.0" encoding="UTF-8" standalone="no"?>
<svg xmlns="http://www.w3.org/2000/svg" version="1.2" baseProfile="tiny" viewBox="0.00 0.00 720.00 480.00">
<path fill="#cfc3b4" d="
  M 720.00 0.00
  L 720.00 480.00
  L 0.00 480.00
  L 0.00 0.00
  L 720.00 0.00
  Z"
/>
<path fill="#0c0d0c" d="
  M 376.41 301.51
  Q 379.54 306.89 381.84 313.69
  Q 382.58 315.86 381.50 317.64
  A 1.20 1.20 0.0 0 1 379.89 318.07
  C 377.59 316.82 375.76 313.61 374.87 311.21
  Q 373.31 306.99 371.46 302.94
  Q 371.07 302.08 370.12 302.08
  L 369.81 302.08
  A 0.34 0.34 0.0 0 0 369.49 302.53
  Q 371.53 308.67 371.07 313.81
  Q 370.96 315.06 369.20 316.56
  Q 368.78 316.91 368.48 316.45
  Q 367.21 314.50 366.91 313.36
  Q 364.80 305.18 362.08 297.52
  Q 359.72 290.89 355.38 282.36
  Q 351.35 274.47 341.83 255.96
  Q 340.63 253.64 338.43 248.36
  Q 338.24 247.90 337.75 247.99
  Q 325.24 250.30 312.82 250.05
  A 0.82 0.82 0.0 0 0 312.04 251.16
  Q 317.03 264.18 324.28 277.34
  C 326.38 281.14 331.60 286.85 334.49 292.34
  Q 336.13 295.45 337.89 297.48
  Q 344.48 305.08 352.50 311.83
  C 354.85 313.81 355.79 316.36 357.24 318.86
  Q 357.50 319.31 357.03 319.52
  C 352.25 321.78 351.06 314.12 346.59 312.50
  Q 346.07 312.31 346.38 312.77
  Q 351.14 319.77 351.46 328.69
  C 351.54 330.83 350.83 332.43 348.52 332.03
  A 1.20 1.18 -11.3 0 1 347.73 331.51
  Q 345.09 327.56 344.47 325.52
  C 342.91 320.31 342.08 317.08 339.21 313.56
  Q 338.88 313.15 338.42 313.40
  Q 337.95 313.64 338.09 314.01
  C 338.94 316.29 339.76 318.47 339.92 321.08
  Q 340.18 325.28 340.35 326.27
  Q 340.55 327.45 340.03 328.14
  Q 339.04 329.43 338.50 329.52
  A 2.47 2.36 81.6 0 1 335.71 327.35
  Q 334.98 321.08 333.84 314.86
  Q 333.10 310.81 331.35 307.39
  Q 330.72 306.15 326.80 301.03
  Q 324.08 297.46 322.51 293.90
  C 320.79 290.02 319.32 287.47 316.64 284.34
  Q 308.49 274.83 307.08 272.66
  C 304.61 268.89 301.44 263.84 297.68 259.81
  Q 295.86 257.87 291.71 253.06
  C 288.71 249.57 286.80 245.96 283.97 241.52
  C 282.62 239.40 278.64 237.12 275.55 235.55
  Q 268.11 231.74 264.80 228.96
  Q 262.93 227.39 257.77 221.82
  Q 254.95 218.77 251.71 213.98
  C 248.41 209.09 244.23 204.44 241.07 199.17
  C 239.58 196.68 238.87 193.77 237.52 191.12
  C 235.36 186.87 234.25 180.65 233.40 176.07
  Q 232.99 173.86 231.52 172.53
  Q 228.73 170.00 227.26 169.33
  Q 220.16 166.11 211.28 161.93
  Q 205.79 159.35 201.70 156.61
  Q 196.84 153.36 192.13 150.15
  Q 179.61 141.64 169.31 128.72
  Q 163.00 120.80 159.84 118.54
  Q 154.44 114.67 150.92 111.98
  C 148.74 110.31 146.46 109.33 143.87 107.86
  C 141.84 106.70 137.90 106.85 135.06 107.40
  Q 126.73 109.04 120.76 109.66
  Q 118.92 109.85 116.55 109.07
  Q 116.01 108.89 116.01 108.33
  L 116.01 105.91
  A 0.73 0.73 0.0 0 1 116.45 105.24
  C 118.39 104.37 119.06 103.93 120.79 103.88
  C 124.67 103.76 128.81 103.66 132.44 102.09
  Q 133.88 101.47 132.32 101.32
  C 129.53 101.04 128.01 100.96 125.77 100.06
  Q 118.45 97.12 112.24 92.83
  Q 110.65 91.74 111.81 89.78
  Q 111.84 89.72 112.21 89.35
  A 2.53 2.53 0.0 0 1 115.14 88.84
  Q 119.39 90.94 124.10 93.51
  Q 127.98 95.61 132.35 96.36
  Q 134.02 96.65 132.77 95.50
  Q 127.45 90.61 124.49 87.87
  Q 123.61 87.05 123.00 85.64
  A 2.01 2.00 -11.5 0 1 124.85 82.85
  L 128.18 82.85
  Q 128.60 82.85 128.89 83.16
  Q 136.20 90.91 138.36 92.15
  Q 141.86 94.14 145.32 96.19
  Q 147.13 97.27 152.64 99.98
  Q 157.79 102.50 162.09 106.97
  C 167.70 112.79 172.54 117.73 179.16 121.92
  C 185.05 125.66 191.61 131.71 197.75 134.04
  Q 211.93 139.45 227.13 140.23
  A 0.57 0.57 0.0 0 0 227.73 139.57
  Q 227.62 138.88 227.53 138.72
  Q 221.96 128.45 216.27 120.88
  C 212.74 116.19 203.07 110.54 198.77 107.52
  C 194.80 104.73 191.18 103.07 187.68 100.53
  Q 186.05 99.34 183.98 96.88
  Q 178.57 90.43 172.05 85.94
  C 169.99 84.52 166.58 81.45 167.17 78.80
  C 168.04 74.96 172.53 76.92 174.27 78.94
  Q 178.10 83.38 180.20 85.50
  A 0.25 0.25 0.0 0 0 180.60 85.22
  Q 179.11 82.28 176.61 78.95
  Q 173.98 75.45 172.96 70.61
  Q 172.81 69.86 173.56 69.73
  Q 176.31 69.24 177.62 70.98
  Q 181.58 76.22 185.03 83.44
  A 0.33 0.33 0.0 0 0 185.58 83.52
  L 185.85 83.23
  Q 185.92 83.14 185.89 83.03
  Q 184.42 78.48 182.40 73.28
  C 181.77 71.68 181.70 70.58 182.15 69.02
  A 1.31 1.31 0.0 0 1 183.68 68.10
  Q 185.56 68.49 186.26 70.26
  Q 189.56 78.58 192.00 86.16
  Q 193.67 91.35 195.17 93.54
  C 196.70 95.77 199.81 100.02 202.56 100.57
  Q 219.12 103.86 229.47 111.94
  C 235.20 116.41 242.54 122.46 250.01 127.97
  Q 253.88 130.83 256.95 134.54
  C 258.34 136.21 262.08 137.82 265.16 138.39
  Q 274.54 140.11 283.73 144.54
  Q 285.24 145.27 292.70 148.61
  C 303.10 153.28 311.67 161.85 315.80 172.71
  Q 318.54 179.90 319.54 182.88
  Q 319.71 183.36 320.19 183.53
  C 324.74 185.04 328.32 186.53 329.91 191.32
  A 0.48 0.48 0.0 0 0 330.66 191.55
  C 332.40 190.21 334.49 187.90 336.99 187.13
  Q 343.23 185.19 346.75 191.22
  C 348.30 193.86 347.25 196.28 347.44 199.26
  A 1.17 1.13 67.0 0 1 347.10 200.15
  Q 346.66 200.58 346.57 200.98
  A 0.88 0.88 0.0 0 0 346.87 201.84
  C 347.99 202.76 349.58 203.28 350.74 204.36
  C 353.22 206.67 357.55 210.22 360.93 214.40
  Q 362.01 215.73 364.82 219.11
  C 367.60 222.44 370.43 229.07 368.40 233.29
  C 366.57 237.09 362.77 235.05 359.28 234.99
  Q 358.76 234.98 358.52 235.44
  Q 356.68 238.97 355.69 239.73
  Q 348.65 245.12 340.00 247.52
  Q 339.21 247.73 339.56 248.47
  Q 346.19 262.64 354.15 277.33
  Q 359.86 287.88 361.86 293.60
  Q 365.89 305.12 368.37 314.19
  A 0.74 0.73 -1.9 0 0 368.93 314.71
  Q 370.08 314.92 370.07 313.31
  Q 370.04 308.97 368.30 301.79
  Q 367.83 299.84 369.79 300.53
  L 370.41 300.75
  A 4.30 4.29 -0.8 0 1 372.99 303.26
  C 374.72 307.79 376.33 313.36 379.03 316.03
  Q 381.18 318.16 381.10 315.14
  Q 381.08 314.44 380.54 313.25
  Q 380.01 312.08 379.77 311.44
  Q 377.56 305.31 373.93 300.00
  Q 372.35 297.70 374.94 298.75
  Q 378.40 300.15 383.08 303.54
  C 383.57 303.90 384.18 304.73 384.45 305.43
  Q 385.42 307.94 385.86 305.29
  Q 386.05 304.14 385.43 303.09
  Q 385.18 302.66 384.73 302.46
  Q 379.58 300.17 378.25 299.01
  Q 370.69 292.46 367.28 284.07
  Q 365.10 278.70 363.26 273.55
  Q 358.26 259.64 355.40 244.38
  Q 355.12 242.89 355.53 241.23
  Q 355.57 241.05 355.76 241.05
  L 356.07 241.05
  A 0.38 0.37 1.4 0 1 356.45 241.44
  Q 356.36 243.99 356.51 244.77
  Q 359.82 262.07 366.93 280.94
  C 368.30 284.56 370.68 287.84 372.50 291.48
  Q 372.90 292.30 376.04 295.84
  Q 377.57 297.58 380.43 298.96
  Q 381.24 299.35 385.58 302.09
  A 1.67 1.63 -85.5 0 1 386.22 302.86
  Q 387.30 305.52 386.87 308.96
  Q 386.80 309.49 386.28 309.36
  Q 385.15 309.07 385.03 307.59
  A 1.52 1.50 -69.1 0 0 384.62 306.66
  Q 381.30 303.14 376.71 301.17
  Q 376.04 300.88 376.41 301.51
  Z"
/>
<path fill="#cfc3b4" d="
  M 183.05 87.50
  Q 182.37 85.41 182.17 85.11
  C 178.47 79.32 175.51 75.60 174.43 71.77
  A 0.63 0.63 0.0 0 1 175.20 70.99
  Q 176.32 71.28 177.14 72.46
  Q 180.15 76.80 184.13 84.27
  Q 184.55 85.06 185.41 85.27
  Q 186.30 85.48 186.73 85.01
  Q 187.26 84.45 187.21 84.31
  L 183.48 72.59
  Q 183.04 71.22 183.24 70.44
  Q 183.37 69.90 183.59 69.79
  Q 184.39 69.39 184.75 70.21
  Q 188.15 77.91 191.31 87.50
  C 192.87 92.23 194.73 95.28 198.16 98.81
  Q 200.79 101.50 203.34 102.00
  C 206.76 102.67 210.15 103.11 212.68 104.07
  Q 223.15 108.04 231.89 115.13
  C 238.40 120.40 243.84 124.88 249.95 129.18
  Q 253.48 131.67 256.13 135.18
  Q 256.81 136.08 259.47 137.73
  Q 261.14 138.76 263.47 139.20
  Q 275.08 141.36 284.19 145.71
  C 289.75 148.37 294.74 150.26 298.63 152.95
  Q 307.24 158.90 312.08 167.16
  Q 314.76 171.74 318.59 183.63
  Q 318.75 184.12 318.26 184.25
  Q 309.42 186.67 308.00 195.80
  A 1.25 1.25 0.0 0 0 308.39 196.91
  L 308.82 197.29
  A 0.21 0.21 0.0 0 0 309.17 197.14
  C 309.48 188.81 317.41 181.81 325.27 186.85
  C 327.55 188.30 328.69 190.93 329.61 193.18
  A 0.62 0.62 0.0 0 0 330.66 193.35
  C 334.45 188.92 340.81 184.81 345.42 191.05
  Q 346.57 192.61 346.50 194.41
  Q 346.45 195.50 345.68 194.72
  C 342.86 191.89 339.84 190.15 336.28 192.75
  C 333.13 195.05 333.05 199.62 336.58 201.96
  Q 341.00 204.90 345.13 202.92
  Q 345.63 202.68 346.12 202.92
  Q 349.36 204.48 349.86 204.89
  Q 357.87 211.40 364.46 220.25
  Q 365.28 221.35 367.18 225.43
  C 368.82 228.96 368.90 236.00 362.44 234.30
  C 359.07 233.41 355.46 233.26 351.89 232.74
  Q 349.05 232.33 344.61 231.93
  Q 333.65 230.95 327.27 228.95
  Q 318.59 226.24 312.12 224.16
  Q 310.85 223.75 308.46 221.83
  Q 303.15 217.57 297.84 213.29
  A 0.19 0.19 0.0 0 0 297.53 213.44
  L 297.53 213.94
  Q 297.53 214.28 297.79 214.49
  Q 305.75 220.99 308.32 222.95
  Q 310.55 224.65 314.65 226.08
  Q 323.87 229.30 330.54 230.99
  Q 336.51 232.50 347.58 233.42
  C 350.99 233.70 353.99 234.23 357.38 234.71
  A 0.38 0.38 0.0 0 1 357.63 235.32
  C 356.46 236.87 355.08 238.80 353.25 240.02
  Q 345.55 245.14 339.05 246.53
  Q 330.63 248.32 318.59 248.96
  Q 312.66 249.27 308.83 247.07
  Q 308.56 246.91 308.35 247.14
  L 308.11 247.42
  Q 307.98 247.55 308.13 247.66
  L 310.78 249.53
  Q 311.23 249.84 311.18 250.39
  C 311.12 251.00 311.07 251.47 311.26 251.95
  Q 314.45 260.41 320.76 273.16
  Q 324.03 279.77 329.35 286.39
  C 332.38 290.18 334.11 294.83 337.33 298.37
  Q 342.04 303.54 348.94 310.32
  C 350.59 311.94 352.48 312.82 353.66 314.91
  Q 354.27 316.01 355.90 318.14
  Q 356.22 318.56 355.72 318.72
  L 355.00 318.95
  A 0.31 0.31 0.0 0 1 354.67 318.85
  Q 350.25 313.72 348.85 312.23
  Q 348.25 311.58 345.97 310.32
  Q 345.48 310.05 345.10 310.46
  Q 344.28 311.35 344.84 312.22
  Q 349.97 320.03 350.54 329.07
  A 1.29 1.29 0.0 0 1 349.62 330.38
  Q 348.18 330.80 347.59 329.47
  Q 344.43 322.38 343.35 318.10
  Q 343.03 316.83 340.72 313.34
  Q 339.33 311.24 337.25 311.64
  Q 336.73 311.74 336.78 312.26
  Q 336.98 314.59 337.09 314.90
  Q 339.31 320.74 338.87 327.40
  Q 338.83 327.87 338.39 328.03
  Q 337.82 328.22 337.34 328.02
  Q 336.86 327.81 336.79 327.30
  Q 335.92 320.95 334.65 313.11
  Q 334.47 312.01 332.51 307.44
  Q 331.67 305.47 329.14 302.27
  Q 325.25 297.35 321.59 290.29
  Q 319.32 285.91 317.85 284.10
  C 315.83 281.61 312.80 278.56 310.86 275.94
  Q 307.50 271.43 305.19 267.85
  C 301.33 261.86 297.14 257.64 292.03 251.83
  C 288.94 248.33 287.27 244.87 285.30 241.60
  C 283.01 237.79 276.64 234.70 271.98 232.78
  Q 269.50 231.76 263.74 226.55
  C 260.57 223.68 256.19 218.95 253.37 214.75
  C 249.99 209.72 244.72 203.68 241.80 198.04
  Q 235.77 186.37 234.14 173.99
  Q 234.08 173.55 233.76 173.24
  Q 229.46 169.06 226.76 167.87
  Q 219.50 164.69 213.64 161.70
  Q 212.52 161.13 211.07 160.77
  Q 209.07 160.26 208.78 160.06
  Q 205.37 157.57 194.79 150.68
  Q 179.89 140.98 168.61 126.20
  Q 165.01 121.49 158.45 116.27
  C 153.00 111.94 148.99 108.78 143.19 106.39
  Q 141.13 105.55 138.06 105.88
  Q 131.16 106.61 124.14 108.14
  C 122.62 108.47 119.81 108.65 118.67 108.47
  Q 117.21 108.25 117.14 106.78
  A 0.86 0.85 -16.4 0 1 117.56 106.01
  Q 119.20 105.04 123.00 104.94
  Q 127.39 104.83 132.29 103.74
  A 1.64 1.63 77.8 0 0 133.53 101.81
  Q 133.17 100.05 131.20 99.90
  C 129.49 99.76 127.97 99.75 126.15 98.90
  Q 118.90 95.52 112.94 91.56
  Q 112.13 91.02 112.92 90.29
  Q 112.97 90.24 113.29 90.11
  A 2.19 2.18 50.2 0 1 115.26 90.29
  Q 124.13 95.89 132.76 97.74
  Q 135.29 98.28 137.84 97.34
  Q 138.89 96.94 137.78 96.81
  L 136.34 96.63
  Q 136.06 96.59 135.84 96.40
  L 124.98 86.58
  A 0.22 0.17 11.4 0 1 124.92 86.51
  Q 123.70 83.68 126.89 84.42
  A 5.79 5.78 74.3 0 1 129.74 86.02
  C 136.89 93.37 144.99 97.78 154.54 102.26
  Q 155.69 102.80 158.46 105.35
  Q 164.77 111.16 170.08 116.40
  Q 172.54 118.83 179.17 123.22
  Q 181.60 124.84 187.42 129.08
  Q 193.57 133.57 198.21 135.29
  Q 211.52 140.22 225.01 141.27
  Q 227.27 141.45 228.95 141.13
  Q 229.42 141.05 229.27 140.60
  Q 228.06 137.00 225.06 132.01
  C 221.24 125.68 217.23 119.12 211.57 115.01
  Q 207.74 112.23 199.80 106.90
  C 195.10 103.74 188.03 100.61 184.48 95.80
  C 180.71 90.70 175.53 87.34 171.43 83.94
  Q 169.05 81.97 168.61 79.79
  A 1.63 1.63 0.0 0 1 170.64 77.90
  Q 172.53 78.41 174.06 80.30
  Q 177.66 84.73 180.46 87.27
  C 181.05 87.81 181.82 87.85 182.62 87.99
  Q 183.24 88.11 183.05 87.50
  Z"
/>
<path fill="#0c0d0c" d="
  M 325.7369 200.9995
  A 7.01 6.49 39.4 0 1 316.2006 201.5650
  A 7.01 6.49 39.4 0 1 314.9031 192.1005
  A 7.01 6.49 39.4 0 1 324.4394 191.5350
  A 7.01 6.49 39.4 0 1 325.7369 200.9995
  Z"
/>
<path fill="#cfc3b4" d="
  M 319.81 198.83
  Q 319.51 199.62 319.66 200.92
  A 0.69 0.68 -83.8 0 1 318.76 201.65
  C 315.04 200.35 312.77 195.72 316.14 192.82
  C 318.73 190.60 323.17 190.13 324.86 193.62
  Q 326.05 196.07 325.63 198.45
  Q 325.19 200.99 323.97 198.94
  Q 323.47 198.12 320.58 198.27
  Q 320.01 198.30 319.81 198.83
  Z"
/>
<path fill="#cfc3b4" d="
  M 338.56 199.77
  L 338.17 200.77
  Q 337.97 201.28 337.47 201.08
  C 331.45 198.66 337.25 189.33 343.22 193.84
  Q 346.03 195.96 345.85 200.15
  Q 345.83 200.64 345.52 201.02
  Q 343.70 203.13 340.82 202.25
  A 0.38 0.38 0.0 0 1 340.72 201.57
  Q 340.81 201.51 340.96 201.42
  A 1.05 1.02 -5.2 0 0 341.43 200.87
  Q 341.86 199.64 340.24 198.96
  Q 339.07 198.47 338.56 199.77
  Z"
/>
</svg>
