<svg id="Layer_1" data-name="Layer 1" xmlns="http://www.w3.org/2000/svg" viewBox="0 0 720 480"><defs><style>.cls-1{fill:#cfc3b4;}.cls-2{fill:#202020;}.cls-3,.cls-4{stroke:#000;stroke-miterlimit:10;}.cls-4{fill:none;}</style></defs><title>4</title><g id="_4" data-name="4"><path class="cls-1" d="M719,1V481H-1V1Z" transform="translate(1 -1)"/><path class="cls-2" d="M295.3,331.5a3.3,3.3,0,0,0-1.3,3.6,12.69,12.69,0,0,0,.6,1.6,31.63,31.63,0,0,0,2.2,3.5c.8,1.1,1.6,2,1.6,2a12.22,12.22,0,0,0,1.5,1.6,34,34,0,0,0,2.9,2.6,16.68,16.68,0,0,0,1.9,1.4,9.11,9.11,0,0,0,3.4,1.5,17.28,17.28,0,0,0-2.9-2.3c-.3-.2-.9-.6-1.8-1.3s-1.9-1.6-2.8-2.5-1.5-1.6-1.5-1.6-.8-.9-1.6-2a28.71,28.71,0,0,1-2.1-3.3c-.3-.8-.4-1.1-.5-1.4a5.14,5.14,0,0,1-.1-1.7A3.37,3.37,0,0,1,295.3,331.5Z" transform="translate(1 -1)"/><path class="cls-2" d="M298.2,326.3a13.44,13.44,0,0,0,2.6-2.7,3.19,3.19,0,0,1,.6-.7,2.18,2.18,0,0,0,.4-.5c.2-.2.4-.5.6-.7a7,7,0,0,0,.8-1c.6-.6,1.2-1.3,1.8-1.9a48.29,48.29,0,0,1,4-3.8,118.81,118.81,0,0,1,19.7-13.9c3.6-2.1,7.4-4.2,11.2-6.3s7.5-4.1,11.4-5.8a40,40,0,0,1,11.9-3.3,51.44,51.44,0,0,1,11.8.4c7.6,1,14.5,2.3,20.4,3.5s10.7,2.4,14,3.2,5.2,1.4,5.2,1.4a9.35,9.35,0,0,1,1.3.4c.9.2,2.2.6,3.9.9a17.88,17.88,0,0,0,6.3-.6,55.05,55.05,0,0,1,7.9-1.6,13.49,13.49,0,0,1,4.4.7,6.26,6.26,0,0,1,3.5,2.9c.8,1.4.4,3.2.5,5.1a6.3,6.3,0,0,0,1,2.9,9,9,0,0,0,2.3,2c1.7,1.1,3.4,1.9,5.1,2.9a11.55,11.55,0,0,1,4.3,3.9,6.32,6.32,0,0,1,.9,5.5c-.6,1.9-2,3.5-3.2,5.2-2.6,3.3-5.5,6.5-9.2,8.5s-8,2.6-12.2,2.8-8.4.1-12.4,0l-6-.3c-1-.1-1.9-.1-2.9-.2s-1.7-.1-2.6-.2-1.8-.2-2.2-.2a2.2,2.2,0,0,1-.8-.1h-.4l-.1-.2-.3-.5a8.79,8.79,0,0,1-.6-1c0,.4.1.8.1,1.2l.1.5a.37.37,0,0,0,.1.3c0,.2.1.3.1.5a2.92,2.92,0,0,1,.9.2c.2,0,.5.1.8.1s1.2.1,2.3.2c.9.1,1.7.1,2.6.2s1.9.1,2.9.2l6,.3c4.1.1,8.2.2,12.5,0s8.7-.7,12.6-2.9,6.9-5.4,9.5-8.8a19.47,19.47,0,0,0,3.4-5.5,6.24,6.24,0,0,0,.3-3.3,9.93,9.93,0,0,0-1.2-3,14.54,14.54,0,0,0-4.7-4.2c-1.7-1-3.5-1.9-5.1-2.9a8.52,8.52,0,0,1-2-1.7,4,4,0,0,1-.8-2.3,24.32,24.32,0,0,1,0-2.7,7.06,7.06,0,0,0-.6-2.8,7.71,7.71,0,0,0-4-3.4,13.44,13.44,0,0,0-4.8-.8c-3.1.1-5.7,1.1-8.1,1.6a14.43,14.43,0,0,1-6,.5,34.28,34.28,0,0,1-3.8-.8,6.26,6.26,0,0,1-1.3-.4s-1.9-.5-5.2-1.4-8.1-2-14-3.2-12.8-2.5-20.5-3.5a53,53,0,0,0-12-.4,40.36,40.36,0,0,0-12.2,3.4c-3.9,1.7-7.7,3.8-11.5,5.8s-7.5,4.1-11.2,6.3a120.12,120.12,0,0,0-19.8,14c-1.4,1.3-2.7,2.6-4,3.9-.6.7-1.2,1.3-1.8,2a9,9,0,0,0-.9,1c-.2.2-.4.5-.6.7s-.3.3-.4.5a4.35,4.35,0,0,1-.6.7A8.54,8.54,0,0,0,298.2,326.3Z" transform="translate(1 -1)"/><path class="cls-2" d="M403.5,317.5a2.77,2.77,0,0,1,.5-1.6,11,11,0,0,1,1.1-1.4c.2-.2.4-.5,1-1.1a22.58,22.58,0,0,1,5.2-3.8,28.55,28.55,0,0,1,2.7-1.2,8.17,8.17,0,0,1,1.1-.4,17.88,17.88,0,0,1,3.5-.7,24.43,24.43,0,0,1,6.1.2c1.1.2,1.8.4,2.2.5a26.13,26.13,0,0,0,3.6.8,8.07,8.07,0,0,0-3.3-1.8c-.4-.1-1.1-.3-2.3-.5a22.53,22.53,0,0,0-6.4-.2,17.94,17.94,0,0,0-3.6.7,6.74,6.74,0,0,0-1.2.4c-.7.3-1.7.7-2.8,1.2a22.26,22.26,0,0,0-5.4,4c-.6.6-.9,1-1.1,1.2a5.42,5.42,0,0,0-1,1.8A2.48,2.48,0,0,0,403.5,317.5Z" transform="translate(1 -1)"/><path class="cls-2" d="M455.2,321.8c-.5,1.2-.7,2-1.2,3.5a4.12,4.12,0,0,1-.3.8,1.42,1.42,0,0,0-.2.6c-.2.4-.4.9-.7,1.4a19.84,19.84,0,0,1-4.5,5.6,25.21,25.21,0,0,1-5.5,3.7,16.34,16.34,0,0,1-2.7,1.1,27.4,27.4,0,0,1-2.8.8,46.49,46.49,0,0,1-6.6,1,60.84,60.84,0,0,1-7.4,0,21.33,21.33,0,0,0-2.2-.1,14.78,14.78,0,0,0-3.7.2,12.71,12.71,0,0,0,3.6.8c.4,0,1.2.1,2.3.2a62.46,62.46,0,0,0,7.5,0,49.82,49.82,0,0,0,6.8-1,16.15,16.15,0,0,0,2.9-.9s1.1-.4,2.8-1.2a26.79,26.79,0,0,0,5.7-3.8,21.44,21.44,0,0,0,4.7-5.9,10.09,10.09,0,0,0,.7-1.5,1.42,1.42,0,0,0,.2-.6,9.2,9.2,0,0,0,.3-.9A8.5,8.5,0,0,0,455.2,321.8Z" transform="translate(1 -1)"/><path class="cls-2" d="M436.7,339.8a22.3,22.3,0,0,0-3.2,1.9c-.2.1-.6.4-1.3.9a45.91,45.91,0,0,1-4.7,2.7c-1.7.8-3.2,1.4-3.2,1.4s-.3.1-.8.3-1.2.4-2,.7a34.94,34.94,0,0,1-5,1.1c-1.1.2-1.9.2-2.2.3a32.87,32.87,0,0,0-3.6.7,11.14,11.14,0,0,0,3.7.3c.4-.1,1.1-.1,2.3-.3a34,34,0,0,0,5.1-1.2c.8-.2,1.5-.5,2.1-.7s.8-.3.8-.3,1.5-.6,3.2-1.4a48.58,48.58,0,0,0,4.8-2.7c.7-.5,1.1-.8,1.3-.9A13.86,13.86,0,0,0,436.7,339.8Z" transform="translate(1 -1)"/><path class="cls-2" d="M438.2,373.4a14.31,14.31,0,0,1-2.1-.4h-.2a.37.37,0,0,1-.3-.1l-.5-.1c-.3-.1-.7-.2-1-.3a17.23,17.23,0,0,1-2.1-.7c-1.4-.5-2.9-1-4.3-1.6s-3-1-4.7-1.4a40.11,40.11,0,0,0-5-.8c-3.3-.3-6.6-.4-9.5-.9a42.58,42.58,0,0,1-7.6-1.8c-2.1-.7-3.8-1.4-4.9-1.8s-1.8-.8-1.8-.8-2.6-1.1-6.4-3.1a10.91,10.91,0,0,0-1.1-.6,1.79,1.79,0,0,1-.7.5l1.2.6c3.8,2,6.4,3.1,6.4,3.1s.6.3,1.8.8,2.9,1.2,5,1.9a45.12,45.12,0,0,0,7.8,1.8c3,.4,6.3.6,9.5.9a37,37,0,0,1,4.8.8c1.6.4,3.1.9,4.5,1.4s2.9,1.1,4.4,1.6c.7.2,1.4.5,2.2.7l1.1.3.5.1a.37.37,0,0,1,.3.1h.2c1,.2,1.8.3,2.2.4a10.68,10.68,0,0,0,3.7-.3A21.36,21.36,0,0,1,438.2,373.4Z" transform="translate(1 -1)"/><path class="cls-2" d="M418.4,349.5a8.27,8.27,0,0,1-1.3,1.5l-.6.6a12.48,12.48,0,0,1-1.9,1.5,16.63,16.63,0,0,1-7.7,2.5,12.17,12.17,0,0,1-4.7-.6,9.76,9.76,0,0,1-3.5-2,9,9,0,0,1-1-1.2c-.1-.1-.1-.2-.2-.3-.3.2-.5.3-.8.5v.1a11,11,0,0,0,1.1,1.4,12.2,12.2,0,0,0,3.9,2.3,14.87,14.87,0,0,0,5.2.6,17.3,17.3,0,0,0,8.3-2.6,13.71,13.71,0,0,0,2-1.6l.6-.6a14.37,14.37,0,0,0,1.7-2.2C419.2,349.4,418.8,349.5,418.4,349.5Z" transform="translate(1 -1)"/><path class="cls-2" d="M454.9,353.8a3.78,3.78,0,0,0-1.5-2.1,6.43,6.43,0,0,0-3.1-.7,17.38,17.38,0,0,0-5.3,1.7,31.77,31.77,0,0,1-4,1.7c-1.2.4-2.3.7-3,.9s-1.2.3-1.2.3-1.7.4-4.3.8c-1.3.2-2.9.4-4.6.7a22.75,22.75,0,0,1-2.6.2,4.49,4.49,0,0,1-2.4-.5,1.69,1.69,0,0,1-.8-1.7,4.9,4.9,0,0,1,.7-1.9q1.2-1.95,2.4-3.6c.8-1.2,1.4-2.1,1.7-2.6.1-.2.2-.3.3-.5a11.94,11.94,0,0,1-1.6.8c-.3.5-.8,1.1-1.3,1.9-.7,1.1-1.6,2.3-2.4,3.7a5.84,5.84,0,0,0-.8,2.2,2.32,2.32,0,0,0,1.1,2.2,5.32,5.32,0,0,0,3,.7,24.58,24.58,0,0,0,2.8-.2c1.7-.2,3.3-.5,4.7-.7,2.7-.4,4.4-.8,4.4-.8l1.2-.3c.8-.2,1.8-.5,3.1-.9a24.07,24.07,0,0,0,4.2-1.8,12.39,12.39,0,0,1,4.8-1.6,4.49,4.49,0,0,1,2.4.5,2.66,2.66,0,0,1,1.2,1.6,2.32,2.32,0,0,1-.4,1.8,3,3,0,0,1-1.7,1,4.72,4.72,0,0,1-2,.1c-.7-.1-1.2-.2-1.7-.3a4.24,4.24,0,0,1-1.4-.6,3.46,3.46,0,0,0,3,1.7,6.8,6.8,0,0,0,2.4-.1,4.25,4.25,0,0,0,2.3-1.4A2.49,2.49,0,0,0,454.9,353.8Z" transform="translate(1 -1)"/><path class="cls-2" d="M448,356.9a12.31,12.31,0,0,0-3.7.4,5.07,5.07,0,0,0-.9.2c-.2,0-.4.1-.6.1a19.45,19.45,0,0,0-2,.5,69.55,69.55,0,0,0-9,3.2c-.7.3-1.4.7-2.1,1a9.06,9.06,0,0,0-1.9,1.3,1.55,1.55,0,0,0-.3,1.8,3,3,0,0,0,1.2,1.3,18.64,18.64,0,0,0,2.1,1.4c.5.3.8.5.8.5a9.24,9.24,0,0,0,.9.5c.6.3,1.4.7,2.5,1.2a14.67,14.67,0,0,0,4.1.9,24.16,24.16,0,0,1,4.7.5c1.4.3,2.8,1.2,3.1,2.3a1.55,1.55,0,0,1-.5,1.4,3.25,3.25,0,0,1-1.7.7,4,4,0,0,1-1.8-.2,4.68,4.68,0,0,1-1.4-.8,10,10,0,0,1-1.1-1,2.11,2.11,0,0,0,.5,1.3,3.08,3.08,0,0,0,1.5,1.1,4.18,4.18,0,0,0,2.5.3,4.65,4.65,0,0,0,2.3-.9,2,2,0,0,0,.8-2,3.44,3.44,0,0,0-1.4-1.8,6.43,6.43,0,0,0-2.4-1,29.09,29.09,0,0,0-4.9-.5,12.66,12.66,0,0,1-3.8-.8,16.92,16.92,0,0,1-2.3-1.1c-.5-.3-.8-.5-.8-.5s-.3-.2-.8-.5a25.15,25.15,0,0,1-2.1-1.4,2.33,2.33,0,0,1-.9-1.1,1.09,1.09,0,0,1,.2-1.2c.7-.8,2.3-1.4,3.7-2.1a68.33,68.33,0,0,1,8.9-3.2,19.45,19.45,0,0,1,2-.5,1.27,1.27,0,0,1,.6-.1,4.5,4.5,0,0,1,.8-.2A19.66,19.66,0,0,0,448,356.9Z" transform="translate(1 -1)"/><path class="cls-2" d="M296.4,339.2a14,14,0,0,1-3.5-.2,3.09,3.09,0,0,1-.8-.2c-.2-.1-.4-.1-.6-.2l-.1-.1a.35.35,0,0,1-.2-.1l-.5-.2-.9-.6a8.52,8.52,0,0,1-1.7-1.6,10,10,0,0,1-2.3-4.3,13.48,13.48,0,0,1-.1-5.3,28.76,28.76,0,0,1,4.2-10.3,59.65,59.65,0,0,1,6.2-8.8,82.46,82.46,0,0,1,6.3-6.6c1.9-1.8,3.7-3.1,4.8-4.1s1.9-1.4,1.9-1.4.7-.5,1.9-1.4,3-2.1,5.3-3.4a117.06,117.06,0,0,1,18-8.7c1.7-.7,3.6-1.3,5.3-1.9a26.86,26.86,0,0,1,5.4-1.4,9.63,9.63,0,0,1,5.1.6,4.83,4.83,0,0,1,2,1.4,5.5,5.5,0,0,1,.7.9c.1.2.2.3.2.5s.1.2.1.3l.1.2a4.75,4.75,0,0,1,.1,2,6.87,6.87,0,0,1-.5,1.7,4.06,4.06,0,0,1-1,1.4,3.33,3.33,0,0,0,2.5-2.9,5.43,5.43,0,0,0-.1-2.5l-.1-.2c0-.1-.1-.2-.1-.3l-.3-.6a4.44,4.44,0,0,0-.8-1.1,6.34,6.34,0,0,0-2.3-1.6,10.06,10.06,0,0,0-5.7-.7,27.25,27.25,0,0,0-5.6,1.5c-1.8.6-3.6,1.2-5.4,1.9a109.49,109.49,0,0,0-18.1,8.8c-2.3,1.4-4.1,2.6-5.4,3.5s-1.9,1.4-1.9,1.4-.7.5-1.9,1.4-2.9,2.3-4.9,4.2a70,70,0,0,0-6.4,6.7,62.24,62.24,0,0,0-6.3,9,29.39,29.39,0,0,0-4.3,10.7,15.57,15.57,0,0,0,.1,5.7,10.56,10.56,0,0,0,2.5,4.8,10.08,10.08,0,0,0,1.9,1.7,6,6,0,0,0,1.1.6l.5.3c.1,0,.2.1.3.1l.2.1a1.42,1.42,0,0,0,.6.2,5.07,5.07,0,0,0,.9.2A7,7,0,0,0,296.4,339.2Z" transform="translate(1 -1)"/><path class="cls-2" d="M341,289.4a14.59,14.59,0,0,0-2.9,2.3l-1.1,1.1c-.6.5-1.5,1.4-2.3,2.2l-1.5,1.3s-2.3,2-3.7,3c-.9.7-1.5,1.2-1.8,1.4a16.76,16.76,0,0,0-2.7,2.6,10.79,10.79,0,0,0,3.3-1.8c.3-.2.9-.7,1.8-1.4,1.4-1,3.7-3.1,3.7-3.1s.7-.6,1.5-1.4,1.8-1.7,2.4-2.2l1.1-1.1A8.6,8.6,0,0,0,341,289.4Z" transform="translate(1 -1)"/><circle class="cls-3" cx="446.6" cy="318.6" r="2.3"/><path class="cls-2" d="M431.7,322.5a5.6,5.6,0,0,0,1.8-3.3,10.77,10.77,0,0,0,.2-1.6v-.8c0-1.2-.2-2-.2-2.4a6.2,6.2,0,0,0-1.8-3.3,35.89,35.89,0,0,1,.8,3.5,8.82,8.82,0,0,1,.2,2.2v.8c-.1.8-.2,1.2-.2,1.5C432.2,320.4,432.1,321.2,431.7,322.5Z" transform="translate(1 -1)"/><path class="cls-2" d="M456,340.1a10.14,10.14,0,0,0-3.2-1.2,22.54,22.54,0,0,0-3.6-.6,35.27,35.27,0,0,0-4.1-.3h-1.4c-.9,0-2.1.1-3.3.2h-.6l-1,.7a4.84,4.84,0,0,0,1.7,0c1.3-.1,2.4-.2,3.2-.2H445s1.7,0,3.9.2a20.21,20.21,0,0,1,3.4.6,8.25,8.25,0,0,1,2.8,1c.6.5.3.9.1,1a5.33,5.33,0,0,1-3,.8,5.23,5.23,0,0,0,1.8.3,2.74,2.74,0,0,0,2-.7,1.18,1.18,0,0,0,.4-.7C456.7,341,456.5,340.5,456,340.1Z" transform="translate(1 -1)"/><path class="cls-2" d="M431,348.3a8.33,8.33,0,0,1-.1-1.2,4.28,4.28,0,0,0-.2-1.2,3.92,3.92,0,0,0-.5-1.3,3.51,3.51,0,0,1-.8.5,2.39,2.39,0,0,1,.3.9c.1.6.2,1.1.2,1.1a8.37,8.37,0,0,1,.1,1.2,12.26,12.26,0,0,0,.4,1.6,1.65,1.65,0,0,0,1,.8c0-.4.1-.7-.1-1C431.3,349.5,431.1,348.9,431,348.3Z" transform="translate(1 -1)"/><path class="cls-2" d="M436.6,344a16.79,16.79,0,0,1,3-1.4c.2-.1.6-.2,1.3-.5a24.35,24.35,0,0,1,3.6-.6,16.06,16.06,0,0,1,2.4,0,12.46,12.46,0,0,1,2,.2c1.1.2,2.4.6,3.5.8a6.61,6.61,0,0,0,2.5,0,2.77,2.77,0,0,0,1.6-1,1.05,1.05,0,0,0,0-1.3.94.94,0,0,1-.5,1,2.59,2.59,0,0,1-1.4.6,3.77,3.77,0,0,1-1.9,0c-.9-.1-2.3-.6-3.5-.8s-2.2-.3-2.2-.3a18.88,18.88,0,0,0-2.6,0,29.47,29.47,0,0,0-3.9.6,12.43,12.43,0,0,0-1.5.5A7.46,7.46,0,0,0,436.6,344Z" transform="translate(1 -1)"/><path class="cls-2" d="M438.3,342.9a5.73,5.73,0,0,0-3,1.7c-.1.2-.4.4-.8,1a7.56,7.56,0,0,0-.8,2,4.84,4.84,0,0,0,.1,2.4,12.07,12.07,0,0,0,.8,1.9c.2.5.3.7.3.7a1.45,1.45,0,0,1,.1.6,1.79,1.79,0,0,1-.5,1.3,2.26,2.26,0,0,1-2,.4,3.15,3.15,0,0,1-1.7-1.1,2.24,2.24,0,0,1-.3-1.4,10.64,10.64,0,0,1,.9-2.5,3.65,3.65,0,0,0-1.8,2.4,2.68,2.68,0,0,0,.3,1.8,4,4,0,0,0,2.3,1.5,4.73,4.73,0,0,0,1.7.1,2.65,2.65,0,0,0,1.4-.7,2.23,2.23,0,0,0,.8-1.8,1.73,1.73,0,0,0-.1-.7s-.1-.3-.3-.8a7.51,7.51,0,0,1-.7-1.8,5.45,5.45,0,0,1-.1-2.2,7.51,7.51,0,0,1,.7-1.8,4.55,4.55,0,0,1,.7-.9A13.15,13.15,0,0,1,438.3,342.9Z" transform="translate(1 -1)"/><path class="cls-4" d="M475.2,360.3" transform="translate(1 -1)"/><path class="cls-2" d="M451.2,340.9c.4-.2.6-.2.8-.4a1.74,1.74,0,0,1,.9-.5,3.75,3.75,0,0,1,.8-.1,2,2,0,0,1,.8.2,2.26,2.26,0,0,1,.7.6c.1.2.3.3.6.5.3-.2.5-.5.3-.8a2.3,2.3,0,0,0-1-1,4.77,4.77,0,0,0-1.2-.4,3.27,3.27,0,0,0-1.3.1,2.38,2.38,0,0,0-1.3.8C450.9,340.3,450.9,340.6,451.2,340.9Z" transform="translate(1 -1)"/><path class="cls-2" d="M301,335.3a15.32,15.32,0,0,0,3.6,1.1c.2,0,.5.1.9.1.8.1,1.9.1,3,.2a83.27,83.27,0,0,0,11-.4c3.7-.4,7.3-.9,9.9-1.3s4.3-.6,4.3-.6,1.7-.2,4.3-.6c1.3-.2,2.8-.4,4.5-.5.8-.1,1.7-1.4,2.6-1.5s1.8,1.2,2.7,1.1a53.75,53.75,0,0,1,10.8.6c1,.2,1.8.3,2.2.4a16.41,16.41,0,0,0,3.7.5A14.18,14.18,0,0,0,361,333c-.4-.1-1.2-.2-2.2-.4-.8-.1-1.7-.3-2.5-.4s-1.8-.1-2.8-.2-1.9,0-2.8-.1h-2.8c-.9,0-1.9.1-2.8.1a24.62,24.62,0,0,1-2.6.2c-1.7.1-3.2.4-4.5.5-2.6.4-4.3.6-4.3.6s-1.7.3-4.3.6-6.1.9-9.8,1.3a81.79,81.79,0,0,1-10.9.4c-1.1-.1-2.1-.2-2.9-.2a2.22,2.22,0,0,1-.9-.1A16.86,16.86,0,0,0,301,335.3Z" transform="translate(1 -1)"/><path class="cls-2" d="M359.9,333.7c1.2.2,1.9.3,3.2.6a2.54,2.54,0,0,1,.7.2c.2,0,.3.1.5.2a1,1,0,0,0,.3.1l.4.2a3.51,3.51,0,0,1,.8.5,5.26,5.26,0,0,1,1.4,1.2,9.35,9.35,0,0,1,2.1,3.5,10.36,10.36,0,0,1,.4,4.3,9.66,9.66,0,0,1-1.5,4.1,11.07,11.07,0,0,1-3.1,3,34.55,34.55,0,0,1-7.6,3.5c-2.5.9-4.8,1.6-6.8,2.1a64.78,64.78,0,0,1-6.6,1.5s-2.6.5-6.7,1a77,77,0,0,1-15.4.2,82.7,82.7,0,0,1-8.7-1.1c-.7-.1-1.4-.3-2.1-.4s-1.4-.3-2.1-.5-1.4-.3-2-.5-1.2-.3-1.8-.5a7,7,0,0,1-1.9-.6,13.56,13.56,0,0,0-3.3-.6,12,12,0,0,0,3,1.5c.4.1,1.1.3,2,.6.6.2,1.2.3,1.9.5s1.3.3,2,.5,1.4.3,2.1.5,1.4.3,2.1.4a88.51,88.51,0,0,0,8.8,1.2,78.92,78.92,0,0,0,15.6-.2,57.89,57.89,0,0,0,6.7-1,64.78,64.78,0,0,0,6.6-1.5,52.74,52.74,0,0,0,6.8-2.2,33.34,33.34,0,0,0,7.7-3.6,12.86,12.86,0,0,0,3.4-3.2,10.28,10.28,0,0,0,1.7-4.5,12.87,12.87,0,0,0-.4-4.8,9.7,9.7,0,0,0-2.3-3.8,6.53,6.53,0,0,0-1.6-1.3,9.22,9.22,0,0,0-.8-.5l-.4-.2c-.1,0-.1-.1-.2-.1l-.1-.1a1.42,1.42,0,0,0-.6-.2,3.09,3.09,0,0,0-.8-.2A4.88,4.88,0,0,0,359.9,333.7Z" transform="translate(1 -1)"/><path class="cls-2" d="M303.8,347.1a13.42,13.42,0,0,0,3.4,1.6c.6.2,1.8.5,3.3.9,2.5.6,5.6,1.3,8.5,1.7a96.39,96.39,0,0,0,11.3,1h3.4a60.61,60.61,0,0,0,7.9-.5c1.5-.1,3-.4,4.4-.6s2.9-.5,4.1-.7c1-.2,1.8-.4,2.2-.5a16,16,0,0,0,3.5-1.4,16.7,16.7,0,0,0-3.7.4c-.4.1-1.2.3-2.2.5-1.2.3-2.7.5-4.1.7l-4.4.6c-2.9.3-5.7.4-7.8.5h-3.4a93.11,93.11,0,0,1-11.1-1c-2.9-.4-5.9-1.1-8.4-1.7-1.4-.4-2.6-.7-3.2-.9A16.76,16.76,0,0,0,303.8,347.1Z" transform="translate(1 -1)"/><path class="cls-2" d="M354.4,370.5c-.4,0-1.1.1-2,.2-.3,0-.6.1-.8.1a2.77,2.77,0,0,0-.9.1c-.6,0-1.3.1-1.9.1-1.3.1-2.6.1-4,.2-2.7,0-5.5,0-8.2-.1a123.27,123.27,0,0,1-14.4-1.5,44,44,0,0,1-4.5-.9,13.69,13.69,0,0,1-1.7-.4s-.6-.1-1.7-.4-2.6-.7-4.5-1.2-4.1-1.1-6.3-2a12.1,12.1,0,0,1-6.1-4.7,13.16,13.16,0,0,1-1.5-3.9,9.91,9.91,0,0,1,0-4.2,10,10,0,0,1,4-6.4l1.5-.9.6-.3-.7-.7c-.1,0-.2.1-.3.1a14,14,0,0,0-1.6,1,10.86,10.86,0,0,0-4.3,7,12.93,12.93,0,0,0,1.7,8.8,10.24,10.24,0,0,0,3,3.2,20.09,20.09,0,0,0,3.5,1.9c2.4.9,4.6,1.5,6.4,2.1l4.5,1.2c1.1.3,1.7.4,1.7.4s.6.1,1.7.4,2.7.5,4.6.9a120.7,120.7,0,0,0,14.5,1.6c2.7.2,5.5.1,8.2.1,1.4-.1,2.7-.1,4-.2.6,0,1.3-.1,1.9-.1a2.77,2.77,0,0,0,.9-.1c.3,0,.6-.1.8-.1.9-.1,1.6-.2,2-.2a10,10,0,0,0,3.2-.9A7.31,7.31,0,0,0,354.4,370.5Z" transform="translate(1 -1)"/><path class="cls-2" d="M355.9,370.5a12.13,12.13,0,0,0,3.3,0c.2,0,.6-.1,1.4-.2,1.3-.1,3.6-.3,5.6-.4s3.6,0,3.6,0,1.3,0,3.1.1,3.8.3,5.3.5a12.29,12.29,0,0,1,2,.3,12.29,12.29,0,0,0,3.3.1,13.34,13.34,0,0,0-3.2-1.1c-.3-.1-1-.1-2-.3-1.5-.2-3.6-.4-5.4-.5s-3.1-.1-3.1-.1h-3.6c-2,.1-4.3.2-5.6.4a7.1,7.1,0,0,0-1.4.2A9.19,9.19,0,0,0,355.9,370.5Z" transform="translate(1 -1)"/><path class="cls-2" d="M381.7,370.9a8,8,0,0,0,2.2,2.7,11.77,11.77,0,0,0,1.3.8,5.19,5.19,0,0,0,4.3.3,3.71,3.71,0,0,0,1.6-1.4l.3-.6a.31.31,0,0,0,.1-.2,7.35,7.35,0,0,0,.2-.8,4.24,4.24,0,0,0-.1-1.9,5.8,5.8,0,0,0-1-2.1,5.15,5.15,0,0,0-1.7-1.3,4.73,4.73,0,0,0-2.1-.5,4.21,4.21,0,0,0-3.1,1.2,15.53,15.53,0,0,1,3.1-.3,4.08,4.08,0,0,1,1.8.4,3.05,3.05,0,0,1,1.3,1,3.81,3.81,0,0,1,.8,1.7,8.64,8.64,0,0,1,.1,1.5,1.45,1.45,0,0,1-.1.6.31.31,0,0,1-.1.2.76.76,0,0,1-.2.4,2.47,2.47,0,0,1-1.2,1,4.18,4.18,0,0,1-3.5-.2,3.27,3.27,0,0,1-1.1-.7A16,16,0,0,1,381.7,370.9Z" transform="translate(1 -1)"/><path class="cls-2" d="M402.4,344.1c-.5-1.2-.8-2-1.3-3.4a9.31,9.31,0,0,1-.4-1.4,1.85,1.85,0,0,0-.2-.7,1.21,1.21,0,0,0-.1-.5v-.4a1.7,1.7,0,0,0-.1-.7,11.62,11.62,0,0,1,.1-2.2c.2-1.5.3-2.3.5-3.6a6.26,6.26,0,0,0-1.5,3.5,12.94,12.94,0,0,0-.1,2.4,1.7,1.7,0,0,0,.1.7,1,1,0,0,0,.1.4,1.75,1.75,0,0,0,.1.5c.1.3.1.6.2.8a5.9,5.9,0,0,0,.5,1.5A5.76,5.76,0,0,0,402.4,344.1Z" transform="translate(1 -1)"/><path class="cls-2" d="M389.3,356.3a9.63,9.63,0,0,0,3.3-.4,11.06,11.06,0,0,1,1.3-.4,24.26,24.26,0,0,0,2.8-1,6.93,6.93,0,0,0,3.1-2,3.81,3.81,0,0,0,.8-1.7,3.21,3.21,0,0,0-.2-1.7,4.37,4.37,0,0,0-.6-1l-.3-.3a2.57,2.57,0,0,0-1-.7,4.7,4.7,0,0,0-2.7-.4,11.68,11.68,0,0,0-5.9,2.5,10.4,10.4,0,0,0-1.4,1.7,4.2,4.2,0,0,0-.3,3.6,9.63,9.63,0,0,1,1.1-3.1,8.26,8.26,0,0,1,1.2-1.5,11.54,11.54,0,0,1,5.4-2.3,5.13,5.13,0,0,1,2.3.3c.5.3.8.5.8.5l.2.2a2.15,2.15,0,0,1,.4.7,2.28,2.28,0,0,1-.5,2.4,6,6,0,0,1-2.8,1.7c-1.1.4-2.1.8-2.8,1a11.06,11.06,0,0,0-1.3.4C391.1,355.4,390.4,355.8,389.3,356.3Z" transform="translate(1 -1)"/><path class="cls-2" d="M388.1,351.7c-1.2.1-1.9.1-3.2.1a8.47,8.47,0,0,1-1.3-.1,9.52,9.52,0,0,1-2.8-1,10.85,10.85,0,0,1-1.6-1.1,11.35,11.35,0,0,1-1.2-1.2,7.34,7.34,0,0,1-1.4-2.6,3.51,3.51,0,0,1-.2-1.9,5.27,5.27,0,0,1,.5-1.5,3.57,3.57,0,0,1,1.1-1,1.94,1.94,0,0,0-1.6.5,3.08,3.08,0,0,0-.9,1.8,4.65,4.65,0,0,0,.3,2.4,9.24,9.24,0,0,0,1.6,2.9c.7.8,1.3,1.4,1.3,1.4a7.26,7.26,0,0,0,1.7,1.2,8.94,8.94,0,0,0,3.1,1.1,7.1,7.1,0,0,1,1.4.2A7.15,7.15,0,0,0,388.1,351.7Z" transform="translate(1 -1)"/><path class="cls-2" d="M377.5,342.6a4.18,4.18,0,0,0,3.2-1.2,8.4,8.4,0,0,0,1-1.2,7.31,7.31,0,0,0,.9-2.3,7.1,7.1,0,0,0-.1-2.9,5.62,5.62,0,0,0-1-2.2,2.65,2.65,0,0,1-.5-.6l-.2-.2a4,4,0,0,0-.7-.5,5.84,5.84,0,0,0-1.9-.7,4.84,4.84,0,0,0-2.4.3,4.72,4.72,0,0,0-1.9,1.4,6,6,0,0,0-1,2.1,3.77,3.77,0,0,0,.8,3.5,4.45,4.45,0,0,1-.1-1.6,12.77,12.77,0,0,1,.2-1.7,4.62,4.62,0,0,1,.8-1.7,3.64,3.64,0,0,1,1.5-1.2,4.65,4.65,0,0,1,2-.3,6,6,0,0,1,1.6.5,1.11,1.11,0,0,1,.5.4l.6.6a3.77,3.77,0,0,1,.8,1.8,6.55,6.55,0,0,1,.1,2.4,4.2,4.2,0,0,1-.7,1.9,6.22,6.22,0,0,1-.8,1A7.15,7.15,0,0,1,377.5,342.6Z" transform="translate(1 -1)"/><path class="cls-2" d="M374.4,336.4c-.6,1.1-1,1.7-1.6,3-.1.2-.3.6-.6,1.3h0a12.69,12.69,0,0,1-1.1,1.7,22.87,22.87,0,0,0-1.8,2.9,8.88,8.88,0,0,0,2.5-2.3,15.9,15.9,0,0,0,1.1-1.8h0c.4-.7.6-1.1.7-1.3A8,8,0,0,0,374.4,336.4Z" transform="translate(1 -1)"/><path class="cls-2" d="M365.5,356.2a8.2,8.2,0,0,0,2.8-1.9,8.79,8.79,0,0,0,1-1c.4-.4.9-1,1.4-1.6s.8-1,.8-1,.3-.4.7-.9.8-1.2,1.2-1.7c.6-.9.9-1.5,1.1-1.8a11,11,0,0,0,1.2-3.3,15.45,15.45,0,0,0-2,2.8c-.2.3-.5.9-1.1,1.8a15.26,15.26,0,0,1-1.1,1.6c-.4.5-.7.9-.7.9l-.8,1a10.57,10.57,0,0,1-1.4,1.5,8.79,8.79,0,0,1-1,1C366.7,354.6,366.2,355.3,365.5,356.2Z" transform="translate(1 -1)"/><path class="cls-2" d="M368.6,358.6a7,7,0,0,0,3.3.5,10.33,10.33,0,0,0,1.4-.1,22.56,22.56,0,0,0,3.9-.8c.7-.2,1.3-.4,1.7-.5a6,6,0,0,1,.7-.3,3.22,3.22,0,0,1,.6-.2,14.67,14.67,0,0,0,1.4-.6,25.94,25.94,0,0,0,3.3-1.9c.9-.6,1.4-1,1.7-1.2a8.72,8.72,0,0,0,2.2-2.6,21.11,21.11,0,0,0-2.7,1.8c-.3.2-.8.6-1.6,1.2a24.28,24.28,0,0,1-3.2,1.8,5.34,5.34,0,0,1-1.4.6,3.22,3.22,0,0,0-.6.2s-.3.1-.7.2a12.2,12.2,0,0,1-1.7.5,15.44,15.44,0,0,1-3.8.7,9.51,9.51,0,0,1-1.4.1C370.5,358.2,369.7,358.4,368.6,358.6Z" transform="translate(1 -1)"/><path class="cls-2" d="M371.6,362.9a7,7,0,0,0,3.3.5,10.33,10.33,0,0,0,1.4-.1c.8-.1,2.2-.3,3.4-.5a15.46,15.46,0,0,0,1.5-.4,3.22,3.22,0,0,0,.6-.2,15.56,15.56,0,0,0,1.8-.6,27.51,27.51,0,0,0,3-1.4c.9-.5,1.5-.9,1.8-1a8.85,8.85,0,0,0,2.4-2.3,20,20,0,0,0-2.9,1.5c-.3.2-.8.5-1.7,1a19.46,19.46,0,0,1-2.9,1.3c-1,.4-1.7.6-1.7.6a3.22,3.22,0,0,1-.6.2,10.26,10.26,0,0,0-1.4.4,14.72,14.72,0,0,1-3.3.5,9.51,9.51,0,0,1-1.4.1A11.06,11.06,0,0,0,371.6,362.9Z" transform="translate(1 -1)"/><path class="cls-2" d="M369.9,365.3a16.86,16.86,0,0,0,3.3.3h1.4a14.8,14.8,0,0,1,2,.1,8.87,8.87,0,0,1,1.3.1s2,.2,3,.4,1.6.3,2,.4a12.68,12.68,0,0,0,3.3.3,9.65,9.65,0,0,0-3.1-1.3c-.3-.1-1-.2-2-.4s-3.1-.4-3.1-.4a8.87,8.87,0,0,0-1.3-.1c-.7,0-1.6-.1-2.1-.1h-1.4A10.7,10.7,0,0,0,369.9,365.3Z" transform="translate(1 -1)"/><path class="cls-2" d="M409.4,319a5.45,5.45,0,0,0,1.9.8,5.53,5.53,0,0,0,.9.1,16.88,16.88,0,0,0,4.5,0,16.14,16.14,0,0,0,2.8-.6,14,14,0,0,0,2.3-.9,15.89,15.89,0,0,0,3.6-2.3,10.53,10.53,0,0,0,.9-.8,6.57,6.57,0,0,0,1.2-1.7,15.3,15.3,0,0,0-1.6,1.3,10.53,10.53,0,0,1-.9.8,13.85,13.85,0,0,1-3.5,2.2,14,14,0,0,1-2.3.9,16.35,16.35,0,0,1-2.7.6,16.13,16.13,0,0,1-4.4,0,3.78,3.78,0,0,1-.8-.1A5.82,5.82,0,0,0,409.4,319Z" transform="translate(1 -1)"/></g></svg>