<?xml version="1.0" encoding="UTF-8" standalone="no"?>
<svg xmlns="http://www.w3.org/2000/svg" version="1.2" baseProfile="tiny" viewBox="0.00 0.00 720.00 480.00">
<path fill="#cfc3b4" d="
  M 720.00 0.00
  L 720.00 480.00
  L 0.00 480.00
  L 0.00 0.00
  L 720.00 0.00
  Z"
/>
<path fill="#161515" d="
  M 318.22 369.61
  Q 318.36 370.05 318.53 370.95
  Q 318.71 371.92 318.46 372.40
  Q 318.06 373.13 317.00 373.12
  Q 316.40 373.11 315.64 372.61
  C 311.48 369.86 309.08 367.63 304.00 367.81
  Q 294.07 368.15 287.52 368.08
  Q 286.11 368.07 284.91 366.87
  A 2.07 2.06 37.5 0 1 284.58 364.38
  L 286.27 361.45
  Q 286.48 361.08 286.24 360.73
  C 282.92 355.81 283.49 352.42 285.02 346.90
  C 286.69 340.89 292.66 334.18 296.99 330.74
  Q 298.26 329.73 304.41 325.48
  C 313.12 319.45 323.23 315.48 333.14 312.84
  Q 344.46 309.81 353.75 309.55
  Q 359.67 309.38 363.58 309.38
  C 370.75 309.37 377.65 311.18 384.32 313.49
  C 386.24 314.15 387.10 313.49 387.85 311.71
  C 389.37 308.09 394.58 306.21 398.06 305.87
  Q 402.28 305.46 405.68 308.47
  C 407.16 309.78 407.02 311.74 408.33 313.34
  A 1.20 1.20 0.0 0 0 410.15 313.38
  C 413.43 309.77 415.94 307.02 420.61 307.16
  C 424.97 307.30 428.90 310.95 429.30 315.54
  A 1.63 1.62 -89.6 0 0 430.74 317.01
  C 435.79 317.55 439.44 317.75 443.90 320.46
  Q 445.49 321.42 447.95 323.75
  C 452.08 327.68 462.07 335.60 458.73 342.05
  Q 456.53 346.28 451.92 346.58
  Q 451.38 346.62 451.05 347.03
  Q 448.29 350.47 443.40 355.99
  C 441.29 358.37 438.60 360.25 436.83 362.35
  Q 436.51 362.73 436.61 363.22
  Q 437.55 367.52 432.97 368.45
  Q 428.97 369.26 427.60 370.78
  A 1.50 1.45 -72.5 0 1 426.75 371.24
  Q 424.12 371.64 421.34 370.73
  Q 420.86 370.58 420.40 370.77
  C 417.62 371.90 412.71 372.77 412.41 368.74
  A 0.32 0.32 0.0 0 0 412.01 368.45
  L 395.71 372.22
  A 1.35 1.32 11.9 0 0 394.99 372.68
  Q 392.93 375.25 390.46 374.93
  C 386.46 374.40 383.10 372.03 378.92 371.18
  Q 369.68 369.31 360.98 369.09
  C 355.76 368.97 351.41 368.29 345.56 367.95
  Q 341.61 367.72 339.57 364.64
  A 0.70 0.70 0.0 0 0 338.32 364.80
  Q 337.87 366.10 336.91 367.11
  Q 336.56 367.47 336.06 367.52
  C 332.36 367.81 330.41 369.46 326.26 368.54
  Q 324.55 368.16 318.64 368.93
  Q 318.02 369.01 318.22 369.61
  Z"
/>
<path fill="#cfc3b4" d="
  M 327.08 365.50
  Q 329.06 365.60 330.48 366.26
  Q 330.98 366.49 330.83 367.02
  Q 330.54 368.03 329.69 367.88
  Q 324.29 366.94 318.08 367.88
  C 316.81 368.07 315.93 367.53 314.92 366.92
  A 0.29 0.24 22.2 0 0 314.50 367.05
  L 314.44 367.56
  Q 314.42 367.71 314.43 367.72
  L 316.69 369.75
  A 1.80 1.24 31.3 0 1 317.31 371.14
  L 317.22 371.76
  Q 317.10 372.53 316.54 372.12
  C 311.44 368.33 308.72 366.43 302.03 366.66
  Q 291.95 367.01 287.66 366.99
  Q 286.86 366.99 286.21 366.51
  Q 284.66 365.37 286.17 363.92
  Q 291.28 358.98 293.33 356.52
  C 298.37 350.45 302.04 346.13 305.04 343.04
  Q 310.81 337.10 319.37 336.19
  Q 319.97 336.13 319.83 335.55
  L 319.77 335.29
  Q 319.68 334.91 319.30 334.96
  Q 310.95 336.08 305.43 341.19
  Q 299.98 346.23 291.84 356.83
  Q 290.95 357.99 287.68 360.54
  Q 287.25 360.87 287.03 360.37
  C 285.06 355.79 284.34 354.44 285.71 348.93
  Q 287.63 341.17 294.64 334.57
  C 313.14 317.14 340.19 309.19 365.78 310.66
  Q 374.58 311.17 383.07 314.42
  Q 384.14 314.83 387.54 315.10
  A 0.62 0.61 10.4 0 0 388.18 314.66
  Q 389.41 310.60 390.91 309.68
  Q 395.38 306.97 399.52 307.21
  Q 404.16 307.47 405.77 310.56
  Q 407.75 314.33 408.46 314.87
  Q 408.94 315.24 409.36 315.07
  Q 411.20 314.33 411.96 313.19
  C 414.84 308.87 420.80 306.63 425.13 310.13
  Q 428.24 312.65 428.41 316.56
  A 1.62 1.62 0.0 0 0 429.85 318.10
  C 436.14 318.76 440.94 318.74 445.74 323.12
  Q 450.82 327.76 453.78 330.80
  C 455.66 332.72 458.35 336.75 458.28 339.56
  C 458.22 342.21 455.29 345.45 452.11 345.06
  Q 451.56 344.99 451.69 344.45
  Q 452.37 341.70 449.70 339.74
  C 446.13 337.13 442.76 336.94 437.67 336.47
  Q 430.74 335.82 426.73 336.69
  C 414.52 339.33 406.85 341.51 396.49 340.59
  Q 389.01 339.93 381.28 338.89
  A 0.57 0.56 -2.5 0 0 380.65 339.57
  L 380.71 339.84
  Q 380.75 340.00 380.92 340.03
  Q 394.76 342.00 400.50 342.22
  Q 404.05 342.36 411.38 340.99
  Q 415.09 340.30 424.60 338.39
  Q 434.57 336.38 444.28 338.46
  C 446.04 338.84 450.76 340.71 450.53 343.27
  Q 450.23 346.65 447.86 349.36
  Q 443.97 353.82 437.74 359.98
  Q 436.24 361.46 434.16 362.16
  C 430.88 363.26 428.79 364.56 425.60 365.10
  Q 423.94 365.38 420.98 366.48
  Q 420.00 366.85 414.32 366.27
  A 1.39 1.35 70.2 0 1 413.48 365.86
  C 410.79 363.14 406.57 364.60 403.88 366.65
  Q 403.48 366.95 402.98 366.89
  Q 401.13 366.65 398.90 367.00
  Q 397.46 367.22 394.91 366.19
  C 389.97 364.18 383.23 362.56 378.08 359.43
  A 0.47 0.46 51.8 0 1 378.18 358.59
  Q 383.02 357.05 387.15 353.30
  Q 387.31 353.16 387.12 353.05
  L 386.66 352.78
  A 0.29 0.28 42.3 0 0 386.37 352.79
  C 384.24 354.19 382.85 355.52 380.41 356.50
  Q 375.66 358.43 375.06 358.66
  C 370.82 360.31 366.73 359.65 362.51 360.74
  A 0.27 0.25 77.2 0 0 362.33 361.05
  L 362.39 361.37
  Q 362.44 361.69 362.76 361.63
  Q 366.44 360.89 370.12 360.82
  C 372.10 360.79 373.28 360.40 375.03 359.89
  Q 375.53 359.75 375.99 359.98
  Q 383.19 363.58 392.67 366.43
  Q 393.99 366.83 394.44 368.68
  Q 394.54 369.06 394.92 368.98
  Q 398.48 368.25 399.88 368.07
  Q 405.34 367.34 400.56 370.06
  Q 400.50 370.10 398.33 370.51
  C 395.69 371.02 392.39 370.20 389.97 370.38
  Q 387.71 370.54 389.84 371.34
  Q 390.59 371.62 392.48 371.78
  A 0.58 0.58 0.0 0 1 392.95 372.63
  Q 392.77 372.99 392.33 373.28
  Q 391.50 373.83 390.52 373.66
  C 388.74 373.37 386.86 373.04 384.96 372.12
  C 379.69 369.54 373.04 368.70 367.25 368.36
  Q 354.04 367.60 346.27 366.94
  Q 343.95 366.74 342.16 365.54
  C 334.53 360.40 350.60 350.07 354.68 346.92
  Q 360.05 342.76 365.73 341.40
  A 0.55 0.53 70.9 0 0 366.08 340.65
  L 365.97 340.41
  Q 365.87 340.20 365.65 340.25
  Q 359.93 341.51 355.29 345.06
  Q 347.53 351.00 346.37 351.86
  C 343.15 354.26 339.19 358.21 338.87 362.43
  Q 338.81 363.20 338.53 363.48
  Q 338.24 363.76 337.68 363.69
  A 1.02 1.00 79.2 0 1 336.90 363.15
  Q 335.27 360.09 330.50 360.42
  Q 326.32 360.70 323.25 361.48
  Q 322.35 361.71 317.35 361.17
  Q 316.85 361.11 317.26 360.79
  C 319.65 358.88 324.19 355.70 327.38 352.50
  C 330.09 349.77 336.67 345.01 338.04 339.04
  C 338.79 335.75 335.96 331.79 333.72 330.05
  C 330.73 327.71 327.06 328.34 322.16 328.42
  Q 318.97 328.48 316.00 329.73
  Q 310.16 332.18 308.63 333.14
  C 302.47 337.01 298.68 338.76 295.81 342.34
  Q 295.02 343.33 296.28 343.12
  Q 296.41 343.10 296.91 342.67
  Q 305.04 335.64 314.55 331.52
  C 319.66 329.31 323.67 329.39 329.01 329.53
  Q 331.29 329.59 332.91 330.85
  Q 339.10 335.67 336.02 341.63
  C 334.15 345.25 328.06 350.30 325.42 352.90
  C 322.07 356.20 318.76 357.99 315.99 360.31
  Q 315.59 360.65 315.09 360.63
  L 313.70 360.56
  Q 313.21 360.54 313.14 361.01
  Q 313.12 361.13 313.19 361.30
  Q 313.33 361.60 313.65 361.66
  Q 318.31 362.51 322.06 362.55
  C 326.32 362.60 333.32 359.40 336.27 364.09
  A 1.55 1.55 0.0 0 1 335.65 366.30
  Q 334.54 366.85 332.72 366.62
  A 1.25 1.21 72.6 0 1 331.95 366.20
  Q 330.36 364.35 327.40 364.54
  A 0.20 0.19 -77.8 0 0 327.25 364.64
  L 326.92 365.21
  Q 326.76 365.49 327.08 365.50
  Z"
/>
<path fill="#161515" d="
  M 404.65 315.57
  C 401.63 313.63 397.74 313.45 394.48 314.85
  Q 393.81 315.14 394.09 314.47
  C 395.54 311.05 403.48 312.48 405.22 314.83
  A 0.53 0.52 -45.7 0 1 405.22 315.44
  Q 405.14 315.55 404.97 315.61
  Q 404.80 315.67 404.65 315.57
  Z"
/>
<path fill="#161515" d="
  M 423.75 315.28
  C 421.12 313.54 419.07 314.23 416.27 315.03
  Q 412.22 316.19 415.71 313.85
  C 418.36 312.07 424.57 312.18 425.48 316.71
  Q 425.55 317.06 425.24 317.24
  Q 425.11 317.32 424.96 317.29
  Q 424.83 317.27 424.78 317.15
  C 424.46 316.40 424.24 315.60 423.75 315.28
  Z"
/>
<ellipse fill="#cfc3b4" cx="0.00" cy="0.00" transform="translate(432.52,365.57) rotate(-24.7)" rx="3.69" ry="1.71"/>
<ellipse fill="#cfc3b4" cx="0.00" cy="0.00" transform="translate(408.16,367.03) rotate(-16.1)" rx="3.76" ry="1.09"/>
<path fill="#cfc3b4" d="
  M 420.98 367.66
  L 426.89 366.29
  Q 428.10 366.01 428.02 367.25
  L 427.96 368.05
  Q 427.85 369.70 426.07 369.97
  Q 422.30 370.52 420.64 368.89
  A 0.73 0.73 0.0 0 1 420.98 367.66
  Z"
/>
<path fill="#cfc3b4" d="
  M 419.29 367.60
  A 0.28 0.28 0.0 0 1 419.58 367.87
  L 419.58 368.04
  A 2.71 2.51 -1.6 0 1 416.94 370.62
  L 416.42 370.64
  A 2.71 2.51 -1.6 0 1 413.64 368.20
  L 413.64 368.03
  A 0.28 0.28 0.0 0 1 413.91 367.75
  L 419.29 367.60
  Z"
/>
</svg>
