<?xml version="1.0" encoding="UTF-8" standalone="no"?>
<svg xmlns="http://www.w3.org/2000/svg" version="1.2" baseProfile="tiny" viewBox="0.00 0.00 720.00 480.00">
<path fill="#cfc3b4" d="
  M 720.00 0.00
  L 720.00 480.00
  L 0.00 480.00
  L 0.00 0.00
  L 720.00 0.00
  Z"
/>
<path fill="#131313" d="
  M 318.12 369.40
  Q 318.60 370.35 318.60 371.51
  A 1.65 1.65 0.0 0 1 316.05 372.88
  C 312.34 370.46 309.42 367.40 303.60 367.71
  Q 290.56 368.39 286.50 368.10
  Q 284.68 367.97 284.14 365.82
  Q 284.02 365.33 284.27 364.88
  L 286.39 361.22
  Q 286.57 360.90 286.34 360.61
  Q 282.51 355.95 284.42 349.21
  Q 285.66 344.86 286.83 342.84
  Q 291.34 335.02 297.65 330.39
  C 300.54 328.28 306.04 324.05 310.50 321.71
  Q 337.31 307.60 368.00 309.56
  Q 373.26 309.89 385.03 313.78
  Q 385.49 313.93 385.93 313.74
  Q 387.65 312.99 388.36 310.87
  Q 388.52 310.40 388.88 310.06
  C 394.70 304.62 404.99 303.46 407.87 312.87
  A 1.37 1.37 0.0 0 0 410.15 313.43
  Q 411.23 312.34 412.22 311.22
  Q 416.70 306.16 422.59 307.79
  Q 428.74 309.49 429.41 315.64
  A 1.45 1.44 -89.2 0 0 430.63 316.90
  C 435.48 317.62 439.41 317.65 444.05 320.60
  Q 445.94 321.81 448.40 324.08
  C 452.22 327.61 461.78 335.46 458.90 341.64
  C 457.67 344.28 455.08 346.86 451.89 346.45
  Q 451.39 346.39 451.09 346.80
  Q 445.16 354.98 436.90 361.96
  Q 436.49 362.31 436.69 362.82
  C 438.54 367.30 432.92 368.61 429.71 369.24
  Q 429.20 369.34 428.80 369.67
  Q 425.42 372.41 420.75 370.86
  Q 420.28 370.70 419.81 370.88
  C 416.98 371.96 413.68 372.70 412.27 368.89
  Q 412.06 368.32 411.47 368.46
  L 395.68 372.29
  Q 395.17 372.41 394.86 372.83
  C 391.93 376.74 386.04 374.18 382.85 372.27
  Q 380.98 371.15 373.75 370.28
  Q 362.78 368.95 352.47 368.68
  C 350.47 368.62 347.94 368.16 345.58 367.90
  Q 341.57 367.46 339.32 364.63
  A 0.53 0.53 0.0 0 0 338.44 364.69
  L 337.37 366.55
  Q 337.08 367.05 336.52 367.19
  L 329.70 368.84
  Q 329.22 368.96 328.74 368.89
  Q 323.69 368.18 318.46 368.76
  Q 317.83 368.83 318.12 369.40
  Z"
/>
<path fill="#cfc3b4" d="
  M 327.44 365.86
  Q 329.80 365.54 330.14 365.93
  Q 332.07 368.10 328.94 367.70
  Q 325.96 367.32 322.00 367.55
  Q 318.42 367.75 315.23 367.59
  Q 314.59 367.56 314.55 367.89
  Q 314.54 367.97 314.58 368.19
  Q 314.61 368.40 314.82 368.48
  Q 317.16 369.35 317.24 371.27
  A 0.76 0.75 20.9 0 1 315.96 371.84
  Q 312.69 368.71 308.96 367.34
  Q 306.50 366.43 300.95 366.68
  Q 292.50 367.06 291.26 367.13
  Q 288.52 367.28 286.12 366.37
  A 1.22 1.21 32.2 0 1 285.67 364.40
  C 287.99 361.95 291.11 359.23 293.94 355.74
  Q 301.16 346.82 305.98 342.24
  Q 311.54 336.96 319.75 336.11
  A 0.34 0.31 -75.6 0 0 320.01 335.94
  L 320.41 335.25
  A 0.28 0.28 0.0 0 0 320.15 334.83
  C 310.10 335.85 303.81 341.76 297.49 349.79
  Q 292.89 355.64 288.68 359.87
  Q 287.47 361.09 286.77 359.52
  C 285.68 357.03 284.85 355.74 284.98 353.38
  C 285.69 341.21 295.00 333.60 304.03 326.98
  Q 308.00 324.08 313.20 321.49
  Q 339.04 308.61 368.51 310.79
  Q 373.45 311.15 382.87 314.20
  C 383.77 314.49 385.71 314.68 386.87 315.06
  A 0.98 0.98 0.0 0 0 388.12 314.39
  Q 389.02 311.13 390.64 309.88
  C 394.20 307.14 399.73 305.95 403.78 308.48
  C 405.46 309.53 406.78 312.52 407.65 314.12
  A 1.77 1.77 0.0 0 0 410.40 314.58
  C 414.24 311.06 414.82 308.56 420.85 308.56
  C 425.04 308.56 428.13 312.31 428.22 316.47
  A 1.39 1.38 -84.7 0 0 429.31 317.79
  Q 431.95 318.36 434.96 318.64
  C 440.07 319.11 444.11 321.08 447.53 324.47
  Q 451.47 328.37 451.55 328.45
  C 454.01 330.73 460.42 337.70 457.75 341.56
  C 456.40 343.52 454.75 345.41 452.14 345.11
  Q 451.53 345.04 451.73 344.46
  C 452.76 341.44 449.05 338.83 446.76 338.06
  Q 440.72 336.04 433.31 336.14
  Q 429.06 336.20 420.07 338.06
  Q 407.23 340.73 405.00 340.87
  Q 397.58 341.34 381.19 338.89
  A 0.47 0.46 -81.0 0 0 380.67 339.27
  L 380.62 339.53
  Q 380.54 339.97 380.97 340.03
  Q 391.62 341.42 394.83 341.80
  C 403.69 342.85 413.10 340.97 421.58 338.92
  C 429.77 336.93 442.77 335.68 449.69 341.11
  A 2.12 2.11 19.8 0 1 450.51 342.84
  Q 450.38 347.19 447.24 350.24
  Q 446.07 351.37 439.14 358.64
  C 438.11 359.72 435.93 361.42 434.12 362.14
  Q 424.03 366.14 420.26 366.57
  Q 419.23 366.69 415.74 366.52
  C 414.12 366.44 413.56 365.91 412.28 365.02
  C 410.03 363.46 406.18 364.98 404.20 366.55
  Q 403.80 366.87 403.28 366.85
  C 400.76 366.73 397.98 367.39 395.14 366.34
  C 387.56 363.52 382.47 362.22 378.03 359.36
  A 0.44 0.44 0.0 0 1 378.15 358.57
  Q 383.15 357.11 387.12 353.21
  Q 387.19 353.14 387.10 353.08
  L 386.52 352.75
  Q 386.29 352.62 386.10 352.80
  Q 383.32 355.39 380.29 356.51
  C 376.72 357.83 374.08 359.37 370.28 359.81
  Q 365.88 360.32 362.08 360.57
  Q 361.93 360.58 361.91 360.72
  L 361.84 361.06
  Q 361.81 361.23 361.98 361.25
  Q 368.84 361.66 374.81 359.96
  Q 375.36 359.81 375.89 360.04
  Q 381.95 362.81 392.50 366.44
  Q 394.50 367.13 394.41 369.03
  A 0.31 0.30 -10.5 0 0 394.84 369.32
  Q 398.61 367.72 401.53 367.99
  Q 403.66 368.19 401.83 369.30
  C 399.09 370.98 395.61 370.72 391.74 370.36
  Q 390.28 370.23 389.64 370.41
  Q 387.75 370.93 389.69 371.30
  L 392.49 371.82
  Q 393.68 372.05 392.86 372.87
  L 392.59 373.13
  A 2.36 2.36 0.0 0 1 390.69 373.81
  C 389.43 373.69 387.56 373.31 386.40 372.74
  C 378.16 368.65 369.90 368.61 360.04 367.85
  C 356.08 367.55 349.30 367.75 343.92 366.29
  C 337.77 364.63 340.42 358.73 343.74 355.74
  Q 349.72 350.33 357.47 344.97
  Q 361.15 342.43 365.81 341.18
  Q 366.19 341.08 366.01 340.73
  L 365.88 340.49
  A 0.66 0.64 -22.4 0 0 365.11 340.18
  C 357.47 342.45 351.29 348.24 346.38 351.87
  C 343.93 353.67 338.98 358.40 338.84 361.59
  Q 338.65 365.94 336.42 362.25
  Q 335.26 360.34 330.10 360.49
  C 327.46 360.57 324.68 361.62 321.71 361.51
  Q 319.11 361.41 317.10 361.29
  Q 316.42 361.25 316.98 360.86
  C 320.30 358.60 324.34 355.61 327.45 352.48
  C 331.15 348.76 340.70 341.84 337.39 334.75
  C 335.14 329.94 331.90 328.33 326.50 328.19
  Q 317.80 327.96 309.64 332.63
  Q 305.02 335.27 299.48 338.98
  Q 297.17 340.54 295.61 342.62
  A 0.34 0.34 0.0 0 0 295.92 343.16
  Q 296.23 343.13 296.59 342.83
  Q 303.47 336.95 312.66 332.35
  C 318.32 329.51 330.57 326.82 335.26 333.07
  C 338.39 337.24 336.92 341.66 333.36 345.14
  Q 328.38 350.01 323.52 354.78
  Q 322.50 355.78 315.46 360.54
  Q 315.03 360.83 314.53 360.73
  L 313.68 360.57
  Q 313.21 360.48 313.13 360.96
  Q 313.10 361.16 313.20 361.35
  Q 313.27 361.47 313.40 361.51
  Q 320.20 363.42 326.97 362.06
  C 329.99 361.46 334.68 360.65 336.27 364.28
  A 1.56 1.55 -20.6 0 1 335.31 366.39
  Q 334.31 366.69 332.68 366.50
  Q 332.17 366.43 331.83 366.06
  Q 330.27 364.38 327.67 364.56
  Q 327.52 364.57 327.44 364.70
  L 327.09 365.32
  A 0.36 0.36 0.0 0 0 327.44 365.86
  Z"
/>
<path fill="#131313" d="
  M 403.34 314.69
  C 401.47 313.31 396.63 313.94 394.64 314.52
  Q 394.20 314.65 394.29 314.20
  L 394.39 313.66
  Q 394.49 313.13 395.01 313.02
  C 397.28 312.52 404.24 311.77 405.02 315.11
  Q 405.24 316.03 404.46 315.49
  Q 403.58 314.88 403.34 314.69
  Z"
/>
<path fill="#131313" d="
  M 425.05 316.81
  Q 422.67 313.67 419.58 314.09
  Q 417.00 314.44 414.97 315.41
  Q 414.68 315.55 414.44 315.33
  Q 414.34 315.23 414.30 315.07
  Q 414.26 314.88 414.42 314.77
  Q 417.69 312.40 421.77 313.14
  Q 424.99 313.72 425.32 316.70
  A 0.15 0.15 0.0 0 1 425.05 316.81
  Z"
/>
<ellipse fill="#cfc3b4" cx="0.00" cy="0.00" transform="translate(432.51,365.59) rotate(-24.0)" rx="3.79" ry="1.68"/>
<ellipse fill="#cfc3b4" cx="0.00" cy="0.00" transform="translate(408.20,366.99) rotate(-15.2)" rx="3.70" ry="1.10"/>
<path fill="#cfc3b4" d="
  M 427.79 365.86
  A 0.17 0.17 0.0 0 1 428.00 365.98
  L 428.02 366.07
  A 3.68 3.20 -15.1 0 1 425.30 370.11
  L 424.74 370.27
  A 3.68 3.20 -15.1 0 1 420.35 368.13
  L 420.33 368.05
  A 0.17 0.17 0.0 0 1 420.45 367.84
  L 427.79 365.86
  Z"
/>
<path fill="#cfc3b4" d="
  M 419.24 367.61
  A 0.27 0.27 0.0 0 1 419.52 367.87
  L 419.52 368.04
  A 2.64 2.52 -1.1 0 1 416.93 370.61
  L 416.27 370.63
  A 2.64 2.52 -1.1 0 1 413.58 368.16
  L 413.58 367.99
  A 0.27 0.27 0.0 0 1 413.84 367.71
  L 419.24 367.61
  Z"
/>
</svg>
