<?xml version="1.0" encoding="UTF-8" standalone="no"?>
<svg xmlns="http://www.w3.org/2000/svg" version="1.2" baseProfile="tiny" viewBox="0.00 0.00 720.00 480.00">
<path fill="#cfc3b4" d="
  M 720.00 0.00
  L 720.00 480.00
  L 0.00 480.00
  L 0.00 0.00
  L 720.00 0.00
  Z"
/>
<path fill="#040405" d="
  M 318.41 359.93
  Q 317.32 360.62 318.61 360.67
  C 321.93 360.81 327.60 360.58 331.07 361.63
  Q 334.16 362.57 337.53 363.62
  Q 339.16 364.12 339.19 362.41
  C 339.28 356.96 344.18 351.21 348.30 348.29
  Q 353.62 344.54 361.08 340.14
  Q 361.65 339.81 361.65 340.47
  L 361.65 340.78
  Q 361.65 340.87 361.58 340.92
  Q 358.21 342.86 354.95 345.00
  Q 349.29 348.71 348.40 349.40
  C 344.64 352.32 339.90 358.01 340.31 363.16
  A 1.36 1.32 -70.8 0 0 340.71 364.02
  C 343.81 366.99 347.18 367.71 351.22 368.35
  C 357.60 369.35 363.98 368.62 370.30 369.48
  Q 378.37 370.58 386.91 373.74
  C 390.04 374.89 392.54 374.90 395.08 372.93
  A 0.53 0.53 0.0 0 0 395.02 372.05
  Q 393.04 370.90 390.67 370.42
  Q 390.37 370.36 390.52 369.97
  L 390.66 369.62
  Q 390.69 369.54 390.84 369.56
  Q 392.75 369.77 394.65 370.61
  C 397.92 372.05 400.34 371.76 403.06 370.19
  Q 403.52 369.93 403.29 369.45
  C 402.88 368.61 402.50 368.11 401.41 368.17
  C 397.32 368.42 393.94 369.04 390.21 367.16
  Q 379.80 361.90 373.57 358.27
  Q 373.07 357.99 372.50 358.04
  L 358.99 359.44
  Q 356.41 359.71 358.80 358.72
  C 362.08 357.37 368.56 358.29 373.47 356.22
  C 376.19 355.07 379.54 354.52 382.36 352.91
  Q 382.69 352.72 382.76 353.09
  Q 382.79 353.26 382.77 353.38
  Q 382.74 353.57 382.65 353.65
  Q 380.92 355.25 377.05 356.08
  Q 375.99 356.30 375.11 356.86
  Q 374.00 357.57 375.18 358.16
  Q 381.78 361.46 389.36 365.48
  Q 391.42 366.57 393.59 367.06
  C 395.94 367.59 399.71 366.91 401.48 367.08
  C 404.89 367.42 408.72 362.69 412.48 366.27
  Q 412.84 366.62 413.35 366.65
  Q 414.31 366.72 415.42 366.56
  A 0.18 0.18 0.0 0 1 415.63 366.74
  L 415.63 367.20
  Q 415.63 367.56 415.27 367.59
  L 413.31 367.80
  A 1.02 1.02 0.0 0 0 412.85 369.67
  Q 415.94 371.74 419.43 370.56
  Q 419.91 370.40 419.75 369.92
  Q 419.22 368.23 419.29 367.89
  Q 419.43 367.18 419.88 367.61
  Q 420.71 368.38 421.14 369.47
  A 1.56 1.49 -84.9 0 0 421.74 370.22
  C 423.48 371.35 426.83 372.07 427.98 369.48
  A 0.77 0.76 36.2 0 0 427.85 368.66
  Q 424.85 365.43 420.26 366.07
  Q 418.74 366.28 418.21 366.15
  Q 416.16 365.66 418.22 365.23
  Q 424.53 363.93 428.73 360.72
  C 434.04 356.65 437.18 354.73 440.35 350.68
  Q 443.09 347.19 444.81 343.55
  C 445.81 341.43 445.81 339.38 446.24 336.91
  Q 446.34 336.38 445.94 336.02
  C 443.17 333.46 437.01 333.88 433.32 334.28
  Q 425.56 335.13 421.00 335.98
  Q 412.99 337.46 408.74 337.70
  Q 398.00 338.31 390.54 338.00
  Q 385.15 337.78 380.31 334.45
  Q 380.06 334.28 380.28 334.06
  L 380.62 333.72
  Q 380.74 333.59 380.89 333.69
  Q 385.61 336.91 391.52 337.05
  C 401.11 337.28 408.32 337.30 417.15 335.64
  C 424.40 334.29 443.64 329.93 447.07 335.80
  Q 447.27 336.16 447.21 336.60
  L 446.72 340.19
  A 0.74 0.73 79.7 0 0 447.80 340.95
  Q 450.20 339.62 452.00 337.99
  C 453.14 336.95 454.39 336.41 453.93 334.51
  Q 453.22 331.65 450.17 328.16
  Q 443.90 321.00 434.34 318.38
  Q 427.28 316.44 422.33 314.85
  A 0.64 0.64 0.0 0 1 421.93 314.00
  C 423.97 309.11 420.77 305.28 415.69 305.31
  C 411.34 305.34 408.16 305.43 405.66 309.63
  Q 405.40 310.07 405.59 310.45
  L 405.94 311.14
  Q 406.23 311.71 405.57 311.69
  Q 405.28 311.68 405.15 311.58
  Q 404.72 311.26 404.71 311.24
  Q 401.41 306.57 396.60 306.31
  Q 388.47 305.88 385.59 313.35
  A 0.28 0.28 0.0 0 1 385.14 313.45
  L 384.92 313.23
  Q 384.85 313.16 384.88 313.06
  C 385.27 311.75 385.42 310.13 386.39 309.13
  Q 390.36 305.05 396.57 305.21
  Q 400.71 305.31 403.74 308.50
  Q 404.49 309.29 405.15 308.43
  Q 406.43 306.80 408.15 305.54
  C 410.52 303.80 417.18 304.14 418.95 304.81
  Q 424.39 306.85 423.40 312.97
  Q 423.25 313.89 424.12 314.19
  Q 430.92 316.56 433.83 317.31
  C 441.36 319.22 447.39 322.82 451.83 328.39
  C 453.25 330.17 455.81 334.30 454.76 336.52
  C 453.61 338.98 449.37 341.46 447.05 342.09
  Q 446.56 342.23 446.35 342.69
  Q 442.46 351.29 435.45 357.33
  C 433.86 358.69 431.50 359.88 429.93 361.23
  Q 428.16 362.75 430.46 362.35
  C 432.57 361.98 438.28 361.65 439.15 364.44
  A 2.21 2.20 -24.6 0 1 438.21 366.96
  Q 434.33 369.38 429.90 369.10
  Q 429.40 369.07 429.17 369.50
  Q 428.30 371.07 427.77 371.55
  C 426.19 372.97 423.12 372.21 421.37 371.35
  Q 420.92 371.13 420.47 371.34
  Q 416.97 372.96 412.81 370.96
  Q 412.38 370.75 412.13 370.36
  L 411.46 369.34
  Q 411.18 368.90 410.70 369.13
  Q 407.77 370.60 406.52 370.71
  C 403.13 371.00 401.14 372.31 397.50 372.89
  Q 397.00 372.97 396.62 373.30
  C 392.95 376.42 389.63 375.97 385.02 374.27
  Q 374.91 370.54 367.57 370.31
  Q 358.21 370.01 357.59 370.01
  C 352.07 369.95 343.54 368.40 339.99 365.05
  A 1.45 1.45 0.0 0 0 337.74 365.37
  C 336.07 368.22 333.67 367.39 331.11 367.42
  A 1.24 1.24 0.0 0 0 330.22 367.82
  C 326.11 372.28 320.62 368.05 316.52 368.87
  Q 315.59 369.06 316.26 369.74
  L 318.24 371.71
  A 1.19 1.18 -26.1 0 1 317.55 373.72
  C 315.16 374.04 313.72 372.53 310.79 370.65
  C 305.37 367.19 298.72 368.87 294.82 368.90
  Q 290.05 368.93 286.06 366.88
  A 2.22 2.22 0.0 0 1 285.51 363.34
  L 286.86 361.98
  A 0.81 0.80 54.5 0 0 287.01 361.04
  C 282.42 352.01 290.94 338.86 297.30 332.79
  C 304.91 325.52 310.90 320.48 320.21 317.21
  Q 323.60 316.02 338.62 311.86
  C 343.59 310.49 347.99 309.96 353.97 308.96
  Q 369.03 306.44 383.76 308.49
  Q 384.77 308.63 385.23 309.43
  Q 385.51 309.90 384.97 309.82
  C 372.95 307.93 364.70 308.77 351.89 310.42
  C 340.59 311.87 329.83 315.23 319.13 318.66
  Q 314.51 320.14 310.93 322.70
  Q 301.13 329.70 293.92 337.94
  C 291.18 341.07 288.22 347.35 287.32 351.02
  Q 286.20 355.58 287.49 360.22
  A 0.88 0.87 -30.4 0 0 288.96 360.60
  Q 292.06 357.48 294.99 353.33
  C 299.54 346.89 304.34 342.53 310.96 339.33
  C 314.79 337.48 318.59 337.71 322.56 337.06
  Q 322.87 337.01 322.90 337.32
  L 322.94 337.69
  Q 322.96 337.85 322.80 337.89
  Q 319.16 338.68 316.67 338.90
  C 311.03 339.41 305.30 343.64 301.24 347.35
  C 296.96 351.26 294.12 357.37 289.71 361.16
  Q 287.30 363.23 286.60 363.91
  A 1.36 1.36 0.0 0 0 286.84 366.04
  Q 289.62 367.75 293.04 367.70
  Q 298.19 367.62 304.03 367.30
  C 306.49 367.16 309.24 368.39 311.62 369.97
  Q 315.33 372.44 316.30 372.55
  Q 316.93 372.62 316.67 371.98
  L 316.37 371.27
  Q 316.10 370.61 315.18 370.15
  Q 313.74 369.44 313.97 368.44
  Q 314.09 367.92 314.61 367.84
  Q 318.01 367.33 319.32 367.62
  C 322.52 368.35 327.04 369.92 328.99 367.54
  Q 329.37 367.08 328.83 366.83
  Q 326.97 365.95 324.58 366.11
  Q 324.14 366.13 324.10 365.70
  L 324.06 365.31
  Q 324.03 365.07 324.27 365.04
  Q 328.81 364.53 332.99 366.49
  A 2.24 2.24 0.0 0 0 335.54 366.05
  L 336.10 365.49
  Q 336.74 364.85 335.93 364.47
  C 329.02 361.22 323.04 361.89 314.75 361.86
  Q 312.95 361.85 314.51 360.96
  C 317.93 359.01 322.72 356.23 326.29 353.01
  Q 333.04 346.95 337.45 342.70
  C 343.17 337.20 340.44 332.03 333.29 331.41
  Q 322.15 330.45 310.62 334.65
  C 305.41 336.55 301.51 339.69 297.28 343.38
  Q 297.03 343.60 296.80 343.36
  L 296.59 343.15
  A 0.52 0.52 0.0 0 1 296.61 342.39
  Q 303.79 336.19 307.66 334.66
  Q 320.50 329.59 332.56 330.08
  C 337.92 330.30 344.41 334.32 340.35 340.63
  C 338.50 343.51 335.00 346.39 332.94 348.42
  Q 326.30 354.99 318.41 359.93
  Z"
/>
<path fill="#040405" d="
  M 416.80 311.44
  C 415.14 310.46 411.29 311.69 410.05 311.88
  A 0.43 0.32 19.5 0 1 409.63 311.26
  C 411.54 310.34 416.89 309.01 418.43 311.00
  Q 419.73 312.68 417.77 311.98
  Q 417.62 311.93 416.80 311.44
  Z"
/>
<path fill="#040405" d="
  M 396.60 311.24
  C 397.53 311.36 399.24 311.97 401.22 312.53
  Q 401.90 312.73 401.83 313.37
  A 0.53 0.53 0.0 0 1 401.06 313.79
  Q 398.79 312.64 396.45 312.32
  Q 394.11 312.00 391.62 312.51
  A 0.53 0.53 0.0 0 1 390.99 311.90
  Q 391.09 311.26 391.80 311.26
  C 393.86 311.24 395.67 311.11 396.60 311.24
  Z"
/>
<path fill="#cfc3b4" d="
  M 424.01 365.17
  A 0.15 0.14 25.8 0 1 423.93 364.95
  C 425.42 362.79 434.39 363.25 435.90 363.48
  Q 440.41 364.16 436.65 366.78
  Q 435.33 367.71 430.68 368.02
  Q 429.16 368.13 427.44 366.88
  Q 425.91 365.78 424.01 365.17
  Z"
/>
<ellipse fill="#cfc3b4" cx="0.00" cy="0.00" transform="translate(407.67,367.82) rotate(-17.8)" rx="3.55" ry="1.40"/>
</svg>
