<svg id="Layer_1" data-name="Layer 1" xmlns="http://www.w3.org/2000/svg" viewBox="0 0 89.74 38.12"><defs><style>.cls-1{fill:#d1a451;}</style></defs><title>eyeball</title><g id="eyeball"><path class="cls-1" d="M268.83,239.85h0Z" transform="translate(-210.75 -211.55)"/><path class="cls-1" d="M270.83,231.54l0,0Z" transform="translate(-210.75 -211.55)"/><path class="cls-1" d="M266.59,248.72H266a3.78,3.78,0,0,1-.22.4c1.09-.19,2.21-.43,3.37-.75l-.33-.23a.05.05,0,0,1,0,0v0l-1-.66c.52,0,1.14-.14,1,.66l0,0h0a.48.48,0,0,1,.67.14c.92-.25,1.88-.55,2.87-.9,1.62-.57,3.14-1.08,4.64-1.6-.72-.54-1.42-1.1-2.14-1.63a5.89,5.89,0,0,0-1.19-.68c-.45-.21-.92-.37-1.41-.55a17.35,17.35,0,0,1-3.11,2.32,4.17,4.17,0,0,0-2.57,3.5Z" transform="translate(-210.75 -211.55)"/><path class="cls-1" d="M224.63,230.41l-.45.65a6.3,6.3,0,0,1-2.82-.66h-5.48c.39.44.26.56-.25,1.39s-1.47,1.13-2.17,1.74c0,0-.2-.1-.35-.18.37-.54.72-1,1.06-1.55l.71.43c-.72-1-.9-1.43-.48-1.84h-3.65c0,2.43,4.61,5.68,11.27,10.09,3.92,2.6,9,3.21,14.51,6a24.56,24.56,0,0,0,8.06,2.27h0c3.51.45,7.14.48,10.63.73a3.73,3.73,0,0,0,.47,0l-.16-.15.16-.18.41.35a45.37,45.37,0,0,0,6.7,0l-1.13-.85-.1,0,0,0c-.78.06-1.14-.51-1.55-1l-.1-.07-.05-.07-2.79-1.21c-.08.28-.12.48-.2.75a3.24,3.24,0,0,1-1.31-2.21l0,0,0-.05a2.43,2.43,0,0,1-1.83-1.06l.18-.25,1.65,1.31.07,0h0a.08.08,0,0,1,0,.06l1.72,1.22a4.38,4.38,0,0,1,.27-1c.06-.1.38-.05.57-.07-.11-.33-.23-.66-.37-1.07,1,.18.19.75.38,1.05v.66c.65.68,1.2,1.27,1.75,1.83l.09,0a.22.22,0,0,1,.07.09c.52.33,1,.66,1.55,1h.07l.07,0a2.21,2.21,0,0,1,1,.4,1.16,1.16,0,0,0,.54.41l.62-.06c.21-.65.39-1.2.55-1.75,1,.35.6-1,1.36-1.09.13,0,.34-.71.3-1.07a14.14,14.14,0,0,0-.54-2.06c.68.68,1.1,1.38,1.92.8,0,0,0,0,0-.05a1,1,0,0,1-.63-1l.3-.12.33,1.1,0,0,0,0c.41-.18.94-.24,1.2-.54a20.18,20.18,0,0,0,1.38-2.08l-1.15-1.77h-.06v-.05a6.64,6.64,0,0,1-2.29-2.07,5.09,5.09,0,0,1,1,.46c.55.43,1.19.81,1.25,1.61l0,0s0,0,0,0a1.43,1.43,0,0,1,.63.23c.46.48.85,1,1.31,1.52a2.89,2.89,0,0,0,.78.44c-.2-.53-.38-1-.54-1.45H271l-.05-.07-.33-.14.11-.17c.07.1.14.21.22.31l.1,0,0,0a2.22,2.22,0,0,1,.45.1c0,.47.33.61.66.89,1.14,1,2.67,1.46,3.62,2.67a3,3,0,0,0,1.93,1.16,1.17,1.17,0,0,1,.2.06l3.85-1.33s0,0,0-.05.06,0,.1,0c2-.71,4.06-1.43,6.26-2.24l.79-.32.09-.12.08.05c.79-.32,1.55-.66,2.27-1-.33-.39-.08-.73.15-1.09l-1.2.53c-.85-.37-1.08-1.28-1.56-2s-.7-2.15-2-2.31l-.52.49h0v1.11l-.23,0c.07-.36.13-.71.2-1.06a1.25,1.25,0,0,0-.56-1.81,4.28,4.28,0,0,1-.76-.72,11.25,11.25,0,0,1-3.19-2.29c-.29-.33-.86-.43-1.27-.66a1,1,0,0,1-.19-.17H270c-.06.23-.13.47-.19.72a.78.78,0,0,1,.95.31l.1,0,0,.09c.14.09.27.19.4.29l-.19.15c-.06-.14-.14-.29-.21-.44l-.08-.06-.07-.07-.95-.31-.57.14s0,0,0,.05h-.06c-.22.67-.89.32-1.2.46-.21.5-.38.89-.56,1.29v.1h0a4.26,4.26,0,0,1,.23.38l-.86.34-1.77,2.5c.4.46,1,.55,1,1.23a1.6,1.6,0,0,1-1.3-1.86c.5-.73.91-1.34,1.4-2l.65.17c-.06-.31-.13-.63-.24-1.13l.88.41v0s0,0,0-.07c-.06-1.44,0-1.45,1.56-1.74h.2a.05.05,0,0,0,0,0h.07a1.57,1.57,0,0,0,.14-.86l-39,0a3.18,3.18,0,0,1,.29.73c-.3-.24-.58-.49-.87-.73h-2.25l.19.13-.15.24-.48-.37H224.7Zm63.09,8a1.74,1.74,0,0,0-.05.22c-.06,0-.16-.05-.18-.11s0-.15,0-.24l.21.13Zm-.31,2.94c0-.06,0-.16,0-.19a.81.81,0,0,1,.22,0,1,1,0,0,1-.11.21s-.12,0-.12,0Zm-7.24-9.29.18.7-.4.07c0-.26,0-.5-.05-.74l.27,0Zm4,4.34v-1C284.7,235.9,284.85,236.16,284.18,236.42Zm.86-1.58s.09,0,.09.06a2.12,2.12,0,0,1,0,.24s-.12,0-.12-.07a1.12,1.12,0,0,1,.05-.22Zm-2.53,4.34a.07.07,0,0,0,0-.06c0-.19,0-.38,0-.57l.21,0-.18.54v.06h0c.3-.07.72-.28.87-.16.76.62,1.46,1.31,2.18,2l-.14.16c-1-.67-1.93-1.32-2.89-2h0Zm-.47-5a.84.84,0,0,1-.35-1.22A.88.88,0,0,1,282,234.23Zm-.86,4.14.94-.54C282.21,238.56,282.07,238.86,281.18,238.37ZM281,237s0,.08,0,.12-.15,0-.15-.06A.13.13,0,1,1,281,237Zm-1,6,0,0c-.07-.19-.15-.39-.29-.79.55.34.48.56.29.79h0c.34-.12.7-.35,1,.25l-1-.25h0Zm-1-8.14-.13-.2c.07,0,.16-.08.23,0s.07.11.12.17l-.23.07Zm-1.2,6.49-.13-.23a1.06,1.06,0,0,1,.19,0s0,.08,0,.11a.83.83,0,0,1-.12.16Zm.35-4.44c-.32-.2-.59-.38-.88-.55h0v-.23h0a2.43,2.43,0,0,1,0,.25c.36.05,1-.32.85.55Zm-3.92,1.92-.46-.24.31-.1a1.71,1.71,0,0,1,.13.34Zm-1.64-5.82.37.3-.11.15a1.32,1.32,0,0,1-.35-.23S272.61,233.13,272.64,233.05Zm-4.06,1.55a.91.91,0,0,1-.24-.24l.22-.18.23.3-.2.12Zm-.2,8.36c0-.12,0-.25,0-.38s.05,0,.09,0,.07.26.11.39l-.18,0Zm-1.07-.5.16-.14.23.42.1.08v.11l.16.31-.18,0c0-.12,0-.23,0-.35l0-.07-.07-.11ZM264.89,232l-.41-.16.2-.21a3.13,3.13,0,0,1,.22.36Zm-.46,11.25c.08-.06.14-.14.22-.2l.53.54-.21.2Zm-2.5-8.83-.23.07c0-.19-.1-.37-.15-.55a.76.76,0,0,0,.2-.06Zm1.72,1.51a1.57,1.57,0,0,1-.28-.21s.05-.15.08-.21l.32.16c0,.11-.08.18-.12.25Zm-.62-5.16s0-.12.07-.18.15.1.18.17,0,.12-.06.18A.63.63,0,0,1,263,230.72Zm-1.2,8.92c0-.45,0-1,.53-.7.14.06.26.15.56.32Zm.19,1.59-.75-.26c0-.08.07-.15.1-.22l.74.29a1.54,1.54,0,0,0-.08.19Zm-2.26-1.1.14-.27.8.41a1.3,1.3,0,0,1-.08.17Zm-.74.55.28-.25c.12.19.24.36.35.56a1.24,1.24,0,0,1-.18.14C259.32,241,259.16,240.84,259,240.68Zm-1.24-7.51s.19-.09.2-.08a1.78,1.78,0,0,1,.17.3l-.29.11A1.44,1.44,0,0,1,257.78,233.17Zm-1.69,1.8c0-.27.08-.53.13-.95.8.42.4.72.14,1C256.33,235.06,256.21,235,256.09,235Zm3.56-2.06a10.26,10.26,0,0,1-3.68-1.36,4.58,4.58,0,0,1,1.26,0c.76.27,1.5.61,2.22,1,.11,0,.15.24.21.39h0l.08.06.43.06c0,.07-.06.12-.08.18l-.35-.23h-.11s0,0,0,0Zm-5.4,4.38s-.08-.06-.08-.09a1.89,1.89,0,0,1,.09-.21c0,.06.1.11.15.17l-.16.12Zm4.43,11.85c0-.09.07-.18.1-.26a2.25,2.25,0,0,1,.21.12l-.09.17S258.76,249.15,258.68,249.14Zm-2.84-1.39a3,3,0,0,1,.12-.4c0,.17.11.33.22.65C256,247.84,255.84,247.79,255.84,247.75Zm-8.53-12.12a.41.41,0,0,1,0,.08l-.14.1-.41.64-.2-.18.61-.46.09-.13a.11.11,0,0,0,0-.05c-.11-.45-.22-.89-.31-1.34s.06-.6.54-.48A2.06,2.06,0,0,1,247.31,235.63Zm1.24-2.5-.22.11a1.46,1.46,0,0,1-.07-.19l.12,0A1,1,0,0,1,248.55,233.13Zm5.09,1.06c0,.06,0,.15-.06.23s-.17-.07-.19-.13,0-.13.06-.21S253.62,234.14,253.64,234.19Zm1.45,14.45s-.06-.06-.1-.08a1.12,1.12,0,0,1,.32-.14s.1.08.19.18a3.58,3.58,0,0,1-.4,0Zm-2.1-2.71c.79-.05,1.09.1,1.17.94Zm-.77-13.7.45,0,.36.72c-.61-.17-.57-.41-.36-.72l-.45,0Zm-.3,10.44c0-.08.07-.14.1-.22,0,.09.12.16.14.25s-.06.11-.11.16S251.92,242.73,251.92,242.67Zm-.81,4,.43-.42.18.12-.32.54Zm-1.62-.65a1.24,1.24,0,0,1,.18-.14s.09.07.09.09a1.43,1.43,0,0,1-.12.21C249.58,246.15,249.54,246.09,249.49,246Zm-1.28-.9-.51-.25,0-.09.51.24a.89.89,0,0,1-.05.1Zm-.6-1.72s0,.15,0,.12l-1.47.39c-.54-.62.57-.54.48-1.09.44.27.72.42,1,.6Zm-1.06,3.05-.76-.08v-.08h.77v.16Zm-2.77.79c.31-.6.58-.62,1.11-.41Zm-3.56-3.2c1.05.92,1.88,1.67,2.71,2.41l-.19.2C241.82,246,240.52,245.75,240.22,244.06Zm2.57-3.57a2,2,0,0,1,.2-.35c0,.17,0,.33.1.63C242.9,240.6,242.79,240.53,242.79,240.49Zm-4.42,5.07.2-.08.34.65-.25.17C238.56,246.06,238.47,245.81,238.37,245.56Zm-.66-2.49a2.1,2.1,0,0,1-.22-.3c.08-.05.19-.14.21-.12a1.44,1.44,0,0,1,.24.3l-.24.12Zm-2.29,1.76c.66-.12.84.09.6.66.58-.18.84.22,1.32.79-.62-.36-1-.58-1.32-.79Zm1.27-2.35s-.08,0-.1,0a.4.4,0,0,1,0-.11h.09a1,1,0,0,1,0,.15Zm-3.62.76c.1,0,.2-.06.3-.09,0,.24.07.47.12.71l.67,0V244l-.67-.13C233.34,243.65,233.21,243.45,233.07,243.24Zm1.15-10.05a13.37,13.37,0,0,1-1.73-1.2c0-.08.1-.16.14-.24l1.9.73c-.09-.27-.16-.53-.31-1,.47.42.64.81.5,1.16l1.17,1.1a3.23,3.23,0,0,1,1.11-.08,15.64,15.64,0,0,1,1.79.78h0v0c.92.73,1.82,1.46,2.75,2.17s1.38,1.77,2.73,1.43c.09,0,.27.24.45.39.19-.37.31-.62.39-.75a13.52,13.52,0,0,1,2.12,1c1.11.79,2.14,1.7,3.19,2.57l-.15.26a6.15,6.15,0,0,1-.85-.43c-.29-.21-.56-.7-.81-.69a6.59,6.59,0,0,1-2.75-.88,3.15,3.15,0,0,0-1.19-.09c-.71,0-1.37,0-1.66-.8a1,1,0,0,0-.35-.41l-3.38-3c-.25-.22-.68-.36-.49-.83h0a4.73,4.73,0,0,1-1.26-.18c-.81-.28-1.41.22-2.16.26,0-.58-.46-1-1.14-1.37Zm-3.08,3.19c-.07,0-.17-.08-.19-.13A.37.37,0,0,1,231,236c.06,0,.17.06.19.12S231.16,236.3,231.14,236.38Zm-.1,7.3-.7-.23.07-.23.69.28a1.34,1.34,0,0,0-.07.18Zm-2-10.29c.07.05.17.07.2.14s0,.13-.06.21-.2-.06-.21-.1,0-.16.05-.25ZM226.61,241l.1-.15c.63.3,1.26.61,1.91.87s.61.22.59,1.12Zm-.07-2.4c0-.06,0-.13.07-.2l.71.16a2.67,2.67,0,0,1-.09.26Zm-1.13-7.31c.06-.09.11-.2.17-.3l1.2.63c-.07.12-.15.23-.23.35Zm-13.67-.83.48.14c0,.07,0,.13-.05.2l-.5-.12.06-.22Zm1.44,1-.16-.26.5-.16.06.17-.42.25Zm3.8,1.44-.22.26-.87-.65C216.67,232.08,216.74,232.6,217,232.87Zm5.79.77-.07.52h0l.07,0,.69.15c0,.06,0,.13-.05.2l-.64-.36h-.09v0l-.45,0c0-.05-.08-.12-.11-.18l.63-.38Zm-.82,1.6,1.58.48-1,.58c-.12-.21-.3-.5-.61-1.06Z" transform="translate(-210.75 -211.55)"/><path class="cls-1" d="M296.37,237.23c.17-.4.35-.79.84-.87,0,0,0,.08,0,.14,2.13-2.05,3.31-4.2,3.31-6l-19,0a22.63,22.63,0,0,1,3.43,3l.91.31c.12-.26.23-.52.42-.93a4,4,0,0,1,.34.62c-.5.49-.16.8.2,1.12s.48.59.79.7c1.22.42,1.58,1.57,2,2.54a2.7,2.7,0,0,0,1.9,1.55c.19.23.39.47.57.71a23.61,23.61,0,0,0,4.29-2.91Zm-8.29-6.18c.14.52.25,1,.36,1.39l-.25.12c-.3-.27-.59-.56-1-.9l.86-.61Zm1.24,2.45-.3-.27.16-.16C289.22,233.17,289.25,233.28,289.32,233.5Zm2.95-2.31.15.17a.6.6,0,0,1-.15.09s-.07,0-.07-.09a1.27,1.27,0,0,1,.06-.18Zm6.57.92c-.39-.52-.76-1-1.13-1.44C298.47,231.09,298.84,231.57,298.84,232.11Zm-.37,2.41a1,1,0,0,1,0-.17l.2,0-.09.18A.2.2,0,0,1,298.47,234.52Zm-.91,1a.45.45,0,0,0-.16,0c.06-.18.1-.36.16-.53s.06-.4.11-.69l.6.87-.71-.2h0v.59Z" transform="translate(-210.75 -211.55)"/><path class="cls-1" d="M268.83,221.37h0Z" transform="translate(-210.75 -211.55)"/><path class="cls-1" d="M270.85,229.71l0,0Z" transform="translate(-210.75 -211.55)"/><path class="cls-1" d="M266.59,212.48a4.15,4.15,0,0,0,2.57,3.5,17.9,17.9,0,0,1,3.11,2.33c.49-.19,1-.34,1.41-.55a7,7,0,0,0,1.19-.68c.72-.54,1.42-1.1,2.14-1.63l-4.64-1.61c-1-.35-1.95-.65-2.87-.9a.48.48,0,0,1-.67.15h0l0,0c.14.8-.48.67-1,.66l1-.66v-.06s0,0,0,0l.33-.23a32.72,32.72,0,0,0-3.37-.75c.08.13.15.25.22.39h.58Z" transform="translate(-210.75 -211.55)"/><path class="cls-1" d="M224.7,230.84h2.43l.48-.37.15.24-.19.13h2.25c.29-.24.57-.5.87-.74a3.09,3.09,0,0,1-.29.74l39,0a1.55,1.55,0,0,0-.14-.86h-.07s0,0,0-.05H269c-1.59-.28-1.62-.29-1.56-1.73,0,0,0,0,0-.08v0l-.88.41c.11-.51.18-.83.24-1.13l-.65.17c-.49-.7-.9-1.31-1.4-2a1.59,1.59,0,0,1,1.3-1.86c0,.68-.62.76-1,1.22l1.77,2.51c.26.09.52.2.86.34,0,.07-.13.23-.23.38h0v.1c.18.39.35.79.56,1.28.31.15,1-.21,1.2.46h.06a.07.07,0,0,0,0,.06l.57.14.95-.32.07-.06.08-.07c.07-.14.15-.3.21-.44l.19.16-.4.28a1,1,0,0,1,0,.1l-.1,0a.78.78,0,0,1-.95.32c.06.24.13.49.19.72h10.23a1,1,0,0,1,.19-.17c.41-.23,1-.33,1.27-.66a10.87,10.87,0,0,1,3.19-2.29,4.75,4.75,0,0,1,.76-.73,1.25,1.25,0,0,0,.56-1.81c-.07-.35-.13-.7-.2-1l.23,0v1.11l0,0h0l.52.5c1.31-.17,1.44-1.45,2-2.32s.71-1.64,1.56-2l1.2.53c-.23-.35-.48-.69-.15-1.09-.72-.36-1.48-.71-2.27-1a.24.24,0,0,1-.08.06.62.62,0,0,0-.09-.12l-.79-.32c-2.2-.81-4.24-1.54-6.26-2.24l-.1,0,0,0-3.85-1.33c-.07,0-.12.05-.2.06a3,3,0,0,0-1.93,1.16c-.95,1.21-2.48,1.68-3.62,2.66-.33.29-.64.42-.66.89,0,0-.27.07-.45.1a.11.11,0,0,1,0,0l-.1,0c-.08.1-.15.21-.22.31,0-.06-.08-.12-.11-.18l.33-.13s0-.06.05-.08h.06c.16-.45.34-.91.54-1.44a2.85,2.85,0,0,0-.78.43c-.46.49-.85,1-1.31,1.53a1.56,1.56,0,0,1-.63.23s0,0,0,0h0c-.06.8-.7,1.19-1.25,1.62a5.72,5.72,0,0,1-1,.46,6.77,6.77,0,0,1,2.29-2.08v0h.06c.35-.54.7-1.09,1.15-1.77a19.16,19.16,0,0,0-1.38-2.08c-.26-.3-.79-.37-1.2-.54l0,0,0,0-.33,1.11c-.1,0-.2-.09-.3-.12a1,1,0,0,1,.63-1,.06.06,0,0,1,0,0c-.82-.58-1.24.12-1.92.8a14.83,14.83,0,0,0,.54-2.06c0-.36-.17-1.07-.3-1.08-.76,0-.37-1.43-1.36-1.08-.16-.55-.34-1.1-.55-1.75l-.62-.07a1.23,1.23,0,0,0-.54.41,2.22,2.22,0,0,1-1,.41l-.07.05h-.07l-1.55,1a.31.31,0,0,1-.07.09l-.09,0-1.75,1.83v.66c-.19.31.59.88-.38,1.06.14-.41.26-.74.37-1.07-.19,0-.51,0-.57-.08a4.27,4.27,0,0,1-.27-.95l-1.72,1.22a.06.06,0,0,1,0,0h0a.11.11,0,0,0-.07,0l-1.65,1.31-.18-.25a2.43,2.43,0,0,1,1.83-1.06l0,0s0,0,0,0a3.24,3.24,0,0,1,1.31-2.22c.08.28.12.47.2.76l2.79-1.22.05-.06.1-.07c.41-.49.77-1.07,1.55-1l0,0,.1,0c.37-.29.75-.56,1.13-.85a44,44,0,0,0-6.7,0l-.41.35-.16-.19.16-.14-.47,0c-3.49.26-7.12.29-10.63.74h0a24.56,24.56,0,0,0-8.06,2.27c-5.54,2.82-10.59,3.42-14.51,6-6.66,4.41-11.27,7.66-11.27,10.1h3.65c-.42-.42-.24-.84.48-1.84l-.71.42-1.06-1.54c.15-.08.32-.2.35-.18.7.6,1.65.86,2.17,1.73s.64,1,.25,1.4h5.48a6.17,6.17,0,0,1,2.82-.66c.13.17.29.41.45.65Zm63-8-.21.13c0-.09-.06-.18,0-.24s.12-.08.18-.11a2.25,2.25,0,0,0,.05.22Zm-.31-3s.11,0,.12,0a1.34,1.34,0,0,1,.11.21.81.81,0,0,1-.22,0s0-.12,0-.19Zm-7.25,9.33-.27,0c0-.24,0-.49.05-.74l.4.07-.18.7Zm4-3.37v-1C284.85,225.07,284.7,225.33,284.18,225.79Zm.86.58a.87.87,0,0,1-.05-.22s.08,0,.12-.06a1.79,1.79,0,0,1,0,.24s-.06,0-.09,0Zm-2.54-4.32h0l2.89-2,.14.17c-.72.67-1.42,1.36-2.18,2-.15.12-.57-.09-.87-.15h0v0l.18.54-.21,0c0-.19,0-.38,0-.58a.05.05,0,0,0,0,0Zm-.81,6.17A.84.84,0,0,1,282,227,.88.88,0,0,1,281.69,228.22Zm.43-4.82-.94-.54C282.07,222.37,282.21,222.66,282.12,223.4Zm-1.09.84a.8.8,0,0,1-.13.19,1.11,1.11,0,0,1,0-.25s.1-.05.15-.07,0,.1,0,.12Zm-1-6h0l1-.25c-.25.6-.61.37-1,.25h0c.19.23.26.45-.29.79.14-.41.22-.6.29-.79l0,0Zm-1,8.13.23.07c0,.06-.07.16-.12.17s-.16,0-.23-.05l.13-.2Zm-1.2-6.51a.88.88,0,0,1,.12.17s0,.11,0,.11a1.05,1.05,0,0,1-.19-.05l.13-.23Zm.36,4.44c.11.86-.49.5-.85.54,0,.11,0,.21,0,.26h0v-.23l0,0h0c.29-.16.56-.34.88-.54Zm-3.94-1.91a1.71,1.71,0,0,1-.13.34s-.14,0-.31-.1c.19-.1.32-.18.46-.24ZM272.55,228a1.63,1.63,0,0,1,.35-.23c0,.06.08.11.11.16l-.37.29C272.61,228.1,272.53,228,272.55,228Zm-4-1.33.2.13a3.25,3.25,0,0,0-.23.29l-.22-.17a1.13,1.13,0,0,1,.24-.25Zm-.21-8.37a1.16,1.16,0,0,1,.18,0c0,.13-.07.26-.11.39l-.09,0c0-.13,0-.26,0-.39Zm-.68.22.07-.11,0-.06c0-.12,0-.23,0-.36l.18.05-.16.31v.11l-.1.07-.23.43-.16-.14Zm-2.8,10.82c-.07.12-.14.24-.22.35l-.2-.21.41-.15Zm.07-11.8a2,2,0,0,0,.21.19l-.53.55c-.08-.06-.14-.14-.22-.21Zm-3.22,9.9-.2,0c.05-.19.11-.36.15-.55l.23.07Zm1.9-2,.12.25-.32.17c0-.07-.11-.18-.08-.21a1.6,1.6,0,0,1,.28-.22Zm-.43,5c0,.07.08.15.06.19s-.11.11-.18.17-.1-.15-.07-.18S263.15,230.39,263.22,230.33Zm-.3-8.37c-.3.18-.42.26-.56.33-.57.26-.51-.25-.53-.7Zm-.89-2a1.42,1.42,0,0,0,.08.18l-.74.3c0-.08-.07-.14-.1-.22L262,220Zm-1.41.79a1.19,1.19,0,0,1,.08.16c-.26.15-.54.28-.8.42l-.14-.27Zm-1.15-.69a1.24,1.24,0,0,1,.18.14c-.11.2-.23.37-.35.56l-.28-.25C259.16,220.39,259.32,220.24,259.47,220.1Zm-1.61,7.62.29.11a1.87,1.87,0,0,1-.17.31s-.2,0-.2-.09A1.44,1.44,0,0,1,257.86,227.72Zm-1.5-1.52c.26.28.66.59-.14,1-.05-.42-.1-.68-.13-1C256.21,226.22,256.33,226.16,256.36,226.2Zm3.3,2.09a0,0,0,0,1,0,0h.11l.35-.23.08.17-.43.07-.08.05h0c-.06.16-.1.36-.21.4a21.72,21.72,0,0,1-2.22.94,4.51,4.51,0,0,1-1.26,0,10.47,10.47,0,0,1,3.68-1.37ZM254.25,224a.83.83,0,0,1,.16.12l-.15.16a1,1,0,0,1-.09-.21s.08-.08.08-.08Zm4.65-11.9.09.18-.21.12c0-.09-.07-.18-.1-.26S258.85,212,258.9,212.05Zm-2.72,1.18c-.11.31-.17.48-.22.64a2.91,2.91,0,0,1-.12-.39S256,213.39,256.18,213.23Zm-8.64,14.18c-.48.13-.63-.07-.54-.48s.2-.89.31-1.34a.08.08,0,0,0,0,0,1,1,0,0,0-.09-.13l-.61-.46.2-.18.41.64.14.1a.21.21,0,0,1,0,.07A2.07,2.07,0,0,1,247.54,227.41Zm.84.81-.12-.05a1.34,1.34,0,0,1,.07-.18,1.13,1.13,0,0,1,.22.11Zm5.07-1.08c0-.08-.08-.15-.06-.21s.12-.07.19-.12.09.17.06.22S253.51,227.11,253.45,227.14Zm1.65-14.55.4,0c-.09.1-.15.19-.19.19a1.48,1.48,0,0,1-.32-.14s.07-.08.1-.08Zm-.94,1.77c-.08.84-.38,1-1.17.94Zm-1.94,14.57.45,0c-.21-.31-.25-.55.36-.71l-.36.71-.45.05Zm-.17-10.57c0,.06.12.12.11.17a2.18,2.18,0,0,1-.14.25c0-.08-.1-.14-.1-.22S252,218.44,252.05,218.36Zm-.65-4.06.32.54-.18.12c-.14-.14-.29-.28-.43-.43Zm-1.76.73a1.32,1.32,0,0,1,.12.2s-.08.09-.09.09a1.18,1.18,0,0,1-.18-.13C249.54,215.14,249.58,215.08,249.64,215Zm-1.44,1.06a.89.89,0,0,1,.05.1l-.51.24a1,1,0,0,1,0-.1l.51-.24Zm-.59,1.7c-.25.18-.53.33-1,.6.09-.56-1-.48-.48-1.09l1.47.38s0,.09,0,.12Zm-1.05-3v.17h-.77v-.08l.76-.09Zm-1.67-.37c-.53.21-.8.19-1.11-.42Zm-2.15.17.19.2-2.71,2.42C240.52,215.48,241.82,215.2,242.74,214.55Zm.35,5.91c-.05.29-.08.46-.1.62a2,2,0,0,1-.2-.35S242.9,220.62,243.09,220.46Zm-4.43-5.53.25.16-.34.66-.2-.09C238.47,215.42,238.56,215.17,238.66,214.93Zm-1,3.22.24.13a1.76,1.76,0,0,1-.24.3s-.13-.07-.21-.12a1.73,1.73,0,0,1,.22-.31ZM236,215.74c.35-.21.7-.43,1.32-.79-.48.57-.74,1-1.32.79.24.57.06.78-.6.66Zm.67,3a1,1,0,0,1,0,.15h-.09a.41.41,0,0,1,0-.11s.07,0,.1-.05Zm-3.2-1.4.67-.13v.18l-.67,0c-.05.25-.08.47-.12.72-.1,0-.2-.06-.3-.09C233.21,217.78,233.34,217.57,233.49,217.36Zm.74,10.69a1.73,1.73,0,0,0,1.14-1.36c.75,0,1.35.54,2.16.25a5.18,5.18,0,0,1,1.26-.17s0,0,0,0h0c-.19-.47.24-.62.49-.84l3.38-3a1,1,0,0,0,.35-.42c.29-.82,1-.83,1.66-.8a3,3,0,0,0,1.19-.09,6.58,6.58,0,0,1,2.75-.87c.25,0,.52-.49.81-.69a6.15,6.15,0,0,1,.85-.43l.15.26c-1,.87-2.08,1.78-3.19,2.57a14.47,14.47,0,0,1-2.12,1c-.08-.13-.2-.39-.39-.76-.18.16-.36.42-.45.4-1.35-.34-1.9.8-2.73,1.42s-1.83,1.45-2.75,2.18v0h0a17.62,17.62,0,0,1-1.79.78,3.83,3.83,0,0,1-1.11-.08c-.3.27-.73.69-1.17,1.1.14.35,0,.74-.5,1.16.15-.45.22-.71.31-1l-1.9.74c0-.08-.1-.17-.14-.24a13.37,13.37,0,0,1,1.73-1.2Zm-3-3s-.13.09-.19.12-.07-.17-.05-.22.12-.09.19-.13S231.22,225,231.19,225.08Zm-.16-7.53a1.34,1.34,0,0,0,.07.18l-.69.28-.07-.23.7-.23Zm-2,10.28c0-.09-.07-.17-.05-.24s.13-.07.21-.1.09.17.06.21-.13.09-.2.13Zm.15-9.39c0,.9,0,.88-.59,1.12s-1.28.57-1.91.86a.78.78,0,0,1-.1-.15Zm-2,4a2,2,0,0,1,.09.26l-.71.15a1.46,1.46,0,0,1-.07-.19Zm-.68,6.84c.08.12.16.23.23.35l-1.2.64-.17-.31Zm-14.82,1.52-.06-.22.5-.12c0,.06,0,.13.05.2l-.48.14Zm1.43-1,.42.25-.06.16-.5-.15c.06-.09.1-.18.16-.26Zm2.73-1.06.87-.64a2.75,2.75,0,0,1,.22.26C216.74,228.62,216.67,229.15,215.89,228.74Zm6.89-1.14-.63-.38c0-.07.08-.13.11-.19a3.26,3.26,0,0,1,.45.05v0h.09l.64-.35c0,.07,0,.13.05.2l-.69.14-.07,0h0l.07.53Zm-.84-1.61c.31-.56.49-.86.61-1.07l1,.59L222,226Z" transform="translate(-210.75 -211.55)"/><path class="cls-1" d="M296.36,224a23.12,23.12,0,0,0-4.29-2.91c-.18.24-.38.48-.57.71a2.68,2.68,0,0,0-1.9,1.55c-.41,1-.77,2.12-2,2.53-.31.11-.53.46-.79.71s-.7.63-.2,1.12a4,4,0,0,1-.34.62l-.42-.93-.91.31a23.19,23.19,0,0,1-3.43,3l19,0c0-1.8-1.18-3.95-3.31-6l0,.14c-.49-.09-.67-.47-.84-.88Zm-8.27,6.15c-.36-.26-.57-.42-.86-.61.37-.34.66-.63,1-.9l.25.12c-.11.43-.22.87-.36,1.39Zm1.09-2c-.06,0-.11-.11-.16-.16l.3-.28C289.25,227.94,289.22,228.05,289.18,228.16Zm3.08,1.89a1.39,1.39,0,0,1-.06-.19s.06-.08.07-.08l.15.08c-.05.07-.11.12-.15.18Zm5.45.51c.37-.47.74-.93,1.13-1.44C298.84,229.66,298.47,230.14,297.71,230.56Zm.87-3.88.09.18-.2,0a1.08,1.08,0,0,1,0-.18A.2.2,0,0,1,298.58,226.68Zm-1-1v.57h0c.2,0,.39-.1.71-.19l-.6.86c-.05-.28-.08-.48-.11-.68s-.1-.35-.16-.54l.16,0Z" transform="translate(-210.75 -211.55)"/></g></svg>